<svg width="153" height="57" viewBox="0 0 153 57" fill="none" xmlns="http://www.w3.org/2000/svg">
<path d="M51.7399 47.1798C49.6924 45.1954 48.8267 43.7897 48.8267 42.9727C48.8267 42.4121 49.2279 41.6585 50.3442 40.7273C51.2754 39.9839 51.8938 39.1487 51.8938 38.4028V35.8805C49.6229 38.6743 46.9571 40.1512 44.2013 40.1512C41.4127 40.1512 38.9973 39.1312 36.9497 37.0886L36.9547 37.0785H39.454C41.7249 37.0785 43.9122 36.5583 46.0156 35.5155C47.2149 34.921 48.3507 34.1697 49.4227 33.261C50.7471 32.1384 52.1259 30.6858 53.3397 29.4286V37.2595C53.3397 39.2952 53.4937 39.7619 51.8181 41.2788C51.0763 41.9503 50.3442 42.4913 50.3442 42.9805C50.4178 43.5032 50.4595 44.0727 51.1896 44.6722C51.5734 43.0812 53.2693 42.1595 54.4774 41.8276C56.4662 41.2809 57.7926 40.9433 58.0497 38.7916C58.0679 38.6389 58.084 37.9258 58.0913 37.7539L59.5371 37.5124L59.535 38.459C59.535 39.4663 59.1677 40.4358 58.5334 41.3743C57.5911 42.4678 56.4034 42.6683 55.1877 43.1249C53.4965 43.7601 51.7399 45.2217 51.7399 47.1798Z" fill="white"/>
<path d="M36.925 37.076C34.4739 36.665 32.4696 35.5687 30.9092 33.785C29.3459 31.9962 28.5645 29.9308 28.5645 27.5862C28.5645 24.9778 29.5515 22.7449 31.5229 20.8825C33.4973 19.0226 35.8618 18.0914 38.6176 18.0914H40.0132C41.9111 18.0914 43.5958 19.0125 45.0676 20.8547C46.5389 22.6992 47.2726 24.9423 47.2726 27.5862C45.1968 26.1526 43.8748 25.6045 41.9619 25.4244C39.6199 25.2061 37.7347 25.2747 36.0471 27.1955C34.9686 28.4235 34.4285 29.9485 34.4285 31.7728C34.4285 33.6302 35.2631 35.3963 36.9303 37.0683L36.925 37.076ZM33.312 33.7294C32.9388 32.76 32.7535 31.8286 32.7535 30.9355C32.7535 28.9259 33.459 27.2132 34.875 25.7974C36.8412 23.8334 38.912 23.5467 41.5328 23.704C42.6999 23.7751 43.3624 24.0136 45.0393 24.7926C44.4813 23.3031 43.6441 22.0928 42.5277 21.1616C41.4085 20.2304 40.1984 19.7661 38.8964 19.7661C36.4759 19.7661 34.4285 20.5476 32.7535 22.1132C31.0764 23.6762 30.239 25.5944 30.239 27.8653C30.239 30.5829 31.2642 32.5366 33.312 33.7294Z" fill="white"/>
<path d="M12.8465 42.1049C10.2407 39.8716 8.93641 37.4512 8.93641 34.8451V29.2605H5.02637V33.7287C5.02637 35.9239 5.77239 37.8242 7.26185 39.425C8.75131 41.0261 10.6137 41.9196 12.8465 42.1049Z" fill="white"/>
<path d="M29.185 29.2606H10.6138V34.2871C10.6138 36.2613 11.2278 38.0197 12.4558 39.5647C13.684 41.1101 15.3028 42.143 17.3149 42.6631L17.4088 42.6325L17.4443 42.734C16.7136 43.059 15.7393 43.2237 14.5212 43.2237H12.8466C10.2028 43.2237 7.95968 42.3 6.11763 40.4582C4.27295 38.6159 3.35184 36.373 3.35184 33.7288V29.2606H1.11903C0.370421 29.2606 0 28.9055 0 28.4234C0 27.8652 0.372927 27.5861 1.11903 27.5861C11.7407 27.5861 18.5708 27.5861 29.185 27.5861V29.2606Z" fill="white"/>
<path d="M17.4368 42.6223C18.5583 42.229 19.7965 41.369 20.9434 39.8718C22.3263 38.0677 23.5518 37.0785 24.8534 37.0785C25.5614 37.0785 26.1577 37.2837 26.6423 37.6948C27.1244 38.1033 27.368 38.6438 27.368 39.3137C27.368 40.4301 26.8275 41.3613 25.7467 42.1047C24.6682 42.851 23.3462 43.2238 21.7832 43.2238C19.9588 43.2238 18.5609 43.0361 17.5941 42.6629C17.5535 42.6833 17.5129 42.7038 17.4698 42.7238L17.4368 42.6223Z" fill="white"/>
<path d="M139.876 17.5664C139.147 17.305 138.373 17.1198 137.554 17.0183L137.541 17.0158C136.914 16.927 136.285 16.8813 135.676 16.8813C134.912 16.8813 134.174 16.9524 133.466 17.0944C132.753 17.2365 132.068 17.4471 131.416 17.7262V17.7288C130.764 18.0079 130.15 18.3579 129.576 18.7792C128.993 19.2054 128.45 19.7003 127.945 20.2637L127.458 20.8091L127.026 20.2205C126.194 19.099 125.202 18.2515 124.047 17.6781C122.883 17.102 121.551 16.8001 120.051 16.7671V16.7696H120.003C119.876 16.7696 119.775 16.7874 119.696 16.8229C119.632 16.8483 119.581 16.8914 119.539 16.9471C119.472 17.0361 119.424 17.1274 119.394 17.2187C119.364 17.305 119.348 17.399 119.348 17.4978C119.348 17.6019 119.364 17.7008 119.394 17.7922C119.427 17.8861 119.478 17.9774 119.546 18.0662L119.556 18.084C119.602 18.1474 119.663 18.1956 119.731 18.2286C119.823 18.2692 119.934 18.292 120.074 18.2971V18.2997C121.65 18.3377 122.994 18.7361 124.108 19.4923C125.212 20.2457 126.075 21.3444 126.691 22.7882C126.722 22.8517 126.757 22.905 126.796 22.9506C126.823 22.9811 126.851 23.0038 126.882 23.0217L126.889 23.0293C126.93 23.0496 126.975 23.0674 127.026 23.08C127.079 23.0928 127.148 23.1004 127.224 23.1004C127.376 23.1004 127.519 23.0674 127.645 23.0013C127.777 22.9354 127.902 22.8339 128.018 22.6944C128.468 21.9914 128.965 21.3749 129.51 20.8421C130.071 20.2939 130.68 19.8398 131.335 19.4744C131.992 19.1116 132.682 18.8376 133.405 18.6549C134.131 18.4747 134.887 18.3834 135.676 18.3834C135.999 18.3834 136.341 18.4011 136.701 18.4366C137.052 18.4696 137.399 18.5203 137.736 18.5838V18.5864C139.358 18.8908 140.72 19.5125 141.824 20.4488C142.933 21.3875 143.773 22.6359 144.343 24.1889L144.349 24.2066C144.544 24.7953 144.704 25.3864 144.833 25.9853C144.96 26.5892 145.059 27.2082 145.128 27.8503C145.196 28.4668 145.247 29.091 145.28 29.7229C145.316 30.385 145.331 31.0295 145.331 31.6614C145.331 32.1587 145.326 32.7295 145.31 33.374C145.3 33.9602 145.282 34.5361 145.257 35.102V35.1045C145.211 36.1473 145.188 37.1851 145.188 38.2103V42.4579V43.0541H144.592H141.233H140.634V42.4579V35.4902C140.634 35.2239 140.639 34.8686 140.649 34.4425C140.654 34.0794 140.664 33.7216 140.677 33.3639V33.3589C140.692 32.9706 140.705 32.5926 140.713 32.2246C140.72 31.9151 140.723 31.5345 140.723 31.0828C140.723 30.6947 140.715 30.3318 140.7 29.9969C140.682 29.6341 140.659 29.2763 140.624 28.921C140.591 28.5657 140.543 28.2207 140.482 27.8857C140.424 27.5609 140.35 27.2311 140.261 26.8937C140.111 26.371 139.911 25.8889 139.657 25.4474C139.403 25.0034 139.101 24.5999 138.746 24.2396C138.404 23.8919 138.015 23.6052 137.582 23.387C137.143 23.1637 136.658 23.0064 136.123 22.9125C135.831 22.8719 135.536 22.8492 135.24 22.8492C134.275 22.8492 133.395 23.0648 132.603 23.4962C131.806 23.93 131.086 24.5872 130.442 25.4651C130.162 25.894 129.934 26.338 129.757 26.7972C129.576 27.2591 129.447 27.7361 129.366 28.2309C129.287 28.7357 129.226 29.2584 129.183 29.8015C129.142 30.3191 129.122 30.8469 129.122 31.3848V32.7727H129.12C129.127 32.9859 129.132 33.2091 129.137 33.44C129.142 33.7522 129.145 33.9779 129.145 34.1202V42.4579V43.0541H128.549H125.204H124.608V42.4579V30.9636C124.608 30.3648 124.593 29.771 124.555 29.1951C124.537 28.9109 124.507 28.6242 124.463 28.34C124.42 28.0507 124.367 27.7742 124.301 27.5052C124.121 26.8049 123.862 26.1655 123.525 25.5894C123.192 25.0185 122.779 24.5086 122.281 24.0568C121.799 23.6155 121.269 23.2855 120.695 23.0674C120.117 22.8492 119.485 22.74 118.8 22.74C118.673 22.74 118.582 22.74 118.524 22.7426C118.46 22.7451 118.374 22.7502 118.262 22.7603C117.671 22.8212 117.128 22.9506 116.638 23.1435C116.154 23.3363 115.715 23.5976 115.319 23.9249L114.403 24.6837V28.8363C114.425 28.662 114.452 28.4898 114.484 28.3196C114.571 27.8781 114.695 27.4417 114.857 27.013V27.0104C115.03 26.5613 115.271 26.1502 115.573 25.7823C115.874 25.4169 116.237 25.0972 116.661 24.8232L116.702 24.7978C117.029 24.6201 117.359 24.4857 117.694 24.3969C118.036 24.3031 118.379 24.2573 118.729 24.2573C119.021 24.2573 119.313 24.2903 119.607 24.3563C119.891 24.4197 120.173 24.5162 120.449 24.6456C120.731 24.7749 120.992 24.9374 121.234 25.1327C121.472 25.3281 121.688 25.5515 121.878 25.8052L121.886 25.8178C122.142 26.1781 122.35 26.5561 122.515 26.9495C122.677 27.3453 122.794 27.7564 122.865 28.1878C122.934 28.5912 122.982 28.9921 123.012 29.3955C123.043 29.804 123.058 30.21 123.058 30.616V43.8053C123.058 43.9141 123.075 44.0131 123.111 44.0968C123.149 44.1856 123.208 44.2694 123.289 44.3455L123.296 44.3533C123.375 44.4342 123.459 44.4927 123.545 44.5284C123.626 44.5639 123.722 44.5815 123.832 44.5815H129.921C130.028 44.5815 130.122 44.5639 130.206 44.5284C130.289 44.4927 130.37 44.4342 130.444 44.3582C130.523 44.2772 130.581 44.1909 130.619 44.1021C130.655 44.0159 130.673 43.9169 130.673 43.8053C130.673 42.747 130.67 41.9807 130.667 41.5087C130.665 40.7449 130.657 39.979 130.65 39.2126C130.642 38.4512 130.637 37.6849 130.632 36.9189C130.627 35.8533 130.624 35.0816 130.624 34.6096C130.624 33.9831 130.629 33.2066 130.637 32.288C130.647 31.5091 130.657 30.7378 130.675 29.979C130.682 29.3955 130.756 28.8297 130.893 28.2841C131.03 27.7309 131.233 27.1931 131.497 26.6704L131.499 26.6653C131.789 26.107 132.167 25.6428 132.634 25.2724C133.101 24.9043 133.646 24.6354 134.268 24.468L134.291 24.4629C134.453 24.4274 134.613 24.3994 134.768 24.3816C134.932 24.3614 135.09 24.3513 135.24 24.3513C135.623 24.3513 135.983 24.4045 136.318 24.5136C136.656 24.6201 136.962 24.7852 137.239 25.0059V25.0034C137.498 25.2063 137.729 25.4398 137.937 25.7061C138.14 25.9676 138.317 26.2543 138.47 26.5689L138.475 26.5765C138.617 26.8861 138.736 27.2057 138.83 27.5433C138.924 27.8807 138.99 28.2233 139.033 28.5708C139.089 29.0174 139.132 29.4843 139.16 29.9639C139.19 30.4485 139.205 30.9229 139.205 31.3848C139.205 31.6867 139.2 32.0522 139.19 32.4809C139.183 32.8589 139.17 33.2193 139.155 33.5669C139.137 33.9321 139.127 34.2825 139.119 34.6175C139.112 34.9017 139.109 35.2468 139.109 35.6577V43.8053C139.109 43.9141 139.127 44.0131 139.165 44.0994C139.2 44.1881 139.259 44.2719 139.34 44.3508C139.419 44.4319 139.502 44.4903 139.588 44.5258C139.678 44.5614 139.777 44.5815 139.883 44.5815H145.94C146.049 44.5815 146.148 44.5614 146.234 44.5258C146.32 44.4903 146.404 44.4319 146.485 44.3508L146.488 44.3533C146.564 44.2744 146.622 44.1881 146.66 44.0994C146.696 44.0131 146.716 43.9141 146.716 43.8053V30.4105C146.716 29.6745 146.688 28.949 146.632 28.2309C146.577 27.5052 146.49 26.7871 146.376 26.0818V26.0767C146.267 25.3814 146.102 24.6962 145.881 24.0188C145.661 23.3465 145.389 22.6919 145.067 22.0499H145.064C144.676 21.3192 144.227 20.6696 143.712 20.1012C143.197 19.5303 142.613 19.0329 141.964 18.6067H141.961C141.304 18.1779 140.609 17.8302 139.876 17.5664Z" fill="white"/>
<path d="M101.723 22.532C101.642 22.4965 101.548 22.4761 101.441 22.4761H98.4223C98.2877 22.4761 98.1761 22.4965 98.0922 22.5345C98.0186 22.5676 97.9552 22.6157 97.9022 22.6818C97.8309 22.7756 97.7778 22.8694 97.7447 22.9633C97.7115 23.0547 97.6965 23.1511 97.6965 23.2526C97.6965 23.354 97.7115 23.4504 97.7447 23.5393C97.7778 23.6357 97.8309 23.727 97.8996 23.8185C97.9503 23.8768 98.0085 23.9199 98.0772 23.9478C98.1683 23.9859 98.2824 24.0036 98.4223 24.0036H100.094H100.691V24.5999V42.4579V43.0541H100.094H96.7272H96.131V42.4579V19.2563V18.66H96.7272H99.5791C99.7263 18.66 99.8457 18.6423 99.9345 18.6015C100.006 18.5737 100.061 18.5306 100.105 18.4722L100.107 18.462C100.178 18.3733 100.229 18.282 100.262 18.188C100.292 18.0967 100.307 17.9977 100.307 17.8937C100.307 17.7947 100.292 17.7008 100.262 17.6121C100.229 17.5207 100.178 17.4293 100.107 17.3405L100.105 17.3304C100.011 17.2061 99.8355 17.1426 99.5791 17.1426H95.3798C95.2657 17.1426 95.1667 17.1605 95.0804 17.1934C94.9967 17.229 94.9129 17.2822 94.8318 17.3558H94.8343C94.7505 17.4395 94.6924 17.5233 94.6567 17.607C94.6212 17.6882 94.6033 17.7846 94.6033 17.8937V43.8053C94.6033 43.9141 94.6212 44.0131 94.6593 44.0994C94.6948 44.1881 94.7533 44.2719 94.8294 44.348C94.9103 44.4293 94.9967 44.4878 95.0907 44.5258C95.1769 44.5639 95.2735 44.5815 95.3798 44.5815H101.441C101.553 44.5815 101.647 44.5639 101.731 44.5284C101.815 44.4927 101.898 44.4342 101.979 44.3508L101.982 44.3533C102.063 44.2695 102.124 44.1832 102.162 44.0919C102.198 44.0082 102.218 43.9117 102.218 43.8053V23.2272C102.218 23.1385 102.2 23.0522 102.165 22.9735C102.127 22.8847 102.063 22.7983 101.979 22.7146C101.896 22.6309 101.809 22.5701 101.723 22.532Z" fill="white"/>
<path d="M88.5364 23.1562C88.1912 22.4128 87.7751 21.6997 87.2855 21.0172C86.207 19.6318 84.9636 18.5839 83.5528 17.8759C82.142 17.1681 80.5537 16.79 78.7903 16.7443V16.7468H78.765C78.6304 16.7468 78.5188 16.7646 78.435 16.8002C78.3666 16.8281 78.3107 16.8738 78.2624 16.9346H78.26C78.1941 17.0234 78.1406 17.1147 78.1103 17.2087C78.0771 17.2949 78.0621 17.3914 78.0621 17.4979C78.0621 17.5969 78.0797 17.6883 78.1103 17.7745C78.1458 17.8734 78.2014 17.9673 78.2701 18.0536C78.3208 18.1196 78.3921 18.1729 78.4783 18.2135C78.5744 18.2592 78.6938 18.2871 78.8309 18.2972V18.2997C80.6247 18.3656 82.193 18.8123 83.5376 19.6369C84.89 20.464 86.0063 21.6693 86.8868 23.2476L86.8945 23.2603C87.2294 23.8971 87.5009 24.5467 87.7115 25.2089C87.9197 25.866 88.0694 26.5461 88.1634 27.249V27.2541C88.2494 27.9239 88.3132 28.6039 88.356 29.2941C88.4018 29.9791 88.4219 30.6516 88.4219 31.3137V42.3867V42.9831H87.8258H84.4815H83.8853V42.3867V31.9633C83.8853 31.433 83.875 30.9408 83.8574 30.4866C83.8395 30.0223 83.8141 29.5376 83.776 29.0378C83.7381 28.5785 83.6645 28.1294 83.5556 27.6879C83.4464 27.2413 83.3016 26.8025 83.1266 26.3711C82.8449 25.7621 82.505 25.2241 82.1014 24.7548C81.7006 24.2879 81.2386 23.8895 80.7112 23.5596C80.1758 23.2324 79.6176 22.9862 79.039 22.8213C78.4579 22.6564 77.849 22.5727 77.212 22.5727C76.9963 22.5727 76.7808 22.5827 76.5649 22.6005C76.3441 22.6183 76.1286 22.6463 75.9204 22.6818C75.2785 22.8162 74.6875 23.0218 74.142 23.2983C73.6015 23.5749 73.1115 23.9199 72.6752 24.3335L71.7996 25.1672V29.1985C71.8116 29.1312 71.8244 29.0641 71.8381 28.9972C71.9419 28.4897 72.0917 28 72.2847 27.523L72.287 27.5204C72.4899 27.0282 72.7537 26.574 73.0788 26.1578C73.4035 25.7442 73.7892 25.3688 74.2332 25.0364L74.2586 25.0161C74.7281 24.7014 75.2125 24.468 75.7152 24.3107C76.2226 24.1534 76.7453 24.0747 77.2831 24.0747C77.7602 24.0747 78.2297 24.1408 78.6889 24.2752C79.1403 24.4071 79.5767 24.6025 79.9954 24.8664L80.026 24.8867C80.3913 25.1506 80.7086 25.4398 80.9724 25.7545V25.757C81.244 26.0793 81.4622 26.4293 81.6319 26.8075C81.7943 27.1652 81.9264 27.5383 82.0278 27.9213C82.1268 28.3146 82.1955 28.7131 82.2311 29.1164H82.2283C82.2638 29.5046 82.292 29.8853 82.3072 30.2582C82.3271 30.6617 82.335 31.0372 82.335 31.3848V43.7596C82.335 43.8561 82.3526 43.9424 82.3881 44.0209C82.4262 44.1097 82.4871 44.1959 82.5734 44.2798V44.2822C82.6522 44.3635 82.7358 44.4217 82.822 44.4572C82.9058 44.4927 82.9999 44.5105 83.1086 44.5105H89.1984C89.2949 44.5105 89.3837 44.4927 89.4651 44.4572C89.5513 44.4191 89.6377 44.3607 89.7211 44.2822L89.7186 44.2798C89.7999 44.1983 89.8609 44.1148 89.8962 44.0311C89.9317 43.9498 89.9497 43.8585 89.9497 43.7596V30.4816C89.9497 29.6341 89.899 28.7942 89.7999 27.9644C89.6982 27.1272 89.5485 26.3 89.3482 25.4855C89.1527 24.6811 88.8811 23.9048 88.5364 23.1562Z" fill="white"/>
<path d="M52.7591 12.3623C52.4128 11.8938 52.1536 11.3968 51.9809 10.8713C49.9041 4.54934 55.924 -1.23925 62.074 0.230825C64.5574 0.824486 66.6146 2.63057 67.1456 5.61801C67.487 7.53954 67.0687 9.60128 65.4532 10.9238C65.3413 7.04273 55.9215 7.2288 52.7774 12.3617L52.7591 12.3623Z" fill="white"/>
<path d="M52.3832 15.4753C52.8543 15.5748 53.6757 15.4145 53.9661 14.999C54.4029 14.3742 53.8881 13.6608 53.4957 13.1796C53.3095 12.9511 53.0782 12.6878 52.802 12.3898L52.7756 12.3884C52.5546 12.6069 52.2393 12.9412 51.9871 13.3114C51.4918 14.0386 51.3278 15.2518 52.3832 15.4753Z" fill="white"/>
<path d="M95.3744 9.49792C95.2679 9.49792 95.1739 9.51813 95.0926 9.55367C95.0066 9.59176 94.9204 9.65258 94.8365 9.73632C94.7528 9.82014 94.6893 9.90638 94.6513 9.99518C94.6157 10.0739 94.5981 10.1601 94.5981 10.2489V13.7714C94.5981 13.878 94.6182 13.9744 94.6538 14.0581C94.6918 14.1495 94.7528 14.2358 94.8341 14.3195L94.8365 14.317C94.9176 14.4007 95.0014 14.459 95.0851 14.4945C95.169 14.53 95.2627 14.5478 95.3744 14.5478H101.436C101.543 14.5478 101.639 14.53 101.725 14.492C101.819 14.454 101.905 14.3955 101.987 14.3144C102.063 14.2383 102.121 14.1546 102.157 14.0657C102.195 13.9794 102.213 13.8805 102.213 13.7714V6.13913C102.213 6.03012 102.195 5.93365 102.159 5.85241C102.124 5.76872 102.065 5.68497 101.982 5.60127H101.984C101.903 5.52764 101.819 5.47443 101.736 5.43889C101.649 5.40585 101.55 5.38818 101.436 5.38818H97.2369C96.9806 5.38818 96.8055 5.4515 96.7116 5.57584L96.709 5.58594C96.638 5.67486 96.5872 5.76616 96.5541 5.8575C96.5239 5.94626 96.5087 6.04023 96.5087 6.13913C96.5087 6.24321 96.5239 6.34212 96.5541 6.43342C96.5872 6.52739 96.638 6.61873 96.709 6.70748L96.7116 6.71776C96.7548 6.77607 96.8104 6.81917 96.8817 6.84711C96.9703 6.88771 97.0897 6.90541 97.2369 6.90541H100.089H100.685V7.50175V12.4241V13.0204H100.089H96.7217H96.1255V12.4241V11.6216V11.0253H96.7217H98.3939C98.5334 11.0253 98.6474 11.0076 98.739 10.9695C98.8073 10.9416 98.8657 10.8985 98.9165 10.8401C98.9851 10.7488 99.0384 10.6574 99.0714 10.561C99.1042 10.4722 99.1197 10.3757 99.1197 10.2743C99.1197 10.1727 99.1042 10.0764 99.0714 9.98507C99.0384 9.89109 98.9851 9.79725 98.914 9.7034C98.8608 9.63741 98.7975 9.58921 98.7238 9.55622C98.64 9.51813 98.5284 9.49792 98.3939 9.49792H95.3744Z" fill="white"/>
<path fill-rule="evenodd" clip-rule="evenodd" d="M18.4177 27.5861C19.8226 27.2897 21.0048 26.3193 21.2499 24.8883L21.3048 24.4419C21.3149 24.303 21.3331 24.1498 21.3414 24.0076C21.3813 23.3304 21.3818 22.8449 21.3014 22.1894C21.2776 21.9957 21.1296 21.0504 21.0657 20.9247C21.0044 20.5849 20.7507 19.9044 20.6315 19.5858L20.3876 19.0329C20.2803 18.8354 20.0805 18.4012 19.9638 18.2285L19.3787 17.3065C19.3386 17.2457 19.3017 17.204 19.2617 17.1435C19.2425 17.1145 19.2286 17.0907 19.2085 17.0629C19.1858 17.0315 19.1715 17.0215 19.1486 16.9868C19.1288 16.9569 19.1128 16.928 19.0908 16.9005L18.7865 16.5052C18.7644 16.4784 18.751 16.4577 18.7271 16.4287L18.1443 15.7459C18.0954 15.6932 18.052 15.6505 18.0058 15.5985C17.9805 15.5701 17.9581 15.5503 17.9303 15.5224C17.5997 15.1913 17.3441 14.9343 16.9532 14.6289L16.3132 14.1528C16.2626 14.1145 16.2933 14.1428 16.2907 14.1234C16.252 14.1131 15.665 13.7232 15.5605 13.6635C15.0986 13.3995 14.8247 13.2445 14.3312 13.0174C14.2533 12.9816 14.1764 12.9474 14.0888 12.9109C13.76 12.7738 12.8786 12.4258 12.5295 12.3551C12.4938 12.3334 12.0502 12.2147 11.9764 12.2001C11.8651 12.1781 11.7958 12.1528 11.69 12.1317C11.5906 12.1118 11.4913 12.0915 11.392 12.0714L10.8049 11.9522C10.7515 11.9421 10.746 11.9489 10.6997 11.9421C10.6248 11.9311 10.5505 11.9043 10.4754 11.8996L10.0346 11.8396C9.9593 11.8281 9.88371 11.8126 9.80828 11.8075C9.75323 11.8038 9.66322 11.7966 9.59961 11.7838C9.23353 11.7369 8.58065 11.7089 8.23729 11.6964C7.45059 11.6679 5.97929 11.8022 5.19518 12.0142C5.14355 12.0281 5.09946 12.0391 5.05147 12.0529C4.98276 12.0726 4.69976 12.1927 4.65991 12.188C4.67035 12.1419 4.67866 12.146 4.71061 12.1301L5.03471 11.9872L5.45722 11.8584C5.97349 11.7296 6.42903 11.6467 6.96577 11.6068C7.39554 11.5749 7.82472 11.5482 8.27149 11.5464C8.50037 11.5455 9.38581 11.5564 9.64969 11.5903L10.3137 11.6558C10.4319 11.6623 10.6924 11.7107 10.7716 11.7146C10.8569 11.7189 11.1395 11.7734 11.2336 11.7931C11.3164 11.8103 11.3715 11.8101 11.4625 11.8285C11.5793 11.8522 12.5502 12.0635 12.6021 12.102L13.1521 12.2579C14.3097 12.6207 15.1794 13.0415 16.1898 13.6381L16.3945 13.7693L16.7395 13.9953C16.8004 14.0366 16.8528 14.0701 16.9111 14.1132L17.4005 14.4836L18.1594 15.1399C18.5405 15.5046 19.1657 16.1697 19.4649 16.5898L19.6371 16.8232C19.6595 16.857 19.6745 16.8665 19.6971 16.8992L19.8101 17.056C19.8836 17.1657 19.9502 17.2678 20.0233 17.378L20.5741 18.34C20.5904 18.3736 20.5842 18.3479 20.593 18.3886C20.6166 18.4139 20.6325 18.4529 20.6497 18.4864C20.9026 18.9794 21.0462 19.3588 21.2533 19.8595L21.3333 20.0788C21.3716 20.1336 21.5632 20.7454 21.588 20.8317C21.5969 20.8623 21.6061 20.8812 21.6149 20.9119C21.7423 21.3543 21.8128 21.6982 21.8912 22.1634C21.9816 22.7003 21.9983 23.1844 21.9967 23.7333C21.9841 25.8477 21.7335 26.882 21.3617 27.5861H18.4177Z" fill="url(#paint0_linear_269_3832)"/>
<path fill-rule="evenodd" clip-rule="evenodd" d="M22.4826 25.2023C22.5218 25.2102 22.6498 25.1377 22.6847 25.1173L23.3243 24.6843C23.5324 24.5136 23.7188 24.342 23.8976 24.1379C24.0443 23.9703 24.06 23.9392 24.185 23.7785C24.4661 23.4173 24.746 22.807 24.8371 22.3568C24.9587 21.7559 24.9555 21.3598 24.8501 20.7797C24.842 20.7353 24.8303 20.6578 24.8101 20.6278C24.7697 20.5681 24.7323 20.5863 24.6746 20.6073L24.3202 20.7583C23.9903 20.9236 23.907 20.984 23.6223 21.1975C23.5394 21.2596 23.4736 21.3237 23.3956 21.3931C23.3572 21.4273 23.3232 21.4621 23.2876 21.4989C23.1682 21.622 23.0851 21.7231 22.9838 21.8605C22.5304 22.4749 22.2983 23.2736 22.3089 24.0609C22.3147 24.483 22.3431 24.7063 22.4125 25.1151C22.4197 25.1572 22.4339 25.1924 22.4826 25.2023Z" fill="url(#paint1_linear_269_3832)"/>
<path fill-rule="evenodd" clip-rule="evenodd" d="M17.6009 19.9605C17.4268 19.9445 17.0571 20.0178 16.8972 20.061C16.7076 20.1123 16.5222 20.178 16.345 20.263C16.2321 20.3172 16.3165 20.4407 16.3851 20.5583C16.4518 20.6728 16.567 20.8784 16.6441 20.9746C16.9195 21.3187 17.1241 21.5877 17.5224 21.8535C17.7648 22.0153 17.9064 22.0915 18.1843 22.1987C18.6156 22.3652 19.265 22.417 19.7236 22.3191C19.7257 22.3187 19.7438 22.3139 19.7453 22.3134C19.766 22.3064 19.7536 22.3119 19.7632 22.3054C19.8134 22.3061 19.8715 22.2917 19.92 22.2799L20.3479 22.1591C20.3986 22.143 20.7163 22.0306 20.7483 21.9962C20.7922 21.9491 20.7656 21.8952 20.7408 21.8573C20.4953 21.4811 20.3263 21.3012 20.0016 20.9841L19.6646 20.6997C19.2805 20.4266 18.8205 20.1404 18.3501 20.0477C18.163 20.0109 17.7846 19.9329 17.6009 19.9605Z" fill="url(#paint2_linear_269_3832)"/>
<path fill-rule="evenodd" clip-rule="evenodd" d="M10.2812 10.6358C10.2808 10.5887 10.2178 10.5106 10.191 10.4702C10.1533 10.4134 10.1258 10.3647 10.0802 10.312C9.97296 10.1879 9.98641 10.1772 9.82148 10.0113C9.59026 9.77877 9.22636 9.53197 8.89916 9.45575C8.58692 9.38295 8.47239 9.37293 8.15109 9.39035C7.9636 9.40049 7.53333 9.49434 7.34079 9.57942C7.24994 9.61951 7.29384 9.69123 7.32567 9.75099L7.69906 10.3232C8.25952 10.9818 8.95801 11.4568 9.92765 11.3251C10.0796 11.305 10.1096 11.2909 10.2344 11.2678C10.2887 11.2577 10.3214 11.2418 10.3765 11.2266C10.4125 11.2166 10.4889 11.1966 10.5074 11.1672C10.5342 11.1245 10.4973 11.0626 10.4821 11.0257C10.4616 10.976 10.4457 10.9427 10.4251 10.8942L10.328 10.7003C10.3082 10.6609 10.3203 10.6644 10.2812 10.6358Z" fill="url(#paint3_linear_269_3832)"/>
<path fill-rule="evenodd" clip-rule="evenodd" d="M17.3171 24.9822C17.399 25.0739 17.8047 25.2569 17.9374 25.3124C18.1157 25.387 18.1816 25.3867 18.3181 25.4342C18.3778 25.4549 18.4488 25.4683 18.5253 25.4839L18.9242 25.5344C18.9965 25.54 19.0481 25.5444 19.119 25.5459C19.6124 25.5562 20.022 25.4782 20.4803 25.3543C20.5871 25.3255 20.6887 25.2922 20.7901 25.2571C20.9893 25.1882 20.8317 25.0586 20.7173 24.8852C20.6687 24.8112 20.4829 24.5996 20.4157 24.5238C20.343 24.4417 20.2716 24.3746 20.1926 24.2975C20.037 24.1458 19.874 24.0109 19.6946 23.8773C19.6442 23.8311 19.4572 23.7091 19.3862 23.6649L19.0435 23.467C18.9527 23.4284 18.868 23.3845 18.7721 23.3416C18.6923 23.3059 18.5569 23.2507 18.4669 23.2325C18.4503 23.217 18.4344 23.2164 18.4076 23.209C18.1965 23.1509 18.1851 23.135 17.9269 23.0907C17.7638 23.0628 17.5581 23.053 17.3906 23.0482C17.1663 23.0418 16.8963 23.078 16.6789 23.1172C16.6371 23.1247 16.6123 23.1311 16.5704 23.1418C16.288 23.2143 16.3192 23.2082 16.0445 23.3028C15.8851 23.3576 15.9653 23.4459 16.0799 23.6572L16.3135 24.0102C16.3442 24.0528 16.529 24.3151 16.5829 24.3408C16.5979 24.3799 16.8066 24.5907 16.8561 24.6244C16.8803 24.6641 17.2479 24.9615 17.3171 24.9822Z" fill="url(#paint4_linear_269_3832)"/>
<path fill-rule="evenodd" clip-rule="evenodd" d="M5.87889 14.1064C6.02566 14.1361 6.25805 14.1037 6.39091 14.0855C6.63453 14.0523 6.921 13.9646 7.14123 13.8597C7.17556 13.8433 7.20881 13.8298 7.24268 13.8111C7.39826 13.7251 7.51332 13.6575 7.65244 13.5422C7.66865 13.5288 7.67776 13.5242 7.69405 13.5108L7.93395 13.2813C8.19194 13.0097 8.41831 12.5745 8.52448 12.2102C8.53785 12.1642 8.60154 11.9716 8.59807 11.9281C8.59143 11.8448 8.48012 11.8479 8.37872 11.8427C8.28583 11.8379 8.1954 11.8321 8.11504 11.8348C7.74278 11.8476 7.44374 11.9189 7.11417 12.086C7.07487 12.1059 7.05319 12.1232 7.0174 12.1416L6.87802 12.2271C6.85572 12.244 6.85484 12.2491 6.83249 12.2659C6.26297 12.6941 5.97725 13.3556 5.83784 14.0445C5.83299 14.0685 5.85492 14.1015 5.87889 14.1064Z" fill="url(#paint5_linear_269_3832)"/>
<path fill-rule="evenodd" clip-rule="evenodd" d="M17.8969 13.7601C18.0187 14.3607 18.3869 14.9565 18.8713 15.3349C19.0134 15.446 19.0091 15.4616 19.103 15.2857C19.2136 15.0786 19.3055 14.8136 19.3784 14.5858C19.3994 14.5201 19.4671 14.2323 19.4701 14.1712C19.4752 14.0672 19.5069 13.9191 19.5113 13.7784C19.5155 13.6433 19.5127 13.5367 19.5072 13.4068C19.4964 13.1561 19.4228 12.8269 19.335 12.5942C19.3003 12.5021 19.1804 12.2161 19.1275 12.1685C19.1173 12.1143 19.0798 12.0736 19.0486 12.0266C19.0165 11.9782 18.9903 11.939 18.9583 11.8905C18.8954 11.7953 18.8262 11.7205 18.7566 11.6293C18.7354 11.6088 18.7197 11.5887 18.6979 11.5641C18.5708 11.4207 18.4268 11.2948 18.2853 11.1694C18.2516 11.1396 18.2417 11.1321 18.1845 11.1205C18.1575 11.1473 18.1612 11.1311 18.1378 11.1709C18.1242 11.194 18.1153 11.2189 18.1059 11.2438L17.9967 11.5629C17.9266 11.7845 17.9124 11.8864 17.8648 12.1169C17.8502 12.1876 17.8542 12.2194 17.8396 12.294C17.8307 12.3393 17.8348 12.3476 17.8315 12.3796C17.8296 12.3979 17.8249 12.4133 17.8231 12.4298C17.8196 12.4615 17.8215 12.4212 17.8217 12.4479C17.8219 12.4758 17.8187 12.4559 17.8257 12.47C17.8023 12.5858 17.8016 12.7116 17.8008 12.8189C17.7986 13.0935 17.8113 13.3462 17.8633 13.6151C17.8714 13.6566 17.8826 13.7213 17.8969 13.7601Z" fill="url(#paint6_linear_269_3832)"/>
<path fill-rule="evenodd" clip-rule="evenodd" d="M21.5079 13.9194C21.5016 13.8785 21.4413 13.8111 21.4206 13.7685L21.1594 13.3892C21.1339 13.3596 21.1177 13.3361 21.0765 13.3421C20.9772 13.3565 20.6779 13.9412 20.6414 14.018C20.5804 14.1467 20.5201 14.2774 20.4678 14.4145C20.3869 14.6267 20.2068 15.1528 20.1987 15.3366C20.1949 15.4195 20.1606 15.5043 20.1552 15.5883C20.1457 15.737 20.1212 15.8793 20.1188 16.0492C20.1158 16.2595 20.1233 16.4935 20.1553 16.6934C20.205 17.0042 20.2469 17.1608 20.356 17.4515C20.3785 17.5115 20.3988 17.5619 20.4255 17.6192L20.5515 17.8654C20.5726 17.8989 20.5766 17.9168 20.5984 17.9501C20.6537 18.0344 20.671 18.0749 20.7254 18.1422C20.8056 18.2416 20.9087 18.4748 21.011 18.4037C21.0485 18.3777 21.1601 18.2287 21.2021 18.1849C21.2313 18.1445 21.256 18.1085 21.2867 18.0669C21.3313 18.0066 21.514 17.736 21.5285 17.68L21.6197 17.5209C21.65 17.4621 21.6759 17.4092 21.7031 17.3512C21.7549 17.241 21.8108 17.1028 21.8506 16.9825C22.0187 16.4754 22.0747 16.0609 22.0361 15.5347L21.9871 15.1751C21.9475 14.9584 21.932 14.9388 21.8818 14.7548C21.8705 14.7132 21.8679 14.7029 21.8491 14.6694C21.8478 14.6284 21.833 14.6099 21.8195 14.5733C21.805 14.5339 21.7959 14.5086 21.7815 14.4737C21.7096 14.2984 21.6099 14.0787 21.5079 13.9194Z" fill="url(#paint7_linear_269_3832)"/>
<path fill-rule="evenodd" clip-rule="evenodd" d="M15.4981 16.2778C15.7167 16.322 15.9681 16.3133 16.1428 16.2917C16.3582 16.265 16.4962 16.239 16.7059 16.1599C16.8101 16.1206 16.9716 16.0469 17.0733 15.9883L17.296 15.8403C17.3287 15.8186 17.3874 15.797 17.3819 15.7446C17.3765 15.694 17.2476 15.5678 17.2088 15.5287C16.8295 15.146 16.1962 14.7259 15.6181 14.6411C15.4684 14.6192 15.0508 14.5875 14.9627 14.6264C14.9061 14.6189 14.7857 14.6443 14.7353 14.6537C14.6617 14.6673 14.5917 14.6853 14.5194 14.7046C14.4418 14.7252 14.1737 14.8147 14.1276 14.8539C14.067 14.8583 13.7156 15.0606 13.652 15.1032C13.6184 15.1259 13.5934 15.1429 13.5592 15.1647C13.468 15.2231 13.4629 15.2591 13.5549 15.3416C13.7182 15.4881 14.1065 15.7857 14.3195 15.8786C14.3579 15.9104 14.5131 15.9773 14.5709 16.0043C14.6597 16.046 14.7492 16.0842 14.8516 16.1211C14.9488 16.1561 15.3938 16.3004 15.4981 16.2778Z" fill="url(#paint8_linear_269_3832)"/>
<path fill-rule="evenodd" clip-rule="evenodd" d="M0.949509 15.1663C1.03304 15.1833 1.23615 15.1517 1.31362 15.1376C1.43157 15.116 1.53824 15.0843 1.64545 15.0466C1.98647 14.927 2.35786 14.6786 2.5717 14.3875C2.78383 14.0987 2.90361 13.8231 2.9843 13.4242C3.00264 13.3336 3.00477 13.2771 3.02014 13.1954C3.04783 13.0484 2.95152 13.0531 2.71855 13.0639C2.24426 13.0859 1.76478 13.254 1.45078 13.6248C1.10868 14.0288 0.986472 14.468 0.919897 14.9988C0.913089 15.053 0.893918 15.1551 0.949509 15.1663Z" fill="url(#paint9_linear_269_3832)"/>
<path fill-rule="evenodd" clip-rule="evenodd" d="M16.5945 11.6024C16.5979 11.5565 16.4936 11.3648 16.4653 11.3163C16.2689 10.9797 16.0265 10.6734 15.6991 10.4522C15.6553 10.4226 15.5516 10.3409 15.5035 10.3364C15.4632 10.2761 15.1349 10.1397 15.0777 10.1157C14.9245 10.0518 14.7359 9.99659 14.5605 9.9506C14.413 9.91193 14.4588 10.2322 14.4657 10.3703L14.5218 10.8458C14.5346 10.8717 14.5398 10.9217 14.5465 10.9584C14.5741 11.1107 14.6681 11.469 14.7249 11.6078C14.789 11.7648 14.8308 11.8963 14.9169 12.0584L15.0829 12.3493C15.1054 12.3833 15.122 12.4082 15.1445 12.4422C15.1943 12.5174 15.1817 12.523 15.2209 12.5278C15.2292 12.563 15.2217 12.5435 15.2404 12.575C15.267 12.6197 15.4281 12.7941 15.4622 12.8285C15.5306 12.8973 15.6846 13.0401 15.7719 13.0879C15.8416 13.1662 16.1562 13.3171 16.267 13.364C16.3702 13.4077 16.4554 13.4327 16.5747 13.4629C16.6763 13.4886 16.8101 13.5601 16.8307 13.4342C16.8783 13.1419 16.8598 12.6836 16.8156 12.3851C16.8113 12.356 16.808 12.2783 16.7861 12.2596C16.7973 12.1771 16.6449 11.6494 16.5945 11.6024Z" fill="url(#paint10_linear_269_3832)"/>
<path fill-rule="evenodd" clip-rule="evenodd" d="M5.03831 12.3824C4.85767 12.4291 4.8847 12.4048 4.66902 12.4836C4.01505 12.7224 3.60821 13.2627 3.4655 13.9608C3.43593 14.1053 3.38789 14.6649 3.41959 14.8023C3.42903 14.8433 3.44724 14.8614 3.49072 14.8604C3.54894 14.8593 3.77243 14.7894 3.82464 14.7708L4.08159 14.661C4.17426 14.6174 4.2431 14.5689 4.32867 14.523L4.47986 14.4151C4.55529 14.358 4.69947 14.2256 4.75422 14.1572L4.89017 13.9991C4.93303 13.9444 4.97312 13.8806 5.00966 13.8165C5.26502 13.3691 5.33528 12.9771 5.33419 12.4715C5.33398 12.3934 5.33327 12.4177 5.31051 12.3624C5.22844 12.3458 5.10142 12.3668 5.03831 12.3824Z" fill="url(#paint11_linear_269_3832)"/>
<path fill-rule="evenodd" clip-rule="evenodd" d="M6.04154 11.4068C6.31106 11.4613 6.48059 11.4457 6.6976 11.4178C6.90267 11.3914 7.00128 11.3494 7.17427 11.2899C7.27317 11.256 7.24836 11.2115 7.21328 11.1356C7.12219 10.9388 7.023 10.7399 6.88191 10.5712L6.77115 10.4308C6.16847 9.75566 5.43552 9.58112 4.586 9.87381C4.54394 9.88835 4.38147 9.9439 4.35875 9.96194C4.29405 10.0133 4.37019 10.0894 4.41476 10.176C4.44738 10.2393 4.49578 10.3264 4.54435 10.3752C4.81596 10.7292 5.10076 11.0366 5.5269 11.2384C5.73306 11.336 5.81275 11.3605 6.04154 11.4068Z" fill="url(#paint12_linear_269_3832)"/>
<path fill-rule="evenodd" clip-rule="evenodd" d="M12.779 14.613C13.0312 14.5887 12.9626 14.6176 13.2652 14.5599C13.4977 14.5155 13.6217 14.4382 13.7093 14.4155C13.7883 14.359 13.9458 14.315 14.1751 14.1179C14.2484 14.0549 14.3158 13.9993 14.3797 13.9291C14.4442 13.8582 14.6155 13.6707 14.6541 13.5905C14.6785 13.54 14.6398 13.502 14.5994 13.4722C14.5159 13.4108 14.4426 13.3543 14.3481 13.3003C14.1869 13.2082 13.9388 13.0689 13.7515 13.031C13.6871 12.9892 13.3923 12.9439 13.3128 12.9389C13.1074 12.9261 13.1235 12.926 12.9215 12.9403C12.3818 12.9785 11.834 13.3414 11.4797 13.7224C11.4377 13.7676 11.4076 13.8015 11.3673 13.8485C11.3299 13.892 11.2902 13.9282 11.2625 13.9793C11.2246 14.0186 11.146 14.0998 11.2052 14.1555C11.2928 14.2377 11.6691 14.3948 11.7967 14.4404C11.9592 14.4986 12.1009 14.5293 12.29 14.5676C12.5689 14.6242 12.6389 14.5946 12.779 14.613Z" fill="url(#paint13_linear_269_3832)"/>
<path fill-rule="evenodd" clip-rule="evenodd" d="M24.1054 19.0347C24.1675 18.9612 24.2316 18.2002 24.2114 18.1402C24.2228 18.0772 24.2128 17.9863 24.21 17.9246C24.2083 17.8879 24.2063 17.7505 24.1896 17.7147C24.2094 17.5789 24.0612 16.9322 24.0255 16.7992L23.9646 16.5901C23.928 16.4647 23.8517 16.5081 23.7912 16.5491C23.6838 16.6217 23.5368 16.7226 23.449 16.8147C23.3636 16.8555 23.0139 17.2421 22.9301 17.3333L22.7404 17.5713C22.7107 17.6131 22.6703 17.6505 22.6455 17.7023C22.5546 17.8054 22.396 18.0826 22.3293 18.2123C22.2652 18.3369 22.1864 18.4711 22.1419 18.6076C22.1262 18.6299 22.0934 18.7288 22.0796 18.7649C22.0582 18.8209 22.0424 18.8769 22.0191 18.9425C21.9749 19.0672 21.9506 19.1986 21.9219 19.3403C21.8291 19.7991 21.823 20.2581 21.9037 20.6934C21.9215 20.7892 22.0431 21.3492 22.1036 21.3991C22.1586 21.4443 22.2429 21.3886 22.3057 21.3492C22.4192 21.2777 22.4837 21.2514 22.6007 21.1624C22.6657 21.1131 22.7487 21.0672 22.8296 20.9971C23.1827 20.6916 23.4454 20.4497 23.6979 20.022C23.7534 19.9281 23.8034 19.8418 23.8524 19.7445C23.8874 19.6751 23.9651 19.5163 23.9811 19.4369C24.0229 19.3784 24.0855 19.133 24.1054 19.0347Z" fill="url(#paint14_linear_269_3832)"/>
<path fill-rule="evenodd" clip-rule="evenodd" d="M12.4088 11.72C12.4317 11.75 12.5771 11.808 12.6123 11.8229C12.7565 11.8838 12.9955 11.9525 13.1464 11.9628L13.3422 11.9758C13.405 11.968 13.3788 11.9463 13.3923 11.9435C13.4088 11.9401 13.41 11.8636 13.41 11.8552C13.4069 11.1084 13.1302 10.2599 12.5709 9.74696C12.4795 9.6631 12.2103 9.4513 12.1031 9.4186C12.0221 9.36518 11.743 9.24932 11.62 9.22443C11.4335 9.18667 11.482 9.17419 11.2121 9.14127C11.1489 9.13359 11.0494 9.10477 10.9695 9.12498C10.9303 9.21081 10.9603 9.33879 10.9761 9.43251C11.0441 9.83655 11.2351 10.4026 11.4549 10.7636C11.4977 10.8338 11.7256 11.1768 11.776 11.2062C11.8222 11.2794 11.9842 11.4302 12.0557 11.488C12.1225 11.5418 12.3179 11.6946 12.4088 11.72Z" fill="url(#paint15_linear_269_3832)"/>
<path fill-rule="evenodd" clip-rule="evenodd" d="M17.0554 18.8001C17.1728 18.895 17.5568 19.0323 17.7158 19.0869C17.7748 19.1071 17.9041 19.1432 17.9734 19.1573C18.1677 19.1966 18.4426 19.2198 18.6304 19.2082L18.838 19.1929C18.8406 19.1919 19.202 19.1378 19.44 19.0448L19.7177 18.9259C19.7519 18.9101 19.7747 18.8956 19.7749 18.8527C19.7752 18.8018 19.7105 18.7115 19.6895 18.6686L19.5375 18.422C19.4725 18.3453 19.4185 18.2516 19.3326 18.1479C19.3192 18.1317 19.3146 18.1226 19.3012 18.1064C19.2775 18.0775 19.259 18.0555 19.2332 18.0268C19.187 17.9755 19.1521 17.9322 19.1031 17.8813C18.9692 17.7418 18.8748 17.6626 18.7321 17.5392C18.672 17.4872 18.3471 17.2632 18.2779 17.2472C18.2056 17.1865 17.9551 17.0882 17.8415 17.0517C17.6498 16.9902 17.6314 16.9888 17.444 16.9498C17.3822 16.9369 17.3541 16.9414 17.3071 16.9329C17.0959 16.8902 16.6708 16.9161 16.4517 16.9583L16.3994 16.9766C16.2883 16.9533 15.693 17.169 15.5487 17.2363C15.5167 17.2513 15.4908 17.2678 15.4888 17.3114C15.4864 17.3638 15.6562 17.5878 15.698 17.6361C15.9571 17.9348 16.193 18.2143 16.5317 18.4554C16.6352 18.5291 16.9508 18.7681 17.0554 18.8001Z" fill="url(#paint16_linear_269_3832)"/>
<path fill-rule="evenodd" clip-rule="evenodd" d="M4.6369 11.5189C4.58937 11.4749 4.53491 11.4454 4.47803 11.4086C4.32471 11.3093 4.1614 11.2422 3.99024 11.1796C3.94597 11.1634 3.90905 11.1609 3.86498 11.1469C3.59275 11.06 3.26126 11.0824 3.00147 11.1523C2.70243 11.2328 2.50061 11.3662 2.27027 11.5413C2.24379 11.5614 2.22175 11.5834 2.19698 11.6055C2.09996 11.6919 1.84418 11.9116 1.81787 12.0415C1.85788 12.0819 2.01576 12.1932 2.08137 12.2127C2.12798 12.2567 2.39449 12.3628 2.4474 12.3815C2.85901 12.5271 3.26723 12.5607 3.69065 12.4598C3.80434 12.4327 3.92095 12.386 4.02027 12.3387C4.17025 12.2672 4.32925 12.174 4.45497 12.067C4.60624 11.9383 4.63878 11.9045 4.77089 11.764C4.80213 11.7308 4.80585 11.732 4.81771 11.6734C4.76642 11.6216 4.70682 11.553 4.6369 11.5189Z" fill="url(#paint17_linear_269_3832)"/>
<path fill-rule="evenodd" clip-rule="evenodd" d="M9.93395 13.9944C9.97421 13.9788 10.0276 13.9675 10.0745 13.955C10.4686 13.8499 10.9198 13.5606 11.1774 13.2532C11.3265 13.0753 11.6352 12.6673 11.6831 12.4302C11.6288 12.3754 11.66 12.3915 11.5496 12.3496C11.3435 12.2711 11.2321 12.2532 11.0031 12.2069C10.7578 12.1573 10.3927 12.1807 10.2118 12.229C10.0608 12.2353 9.79106 12.3709 9.64951 12.4412C9.5522 12.4895 9.33865 12.6515 9.25412 12.7318C9.0967 12.8812 9.05331 12.935 8.91185 13.116C8.82326 13.2293 8.48174 13.7946 8.49243 13.8874C8.50413 13.9883 8.90082 14.0264 8.95921 14.0336C9.15117 14.0575 9.27872 14.0616 9.4467 14.0565C9.60746 14.052 9.7904 14.0271 9.93395 13.9944Z" fill="url(#paint18_linear_269_3832)"/>
<path d="M65.2232 16.1177C67.1003 16.1177 68.8065 16.8852 70.043 18.1217C71.2794 19.3582 72.047 21.0643 72.047 22.9415V43.9679C72.047 44.3139 71.7665 44.5944 71.4205 44.5944H65.2232C64.8772 44.5944 64.5967 44.3139 64.5967 43.9679V16.7442C64.5967 16.3982 64.8772 16.1177 65.2232 16.1177ZM65.8497 17.406V43.3415H70.794V22.9415C70.794 21.4101 70.167 20.0175 69.1571 19.0075C68.2868 18.1372 67.1323 17.5513 65.8497 17.406Z" fill="white"/>
<path d="M107.924 16.1177C109.801 16.1177 111.507 16.8852 112.743 18.1217C113.98 19.3582 114.747 21.0643 114.747 22.9415V43.9679C114.747 44.3139 114.467 44.5944 114.121 44.5944H107.924C107.578 44.5944 107.297 44.3139 107.297 43.9679V16.7442C107.297 16.3982 107.578 16.1177 107.924 16.1177ZM108.55 17.406V43.3415H113.494V22.9415C113.494 21.4102 112.868 20.0175 111.858 19.0075C110.987 18.1372 109.833 17.5513 108.55 17.406Z" fill="white"/>
<path d="M58.0914 23.6106H53.34V37.3232C53.323 37.3436 53.3117 37.3701 53.31 37.402L53.2416 39.1258H52.6171C52.2178 39.1258 51.8941 38.8021 51.8941 38.4028L51.8799 21.9159C51.8799 21.7042 52.0447 21.6921 52.1897 21.56C52.3182 21.4429 52.4295 22.1647 52.6171 22.1647H58.8144C59.2137 22.1647 59.5373 22.4884 59.5373 22.8876V38.4028C59.5373 38.8021 59.2137 39.1258 58.8144 39.1258H58.0934L58.0914 37.6799V37.5518V37.2765V23.6106Z" fill="white"/>
<path d="M51.9359 23.1596C51.9004 23.0786 51.88 22.9846 51.88 22.8778V20.3413C51.88 20.2068 51.9004 20.0951 51.9384 20.0112C51.9715 19.9376 52.0196 19.8742 52.0857 19.8212C52.1795 19.7499 52.2733 19.6968 52.3672 19.6637C52.4586 19.6305 52.555 19.6155 52.6565 19.6155C52.7579 19.6155 52.8543 19.6305 52.9432 19.6637C53.0396 19.6968 53.1309 19.7499 53.2224 19.8186C53.2807 19.8693 53.3238 19.9275 53.3517 19.9962C53.3898 20.0873 53.4075 20.2014 53.4075 20.3413V21.5309V22.127H54.0038L59.4026 22.097H59.9988V21.5009V18.1337V17.5375H59.4026H50.4365H49.8402V18.1337V20.9856C49.8402 21.1328 49.8224 21.2522 49.7817 21.341C49.7539 21.4121 49.7108 21.4677 49.6524 21.5111L49.6423 21.5135C49.5535 21.5843 49.4622 21.6354 49.3682 21.6681C49.2769 21.6988 49.1779 21.714 49.0739 21.714C48.9749 21.714 48.881 21.6988 48.7922 21.6681C48.7009 21.6354 48.6095 21.5843 48.5207 21.5135L48.5106 21.5111C48.3863 21.417 48.3228 21.242 48.3228 20.9856V16.7863C48.3228 16.6722 48.3407 16.5731 48.3736 16.4869C48.4092 16.4032 48.4625 16.3194 48.5361 16.2383V16.2408C48.6198 16.157 48.7035 16.0989 48.7872 16.0632C48.8684 16.0277 48.9647 16.0098 49.0739 16.0098H60.7501C60.8588 16.0098 60.9578 16.0277 61.0441 16.0658C61.1329 16.1013 61.2166 16.1597 61.2928 16.2359C61.374 16.3168 61.4325 16.4032 61.4706 16.4972C61.5086 16.5834 61.5262 16.6799 61.5262 16.7863V22.8479C61.5262 22.9595 61.5086 23.0535 61.4731 23.1374C61.4374 23.2212 61.379 23.3047 61.2955 23.386L61.298 23.3886C61.2142 23.4698 61.128 23.5308 61.0366 23.5687C60.9529 23.6044 60.8564 23.6244 60.7501 23.6244L52.6311 23.6544C52.5424 23.6544 52.4561 23.6368 52.3774 23.6013C52.2886 23.5632 52.2022 23.4998 52.1185 23.416C52.0348 23.3321 51.974 23.2459 51.9359 23.1596Z" fill="white"/>
<path d="M4.05507 56.057C3.65577 56.057 3.28641 55.9921 2.947 55.8623C2.61259 55.7276 2.3206 55.5404 2.07103 55.3008C1.82646 55.0612 1.6343 54.7792 1.49454 54.4548C1.35978 54.1304 1.2924 53.776 1.2924 53.3917C1.2924 53.0073 1.35978 52.653 1.49454 52.3285C1.6343 52.0041 1.82896 51.7221 2.07852 51.4825C2.32809 51.2429 2.62008 51.0582 2.95449 50.9285C3.2939 50.7937 3.66325 50.7263 4.06255 50.7263C4.46186 50.7263 4.82622 50.7887 5.15564 50.9135C5.49006 51.0383 5.77456 51.2279 6.00915 51.4825L5.66475 51.8344C5.44514 51.6148 5.20306 51.4575 4.93852 51.3627C4.67399 51.2679 4.38948 51.2205 4.08501 51.2205C3.76058 51.2205 3.46111 51.2754 3.18659 51.3852C2.91706 51.49 2.67997 51.6422 2.47533 51.8419C2.27568 52.0365 2.11845 52.2661 2.00365 52.5307C1.89384 52.7902 1.83894 53.0772 1.83894 53.3917C1.83894 53.7011 1.89384 53.9881 2.00365 54.2527C2.11845 54.5172 2.27568 54.7493 2.47533 54.9489C2.67997 55.1436 2.91706 55.2958 3.18659 55.4056C3.46111 55.5105 3.75809 55.5629 4.07753 55.5629C4.377 55.5629 4.65901 55.5179 4.92355 55.4281C5.19308 55.3383 5.44015 55.186 5.66475 54.9714L5.9792 55.3907C5.72964 55.6103 5.43765 55.7775 5.10324 55.8923C4.76882 56.0021 4.41943 56.057 4.05507 56.057ZM5.44763 55.3233V53.3917H5.9792V55.3907L5.44763 55.3233ZM14.3304 56.057C13.9361 56.057 13.5692 55.9921 13.2298 55.8623C12.8954 55.7276 12.6034 55.5404 12.3538 55.3008C12.1093 55.0563 11.9171 54.7742 11.7774 54.4548C11.6426 54.1304 11.5752 53.776 11.5752 53.3917C11.5752 53.0073 11.6426 52.6555 11.7774 52.336C11.9171 52.0116 12.1093 51.7296 12.3538 51.49C12.6034 51.2454 12.8954 51.0582 13.2298 50.9285C13.5642 50.7937 13.9311 50.7263 14.3304 50.7263C14.7247 50.7263 15.0891 50.7937 15.4235 50.9285C15.7579 51.0582 16.0474 51.2429 16.292 51.4825C16.5415 51.7221 16.7337 52.0041 16.8685 52.3285C17.0082 52.653 17.0781 53.0073 17.0781 53.3917C17.0781 53.776 17.0082 54.1304 16.8685 54.4548C16.7337 54.7792 16.5415 55.0612 16.292 55.3008C16.0474 55.5404 15.7579 55.7276 15.4235 55.8623C15.0891 55.9921 14.7247 56.057 14.3304 56.057ZM14.3304 55.5629C14.6448 55.5629 14.9343 55.5105 15.1989 55.4056C15.4684 55.2958 15.7005 55.1436 15.8952 54.9489C16.0948 54.7493 16.2495 54.5197 16.3593 54.2601C16.4692 53.9956 16.5241 53.7061 16.5241 53.3917C16.5241 53.0772 16.4692 52.7902 16.3593 52.5307C16.2495 52.2661 16.0948 52.0365 15.8952 51.8419C15.7005 51.6422 15.4684 51.49 15.1989 51.3852C14.9343 51.2754 14.6448 51.2205 14.3304 51.2205C14.0159 51.2205 13.7239 51.2754 13.4544 51.3852C13.1849 51.49 12.9503 51.6422 12.7506 51.8419C12.556 52.0365 12.4013 52.2661 12.2865 52.5307C12.1767 52.7902 12.1217 53.0772 12.1217 53.3917C12.1217 53.7011 12.1767 53.9881 12.2865 54.2527C12.4013 54.5172 12.556 54.7493 12.7506 54.9489C12.9503 55.1436 13.1849 55.2958 13.4544 55.4056C13.7239 55.5105 14.0159 55.5629 14.3304 55.5629ZM22.8121 56.0121V50.7712H23.3661V55.5329H26.301V56.0121H22.8121ZM31.713 56.0121V50.7712H33.8468C34.4058 50.7712 34.895 50.8835 35.3142 51.1082C35.7385 51.3278 36.0679 51.6347 36.3025 52.029C36.5371 52.4234 36.6544 52.8776 36.6544 53.3917C36.6544 53.9058 36.5371 54.36 36.3025 54.7543C36.0679 55.1486 35.7385 55.4581 35.3142 55.6827C34.895 55.9023 34.4058 56.0121 33.8468 56.0121H31.713ZM32.267 55.5329H33.8168C34.281 55.5329 34.6828 55.4431 35.0222 55.2634C35.3666 55.0787 35.6337 54.8267 35.8233 54.5072C36.013 54.1828 36.1078 53.8109 36.1078 53.3917C36.1078 52.9674 36.013 52.5956 35.8233 52.2761C35.6337 51.9567 35.3666 51.7071 35.0222 51.5274C34.6828 51.3427 34.281 51.2504 33.8168 51.2504H32.267V55.5329ZM43.8356 56.057C43.4463 56.057 43.0719 55.9946 42.7126 55.8698C42.3582 55.7401 42.0837 55.5753 41.889 55.3757L42.1061 54.9489C42.2908 55.1286 42.5379 55.2809 42.8473 55.4056C43.1618 55.5254 43.4912 55.5853 43.8356 55.5853C44.165 55.5853 44.4321 55.5454 44.6367 55.4655C44.8463 55.3807 44.9986 55.2684 45.0934 55.1286C45.1932 54.9889 45.2432 54.8341 45.2432 54.6644C45.2432 54.4598 45.1833 54.2951 45.0635 54.1703C44.9487 54.0455 44.7964 53.9482 44.6068 53.8783C44.4171 53.8034 44.2075 53.7386 43.9779 53.6837C43.7483 53.6288 43.5187 53.5714 43.2891 53.5115C43.0595 53.4466 42.8473 53.3617 42.6527 53.2569C42.463 53.1521 42.3083 53.0148 42.1885 52.8451C42.0737 52.6704 42.0163 52.4433 42.0163 52.1638C42.0163 51.9043 42.0837 51.6672 42.2184 51.4526C42.3582 51.2329 42.5703 51.0582 42.8548 50.9285C43.1393 50.7937 43.5037 50.7263 43.9479 50.7263C44.2424 50.7263 44.5344 50.7687 44.8239 50.8536C45.1134 50.9335 45.3629 51.0458 45.5726 51.1905L45.3854 51.6322C45.1608 51.4825 44.9212 51.3727 44.6667 51.3028C44.4171 51.2329 44.175 51.198 43.9404 51.198C43.626 51.198 43.3664 51.2404 43.1618 51.3253C42.9572 51.4101 42.8049 51.5249 42.7051 51.6697C42.6103 51.8094 42.5628 51.9692 42.5628 52.1488C42.5628 52.3535 42.6202 52.5182 42.735 52.643C42.8548 52.7678 43.0096 52.8651 43.1992 52.935C43.3939 53.0048 43.606 53.0672 43.8356 53.1221C44.0652 53.177 44.2923 53.2369 44.5169 53.3018C44.7465 53.3667 44.9562 53.4516 45.1458 53.5564C45.3405 53.6562 45.4952 53.791 45.61 53.9607C45.7298 54.1304 45.7897 54.3525 45.7897 54.627C45.7897 54.8816 45.7198 55.1186 45.5801 55.3383C45.4403 55.5529 45.2257 55.7276 44.9362 55.8623C44.6517 55.9921 44.2848 56.057 43.8356 56.057ZM51.489 56.0121V50.7712H51.9457L54.3415 54.8591H54.1019L56.4753 50.7712H56.932V56.0121H56.4004V51.6023H56.5277L54.3415 55.3457H54.0795L51.8783 51.6023H52.0206V56.0121H51.489ZM63.1317 56.0121V50.7712H63.6858V56.0121H63.1317ZM70.9013 56.0121V51.2504H69.0596V50.7712H73.2972V51.2504H71.4554V56.0121H70.9013ZM82.5077 50.7712H83.0542V56.0121H82.5077V50.7712ZM79.2284 56.0121H78.6744V50.7712H79.2284V56.0121ZM82.5601 53.5938H79.1685V53.1072H82.5601V53.5938ZM88.9575 52.7478L88.9201 50.7712H89.3917L89.3543 52.7478H88.9575ZM96.7076 56.057C96.3182 56.057 95.9439 55.9946 95.5845 55.8698C95.2301 55.7401 94.9556 55.5753 94.761 55.3757L94.9781 54.9489C95.1628 55.1286 95.4098 55.2809 95.7193 55.4056C96.0337 55.5254 96.3632 55.5853 96.7076 55.5853C97.037 55.5853 97.304 55.5454 97.5087 55.4655C97.7183 55.3807 97.8705 55.2684 97.9654 55.1286C98.0652 54.9889 98.1151 54.8341 98.1151 54.6644C98.1151 54.4598 98.0552 54.2951 97.9354 54.1703C97.8206 54.0455 97.6684 53.9482 97.4787 53.8783C97.289 53.8034 97.0794 53.7386 96.8498 53.6837C96.6202 53.6288 96.3906 53.5714 96.161 53.5115C95.9314 53.4466 95.7193 53.3617 95.5246 53.2569C95.335 53.1521 95.1802 53.0148 95.0604 52.8451C94.9456 52.6704 94.8882 52.4433 94.8882 52.1638C94.8882 51.9043 94.9556 51.6672 95.0904 51.4526C95.2301 51.2329 95.4423 51.0582 95.7268 50.9285C96.0113 50.7937 96.3756 50.7263 96.8199 50.7263C97.1144 50.7263 97.4063 50.7687 97.6958 50.8536C97.9853 50.9335 98.2349 51.0458 98.4445 51.1905L98.2574 51.6322C98.0327 51.4825 97.7932 51.3727 97.5386 51.3028C97.289 51.2329 97.047 51.198 96.8124 51.198C96.4979 51.198 96.2384 51.2404 96.0337 51.3253C95.8291 51.4101 95.6769 51.5249 95.577 51.6697C95.4822 51.8094 95.4348 51.9692 95.4348 52.1488C95.4348 52.3535 95.4922 52.5182 95.607 52.643C95.7268 52.7678 95.8815 52.8651 96.0712 52.935C96.2658 53.0048 96.478 53.0672 96.7076 53.1221C96.9372 53.177 97.1643 53.2369 97.3889 53.3018C97.6185 53.3667 97.8281 53.4516 98.0178 53.5564C98.2124 53.6562 98.3672 53.791 98.482 53.9607C98.6018 54.1304 98.6616 54.3525 98.6616 54.627C98.6616 54.8816 98.5918 55.1186 98.452 55.3383C98.3123 55.5529 98.0976 55.7276 97.8081 55.8623C97.5236 55.9921 97.1568 56.057 96.7076 56.057ZM119.563 56.057C119.163 56.057 118.794 55.9921 118.455 55.8623C118.12 55.7276 117.828 55.5404 117.579 55.3008C117.334 55.0612 117.142 54.7792 117.002 54.4548C116.867 54.1304 116.8 53.776 116.8 53.3917C116.8 53.0073 116.867 52.653 117.002 52.3285C117.142 52.0041 117.337 51.7221 117.586 51.4825C117.836 51.2429 118.128 51.0582 118.462 50.9285C118.801 50.7937 119.171 50.7263 119.57 50.7263C119.969 50.7263 120.334 50.7887 120.663 50.9135C120.998 51.0383 121.282 51.2279 121.517 51.4825L121.172 51.8344C120.953 51.6148 120.711 51.4575 120.446 51.3627C120.182 51.2679 119.897 51.2205 119.593 51.2205C119.268 51.2205 118.969 51.2754 118.694 51.3852C118.425 51.49 118.188 51.6422 117.983 51.8419C117.783 52.0365 117.626 52.2661 117.511 52.5307C117.401 52.7902 117.347 53.0772 117.347 53.3917C117.347 53.7011 117.401 53.9881 117.511 54.2527C117.626 54.5172 117.783 54.7493 117.983 54.9489C118.188 55.1436 118.425 55.2958 118.694 55.4056C118.969 55.5105 119.266 55.5629 119.585 55.5629C119.885 55.5629 120.167 55.5179 120.431 55.4281C120.701 55.3383 120.948 55.186 121.172 54.9714L121.487 55.3907C121.237 55.6103 120.945 55.7775 120.611 55.8923C120.276 56.0021 119.927 56.057 119.563 56.057ZM120.955 55.3233V53.3917H121.487V55.3907L120.955 55.3233ZM129.838 56.057C129.444 56.057 129.077 55.9921 128.737 55.8623C128.403 55.7276 128.111 55.5404 127.861 55.3008C127.617 55.0563 127.425 54.7742 127.285 54.4548C127.15 54.1304 127.083 53.776 127.083 53.3917C127.083 53.0073 127.15 52.6555 127.285 52.336C127.425 52.0116 127.617 51.7296 127.861 51.49C128.111 51.2454 128.403 51.0582 128.737 50.9285C129.072 50.7937 129.439 50.7263 129.838 50.7263C130.232 50.7263 130.597 50.7937 130.931 50.9285C131.265 51.0582 131.555 51.2429 131.8 51.4825C132.049 51.7221 132.241 52.0041 132.376 52.3285C132.516 52.653 132.586 53.0073 132.586 53.3917C132.586 53.776 132.516 54.1304 132.376 54.4548C132.241 54.7792 132.049 55.0612 131.8 55.3008C131.555 55.5404 131.265 55.7276 130.931 55.8623C130.597 55.9921 130.232 56.057 129.838 56.057ZM129.838 55.5629C130.152 55.5629 130.442 55.5105 130.706 55.4056C130.976 55.2958 131.208 55.1436 131.403 54.9489C131.602 54.7493 131.757 54.5197 131.867 54.2601C131.977 53.9956 132.032 53.7061 132.032 53.3917C132.032 53.0772 131.977 52.7902 131.867 52.5307C131.757 52.2661 131.602 52.0365 131.403 51.8419C131.208 51.6422 130.976 51.49 130.706 51.3852C130.442 51.2754 130.152 51.2205 129.838 51.2205C129.524 51.2205 129.232 51.2754 128.962 51.3852C128.692 51.49 128.458 51.6422 128.258 51.8419C128.064 52.0365 127.909 52.2661 127.794 52.5307C127.684 52.7902 127.629 53.0772 127.629 53.3917C127.629 53.7011 127.684 53.9881 127.794 54.2527C127.909 54.5172 128.064 54.7493 128.258 54.9489C128.458 55.1436 128.692 55.2958 128.962 55.4056C129.232 55.5105 129.524 55.5629 129.838 55.5629ZM138.32 56.0121V50.7712H138.874V55.5329H141.809V56.0121H138.32ZM147.221 56.0121V50.7712H149.354C149.913 50.7712 150.403 50.8835 150.822 51.1082C151.246 51.3278 151.575 51.6347 151.81 52.029C152.045 52.4234 152.162 52.8776 152.162 53.3917C152.162 53.9058 152.045 54.36 151.81 54.7543C151.575 55.1486 151.246 55.4581 150.822 55.6827C150.403 55.9023 149.913 56.0121 149.354 56.0121H147.221ZM147.775 55.5329H149.324C149.789 55.5329 150.19 55.4431 150.53 55.2634C150.874 55.0787 151.141 54.8267 151.331 54.5072C151.521 54.1828 151.615 53.8109 151.615 53.3917C151.615 52.9674 151.521 52.5956 151.331 52.2761C151.141 51.9567 150.874 51.7071 150.53 51.5274C150.19 51.3427 149.789 51.2504 149.324 51.2504H147.775V55.5329Z" fill="white"/>
<defs>
<linearGradient id="paint0_linear_269_3832" x1="6.42578" y1="14.6792" x2="20.231" y2="24.4532" gradientUnits="userSpaceOnUse">
<stop stop-color="#F0DB92"/>
<stop offset="1" stop-color="#BF9033"/>
</linearGradient>
<linearGradient id="paint1_linear_269_3832" x1="22.5755" y1="21.4888" x2="25.3272" y2="22.512" gradientUnits="userSpaceOnUse">
<stop stop-color="#F0DB92"/>
<stop offset="1" stop-color="#BF9033"/>
</linearGradient>
<linearGradient id="paint2_linear_269_3832" x1="16.7463" y1="20.4261" x2="18.9073" y2="23.0546" gradientUnits="userSpaceOnUse">
<stop stop-color="#F0DB92"/>
<stop offset="1" stop-color="#BF9033"/>
</linearGradient>
<linearGradient id="paint3_linear_269_3832" x1="6.64654" y1="7.84141" x2="8.07002" y2="11.9889" gradientUnits="userSpaceOnUse">
<stop stop-color="#F0DB92"/>
<stop offset="1" stop-color="#BF9033"/>
</linearGradient>
<linearGradient id="paint4_linear_269_3832" x1="14.9781" y1="21.086" x2="16.5384" y2="26.5386" gradientUnits="userSpaceOnUse">
<stop stop-color="#F0DB92"/>
<stop offset="1" stop-color="#BF9033"/>
</linearGradient>
<linearGradient id="paint5_linear_269_3832" x1="6.11839" y1="12.2803" x2="8.14728" y2="13.8866" gradientUnits="userSpaceOnUse">
<stop stop-color="#F0DB92"/>
<stop offset="1" stop-color="#BF9033"/>
</linearGradient>
<linearGradient id="paint6_linear_269_3832" x1="17.975" y1="11.9599" x2="19.8919" y2="12.4603" gradientUnits="userSpaceOnUse">
<stop stop-color="#F0DB92"/>
<stop offset="1" stop-color="#BF9033"/>
</linearGradient>
<linearGradient id="paint7_linear_269_3832" x1="20.3147" y1="14.3326" x2="22.4868" y2="14.8734" gradientUnits="userSpaceOnUse">
<stop stop-color="#F0DB92"/>
<stop offset="1" stop-color="#BF9033"/>
</linearGradient>
<linearGradient id="paint8_linear_269_3832" x1="12.7167" y1="13.2727" x2="13.6503" y2="17.0583" gradientUnits="userSpaceOnUse">
<stop stop-color="#F0DB92"/>
<stop offset="1" stop-color="#BF9033"/>
</linearGradient>
<linearGradient id="paint9_linear_269_3832" x1="1.12642" y1="13.4717" x2="2.8937" y2="14.6302" gradientUnits="userSpaceOnUse">
<stop stop-color="#F0DB92"/>
<stop offset="1" stop-color="#BF9033"/>
</linearGradient>
<linearGradient id="paint10_linear_269_3832" x1="14.6986" y1="10.6425" x2="17.1027" y2="11.7067" gradientUnits="userSpaceOnUse">
<stop stop-color="#F0DB92"/>
<stop offset="1" stop-color="#BF9033"/>
</linearGradient>
<linearGradient id="paint11_linear_269_3832" x1="3.60525" y1="12.8454" x2="5.44103" y2="13.7698" gradientUnits="userSpaceOnUse">
<stop stop-color="#F0DB92"/>
<stop offset="1" stop-color="#BF9033"/>
</linearGradient>
<linearGradient id="paint12_linear_269_3832" x1="3.75704" y1="8.39846" x2="4.95777" y2="12.0277" gradientUnits="userSpaceOnUse">
<stop stop-color="#F0DB92"/>
<stop offset="1" stop-color="#BF9033"/>
</linearGradient>
<linearGradient id="paint13_linear_269_3832" x1="11.5381" y1="13.2583" x2="13.0067" y2="15.2455" gradientUnits="userSpaceOnUse">
<stop stop-color="#F0DB92"/>
<stop offset="1" stop-color="#BF9033"/>
</linearGradient>
<linearGradient id="paint14_linear_269_3832" x1="22.0887" y1="17.466" x2="24.6637" y2="18.28" gradientUnits="userSpaceOnUse">
<stop stop-color="#F0DB92"/>
<stop offset="1" stop-color="#BF9033"/>
</linearGradient>
<linearGradient id="paint15_linear_269_3832" x1="11.2007" y1="9.6761" x2="13.432" y2="10.9341" gradientUnits="userSpaceOnUse">
<stop stop-color="#F0DB92"/>
<stop offset="1" stop-color="#BF9033"/>
</linearGradient>
<linearGradient id="paint16_linear_269_3832" x1="14.6395" y1="15.1058" x2="16.1459" y2="20.0786" gradientUnits="userSpaceOnUse">
<stop stop-color="#F0DB92"/>
<stop offset="1" stop-color="#BF9033"/>
</linearGradient>
<linearGradient id="paint17_linear_269_3832" x1="2.12342" y1="11.3691" x2="3.36223" y2="13.0744" gradientUnits="userSpaceOnUse">
<stop stop-color="#F0DB92"/>
<stop offset="1" stop-color="#BF9033"/>
</linearGradient>
<linearGradient id="paint18_linear_269_3832" x1="8.8172" y1="12.5463" x2="10.5223" y2="14.4429" gradientUnits="userSpaceOnUse">
<stop stop-color="#F0DB92"/>
<stop offset="1" stop-color="#BF9033"/>
</linearGradient>
</defs>
</svg>
