<svg width="4" height="545" viewBox="0 0 4 545" fill="none" xmlns="http://www.w3.org/2000/svg">
<path d="M1.74927 544.424C0.96273 544.424 0.325115 543.787 0.325115 543C0.325115 542.213 0.96273 541.576 1.74927 541.576C2.53581 541.576 3.17342 542.213 3.17342 543C3.17342 543.787 2.53581 544.424 1.74927 544.424ZM1.74927 3.42413C0.96273 3.42413 0.325115 2.78656 0.325115 2C0.325115 1.21344 0.96273 0.575867 1.74927 0.575867C2.53581 0.575867 3.17342 1.21344 3.17342 2C3.17342 2.78656 2.53581 3.42413 1.74927 3.42413ZM1.48224 543L1.48224 2H2.0163L2.0163 543H1.48224Z" fill="#F6F7FB"/>
</svg>
