<svg width="204" height="204" viewBox="0 0 204 204" fill="none" xmlns="http://www.w3.org/2000/svg">
<path d="M102 6.34167e-06C45.667 1.41687e-06 -1.41688e-06 45.667 -6.34167e-06 102C-1.12665e-05 158.333 45.6669 204 102 204C158.333 204 204 158.333 204 102C204 45.667 158.333 1.12665e-05 102 6.34167e-06Z" fill="url(#paint0_linear_2038_250)"/>
<path d="M101.864 9.51997C50.8641 9.51996 9.52012 50.8639 9.52012 101.864C9.52011 152.865 50.8641 194.209 101.864 194.209C152.865 194.209 194.209 152.865 194.209 101.864C194.209 50.8639 152.865 9.51997 101.864 9.51997Z" fill="url(#paint1_radial_2038_250)"/>
<path d="M129.643 138.421C126.451 135.328 125.102 133.137 125.102 131.863C125.102 130.989 125.727 129.815 127.467 128.363C128.919 127.204 129.883 125.902 129.883 124.74V120.808C126.343 125.163 122.187 127.465 117.892 127.465C113.545 127.465 109.78 125.875 106.588 122.691L106.595 122.675H110.491C114.031 122.675 117.441 121.864 120.72 120.239C122.589 119.312 124.36 118.141 126.031 116.724C128.095 114.974 130.245 112.71 132.137 110.75V122.957C132.137 126.131 132.377 126.858 129.765 129.223C128.609 130.27 127.467 131.113 127.467 131.875C127.582 132.69 127.647 133.578 128.785 134.513C129.383 132.032 132.027 130.596 133.91 130.078C137.01 129.226 139.078 128.7 139.479 125.346C139.507 125.108 139.532 123.996 139.544 123.728L141.797 123.352L141.794 124.827C141.794 126.397 141.222 127.909 140.233 129.372C138.764 131.076 136.913 131.389 135.017 132.1C132.381 133.091 129.643 135.369 129.643 138.421Z" fill="#372011"/>
<path d="M106.549 122.671C102.728 122.031 99.6036 120.322 97.1712 117.541C94.7342 114.753 93.5161 111.533 93.5161 107.878C93.5161 103.812 95.0548 100.331 98.1279 97.4284C101.206 94.5291 104.891 93.0776 109.187 93.0776H111.363C114.321 93.0776 116.947 94.5134 119.242 97.385C121.535 100.26 122.679 103.757 122.679 107.878C119.443 105.644 117.382 104.789 114.4 104.508C110.75 104.168 107.811 104.275 105.18 107.269C103.499 109.184 102.657 111.561 102.657 114.405C102.657 117.3 103.958 120.053 106.557 122.659L106.549 122.671ZM100.917 117.454C100.335 115.943 100.046 114.492 100.046 113.099C100.046 109.967 101.146 107.297 103.353 105.09C106.418 102.028 109.646 101.581 113.732 101.827C115.551 101.937 116.583 102.309 119.198 103.524C118.328 101.202 117.023 99.3151 115.282 97.8635C113.538 96.4119 111.651 95.6881 109.622 95.6881C105.849 95.6881 102.657 96.9063 100.046 99.3468C97.4318 101.783 96.1265 104.773 96.1265 108.313C96.1265 112.55 97.7246 115.595 100.917 117.454Z" fill="#372011"/>
<path d="M69.0149 130.511C64.953 127.029 62.9198 123.256 62.9198 119.194V110.488H56.8247V117.454C56.8247 120.876 57.9876 123.838 60.3094 126.333C62.6312 128.829 65.5344 130.222 69.0149 130.511Z" fill="#372011"/>
<path d="M94.4838 110.488H65.5345V118.324C65.5345 121.401 66.4917 124.142 68.406 126.551C70.3204 128.96 72.8439 130.57 75.9805 131.381L76.1268 131.333L76.1822 131.491C75.0431 131.998 73.5243 132.255 71.6255 132.255H69.0151C64.8938 132.255 61.3973 130.815 58.5258 127.944C55.6503 125.072 54.2144 121.575 54.2144 117.454V110.488H50.7339C49.5669 110.488 48.9895 109.935 48.9895 109.183C48.9895 108.313 49.5708 107.878 50.7339 107.878C67.2913 107.878 77.9382 107.878 94.4838 107.878V110.488Z" fill="#372011"/>
<path d="M76.1704 131.317C77.9187 130.704 79.8488 129.364 81.6367 127.03C83.7923 124.217 85.7026 122.675 87.7317 122.675C88.8353 122.675 89.7648 122.995 90.5203 123.636C91.2718 124.273 91.6515 125.115 91.6515 126.16C91.6515 127.9 90.8089 129.352 89.1241 130.51C87.443 131.674 85.3822 132.255 82.9457 132.255C80.1019 132.255 77.9227 131.962 76.4157 131.381C76.3524 131.412 76.2891 131.444 76.2219 131.475L76.1704 131.317Z" fill="#372011"/>
<path d="M131.232 84.1468C130.692 83.4166 130.288 82.6418 130.018 81.8227C126.781 71.9678 136.165 62.9444 145.752 65.236C149.623 66.1614 152.83 68.9768 153.658 73.6337C154.19 76.629 153.538 79.8429 151.019 81.9045C150.845 75.8546 136.161 76.1446 131.26 84.1459L131.232 84.1468Z" fill="#372011"/>
<path d="M130.646 88.9993C131.38 89.1545 132.66 88.9045 133.113 88.2569C133.794 87.283 132.991 86.1708 132.38 85.4208C132.09 85.0646 131.729 84.6541 131.298 84.1895L131.257 84.1875C130.913 84.528 130.421 85.0492 130.028 85.6262C129.256 86.7597 129 88.6509 130.646 88.9993Z" fill="#372011"/>
<path fill-rule="evenodd" clip-rule="evenodd" d="M77.6996 107.878C79.8897 107.416 81.7325 105.903 82.1146 103.672L82.2001 102.976C82.2159 102.76 82.2443 102.521 82.2573 102.299C82.3195 101.244 82.3202 100.487 82.1948 99.4652C82.1578 99.1632 81.927 97.6897 81.8275 97.4938C81.7318 96.964 81.3364 95.9033 81.1505 95.4066L80.7705 94.5447C80.6031 94.237 80.2916 93.56 80.1098 93.2908L79.1978 91.8536C79.1351 91.7589 79.0776 91.6938 79.0153 91.5996C78.9855 91.5543 78.9636 91.5173 78.9324 91.4739C78.897 91.425 78.8747 91.4094 78.839 91.3553C78.8081 91.3086 78.7832 91.2636 78.7489 91.2207L78.2746 90.6045C78.24 90.5628 78.2192 90.5304 78.1819 90.4853L77.2734 89.4209C77.1972 89.3388 77.1297 89.2722 77.0576 89.1912C77.0181 89.1468 76.9832 89.116 76.9399 89.0726C76.4245 88.5563 76.0261 88.1557 75.4168 87.6797L74.419 86.9375C74.3402 86.8778 74.3881 86.9219 74.3841 86.8916C74.3237 86.8757 73.4087 86.2679 73.2458 86.1748C72.5258 85.7633 72.0988 85.5216 71.3295 85.1677C71.2081 85.1119 71.0882 85.0585 70.9516 85.0016C70.4391 84.7879 69.0652 84.2454 68.5209 84.1353C68.4653 84.1013 67.7739 83.9164 67.6588 83.8936C67.4853 83.8593 67.3772 83.8199 67.2123 83.787C67.0574 83.7559 66.9026 83.7243 66.7478 83.693L65.8327 83.5072C65.7494 83.4914 65.7408 83.502 65.6686 83.4914C65.552 83.4743 65.436 83.4326 65.3191 83.4252L64.6318 83.3317C64.5145 83.3137 64.3967 83.2896 64.2791 83.2816C64.1933 83.2758 64.053 83.2647 63.9538 83.2446C63.3831 83.1716 62.3654 83.1279 61.8302 83.1085C60.6038 83.064 58.3103 83.2734 57.088 83.6038C57.0076 83.6255 56.9388 83.6426 56.864 83.6641C56.7569 83.6948 56.3158 83.8821 56.2537 83.8748C56.2699 83.8028 56.2829 83.8092 56.3327 83.7845L56.8379 83.5618L57.4965 83.361C58.3013 83.1602 59.0114 83.0309 59.8481 82.9688C60.518 82.919 61.1871 82.8775 61.8835 82.8747C62.2403 82.8732 63.6205 82.8902 64.0319 82.943L65.0669 83.0451C65.2512 83.0553 65.6573 83.1308 65.7807 83.1369C65.9137 83.1435 66.3543 83.2285 66.5009 83.2591C66.63 83.286 66.7159 83.2857 66.8577 83.3143C67.0398 83.3512 68.5533 83.6808 68.6341 83.7406L69.4915 83.9837C71.296 84.5492 72.6517 85.2051 74.2268 86.1352L74.5458 86.3397L75.0837 86.692C75.1785 86.7564 75.2602 86.8086 75.3511 86.8758L76.114 87.4533L77.2971 88.4763C77.8911 89.0447 78.8656 90.0816 79.3321 90.7365L79.6005 91.1002C79.6355 91.153 79.6588 91.1677 79.6941 91.2187L79.8701 91.4631C79.9848 91.6341 80.0885 91.7933 80.2025 91.965L81.0611 93.4646C81.0865 93.5171 81.0768 93.477 81.0906 93.5405C81.1274 93.5798 81.1522 93.6407 81.1789 93.6929C81.5732 94.4614 81.797 95.0527 82.1199 95.8333L82.2446 96.1751C82.3044 96.2605 82.6029 97.2142 82.6417 97.3487C82.6554 97.3965 82.6699 97.426 82.6836 97.4738C82.8822 98.1634 82.9921 98.6996 83.1143 99.4247C83.2552 100.262 83.2813 101.016 83.2787 101.872C83.2591 105.168 82.8684 106.78 82.2889 107.878H77.6996Z" fill="url(#paint2_linear_2038_250)"/>
<path fill-rule="evenodd" clip-rule="evenodd" d="M84.0359 104.162C84.097 104.175 84.2965 104.062 84.351 104.03L85.348 103.355C85.6724 103.089 85.9628 102.821 86.2416 102.503C86.4703 102.242 86.4948 102.193 86.6896 101.943C87.1278 101.38 87.5642 100.428 87.7061 99.7267C87.8956 98.7901 87.8908 98.1726 87.7264 97.2682C87.7139 97.199 87.6955 97.0782 87.664 97.0315C87.601 96.9384 87.5428 96.9668 87.4528 96.9995L86.9004 97.2349C86.3861 97.4926 86.2563 97.5868 85.8125 97.9195C85.6833 98.0163 85.5807 98.1162 85.4591 98.2245C85.3993 98.2778 85.3463 98.332 85.2907 98.3894C85.1047 98.5813 84.9751 98.7389 84.8172 98.953C84.1105 99.9108 83.7486 101.156 83.7652 102.383C83.7741 103.041 83.8185 103.389 83.9267 104.026C83.9378 104.092 83.96 104.147 84.0359 104.162Z" fill="url(#paint3_linear_2038_250)"/>
<path fill-rule="evenodd" clip-rule="evenodd" d="M76.4257 95.9911C76.1543 95.9662 75.5779 96.0804 75.3287 96.1478C75.0331 96.2277 74.7441 96.3301 74.4678 96.4627C74.2918 96.5471 74.4235 96.7397 74.5303 96.923C74.6344 97.1015 74.814 97.4219 74.9341 97.5719C75.3634 98.1083 75.6824 98.5276 76.3032 98.942C76.6811 99.1943 76.9019 99.3129 77.335 99.4801C78.0074 99.7397 79.0196 99.8204 79.7345 99.6678C79.7379 99.6671 79.766 99.6597 79.7684 99.6589C79.8006 99.648 79.7812 99.6566 79.7963 99.6464C79.8745 99.6475 79.9651 99.6251 80.0408 99.6067L80.7077 99.4184C80.7868 99.3932 81.2819 99.2181 81.3319 99.1644C81.4002 99.091 81.3589 99.007 81.3202 98.9478C80.9375 98.3615 80.674 98.081 80.1679 97.5867L79.6426 97.1434C79.0438 96.7176 78.3268 96.2716 77.5936 96.1271C77.3018 96.0696 76.7119 95.9481 76.4257 95.9911Z" fill="url(#paint4_linear_2038_250)"/>
<path fill-rule="evenodd" clip-rule="evenodd" d="M65.0159 81.4556C65.0153 81.3822 64.9171 81.2605 64.8754 81.1976C64.8166 81.109 64.7737 81.0331 64.7026 80.9509C64.5354 80.7575 64.5564 80.7408 64.2993 80.4822C63.9389 80.1197 63.3716 79.735 62.8616 79.6161C62.3748 79.5027 62.1963 79.487 61.6955 79.5142C61.4032 79.53 60.7325 79.6763 60.4323 79.8089C60.2907 79.8714 60.3592 79.9832 60.4088 80.0764L60.9908 80.9683C61.8645 81.995 62.9533 82.7355 64.4648 82.5301C64.7016 82.4988 64.7484 82.4768 64.943 82.4408C65.0276 82.4251 65.0786 82.4003 65.1644 82.3766C65.2206 82.3611 65.3398 82.3298 65.3685 82.2839C65.4103 82.2174 65.3528 82.121 65.3291 82.0635C65.2971 81.986 65.2723 81.934 65.2402 81.8585L65.0889 81.5562C65.058 81.4947 65.0769 81.5002 65.0159 81.4556Z" fill="url(#paint5_linear_2038_250)"/>
<path fill-rule="evenodd" clip-rule="evenodd" d="M75.9832 103.819C76.1109 103.962 76.7434 104.247 76.9502 104.334C77.2282 104.45 77.3308 104.45 77.5436 104.524C77.6367 104.556 77.7475 104.577 77.8666 104.601L78.4885 104.68C78.6012 104.688 78.6815 104.695 78.7921 104.698C79.5612 104.714 80.1998 104.592 80.9141 104.399C81.0807 104.354 81.239 104.302 81.397 104.247C81.7077 104.14 81.4619 103.938 81.2836 103.668C81.2078 103.552 80.9182 103.223 80.8135 103.104C80.7001 102.976 80.5887 102.872 80.4656 102.752C80.2231 102.515 79.969 102.305 79.6894 102.097C79.6108 102.025 79.3194 101.834 79.2087 101.766L78.6744 101.457C78.5329 101.397 78.4009 101.329 78.2513 101.262C78.127 101.206 77.9159 101.12 77.7756 101.091C77.7498 101.067 77.7249 101.066 77.6832 101.055C77.354 100.964 77.3364 100.94 76.9338 100.87C76.6796 100.827 76.3589 100.812 76.0979 100.804C75.7482 100.794 75.3273 100.851 74.9884 100.912C74.9233 100.923 74.8846 100.933 74.8193 100.95C74.3791 101.063 74.4276 101.054 73.9994 101.201C73.751 101.287 73.8761 101.424 74.0546 101.754L74.4188 102.304C74.4666 102.37 74.7547 102.779 74.8387 102.819C74.8621 102.88 75.1875 103.209 75.2647 103.261C75.3024 103.323 75.8753 103.787 75.9832 103.819Z" fill="url(#paint6_linear_2038_250)"/>
<path fill-rule="evenodd" clip-rule="evenodd" d="M58.1537 86.8652C58.3825 86.9115 58.7447 86.8609 58.9518 86.8326C59.3316 86.7808 59.7781 86.6442 60.1214 86.4806C60.175 86.4551 60.2268 86.434 60.2796 86.4049C60.5221 86.2708 60.7015 86.1654 60.9183 85.9856C60.9436 85.9648 60.9578 85.9576 60.9832 85.9368L61.3572 85.5791C61.7593 85.1556 62.1122 84.4771 62.2777 83.9093C62.2985 83.8377 62.3978 83.5373 62.3924 83.4696C62.3821 83.3397 62.2085 83.3446 62.0505 83.3364C61.9057 83.329 61.7647 83.3199 61.6395 83.3242C61.0592 83.344 60.593 83.4552 60.0793 83.7157C60.018 83.7468 59.9842 83.7737 59.9284 83.8025L59.7111 83.9357C59.6764 83.9621 59.675 83.97 59.6402 83.9962C58.7524 84.6637 58.307 85.6948 58.0897 86.7687C58.0821 86.8061 58.1163 86.8575 58.1537 86.8652Z" fill="url(#paint7_linear_2038_250)"/>
<path fill-rule="evenodd" clip-rule="evenodd" d="M76.8875 86.3257C77.0774 87.262 77.6513 88.1907 78.4064 88.7806C78.628 88.9537 78.6212 88.9781 78.7676 88.7039C78.9401 88.381 79.0834 87.9679 79.197 87.6129C79.2297 87.5105 79.3351 87.0617 79.3399 86.9665C79.3478 86.8044 79.3972 86.5736 79.4041 86.3543C79.4106 86.1436 79.4063 85.9775 79.3976 85.775C79.3808 85.3842 79.2661 84.871 79.1293 84.5082C79.0752 84.3647 78.8883 83.9189 78.8059 83.8447C78.7899 83.7601 78.7314 83.6968 78.6828 83.6235C78.6328 83.5481 78.5919 83.4869 78.542 83.4113C78.4439 83.263 78.3362 83.1463 78.2277 83.0042C78.1945 82.9722 78.1701 82.9409 78.1362 82.9026C77.9379 82.6789 77.7135 82.4828 77.493 82.2873C77.4405 82.2408 77.425 82.229 77.3358 82.211C77.2937 82.2528 77.2995 82.2276 77.263 82.2896C77.2418 82.3255 77.2279 82.3644 77.2133 82.4032L77.0431 82.9006C76.9338 83.2461 76.9117 83.4049 76.8375 83.7642C76.8147 83.8744 76.821 83.924 76.7982 84.0403C76.7844 84.111 76.7907 84.1238 76.7856 84.1738C76.7826 84.2023 76.7753 84.2262 76.7725 84.252C76.7671 84.3014 76.77 84.2386 76.7703 84.2803C76.7707 84.3238 76.7656 84.2926 76.7766 84.3146C76.7401 84.4952 76.739 84.6912 76.7376 84.8585C76.7343 85.2866 76.7541 85.6806 76.8352 86.0997C76.8477 86.1644 76.8652 86.2652 76.8875 86.3257Z" fill="url(#paint8_linear_2038_250)"/>
<path fill-rule="evenodd" clip-rule="evenodd" d="M82.5165 86.5737C82.5066 86.5099 82.4126 86.4048 82.3803 86.3383L81.9731 85.7471C81.9334 85.701 81.9082 85.6644 81.844 85.6737C81.6892 85.6961 81.2226 86.6075 81.1658 86.7273C81.0707 86.9279 80.9767 87.1317 80.8952 87.3455C80.769 87.6762 80.4883 88.4963 80.4756 88.7828C80.4698 88.912 80.4163 89.0443 80.4079 89.1752C80.393 89.4069 80.3549 89.6288 80.351 89.8936C80.3464 90.2214 80.3581 90.5862 80.4079 90.8978C80.4855 91.3822 80.5508 91.6264 80.7208 92.0795C80.756 92.1731 80.7876 92.2517 80.8292 92.341L81.0256 92.7248C81.0584 92.777 81.0647 92.8049 81.0988 92.8568C81.1848 92.9881 81.2119 93.0513 81.2966 93.1562C81.4218 93.3112 81.5824 93.6747 81.7419 93.5639C81.8004 93.5234 81.9743 93.2911 82.0397 93.2228C82.0853 93.1599 82.1239 93.1037 82.1717 93.0389C82.2411 92.9449 82.526 92.523 82.5486 92.4358L82.6907 92.1878C82.738 92.0961 82.7783 92.0136 82.8208 91.9231C82.9014 91.7514 82.9886 91.536 83.0507 91.3484C83.3127 90.5581 83.4001 89.9118 83.3398 89.0917L83.2635 88.531C83.2018 88.1933 83.1775 88.1627 83.0993 87.8758C83.0817 87.811 83.0777 87.795 83.0483 87.7428C83.0464 87.6789 83.0232 87.65 83.0022 87.5929C82.9796 87.5315 82.9654 87.4921 82.943 87.4377C82.8309 87.1645 82.6755 86.8219 82.5165 86.5737Z" fill="url(#paint9_linear_2038_250)"/>
<path fill-rule="evenodd" clip-rule="evenodd" d="M73.1486 90.2499C73.4893 90.3189 73.8812 90.3054 74.1535 90.2716C74.4893 90.2301 74.7044 90.1895 75.0313 90.0662C75.1938 90.0049 75.4455 89.8901 75.6041 89.7987L75.9513 89.5681C76.0021 89.5342 76.0937 89.5004 76.0851 89.4188C76.0767 89.34 75.8758 89.1433 75.8153 89.0823C75.224 88.4856 74.2368 87.8308 73.3356 87.6986C73.1023 87.6645 72.4514 87.6151 72.314 87.6757C72.2257 87.664 72.0381 87.7037 71.9594 87.7183C71.8448 87.7395 71.7356 87.7675 71.623 87.7976C71.5019 87.8298 71.0841 87.9693 71.0122 88.0304C70.9177 88.0372 70.37 88.3526 70.2709 88.419C70.2184 88.4543 70.1795 88.4808 70.1261 88.5149C69.984 88.606 69.976 88.6619 70.1194 88.7906C70.3741 89.0191 70.9793 89.4829 71.3114 89.6277C71.3713 89.6772 71.6131 89.7815 71.7032 89.8237C71.8417 89.8886 71.9811 89.9483 72.1408 90.0057C72.2923 90.0603 72.9859 90.2852 73.1486 90.2499Z" fill="url(#paint10_linear_2038_250)"/>
<path fill-rule="evenodd" clip-rule="evenodd" d="M50.47 88.5177C50.6002 88.5441 50.9168 88.495 51.0376 88.4729C51.2214 88.4393 51.3877 88.3898 51.5548 88.3312C52.0864 88.1446 52.6654 87.7574 52.9987 87.3037C53.3294 86.8535 53.5161 86.4238 53.6419 85.8021C53.6705 85.6608 53.6738 85.5728 53.6977 85.4455C53.7409 85.2163 53.5908 85.2236 53.2276 85.2405C52.4883 85.2748 51.7408 85.5367 51.2514 86.1148C50.7181 86.7445 50.5276 87.4292 50.4238 88.2566C50.4132 88.3411 50.3833 88.5002 50.47 88.5177Z" fill="url(#paint11_linear_2038_250)"/>
<path fill-rule="evenodd" clip-rule="evenodd" d="M74.857 82.9625C74.8623 82.891 74.6997 82.592 74.6557 82.5165C74.3496 81.9918 73.9716 81.5144 73.4612 81.1695C73.393 81.1235 73.2314 80.996 73.1564 80.9889C73.0935 80.8951 72.5817 80.6824 72.4927 80.645C72.2539 80.5454 71.9599 80.4593 71.6864 80.3876C71.4565 80.3273 71.5279 80.8266 71.5386 81.0419L71.6261 81.7831C71.646 81.8234 71.6542 81.9014 71.6646 81.9586C71.7076 82.196 71.8542 82.7546 71.9426 82.971C72.0426 83.2157 72.1078 83.4207 72.242 83.6733L72.5007 84.1269C72.5358 84.1797 72.5616 84.2186 72.5967 84.2716C72.6744 84.3888 72.6547 84.3975 72.7159 84.4051C72.7288 84.4599 72.7172 84.4295 72.7463 84.4786C72.7877 84.5483 73.0388 84.8202 73.092 84.8737C73.1987 84.981 73.4387 85.2036 73.5748 85.2781C73.6834 85.4002 74.1738 85.6354 74.3465 85.7086C74.5074 85.7766 74.6402 85.8156 74.8262 85.8626C74.9845 85.9027 75.1931 86.0142 75.2252 85.8179C75.2995 85.3623 75.2706 84.648 75.2017 84.1826C75.195 84.1373 75.1898 84.016 75.1556 83.9869C75.1732 83.8584 74.9356 83.0357 74.857 82.9625Z" fill="url(#paint12_linear_2038_250)"/>
<path fill-rule="evenodd" clip-rule="evenodd" d="M56.843 84.1778C56.5614 84.2506 56.6035 84.2128 56.2673 84.3356C55.2479 84.7079 54.6137 85.5501 54.3913 86.6383C54.3452 86.8635 54.2703 87.7359 54.3197 87.9501C54.3344 88.014 54.3628 88.0423 54.4306 88.0407C54.5213 88.0389 54.8697 87.9299 54.9511 87.901L55.3516 87.7299C55.4961 87.6618 55.6034 87.5863 55.7368 87.5146L55.9725 87.3465C56.0901 87.2575 56.3148 87.0511 56.4002 86.9445L56.6121 86.6981C56.6789 86.6127 56.7414 86.5132 56.7983 86.4134C57.1964 85.7159 57.3059 85.1049 57.3042 84.3167C57.3039 84.1949 57.3028 84.2329 57.2673 84.1467C57.1394 84.1209 56.9414 84.1535 56.843 84.1778Z" fill="url(#paint13_linear_2038_250)"/>
<path fill-rule="evenodd" clip-rule="evenodd" d="M58.4073 82.6573C58.8274 82.7423 59.0917 82.7179 59.43 82.6744C59.7496 82.6333 59.9033 82.5677 60.173 82.4751C60.3272 82.4222 60.2885 82.3527 60.2338 82.2345C60.0918 81.9277 59.9372 81.6177 59.7173 81.3547L59.5446 81.1359C58.6051 80.0834 57.4626 79.8113 56.1383 80.2676C56.0728 80.2903 55.8195 80.3768 55.7841 80.405C55.6833 80.485 55.8019 80.6037 55.8714 80.7386C55.9223 80.8373 55.9977 80.973 56.0734 81.0492C56.4968 81.601 56.9408 82.0802 57.605 82.3948C57.9264 82.547 58.0506 82.5851 58.4073 82.6573Z" fill="url(#paint14_linear_2038_250)"/>
<path fill-rule="evenodd" clip-rule="evenodd" d="M68.9097 87.6548C69.3028 87.6169 69.1959 87.6619 69.6676 87.572C70.0299 87.5029 70.2233 87.3823 70.3598 87.347C70.4829 87.2589 70.7286 87.1904 71.086 86.8831C71.2003 86.7849 71.3053 86.6982 71.4048 86.5887C71.5054 86.4782 71.7724 86.186 71.8326 86.061C71.8706 85.9821 71.8104 85.923 71.7474 85.8765C71.6172 85.7808 71.503 85.6927 71.3556 85.6085C71.1044 85.4649 70.7176 85.2478 70.4256 85.1888C70.3253 85.1236 69.8657 85.053 69.7417 85.0452C69.4215 85.0253 69.4467 85.0251 69.1319 85.0474C68.2904 85.107 67.4366 85.6727 66.8843 86.2665C66.8188 86.337 66.7719 86.3899 66.7091 86.4631C66.6508 86.5309 66.5889 86.5874 66.5457 86.6671C66.4866 86.7283 66.3641 86.8549 66.4564 86.9416C66.593 87.0698 67.1795 87.3147 67.3784 87.3858C67.6318 87.4765 67.8526 87.5243 68.1475 87.5841C68.5821 87.6723 68.6912 87.6261 68.9097 87.6548Z" fill="url(#paint15_linear_2038_250)"/>
<path fill-rule="evenodd" clip-rule="evenodd" d="M86.5652 94.5478C86.662 94.433 86.7619 93.2469 86.7304 93.1533C86.7482 93.0551 86.7326 92.9135 86.7282 92.8172C86.7257 92.7601 86.7225 92.5459 86.6965 92.49C86.7274 92.2784 86.4964 91.2702 86.4406 91.063L86.3457 90.737C86.2886 90.5415 86.1697 90.6092 86.0754 90.673C85.908 90.7863 85.6788 90.9435 85.5421 91.0871C85.4089 91.1507 84.8638 91.7533 84.7331 91.8955L84.4374 92.2666C84.3911 92.3317 84.3282 92.39 84.2894 92.4707C84.1478 92.6314 83.9006 93.0635 83.7966 93.2657C83.6966 93.4599 83.5738 93.6691 83.5045 93.882C83.4799 93.9166 83.4289 94.0708 83.4073 94.1272C83.374 94.2145 83.3494 94.3017 83.3131 94.4039C83.2441 94.5983 83.2062 94.8032 83.1615 95.0241C83.0168 95.7393 83.0074 96.4547 83.1332 97.1333C83.1609 97.2827 83.3504 98.1557 83.4448 98.2333C83.5304 98.3038 83.6619 98.2171 83.7598 98.1555C83.9368 98.0441 84.0373 98.0031 84.2197 97.8644C84.321 97.7875 84.4504 97.716 84.5765 97.6067C85.1269 97.1306 85.5363 96.7534 85.93 96.0868C86.0165 95.9403 86.0944 95.8059 86.1709 95.6541C86.2254 95.546 86.3465 95.2984 86.3715 95.1747C86.4366 95.0835 86.5342 94.7009 86.5652 94.5478Z" fill="url(#paint16_linear_2038_250)"/>
<path fill-rule="evenodd" clip-rule="evenodd" d="M68.3324 83.1451C68.368 83.1919 68.5947 83.2823 68.6495 83.3055C68.8744 83.4004 69.2469 83.5075 69.4821 83.5236L69.7873 83.5438C69.8852 83.5318 69.8444 83.4979 69.8655 83.4935C69.8912 83.4881 69.8931 83.3689 69.893 83.3559C69.8881 82.1918 69.4569 80.8691 68.585 80.0695C68.4424 79.9388 68.0229 79.6086 67.8558 79.5576C67.7295 79.4744 67.2945 79.2938 67.1028 79.255C66.8119 79.1961 66.8875 79.1766 66.4669 79.1253C66.3684 79.1134 66.2132 79.0684 66.0887 79.0999C66.0276 79.2337 66.0744 79.4332 66.099 79.5793C66.205 80.2092 66.5027 81.0915 66.8454 81.6543C66.9121 81.7637 67.2674 82.2983 67.3459 82.3442C67.4179 82.4583 67.6705 82.6933 67.782 82.7834C67.886 82.8674 68.1906 83.1055 68.3324 83.1451Z" fill="url(#paint17_linear_2038_250)"/>
<path fill-rule="evenodd" clip-rule="evenodd" d="M75.576 94.1819C75.7589 94.3298 76.3574 94.5438 76.6053 94.6289C76.6973 94.6605 76.8989 94.7168 77.0069 94.7386C77.3097 94.7999 77.7383 94.8362 78.0311 94.8181L78.3547 94.7942C78.3587 94.7927 78.922 94.7082 79.2931 94.5634L79.7259 94.378C79.7793 94.3533 79.8147 94.3307 79.8151 94.2638C79.8155 94.1845 79.7147 94.0438 79.6821 93.977L79.4451 93.5924C79.3437 93.473 79.2596 93.3268 79.1257 93.1653C79.1048 93.14 79.0975 93.1258 79.0767 93.1005C79.0397 93.0555 79.0109 93.0211 78.9706 92.9764C78.8986 92.8965 78.8442 92.829 78.7679 92.7496C78.5592 92.5322 78.412 92.4087 78.1896 92.2164C78.0959 92.1352 77.5895 91.7861 77.4815 91.7612C77.3688 91.6666 76.9783 91.5133 76.8012 91.4565C76.5024 91.3606 76.4738 91.3584 76.1817 91.2975C76.0853 91.2775 76.0415 91.2844 75.9683 91.2713C75.639 91.2047 74.9764 91.245 74.6348 91.3108L74.5533 91.3394C74.3801 91.3031 73.4521 91.6393 73.2272 91.7442C73.1773 91.7675 73.1369 91.7934 73.1338 91.8613C73.1301 91.9429 73.3947 92.2921 73.4599 92.3674C73.8639 92.8331 74.2315 93.2687 74.7595 93.6446C74.9209 93.7595 75.4128 94.132 75.576 94.1819Z" fill="url(#paint18_linear_2038_250)"/>
<path fill-rule="evenodd" clip-rule="evenodd" d="M56.2171 82.8321C56.143 82.7636 56.0582 82.7175 55.9695 82.6601C55.7305 82.5054 55.4759 82.4007 55.2091 82.3032C55.1401 82.278 55.0825 82.2741 55.0138 82.2522C54.5895 82.1167 54.0727 82.1516 53.6678 82.2606C53.2016 82.3862 52.887 82.5941 52.528 82.8671C52.4867 82.8984 52.4523 82.9326 52.4137 82.967C52.2625 83.1017 51.8638 83.4442 51.8228 83.6468C51.8851 83.7097 52.1312 83.8832 52.2335 83.9137C52.3062 83.9822 52.7216 84.1475 52.8041 84.1767C53.4457 84.4037 54.082 84.4561 54.7421 84.2988C54.9193 84.2565 55.1011 84.1838 55.2559 84.11C55.4897 83.9986 55.7376 83.8533 55.9335 83.6865C56.1693 83.4858 56.2201 83.4332 56.426 83.2142C56.4747 83.1625 56.4805 83.1642 56.499 83.073C56.419 82.9922 56.3261 82.8853 56.2171 82.8321Z" fill="url(#paint19_linear_2038_250)"/>
<path fill-rule="evenodd" clip-rule="evenodd" d="M64.4747 86.6908C64.5375 86.6665 64.6207 86.6489 64.6939 86.6294C65.3082 86.4655 66.0116 86.0145 66.4131 85.5353C66.6454 85.258 67.1267 84.6221 67.2014 84.2525C67.1167 84.167 67.1654 84.1922 66.9932 84.1267C66.6719 84.0045 66.4983 83.9766 66.1414 83.9044C65.759 83.8271 65.1899 83.8635 64.9078 83.9389C64.6725 83.9486 64.252 84.1601 64.0314 84.2697C63.8797 84.3449 63.5468 84.5974 63.415 84.7226C63.1696 84.9555 63.102 85.0393 62.8815 85.3214C62.7434 85.4981 62.211 86.3793 62.2277 86.524C62.2459 86.6812 62.8643 86.7406 62.9553 86.752C63.2545 86.7891 63.4534 86.7955 63.7152 86.7876C63.9658 86.7805 64.251 86.7417 64.4747 86.6908Z" fill="url(#paint20_linear_2038_250)"/>
<path d="M139.544 101.681H132.137V123.057C132.111 123.088 132.093 123.13 132.09 123.179L131.984 125.867H131.01C130.388 125.867 129.883 125.362 129.883 124.74L129.861 99.0394C129.861 98.7093 130.118 98.6905 130.344 98.4845C130.544 98.302 130.718 99.4271 131.01 99.4271H140.671C141.293 99.4271 141.798 99.9317 141.798 100.554V124.74C141.798 125.362 141.293 125.867 140.671 125.867H139.547L139.544 123.613V123.413V122.984V101.681Z" fill="#372011"/>
<path d="M129.948 100.978C129.893 100.851 129.861 100.705 129.861 100.538V96.5845C129.861 96.3747 129.893 96.2006 129.952 96.0699C130.004 95.9551 130.079 95.8564 130.182 95.7736C130.328 95.6626 130.474 95.5798 130.62 95.5282C130.763 95.4765 130.913 95.453 131.072 95.453C131.23 95.453 131.38 95.4765 131.518 95.5282C131.669 95.5798 131.811 95.6626 131.954 95.7697C132.044 95.8487 132.112 95.9393 132.155 96.0464C132.215 96.1886 132.242 96.3664 132.242 96.5845V98.4387V99.368H133.172L141.588 99.3213H142.517V98.392V93.1432V92.2138H141.588H127.611H126.681V93.1432V97.5888C126.681 97.8183 126.654 98.0044 126.59 98.1428C126.547 98.2536 126.48 98.3403 126.389 98.4079L126.373 98.4117C126.234 98.5221 126.092 98.6018 125.946 98.6527C125.803 98.7005 125.649 98.7242 125.487 98.7242C125.332 98.7242 125.186 98.7005 125.048 98.6527C124.905 98.6018 124.763 98.5221 124.625 98.4117L124.609 98.4079C124.415 98.2613 124.316 97.9884 124.316 97.5888V91.0428C124.316 90.865 124.344 90.7105 124.395 90.5762C124.451 90.4456 124.534 90.315 124.648 90.1886V90.1925C124.779 90.0618 124.909 89.9713 125.04 89.9157C125.167 89.8603 125.317 89.8323 125.487 89.8323H143.688C143.857 89.8323 144.012 89.8603 144.146 89.9197C144.285 89.975 144.415 90.0661 144.534 90.1848C144.661 90.3109 144.752 90.4456 144.811 90.5921C144.87 90.7266 144.898 90.877 144.898 91.0428V100.492C144.898 100.666 144.87 100.812 144.815 100.943C144.759 101.074 144.668 101.204 144.538 101.331L144.542 101.335C144.411 101.461 144.277 101.556 144.135 101.615C144.004 101.671 143.854 101.702 143.688 101.702L131.032 101.749C130.894 101.749 130.759 101.722 130.636 101.666C130.498 101.607 130.363 101.508 130.233 101.377C130.102 101.247 130.008 101.112 129.948 100.978Z" fill="#372011"/>
<defs>
<linearGradient id="paint0_linear_2038_250" x1="14.96" y1="6.11999" x2="163.49" y2="191.662" gradientUnits="userSpaceOnUse">
<stop stop-color="#F0DB92"/>
<stop offset="1" stop-color="#BF9033"/>
</linearGradient>
<radialGradient id="paint1_radial_2038_250" cx="0" cy="0" r="1" gradientUnits="userSpaceOnUse" gradientTransform="translate(172.72 163.2) rotate(-143.271) scale(330.889 338.622)">
<stop stop-color="#F4EBCC"/>
<stop offset="1" stop-color="white"/>
</radialGradient>
<linearGradient id="paint2_linear_2038_250" x1="59.0063" y1="87.7581" x2="80.5262" y2="102.994" gradientUnits="userSpaceOnUse">
<stop stop-color="#F0DB92"/>
<stop offset="1" stop-color="#BF9033"/>
</linearGradient>
<linearGradient id="paint3_linear_2038_250" x1="84.1807" y1="98.3736" x2="88.4702" y2="99.9686" gradientUnits="userSpaceOnUse">
<stop stop-color="#F0DB92"/>
<stop offset="1" stop-color="#BF9033"/>
</linearGradient>
<linearGradient id="paint4_linear_2038_250" x1="75.0935" y1="96.717" x2="78.4621" y2="100.814" gradientUnits="userSpaceOnUse">
<stop stop-color="#F0DB92"/>
<stop offset="1" stop-color="#BF9033"/>
</linearGradient>
<linearGradient id="paint5_linear_2038_250" x1="59.3501" y1="77.0997" x2="61.5691" y2="83.5648" gradientUnits="userSpaceOnUse">
<stop stop-color="#F0DB92"/>
<stop offset="1" stop-color="#BF9033"/>
</linearGradient>
<linearGradient id="paint6_linear_2038_250" x1="72.3372" y1="97.7455" x2="74.7694" y2="106.245" gradientUnits="userSpaceOnUse">
<stop stop-color="#F0DB92"/>
<stop offset="1" stop-color="#BF9033"/>
</linearGradient>
<linearGradient id="paint7_linear_2038_250" x1="58.527" y1="84.0186" x2="61.6897" y2="86.5225" gradientUnits="userSpaceOnUse">
<stop stop-color="#F0DB92"/>
<stop offset="1" stop-color="#BF9033"/>
</linearGradient>
<linearGradient id="paint8_linear_2038_250" x1="77.0093" y1="83.5195" x2="79.9974" y2="84.2996" gradientUnits="userSpaceOnUse">
<stop stop-color="#F0DB92"/>
<stop offset="1" stop-color="#BF9033"/>
</linearGradient>
<linearGradient id="paint9_linear_2038_250" x1="80.6565" y1="87.2177" x2="84.0423" y2="88.0608" gradientUnits="userSpaceOnUse">
<stop stop-color="#F0DB92"/>
<stop offset="1" stop-color="#BF9033"/>
</linearGradient>
<linearGradient id="paint10_linear_2038_250" x1="68.8129" y1="85.5656" x2="70.2682" y2="91.4667" gradientUnits="userSpaceOnUse">
<stop stop-color="#F0DB92"/>
<stop offset="1" stop-color="#BF9033"/>
</linearGradient>
<linearGradient id="paint11_linear_2038_250" x1="50.7457" y1="85.8761" x2="53.5006" y2="87.682" gradientUnits="userSpaceOnUse">
<stop stop-color="#F0DB92"/>
<stop offset="1" stop-color="#BF9033"/>
</linearGradient>
<linearGradient id="paint12_linear_2038_250" x1="71.9016" y1="81.4662" x2="75.6492" y2="83.125" gradientUnits="userSpaceOnUse">
<stop stop-color="#F0DB92"/>
<stop offset="1" stop-color="#BF9033"/>
</linearGradient>
<linearGradient id="paint13_linear_2038_250" x1="54.6091" y1="84.8996" x2="57.4708" y2="86.3406" gradientUnits="userSpaceOnUse">
<stop stop-color="#F0DB92"/>
<stop offset="1" stop-color="#BF9033"/>
</linearGradient>
<linearGradient id="paint14_linear_2038_250" x1="54.8461" y1="77.9678" x2="56.7179" y2="83.6251" gradientUnits="userSpaceOnUse">
<stop stop-color="#F0DB92"/>
<stop offset="1" stop-color="#BF9033"/>
</linearGradient>
<linearGradient id="paint15_linear_2038_250" x1="66.9753" y1="85.543" x2="69.2646" y2="88.6407" gradientUnits="userSpaceOnUse">
<stop stop-color="#F0DB92"/>
<stop offset="1" stop-color="#BF9033"/>
</linearGradient>
<linearGradient id="paint16_linear_2038_250" x1="83.4216" y1="92.1023" x2="87.4355" y2="93.3713" gradientUnits="userSpaceOnUse">
<stop stop-color="#F0DB92"/>
<stop offset="1" stop-color="#BF9033"/>
</linearGradient>
<linearGradient id="paint17_linear_2038_250" x1="66.4492" y1="79.959" x2="69.9274" y2="81.92" gradientUnits="userSpaceOnUse">
<stop stop-color="#F0DB92"/>
<stop offset="1" stop-color="#BF9033"/>
</linearGradient>
<linearGradient id="paint18_linear_2038_250" x1="71.8099" y1="88.4231" x2="74.1581" y2="96.1748" gradientUnits="userSpaceOnUse">
<stop stop-color="#F0DB92"/>
<stop offset="1" stop-color="#BF9033"/>
</linearGradient>
<linearGradient id="paint19_linear_2038_250" x1="52.2991" y1="82.5986" x2="54.2301" y2="85.2568" gradientUnits="userSpaceOnUse">
<stop stop-color="#F0DB92"/>
<stop offset="1" stop-color="#BF9033"/>
</linearGradient>
<linearGradient id="paint20_linear_2038_250" x1="62.7339" y1="84.4335" x2="65.3918" y2="87.3899" gradientUnits="userSpaceOnUse">
<stop stop-color="#F0DB92"/>
<stop offset="1" stop-color="#BF9033"/>
</linearGradient>
</defs>
</svg>
