<svg width="1019" height="6" viewBox="0 0 1019 6" fill="none" xmlns="http://www.w3.org/2000/svg">
<path d="M0.333333 3C0.333333 4.47276 1.52724 5.66667 3 5.66667C4.47276 5.66667 5.66667 4.47276 5.66667 3C5.66667 1.52724 4.47276 0.333333 3 0.333333C1.52724 0.333333 0.333333 1.52724 0.333333 3ZM1013.33 3C1013.33 4.47276 1014.53 5.66667 1016 5.66667C1017.47 5.66667 1018.67 4.47276 1018.67 3C1018.67 1.52724 1017.47 0.333333 1016 0.333333C1014.53 0.333333 1013.33 1.52724 1013.33 3ZM3 3.5H1016V2.5H3V3.5Z" fill="#372011"/>
</svg>
