<svg width="359" height="309" viewBox="0 0 359 309" fill="none" xmlns="http://www.w3.org/2000/svg">
<path d="M278.739 85.491L242.447 102.707L308.594 118.064L283.467 86.5726C282.917 85.8845 282.15 85.4029 281.292 85.2065C280.433 85.0101 279.533 85.1104 278.739 85.491Z" fill="#E0E0E0"/>
<path d="M242.762 102.787L308.527 118.055C308.613 118.075 308.687 118.128 308.733 118.202C308.78 118.277 308.795 118.367 308.775 118.452L300.054 156.015C300.007 156.221 299.879 156.399 299.7 156.51C299.521 156.622 299.305 156.658 299.1 156.61L234.248 141.554C234.042 141.507 233.864 141.379 233.753 141.2C233.641 141.021 233.605 140.805 233.653 140.6L242.373 103.037C242.393 102.953 242.444 102.88 242.517 102.833C242.589 102.786 242.677 102.77 242.762 102.787Z" fill="#E0E0E0"/>
<path d="M304.303 118.019L273.259 128.46L245.924 105.773L250.742 87.6093C250.982 86.6632 251.587 85.8505 252.424 85.3482C253.261 84.8459 254.263 84.6948 255.211 84.9277L305.501 96.5928C306.461 96.8181 307.292 97.4155 307.812 98.2537C308.332 99.0918 308.497 100.102 308.272 101.062L304.303 118.019Z" fill="white"/>
<path d="M271.292 125.385L234.134 138.346C234.044 138.734 234.031 139.136 234.096 139.529C234.162 139.922 234.304 140.298 234.515 140.636C234.725 140.974 235.001 141.267 235.325 141.498C235.649 141.729 236.016 141.895 236.404 141.984L296.947 156.036C297.335 156.126 297.737 156.139 298.129 156.073C298.522 156.008 298.899 155.866 299.236 155.655C299.574 155.444 299.867 155.169 300.099 154.844C300.33 154.52 300.495 154.154 300.585 153.765L300.638 153.542L274.653 126.234C274.234 125.784 273.694 125.465 273.098 125.315C272.502 125.164 271.875 125.188 271.292 125.385Z" fill="#E0E0E0"/>
<path d="M275.388 98.2227L255.717 93.6597L255.251 95.6711L274.921 100.234L275.388 98.2227Z" fill="#E0E0E0"/>
<path d="M298.192 108.886L254.541 98.7603L254.014 101.033L297.665 111.159L298.192 108.886Z" fill="#F5F5F5"/>
<path d="M296.901 114.423L253.25 104.297L252.723 106.57L296.374 116.695L296.901 114.423Z" fill="#F5F5F5"/>
<path d="M294.381 121.371L292.549 121.97L255.694 113.88L251.958 110.716L252.029 110.18L295.534 120.272L295.365 121.022L294.381 121.371Z" fill="#F5F5F5"/>
<path d="M281.742 125.599L265.232 121.773L261.281 118.466L285.952 124.187L281.742 125.599Z" fill="#F5F5F5"/>
<path d="M269.934 125.858C269.49 126.091 269.027 126.283 268.548 126.43L264.696 127.816C261.442 128.969 256.946 130.498 251.967 132.223C246.988 133.948 242.465 135.432 239.184 136.505L235.305 137.756C234.835 137.932 234.351 138.064 233.857 138.149C234.303 137.924 234.767 137.732 235.242 137.577L239.086 136.192C242.34 135.039 246.836 133.51 251.815 131.785C256.794 130.06 261.308 128.576 264.588 127.503L268.477 126.261C268.952 126.091 269.439 125.956 269.934 125.858Z" fill="#EBEBEB"/>
<path d="M300.639 153.542C300.549 153.632 294.936 147.884 288.124 140.715C281.313 133.546 275.824 127.655 275.923 127.566C276.021 127.477 281.626 133.215 288.437 140.393C295.248 147.571 300.737 153.453 300.639 153.542Z" fill="#EBEBEB"/>
<path d="M305.814 117.51C305.454 117.711 305.077 117.881 304.688 118.019C303.955 118.314 302.9 118.734 301.559 119.235C298.878 120.236 295.231 121.568 291.146 122.971C287.061 124.375 283.324 125.573 280.616 126.404C279.257 126.815 278.158 127.146 277.398 127.351C277.01 127.49 276.608 127.586 276.2 127.637C276.567 127.451 276.95 127.299 277.344 127.182L280.517 126.091L290.994 122.515L301.452 118.94L304.625 117.867C305.009 117.711 305.407 117.591 305.814 117.51Z" fill="#EBEBEB"/>
<path d="M269.933 125.859C269.537 125.592 269.163 125.293 268.816 124.965L265.866 122.498L256.034 114.453C252.19 111.315 248.739 108.437 246.299 106.283C245.075 105.21 244.091 104.334 243.43 103.708C243.067 103.405 242.734 103.067 242.438 102.698C242.831 102.969 243.204 103.268 243.555 103.592L246.505 106.059L256.337 114.104C260.181 117.242 263.632 120.129 266.072 122.274C267.296 123.347 268.28 124.232 268.941 124.858C269.302 125.16 269.635 125.495 269.933 125.859Z" fill="#EBEBEB"/>
<path d="M304.303 118.019C304.295 117.933 304.295 117.846 304.303 117.76C304.303 117.572 304.393 117.322 304.455 117.018C304.598 116.339 304.804 115.391 305.063 114.193L307.405 103.798C307.53 103.243 307.655 102.68 307.781 102.108C307.937 101.539 308.05 100.96 308.12 100.374C308.154 99.7662 308.029 99.1601 307.756 98.6159C307.483 98.0717 307.072 97.6085 306.565 97.2723C306.022 96.9292 305.413 96.7039 304.777 96.6108L302.748 96.146L298.511 95.1716L279.659 90.8184L260.807 86.4205L256.57 85.4283C255.911 85.2501 255.243 85.1098 254.568 85.0082C253.94 84.9673 253.312 85.0959 252.751 85.3805C252.189 85.6651 251.715 86.0953 251.377 86.6261C251.075 87.1566 250.863 87.7336 250.751 88.3334C250.429 89.5134 250.125 90.6486 249.857 91.7391L247.05 102.019C246.719 103.208 246.46 104.137 246.264 104.808C246.18 105.106 246.109 105.347 246.049 105.532C246.033 105.617 246.003 105.698 245.96 105.773C245.96 105.773 245.96 105.684 246.004 105.514L246.174 104.781C246.344 104.11 246.576 103.172 246.88 101.974C247.515 99.507 248.418 95.9851 249.562 91.6587C249.848 90.5682 250.143 89.424 250.456 88.2441C250.576 87.6157 250.8 87.0116 251.117 86.4563C251.481 85.8739 251.993 85.3988 252.601 85.0797C253.23 84.7463 253.938 84.5946 254.648 84.6417C255.346 84.7408 256.039 84.8781 256.722 85.0529L260.959 86.0272L279.811 90.3894L298.663 94.7604L302.891 95.7527L304.92 96.2264C305.61 96.3305 306.271 96.577 306.86 96.9505C307.418 97.3269 307.868 97.8424 308.166 98.4459C308.463 99.0494 308.599 99.7201 308.558 100.392C308.484 100.996 308.365 101.594 308.201 102.18C308.067 102.752 307.932 103.315 307.798 103.86C306.761 108.213 305.912 111.744 305.322 114.22L304.625 117.036C304.545 117.331 304.482 117.572 304.428 117.76C304.4 117.852 304.358 117.94 304.303 118.019Z" fill="#E0E0E0"/>
<path d="M218.67 11.5132L280.572 0L289.823 41.8337L225.535 52.6943L218.67 11.5132Z" fill="#EBEBEB"/>
<path d="M280.572 0C280.572 0 280.572 0.0625758 280.464 0.17878L280.116 0.66147L278.739 2.50287L273.635 9.24274C269.166 14.9368 263.105 22.7761 256.365 31.4825L256.249 31.6345L256.07 31.5451L254.873 30.9104L229.227 17.2787L221.477 13.1043L219.386 11.9423L218.849 11.6294C218.784 11.5996 218.724 11.5604 218.67 11.5132C218.74 11.5281 218.807 11.5553 218.867 11.5936L219.43 11.8618L221.567 12.9434L229.379 16.9927C235.994 20.461 245.067 25.2343 255.087 30.5082L256.294 31.1428L255.999 31.2054L273.331 9.04608L278.596 2.3956L280.044 0.60784L280.429 0.151958C280.469 0.0948948 280.517 0.0437494 280.572 0Z" fill="#E0E0E0"/>
<path d="M225.534 52.6943C225.427 52.6228 229.405 46.312 234.419 38.5978C239.434 30.8836 243.6 24.6801 243.707 24.7516C243.814 24.8231 239.836 31.1339 234.813 38.8481C229.789 46.5623 225.642 52.7658 225.534 52.6943Z" fill="#E0E0E0"/>
<path d="M289.823 41.8335C289.742 41.9319 283.95 37.4982 276.888 31.9383C269.827 26.3783 264.168 21.7659 264.24 21.6497C264.311 21.5335 270.113 25.985 277.174 31.5539C284.236 37.1228 289.894 41.7352 289.823 41.8335Z" fill="#E0E0E0"/>
<path d="M317.944 40.4395L359 50.3884L353.181 78.5278L310.847 67.533L317.944 40.4395Z" fill="#F5F5F5"/>
<path d="M359 50.3884C358.858 50.5016 358.705 50.6004 358.544 50.6833L357.203 51.4431L352.215 54.1248L335.571 63.0636L335.401 63.153L335.285 63.001L334.722 62.2859L322.797 46.9022C321.313 44.9536 320.116 43.3267 319.222 42.2004L318.265 40.9132C318.148 40.7642 318.043 40.6057 317.952 40.4395C318.098 40.559 318.227 40.6972 318.337 40.8506L319.365 42.0931C320.259 43.2284 321.519 44.7748 323.057 46.6966C326.167 50.6655 330.413 56.0556 335.097 62.0178L335.66 62.7329L335.365 62.6703L352.072 53.8834L357.131 51.2822L358.508 50.6029C358.66 50.5077 358.826 50.4354 359 50.3884Z" fill="#E0E0E0"/>
<path d="M310.847 67.5324C310.775 67.4251 314.923 64.6184 320.116 61.2752C325.31 57.9321 329.574 55.3041 329.636 55.4114C329.699 55.5186 325.56 58.3254 320.367 61.6685C315.173 65.0117 310.918 67.6397 310.847 67.5324Z" fill="#E0E0E0"/>
<path d="M353.19 78.5275C353.083 78.5901 350.723 74.2995 347.925 68.9541C345.127 63.6086 342.946 59.1929 343.054 59.1929C343.161 59.1929 345.53 63.4209 348.327 68.7663C351.125 74.1118 353.288 78.4739 353.19 78.5275Z" fill="#E0E0E0"/>
<path d="M275.244 291.289L276.237 291.647C276.88 291.897 277.863 292.228 279.168 292.594C282.978 293.657 286.942 294.059 290.887 293.783C293.735 293.586 296.56 293.132 299.326 292.424C302.621 291.617 305.833 290.497 308.917 289.081C316.417 285.534 323.083 280.441 328.475 274.136C330.039 272.393 331.253 270.366 332.051 268.164C332.865 265.86 332.743 263.327 331.711 261.112C331.135 260.011 330.273 259.084 329.217 258.43C328.128 257.766 326.908 257.345 325.641 257.196C323.015 256.883 320.354 257.317 317.963 258.448C316.702 259 315.402 259.46 314.075 259.825C312.689 260.187 311.23 260.149 309.864 259.717C309.151 259.514 308.5 259.136 307.97 258.618C307.439 258.099 307.046 257.458 306.825 256.75C306.653 256.023 306.639 255.269 306.782 254.537C306.925 253.804 307.224 253.111 307.657 252.504C308.512 251.271 309.694 250.302 311.071 249.706C312.426 249.106 313.821 248.601 315.246 248.195C321.033 246.333 326.482 243.547 331.38 239.945C332.655 239.061 333.814 238.022 334.831 236.852C335.896 235.726 336.529 234.26 336.618 232.713C336.605 231.951 336.379 231.208 335.966 230.568C335.537 229.924 334.965 229.389 334.294 229.003C332.899 228.242 331.35 227.808 329.762 227.734C328.115 227.66 326.479 227.435 324.873 227.064C324.031 226.866 323.249 226.47 322.59 225.911C321.931 225.352 321.415 224.644 321.083 223.846C320.933 223.42 320.884 222.966 320.938 222.518C320.992 222.07 321.149 221.64 321.395 221.262C321.918 220.57 322.575 219.989 323.326 219.555C324.721 218.661 326.097 217.687 327.429 216.668C330.12 214.613 332.648 212.354 334.991 209.91C337.316 207.434 339.675 204.86 341.132 201.749C341.891 200.215 342.254 198.516 342.187 196.806C342.083 195.093 341.399 193.466 340.247 192.193C339.086 190.932 337.621 189.989 335.993 189.454C334.364 188.919 332.625 188.81 330.942 189.136C327.593 189.863 324.555 191.62 322.254 194.16C317.543 199.121 315.219 205.664 311.357 211.09C310.406 212.457 309.332 213.735 308.148 214.907C307.57 215.519 306.908 216.046 306.182 216.471C305.799 216.705 305.363 216.836 304.915 216.852C304.467 216.868 304.023 216.767 303.625 216.561C303.266 216.31 302.962 215.989 302.732 215.617C302.501 215.245 302.349 214.83 302.284 214.397C302.173 213.576 302.173 212.743 302.284 211.921C302.39 211.147 302.36 210.361 302.195 209.597C302.003 208.858 301.614 208.184 301.069 207.649C300.52 207.115 299.871 206.696 299.159 206.415C298.447 206.134 297.686 205.997 296.921 206.013C295.389 206.11 293.94 206.743 292.827 207.801C291.702 208.826 290.817 210.086 290.235 211.492C289.671 212.899 289.298 214.375 289.126 215.881C288.939 217.383 288.885 218.885 288.831 220.351C288.778 221.817 288.733 223.345 288.688 224.82C288.587 227.8 288.489 230.726 288.393 233.598C288.34 235.037 288.313 236.458 288.241 237.898C288.187 239.328 287.913 240.742 287.428 242.09C287.193 242.776 286.809 243.402 286.303 243.923C285.798 244.444 285.184 244.846 284.505 245.102C283.139 245.499 281.678 245.405 280.375 244.834C277.883 243.775 275.69 242.117 273.993 240.007C273.164 238.993 272.45 237.89 271.865 236.718C271.331 235.569 270.734 234.45 270.078 233.366C269.472 232.323 268.525 231.521 267.396 231.095C266.258 230.753 265.034 230.839 263.955 231.336C262.883 231.804 261.946 232.533 261.228 233.455C260.548 234.378 260.072 235.435 259.834 236.557C259.484 238.766 259.287 240.997 259.244 243.234C259.092 245.415 259.02 247.552 258.994 249.616C258.95 253.52 259.186 257.421 259.7 261.29C260.129 264.656 260.856 267.976 261.872 271.213C262.283 272.723 262.891 274.1 263.383 275.441C263.66 276.093 263.964 276.719 264.276 277.336C264.589 277.952 264.822 278.56 265.17 279.123C267.012 282.622 269.396 285.808 272.232 288.563C272.641 288.995 273.08 289.399 273.546 289.77L274.538 290.61L275.325 291.298L274.502 290.646L273.501 289.823C273.029 289.459 272.584 289.062 272.169 288.634C269.3 285.894 266.886 282.714 265.018 279.213C264.69 278.633 264.391 278.036 264.124 277.425C263.838 276.808 263.517 276.183 263.231 275.521C262.73 274.18 262.113 272.839 261.693 271.293C260.66 268.044 259.921 264.708 259.485 261.326C258.947 257.45 258.696 253.539 258.734 249.625C258.734 247.552 258.824 245.415 258.967 243.225C259.01 240.968 259.204 238.716 259.548 236.485C259.796 235.319 260.29 234.219 260.996 233.258C261.744 232.288 262.725 231.523 263.847 231.033C265.003 230.494 266.317 230.398 267.539 230.764C268.753 231.216 269.778 232.067 270.444 233.178C271.102 234.274 271.698 235.405 272.232 236.566C272.803 237.71 273.502 238.787 274.315 239.775C275.984 241.833 278.133 243.45 280.572 244.485C281.794 245.015 283.161 245.106 284.442 244.745C285.067 244.505 285.63 244.131 286.094 243.649C286.557 243.167 286.909 242.589 287.124 241.956C288.107 239.372 287.893 236.458 288.018 233.589C288.143 230.72 288.206 227.779 288.304 224.82C288.349 223.336 288.393 221.843 288.447 220.351C288.501 218.858 288.545 217.32 288.742 215.801C288.914 214.267 289.293 212.764 289.868 211.331C290.467 209.865 291.383 208.549 292.55 207.479C293.745 206.366 295.291 205.706 296.921 205.611C297.747 205.596 298.569 205.746 299.336 206.053C300.104 206.36 300.802 206.818 301.39 207.398C301.993 207.99 302.423 208.735 302.633 209.553C302.815 210.362 302.851 211.198 302.74 212.02C302.633 212.8 302.633 213.591 302.74 214.371C302.788 214.742 302.912 215.099 303.106 215.42C303.3 215.74 303.559 216.016 303.866 216.23C304.195 216.401 304.564 216.482 304.934 216.465C305.305 216.448 305.664 216.333 305.976 216.132C306.664 215.726 307.293 215.226 307.844 214.648C309 213.49 310.053 212.234 310.991 210.893C312.838 208.116 314.542 205.246 316.095 202.294C317.68 199.262 319.641 196.442 321.932 193.901C324.298 191.288 327.424 189.484 330.871 188.743C332.634 188.401 334.455 188.517 336.16 189.078C337.866 189.64 339.399 190.629 340.614 191.952C341.832 193.303 342.557 195.026 342.67 196.842C342.74 198.629 342.362 200.405 341.57 202.008C340.069 205.208 337.682 207.801 335.313 210.295C332.954 212.756 330.408 215.03 327.697 217.097C326.357 218.125 324.971 219.09 323.568 220.002C322.873 220.402 322.265 220.937 321.78 221.575C321.568 221.894 321.434 222.259 321.387 222.639C321.341 223.019 321.383 223.404 321.512 223.765C321.822 224.492 322.3 225.135 322.906 225.643C323.511 226.151 324.228 226.509 324.998 226.688C326.577 227.056 328.187 227.274 329.807 227.341C331.461 227.427 333.074 227.885 334.527 228.682C335.244 229.108 335.855 229.692 336.314 230.389C336.77 231.1 337.021 231.923 337.038 232.767C336.964 234.431 336.302 236.014 335.17 237.236C334.116 238.434 332.914 239.494 331.595 240.392C326.657 244.016 321.166 246.82 315.335 248.696C313.925 249.091 312.544 249.586 311.205 250.18C309.891 250.748 308.766 251.678 307.96 252.861C307.557 253.419 307.277 254.058 307.139 254.733C307.002 255.408 307.011 256.105 307.165 256.776C307.371 257.418 307.733 257.999 308.218 258.466C308.703 258.934 309.296 259.275 309.945 259.458C311.24 259.87 312.626 259.904 313.94 259.556C315.25 259.2 316.532 258.749 317.775 258.207C320.231 257.06 322.958 256.621 325.65 256.937C326.965 257.106 328.229 257.551 329.36 258.242C330.472 258.93 331.377 259.906 331.979 261.067C333.051 263.371 333.173 266.004 332.319 268.397C331.507 270.639 330.268 272.704 328.672 274.475C323.249 280.799 316.546 285.899 309.006 289.439C305.905 290.853 302.675 291.966 299.361 292.764C296.582 293.459 293.746 293.905 290.887 294.096C286.921 294.347 282.942 293.912 279.124 292.809C278.133 292.528 277.158 292.197 276.201 291.817L275.244 291.289Z" fill="white"/>
<path d="M280.241 280.384C283.552 270.863 287.405 261.539 291.781 252.459C292.926 250.046 294.061 247.65 295.187 245.308C296.313 242.966 297.413 240.633 298.646 238.416C301.014 234.177 303.614 230.071 306.432 226.116C309.114 222.326 311.795 218.822 314.289 215.569C316.783 212.315 319.224 209.311 321.539 206.701C325.172 202.537 329.13 198.666 333.374 195.126C334.875 193.874 336.055 192.936 336.887 192.319L337.825 191.613C337.929 191.528 338.039 191.454 338.156 191.389L337.861 191.657L336.967 192.399C336.172 193.052 335.001 194.008 333.517 195.286C329.338 198.882 325.433 202.785 321.834 206.961C319.545 209.598 317.159 212.592 314.683 215.846C312.207 219.099 309.534 222.621 306.879 226.411C304.084 230.356 301.506 234.45 299.156 238.675C297.931 240.874 296.832 243.19 295.714 245.54L292.318 252.692C287.945 261.751 284.086 271.051 280.76 280.545" fill="white"/>
<path d="M298.798 238.398C298.677 237.984 298.599 237.559 298.565 237.129C298.44 236.315 298.297 235.126 298.154 233.652C297.85 230.711 297.573 226.644 297.26 222.147C296.947 217.651 296.635 213.593 296.295 210.67C296.125 209.204 295.973 207.988 295.857 207.202C295.767 206.782 295.731 206.352 295.75 205.923C295.898 206.326 296.006 206.742 296.071 207.166C296.241 207.979 296.447 209.159 296.67 210.616C297.117 213.539 297.511 217.615 297.797 222.112C298.083 226.608 298.324 230.559 298.512 233.625C298.61 235.001 298.69 236.172 298.753 237.111C298.815 237.537 298.83 237.969 298.798 238.398Z" fill="white"/>
<path d="M336.824 232.802C336.325 232.89 335.819 232.928 335.313 232.919C334.339 232.972 332.936 233.035 331.193 233.169C327.724 233.41 322.942 233.902 317.686 234.689C313.029 235.386 308.497 236.217 304.278 237.156C302.579 237.531 301.212 237.862 300.264 238.05C299.777 238.198 299.277 238.303 298.771 238.362C299.231 238.138 299.713 237.964 300.211 237.844C301.104 237.558 302.499 237.165 304.197 236.744C307.576 235.851 312.314 234.903 317.606 234.108C322.102 233.423 326.631 232.969 331.175 232.749C332.918 232.659 334.33 232.659 335.304 232.677C335.814 232.664 336.323 232.706 336.824 232.802Z" fill="white"/>
<path d="M280.733 279.704C280.631 279.561 280.55 279.405 280.491 279.24L279.901 277.845C279.392 276.638 278.695 274.868 277.872 272.669C276.219 268.272 274.127 262.131 271.91 255.319C269.693 248.508 267.655 242.349 266.091 237.933C265.331 235.779 264.697 234.009 264.232 232.695C264.035 232.123 263.865 231.658 263.731 231.265C263.661 231.102 263.613 230.931 263.588 230.755C263.693 230.9 263.774 231.06 263.829 231.229L264.428 232.615C264.938 233.83 265.626 235.6 266.449 237.799C268.102 242.188 270.203 248.338 272.42 255.149C274.637 261.961 277.56 269.094 279.124 273.519C279.884 275.673 279.624 276.451 280.089 277.765C280.295 278.337 280.456 278.81 280.59 279.195C280.658 279.358 280.706 279.529 280.733 279.704Z" fill="white"/>
<path d="M331.523 265.483C331.362 265.566 331.191 265.629 331.014 265.671L329.539 266.1L324.104 267.628C319.51 268.924 313.19 270.793 306.227 272.857C299.692 274.788 293.614 276.54 288.277 277.926C285.971 278.534 284.094 278.998 282.789 279.293L281.287 279.624C281.116 279.675 280.939 279.702 280.76 279.705C280.921 279.62 281.092 279.556 281.269 279.517L282.744 279.088L288.179 277.559C292.774 276.263 299.093 274.395 306.057 272.33C313.02 270.265 319.385 268.46 324.006 267.262C326.312 266.654 328.189 266.189 329.485 265.894L330.987 265.563C331.161 265.512 331.342 265.485 331.523 265.483Z" fill="white"/>
<path d="M184.05 73.8616C184.05 73.8616 183.532 71.3766 182.665 64.1898L174.763 48.6988C174.763 48.6988 176.551 45.454 180.582 52.319C182.441 55.4476 188.627 54.1068 187.626 49.2262C186.625 44.3456 180.225 42.0752 176.309 46.9379C176.309 46.9379 173.78 47.1971 173.485 45.2216C173.19 43.2461 178.902 38.3656 183.764 39.7868C185.746 40.4108 187.574 41.4465 189.128 42.826C189.128 42.826 188.073 26.5395 189.396 26.3965C190.719 26.2535 192.551 27.2904 193.552 45.1054C193.552 45.1054 194.107 31.0089 194.384 29.2122C194.661 27.4155 197.065 26.1998 197.387 30.7139C197.387 31.2145 198.281 45.0697 198.281 45.0697C198.281 45.0697 199.863 35.9074 200.069 35.1744C200.516 33.2436 202.42 33.4492 202.607 36.0057C202.741 37.9454 203.367 46.2228 203.367 46.2228L204.565 71.7073H204.726" fill="#FFBE9D"/>
<path d="M209.329 65.4504L179.652 64.6816L176.702 136.496L143.128 121.765L143.075 121.881C141.054 120.987 139.294 120.183 138.355 119.664C119.807 109.554 107.632 108.321 87.7255 115.427L49.5925 130.695C42.209 134.172 22.9995 137.381 16.4116 167.755L15.5177 171.384L46.0348 193.275L66.9606 248.428L91.9893 303.634L149.6 301.766L179.706 264.223L154.159 215.426L138.283 160.774C149.502 168.22 170.32 178.357 195.251 173.074C222.29 167.353 209.329 65.4504 209.329 65.4504Z" fill="#E6A371"/>
<g opacity="0.3">
<path d="M66.764 247.865C71.3438 250.653 76.2857 252.798 81.4505 254.238C84.2572 255.078 87.4752 255.695 89.9691 254.158C92.4631 252.62 92.8475 248.07 90.0585 247.158L114.238 241.697C110.957 232.257 116.365 221.486 124.544 215.774C132.724 210.062 142.02 208.4 151.978 207.533L164.036 244.942L123.731 299.915L90.729 300.872L66.764 247.865Z" fill="black"/>
</g>
<path d="M54.1156 196.19C54.1156 196.19 39.0001 229.263 42.4951 245.746C44.4259 254.971 74.6123 262.846 93.8486 265.197L88.0831 297.484C88.0831 297.484 16.5726 290.682 3.20904 262.372C-4.38895 246.283 3.30736 206.952 17.7793 162.437L54.1156 196.19Z" fill="#E6A371"/>
<path d="M122.962 234.921C122.803 235.033 122.633 235.126 122.453 235.198L120.942 235.896C119.628 236.504 117.706 237.335 115.32 238.336C110.546 240.32 103.86 242.877 96.3425 245.29C88.825 247.704 81.8974 249.51 76.8559 250.654C74.3352 251.235 72.2882 251.673 70.8669 251.941L69.2311 252.245C69.0445 252.295 68.8523 252.322 68.659 252.325C68.8367 252.248 69.0227 252.191 69.2132 252.155L70.8311 251.762C72.2435 251.44 74.2726 250.949 76.7844 250.332C81.7991 249.089 88.6909 247.23 96.1995 244.826C103.708 242.421 110.394 239.918 115.194 238.005C117.599 237.058 119.53 236.271 120.871 235.717L122.408 235.091C122.586 235.015 122.772 234.958 122.962 234.921Z" fill="white"/>
<path d="M142.869 120.701C142.869 120.817 114.739 131.034 79.9487 143.513C45.1589 155.991 16.9032 166.012 16.8586 165.86C16.8139 165.708 44.989 155.526 79.7878 143.048C114.587 130.569 142.824 120.576 142.869 120.701Z" fill="white"/>
<path d="M46.7678 212.941C46.783 212.873 46.8071 212.807 46.8393 212.744L47.0717 212.19L47.9656 210.054C48.7522 208.194 49.8695 205.486 51.0048 202.062C52.3424 198.048 53.2591 193.904 53.74 189.7C54.3325 184.566 53.9565 179.366 52.6316 174.37C51.3312 169.361 48.7639 164.772 45.1767 161.042C42.1938 158.056 38.527 155.844 34.4948 154.597C31.7734 153.767 28.9185 153.463 26.0833 153.703L24.7515 153.873C24.3671 153.927 24.0542 154.007 23.7861 154.052L23.1961 154.168H22.9905C22.9905 154.168 23.0531 154.168 23.1782 154.106L23.7682 153.945C24.0274 153.882 24.3492 153.784 24.7336 153.712L26.0655 153.507C28.9273 153.192 31.8231 153.451 34.5842 154.267C38.6949 155.482 42.4393 157.7 45.4806 160.72C49.1378 164.49 51.7556 169.144 53.0786 174.227C54.4196 179.278 54.7896 184.538 54.1691 189.727C53.6569 193.949 52.698 198.105 51.3087 202.125C50.1288 205.549 48.9667 208.239 48.1265 210.081C47.6974 210.974 47.3577 211.707 47.1164 212.181L46.8393 212.726C46.8125 212.861 46.7767 212.941 46.7678 212.941Z" fill="black"/>
<path d="M118.591 113.255C118.77 113.308 118.941 113.383 119.101 113.478C119.581 113.717 120.044 113.988 120.486 114.292C122.128 115.401 123.585 116.761 124.804 118.323C126.592 120.653 128.02 123.238 129.041 125.993C130.256 129.353 131.291 132.775 132.142 136.246L137.121 155.017L138.569 160.729L138.945 162.284C139 162.464 139.033 162.65 139.043 162.839C138.961 162.67 138.898 162.493 138.855 162.311C138.739 161.909 138.587 161.417 138.4 160.774L136.8 155.106L131.695 136.335C130.712 132.67 129.809 129.184 128.638 126.109C127.649 123.386 126.27 120.82 124.544 118.493C123.366 116.935 121.966 115.559 120.388 114.408C119.262 113.639 118.564 113.291 118.591 113.255Z" fill="black"/>
<path d="M168.023 132.491L167.63 132.679L166.441 133.197L161.9 135.11C157.931 136.791 152.166 139.169 145.033 142.083C130.73 147.902 110.976 155.759 88.9772 164.054C66.9788 172.349 46.9648 179.527 32.3677 184.613C25.0915 187.143 19.1919 189.154 15.1068 190.522L10.3961 192.086L9.17145 192.48L8.74239 192.605L9.15357 192.435L10.3693 191.997L15.0442 190.352L32.2604 184.301C46.786 179.17 66.8089 171.947 88.8163 163.652C110.824 155.357 130.614 147.562 144.907 141.805L161.829 134.976L166.432 133.117L167.639 132.643L168.023 132.491Z" fill="white"/>
<path d="M141.85 168.13L141.51 168.291L140.491 168.729L136.549 170.365C133.126 171.786 128.156 173.78 121.988 176.202C109.652 181.038 92.4897 187.465 73.3874 194.008C54.2852 200.551 36.7383 205.959 24.0541 209.687C17.6986 211.546 12.5409 213.012 8.96538 213.987L4.85352 215.104L3.78086 215.381C3.66157 215.42 3.53883 215.446 3.41437 215.461C3.52716 215.411 3.64371 215.369 3.76298 215.336L4.8267 215.014L8.92068 213.835C12.4962 212.807 17.6182 211.287 23.9647 209.365C36.6489 205.566 54.1153 200.105 73.2355 193.57C92.3556 187.036 109.509 180.654 121.872 175.889C128.048 173.512 133.036 171.563 136.478 170.195L140.455 168.64L141.492 168.247L141.85 168.13Z" fill="white"/>
<path d="M211.734 137.184C211.574 137.348 211.401 137.497 211.215 137.631L209.651 138.847C208.971 139.374 208.131 140.009 207.139 140.715C206.147 141.421 205.029 142.252 203.751 143.102C201.221 144.845 198.138 146.82 194.642 148.894C191.147 150.968 187.214 153.104 183.022 155.151C178.83 157.198 174.7 158.977 170.928 160.514C167.156 162.052 163.687 163.196 160.755 164.135C159.298 164.617 157.958 165.028 156.787 165.341C155.616 165.654 154.606 165.967 153.774 166.173L151.852 166.664C151.633 166.727 151.409 166.772 151.182 166.798C151.389 166.702 151.604 166.624 151.826 166.566L153.721 166.003C154.543 165.761 155.508 165.466 156.715 165.109C157.922 164.751 159.2 164.349 160.648 163.84C163.562 162.874 166.995 161.623 170.767 160.13C174.539 158.637 178.615 156.832 182.816 154.767C187.018 152.702 190.933 150.574 194.437 148.51C197.941 146.445 201.025 144.514 203.572 142.807C204.86 141.975 205.986 141.171 206.996 140.483C208.006 139.794 208.855 139.186 209.552 138.695L211.161 137.551C211.34 137.411 211.532 137.288 211.734 137.184Z" fill="white"/>
<path d="M213.128 113.335C213.173 113.46 204.967 116.759 194.804 120.71C184.64 124.661 176.354 127.762 176.309 127.637C176.265 127.512 184.462 124.223 194.634 120.272C204.806 116.321 213.084 113.219 213.128 113.335Z" fill="white"/>
<path d="M211.322 91.0955C211.322 91.2207 204.171 93.3749 195.232 95.9046C186.293 98.4343 179.044 100.374 179.008 100.258C178.973 100.142 186.159 97.9874 195.098 95.4577C204.037 92.928 211.286 90.9704 211.322 91.0955Z" fill="white"/>
<path d="M209.749 69.3385C209.749 69.4637 202.804 71.1263 194.178 72.9945C185.552 74.8627 178.544 76.3287 178.517 76.2035C178.49 76.0784 185.453 74.4158 194.079 72.5475C202.705 70.6793 209.713 69.2134 209.749 69.3385Z" fill="white"/>
<path d="M147.482 192.739C147.482 192.855 127.637 200.784 103.065 210.491C78.4917 220.199 58.5224 227.94 58.4777 227.824C58.433 227.707 78.313 219.779 102.895 210.062C127.476 200.346 147.437 192.614 147.482 192.739Z" fill="white"/>
<path d="M42.3253 232.097C42.199 232.177 42.0641 232.243 41.923 232.293L40.7253 232.785C39.6794 233.196 38.1598 233.777 36.2558 234.474C32.4837 235.869 27.2366 237.701 21.3906 239.561C15.5446 241.42 10.1992 242.966 6.31974 244.03C4.38002 244.548 2.79785 244.924 1.70731 245.228L0.446941 245.523C0.302461 245.569 0.151749 245.593 0 245.594C0.131914 245.521 0.273305 245.467 0.420122 245.433L1.66262 245.049L6.23035 243.708C10.083 242.582 15.4016 241.027 21.2476 239.132C27.0936 237.236 32.3406 235.484 36.1396 234.17L40.609 232.624L41.8337 232.213C41.9892 232.145 42.1558 232.106 42.3253 232.097Z" fill="white"/>
<path d="M52.9356 254.748C52.9892 254.864 43.3531 258.886 31.4198 263.731C19.4865 268.576 9.76107 272.411 9.71637 272.295C9.67168 272.178 19.2988 268.147 31.241 263.302C43.1833 258.457 52.8909 254.622 52.9356 254.748Z" fill="white"/>
<path d="M70.4828 261.005C70.5811 261.094 65.1731 267.494 58.4154 275.307C51.6577 283.119 46.0888 289.385 45.9904 289.305C45.8921 289.225 51.3001 282.815 58.0578 275.003C64.8156 267.19 70.3845 260.924 70.4828 261.005Z" fill="white"/>
<path d="M88.4228 265.564C88.5479 265.608 86.3758 272.42 83.5779 280.76C80.7801 289.1 78.4113 295.875 78.2951 295.831C78.1789 295.786 80.3421 288.983 83.1399 280.635C85.9378 272.286 88.2976 265.519 88.4228 265.564Z" fill="white"/>
<path d="M205.7 164.984C205.753 165.1 200.614 167.227 194.222 169.73C187.831 172.233 182.602 174.155 182.602 174.039C182.602 173.923 187.697 171.795 194.088 169.292C200.48 166.789 205.646 164.859 205.7 164.984Z" fill="white"/>
<g opacity="0.3">
<path d="M129.407 127.638C137.702 150.101 152.648 162.66 173.753 173.923C161.272 172.54 149.311 168.157 138.891 161.149" fill="black"/>
</g>
<path d="M121.89 306.798H281.117V238.774C281.118 235.743 280.522 232.742 279.364 229.942C278.205 227.142 276.505 224.598 274.363 222.454C272.22 220.311 269.677 218.611 266.877 217.451C264.077 216.291 261.077 215.694 258.046 215.694H144.97C138.849 215.694 132.978 218.126 128.65 222.454C124.322 226.782 121.89 232.653 121.89 238.774V306.798Z" fill="#455A64"/>
<path d="M142.53 215.694H167.827C170.307 215.694 172.685 216.679 174.438 218.432C176.192 220.186 177.177 222.564 177.177 225.044V305.609C177.177 305.925 177.051 306.227 176.829 306.45C176.606 306.673 176.303 306.798 175.988 306.798H123.088C122.773 306.798 122.47 306.673 122.247 306.45C122.024 306.227 121.899 305.925 121.899 305.609V236.334C121.899 230.861 124.072 225.613 127.941 221.742C131.81 217.872 137.057 215.696 142.53 215.694Z" fill="#455A64"/>
<path d="M133.635 306.798V238.676C133.635 232.582 136.055 226.738 140.363 222.428C144.671 218.119 150.515 215.696 156.608 215.694H140.232C140.232 215.694 121.005 218.25 121.005 242.314C121.005 266.377 121.622 306.798 121.622 306.798H133.635Z" fill="black"/>
<path d="M286.319 300.327H177.176V307.907H286.319V300.327Z" fill="#455A64"/>
<path d="M177.176 304.117C177.165 304.028 177.165 303.938 177.176 303.849C177.176 303.643 177.176 303.375 177.176 303.044C177.176 302.311 177.176 301.256 177.176 299.978C177.176 297.296 177.176 293.444 177.176 288.706C177.221 279.151 177.292 266.019 177.373 251.503C177.373 247.874 177.489 244.352 177.266 240.919C177.111 237.647 176.534 234.408 175.549 231.283C174.104 226.848 171.304 222.979 167.544 220.219C163.783 217.459 159.252 215.949 154.588 215.9C153.992 215.88 153.395 215.895 152.8 215.944C152.369 215.96 151.939 216.002 151.513 216.069L150.726 216.177H150.449L150.717 216.114L151.504 215.962C151.929 215.876 152.359 215.819 152.791 215.792C153.384 215.722 153.982 215.692 154.579 215.703C158.378 215.685 162.119 216.635 165.449 218.465C170.481 221.134 174.256 225.683 175.952 231.122C176.963 234.283 177.564 237.561 177.739 240.875C177.963 244.307 177.891 247.865 177.856 251.494C177.722 266.002 177.605 279.142 177.516 288.688C177.453 293.426 177.4 297.27 177.364 299.969C177.364 301.274 177.31 302.302 177.301 303.035V303.831C177.27 303.93 177.228 304.026 177.176 304.117Z" fill="black"/>
<path d="M285.568 300.139C285.568 300.264 260.7 300.416 230.04 300.47C199.38 300.523 174.512 300.47 174.512 300.327C174.512 300.184 199.362 300.05 230.04 299.996C260.718 299.942 285.568 300.014 285.568 300.139Z" fill="black"/>
<path d="M285.569 308.211C285.569 308.336 260.88 308.372 230.443 308.291C200.006 308.211 175.308 308.041 175.317 307.907C175.326 307.773 199.988 307.746 230.443 307.827C260.898 307.907 285.569 308.077 285.569 308.211Z" fill="black"/>
<path d="M271.195 291.674C271.195 291.674 271.195 291.557 271.195 291.352C271.195 291.146 271.195 290.816 271.195 290.413C271.195 289.582 271.195 288.375 271.195 286.838C271.195 283.7 271.15 279.133 271.123 273.358L271.257 273.501L199.809 273.59C199.908 273.492 199.568 273.823 200.033 273.358V291.683L199.8 291.459L250.752 291.557L265.778 291.62H269.836H270.891H271.257C271.144 291.629 271.031 291.629 270.918 291.62H269.89H265.885L250.913 291.683L199.8 291.79H199.577V291.557C199.577 288.578 199.577 285.568 199.577 282.529V273.233C200.042 272.768 199.711 273.108 199.818 273L271.266 273.09H271.409V273.233C271.409 279.043 271.347 283.638 271.329 286.802C271.329 288.351 271.329 289.543 271.329 290.378C271.329 290.762 271.329 291.066 271.329 291.271C271.301 291.411 271.256 291.546 271.195 291.674Z" fill="black"/>
<path d="M230.845 278.06V286.239H230.014V279.714L226.814 285.202H226.403L223.202 279.749V286.239H222.38V278.087H223.086L226.662 284.13L230.166 278.087L230.845 278.06Z" fill="black"/>
<path d="M238.613 284.031H234.072L233.089 286.212H232.195L235.922 278.06H236.772L240.499 286.212H239.605L238.613 284.031ZM238.3 283.334L236.342 278.954L234.385 283.334H238.3Z" fill="black"/>
<path d="M241.849 278.06H242.742V286.239H241.849V278.06Z" fill="black"/>
<path d="M245.371 278.06H246.264V285.461H250.832V286.239H245.406L245.371 278.06Z" fill="black"/>
<path d="M262.015 197.047V183.639H236.986V237.397C234.96 238.595 233.389 240.431 232.52 242.619C231.651 244.806 231.533 247.22 232.185 249.482C232.837 251.744 234.222 253.724 236.123 255.113C238.023 256.502 240.331 257.22 242.684 257.155C245.037 257.089 247.301 256.244 249.121 254.752C250.942 253.26 252.214 251.205 252.74 248.911C253.265 246.616 253.014 244.212 252.025 242.077C251.035 239.941 249.365 238.194 247.275 237.111V197.047H262.015Z" fill="#E6A371"/>
<path d="M242.653 250.466C244.914 250.466 246.747 248.633 246.747 246.372C246.747 244.111 244.914 242.278 242.653 242.278C240.392 242.278 238.559 244.111 238.559 246.372C238.559 248.633 240.392 250.466 242.653 250.466Z" fill="black"/>
<path d="M88.8608 115.758C88.9528 115.933 89.0306 116.115 89.0932 116.303C89.3017 116.837 89.4778 117.384 89.6206 117.939C90.1475 119.98 90.3526 122.091 90.2285 124.196C90.0513 127.335 89.1617 130.391 87.6273 133.135C85.7113 136.513 82.7898 139.209 79.2695 140.849C75.761 142.531 71.7937 143.003 67.9887 142.19C64.9158 141.477 62.0721 140.001 59.7203 137.899C58.1425 136.487 56.8103 134.823 55.7782 132.974C55.4973 132.477 55.2465 131.964 55.0274 131.437C54.9362 131.258 54.8672 131.069 54.8218 130.873C54.8754 130.873 55.1704 131.624 55.9391 132.885C57.0124 134.673 58.3608 136.281 59.9348 137.649C62.2655 139.677 65.0639 141.093 68.0781 141.77C71.7918 142.539 75.6553 142.064 79.0728 140.42C82.5081 138.821 85.3672 136.202 87.2608 132.92C88.7824 130.23 89.6834 127.234 89.8977 124.151C90.0538 122.072 89.9002 119.982 89.4418 117.948C89.12 116.535 88.8072 115.776 88.8608 115.758Z" fill="black"/>
<path d="M164.948 254.131L177.149 253.97L176.676 295.419L165.35 295.866L164.948 254.131Z" fill="#EBEBEB"/>
<path d="M165.351 295.866C167.021 293.708 168.811 291.646 170.714 289.69C172.519 287.626 174.441 285.668 176.471 283.826C174.778 285.981 172.97 288.043 171.054 290.002C169.262 292.061 167.358 294.018 165.351 295.866Z" fill="black"/>
<path d="M177.149 267.932C174.954 265.827 172.866 263.614 170.892 261.3C168.798 259.092 166.82 256.777 164.966 254.363C167.163 256.466 169.252 258.68 171.223 260.996C173.314 263.207 175.292 265.522 177.149 267.932Z" fill="black"/>
<path d="M73.5398 72.333C73.5397 72.9625 73.7243 73.5783 74.0706 74.1039C74.417 74.6296 74.9099 75.0421 75.4884 75.2905C76.0669 75.5388 76.7055 75.612 77.3251 75.501C77.9448 75.39 78.5183 75.0997 78.9746 74.666C80.6998 73.0302 80.1098 70.1519 79.0372 68.0245C77.9645 65.8971 76.4807 63.7428 76.7935 61.3919C77.0349 59.6041 78.2863 58.1113 79.1266 56.4934C79.8706 55.0894 80.278 53.5316 80.3168 51.9431C80.3556 50.3546 80.0246 48.7788 79.35 47.3401C78.6395 45.9169 77.55 44.7174 76.2016 43.8736C74.8531 43.0298 73.298 42.5745 71.7074 42.5578C68.4805 42.6204 65.0748 44.6406 62.2054 43.1567C60.1226 42.0751 59.2556 39.5812 57.441 38.0437C54.6432 35.7286 50.4151 36.4973 47.0988 38.0437C43.7825 39.5901 40.6092 41.7265 36.9711 41.9053C33.9408 42.0483 31.0268 40.779 28.0323 40.3678C24.7509 39.9253 21.4133 40.5163 18.4834 42.0586C15.5535 43.6009 13.177 46.0179 11.6845 48.9735C10.1919 51.9291 9.65752 55.2763 10.1555 58.5497C10.6535 61.8231 12.1592 64.8599 14.4632 67.2379C16.0642 69.0104 18.2384 70.1623 20.6041 70.4916" fill="black"/>
<path d="M77.589 140.644C73.0406 142.143 68.0833 141.778 63.8039 139.628C59.5244 137.478 56.2719 133.719 54.7593 129.175C52.9715 123.758 51.443 119.199 51.443 119.199C51.443 119.199 37.0515 121.398 32.5463 107.731C28.0411 94.0635 20.9258 63.6536 20.9258 63.6536L20.4878 61.8122C34.2179 49.9683 53.7402 47.9928 70.7687 54.2053L71.6626 57.0389L89.5402 118.994C90.6676 123.445 90.0602 128.159 87.8409 132.179C85.6216 136.2 81.9566 139.225 77.589 140.644Z" fill="#FFBE9D"/>
<path d="M32.9661 83.8104C33.3098 83.5579 33.5689 83.2073 33.7092 82.8046C33.8496 82.4019 33.8646 81.9662 33.7523 81.5548C33.64 81.1434 33.4057 80.7758 33.0803 80.5002C32.7548 80.2247 32.3535 80.0543 31.9292 80.0114C31.4221 79.9493 30.911 80.0907 30.508 80.4047C30.158 80.6546 29.8929 81.0055 29.7479 81.4104C29.603 81.8153 29.5853 82.2547 29.6971 82.6699C29.8089 83.0852 30.045 83.4563 30.3736 83.7336C30.7023 84.0109 31.1078 84.1812 31.5359 84.2216C31.7896 84.2506 32.0466 84.2292 32.292 84.1586C32.5375 84.088 32.7665 83.9697 32.9661 83.8104Z" fill="black"/>
<path d="M27.2542 82.0941C27.5492 82.2639 28.5682 80.798 30.4543 80.1901C32.3404 79.5823 34.0298 80.1276 34.1461 79.8236C34.2176 79.6806 33.869 79.3231 33.127 79.0549C32.1386 78.7263 31.0709 78.7225 30.0802 79.0442C29.0894 79.3659 28.2276 79.9961 27.6207 80.8427C27.1827 81.5399 27.1201 82.0226 27.2542 82.0941Z" fill="black"/>
<path d="M50.3166 76.1765C50.046 76.4894 49.8743 76.8756 49.8231 77.2862C49.772 77.6967 49.8438 78.1132 50.0294 78.483C50.215 78.8527 50.5061 79.1591 50.8659 79.3634C51.2256 79.5677 51.6379 79.6608 52.0505 79.6308C52.4632 79.6008 52.8576 79.449 53.184 79.1948C53.5104 78.9406 53.7541 78.5953 53.8843 78.2026C54.0144 77.8099 54.0252 77.3874 53.9152 76.9885C53.8052 76.5897 53.5794 76.2324 53.2664 75.9619C52.8458 75.6015 52.2998 75.4219 51.7473 75.4621C51.1949 75.5023 50.6807 75.759 50.3166 76.1765Z" fill="black"/>
<path d="M47.8142 77.4909C48.1003 77.6608 49.1193 76.2037 51.0054 75.5959C52.8915 74.988 54.5809 75.5333 54.706 75.2204C54.7776 75.0864 54.4289 74.7199 53.687 74.4607C52.6986 74.132 51.6309 74.1283 50.6402 74.45C49.6494 74.7716 48.7876 75.4018 48.1807 76.2484C47.7427 76.9278 47.6712 77.4194 47.8142 77.4909Z" fill="black"/>
<path d="M45.1589 95.4755C45.1589 95.3324 43.8807 95.4755 41.9052 95.8151C41.3957 95.9224 40.9577 95.9403 40.8236 95.6632C40.6412 95.1713 40.607 94.6368 40.7253 94.1257C40.8147 92.7313 40.9041 91.301 41.0024 89.8083C41.3331 83.6852 41.3689 78.7152 41.0828 78.6973C40.7968 78.6794 40.2784 83.6315 39.9387 89.7546C39.8672 91.2474 39.8046 92.6687 39.742 94.0721C39.624 94.8004 39.7564 95.5472 40.1175 96.1906C40.2437 96.3537 40.4066 96.4849 40.5929 96.5734C40.7793 96.6619 40.9839 96.7053 41.1901 96.7001C41.4937 96.6918 41.7947 96.6406 42.084 96.5481C44.0058 96.0207 45.1858 95.6185 45.1589 95.4755Z" fill="black"/>
<path d="M51.9525 95.6279C53.5526 93.8402 47.4831 100.214 43.5411 101.241C44.4946 102.033 45.6887 102.477 46.9278 102.502C48.1669 102.526 49.3775 102.129 50.3614 101.376C53.9906 98.5777 51.9525 95.6279 51.9525 95.6279Z" fill="white"/>
<path d="M51.3625 119.012C57.7323 117.13 63.3985 113.396 67.6401 108.285C67.6401 108.285 66.5317 119.494 52.4441 122.587L51.3625 119.012Z" fill="#EB996E"/>
<path d="M73.647 66.4068C73.9241 66.2102 83.6316 62.4022 85.6429 74.4964C87.6541 86.5907 74.7733 84.6062 74.6928 84.2666C74.6124 83.9269 73.647 66.4068 73.647 66.4068Z" fill="#FFBE9D"/>
<path d="M77.6961 79.4126C77.6961 79.3589 77.9285 79.5198 78.3129 79.6271C78.8506 79.7546 79.4167 79.6714 79.895 79.3947C81.0928 78.7154 81.8258 76.5075 81.5308 74.3264C81.3869 73.2837 81.0145 72.2856 80.4403 71.4034C80.2625 71.0449 80.0005 70.7349 79.6767 70.4998C79.3529 70.2647 78.9769 70.1116 78.581 70.0536C78.3283 70.0296 78.0752 70.0953 77.866 70.2391C77.6569 70.3829 77.5049 70.5957 77.4368 70.8403C77.3296 71.1978 77.4368 71.4302 77.4368 71.457C77.4368 71.4839 77.1419 71.3051 77.1508 70.7866C77.1737 70.4747 77.2994 70.1791 77.5084 69.9464C77.7992 69.6425 78.1965 69.4631 78.6168 69.4458C79.1294 69.4629 79.6292 69.6107 80.0688 69.875C80.5084 70.1394 80.8731 70.5116 81.1286 70.9565C81.7899 71.9273 82.2069 73.0435 82.3443 74.2102C82.675 76.6505 81.8079 79.1444 80.1453 79.931C79.8363 80.0819 79.497 80.1603 79.1531 80.1603C78.8092 80.1603 78.4699 80.0819 78.1609 79.931C77.7676 79.6986 77.6603 79.4394 77.6961 79.4126Z" fill="#EB996E"/>
<path d="M19.3525 70.2864C19.3525 70.2864 28.8366 71.9937 38.1955 63.5197C44.3276 57.9598 52.158 53.8837 54.4016 54.8044C56.6452 55.7251 59.0766 62.9745 66.755 63.1354C66.755 63.1354 70.1965 77.3034 75.6492 75.2385C81.1018 73.1737 71.5194 52.4177 71.5194 52.4177L56.1357 46.7773L40.4123 48.145L24.4476 54.5899L16.6709 62.8851L19.3525 70.2864Z" fill="black"/>
<path d="M69.2312 40.4219C68.2083 40.8042 67.231 41.2988 66.3172 41.8968C65.4913 42.6142 64.7505 43.424 64.1093 44.3103C64.4345 43.1993 65.1075 42.222 66.0295 41.5221C66.9515 40.8221 68.0738 40.4365 69.2312 40.4219Z" fill="black"/>
<path d="M61.9279 36.4976C62.215 36.8466 62.4334 37.247 62.5714 37.6775C62.9989 38.6789 63.2992 39.73 63.4653 40.8061C63.6315 41.8872 63.6012 42.9894 63.3759 44.0598C63.3253 44.5141 63.1659 44.9495 62.9111 45.3291C63.1203 43.8483 63.1503 42.3477 63.0005 40.8597C62.6251 38.4283 61.7848 36.5512 61.9279 36.4976Z" fill="black"/>
<path d="M98.6667 253.505L160.568 241.992L169.82 283.825L105.532 294.677L98.6667 253.505Z" fill="#E0E0E0"/>
<path d="M160.568 241.992C160.568 241.992 160.568 242.054 160.461 242.162L160.112 242.653L158.736 244.495L153.587 251.225C149.171 256.928 143.111 264.768 136.362 273.474L136.246 273.626L136.076 273.537L134.869 272.902L109.223 259.27L101.482 255.087L99.3818 253.934L98.8455 253.621C98.7807 253.587 98.7206 253.545 98.6667 253.496L98.8634 253.576L99.4265 253.845L101.563 254.953C103.449 255.927 106.104 257.313 109.384 259.002L135.083 272.491L136.281 273.126L135.986 273.188L153.319 251.029L158.584 244.378C159.2 243.628 159.683 243.029 160.032 242.591C160.193 242.412 160.318 242.26 160.416 242.135L160.568 241.992Z" fill="black"/>
<path d="M105.532 294.677C105.424 294.606 109.402 288.295 114.426 280.581C119.449 272.867 123.597 266.663 123.704 266.734C123.811 266.806 119.834 273.117 114.765 280.831C109.697 288.545 105.639 294.749 105.532 294.677Z" fill="black"/>
<path d="M169.82 283.825C169.739 283.924 163.947 279.49 156.885 273.921C149.823 268.352 144.165 263.758 144.246 263.659C144.326 263.561 150.109 267.986 157.18 273.555C164.251 279.123 169.945 283.718 169.82 283.825Z" fill="black"/>
<path d="M100.294 262.837C100.294 262.837 100.732 270.944 104.638 270.882C108.544 270.819 122.328 263.293 123.928 265.903C125.528 268.513 121.3 272.16 121.3 272.16C121.3 272.16 126.154 272.089 124.348 274.994C122.542 277.899 117.134 291.504 112.138 292.782C104.987 294.614 88.423 295.33 88.423 295.33L93.5271 266.841L100.294 262.837Z" fill="#FFBE9D"/>
<path d="M122.802 270.399C122.652 270.613 122.478 270.808 122.283 270.98C121.926 271.329 121.389 271.821 120.71 272.393C117.134 275.39 113.106 277.804 108.777 279.544C107.945 279.875 107.266 280.116 106.792 280.268C106.55 280.367 106.294 280.431 106.032 280.456C106.88 279.998 107.755 279.592 108.652 279.24C112.868 277.327 116.846 274.927 120.504 272.089C121.234 271.479 122.002 270.914 122.802 270.399Z" fill="#EB996E"/>
<path d="M122.569 278.426C122.194 279.169 121.715 279.855 121.148 280.464C118.53 283.556 115.136 285.894 111.315 287.24C110.543 287.555 109.731 287.762 108.902 287.857C109.65 287.515 110.417 287.216 111.199 286.963C114.875 285.476 118.175 283.192 120.862 280.277C121.398 279.63 121.968 279.013 122.569 278.426Z" fill="#EB996E"/>
<path opacity="0.05" d="M306.557 81.3433C329.11 126.279 321.977 183.004 293.784 224.632C265.591 266.261 218.698 293.22 169.4 303.035C134.19 310.043 96.3341 308.586 64.1722 292.693C32.0104 276.799 6.72245 244.718 4.79167 208.882C4.05868 195.349 6.92804 180.975 15.9652 170.866C30.3924 154.722 55.0099 154.159 76.6508 154.776C98.2917 155.392 122.891 154.937 137.435 138.865C148.564 126.511 150.208 108.589 156.072 93.0352C166.057 66.5674 190.129 45.9098 217.795 40.0638C221.624 39.2532 225.508 38.7244 229.415 38.4816C259.807 36.5777 288.706 52.2385 304.671 78.2147L306.557 81.3433Z" fill="#E6A371"/>
</svg>
