<svg width="28" height="28" viewBox="0 0 28 28" fill="none" xmlns="http://www.w3.org/2000/svg">
<path d="M25.925 27.5C22.8 27.5 19.7065 26.825 16.6445 25.475C13.5825 24.125 10.801 22.2 8.3 19.7C5.8 17.2 3.875 14.425 2.525 11.375C1.175 8.325 0.5 5.225 0.5 2.075V0.5H9.35L10.7375 8.0375L6.4625 12.35C7.0125 13.325 7.625 14.25 8.3 15.125C8.975 16 9.7 16.8125 10.475 17.5625C11.2 18.2875 11.994 18.9815 12.857 19.6445C13.72 20.3075 14.651 20.926 15.65 21.5L20 17.15L27.5 18.6875V27.5H25.925Z" fill="white"/>
</svg>
