<svg width="128" height="137" viewBox="0 0 128 137" fill="none" xmlns="http://www.w3.org/2000/svg">
<path d="M30.1217 4.69291L26.5771 3.63482C22.2866 2.13762 18.7367 3.29094 16.4142 6.19011C14.0916 9.08928 13.1923 12.9354 13.3245 16.6493C13.4092 19.0406 13.8536 21.5589 12.9066 23.7491C12.2963 24.9372 11.5017 26.021 10.5523 26.9604C9.60079 27.9027 8.8613 29.0372 8.38324 30.2881C7.98646 31.5631 8.18221 33.1079 9.19797 33.9915C9.67448 34.2949 10.1162 34.6497 10.5153 35.0495C10.9914 35.6632 10.9491 36.5203 10.9967 37.298C11.1034 39.1439 11.8309 40.8996 13.061 42.2801C14.2911 43.6606 15.9516 44.5848 17.7731 44.9028C19.5945 45.2208 21.47 44.9138 23.0951 44.0318C24.7201 43.1497 25.9994 41.7443 26.7252 40.0437C27.7833 37.6154 27.5717 34.8697 27.4659 32.235C27.0951 22.9763 27.9886 13.7102 30.1217 4.69291Z" fill="#372011"/>
<path d="M37.814 0.370624C34.7455 -0.539334 31.8516 0.33888 29.0001 1.78317C26.1487 3.28418 23.8246 5.62125 22.3394 8.48089C20.7063 11.4602 20.0896 14.8909 20.583 18.2524C20.8446 19.9175 21.4402 21.5126 22.3339 22.9418C23.2276 24.3709 24.401 25.6047 25.7835 26.569C29.6085 29.1242 34.899 29.029 38.8721 26.7118C42.8452 24.3946 45.4746 20.0881 46.1994 15.5489C46.7419 12.4011 46.2811 9.16226 44.882 6.29064C44.1743 4.86917 43.1815 3.60859 41.9655 2.58738C40.7496 1.56617 39.3364 0.806195 37.814 0.354753" fill="#372011"/>
<path d="M27.6299 9.94641C28.2277 8.80368 28.2118 7.44403 28.5451 6.19548C29.2805 3.44974 31.7988 1.48169 34.5339 0.70399C37.0786 -0.0208022 40.0096 0.555859 42.8188 1.84673C44.7708 2.70612 46.4385 4.10232 47.6278 5.87277C48.376 7.06823 48.8269 8.4255 48.9429 9.83101C49.0589 11.2365 48.8365 12.6494 48.2944 13.9513L34.2535 10.1686C32.7828 11.1156 31.275 12.0785 29.5768 12.5017C29.0843 12.6528 28.561 12.6728 28.0584 12.5599C27.8061 12.5003 27.5767 12.3685 27.3982 12.1806C27.2197 11.9927 27.0998 11.7568 27.0532 11.5018C26.9897 10.9357 27.3707 10.4437 27.6299 9.94641Z" fill="#372011"/>
<path d="M42.6548 5.83032L29.8572 6.99422C29.2692 6.95968 28.6899 7.14881 28.2355 7.52366C27.7812 7.89851 27.4855 8.43133 27.4077 9.01518L24.3181 36.0494C24.1113 37.891 24.5146 39.7496 25.4661 41.3399L26.4713 43.0169C28.7673 46.8419 34.3117 47.1488 36.8511 43.4825C37.0034 43.2757 37.1279 43.0498 37.2215 42.8106C37.2995 42.6163 37.3632 42.4165 37.4119 42.2128L37.941 39.6099C38.3536 37.2186 38.6605 34.7744 38.6605 34.7956C38.6605 34.8167 43.8451 34.7638 45.9454 28.3359C47.0035 25.1616 47.6807 19.7389 48.1039 15.3055C48.5113 11.3112 46.6755 6.04194 42.6548 5.83032Z" fill="#FFBF9D"/>
<path d="M45.7127 20.6596C45.6799 20.8804 45.5617 21.0795 45.3836 21.214C45.2055 21.3486 44.9817 21.4079 44.7604 21.3791C44.6513 21.3712 44.545 21.3414 44.4477 21.2916C44.3503 21.2417 44.2641 21.1727 44.194 21.0888C44.1239 21.0049 44.0714 20.9077 44.0396 20.8031C44.0079 20.6984 43.9975 20.5885 44.0092 20.4797C44.042 20.2586 44.1599 20.059 44.3378 19.9236C44.5158 19.7882 44.7395 19.7277 44.9614 19.7549C45.0702 19.7649 45.1759 19.7962 45.2726 19.8471C45.3693 19.898 45.4549 19.9674 45.5247 20.0514C45.5945 20.1355 45.647 20.2325 45.6793 20.3368C45.7115 20.4412 45.7229 20.5509 45.7127 20.6596Z" fill="#372011"/>
<path d="M46.5168 17.919C46.3951 18.0142 45.829 17.4376 44.9296 17.2947C44.0303 17.1519 43.279 17.501 43.1997 17.3741C43.1203 17.2471 43.2949 17.136 43.6229 16.9667C44.0603 16.7571 44.5521 16.6887 45.0302 16.771C45.5041 16.8417 45.9423 17.0645 46.2787 17.4058C46.5115 17.665 46.575 17.8767 46.5168 17.919Z" fill="#372011"/>
<path d="M37.5971 19.6913C37.5643 19.9124 37.4464 20.112 37.2684 20.2474C37.0905 20.3828 36.8668 20.4433 36.6449 20.4161C36.5362 20.4075 36.4305 20.3772 36.3338 20.3271C36.2371 20.2769 36.1514 20.2079 36.0819 20.124C36.0123 20.0401 35.9603 19.9432 35.9289 19.8389C35.8974 19.7346 35.8872 19.625 35.8989 19.5167C35.9318 19.2966 36.0489 19.0979 36.2257 18.9626C36.4024 18.8273 36.6248 18.7661 36.8459 18.7919C36.955 18.7998 37.0613 18.8296 37.1586 18.8795C37.2559 18.9293 37.3422 18.9983 37.4123 19.0822C37.4824 19.1661 37.5349 19.2633 37.5667 19.368C37.5984 19.4726 37.6088 19.5826 37.5971 19.6913Z" fill="#372011"/>
<path d="M37.8616 16.6547C37.7399 16.7499 37.1739 16.1733 36.2745 16.0304C35.3751 15.8876 34.6292 16.2368 34.5445 16.1098C34.4599 15.9828 34.645 15.8717 34.9677 15.7077C35.404 15.4942 35.8964 15.4239 36.375 15.5067C36.849 15.5774 37.2871 15.8002 37.6235 16.1415C37.8616 16.4008 37.9251 16.6124 37.8616 16.6547Z" fill="#372011"/>
<path d="M39.7979 23.9238C40.304 23.8635 40.8155 23.8635 41.3216 23.9238C41.5543 23.9238 41.7818 23.9238 41.8506 23.7704C41.9111 23.5337 41.8963 23.2841 41.8083 23.0562C41.676 22.4584 41.5438 21.8341 41.4009 21.1781C40.8719 18.5064 40.491 16.3267 40.5968 16.3056C40.7026 16.2844 41.2422 18.4218 41.7924 21.104C41.9247 21.76 42.0464 22.3896 42.168 22.9874C42.2785 23.288 42.2785 23.618 42.168 23.9185C42.1219 23.9952 42.0588 24.0604 41.9836 24.109C41.9084 24.1576 41.8231 24.1883 41.7342 24.1989C41.5989 24.2154 41.4621 24.2154 41.3269 24.1989C40.8072 24.176 40.293 24.0834 39.7979 23.9238Z" fill="#372011"/>
<path d="M38.687 34.8008C35.5706 34.3583 32.6393 33.0557 30.2222 31.0393C30.2222 31.0393 31.7141 35.9594 38.4119 36.3932L38.687 34.8008Z" fill="#FF9A6C"/>
<path d="M39.0361 26.0664C38.8984 25.821 38.7002 25.6149 38.4604 25.4677C38.2205 25.3204 37.9471 25.237 37.6659 25.2252C37.4622 25.2108 37.2576 25.2381 37.0648 25.3054C36.8719 25.3727 36.6948 25.4786 36.5443 25.6167C36.4008 25.7473 36.3006 25.9185 36.2571 26.1076C36.2136 26.2967 36.2289 26.4946 36.301 26.6748C36.4196 26.8625 36.5922 27.01 36.7961 27.0978C37.0001 27.1856 37.2258 27.2096 37.4437 27.1668C37.8997 27.0772 38.3332 26.8973 38.7187 26.6377C38.833 26.5821 38.9354 26.5048 39.0203 26.4103C39.0624 26.3659 39.09 26.3097 39.0995 26.2492C39.1089 26.1887 39.0998 26.1268 39.0732 26.0717" fill="#FF9A6C"/>
<path d="M36.994 24.1407C37.1421 24.1407 36.994 25.1406 37.7241 25.9765C38.4541 26.8124 39.5228 26.8705 39.5122 27.0345C39.5017 27.1986 39.2477 27.188 38.798 27.1298C38.218 27.0439 37.6863 26.7575 37.2955 26.3203C36.9291 25.8977 36.7396 25.3501 36.7665 24.7914C36.7771 24.3523 36.9305 24.1248 36.994 24.1407Z" fill="#372011"/>
<path d="M38.6023 13.4434C38.47 13.6762 37.5812 13.4116 36.4861 13.3746C35.391 13.3376 34.4916 13.4857 34.3699 13.2423C34.3223 13.126 34.5075 12.9143 34.899 12.7133C35.4102 12.4908 35.9665 12.3912 36.5232 12.4223C37.0806 12.4431 37.6248 12.5973 38.1103 12.872C38.4912 13.1048 38.6552 13.3429 38.6023 13.4434Z" fill="#372011"/>
<path d="M47.3051 13.9405C47.1147 14.1204 46.5221 13.803 45.7709 13.676C45.0196 13.5491 44.353 13.5914 44.2419 13.3533C44.1943 13.2369 44.3266 13.0465 44.6387 12.893C45.0504 12.7182 45.5049 12.6701 45.9441 12.7549C46.3832 12.8397 46.7871 13.0536 47.1041 13.3692C47.3369 13.6231 47.3951 13.8718 47.3051 13.9405Z" fill="#372011"/>
<path d="M25.5772 7.74541C27.3283 4.10029 33.5975 -0.407172 37.5548 0.434011L43.4007 5.15309C43.0393 6.21253 42.3989 7.15493 41.547 7.88112C40.6952 8.60731 39.6633 9.09044 38.56 9.27965C37.3855 9.46482 36.0153 9.36958 35.2058 10.2478C34.3964 11.126 34.5816 12.6391 33.7986 13.5702C32.7405 14.8664 30.3122 14.459 29.4339 15.898C29.053 16.5276 29.0901 17.3476 28.6986 17.9666C28.1695 18.7972 25.773 19.6066 24.8895 19.1834C24.0059 18.7601 24.2229 17.1783 24.0377 16.3107C23.7857 15.3244 23.8829 14.2813 24.3128 13.3586C24.9847 11.5493 24.7413 9.48597 25.5772 7.74541Z" fill="#372011"/>
<path d="M27.5135 20.3473C27.5876 19.8553 27.6881 19.1516 27.2437 18.9294C25.9158 18.2629 23.1224 17.7761 22.5775 21.0456C21.8315 25.5372 26.4924 25.3574 26.5189 25.2304C26.5453 25.1034 27.249 22.0402 27.5135 20.3473Z" fill="#FFBF9D"/>
<path d="M25.429 23.3154C25.429 23.3154 25.3444 23.3577 25.2016 23.4C25.0021 23.4456 24.7928 23.4154 24.6143 23.3154C24.1699 23.0614 23.8948 22.2573 24.0059 21.4267C24.066 21.0493 24.2048 20.6888 24.4133 20.3686C24.48 20.2364 24.5771 20.1219 24.6967 20.0346C24.8163 19.9472 24.9548 19.8894 25.101 19.866C25.195 19.8583 25.2887 19.8829 25.3666 19.9359C25.4446 19.9888 25.5021 20.0668 25.5296 20.157C25.5666 20.2945 25.5296 20.3792 25.5296 20.3898C25.5296 20.4003 25.6407 20.3316 25.6354 20.1411C25.6267 20.0254 25.5802 19.9157 25.5031 19.829C25.3948 19.716 25.2468 19.6497 25.0905 19.6438C24.9003 19.6502 24.715 19.7051 24.552 19.8032C24.3891 19.9014 24.2539 20.0395 24.1593 20.2046C23.9023 20.561 23.7369 20.9753 23.6779 21.4108C23.5562 22.3208 23.8789 23.2413 24.4979 23.527C24.6124 23.5831 24.7382 23.6122 24.8656 23.6122C24.9931 23.6122 25.1188 23.5831 25.2333 23.527C25.4079 23.4265 25.4449 23.326 25.429 23.3154Z" fill="#FF9A6C"/>
<path d="M42.2527 3.63477C42.4485 5.51817 44.9561 8.21101 46.0142 9.78757C48.0246 12.8031 48.3791 13.7607 47.6014 19.8659C48.961 17.8873 50.0508 15.9245 50.2466 13.5173C50.4817 11.1084 49.8289 8.69648 48.4108 6.73497C47.6941 5.76948 46.7617 4.9849 45.6879 4.44387C44.6141 3.90283 43.4287 3.62032 42.2263 3.6189" fill="#372011"/>
<path d="M24.0218 6.58169C26.5877 2.87837 29.8413 0.915612 32.7775 0.3125Z" fill="#372011"/>
<path d="M23.0272 23.9714C22.9576 23.9101 22.8955 23.8409 22.842 23.7651C22.6694 23.555 22.5104 23.3341 22.3659 23.1038C21.8325 22.2578 21.4311 21.3355 21.1755 20.3686C20.8096 18.9334 20.6212 17.4587 20.6147 15.9775C20.5595 14.1566 20.8838 12.3441 21.567 10.6553C22.2123 8.94791 23.1034 7.34386 24.2122 5.89394C25.1062 4.70641 26.1501 3.63947 27.3177 2.71967C28.1102 2.11269 28.9714 1.60127 29.8836 1.19601C30.2063 1.05846 30.4603 0.957945 30.6401 0.89975C30.7261 0.862266 30.8169 0.837323 30.91 0.825684C30.91 0.825684 30.5555 0.989687 29.9312 1.29653C29.0462 1.73484 28.2108 2.26694 27.4394 2.88367C26.3034 3.8126 25.2869 4.87882 24.4133 6.05794C23.3263 7.49002 22.4498 9.07024 21.8104 10.7506C21.1373 12.4073 20.8113 14.1845 20.8528 15.9723C20.8482 17.4363 21.0151 18.8958 21.3501 20.321C21.5846 21.2772 21.9514 22.1961 22.4399 23.0509C22.805 23.654 23.0536 23.9556 23.0272 23.9714Z" fill="black"/>
<path d="M72.5088 111.079L62.8432 121.268C62.8432 121.268 70.1493 134.674 68.5516 136.737L47.7336 118.417L62.129 101.889L72.5088 111.079Z" fill="#E6A371"/>
<path d="M45.7285 81.6214C45.7285 81.6214 71.5407 78.6957 75.773 77.9815C83.8463 76.6113 91.9195 77.9181 95.3477 84.8591C96.9084 88.0334 94.9297 94.1121 90.2001 98.6143C86.6661 101.99 69.1388 119.718 69.1388 119.718L54.1192 107.174L72.7098 92.7155L36.6713 97.7784L45.7285 81.6214Z" fill="#372011"/>
<path d="M57.1876 114.724C56.9382 114.606 56.6538 114.585 56.3897 114.665C56.1257 114.745 55.9009 114.921 55.7592 115.158C55.6386 115.407 55.6175 115.693 55.7 115.957C55.7825 116.221 55.9626 116.444 56.2036 116.581C56.4683 116.705 56.7699 116.726 57.049 116.639C57.3281 116.551 57.5645 116.363 57.7114 116.11C57.8115 115.837 57.8024 115.537 57.6861 115.27C57.5698 115.004 57.3552 114.793 57.0871 114.682" fill="#E0E0E0"/>
<path d="M47.7336 118.417L49.1885 116.745L68.7156 135.06C68.8833 135.626 68.8264 136.234 68.5569 136.759L47.7336 118.417Z" fill="black"/>
<path d="M63.277 121.474C63.1818 121.57 62.6368 121.167 61.8538 121.051C61.0709 120.935 60.4307 121.115 60.3725 120.993C60.3143 120.871 60.9756 120.427 61.9226 120.591C62.8696 120.755 63.3775 121.4 63.277 121.474Z" fill="white"/>
<path d="M64.6631 124.289C64.5996 124.405 64.007 124.183 63.2928 124.289C62.5786 124.395 62.0813 124.765 61.9808 124.67C61.8803 124.575 62.3194 123.956 63.2135 123.829C64.1076 123.702 64.7583 124.188 64.6631 124.289Z" fill="white"/>
<path d="M63.6579 127.95C63.5468 127.887 63.8431 127.262 64.5837 126.945C65.3244 126.627 65.9963 126.828 65.9645 126.945C65.9328 127.061 65.3826 127.104 64.7795 127.373C64.1763 127.643 63.7637 128.029 63.6579 127.95Z" fill="white"/>
<path d="M65.1921 118.903C65.0704 118.956 64.7266 118.406 64.134 117.935C63.5415 117.464 62.9172 117.253 62.9437 117.12C62.9701 116.988 63.7108 117.009 64.4197 117.57C65.1286 118.131 65.335 118.866 65.1921 118.903Z" fill="white"/>
<path d="M79.4764 109.301C79.4217 109.384 79.3578 109.46 79.2859 109.529L78.7198 110.158L76.5666 112.391L69.234 119.85L69.1441 119.94L69.0489 119.861L67.1761 118.274L57.9019 110.481L55.1403 108.095L54.389 107.434C54.2988 107.36 54.2156 107.279 54.1404 107.19C54.2421 107.247 54.3378 107.315 54.4261 107.391L55.2091 108.01L58.0553 110.333L67.3771 118.062L69.2499 119.649H69.0648L76.4714 112.243L78.6828 110.073L79.2912 109.497C79.3453 109.425 79.4074 109.359 79.4764 109.301Z" fill="black"/>
<path d="M101.458 108.481L114.155 119.665L126.736 125.627C126.95 125.729 127.142 125.873 127.298 126.051C127.454 126.229 127.572 126.437 127.645 126.663C127.717 126.889 127.742 127.127 127.719 127.363C127.696 127.599 127.624 127.827 127.508 128.034C127.374 128.276 127.184 128.482 126.954 128.635C126.724 128.788 126.46 128.883 126.186 128.913C122.631 129.294 109.542 130.622 108.658 129.749C107.637 128.743 94.5012 118.834 94.5012 118.834L101.458 108.481Z" fill="#E6A371"/>
<path d="M127.493 128.035L107.77 129.013L108.643 129.749C108.834 129.898 109.055 130.006 109.291 130.065C109.527 130.125 109.773 130.134 110.013 130.093C111.669 130.093 116.245 129.96 126.138 128.955C126.422 128.924 126.694 128.824 126.93 128.664C127.166 128.503 127.359 128.287 127.493 128.035Z" fill="black"/>
<g opacity="0.6">
<path d="M107.764 124.189C108.016 124.13 108.28 124.166 108.507 124.289C108.734 124.411 108.908 124.613 108.997 124.855C109.066 125.103 109.038 125.367 108.918 125.595C108.798 125.822 108.595 125.995 108.352 126.077C108.086 126.143 107.806 126.107 107.565 125.977C107.324 125.847 107.141 125.632 107.05 125.374C107.006 125.106 107.066 124.833 107.217 124.608C107.369 124.384 107.601 124.226 107.865 124.167" fill="white"/>
</g>
<path d="M119.35 126.23C119.446 126.188 119.017 125.326 119.298 124.252C119.578 123.178 120.356 122.607 120.271 122.522C120.186 122.437 120.007 122.564 119.71 122.829C119.331 123.191 119.063 123.653 118.938 124.162C118.812 124.671 118.834 125.205 119.001 125.701C119.155 126.077 119.313 126.257 119.35 126.23Z" fill="white"/>
<path d="M121.858 126.77C121.964 126.77 121.895 125.987 122.266 125.183C122.636 124.379 123.234 123.871 123.17 123.781C123.107 123.691 122.334 124.083 121.927 125.035C121.52 125.987 121.768 126.807 121.858 126.77Z" fill="white"/>
<path d="M115.684 126.077C115.801 126.077 115.684 124.887 116.15 123.543C116.615 122.199 117.404 121.326 117.319 121.247C117.234 121.168 116.261 121.977 115.795 123.427C115.33 124.876 115.6 126.109 115.684 126.077Z" fill="white"/>
<path d="M111.547 122.998C111.653 123.03 111.954 122.062 112.706 121.104C113.457 120.147 114.293 119.596 114.245 119.517C114.198 119.438 113.187 119.856 112.415 120.893C111.642 121.929 111.452 122.988 111.547 122.998Z" fill="white"/>
<path d="M108.717 121.014C108.828 121.014 109.002 119.956 109.875 119.009C110.748 118.062 111.785 117.766 111.748 117.66C111.711 117.554 111.457 117.618 111.034 117.771C110.485 117.985 109.994 118.325 109.599 118.762C109.204 119.199 108.917 119.722 108.759 120.289C108.648 120.739 108.674 121.009 108.717 121.014Z" fill="white"/>
<path d="M4.52649 93.1016C4.78572 93.7471 3.64298 114.502 23.3393 114.628C41.02 114.745 64.8006 98.5402 67.5146 99.5771C69.2869 100.26 99.7864 126.77 99.7864 126.77L110.822 113.861C110.822 113.861 82.5819 86.88 79.8044 84.949C73.8579 80.7907 69.6784 80.8225 59.8964 82.5948C51.1407 84.1819 29.6985 91.2976 29.6985 91.2976L27.6299 89.5253L4.52649 93.1016Z" fill="#372011"/>
<path d="M53.5531 84.6845C53.5531 84.6845 53.6642 84.6316 53.8864 84.547L54.8705 84.1767C55.7434 83.8645 57.0342 83.4201 58.7325 82.944C60.7939 82.3621 62.8918 81.9185 65.0123 81.6161C66.3398 81.4205 67.6806 81.3285 69.0224 81.341C70.5289 81.3644 72.0281 81.5542 73.4929 81.907C76.8736 82.7224 80.0077 84.3412 82.6295 86.6261C85.354 89.1655 88.195 91.943 91.2264 94.8316L110.928 113.74L111.018 113.83L110.933 113.93C110.457 114.496 109.939 115.105 109.415 115.713C107.786 117.633 106.093 119.586 104.416 121.384C102.738 123.183 101.241 124.993 99.6859 126.781L99.7282 126.876L82.4337 111.92C79.8149 109.645 77.3337 107.502 75.0271 105.502L71.6941 102.619C71.165 102.154 70.636 101.704 70.107 101.265C69.853 101.043 69.6044 100.815 69.3451 100.625C69.0877 100.439 68.811 100.281 68.5198 100.154C67.9679 99.9153 67.3715 99.7972 66.7703 99.8072C66.1692 99.8172 65.5771 99.9552 65.0334 100.212L62.1184 101.64L57.4681 103.921L54.5477 105.344L53.7912 105.703L53.5267 105.82C53.5267 105.82 53.6113 105.767 53.7753 105.682L54.5266 105.296L57.4257 103.836L62.0549 101.519L64.9646 100.069C65.6801 99.7269 66.4749 99.5845 67.2647 99.6572C68.0545 99.7298 68.8099 100.015 69.4509 100.482C69.726 100.683 69.98 100.905 70.2286 101.122L71.8158 102.471L75.1593 105.344L82.566 111.74L99.8869 126.67L99.9345 126.76C101.458 124.95 103.04 123.088 104.564 121.167C106.087 119.247 107.585 117.417 109.209 115.512L110.706 113.75V113.941L91.0201 95.0115C87.994 92.1176 85.153 89.3295 82.4496 86.7954C79.8621 84.5406 76.773 82.9371 73.4399 82.1187C71.9874 81.7659 70.501 81.5708 69.0065 81.5367C67.6739 81.5198 66.342 81.6065 65.0228 81.7959C62.9056 82.0826 60.8096 82.5085 58.7484 83.0709C57.0501 83.5312 55.754 83.9597 54.881 84.256L53.8864 84.5999C53.6589 84.6528 53.5531 84.6845 53.5531 84.6845Z" fill="black"/>
<path d="M42.7447 38.6206C42.7447 38.6206 49.2784 41.2129 50.0508 46.7362C50.6963 51.3389 49.2626 63.6021 49.2837 64.4327C49.259 65.1574 49.5062 65.865 49.9768 66.4167C50.7779 67.2785 51.2189 68.4143 51.2095 69.5909C51.2594 70.3773 51.1216 71.1644 50.8074 71.887C50.0614 73.1461 42.8347 81.5156 42.8347 81.5156L36.412 68.1466C36.412 68.1466 40.6444 55.6294 40.6444 55.3067C40.6444 54.984 42.7447 38.6206 42.7447 38.6206Z" fill="#E6A371"/>
<path d="M50.1408 71.3209C50.4159 71.3579 59.8382 78.0504 59.8382 78.0504C59.8382 78.0504 62.1395 73.6064 63.1712 73.4741C64.2028 73.3419 67.3771 74.564 67.6575 74.8973C67.9379 75.2306 68.5569 75.2888 69.1811 75.347C69.8054 75.4051 70.9058 76.9658 70.9058 76.9658L73.022 78.553C73.022 78.553 72.3554 79.7909 72.1808 80.0025C72.0062 80.2142 70.5937 79.6216 70.5937 79.3941C70.5937 79.1667 70.7736 80.7855 69.6731 80.8332C68.7935 80.7829 67.9348 80.5448 67.1549 80.1348L66.7846 78.2673L64.0547 76.4897L63.7267 78.2831C63.7267 78.2831 66.4936 78.8492 66.4036 79.7592C66.3798 80.0191 66.2833 80.2671 66.1252 80.4748C65.9671 80.6824 65.7538 80.8415 65.5096 80.9337L63.2241 80.8861L58.1929 82.0923C58.1929 82.0923 44.9985 79.1719 44.517 77.6747C44.0356 76.1776 46.2735 70.7972 50.1408 71.3209Z" fill="#FFBF9D"/>
<path d="M50.236 68.1943C51.3893 69.1703 52.285 70.4148 52.8442 71.8183C53.4261 73.1568 59.7218 77.7595 59.7218 77.7595L54.6112 81.8913C54.6112 81.8913 43.9668 82.3304 43.4695 80.7486C42.9722 79.1667 44.6334 72.1093 44.6334 72.1093L50.236 68.1943Z" fill="#E6A371"/>
<path d="M43.6018 86.1555C43.6628 86.3775 43.8063 86.5679 44.0029 86.6878C44.1995 86.8078 44.4345 86.8482 44.6599 86.8009L63.1764 82.7537L79.0796 79.8598L79.2118 78.4473L64.0176 80.6269L44.2789 85.0392C44.1599 85.0657 44.0475 85.116 43.9484 85.1872C43.8493 85.2583 43.7656 85.3487 43.7024 85.4529C43.6391 85.5572 43.5976 85.6732 43.5803 85.7939C43.563 85.9146 43.5703 86.0376 43.6018 86.1555Z" fill="#E0E0E0"/>
<path d="M72.5141 58.8672L63.9594 80.7697C63.8822 80.9686 63.8588 81.1844 63.8917 81.3953C63.9246 81.6061 64.0126 81.8045 64.1469 81.9705C64.2811 82.1364 64.4568 82.2639 64.6561 82.3401C64.8554 82.4163 65.0714 82.4385 65.2821 82.4044L84.169 78.918C84.3759 78.8838 84.5703 78.7959 84.7327 78.6631C84.8952 78.5304 85.02 78.3574 85.0948 78.1615L93.6759 56.4336C93.7156 56.3318 93.7289 56.2217 93.7144 56.1134C93.7 56.0052 93.6583 55.9024 93.5933 55.8146C93.5282 55.7269 93.442 55.6571 93.3427 55.6117C93.2433 55.5664 93.1341 55.547 93.0252 55.5554L73.5405 58.1054C73.3152 58.1234 73.0995 58.2045 72.9181 58.3392C72.7366 58.4738 72.5966 58.6568 72.5141 58.8672Z" fill="#E0E0E0"/>
<path d="M74.4452 58.1053C74.5192 58.1371 72.4665 63.5862 69.8689 70.2734C67.2713 76.9605 65.1075 82.3832 65.0334 82.3568C64.9594 82.3303 67.0121 76.8759 69.615 70.1887C72.2179 63.5016 74.3764 58.0789 74.4452 58.1053Z" fill="#372011"/>
<path d="M79.1748 68.4642C78.6457 69.5222 78.6775 70.6121 79.2541 70.903C79.8308 71.194 80.7249 70.5698 81.2539 69.5117C81.783 68.4536 81.7565 67.3637 81.1799 67.0781C80.6032 66.7924 79.7091 67.4061 79.1748 68.4642Z" fill="white"/>
<path d="M43.9139 82.7482C43.9139 82.7482 42.3691 76.2568 42.6812 75.0665C43.57 71.6436 48.1463 63.0043 47.7654 57.8302C47.3845 52.6561 42.7447 38.6206 42.7447 38.6206L38.3219 37.081C36.5337 40.9801 29.5927 40.1072 23.9266 35.5415L16.8268 36.9805L5.71684 71.5695L3.82286 84.1714C-0.684608 90.0491 4.51062 93.1651 4.51062 93.1651C4.51062 93.1651 13.0706 95.8633 19.8529 94.6518C24.9159 93.7524 32.3014 90.176 33.9573 88.8799C37.9198 85.7744 44.2049 85.9913 44.2049 85.9913L43.9139 82.7482Z" fill="#E6A371"/>
<path d="M31.4919 83.0657L36.1264 84.9597C36.1264 84.9597 38.7028 83.4255 39.0785 83.2826C41.2403 82.8853 43.4238 82.6167 45.6175 82.4785C46.3359 82.4949 47.0544 82.4507 47.7654 82.3462L41.6443 86.113L37.7664 91.2765C36.6994 91.6261 35.5876 91.8203 34.4652 91.8531C32.7616 91.8531 28.7409 90.8797 28.7409 90.8797L31.4919 83.0657Z" fill="#FFBF9D"/>
<path d="M17.7156 36.8748C17.7156 36.8748 9.58418 37.3562 6.72204 43.8476C4.81219 48.1752 0.902536 67.242 0.299424 70.7284C-0.303688 74.2148 0.299427 78.463 3.09279 80.6638C5.88615 82.8647 29.053 92.7314 29.053 92.7314L33.8832 83.4255L14.3403 71.2892H13.7054L16.0438 57.2853" fill="#E6A371"/>
<path d="M16.0438 57.28C16.0438 57.28 16.0438 57.3594 16.0438 57.5234L15.9327 58.2323C15.8322 58.8672 15.6893 59.793 15.4989 60.9833C15.1021 63.3958 14.536 66.8981 13.8165 71.2944L13.7319 71.1992H14.3932L33.9679 83.3038L34.0684 83.3672L34.0155 83.4678C32.4812 86.4304 30.8677 89.5518 29.1906 92.779L29.1377 92.8901L29.0213 92.8372C24.3181 90.8321 19.308 88.6471 14.1763 86.3246C12.1447 85.4041 10.1485 84.4747 8.18747 83.5365C7.21403 83.0604 6.24588 82.5843 5.29889 82.087C4.32747 81.6326 3.41882 81.0547 2.59546 80.3676C1.8278 79.6203 1.22735 78.7187 0.833741 77.7223C0.440419 76.7653 0.185673 75.757 0.0772059 74.7279C-0.0257353 73.7236 -0.0257353 72.7114 0.0772059 71.7071C0.172434 70.7125 0.378763 69.7549 0.553348 68.8026C1.29401 65.0147 2.06642 61.4277 2.81766 58.0736C3.56891 54.7194 4.32015 51.6086 5.08198 48.7888C5.46289 47.3816 5.85438 46.0431 6.28291 44.7945C6.6941 43.6149 7.29253 42.5092 8.05521 41.5198C8.7467 40.6841 9.54951 39.9471 10.4412 39.3295C11.1961 38.8207 11.9988 38.3866 12.8378 38.0333C13.998 37.5443 15.2104 37.1893 16.4512 36.9753C16.8744 36.9065 17.2024 36.8694 17.4193 36.8483C17.5303 36.8413 17.6416 36.8413 17.7526 36.8483L17.4246 36.8906C17.2024 36.9223 16.8956 36.97 16.4565 37.0493C15.2272 37.2824 14.0277 37.6515 12.8801 38.1497C12.0513 38.5055 11.2593 38.9414 10.5153 39.4512C9.64037 40.0681 8.85366 40.8014 8.17689 41.6308C7.42975 42.61 6.84558 43.7033 6.44691 44.8686C6.02897 46.1119 5.64276 47.4451 5.27243 48.8576C4.52119 51.6774 3.78581 54.7882 3.04515 58.1424C2.30449 61.4965 1.53737 65.0781 0.802 68.8661C0.632705 69.8184 0.426379 70.776 0.336441 71.7494C0.23072 72.7341 0.23072 73.7273 0.336441 74.7121C0.563931 76.6801 1.26756 78.7275 2.77534 80.1612C3.58319 80.8291 4.47192 81.3925 5.42056 81.8383C6.36227 82.3303 7.33042 82.8065 8.30386 83.2773C10.2613 84.212 12.2541 85.1396 14.2821 86.0601C19.4138 88.3826 24.4239 90.5676 29.0954 92.5832L28.9261 92.6467L33.7615 83.3408L33.8039 83.5048L14.2874 71.3367H14.3297H13.6948H13.5943V71.2362L15.3825 60.9569C15.5888 59.7665 15.7528 58.8407 15.8639 58.2111C15.9168 57.9096 15.9592 57.6821 15.9909 57.5075C16.0226 57.3329 16.0438 57.28 16.0438 57.28Z" fill="#372011"/>
<path d="M47.0617 46.731C47.0882 46.731 46.9506 47.223 46.8554 48.1118C46.8027 48.6515 46.785 49.194 46.8025 49.7359C46.8025 50.3708 46.903 51.0903 47.0141 51.8892C47.321 53.7502 47.5136 55.6283 47.5908 57.5129C47.6873 59.8412 47.3168 62.1653 46.5009 64.3482C45.6069 66.6495 44.4377 68.6916 43.7129 70.6703C43.1312 72.4515 42.9346 74.3359 43.1362 76.1988C43.2367 77.7859 43.3849 79.0927 43.4801 79.9868C43.5224 80.41 43.5542 80.7539 43.5806 81.0131C43.5924 81.1345 43.5924 81.2568 43.5806 81.3782C43.5422 81.2633 43.5173 81.1443 43.5065 81.0237C43.4642 80.7592 43.4166 80.4206 43.3478 79.9973C43.2262 79.1085 43.0463 77.8177 42.9193 76.2094C42.6886 74.3186 42.8691 72.4002 43.4483 70.5856C44.1731 68.57 45.337 66.5226 46.2205 64.2371C47.0187 62.0845 47.3889 59.7968 47.3104 57.5023C47.2424 55.6244 47.0657 53.752 46.7813 51.8944C46.6861 51.0956 46.6226 50.3655 46.612 49.7254C46.6023 49.1751 46.6359 48.625 46.7126 48.08C46.7584 47.7376 46.8255 47.3983 46.9136 47.0643C46.9509 46.9482 47.0005 46.8364 47.0617 46.731Z" fill="#372011"/>
<path d="M18.3504 50.487C18.2975 50.487 18.5515 49.7517 18.6837 48.5507C18.7618 47.848 18.7725 47.1393 18.7155 46.4346C18.6366 45.5734 18.47 44.7225 18.2182 43.8951C17.7399 42.3909 16.9725 40.9946 15.9591 39.7845C15.1814 38.8586 14.5836 38.3878 14.6207 38.3455C14.7782 38.4281 14.9241 38.5313 15.0545 38.6523C15.4352 38.9565 15.7892 39.2928 16.1126 39.6575C17.19 40.8577 17.9997 42.2733 18.488 43.8105C18.744 44.6597 18.9072 45.5343 18.9747 46.4187C19.0207 47.1393 18.9906 47.8629 18.8848 48.5772C18.8481 48.8534 18.7951 49.1272 18.726 49.3972C18.6836 49.6008 18.6252 49.8006 18.5515 49.995C18.5047 50.1666 18.4372 50.3318 18.3504 50.487Z" fill="#372011"/>
<path d="M29.6191 69.8501C30.3787 69.6364 31.1158 69.3494 31.8199 68.993C32.1677 68.7983 32.5033 68.5828 32.8251 68.3476C33.183 68.0645 33.5256 67.7625 33.8514 67.4429C34.5952 66.7066 35.2439 65.8802 35.7825 64.9829C36.7639 63.349 37.4599 61.56 37.8405 59.6924C38.1156 58.2481 38.1367 57.3329 38.1949 57.3382C38.2165 57.551 38.2165 57.7655 38.1949 57.9783C38.1742 58.5651 38.1158 59.15 38.0203 59.7294C37.6941 61.644 37.0103 63.4801 36.0047 65.1416C35.4591 66.0627 34.7898 66.9047 34.0155 67.644C33.6815 67.9667 33.3281 68.2688 32.9574 68.5486C32.6193 68.7821 32.2658 68.9925 31.8993 69.1782C31.6025 69.3365 31.2928 69.4692 30.9734 69.575C30.7363 69.6642 30.4921 69.7332 30.2434 69.7813C30.0377 69.8228 29.8288 69.8459 29.6191 69.8501Z" fill="#372011"/>
<path d="M8.58423 73.8233C9.29043 72.9747 10.2006 72.3193 11.2295 71.9188C12.216 71.4372 13.3068 71.2081 14.4037 71.2522C13.3558 71.4748 12.3278 71.7827 11.33 72.1727C10.3712 72.647 9.45284 73.199 8.58423 73.8233Z" fill="#372011"/>
<path d="M48.9505 83.5682C48.9254 83.7317 48.8521 83.884 48.7399 84.0056C48.6278 84.1272 48.4819 84.2125 48.3209 84.2507C48.2506 84.2588 48.1796 84.2588 48.1093 84.2507C47.5802 84.2507 47.3633 83.3037 47.3633 83.3037L45.0673 83.6158C45.0673 83.6158 41.7872 87.7741 40.6286 88.9539C36.0735 93.5989 34.8884 90.2447 34.8884 90.2447L36.2957 84.7903L39.2107 79.9125C39.2107 79.9125 39.0256 80.2088 39.0943 79.4417C39.1631 78.6745 40.5122 78.5423 40.5122 78.5423C40.6021 78.1455 41.3957 77.7752 41.3957 77.7752L45.0514 77.098C45.4244 77.0287 45.8082 77.0441 46.1745 77.143C46.5407 77.2419 46.8801 77.4218 47.1676 77.6693L49.3843 79.5739C49.3843 79.5739 50.6963 81.0341 50.691 81.4732C50.6851 81.6553 50.6121 81.8289 50.4862 81.9607C50.3603 82.0925 50.1902 82.1732 50.0085 82.1874C50.0085 82.1874 50.1778 83.3619 49.8974 83.4888C49.5897 83.5657 49.2706 83.5854 48.9557 83.547L48.9505 83.5682Z" fill="#FFBF9D"/>
<path d="M40.4063 82.5208C40.4063 82.5578 40.8772 82.3674 41.6443 82.1716C42.6393 81.9167 43.6648 81.801 44.6916 81.8278C45.2562 81.8439 45.8187 81.904 46.3739 82.0076C46.8712 82.1187 47.3791 82.1769 47.6119 82.4467C47.6635 82.5049 47.699 82.5755 47.7148 82.6516C47.7306 82.7278 47.7261 82.8067 47.7019 82.8806C47.6665 83.0004 47.5966 83.1071 47.5008 83.1874C47.3421 83.3197 47.2045 83.3038 47.2098 83.3302C47.2151 83.3567 47.3474 83.3937 47.559 83.2615C47.6824 83.1812 47.7755 83.062 47.8235 82.9229C47.8625 82.828 47.8752 82.7244 47.8603 82.6229C47.8454 82.5215 47.8034 82.4259 47.7389 82.3462C47.5832 82.1669 47.3765 82.0396 47.1464 81.9812C46.9189 81.9124 46.6755 81.8489 46.4163 81.796C44.817 81.4628 43.1595 81.5373 41.5967 82.0129C41.1769 82.1222 40.7757 82.2934 40.4063 82.5208Z" fill="#FF9A6C"/>
<path d="M40.856 84.8485C40.856 84.912 42.3003 84.4147 44.0991 83.9756C45.8978 83.5365 47.3844 83.3195 47.3739 83.2508C47.043 83.2258 46.7102 83.2453 46.3845 83.309C45.5956 83.4105 44.8131 83.5571 44.0409 83.7481C43.2686 83.9369 42.5074 84.1683 41.7607 84.4411C41.4428 84.5372 41.1387 84.6741 40.856 84.8485Z" fill="#FF9A6C"/>
<path d="M48.9028 83.4836C48.8959 83.3507 48.8728 83.2193 48.8341 83.0921C48.7486 82.7422 48.6426 82.3978 48.5166 82.0604C48.431 81.8224 48.3248 81.5922 48.1992 81.3727C48.0516 81.1153 47.8537 80.8904 47.6172 80.7114C47.1063 80.2812 46.5145 79.9574 45.8767 79.7591C45.2471 79.5549 44.5914 79.4426 43.9298 79.4258C43.3929 79.4338 42.8593 79.512 42.3427 79.6586C41.8983 79.775 41.5491 79.8966 41.311 79.976C41.1823 80.0084 41.0592 80.0602 40.946 80.1294C41.4296 80.0557 41.9083 79.9533 42.3797 79.8226C42.8893 79.7019 43.4114 79.6415 43.9351 79.6427C44.5757 79.6706 45.2094 79.7863 45.8185 79.9866C46.4292 80.1753 46.9984 80.4788 47.4956 80.8807C47.8975 81.206 48.2015 81.6363 48.3738 82.1239C48.7124 82.9492 48.8552 83.4994 48.9028 83.4836Z" fill="#FF9A6C"/>
<path d="M41.84 78.6377C41.84 78.6747 42.3691 78.5266 43.2579 78.3626C44.1467 78.1986 45.427 77.9023 46.5115 78.7964C47.4913 79.4118 48.3814 80.1595 49.1567 81.0184C49.4406 81.4022 49.6885 81.8112 49.8974 82.2405C49.8884 82.1089 49.8562 81.9799 49.8022 81.8596C49.6728 81.5215 49.4945 81.2042 49.2731 80.9179C48.5217 80.0083 47.6285 79.2258 46.6279 78.6006C46.3495 78.4017 46.0474 78.2382 45.7285 78.1139C45.4218 78.012 45.0991 77.9672 44.7762 77.9817C44.2412 77.9998 43.7094 78.0725 43.1891 78.1986C42.723 78.2885 42.2698 78.436 41.84 78.6377Z" fill="#FF9A6C"/>
<path d="M42.6865 86.88C42.7446 86.8079 42.7976 86.7319 42.8452 86.6525L43.2949 85.9965C43.8591 85.1922 44.4703 84.422 45.1254 83.6899H45.0778L47.3792 83.3936L47.2733 83.3248C47.3199 83.5091 47.3892 83.6868 47.4797 83.8539C47.5687 84.0403 47.7103 84.1967 47.887 84.3036C47.992 84.3484 48.1075 84.3631 48.2203 84.3459C48.3282 84.3415 48.4341 84.3163 48.5325 84.2718C48.733 84.1726 48.8922 84.0059 48.9822 83.801C49.0079 83.7506 49.0274 83.6973 49.0404 83.6423V83.5735L48.924 83.6634H49.0086C49.1144 83.6634 49.2202 83.6634 49.326 83.6634C49.4318 83.6634 49.5377 83.6634 49.6435 83.6634C49.7009 83.6562 49.7575 83.6438 49.8128 83.6264C49.8851 83.6135 49.9517 83.5783 50.0032 83.5259C50.0785 83.4222 50.1225 83.2992 50.1302 83.1714C50.1381 83.0604 50.1381 82.9491 50.1302 82.8381C50.1275 82.6169 50.1116 82.3961 50.0826 82.1768L49.9821 82.3038C50.1405 82.291 50.2925 82.2348 50.4212 82.1415C50.55 82.0482 50.6506 81.9214 50.7121 81.7747C50.7705 81.6177 50.7705 81.445 50.7121 81.288C50.6541 81.1505 50.5851 81.0178 50.5058 80.8912C50.178 80.4038 49.8156 79.9406 49.4213 79.5051L48.2627 78.4894L47.5114 77.8439C47.2704 77.616 47.0062 77.4138 46.7231 77.2408C46.4257 77.0839 46.1004 76.9868 45.7656 76.9551C45.4437 76.9363 45.1208 76.9666 44.808 77.0451L41.3851 77.6905C41.1966 77.7811 41.0191 77.893 40.856 78.0238C40.6656 78.1492 40.5237 78.3358 40.454 78.5529L40.565 78.4788C40.3599 78.4514 40.1512 78.4742 39.9568 78.5451C39.7624 78.6161 39.588 78.7331 39.4488 78.8862C39.2242 79.1905 39.1222 79.5682 39.1631 79.9442V79.8913L37.1474 83.2349L36.6184 84.1554C36.5502 84.2592 36.4918 84.369 36.4438 84.4834C36.528 84.3901 36.6008 84.2871 36.6607 84.1766L37.2374 83.2878L39.2689 80.0024V79.9707C39.2342 79.6387 39.3269 79.3059 39.5281 79.0396C39.6455 78.9108 39.7929 78.8129 39.9572 78.7548C40.1214 78.6967 40.2975 78.68 40.4698 78.7063H40.5598V78.6216C40.627 78.4596 40.7412 78.3214 40.8878 78.2248C41.0462 78.1084 41.2144 78.0057 41.3904 77.918L44.8397 77.2937C45.1319 77.2213 45.4332 77.1928 45.7338 77.2091C46.0379 77.2344 46.3333 77.3227 46.6015 77.4683C46.8703 77.6329 47.1204 77.8263 47.3474 78.045L48.0987 78.6904L49.3208 79.685C49.7039 80.1118 50.0575 80.5643 50.3788 81.0394C50.4529 81.1507 50.5149 81.2695 50.564 81.3938C50.6033 81.4996 50.6033 81.616 50.564 81.7218C50.5198 81.8285 50.447 81.921 50.3537 81.9891C50.2603 82.0573 50.1501 82.0984 50.035 82.108H49.9186V82.2191C49.9476 82.4296 49.9635 82.6416 49.9662 82.854C49.9855 83.0342 49.9582 83.2164 49.8868 83.383C49.8595 83.4011 49.829 83.4136 49.7969 83.4201C49.7523 83.4344 49.7061 83.4433 49.6593 83.4465C49.5625 83.4544 49.4652 83.4544 49.3684 83.4465C49.268 83.4544 49.1672 83.4544 49.0668 83.4465H48.9875C49.0933 83.3725 48.8499 83.5523 48.8764 83.5365V83.5735C48.8678 83.6158 48.8536 83.6567 48.834 83.6952C48.7662 83.8568 48.6422 83.9883 48.4849 84.0655C48.4084 84.1008 48.3257 84.1206 48.2415 84.1237C48.1677 84.1483 48.0878 84.1483 48.014 84.1237C47.743 83.9153 47.5554 83.617 47.485 83.2825V83.2031H47.4056L45.1095 83.5312H45.0778C44.4303 84.2792 43.833 85.0692 43.2896 85.896C43.1045 86.187 42.9669 86.425 42.877 86.5785C42.8015 86.6709 42.7376 86.7722 42.6865 86.88Z" fill="#FF9A6C"/>
<g opacity="0.3">
<path d="M38.0045 59.7983C37.6044 61.7562 36.8573 63.6268 35.7984 65.3216C34.534 67.2579 32.9521 68.2789 30.9841 69.4905L30.8359 69.5486C32.0185 69.562 33.1872 69.2936 34.2455 68.7657C35.3037 68.2377 36.2211 67.4654 36.9216 66.5125C37.6221 65.5597 38.0857 64.4538 38.274 63.2862C38.4623 62.1187 38.37 60.9231 38.0045 59.7983Z" fill="black"/>
</g>
</svg>
