<svg width="76" height="77" viewBox="0 0 76 77" fill="none" xmlns="http://www.w3.org/2000/svg">
<path d="M42.3364 42.6194V9.03789C48.93 9.03992 55.3766 10.9866 60.8694 14.6343C66.3622 18.282 70.6572 23.4687 73.2168 29.5453C75.7765 35.6219 76.487 42.3184 75.2597 48.7968C74.0323 55.2752 70.9215 61.2478 66.3165 65.967C61.7116 70.6862 55.8171 73.9424 49.3707 75.3282C42.9243 76.714 36.2124 76.1677 30.0749 73.7577C23.9374 71.3478 18.647 67.1812 14.8658 61.7795C11.0846 56.3778 8.98052 49.9808 8.81689 43.3891L42.3364 42.6194Z" fill="#E1E4EA"/>
<path d="M34.1538 33.5691L0.572278 34.3264C0.564906 25.3517 3.96358 16.7086 10.0819 10.1427C16.3518 3.86051 24.7969 0.229143 33.6697 0L34.1538 33.5691Z" fill="#E1E4EA"/>
</svg>
