<svg width="355" height="226" viewBox="0 0 355 226" fill="none" xmlns="http://www.w3.org/2000/svg">
<path d="M126.791 21.2358H101.053V28.0447H126.791V21.2358Z" fill="#F5F5F5"/>
<path d="M115.909 35.2187C115.905 35.1764 115.905 35.1339 115.909 35.0917V34.7425C115.909 34.4251 115.909 33.9754 115.909 33.404C115.909 32.2296 115.909 30.5366 115.866 28.4098L115.946 28.4892L90.1652 28.5368L90.2975 28.4098V35.2187L90.1705 35.0864L108.513 35.1446L113.925 35.1816H115.39H115.771H115.909H115.787H115.422H113.988L108.602 35.2187L90.1652 35.3456H90.033V28.4098L90.1652 28.2776L115.903 28.3252H115.983V28.4098C115.983 30.5578 115.951 32.2666 115.94 33.4517C115.94 34.0177 115.94 34.4568 115.94 34.7743C115.94 34.9118 115.94 35.0229 115.94 35.1076C115.932 35.1453 115.922 35.1824 115.909 35.2187Z" fill="black"/>
<path d="M350.963 99.8203H325.225V106.629H350.963V99.8203Z" fill="#F5F5F5"/>
<path d="M340.081 113.803C340.076 113.763 340.076 113.722 340.081 113.681V113.332C340.081 113.009 340.081 112.565 340.081 111.988C340.081 110.814 340.055 109.126 340.039 106.994L340.118 107.074L314.38 107.126C314.438 107.068 314.248 107.253 314.507 106.994V113.803L314.38 113.676L332.722 113.734L338.134 113.771H339.6H339.98H340.118C340.078 113.776 340.037 113.776 339.996 113.771H339.631H338.192L332.812 113.808L314.38 113.867H314.248V107.005L314.38 106.873L340.118 106.925H340.197V107.005C340.197 109.158 340.166 110.862 340.155 112.047C340.155 112.613 340.155 113.052 340.155 113.369C340.155 113.507 340.155 113.618 340.155 113.708C340.133 113.742 340.109 113.774 340.081 113.803Z" fill="black"/>
<path d="M181.87 13.7393C181.868 13.6988 181.868 13.6582 181.87 13.6177V13.2685C181.87 12.9458 181.87 12.5014 181.87 11.9247C181.87 10.7502 181.87 9.06257 181.828 6.93052L181.907 7.00988L156.169 7.06278L156.301 6.93052V10.3799C156.301 11.5191 156.301 12.6354 156.301 13.7288L156.174 13.6018L174.516 13.66L179.928 13.697H181.394H181.78H181.912C181.912 13.697 181.875 13.697 181.796 13.697H181.426H179.992L174.606 13.734L156.174 13.7922H156.047V13.6653C156.047 12.5701 156.047 11.4539 156.047 10.3164V6.9411L156.18 6.80884L181.918 6.86174H181.997V6.9411C181.997 9.09431 181.965 10.7978 181.955 11.9829C181.955 12.549 181.955 12.9934 181.955 13.3055V13.6441C181.875 13.7076 181.875 13.7446 181.87 13.7393Z" fill="black"/>
<path d="M185.362 6.93049C185.358 6.88826 185.358 6.84576 185.362 6.80352C185.362 6.703 185.362 6.58662 185.362 6.43848C185.362 6.10518 185.362 5.65021 185.362 5.07355C185.362 3.88319 185.33 2.19554 185.309 0.12168L185.404 0.216909L169.898 0.269812C169.781 0.386202 170.056 0.111099 170.025 0.137551V3.63454C170.025 4.77199 170.025 5.87769 170.025 6.93578L169.903 6.80881L180.965 6.8723L184.187 6.90404H185.055H185.367C185.274 6.91161 185.18 6.91161 185.087 6.90404H184.24L181.066 6.93578L169.919 6.99927H169.792V6.8723C169.792 5.81421 169.792 4.7085 169.792 3.57106V0.132261L169.924 0L185.388 0.037033H185.483V0.132261C185.483 2.24844 185.441 3.9361 185.43 5.14232C185.43 5.7084 185.43 6.15809 185.43 6.4861C185.43 6.8141 185.393 6.93579 185.362 6.93049Z" fill="black"/>
<path d="M309.886 30.9199C309.884 30.8794 309.884 30.8388 309.886 30.7982V30.4491C309.886 30.1263 309.886 29.6819 309.886 29.1106C309.886 27.9361 309.886 26.2432 309.844 24.1111L309.923 24.1905L284.185 24.2434L284.317 24.1111V27.5658C284.317 28.705 284.317 29.8213 284.317 30.9146L284.19 30.7877L302.532 30.8458L307.945 30.8829H309.41H309.796H309.929C309.929 30.8829 309.891 30.8829 309.812 30.8829H309.442H308.008L302.58 31.0046L284.148 31.0628H284V30.9305C284 29.8354 284 28.7191 284 27.5816V24.127L284.132 24L309.87 24.0476H309.95V24.127C309.95 26.2802 309.918 27.9837 309.907 29.1741C309.907 29.7401 309.907 30.1793 309.907 30.4967V30.83C309.891 30.8882 309.891 30.9252 309.886 30.9199Z" fill="black"/>
<path d="M38.8597 120.941C38.8551 120.9 38.8551 120.86 38.8597 120.819V120.47C38.8597 120.147 38.8597 119.703 38.8597 119.132C38.8597 117.952 38.8333 116.264 38.8174 114.132L38.8968 114.211L13.1323 114.264L13.2645 114.132V120.941L13.1323 120.835L31.4743 120.893L36.8864 120.93H38.3519H38.7328H38.8703C38.8703 120.93 38.8333 120.93 38.7486 120.93H38.3836H36.9499L31.5642 120.962L13.1323 121.073H13V114.143C13.2645 113.883 13.0741 114.069 13.1323 114.01L38.8703 114.063H38.9497V114.143C38.9497 116.296 38.9179 117.999 38.9074 119.19C38.9074 119.751 38.9074 120.195 38.9074 120.507V120.835C38.865 120.909 38.865 120.946 38.8597 120.941Z" fill="black"/>
<path d="M354.058 225.712C354.058 225.786 274.792 225.85 177.034 225.85C79.2775 225.85 0 225.786 0 225.712C0 225.638 79.2457 225.574 177.034 225.574C274.823 225.574 354.058 225.643 354.058 225.712Z" fill="#372011"/>
<path d="M290.091 222.998L290.621 222.961L291.292 222.924C291.557 222.924 291.864 222.844 292.213 222.797L292.774 222.712L293.382 222.553L294.049 222.379L294.758 222.114C295.29 221.919 295.807 221.687 296.308 221.421C296.578 221.289 296.837 221.109 297.117 220.945L297.54 220.686L297.948 220.379C300.733 218.353 302.609 215.312 303.169 211.914C303.207 211.66 303.244 211.412 303.286 211.158C303.328 210.904 303.318 210.629 303.333 210.38C303.371 209.851 303.376 209.322 303.371 208.793C303.371 207.707 303.371 206.58 303.371 205.412C303.371 203.085 303.371 200.605 303.371 197.974C303.371 176.95 303.371 146.524 303.323 108.93C303.323 99.5345 303.323 89.6995 303.323 79.4255C303.323 74.3008 303.323 69.0703 303.323 63.734V57.6764C303.323 57.0045 303.323 56.3168 303.286 55.6555C303.192 54.3009 302.794 52.9848 302.123 51.8044C301.452 50.6241 300.524 49.6096 299.408 48.8361C298.277 48.0527 296.981 47.5404 295.62 47.3389C295.451 47.3389 295.281 47.2807 295.091 47.2648H294.562C294.218 47.2648 293.869 47.2648 293.504 47.2648H229.225H67.5168H64.8292C64.3848 47.2648 63.9298 47.2648 63.4907 47.2648L62.8347 47.2965C62.6125 47.323 62.3956 47.36 62.1787 47.3918C61.9602 47.4175 61.7443 47.4617 61.5333 47.524C61.3163 47.5822 61.1047 47.6298 60.8931 47.6933C60.4752 47.8298 60.0669 47.9942 59.671 48.1853C58.8742 48.5577 58.1348 49.0423 57.4755 49.6243C56.8208 50.1963 56.2492 50.857 55.7772 51.5871C55.3023 52.3234 54.9253 53.1183 54.6557 53.9519C54.4015 54.7901 54.2592 55.6582 54.2324 56.5337C54.206 57.4119 54.2324 58.306 54.2324 59.1789V121.569C54.2324 148.619 54.2324 174.712 54.2324 199.566V208.83C54.2324 209.597 54.2589 210.354 54.3118 211.11L54.4811 212.232C54.5551 212.602 54.6662 212.962 54.7562 213.332C55.1763 214.779 55.8381 216.143 56.7137 217.369C58.4637 219.815 60.9995 221.587 63.8981 222.389C64.2578 222.474 64.607 222.596 64.9562 222.649L66.0513 222.813C66.7867 222.855 67.5221 222.903 68.2627 222.887H106.957H168.448L257.481 222.929L281.68 222.998L257.471 223.024L168.437 223.067H106.947H68.2257C67.4903 223.067 66.7391 223.035 65.9878 222.993L64.8768 222.823C64.5012 222.77 64.1467 222.649 63.7764 222.564C60.8245 221.745 58.2422 219.94 56.4597 217.448C55.567 216.2 54.891 214.81 54.4599 213.337C54.37 212.962 54.2589 212.592 54.1848 212.216L54.0102 211.073C53.9573 210.306 53.915 209.528 53.9309 208.767C53.9309 205.698 53.9309 202.61 53.9309 199.503C53.9309 174.638 53.9309 148.556 53.9309 121.506C53.9309 107.98 53.9309 94.2246 53.9309 80.2402V59.2054C53.9309 58.3166 53.9309 57.4383 53.9309 56.5601C53.959 55.6632 54.1049 54.7738 54.3647 53.9149C54.6438 53.0562 55.0314 52.2366 55.518 51.476C56.0141 50.7201 56.6103 50.035 57.2903 49.4392C57.9695 48.8411 58.7301 48.3424 59.5493 47.9578C59.9575 47.7551 60.378 47.5784 60.8085 47.4288C61.0254 47.3653 61.2476 47.3177 61.4698 47.2595C61.686 47.1955 61.9072 47.1494 62.1311 47.122C62.3586 47.0902 62.5808 47.0479 62.803 47.0214L63.4854 46.9897C63.9404 46.958 64.3795 46.9897 64.8292 46.9897H67.5168H229.225H293.541C293.89 46.9897 294.239 46.9897 294.599 46.9897L295.128 47.0161C295.303 47.0161 295.477 47.0638 295.657 47.0902C297.052 47.2955 298.379 47.8226 299.535 48.6297C300.68 49.4219 301.631 50.4613 302.32 51.671C303.009 52.8807 303.417 54.2298 303.513 55.6184C303.561 56.3062 303.513 56.9781 303.545 57.6553V63.697C303.545 69.0297 303.545 74.2602 303.545 79.3884C303.545 89.6519 303.545 99.4869 303.545 108.893C303.545 146.487 303.513 176.913 303.503 197.937C303.503 200.565 303.503 203.044 303.503 205.375C303.503 206.545 303.503 207.671 303.503 208.756C303.503 209.285 303.503 209.814 303.466 210.343C303.466 210.608 303.466 210.872 303.413 211.126C303.36 211.38 303.333 211.655 303.296 211.883C302.722 215.304 300.821 218.361 298.006 220.39L297.599 220.696L297.175 220.956C296.89 221.12 296.646 221.3 296.355 221.437C295.851 221.697 295.332 221.927 294.8 222.125L294.086 222.384L293.414 222.553L292.805 222.707L292.245 222.791C291.938 222.848 291.629 222.888 291.319 222.913L290.647 222.945L290.091 222.998Z" fill="#372011"/>
<path d="M303.358 226H56.8936C55.2012 226.002 53.5249 225.657 51.9607 224.985C50.3964 224.312 48.9749 223.325 47.7774 222.08C46.5799 220.836 45.6299 219.358 44.9818 217.73C44.3336 216.103 44 214.359 44 212.598V210.513C44.0006 210.442 44.0149 210.373 44.0422 210.309C44.0694 210.244 44.109 210.186 44.1585 210.138C44.208 210.091 44.2663 210.054 44.33 210.03C44.3936 210.006 44.4612 209.997 44.5286 210.001H313.503C313.635 210.001 313.761 210.056 313.854 210.153C313.948 210.25 314 210.381 314 210.518V214.953C313.999 216.405 313.722 217.843 313.187 219.185C312.651 220.526 311.867 221.745 310.878 222.771C309.89 223.797 308.717 224.61 307.427 225.164C306.137 225.718 304.754 226.002 303.358 226Z" fill="#F6F7FB"/>
<path d="M303.164 225.685L303.524 225.659C303.878 225.651 304.232 225.619 304.582 225.564C305.988 225.38 307.34 224.903 308.55 224.162C309.447 223.634 310.259 222.972 310.957 222.199C311.806 221.267 312.483 220.192 312.957 219.025C313.498 217.66 313.76 216.202 313.729 214.734C313.729 213.946 313.729 213.147 313.729 212.301V211.026C313.729 210.809 313.729 210.592 313.586 210.459C313.444 210.327 313.221 210.343 312.999 210.338L252.926 210.38L54.7403 210.422H44.1383C44.0824 210.42 44.0266 210.429 43.9743 210.449C43.925 210.471 43.8814 210.504 43.8466 210.545C43.8118 210.586 43.7867 210.635 43.7732 210.687C43.7617 210.824 43.7617 210.962 43.7732 211.1V211.999C43.7732 212.597 43.7732 213.189 43.8261 213.782C43.9097 214.959 44.1645 216.117 44.5827 217.221C44.7869 217.764 45.0254 218.294 45.2969 218.808C45.5832 219.342 45.903 219.858 46.2544 220.353C47.6472 222.233 49.528 223.697 51.693 224.585C52.7744 225.017 53.9072 225.307 55.063 225.447C56.2111 225.558 57.3856 225.532 58.5548 225.532H131.96L221.056 225.564L281.151 225.643H297.482L281.151 225.67L221.083 225.717L131.96 225.812H79.3409H58.5548C57.3909 225.812 56.2164 225.812 55.0313 225.722C53.8498 225.581 52.692 225.286 51.5872 224.844C49.3651 223.928 47.4379 222.418 46.0164 220.48C45.6601 219.996 45.335 219.491 45.0429 218.967C44.7684 218.432 44.5246 217.883 44.3128 217.321C43.8875 216.192 43.6273 215.007 43.5404 213.803C43.5034 213.2 43.477 212.597 43.4875 211.999V211.1C43.4727 210.94 43.4727 210.778 43.4875 210.618C43.5262 210.48 43.6095 210.359 43.7245 210.274C43.8394 210.189 43.9794 210.144 44.1224 210.147H54.735L252.921 210.19L312.994 210.232H313.327C313.45 210.242 313.567 210.294 313.655 210.38C313.744 210.462 313.802 210.573 313.819 210.692C313.819 210.819 313.819 210.914 313.819 211.026C313.819 211.454 313.819 211.883 313.819 212.301V214.734C313.846 216.213 313.576 217.683 313.026 219.056C312.545 220.227 311.859 221.302 310.999 222.231C309.317 224.066 307.044 225.251 304.577 225.58C304.227 225.633 303.873 225.661 303.519 225.664L303.164 225.685Z" fill="#372011"/>
<path d="M289.721 57.8457H67.0512C65.5173 57.8457 64.2737 59.0892 64.2737 60.6232V199.159C64.2737 200.693 65.5173 201.937 67.0512 201.937H289.721C291.255 201.937 292.499 200.693 292.499 199.159V60.6232C292.499 59.0892 291.255 57.8457 289.721 57.8457Z" fill="#F6F7FB"/>
<path d="M289.726 201.936C289.726 201.936 289.89 201.936 290.203 201.884C290.672 201.797 291.113 201.593 291.483 201.291C291.784 201.042 292.028 200.731 292.2 200.38C292.371 200.029 292.466 199.645 292.477 199.254C292.477 198.32 292.477 197.235 292.477 196.001C292.477 191.07 292.477 183.806 292.477 174.442C292.477 155.724 292.451 128.637 292.43 95.1645C292.43 86.795 292.43 78.0375 292.43 68.8921C292.43 66.6102 292.43 64.3035 292.43 61.9722V61.1098C292.441 60.8238 292.43 60.5373 292.398 60.2528C292.32 59.6894 292.062 59.1662 291.663 58.7609C291.262 58.3565 290.743 58.0897 290.181 57.999C289.894 57.9644 289.603 57.9538 289.314 57.9673H273.919H211.084H67.1041C66.7241 57.9661 66.3484 58.0467 66.0024 58.2037C65.6564 58.3608 65.3483 58.5905 65.099 58.8773C64.8514 59.1637 64.6707 59.5016 64.57 59.8666C64.4755 60.2397 64.4398 60.6252 64.4642 61.0093V130.812C64.4642 142.853 64.4642 154.668 64.4642 166.258V198.17C64.395 198.843 64.4634 199.523 64.6652 200.169C64.9225 200.784 65.4024 201.279 66.009 201.556C66.3088 201.693 66.6319 201.772 66.9613 201.788C67.2893 201.788 67.6437 201.788 67.9876 201.788H126.712H181.463L260.74 201.831L282.293 201.857L260.74 201.884L181.463 201.926H126.712H96.2122H67.9453C67.5961 201.926 67.2628 201.926 66.8872 201.926C66.5219 201.907 66.1633 201.821 65.8291 201.672C65.1676 201.366 64.6435 200.824 64.3584 200.154C64.2165 199.819 64.141 199.459 64.1362 199.095V166.268C64.1362 154.682 64.1362 142.867 64.1362 130.822V94.0747C64.1362 87.8531 64.1362 81.5892 64.1362 75.283V61.0252C64.1144 60.614 64.1554 60.2019 64.2578 59.8031C64.3705 59.3986 64.5751 59.0256 64.8557 58.7133C65.1301 58.3963 65.4698 58.1424 65.8515 57.9689C66.2331 57.7954 66.6478 57.7064 67.0671 57.7081H211.047H273.882H289.277C289.577 57.6943 289.878 57.7067 290.176 57.7451C290.778 57.8481 291.333 58.1366 291.763 58.5704C292.194 59.0093 292.472 59.575 292.557 60.184C292.591 60.479 292.602 60.7762 292.589 61.0728V68.8656C292.589 78.0005 292.589 86.758 292.589 95.138C292.589 128.611 292.557 155.698 292.546 174.416C292.546 183.78 292.546 191.043 292.546 195.974C292.546 197.209 292.546 198.293 292.546 199.228C292.532 199.624 292.434 200.012 292.258 200.367C292.081 200.722 291.832 201.035 291.525 201.286C291.154 201.591 290.709 201.793 290.234 201.873C290.115 201.893 289.995 201.904 289.875 201.905L289.726 201.936Z" fill="#372011"/>
<path d="M154.153 209.999L157.507 215.687H204.682L207.798 209.999H154.153Z" fill="#372011"/>
<path d="M180.584 52.9678C180.584 53.3382 180.475 53.7003 180.269 54.0083C180.063 54.3163 179.77 54.5563 179.428 54.6981C179.086 54.8398 178.709 54.8769 178.346 54.8046C177.983 54.7324 177.649 54.554 177.387 54.2921C177.125 54.0302 176.947 53.6964 176.875 53.3332C176.802 52.9699 176.84 52.5933 176.981 52.2511C177.123 51.9089 177.363 51.6164 177.671 51.4106C177.979 51.2048 178.341 51.095 178.712 51.095C179.208 51.095 179.685 51.2923 180.036 51.6435C180.387 51.9947 180.584 52.4711 180.584 52.9678Z" fill="#372011"/>
<path d="M279.643 70.6749H270.898C270.732 70.6749 270.573 70.6092 270.456 70.4921C270.339 70.375 270.273 70.2162 270.273 70.0507V65.7019C270.273 65.5373 270.338 65.3793 270.454 65.2623C270.57 65.1454 270.728 65.079 270.892 65.0776H279.643C279.664 65.0776 279.684 65.0819 279.703 65.09C279.722 65.0982 279.74 65.1102 279.754 65.1252C279.769 65.1392 279.782 65.1563 279.79 65.1755C279.798 65.1947 279.802 65.2155 279.802 65.2364V66.6701H280.738C280.78 66.6701 280.82 66.6868 280.85 66.7166C280.88 66.7463 280.897 66.7867 280.897 66.8288V68.945C280.897 68.9871 280.88 69.0274 280.85 69.0572C280.82 69.0869 280.78 69.1037 280.738 69.1037H279.802V70.5374C279.796 70.5757 279.777 70.6108 279.748 70.6362C279.719 70.6615 279.682 70.6753 279.643 70.6749ZM279.479 65.3845H270.892C270.852 65.3845 270.813 65.3925 270.776 65.4079C270.739 65.4234 270.705 65.4461 270.677 65.4747C270.649 65.5032 270.627 65.5371 270.612 65.5743C270.597 65.6115 270.59 65.6513 270.591 65.6913V70.0401C270.591 70.0804 270.599 70.1203 270.614 70.1575C270.63 70.1947 270.652 70.2286 270.681 70.2571C270.709 70.2855 270.743 70.3081 270.78 70.3236C270.818 70.339 270.857 70.3469 270.898 70.3469H279.479V68.9132C279.479 68.8919 279.483 68.8708 279.491 68.8512C279.5 68.8316 279.512 68.8139 279.527 68.7991C279.542 68.7843 279.561 68.7727 279.58 68.765C279.6 68.7574 279.622 68.7538 279.643 68.7545H280.574V66.9769H279.643C279.622 66.9776 279.6 66.974 279.58 66.9664C279.561 66.9587 279.542 66.9471 279.527 66.9323C279.512 66.9175 279.5 66.8998 279.491 66.8802C279.483 66.8606 279.479 66.8395 279.479 66.8182V65.3845Z" fill="#372011"/>
<path d="M271.305 69.1091V66.6438C271.305 66.5035 271.361 66.3689 271.46 66.2697C271.559 66.1705 271.694 66.1147 271.834 66.1147H275.945C276.085 66.1147 276.22 66.1705 276.319 66.2697C276.418 66.3689 276.474 66.5035 276.474 66.6438V69.1091C276.474 69.2494 276.418 69.384 276.319 69.4832C276.22 69.5824 276.085 69.6382 275.945 69.6382H271.839C271.77 69.6389 271.7 69.6257 271.635 69.5994C271.571 69.5732 271.512 69.5343 271.462 69.4851C271.412 69.4359 271.373 69.3774 271.346 69.3128C271.319 69.2483 271.305 69.1791 271.305 69.1091Z" fill="#372011"/>
<path d="M278.781 200.884H233.166V204.788H278.781V200.884Z" fill="#E6A371"/>
<path d="M276.135 200.884H275.358V204.788H276.135V200.884Z" fill="white"/>
<path d="M274.501 200.884H273.723V204.788H274.501V200.884Z" fill="white"/>
<path d="M238.171 200.884H237.393V204.788H238.171V200.884Z" fill="white"/>
<path d="M236.536 200.884H235.759V204.788H236.536V200.884Z" fill="white"/>
<path d="M269.512 203.91C269.512 203.91 269.565 203.91 269.665 203.91C269.81 203.878 269.941 203.802 270.041 203.693C270.116 203.615 270.172 203.521 270.205 203.418C270.235 203.289 270.235 203.155 270.205 203.026C270.184 202.874 270.114 202.732 270.004 202.624C269.879 202.503 269.717 202.428 269.543 202.413H263.264H242.43C242.247 202.414 242.072 202.486 241.941 202.613C241.81 202.74 241.733 202.913 241.726 203.095C241.717 203.218 241.735 203.34 241.779 203.455C241.826 203.563 241.899 203.657 241.991 203.73C242.084 203.803 242.192 203.852 242.308 203.873C242.431 203.881 242.555 203.881 242.678 203.873H260.888L251.524 203.952H242.694C242.568 203.963 242.44 203.963 242.313 203.952C242.184 203.934 242.061 203.882 241.958 203.802C241.854 203.723 241.772 203.618 241.721 203.497C241.671 203.375 241.65 203.243 241.657 203.111C241.664 202.91 241.748 202.72 241.892 202.58C242.036 202.44 242.229 202.361 242.43 202.36H263.264H269.58C269.76 202.377 269.928 202.456 270.057 202.582C270.166 202.697 270.236 202.843 270.258 203C270.277 203.133 270.266 203.269 270.226 203.397C270.192 203.502 270.134 203.598 270.057 203.677C269.954 203.787 269.818 203.861 269.67 203.889H269.554L269.512 203.91Z" fill="white"/>
<path d="M277.749 204.746H235.399V210.338H277.749V204.746Z" fill="url(#paint0_linear_2062_650)"/>
<path d="M277.749 205.434H235.399V209.401H277.749V205.434Z" fill="#EBEBEB"/>
<path d="M277.384 205.539C277.384 205.539 268.046 205.576 256.539 205.576C245.033 205.576 235.695 205.576 235.695 205.539C235.695 205.502 245.027 205.508 256.539 205.508C268.051 205.508 277.384 205.539 277.384 205.539Z" fill="#372011"/>
<path d="M277.384 206.73C277.384 206.73 268.046 206.767 256.539 206.767C245.033 206.767 235.695 206.767 235.695 206.73C235.695 206.693 245.027 206.698 256.539 206.698C268.051 206.698 277.384 206.714 277.384 206.73Z" fill="#372011"/>
<path d="M277.384 207.915C277.384 207.915 268.046 207.952 256.539 207.952C245.033 207.952 235.695 207.952 235.695 207.915C235.695 207.878 245.027 207.883 256.539 207.883C268.051 207.883 277.384 207.894 277.384 207.915Z" fill="#372011"/>
<path d="M277.384 209.1C277.384 209.1 268.046 209.132 256.539 209.132C245.033 209.132 235.695 209.132 235.695 209.1C235.695 209.068 245.027 209.068 256.539 209.068C268.051 209.068 277.384 209.079 277.384 209.1Z" fill="#372011"/>
<path d="M237.414 200.407H243.218V189.409H237.414V200.407Z" fill="#FAFAFA"/>
<path d="M243.218 200.947H274.368V189.017H243.218V200.947Z" fill="#372011"/>
<path d="M236.954 200.947H243.964V200.175H236.954C236.852 200.175 236.754 200.216 236.681 200.288C236.609 200.36 236.568 200.459 236.568 200.561C236.568 200.663 236.609 200.762 236.681 200.834C236.754 200.907 236.852 200.947 236.954 200.947Z" fill="#372011"/>
<path d="M236.954 189.795H243.964V189.022H236.954C236.852 189.022 236.754 189.063 236.681 189.136C236.609 189.208 236.568 189.306 236.568 189.409C236.568 189.511 236.609 189.609 236.681 189.682C236.754 189.754 236.852 189.795 236.954 189.795Z" fill="#372011"/>
<path d="M237.409 190.885C237.409 190.885 238.711 190.916 240.314 190.916C241.917 190.916 243.218 190.916 243.218 190.885C243.218 190.853 241.917 190.848 240.314 190.848C238.711 190.848 237.409 190.864 237.409 190.885Z" fill="#E0E0E0"/>
<path d="M237.409 192.313C237.409 192.313 238.711 192.35 240.314 192.35C241.917 192.35 243.218 192.35 243.218 192.313C243.218 192.276 241.917 192.282 240.314 192.282C238.711 192.282 237.409 192.276 237.409 192.313Z" fill="#E0E0E0"/>
<path d="M237.409 193.705C237.409 193.705 238.711 193.736 240.314 193.736C241.917 193.736 243.218 193.736 243.218 193.705C243.218 193.673 241.917 193.673 240.314 193.673C238.711 193.673 237.409 193.689 237.409 193.705Z" fill="#E0E0E0"/>
<path d="M237.409 195.117C237.409 195.117 238.711 195.149 240.314 195.149C241.917 195.149 243.218 195.149 243.218 195.117C243.218 195.085 241.917 195.085 240.314 195.085C238.711 195.085 237.409 195.096 237.409 195.117Z" fill="#E0E0E0"/>
<path d="M237.409 196.546C237.409 196.546 238.711 196.577 240.314 196.577C241.917 196.577 243.218 196.577 243.218 196.546C243.218 196.514 241.917 196.509 240.314 196.509C238.711 196.509 237.409 196.509 237.409 196.546Z" fill="#E0E0E0"/>
<path d="M237.409 197.937C237.409 197.937 238.711 197.969 240.314 197.969C241.917 197.969 243.218 197.969 243.218 197.937C243.218 197.905 241.917 197.905 240.314 197.905C238.711 197.905 237.409 197.921 237.409 197.937Z" fill="#E0E0E0"/>
<path d="M237.409 199.349C237.409 199.349 238.711 199.381 240.314 199.381C241.917 199.381 243.218 199.381 243.218 199.349C243.218 199.318 241.917 199.318 240.314 199.318C238.711 199.318 237.409 199.328 237.409 199.349Z" fill="#E0E0E0"/>
<path d="M270.496 193.974H247.699V195.99H270.496V193.974Z" fill="white"/>
<defs>
<linearGradient id="paint0_linear_2062_650" x1="227.007" y1="200.357" x2="227.985" y2="213.483" gradientUnits="userSpaceOnUse">
<stop stop-color="#F0DB92"/>
<stop offset="1" stop-color="#BF9033"/>
</linearGradient>
</defs>
</svg>
