<svg width="59" height="57" viewBox="0 0 59 57" fill="none" xmlns="http://www.w3.org/2000/svg">
<path d="M58.8216 29.1866C58.686 28.6053 58.617 28.011 58.6158 27.4148C58.5901 26.7011 58.5092 25.9903 58.3738 25.2885C58.2524 24.3234 58.0603 23.3681 57.7989 22.4298C57.1693 19.8459 56.1495 17.3677 54.7732 15.0765C52.9615 12.0357 50.5706 9.36128 47.7293 7.19744C44.0702 4.37545 39.745 2.49315 35.1488 1.72244C30.5526 0.951739 25.8317 1.31719 21.4175 2.78542C18.8737 3.60479 16.4736 4.79993 14.301 6.32921C13.1733 7.1074 12.0998 7.95781 11.0876 8.87483C10.0866 9.84077 9.15256 10.8708 8.29184 11.9579C4.67385 16.5169 2.64471 22.0859 2.50099 27.8508C2.35727 33.6157 4.10652 39.2743 7.49306 43.9997C8.29854 45.1266 9.17996 46.2 10.1315 47.2127C11.098 48.174 12.1269 49.0736 13.2117 49.906C15.3074 51.5367 17.646 52.8452 20.1467 53.7864C26.1931 56.0925 32.8706 56.2867 39.047 54.3361C45.2234 52.3855 50.5186 48.4102 54.0349 43.0842C55.531 40.8637 56.6773 38.4368 57.4358 35.8844C57.7405 34.9586 57.9791 34.0133 58.1499 33.0553C58.3212 32.3621 58.4385 31.6572 58.5009 30.9467C58.5295 30.3474 58.6269 29.753 58.7913 29.1748C58.8606 29.7635 58.8606 30.358 58.7913 30.9467C58.7864 31.6717 58.7176 32.395 58.5856 33.1084C58.4619 34.0929 58.2595 35.0665 57.9804 36.0203C57.31 38.6696 56.2153 41.1991 54.7368 43.5154C52.5896 46.9472 49.7152 49.8912 46.3064 52.1496C42.8976 54.4081 39.0333 55.9288 34.9728 56.6097C29.8157 57.4518 24.5216 56.9255 19.6444 55.0858C17.004 54.1161 14.5323 52.7555 12.3161 51.0518C11.1667 50.1793 10.0771 49.2342 9.05433 48.2227C8.04584 47.159 7.11181 46.0303 6.25856 44.8443C2.66425 39.8655 0.805596 33.8906 0.957061 27.8019C1.10853 21.7131 3.26207 15.8333 7.0997 11.0306C8.01236 9.886 9.00302 8.80269 10.0649 7.78807C11.1349 6.82593 12.269 5.93409 13.4598 5.11841C15.7601 3.52596 18.2969 2.287 20.9818 1.44469C25.9443 -0.15742 31.2561 -0.432747 36.3646 0.647333C40.3992 1.51453 44.1967 3.21518 47.5015 5.63481C50.8062 8.05445 53.5416 11.1369 55.5235 14.6748C56.8866 17.0595 57.8566 19.6386 58.398 22.3176C58.6241 23.2892 58.7718 24.2766 58.8397 25.2708C58.9361 25.9892 58.9685 26.7145 58.9366 27.4384C58.9652 28.0235 58.9266 28.6099 58.8216 29.1866Z" fill="#EBEBEB"/>
<path d="M52.9438 11.1587C53.0032 11.2482 52.4983 11.7214 51.5243 12.5015L49.7424 13.8955C49.3861 14.1577 49.0119 14.4583 48.5961 14.7396L47.2182 15.5134C42.2082 18.5956 36.5106 20.1435 30.7421 19.9895L28.2476 19.868L25.8718 19.4652C25.4857 19.3948 25.0937 19.3373 24.7136 19.2542L23.597 18.9344C22.8605 18.717 22.1299 18.5316 21.4409 18.295C18.9833 17.4121 16.6215 16.2458 14.3968 14.8164C10.643 12.3736 8.81367 10.1483 8.95622 10.0077C9.09876 9.86698 11.1479 11.683 14.9313 13.7932C17.1387 15.0312 19.4444 16.0541 21.8211 16.8498C22.4922 17.0608 23.1931 17.2207 23.8999 17.4125L24.9749 17.7003L26.0915 17.8857L28.3782 18.2438L30.754 18.3461C36.2803 18.4798 41.7537 17.163 46.7014 14.5094L48.0972 13.87C48.5248 13.6334 48.9109 13.3776 49.2851 13.1538L51.2213 11.9644C52.2548 11.3569 52.8785 11.0947 52.9438 11.1587Z" fill="#EBEBEB"/>
<path d="M7.95413 45.8527C7.88871 45.763 8.39423 45.2892 9.3696 44.5081L11.1538 43.1123C11.5106 42.8434 11.8853 42.5489 12.3016 42.2672L13.6874 41.4925C18.7014 38.4053 24.405 36.8553 30.1794 37.0106L32.6773 37.1323L35.0562 37.5356C35.4487 37.6061 35.8353 37.6637 36.216 37.7469L37.34 38.0671C38.0715 38.2847 38.803 38.4704 39.4929 38.7073C41.9349 39.591 44.2817 40.7544 46.493 42.1775C50.2517 44.6234 52.0835 46.8515 51.9407 46.9923C51.798 47.1332 49.7462 45.3148 45.9577 43.202C43.7504 41.9719 41.4456 40.9563 39.0707 40.1671C38.3986 39.9558 37.6968 39.7958 36.9891 39.5973L35.9126 39.3156L34.8362 39.1619L32.5464 38.8034L30.1675 38.6945C24.6339 38.5615 19.1534 39.8799 14.1988 42.5361L12.8012 43.1764C12.373 43.4133 11.9864 43.6694 11.6117 43.8935L9.6967 45.0267C8.63807 45.6542 8.0136 45.9487 7.95413 45.8527Z" fill="#EBEBEB"/>
<path d="M58.9485 29.8297C58.9485 30.0376 46.1656 30.0578 30.4213 29.8759C14.6769 29.694 1.94849 29.3765 1.94849 29.1687C1.94849 28.9608 14.7253 28.9435 30.4757 29.1254C46.2261 29.3072 58.9545 29.6392 58.9485 29.8297Z" fill="#EBEBEB"/>
<path d="M29.2883 57C28.8724 57 28.832 44.2205 29.2017 28.4849C29.5713 12.7493 30.1951 -0.0120818 30.611 8.58387e-06C31.0269 0.0120989 31.0615 12.7735 30.6976 28.5212C30.3337 44.2688 29.6811 57.0121 29.2883 57Z" fill="#EBEBEB"/>
<path d="M29.5397 56.9907C29.4278 57.1599 26.1937 55.0264 22.4682 50.2095C20.2897 47.3748 18.5253 44.2609 17.2252 40.9563C15.6391 36.8764 14.8686 32.54 14.955 28.1795C15.0617 23.8149 16.0684 19.5155 17.9155 15.5357C19.3962 12.3033 21.3164 9.27852 23.625 6.54242C27.5744 1.90072 30.8334 -0.154199 30.9454 0.0089858C31.0573 0.172171 28.1528 2.52324 24.5268 7.22538C22.411 9.96246 20.6422 12.9373 19.2589 16.0857C17.5747 19.9115 16.6545 24.0136 16.5472 28.1735C16.4686 32.3438 17.1639 36.4937 18.5997 40.4244C19.7952 43.6401 21.3998 46.6978 23.3762 49.5265C26.7721 54.4281 29.6828 56.8215 29.5397 56.9907Z" fill="#EBEBEB"/>
<path d="M30.3734 0.00870454C30.4852 -0.154551 33.7144 1.97382 37.4405 6.79894C39.616 9.63464 41.3777 12.75 42.6756 16.0561C44.2569 20.1363 45.0261 24.4722 44.9423 28.8324C44.831 33.2009 43.8239 37.5037 41.9801 41.4878C40.4905 44.7119 38.5649 47.7276 36.2544 50.4547C32.311 55.0985 29.0569 57.1543 28.9513 56.991C28.8457 56.8278 31.7396 54.4757 35.3601 49.7715C37.4706 47.0351 39.2346 44.0609 40.6139 40.9133C42.294 37.0852 43.2149 32.9819 43.3277 28.8203C43.4043 24.6498 42.7079 20.5 41.2721 16.5701C40.078 13.3513 38.4759 10.2903 36.5028 7.45801C33.1183 2.57847 30.2119 0.184053 30.3734 0.00870454Z" fill="#EBEBEB"/>
</svg>
