<svg width="286" height="288" viewBox="0 0 286 288" fill="none" xmlns="http://www.w3.org/2000/svg">
<path d="M4.59513 8.94644H56.3282C57.6778 8.94644 58.7718 10.0405 58.7718 11.3901V65.3649C58.7718 66.7144 57.6778 67.8085 56.3282 67.8085H4.59513C3.24556 67.8085 2.15151 66.7144 2.15151 65.3649V11.3901C2.15151 10.0405 3.24556 8.94644 4.59513 8.94644Z" stroke="black" stroke-width="0.2"/>
<path d="M30.982 22.1682C27.8746 22.1682 24.8369 23.0897 22.2532 24.8161C19.6695 26.5424 17.6557 28.9962 16.4666 31.8671C15.2774 34.738 14.9663 37.897 15.5725 40.9447C16.1788 43.9924 17.6751 46.7919 19.8724 48.9892C22.0697 51.1864 24.8691 52.6828 27.9168 53.289C30.9645 53.8952 34.1236 53.5841 36.9944 52.3949C39.8653 51.2058 42.3191 49.192 44.0455 46.6083C45.7719 44.0246 46.6933 40.987 46.6933 37.8796C46.6933 33.7126 45.038 29.7164 42.0916 26.77C39.1451 23.8235 35.1489 22.1682 30.982 22.1682ZM31.2196 47.2961C29.314 47.2961 27.4512 46.731 25.8668 45.6723C24.2823 44.6136 23.0474 43.1088 22.3181 41.3483C21.5889 39.5877 21.3981 37.6505 21.7699 35.7815C22.1416 33.9125 23.0593 32.1957 24.4067 30.8482C25.7542 29.5008 27.471 28.5831 29.34 28.2114C31.209 27.8396 33.1462 28.0304 34.9068 28.7597C36.6673 29.4889 38.1721 30.7238 39.2308 32.3083C40.2895 33.8927 40.8546 35.7556 40.8546 37.6612C40.8546 40.2165 39.8394 42.6672 38.0326 44.4741C36.2257 46.281 33.775 47.2961 31.2196 47.2961Z" fill="#E0E0E0"/>
<path d="M31.2196 22.1748V27.9943C32.7405 27.9876 34.2415 28.341 35.5996 29.0257C36.9577 29.7104 38.1344 30.7069 39.0335 31.9336C39.9326 33.1604 40.5285 34.5826 40.7724 36.0838C41.0164 37.5851 40.9014 39.1228 40.437 40.5711L46.128 42.1127C46.7729 39.7992 46.8784 37.3687 46.4364 35.0081C45.9944 32.6475 45.0167 30.4197 43.5785 28.4963C42.1403 26.573 40.28 25.0052 38.1407 23.9137C36.0014 22.8222 33.6402 22.2361 31.2389 22.2005L31.2196 22.1748Z" fill="#FAFAFA"/>
<path d="M21.5655 37.642C21.564 35.7767 22.104 33.9511 23.1199 32.3868C24.1358 30.8224 25.584 29.5866 27.2886 28.8293L24.8734 23.4016C22.0204 24.5981 19.5841 26.6104 17.8701 29.186C16.1561 31.7616 15.2406 34.7859 15.2385 37.8797C15.2385 38.1045 15.2385 38.3229 15.2385 38.522H21.559C21.5847 38.2458 21.5655 37.9439 21.5655 37.642Z" fill="#EBEBEB"/>
<path d="M31.2196 47.2962C30.533 47.2959 29.8483 47.2227 29.177 47.0778C28.9329 48.4781 28.4769 51.1887 28.1172 53.3277C29.0619 53.5039 30.021 53.5921 30.982 53.591C34.4107 53.5913 37.7453 52.4695 40.4766 50.3969C43.208 48.3243 45.1861 45.4148 46.1088 42.1126L40.437 40.571C39.8172 42.5276 38.5889 44.2351 36.9309 45.4448C35.2729 46.6545 33.272 47.3031 31.2196 47.2962Z" fill="#EBEBEB"/>
<path d="M29.132 38.4255H28.5539V39.1771H27.7446V38.4255H25.8176V37.8667L27.5005 35.6057H28.3677L26.8132 37.7254H27.7703V37.0831H28.5539V37.7254H29.132V38.4255Z" fill="#E0E0E0"/>
<path d="M29.3762 37.3914C29.3762 36.2095 30.0185 35.5415 30.9049 35.5415C31.7913 35.5415 32.4401 36.1838 32.4401 37.3914C32.4401 38.599 31.7977 39.2349 30.9049 39.2349C30.0121 39.2349 29.3762 38.5669 29.3762 37.3914ZM31.605 37.3914C31.605 36.5757 31.3224 36.2416 30.9049 36.2416C30.4874 36.2416 30.2112 36.5757 30.2112 37.3914C30.2112 38.2072 30.5002 38.5348 30.9049 38.5348C31.3096 38.5348 31.605 38.2007 31.605 37.3914Z" fill="#E0E0E0"/>
<path d="M32.7805 36.5499C32.7701 36.4276 32.7851 36.3045 32.8248 36.1883C32.8644 36.0721 32.9278 35.9654 33.0108 35.875C33.0938 35.7846 33.1947 35.7124 33.3071 35.663C33.4195 35.6136 33.5409 35.5881 33.6637 35.5881C33.7865 35.5881 33.9079 35.6136 34.0203 35.663C34.1327 35.7124 34.2336 35.7846 34.3166 35.875C34.3996 35.9654 34.463 36.0721 34.5026 36.1883C34.5423 36.3045 34.5573 36.4276 34.5469 36.5499C34.5573 36.6723 34.5423 36.7954 34.5026 36.9116C34.463 37.0278 34.3996 37.1344 34.3166 37.2249C34.2336 37.3153 34.1327 37.3875 34.0203 37.4369C33.9079 37.4862 33.7865 37.5117 33.6637 37.5117C33.5409 37.5117 33.4195 37.4862 33.3071 37.4369C33.1947 37.3875 33.0938 37.3153 33.0108 37.2249C32.9278 37.1344 32.8644 37.0278 32.8248 36.9116C32.7851 36.7954 32.7701 36.6723 32.7805 36.5499ZM34.0652 36.5499C34.0652 36.1645 33.9174 35.9847 33.6926 35.9847C33.4678 35.9847 33.32 36.171 33.32 36.5499C33.32 36.9289 33.4742 37.1152 33.6926 37.1152C33.911 37.1152 34.0138 36.9289 34.0138 36.5499H34.0652ZM35.8187 35.6057H36.461L34.0202 39.1771H33.3714L35.8187 35.6057ZM35.2342 38.2328C35.2528 38.0626 35.3203 37.9014 35.4286 37.7687C35.5369 37.636 35.6813 37.5376 35.8444 37.4852C36.0074 37.4329 36.1822 37.4289 36.3474 37.4737C36.5127 37.5185 36.6615 37.6103 36.7757 37.7379C36.89 37.8655 36.9648 38.0234 36.9912 38.1926C37.0176 38.3618 36.9944 38.5351 36.9244 38.6914C36.8544 38.8477 36.7407 38.9804 36.5969 39.0734C36.4531 39.1664 36.2854 39.2158 36.1142 39.2156C35.9876 39.2191 35.8617 39.1954 35.7451 39.1462C35.6284 39.097 35.5236 39.0234 35.4378 38.9302C35.352 38.8371 35.2871 38.7267 35.2476 38.6064C35.208 38.4861 35.1947 38.3587 35.2085 38.2328H35.2342ZM36.5188 38.2328C36.5188 37.8539 36.3711 37.6676 36.1463 37.6676C35.9215 37.6676 35.7737 37.8474 35.7737 38.2328C35.7737 38.6182 35.9279 38.7981 36.1463 38.7981C36.3647 38.7981 36.461 38.6054 36.461 38.2328H36.5188Z" fill="#E0E0E0"/>
<path d="M43.9827 57.5542C43.9827 57.6377 38.1632 57.7084 30.982 57.7084C23.8007 57.7084 17.9556 57.6377 17.9556 57.5542C17.9556 57.4707 23.7751 57.4065 30.9563 57.4065C38.1375 57.4065 43.9827 57.4772 43.9827 57.5542Z" fill="#E0E0E0"/>
<path d="M38.1953 59.9436C38.1953 60.0271 34.9837 60.0914 30.982 60.0914C26.9803 60.0914 23.7686 60.0271 23.7686 59.9436C23.7686 59.8601 26.9803 59.7959 30.982 59.7959C34.9837 59.7959 38.1953 59.8601 38.1953 59.9436Z" fill="#E0E0E0"/>
<path d="M7.71688 15.3018C8.50796 15.3018 9.14927 14.6605 9.14927 13.8694C9.14927 13.0783 8.50796 12.437 7.71688 12.437C6.92579 12.437 6.28448 13.0783 6.28448 13.8694C6.28448 14.6605 6.92579 15.3018 7.71688 15.3018Z" fill="#E0E0E0"/>
<path d="M11.4102 15.3018C12.2013 15.3018 12.8426 14.6605 12.8426 13.8694C12.8426 13.0783 12.2013 12.437 11.4102 12.437C10.6191 12.437 9.97784 13.0783 9.97784 13.8694C9.97784 14.6605 10.6191 15.3018 11.4102 15.3018Z" fill="#E0E0E0"/>
<path d="M16.5296 13.8694C16.5296 14.1527 16.4456 14.4297 16.2882 14.6652C16.1308 14.9008 15.9071 15.0844 15.6453 15.1928C15.3836 15.3012 15.0956 15.3296 14.8177 15.2743C14.5399 15.219 14.2847 15.0826 14.0843 14.8823C13.884 14.6819 13.7476 14.4267 13.6923 14.1489C13.637 13.871 13.6654 13.583 13.7738 13.3213C13.8822 13.0595 14.0658 12.8358 14.3014 12.6784C14.5369 12.521 14.8139 12.437 15.0972 12.437C15.2855 12.4362 15.4722 12.4726 15.6463 12.5443C15.8205 12.616 15.9788 12.7215 16.1119 12.8547C16.2451 12.9878 16.3506 13.1461 16.4223 13.3203C16.494 13.4944 16.5304 13.6811 16.5296 13.8694Z" fill="#E0E0E0"/>
<path d="M243.873 29.1866C243.737 28.6053 243.668 28.011 243.667 27.4148C243.642 26.7011 243.561 25.9903 243.425 25.2885C243.304 24.3234 243.112 23.3681 242.85 22.4298C242.221 19.8459 241.201 17.3677 239.825 15.0765C238.013 12.0357 235.622 9.36128 232.781 7.19744C229.122 4.37545 224.797 2.49315 220.2 1.72244C215.604 0.951739 210.883 1.31719 206.469 2.78542C203.925 3.60479 201.525 4.79993 199.352 6.32921C198.225 7.1074 197.151 7.95781 196.139 8.87483C195.138 9.84077 194.204 10.8708 193.343 11.9579C189.725 16.5169 187.696 22.0859 187.553 27.8508C187.409 33.6157 189.158 39.2743 192.545 43.9997C193.35 45.1266 194.231 46.2 195.183 47.2127C196.15 48.174 197.178 49.0736 198.263 49.906C200.359 51.5367 202.698 52.8452 205.198 53.7864C211.245 56.0925 217.922 56.2867 224.099 54.3361C230.275 52.3855 235.57 48.4102 239.086 43.0842C240.582 40.8637 241.729 38.4368 242.487 35.8844C242.792 34.9586 243.031 34.0133 243.201 33.0553C243.373 32.3621 243.49 31.6572 243.552 30.9467C243.581 30.3474 243.678 29.753 243.843 29.1748C243.912 29.7635 243.912 30.358 243.843 30.9467C243.838 31.6717 243.769 32.395 243.637 33.1084C243.513 34.0929 243.311 35.0665 243.032 36.0203C242.362 38.6696 241.267 41.1991 239.788 43.5154C237.641 46.9472 234.767 49.8912 231.358 52.1496C227.949 54.4081 224.085 55.9288 220.024 56.6097C214.867 57.4518 209.573 56.9255 204.696 55.0858C202.056 54.1161 199.584 52.7555 197.368 51.0518C196.218 50.1793 195.129 49.2342 194.106 48.2227C193.097 47.159 192.163 46.0303 191.31 44.8443C187.716 39.8655 185.857 33.8906 186.009 27.8019C186.16 21.7131 188.314 15.8333 192.151 11.0306C193.064 9.886 194.055 8.80269 195.116 7.78807C196.186 6.82593 197.32 5.93409 198.511 5.11841C200.812 3.52596 203.348 2.287 206.033 1.44469C210.996 -0.15742 216.308 -0.432747 221.416 0.647333C225.451 1.51453 229.248 3.21518 232.553 5.63481C235.858 8.05445 238.593 11.1369 240.575 14.6748C241.938 17.0595 242.908 19.6386 243.45 22.3176C243.676 23.2892 243.823 24.2766 243.891 25.2708C243.988 25.9892 244.02 26.7145 243.988 27.4384C244.017 28.0235 243.978 28.6099 243.873 29.1866Z" fill="#EBEBEB"/>
<path d="M237.995 11.1587C238.055 11.2482 237.55 11.7214 236.576 12.5015L234.794 13.8955C234.438 14.1577 234.063 14.4583 233.648 14.7396L232.27 15.5134C227.26 18.5956 221.562 20.1435 215.794 19.9895L213.299 19.868L210.923 19.4652C210.537 19.3948 210.145 19.3373 209.765 19.2542L208.648 18.9344C207.912 18.717 207.181 18.5316 206.492 18.295C204.035 17.4121 201.673 16.2458 199.448 14.8164C195.695 12.3736 193.865 10.1483 194.008 10.0077C194.15 9.86698 196.199 11.683 199.983 13.7932C202.19 15.0312 204.496 16.0541 206.873 16.8498C207.544 17.0608 208.245 17.2207 208.951 17.4125L210.026 17.7003L211.143 17.8857L213.43 18.2438L215.806 18.3461C221.332 18.4798 226.805 17.163 231.753 14.5094L233.149 13.87C233.576 13.6334 233.962 13.3776 234.337 13.1538L236.273 11.9644C237.306 11.3569 237.93 11.0947 237.995 11.1587Z" fill="#EBEBEB"/>
<path d="M193.006 45.8527C192.94 45.763 193.446 45.2892 194.421 44.5081L196.205 43.1123C196.562 42.8434 196.937 42.5489 197.353 42.2672L198.739 41.4925C203.753 38.4053 209.457 36.8553 215.231 37.0106L217.729 37.1323L220.108 37.5356C220.5 37.6061 220.887 37.6637 221.267 37.7469L222.392 38.0671C223.123 38.2847 223.855 38.4704 224.544 38.7073C226.986 39.591 229.333 40.7544 231.544 42.1775C235.303 44.6234 237.135 46.8515 236.992 46.9923C236.85 47.1332 234.798 45.3148 231.009 43.202C228.802 41.9719 226.497 40.9563 224.122 40.1671C223.45 39.9558 222.748 39.7958 222.041 39.5973L220.964 39.3156L219.888 39.1619L217.598 38.8034L215.219 38.6945C209.685 38.5615 204.205 39.8799 199.25 42.5361L197.853 43.1764C197.425 43.4133 197.038 43.6694 196.663 43.8935L194.748 45.0267C193.69 45.6542 193.065 45.9487 193.006 45.8527Z" fill="#EBEBEB"/>
<path d="M244 29.8297C244 30.0376 231.217 30.0578 215.473 29.8759C199.728 29.694 187 29.3765 187 29.1687C187 28.9608 199.777 28.9435 215.527 29.1254C231.278 29.3072 244.006 29.6392 244 29.8297Z" fill="#EBEBEB"/>
<path d="M214.34 57C213.924 57 213.884 44.2205 214.253 28.4849C214.623 12.7493 215.247 -0.0120818 215.663 8.58387e-06C216.078 0.0120989 216.113 12.7735 215.749 28.5212C215.385 44.2688 214.733 57.0121 214.34 57Z" fill="#EBEBEB"/>
<path d="M214.591 56.9907C214.479 57.1599 211.245 55.0264 207.52 50.2095C205.341 47.3748 203.577 44.2609 202.277 40.9563C200.691 36.8764 199.92 32.54 200.007 28.1795C200.113 23.8149 201.12 19.5155 202.967 15.5357C204.448 12.3033 206.368 9.27852 208.677 6.54242C212.626 1.90072 215.885 -0.154199 215.997 0.0089858C216.109 0.172171 213.204 2.52324 209.578 7.22538C207.462 9.96246 205.694 12.9373 204.31 16.0857C202.626 19.9115 201.706 24.0136 201.599 28.1735C201.52 32.3438 202.215 36.4937 203.651 40.4244C204.847 43.6401 206.451 46.6978 208.428 49.5265C211.824 54.4281 214.734 56.8215 214.591 56.9907Z" fill="#EBEBEB"/>
<path d="M215.425 0.00870454C215.537 -0.154551 218.766 1.97382 222.492 6.79894C224.667 9.63464 226.429 12.75 227.727 16.0561C229.308 20.1363 230.078 24.4722 229.994 28.8324C229.883 33.2009 228.875 37.5037 227.032 41.4878C225.542 44.7119 223.616 47.7276 221.306 50.4547C217.362 55.0985 214.108 57.1543 214.003 56.991C213.897 56.8278 216.791 54.4757 220.412 49.7715C222.522 47.0351 224.286 44.0609 225.665 40.9133C227.346 37.0852 228.266 32.9819 228.379 28.8203C228.456 24.6498 227.759 20.5 226.324 16.5701C225.13 13.3513 223.527 10.2903 221.554 7.45801C218.17 2.57847 215.263 0.184053 215.425 0.00870454Z" fill="#EBEBEB"/>
<path d="M190.671 248.884V231.51C194.083 231.511 197.418 232.518 200.26 234.405C203.102 236.292 205.324 238.976 206.649 242.12C207.973 245.264 208.341 248.729 207.705 252.081C207.07 255.433 205.461 258.523 203.078 260.964C200.696 263.406 197.646 265.091 194.311 265.808C190.975 266.525 187.503 266.242 184.327 264.995C181.152 263.748 178.414 261.593 176.458 258.798C174.502 256.003 173.413 252.693 173.328 249.283L190.671 248.884Z" fill="#EBEBEB"/>
<path d="M186.438 244.202L169.063 244.594C169.059 239.95 170.818 235.478 173.983 232.081C177.228 228.831 181.597 226.952 186.188 226.833L186.438 244.202Z" fill="#F5F5F5"/>
<path d="M285.093 287.591C285.093 287.687 222.145 287.758 144.501 287.758C66.856 287.758 3.89502 287.687 3.89502 287.591C3.89502 287.495 66.8431 287.424 144.501 287.424C222.158 287.424 285.093 287.482 285.093 287.591Z" fill="#263238"/>
<path d="M211.373 155.74H156.788C154.699 155.74 153.005 157.434 153.005 159.524V192.944C153.005 195.033 154.699 196.727 156.788 196.727H211.373C213.463 196.727 215.157 195.033 215.157 192.944V159.524C215.157 157.434 213.463 155.74 211.373 155.74Z" fill="white"/>
<path d="M211.38 196.734C211.38 196.734 211.553 196.734 211.894 196.676C212.391 196.607 212.868 196.434 213.294 196.168C213.992 195.742 214.535 195.103 214.842 194.344C215.234 193.445 215.067 192.295 215.099 191.036C215.099 185.975 215.067 178.659 215.041 169.627C215.041 167.366 215.041 165.003 215.041 162.562C215.041 161.92 215.041 161.322 215.041 160.693C215.07 160.066 215.045 159.439 214.964 158.817C214.835 158.198 214.548 157.624 214.13 157.149C213.713 156.675 213.179 156.318 212.581 156.113C211.957 155.925 211.303 155.855 210.654 155.907H195.675H156.795C155.967 155.908 155.164 156.192 154.521 156.712C153.877 157.232 153.43 157.957 153.256 158.766C153.185 159.173 153.157 159.586 153.172 159.999V173.719C153.172 180.219 153.172 186.495 153.172 192.469C153.114 193.19 153.247 193.915 153.557 194.569C153.873 195.202 154.366 195.729 154.977 196.085C155.582 196.436 156.275 196.608 156.975 196.58H167.355H182.128L203.537 196.631L209.356 196.663H203.537L182.128 196.714H167.355H156.962C156.209 196.74 155.464 196.555 154.81 196.181C154.148 195.794 153.612 195.223 153.268 194.537C152.94 193.84 152.796 193.07 152.851 192.302C152.851 186.328 152.851 180.052 152.851 173.552C152.851 170.293 152.851 166.985 152.851 163.628V159.832C152.835 159.402 152.865 158.971 152.941 158.547C153.132 157.666 153.618 156.877 154.319 156.309C155.02 155.742 155.893 155.43 156.795 155.426H195.675H204.404H210.654C211.339 155.375 212.027 155.452 212.684 155.65C213.329 155.871 213.905 156.256 214.355 156.767C214.806 157.279 215.115 157.899 215.253 158.567C215.335 159.205 215.361 159.85 215.33 160.494V162.363C215.33 164.829 215.33 167.193 215.33 169.428C215.33 178.459 215.292 185.776 215.279 190.837C215.279 191.479 215.279 192.064 215.279 192.629C215.286 193.161 215.188 193.69 214.99 194.184C214.669 194.956 214.105 195.603 213.384 196.027C212.948 196.291 212.459 196.456 211.951 196.509C211.769 196.603 211.577 196.678 211.38 196.734Z" fill="#263238"/>
<path d="M183.246 179.545H180.863V189.039H183.246V179.545Z" fill="#E6A371"/>
<path d="M163.327 178.17H160.944V189.039H163.327V178.17Z" fill="#E6A371"/>
<path d="M168.305 175.903H165.922V189.032H168.305V175.903Z" fill="#E6A371"/>
<path d="M173.283 176.622H170.9V189.032H173.283V176.622Z" fill="#E6A371"/>
<path d="M178.268 172.422H175.885V189.032H178.268V172.422Z" fill="#E6A371"/>
<path d="M188.224 172.505H185.841V189.032H188.224V172.505Z" fill="#E6A371"/>
<path d="M193.208 177.933H190.825V189.032H193.208V177.933Z" fill="#E6A371"/>
<path d="M198.186 173.231H195.803V189.032H198.186V173.231Z" fill="#E6A371"/>
<path d="M203.164 169.672H200.781V189.032H203.164V169.672Z" fill="#E6A371"/>
<path d="M208.149 173.154H205.766V189.039H208.149V173.154Z" fill="#E6A371"/>
<path d="M161.143 161.386C161.143 161.684 161.055 161.974 160.89 162.221C160.725 162.469 160.49 162.661 160.216 162.775C159.941 162.889 159.639 162.919 159.347 162.861C159.056 162.803 158.788 162.659 158.578 162.449C158.367 162.239 158.224 161.971 158.166 161.68C158.108 161.388 158.138 161.086 158.252 160.811C158.365 160.537 158.558 160.302 158.805 160.137C159.052 159.971 159.343 159.883 159.64 159.883C160.039 159.883 160.421 160.042 160.703 160.324C160.985 160.605 161.143 160.988 161.143 161.386Z" fill="#E0E0E0"/>
<path d="M165.049 161.386C165.049 161.684 164.96 161.975 164.795 162.222C164.629 162.469 164.394 162.662 164.119 162.776C163.844 162.889 163.542 162.919 163.25 162.86C162.958 162.802 162.691 162.658 162.481 162.447C162.271 162.236 162.128 161.968 162.071 161.676C162.013 161.384 162.044 161.081 162.159 160.807C162.274 160.532 162.467 160.298 162.715 160.133C162.963 159.969 163.255 159.882 163.552 159.883C163.749 159.883 163.944 159.922 164.126 159.998C164.308 160.073 164.474 160.184 164.613 160.324C164.752 160.464 164.862 160.629 164.937 160.812C165.011 160.994 165.05 161.189 165.049 161.386Z" fill="#E0E0E0"/>
<path d="M168.903 161.386C168.903 161.684 168.815 161.974 168.649 162.221C168.484 162.469 168.249 162.661 167.975 162.775C167.7 162.889 167.398 162.919 167.106 162.861C166.815 162.803 166.547 162.659 166.337 162.449C166.127 162.239 165.983 161.971 165.925 161.68C165.867 161.388 165.897 161.086 166.011 160.811C166.125 160.537 166.317 160.302 166.565 160.137C166.812 159.971 167.102 159.883 167.4 159.883C167.798 159.883 168.181 160.042 168.462 160.324C168.744 160.605 168.903 160.988 168.903 161.386Z" fill="#E0E0E0"/>
<path d="M275.69 67.2854H233.514C230.524 67.2854 228.1 69.7097 228.1 72.7002V144.654C228.1 147.644 230.524 150.069 233.514 150.069H275.69C278.68 150.069 281.105 147.644 281.105 144.654V72.7002C281.105 69.7097 278.68 67.2854 275.69 67.2854Z" fill="white"/>
<path d="M275.69 150.069H275.863C275.972 150.069 276.146 150.069 276.364 150.024C277.018 149.932 277.651 149.726 278.233 149.413C279.175 148.892 279.943 148.106 280.443 147.152C280.755 146.552 280.951 145.898 281.021 145.225C281.072 144.5 281.021 143.71 281.021 142.881C281.021 136.239 280.989 126.636 280.963 114.779C280.937 102.922 280.963 88.7841 280.931 73.0985C280.99 72.1286 280.781 71.1612 280.328 70.3016C279.875 69.442 279.195 68.7231 278.362 68.2232C276.666 67.1312 274.508 67.5809 272.491 67.4781H233.514C232.417 67.4803 231.347 67.8258 230.456 68.4662C229.564 69.1066 228.895 70.0099 228.543 71.0494C228.272 72.1146 228.179 73.217 228.267 74.3125V77.6269C228.267 82.0375 228.267 86.3796 228.267 90.6533C228.267 99.1898 228.267 107.424 228.267 115.267C228.267 123.11 228.267 130.568 228.267 137.543V142.682C228.267 143.517 228.235 144.371 228.267 145.168C228.379 146.346 228.883 147.452 229.698 148.311C230.513 149.169 231.592 149.729 232.763 149.902C233.521 149.968 234.282 149.989 235.043 149.966H237.298L265.4 150.024L273.037 150.056H275.028H275.703C275.703 150.056 275.471 150.056 275.028 150.056H273.037L265.4 150.088L237.298 150.139H235.062C234.291 150.159 233.519 150.138 232.75 150.075C231.521 149.899 230.386 149.315 229.529 148.417C228.672 147.519 228.141 146.359 228.023 145.123C227.971 144.275 228.023 143.459 228.023 142.611C228.023 140.928 228.023 139.213 228.023 137.473C228.023 130.497 228.023 123.046 228.023 115.197C228.023 107.347 228.023 99.1384 228.023 90.5826V72.5974C228.034 72.0204 228.133 71.4485 228.318 70.9017C228.687 69.7974 229.395 68.8377 230.341 68.159C231.292 67.4734 232.433 67.1028 233.604 67.0991H275.658C276.697 67.0825 277.72 67.3547 278.614 67.8855C279.508 68.4163 280.236 69.1847 280.719 70.1052C280.951 70.5588 281.124 71.0401 281.233 71.5376C281.322 72.0334 281.361 72.537 281.349 73.0406C281.349 88.7263 281.349 102.851 281.31 114.721C281.272 126.592 281.272 136.181 281.259 142.823C281.259 143.652 281.259 144.429 281.22 145.174C281.153 145.868 280.95 146.543 280.623 147.159C280.105 148.12 279.317 148.909 278.355 149.426C277.756 149.743 277.102 149.941 276.428 150.011C276.184 150.049 275.937 150.068 275.69 150.069Z" fill="#263238"/>
<path d="M235.242 76.0082C236.14 76.0082 236.867 75.2807 236.867 74.3832C236.867 73.4856 236.14 72.7581 235.242 72.7581C234.345 72.7581 233.617 73.4856 233.617 74.3832C233.617 75.2807 234.345 76.0082 235.242 76.0082Z" fill="#E0E0E0"/>
<path d="M241.062 74.3832C241.062 74.7046 240.966 75.0188 240.788 75.286C240.609 75.5532 240.356 75.7615 240.059 75.8845C239.762 76.0075 239.435 76.0397 239.12 75.977C238.804 75.9143 238.515 75.7595 238.288 75.5323C238.06 75.305 237.906 75.0154 237.843 74.7002C237.78 74.385 237.812 74.0582 237.935 73.7613C238.058 73.4643 238.267 73.2105 238.534 73.0319C238.801 72.8534 239.115 72.7581 239.437 72.7581C239.868 72.7581 240.281 72.9293 240.586 73.234C240.891 73.5388 241.062 73.9522 241.062 74.3832Z" fill="#E0E0E0"/>
<path d="M243.631 76.0082C244.529 76.0082 245.256 75.2807 245.256 74.3832C245.256 73.4856 244.529 72.7581 243.631 72.7581C242.734 72.7581 242.006 73.4856 242.006 74.3832C242.006 75.2807 242.734 76.0082 243.631 76.0082Z" fill="#E0E0E0"/>
<path d="M273.352 82.9131C273.352 83.003 264.956 83.0801 254.602 83.0801C244.248 83.0801 235.846 83.003 235.846 82.9131C235.846 82.8232 244.241 82.7461 254.602 82.7461C264.963 82.7461 273.352 82.8168 273.352 82.9131Z" fill="#263238"/>
<path d="M273.352 86.2149C273.352 86.3048 264.956 86.3819 254.602 86.3819C244.248 86.3819 235.846 86.3048 235.846 86.2149C235.846 86.1249 244.241 86.0479 254.602 86.0479C264.963 86.0479 273.352 86.1185 273.352 86.2149Z" fill="#263238"/>
<path d="M273.352 89.5164C273.352 89.6063 264.956 89.6834 254.602 89.6834C244.248 89.6834 235.846 89.6063 235.846 89.5164C235.846 89.4265 244.241 89.3494 254.602 89.3494C264.963 89.3494 273.352 89.42 273.352 89.5164Z" fill="#263238"/>
<path d="M273.352 92.818C273.352 92.9079 264.956 92.985 254.602 92.985C244.248 92.985 235.846 92.9079 235.846 92.818C235.846 92.728 244.241 92.6445 254.602 92.6445C264.963 92.6445 273.352 92.7216 273.352 92.818Z" fill="#263238"/>
<path d="M273.352 96.113C273.352 96.2094 264.956 96.2801 254.602 96.2801C244.248 96.2801 235.846 96.2094 235.846 96.113C235.846 96.0167 244.241 95.946 254.602 95.946C264.963 95.946 273.352 96.0231 273.352 96.113Z" fill="#263238"/>
<path d="M273.352 99.3889C273.352 99.4853 264.956 99.5559 254.602 99.5559C244.248 99.5559 235.846 99.4853 235.846 99.3889C235.846 99.2926 244.241 99.2219 254.602 99.2219C264.963 99.2219 273.352 99.3247 273.352 99.3889Z" fill="#263238"/>
<path d="M273.352 124.677C273.352 124.767 264.956 124.845 254.602 124.845C244.248 124.845 235.846 124.767 235.846 124.677C235.846 124.588 244.241 124.51 254.602 124.51C264.963 124.51 273.352 124.581 273.352 124.677Z" fill="#263238"/>
<path d="M273.352 128.294C273.352 128.384 264.956 128.461 254.602 128.461C244.248 128.461 235.846 128.384 235.846 128.294C235.846 128.204 244.241 128.127 254.602 128.127C264.963 128.127 273.352 128.178 273.352 128.294Z" fill="#263238"/>
<path d="M273.352 131.865C273.352 131.955 264.956 132.032 254.602 132.032C244.248 132.032 235.846 131.955 235.846 131.865C235.846 131.775 244.241 131.698 254.602 131.698C264.963 131.698 273.352 131.769 273.352 131.865Z" fill="#263238"/>
<path d="M273.352 135.456C273.352 135.546 264.956 135.623 254.602 135.623C244.248 135.623 235.846 135.546 235.846 135.456C235.846 135.366 244.241 135.289 254.602 135.289C264.963 135.289 273.352 135.359 273.352 135.456Z" fill="#263238"/>
<path d="M273.352 139.046C273.352 139.143 264.956 139.22 254.602 139.22C244.248 139.22 235.846 139.143 235.846 139.046C235.846 138.95 244.241 138.879 254.602 138.879C264.963 138.879 273.352 138.956 273.352 139.046Z" fill="#263238"/>
<path d="M274.328 104.193H271.405H263.338H235.923L235.987 104.148C235.987 106.3 235.987 108.536 235.987 110.822C235.987 113.109 235.987 115.479 235.987 117.702L235.923 117.65H235.859V117.605C235.859 115.383 235.859 113.109 235.859 110.726C235.859 108.343 235.859 106.23 235.859 104.052V104.001H235.923H263.338H271.405H274.328V104.193Z" fill="#E0E0E0"/>
<path d="M274.328 106.454C274.328 106.454 265.727 106.506 255.122 106.506C244.518 106.506 235.923 106.506 235.923 106.454C235.923 106.403 244.518 106.403 255.122 106.403C265.727 106.403 274.328 106.454 274.328 106.454Z" fill="#E0E0E0"/>
<path d="M274.328 108.343C274.328 108.343 265.727 108.388 255.122 108.388C244.518 108.388 235.923 108.388 235.923 108.343C235.923 108.298 244.518 108.292 255.122 108.292C265.727 108.292 274.328 108.311 274.328 108.343Z" fill="#E0E0E0"/>
<path d="M274.328 110.206C274.328 110.206 265.727 110.257 255.122 110.257C244.518 110.257 235.923 110.257 235.923 110.206C235.923 110.154 244.518 110.161 255.122 110.161C265.727 110.161 274.328 110.18 274.328 110.206Z" fill="#E0E0E0"/>
<path d="M274.328 112.075C274.328 112.075 265.727 112.12 255.122 112.12C244.518 112.12 235.923 112.12 235.923 112.075C235.923 112.03 244.518 112.023 255.122 112.023C265.727 112.023 274.328 112.049 274.328 112.075Z" fill="#E0E0E0"/>
<path d="M274.328 113.938C274.328 113.938 265.727 113.989 255.122 113.989C244.518 113.989 235.923 113.989 235.923 113.938C235.923 113.886 244.518 113.893 255.122 113.893C265.727 113.893 274.328 113.912 274.328 113.938Z" fill="#E0E0E0"/>
<path d="M235.923 115.807C235.923 115.807 244.518 115.755 255.122 115.755C265.727 115.755 274.328 115.755 274.328 115.807C274.328 115.858 265.727 115.858 255.122 115.858C244.518 115.858 235.923 115.832 235.923 115.807Z" fill="#E0E0E0"/>
<path d="M241.364 117.952C241.364 117.952 241.319 114.869 241.319 111.073C241.319 107.277 241.319 104.194 241.364 104.194C241.409 104.194 241.415 107.27 241.415 111.073C241.415 114.876 241.396 117.952 241.364 117.952Z" fill="#E0E0E0"/>
<path d="M246.894 117.952C246.894 117.952 246.849 114.869 246.849 111.073C246.849 107.277 246.849 104.194 246.894 104.194C246.939 104.194 246.945 107.27 246.945 111.073C246.945 114.876 246.926 117.952 246.894 117.952Z" fill="#E0E0E0"/>
<path d="M252.405 117.952C252.373 117.952 252.354 114.869 252.354 111.073C252.354 107.277 252.354 104.194 252.405 104.194C252.457 104.194 252.45 107.27 252.45 111.073C252.45 114.876 252.457 117.952 252.405 117.952Z" fill="#E0E0E0"/>
<path d="M257.961 117.952C257.961 117.952 257.91 114.869 257.91 111.073C257.91 107.277 257.91 104.194 257.961 104.194C258.013 104.194 258.006 107.27 258.006 111.073C258.006 114.876 257.987 117.952 257.961 117.952Z" fill="#E0E0E0"/>
<path d="M263.492 117.952C263.46 117.952 263.44 114.869 263.44 111.073C263.44 107.277 263.441 104.194 263.492 104.194C263.543 104.194 263.537 107.27 263.537 111.073C263.537 114.876 263.518 117.952 263.492 117.952Z" fill="#E0E0E0"/>
<path d="M268.842 117.952C268.842 117.952 268.791 114.869 268.791 111.073C268.791 107.277 268.791 104.194 268.842 104.194C268.894 104.194 268.894 107.27 268.894 111.073C268.894 114.876 268.868 117.952 268.842 117.952Z" fill="#E0E0E0"/>
<path d="M274.373 117.952C274.373 117.952 274.328 114.869 274.328 111.073C274.328 107.277 274.328 104.194 274.373 104.194C274.418 104.194 274.424 107.27 274.424 111.073C274.424 114.876 274.399 117.952 274.373 117.952Z" fill="#E0E0E0"/>
<path d="M241.704 115.807C241.704 115.851 241.695 115.895 241.678 115.936C241.661 115.977 241.636 116.014 241.604 116.045C241.572 116.076 241.535 116.101 241.493 116.117C241.452 116.134 241.408 116.142 241.364 116.141C241.314 116.155 241.262 116.157 241.211 116.148C241.16 116.139 241.112 116.117 241.071 116.086C241.03 116.055 240.996 116.015 240.973 115.969C240.95 115.922 240.938 115.871 240.938 115.82C240.938 115.768 240.95 115.717 240.973 115.671C240.996 115.624 241.03 115.584 241.071 115.553C241.112 115.522 241.16 115.501 241.211 115.491C241.262 115.482 241.314 115.484 241.364 115.498C241.449 115.497 241.532 115.527 241.595 115.585C241.659 115.642 241.698 115.722 241.704 115.807Z" fill="#E6A371"/>
<path d="M246.894 112.409C247.079 112.409 247.228 112.259 247.228 112.075C247.228 111.891 247.079 111.741 246.894 111.741C246.71 111.741 246.56 111.891 246.56 112.075C246.56 112.259 246.71 112.409 246.894 112.409Z" fill="#E6A371"/>
<path d="M252.765 113.906C252.772 113.954 252.768 114.003 252.754 114.049C252.74 114.096 252.716 114.139 252.684 114.176C252.653 114.213 252.613 114.242 252.569 114.262C252.524 114.282 252.476 114.293 252.428 114.293C252.379 114.293 252.331 114.282 252.287 114.262C252.242 114.242 252.203 114.213 252.171 114.176C252.139 114.139 252.115 114.096 252.102 114.049C252.088 114.003 252.084 113.954 252.091 113.906C252.102 113.824 252.142 113.75 252.204 113.696C252.266 113.642 252.346 113.612 252.428 113.612C252.51 113.612 252.589 113.642 252.651 113.696C252.713 113.75 252.754 113.824 252.765 113.906Z" fill="#E6A371"/>
<path d="M258.263 109.975C258.329 110.04 258.366 110.129 258.366 110.222C258.366 110.315 258.329 110.404 258.263 110.469C258.198 110.535 258.109 110.572 258.016 110.572C257.923 110.572 257.834 110.535 257.769 110.469C257.703 110.404 257.666 110.315 257.666 110.222C257.666 110.129 257.703 110.04 257.769 109.975C257.834 109.909 257.923 109.872 258.016 109.872C258.109 109.872 258.198 109.909 258.263 109.975Z" fill="#E6A371"/>
<path d="M263.858 109.975C263.924 110.04 263.96 110.129 263.96 110.222C263.96 110.315 263.924 110.404 263.858 110.469C263.792 110.535 263.703 110.572 263.611 110.572C263.518 110.572 263.429 110.535 263.363 110.469C263.298 110.404 263.261 110.315 263.261 110.222C263.261 110.129 263.298 110.04 263.363 109.975C263.429 109.909 263.518 109.872 263.611 109.872C263.703 109.872 263.792 109.909 263.858 109.975Z" fill="#E6A371"/>
<path d="M269.106 113.642C269.171 113.707 269.209 113.795 269.209 113.887C269.21 113.979 269.174 114.068 269.109 114.134C269.044 114.199 268.956 114.236 268.864 114.237C268.772 114.238 268.683 114.201 268.618 114.137C268.552 114.072 268.515 113.984 268.514 113.892C268.514 113.8 268.55 113.711 268.614 113.645C268.679 113.58 268.767 113.543 268.859 113.542C268.952 113.541 269.04 113.577 269.106 113.642Z" fill="#E6A371"/>
<path d="M247.267 108.343C247.255 108.424 247.215 108.499 247.153 108.553C247.091 108.607 247.012 108.637 246.929 108.637C246.847 108.637 246.768 108.607 246.706 108.553C246.644 108.499 246.603 108.424 246.592 108.343C246.586 108.295 246.589 108.246 246.603 108.199C246.617 108.152 246.641 108.109 246.673 108.073C246.705 108.036 246.744 108.007 246.788 107.986C246.833 107.966 246.881 107.956 246.929 107.956C246.978 107.956 247.026 107.966 247.07 107.986C247.115 108.007 247.154 108.036 247.186 108.073C247.218 108.109 247.242 108.152 247.256 108.199C247.27 108.246 247.273 108.295 247.267 108.343Z" fill="#455A64"/>
<path d="M241.704 113.938C241.704 114.028 241.668 114.114 241.604 114.178C241.541 114.242 241.454 114.278 241.364 114.278C241.319 114.278 241.275 114.269 241.234 114.252C241.193 114.235 241.156 114.21 241.125 114.178C241.094 114.146 241.07 114.109 241.053 114.067C241.037 114.026 241.029 113.982 241.03 113.938C241.03 113.894 241.038 113.85 241.055 113.81C241.072 113.769 241.096 113.732 241.127 113.701C241.158 113.67 241.195 113.646 241.236 113.629C241.276 113.612 241.32 113.604 241.364 113.604C241.408 113.603 241.452 113.611 241.493 113.627C241.535 113.644 241.572 113.668 241.604 113.699C241.636 113.73 241.661 113.767 241.678 113.808C241.695 113.849 241.704 113.893 241.704 113.938Z" fill="#455A64"/>
<path d="M269.106 115.563C269.171 115.628 269.207 115.717 269.206 115.809C269.205 115.901 269.168 115.99 269.103 116.054C269.037 116.119 268.948 116.155 268.856 116.154C268.764 116.154 268.676 116.117 268.611 116.051C268.546 115.985 268.51 115.897 268.511 115.805C268.512 115.713 268.549 115.624 268.614 115.56C268.68 115.495 268.769 115.459 268.861 115.459C268.953 115.46 269.041 115.497 269.106 115.563Z" fill="#455A64"/>
<path d="M263.826 112.075C263.826 112.163 263.791 112.248 263.728 112.311C263.665 112.374 263.58 112.409 263.492 112.409C263.447 112.41 263.403 112.402 263.362 112.385C263.321 112.369 263.283 112.344 263.252 112.313C263.22 112.282 263.195 112.245 263.177 112.204C263.16 112.163 263.151 112.119 263.151 112.075C263.151 111.985 263.187 111.898 263.251 111.834C263.315 111.77 263.402 111.734 263.492 111.734C263.536 111.734 263.58 111.743 263.621 111.76C263.662 111.778 263.699 111.803 263.73 111.834C263.761 111.866 263.786 111.904 263.802 111.945C263.819 111.986 263.827 112.03 263.826 112.075Z" fill="#455A64"/>
<path d="M258.353 112.024C258.353 112.114 258.317 112.2 258.254 112.264C258.19 112.328 258.103 112.364 258.013 112.364C257.968 112.364 257.924 112.355 257.883 112.338C257.843 112.321 257.805 112.296 257.774 112.264C257.743 112.232 257.719 112.195 257.702 112.153C257.686 112.112 257.678 112.068 257.679 112.024C257.679 111.935 257.714 111.85 257.777 111.787C257.839 111.725 257.924 111.69 258.013 111.69C258.057 111.689 258.101 111.697 258.143 111.713C258.184 111.729 258.221 111.754 258.253 111.785C258.285 111.816 258.31 111.853 258.327 111.894C258.344 111.935 258.353 111.979 258.353 112.024Z" fill="#455A64"/>
<path d="M239.058 119.301C238.706 119.37 238.344 119.37 237.991 119.301C238.344 119.233 238.706 119.233 239.058 119.301Z" fill="#E0E0E0"/>
<path d="M244.697 119.301C244.345 119.37 243.983 119.37 243.631 119.301C243.983 119.233 244.345 119.233 244.697 119.301Z" fill="#E0E0E0"/>
<path d="M250.363 119.301C250.011 119.37 249.649 119.37 249.296 119.301C249.649 119.233 250.011 119.233 250.363 119.301Z" fill="#E0E0E0"/>
<path d="M256.015 119.301C255.663 119.37 255.301 119.37 254.949 119.301C255.301 119.233 255.663 119.233 256.015 119.301Z" fill="#E0E0E0"/>
<path d="M261.668 119.301C261.316 119.37 260.954 119.37 260.601 119.301C260.954 119.233 261.316 119.233 261.668 119.301Z" fill="#E0E0E0"/>
<path d="M266.723 119.301C266.371 119.37 266.009 119.37 265.656 119.301C266.009 119.233 266.371 119.233 266.723 119.301Z" fill="#E0E0E0"/>
<path d="M271.778 119.301C271.426 119.37 271.064 119.37 270.712 119.301C271.064 119.233 271.426 119.233 271.778 119.301Z" fill="#E0E0E0"/>
<path d="M235.127 117.669C234.843 117.729 234.55 117.729 234.266 117.669C234.549 117.601 234.844 117.601 235.127 117.669Z" fill="#E0E0E0"/>
<path d="M235.127 115.499C234.843 115.559 234.55 115.559 234.266 115.499C234.549 115.43 234.844 115.43 235.127 115.499Z" fill="#E0E0E0"/>
<path d="M235.127 113.327C234.843 113.387 234.55 113.387 234.266 113.327C234.549 113.259 234.844 113.259 235.127 113.327Z" fill="#E0E0E0"/>
<path d="M235.127 111.156C234.843 111.216 234.55 111.216 234.266 111.156C234.549 111.088 234.844 111.088 235.127 111.156Z" fill="#E0E0E0"/>
<path d="M235.127 108.985C234.843 109.045 234.55 109.045 234.266 108.985C234.549 108.917 234.844 108.917 235.127 108.985Z" fill="#E0E0E0"/>
<path d="M235.127 106.814C234.843 106.874 234.55 106.874 234.266 106.814C234.549 106.746 234.844 106.746 235.127 106.814Z" fill="#E0E0E0"/>
<path d="M235.127 104.643C234.843 104.703 234.55 104.703 234.266 104.643C234.549 104.575 234.844 104.575 235.127 104.643Z" fill="#E0E0E0"/>
<path d="M235.885 117.83L235.827 117.657L241.325 115.723L246.881 111.972L252.412 113.803L257.987 110.129L263.569 110.116L263.595 110.129L268.894 113.88L274.032 110.482L274.135 110.636L268.894 114.105L268.836 114.066L263.511 110.302L258.045 110.315L252.444 114.008L246.913 112.178L241.396 115.897L235.885 117.83Z" fill="#E6A371"/>
<path d="M268.926 115.845L263.511 112.165H257.929L252.347 108.484L246.933 108.433L241.402 114.034H235.923V113.848H241.325L246.862 108.247L252.405 108.298L257.987 111.979H263.569L268.862 115.582L274.148 106.288L274.309 106.378L268.926 115.845Z" fill="#455A64"/>
<path d="M89.7164 195.873C91.1722 195.949 92.6319 195.872 94.0714 195.642C95.1038 195.372 96.0861 194.938 96.9812 194.357C96.9812 194.357 100.148 194.794 100.655 194.087C100.962 193.641 101.128 193.113 101.131 192.571L103.456 192.282L105.563 192.681L106.725 194.1C106.725 194.1 107.599 194.1 107.637 193.573C107.637 193.573 108.8 193.047 108.691 192.681C108.582 192.314 107.939 190.574 107.939 190.574L107.053 188.672C107.053 188.672 101.31 188.313 101.092 188.454C100.874 188.595 93.6025 191.987 93.6025 191.987L90.9112 192.629L89.7164 195.873Z" fill="#EB996E"/>
<path d="M92.6968 186.488L101.805 184.446L108.164 184.105C108.164 184.105 113.585 186.623 113.431 188.878L114.568 189.488C114.568 189.488 114.472 191.171 113.116 190.773C112.457 190.583 111.812 190.342 111.189 190.053L112.648 192.276C112.342 192.449 111.998 192.543 111.647 192.55C111.296 192.556 110.949 192.476 110.637 192.314C110.181 192.096 106.982 189.674 106.982 189.674L104.278 189.597C104.278 189.597 99.255 193.053 96.9234 193.451C94.5917 193.85 90.6221 193.027 90.6221 193.027L92.6968 186.488Z" fill="#FFBE9D"/>
<path d="M113.116 190.799C113.116 190.76 113.348 190.837 113.72 190.799C113.827 190.775 113.927 190.729 114.015 190.664C114.102 190.598 114.175 190.515 114.228 190.42C114.359 190.153 114.413 189.855 114.382 189.559L114.433 189.649L110.502 187.08L109.32 186.309C108.954 186.071 108.543 185.795 108.248 185.666H107.715H107.13H106.083C105.395 185.702 104.706 185.683 104.021 185.609C104.696 185.491 105.379 185.431 106.064 185.429L107.091 185.377H107.67H107.971H108.196C108.243 185.371 108.291 185.371 108.338 185.377C108.743 185.585 109.135 185.817 109.513 186.071L110.701 186.842C112.217 187.85 113.585 188.769 114.555 189.508L114.607 189.546V189.604C114.63 189.947 114.549 190.29 114.375 190.587C114.306 190.699 114.212 190.794 114.101 190.865C113.99 190.937 113.864 190.982 113.733 190.998C113.573 191.018 113.411 191.002 113.258 190.953C113.168 190.831 113.116 190.811 113.116 190.799Z" fill="#EB996E"/>
<path d="M112.551 192.154C112.193 191.823 111.874 191.453 111.601 191.049C111.042 190.343 110.316 189.347 109.474 188.236H109.507L109.397 188.152C109.121 187.94 108.845 187.735 108.575 187.555L108.164 187.304C108.041 187.237 107.906 187.193 107.766 187.176C107.239 187.09 106.707 187.037 106.173 187.015C105.671 187.026 105.17 186.987 104.676 186.9C105.169 186.791 105.675 186.75 106.179 186.778C106.729 186.764 107.279 186.794 107.824 186.868C107.996 186.892 108.163 186.944 108.318 187.022C108.466 187.099 108.607 187.189 108.749 187.279C109.038 187.465 109.32 187.671 109.603 187.889L109.712 187.979C110.528 189.097 111.247 190.111 111.755 190.857C112.071 191.256 112.338 191.691 112.551 192.154Z" fill="#EB996E"/>
<path d="M148.188 260.299L148.4 277.153C148.4 277.153 165.524 281.38 165.871 284.489L133.279 287.296L131.872 261.044L148.188 260.299Z" fill="#E6A371"/>
<g opacity="0.6">
<path d="M138.231 276.228C137.922 276.339 137.665 276.561 137.508 276.85C137.352 277.139 137.307 277.476 137.384 277.795C137.483 278.109 137.699 278.372 137.987 278.531C138.275 278.69 138.613 278.733 138.932 278.65C139.259 278.531 139.531 278.296 139.695 277.988C139.858 277.681 139.902 277.324 139.818 276.986C139.68 276.67 139.426 276.419 139.107 276.286C138.789 276.153 138.431 276.148 138.109 276.273" fill="white"/>
</g>
<g opacity="0.6">
<path d="M133.279 287.296L133.138 284.649L164.702 283.037C165.049 283.181 165.354 283.41 165.59 283.703C165.825 283.996 165.984 284.343 166.051 284.713L133.279 287.296Z" fill="black"/>
</g>
<path d="M148.92 276.96C148.92 277.121 148.13 277.23 147.372 277.783C146.614 278.335 146.222 279.029 146.087 278.971C145.952 278.913 146.119 277.956 147.063 277.314C148.008 276.671 148.952 276.813 148.92 276.96Z" fill="black"/>
<path d="M152.421 278.213C152.459 278.367 151.778 278.669 151.277 279.369C150.776 280.069 150.635 280.795 150.487 280.795C150.339 280.795 150.179 279.896 150.828 279.042C151.476 278.187 152.408 278.059 152.421 278.213Z" fill="black"/>
<path d="M154.559 282.221C154.418 282.26 154.161 281.476 154.527 280.583C154.893 279.69 155.619 279.299 155.696 279.433C155.773 279.568 155.33 280.076 155.054 280.789C154.778 281.502 154.72 282.195 154.559 282.221Z" fill="black"/>
<path d="M148.451 273.126C148.387 273.273 147.648 273.094 146.749 273.196C145.849 273.299 145.162 273.62 145.072 273.485C144.982 273.351 145.631 272.753 146.691 272.644C147.751 272.535 148.522 272.997 148.451 273.126Z" fill="black"/>
<g opacity="0.3">
<path d="M148.226 263.639L148.271 266.638L132.271 268.353L132.052 264.57L148.226 263.639Z" fill="black"/>
</g>
<path d="M148.348 269.728C147.818 269.898 147.253 269.922 146.71 269.798C146.116 269.721 145.534 269.572 144.976 269.355C144.645 269.226 144.323 269.073 144.012 268.899C143.823 268.808 143.649 268.687 143.499 268.54C143.389 268.432 143.318 268.291 143.297 268.139C143.276 267.986 143.306 267.831 143.383 267.698C143.456 267.582 143.557 267.486 143.675 267.416C143.794 267.347 143.927 267.307 144.064 267.3C144.279 267.287 144.495 267.304 144.706 267.351C145.651 267.538 146.534 267.957 147.275 268.572C148.066 269.214 148.355 269.818 148.303 269.856C148.252 269.895 147.841 269.432 147.019 268.893C146.554 268.579 146.051 268.326 145.522 268.141C145.211 268.031 144.891 267.95 144.565 267.897C144.218 267.82 143.922 267.833 143.839 267.994C143.839 268.051 143.807 268.077 143.884 268.173C143.998 268.278 144.126 268.366 144.263 268.437C144.55 268.603 144.846 268.753 145.149 268.886C145.669 269.114 146.209 269.293 146.762 269.42C147.298 269.48 147.828 269.583 148.348 269.728Z" fill="black"/>
<path d="M148.149 269.965C147.811 269.515 147.631 268.967 147.635 268.405C147.579 267.801 147.627 267.193 147.776 266.606C147.865 266.257 147.988 265.917 148.143 265.591C148.22 265.371 148.353 265.174 148.529 265.02C148.704 264.866 148.916 264.76 149.145 264.711C149.291 264.707 149.435 264.745 149.56 264.82C149.685 264.895 149.786 265.004 149.851 265.135C149.944 265.322 150.011 265.521 150.05 265.726C150.124 266.09 150.142 266.462 150.102 266.831C150.038 267.45 149.817 268.043 149.459 268.552C148.862 269.432 148.207 269.657 148.175 269.599C148.143 269.542 148.656 269.188 149.106 268.353C149.365 267.871 149.516 267.339 149.549 266.792C149.568 266.476 149.542 266.158 149.472 265.848C149.402 265.501 149.26 265.206 149.132 265.27C149.003 265.334 148.708 265.546 148.586 265.835C148.437 266.125 148.317 266.428 148.226 266.741C148.067 267.275 147.987 267.829 147.988 268.385C148.033 269.349 148.233 269.94 148.149 269.965Z" fill="black"/>
<path d="M66.567 202.47C66.567 202.47 119.623 193.663 121.987 193.297C131.082 191.897 141.462 193.008 144.925 199.534C146.734 204.364 147.768 209.45 147.988 214.603C148.425 222.626 151.611 270.152 151.611 270.152L129.721 273.794L122.514 221.206L110.155 223.525C110.849 223.442 78.039 229.306 68.1343 230.34C60.4841 231.117 51.665 226.994 49.905 220.172C48.7488 215.714 46.2373 203.305 46.2373 203.305L66.567 202.47Z" fill="black"/>
<path d="M127.697 213.942C126.638 214.956 125.656 216.049 124.762 217.211C123.963 218.443 123.255 219.731 122.642 221.065C122.687 220.62 122.807 220.186 122.995 219.78C123.376 218.796 123.878 217.864 124.492 217.006C125.104 216.145 125.818 215.362 126.618 214.674C126.935 214.372 127.3 214.124 127.697 213.942Z" fill="#372011"/>
<path d="M21.3921 112.473C20.614 113.753 20.2381 115.236 20.3129 116.732C20.3129 118.19 21.315 121.145 23.8971 121.292C23.2098 125.461 25.8819 128.538 30.3204 128.544C34.7589 128.551 39.8461 120.933 43.9635 119.263L55.9108 116.102C56.9578 115.858 57.3881 114.58 57.3688 113.533C57.3496 112.486 57.0734 111.336 57.4523 110.321C57.9726 108.94 59.5785 108.202 60.1244 106.827C60.7668 105.266 59.784 103.532 58.6728 102.273C57.5615 101.014 56.2127 99.8129 55.8594 98.1749C55.5318 96.6655 56.1163 94.9633 55.3584 93.6144C54.4334 91.9572 51.999 91.7452 50.8621 90.2229C50.3161 89.4778 50.1427 88.5143 49.5774 87.7692C48.6589 86.4846 46.8861 86.1698 45.3252 86.3368C43.7643 86.5038 42.2677 87.0755 40.7069 87.1911C38.5615 87.3453 36.3455 86.6516 34.2836 87.2746C32.0097 87.9555 30.6287 89.9724 29.145 91.9251L27.218 94.1861C26.8242 94.5753 26.394 94.9259 25.9333 95.2331C25.0747 95.6759 24.2597 96.1985 23.4989 96.7939C23.147 97.1656 22.8739 97.6045 22.696 98.0844C22.5181 98.5643 22.4391 99.0752 22.4637 99.5864C22.4883 100.098 22.616 100.599 22.8392 101.059C23.0623 101.52 23.3763 101.93 23.7622 102.267C22.9392 102.549 22.2296 103.09 21.7388 103.809C21.2481 104.528 21.0026 105.386 21.0388 106.255C21.0388 106.255 20.8268 108.234 22.0793 109.114C21.5982 109.511 21.2675 110.061 21.1424 110.672C21.0174 111.283 21.1055 111.919 21.3921 112.473Z" fill="black"/>
<path d="M29.3955 116.513C28.3258 113.51 27.5198 110.42 26.9867 107.277C26.4533 104.119 26.7138 100.879 27.7447 97.8474C27.9117 97.3978 29.3505 94.3596 29.8258 94.4045C30.1727 94.4431 29.2863 97.2757 29.4597 97.5712C31.1169 100.417 31.573 103.847 31.3032 107.129C31.0121 110.319 30.3658 113.467 29.3762 116.513" fill="black"/>
<path d="M37.264 144.307C30.1984 143.421 29.4019 132.103 29.4019 132.103L29.0807 104.367C28.8238 96.3829 33.2558 89.5935 41.2464 89.5356L41.9851 89.5742C45.5646 89.7713 48.9391 91.3076 51.4381 93.878C53.9371 96.4484 55.3778 99.8648 55.474 103.448C55.6602 110.373 55.7759 118.029 55.5318 121.723C55.0308 129.373 47.31 130.156 47.31 130.156C47.31 130.156 47.1044 137.023 47.1301 139.387C47.2136 147.531 39.2166 144.487 37.2383 144.313L37.264 144.307Z" fill="#FFBE9D"/>
<path d="M47.3356 130.15C43.7985 129.952 40.3923 128.744 37.5209 126.669C37.5209 126.669 39.5827 132.694 47.265 132.411L47.3356 130.15Z" fill="#EB996E"/>
<path d="M53.4827 109.724C53.471 110.009 53.3482 110.278 53.1405 110.474C52.9328 110.67 52.6568 110.776 52.3715 110.771C52.2319 110.774 52.093 110.75 51.9629 110.699C51.8329 110.648 51.7145 110.571 51.6145 110.474C51.5146 110.376 51.4351 110.259 51.3809 110.131C51.3267 110.002 51.2988 109.864 51.2988 109.724C51.3105 109.439 51.4334 109.17 51.641 108.974C51.8487 108.778 52.1248 108.672 52.4101 108.677C52.5497 108.674 52.6886 108.698 52.8186 108.749C52.9486 108.8 53.0671 108.877 53.1671 108.974C53.267 109.072 53.3464 109.189 53.4007 109.317C53.4549 109.446 53.4828 109.584 53.4827 109.724Z" fill="black"/>
<path d="M53.6947 106.538C53.547 106.673 52.7569 106.011 51.575 105.953C50.3931 105.896 49.5067 106.435 49.3847 106.281C49.2626 106.127 49.481 105.966 49.8728 105.716C50.3983 105.387 51.0142 105.232 51.6328 105.273C52.2455 105.304 52.8324 105.529 53.3093 105.915C53.6562 106.21 53.7654 106.454 53.6947 106.538Z" fill="black"/>
<path d="M42.4218 109.724C42.4101 110.009 42.2873 110.278 42.0796 110.474C41.8719 110.67 41.5959 110.776 41.3106 110.771C41.171 110.774 41.032 110.75 40.902 110.699C40.772 110.648 40.6536 110.571 40.5536 110.474C40.4536 110.376 40.3742 110.259 40.32 110.131C40.2658 110.002 40.2379 109.864 40.2379 109.724C40.2496 109.439 40.3724 109.17 40.5801 108.974C40.7878 108.778 41.0638 108.672 41.3491 108.677C41.4888 108.674 41.6277 108.698 41.7577 108.749C41.8877 108.8 42.0062 108.877 42.1061 108.974C42.2061 109.072 42.2855 109.189 42.3397 109.317C42.394 109.446 42.4219 109.584 42.4218 109.724Z" fill="black"/>
<path d="M42.1456 106.39C41.9979 106.531 41.2014 105.87 40.0259 105.812C38.8505 105.754 37.9576 106.294 37.8356 106.14C37.7136 105.986 37.9255 105.825 38.3173 105.574C38.8451 105.245 39.463 105.09 40.0837 105.131C40.6964 105.163 41.2833 105.388 41.7602 105.774C42.1007 106.069 42.2099 106.332 42.1456 106.39Z" fill="black"/>
<path d="M45.8776 115.659C46.5078 115.501 47.1549 115.421 47.8046 115.421C48.1065 115.421 48.3891 115.357 48.4469 115.158C48.4896 114.848 48.4358 114.531 48.2928 114.252C48.0487 113.514 47.7982 112.736 47.5284 111.921C46.4685 108.593 45.717 105.87 45.8519 105.831C45.9868 105.793 46.9567 108.446 48.0165 111.773C48.2671 112.589 48.5111 113.372 48.7424 114.117C48.9129 114.49 48.9448 114.912 48.8323 115.306C48.7838 115.409 48.7123 115.5 48.6232 115.571C48.5341 115.642 48.4298 115.692 48.3184 115.717C48.1499 115.755 47.9771 115.77 47.8046 115.762C47.1605 115.811 46.5128 115.777 45.8776 115.659Z" fill="black"/>
<path d="M42.364 116.288C42.5567 116.288 42.4925 117.573 43.5331 118.53C44.5736 119.487 45.9482 119.429 45.9482 119.609C45.9482 119.686 45.6335 119.841 45.0554 119.821C44.3068 119.795 43.5918 119.504 43.0385 118.999C42.5063 118.515 42.1838 117.842 42.1392 117.124C42.1264 116.584 42.287 116.276 42.364 116.288Z" fill="black"/>
<path d="M42.3641 101.618C42.2356 101.926 41.0794 101.714 39.6791 101.804C38.2789 101.894 37.1484 102.215 36.9814 101.92C36.9107 101.778 37.1162 101.489 37.5851 101.2C38.2065 100.852 38.8993 100.65 39.6106 100.609C40.322 100.569 41.0331 100.692 41.6896 100.969C42.1521 101.2 42.3641 101.464 42.3641 101.618Z" fill="black"/>
<path d="M53.4185 102.601C53.1937 102.851 52.3972 102.536 51.4273 102.466C50.4574 102.395 49.6159 102.549 49.4425 102.26C49.3654 102.119 49.5067 101.862 49.8857 101.618C50.3822 101.334 50.9548 101.213 51.5236 101.271C52.099 101.313 52.6458 101.539 53.0845 101.913C53.4185 102.189 53.5148 102.472 53.4185 102.601Z" fill="black"/>
<path d="M29.4019 110.064C29.2734 110 24.2247 108.227 24.1091 113.469C23.9935 118.71 29.2863 117.747 29.2991 117.592C29.312 117.438 29.4019 110.064 29.4019 110.064Z" fill="#FFBE9D"/>
<path d="M27.7383 115.576C27.7383 115.576 27.6483 115.633 27.4877 115.704C27.2688 115.789 27.0258 115.789 26.8069 115.704C26.2545 115.486 25.8113 114.599 25.8049 113.649C25.8062 113.205 25.9025 112.767 26.0875 112.364C26.1398 112.2 26.2316 112.052 26.3548 111.932C26.478 111.812 26.6289 111.724 26.794 111.677C26.8997 111.651 27.011 111.663 27.1085 111.711C27.206 111.759 27.2834 111.84 27.3272 111.94C27.3914 112.088 27.3272 112.191 27.385 112.197C27.4428 112.203 27.5006 112.113 27.4621 111.895C27.4358 111.764 27.3655 111.646 27.2629 111.561C27.1209 111.45 26.941 111.399 26.7619 111.42C26.5452 111.457 26.3416 111.549 26.1706 111.687C25.9997 111.826 25.8671 112.006 25.7856 112.21C25.5566 112.662 25.4377 113.161 25.4387 113.668C25.4387 114.721 25.9719 115.723 26.7234 115.961C26.8628 116.005 27.0103 116.017 27.1549 115.996C27.2995 115.974 27.4374 115.921 27.5584 115.839C27.7254 115.698 27.7575 115.582 27.7383 115.576Z" fill="#EB996E"/>
<path d="M52.2173 94.7127C53.0716 94.2567 50.5601 91.5011 48.4854 90.499C45.3509 89.0345 40.5527 88.0903 37.6365 88.8739C34.123 89.8246 31.2132 91.5268 29.3954 94.687C27.6684 97.9039 26.8241 101.521 26.9482 105.17C26.8951 106.283 27.1366 107.391 27.6483 108.381C28.3677 109.55 29.7616 110.308 29.6781 111.895C29.6353 112.479 29.8246 113.056 30.2048 113.501C31.149 114.535 32.3373 113.591 32.8897 112.64C34.0716 110.597 34.2257 108.144 34.3606 105.793C34.5419 104.126 34.4508 102.44 34.0909 100.802C33.8468 99.9284 33.4485 99.0934 33.2494 98.2327C33.1235 97.7936 33.0945 97.3324 33.1644 96.881C33.2343 96.4297 33.4013 95.9988 33.6541 95.6184C33.7846 95.4645 33.9286 95.3226 34.0844 95.1944C34.8243 94.5657 35.7181 94.145 36.6742 93.9757C37.6303 93.8064 38.6142 93.8945 39.525 94.231C42.4668 95.3101 47.4898 96.9352 48.8194 95.9524C50.7464 94.5328 51.196 93.6015 51.196 93.6015L52.2173 94.7127Z" fill="black"/>
<path d="M37.9192 88.1674C39.3612 87.6793 40.8854 87.4809 42.4044 87.5834C43.9233 87.6859 45.4071 88.0874 46.7704 88.7648C47.5001 89.1129 48.1521 89.6046 48.6874 90.2105C49.2227 90.8164 49.6302 91.5241 49.8857 92.2911C50.3032 93.8456 49.6159 95.7533 48.1129 96.3378L48.0101 96.4021C45.7684 97.1279 44.3167 96.8067 42.0943 96.0102C40.2251 95.3358 38.5679 94.1539 36.6987 93.4923C34.6927 92.7835 32.5204 92.6918 30.4617 93.2289C32.4597 90.9159 35.0318 89.1701 37.9192 88.1674Z" fill="black"/>
<path d="M27.9438 93.3509C27.9887 93.3895 28.4127 92.8885 29.267 92.2975C29.7603 91.9529 30.2929 91.6683 30.8535 91.4496C31.5281 91.1701 32.2572 91.0471 32.9861 91.0899C34.3232 91.235 35.5911 91.7586 36.6409 92.5994C37.4567 93.2417 37.8292 93.7813 37.8806 93.7428C37.932 93.7042 37.8228 93.5822 37.6494 93.3381C37.4028 92.9966 37.1184 92.6842 36.8015 92.4067C35.7437 91.4728 34.4214 90.8914 33.0182 90.7431C32.2367 90.6946 31.455 90.8333 30.7379 91.1477C30.1568 91.3879 29.612 91.7079 29.1192 92.0984C28.6442 92.4292 28.2438 92.8559 27.9438 93.3509Z" fill="#372011"/>
<path d="M43.9249 87.6921C44.3779 87.8898 44.8411 88.0635 45.3124 88.2124C47.5232 89.0952 49.4044 90.6442 50.6951 92.6445C51.1832 93.4089 51.4209 93.9291 51.4723 93.9291C51.3731 93.4332 51.1813 92.9603 50.907 92.5353C49.6983 90.3905 47.7332 88.7736 45.3959 88.0005C44.9288 87.8076 44.4301 87.7031 43.9249 87.6921Z" fill="#372011"/>
<path d="M28.3998 125.724L27.4749 129.713L48.9736 143.067L48.0101 136.413C46.054 134.405 43.8502 132.654 41.4519 131.203C37.3212 128.892 32.9428 127.054 28.3998 125.724Z" fill="#F5F5F5"/>
<path d="M26.672 130.863C26.672 130.863 20.056 144.885 19.6064 150.21C19.1567 155.535 20.9424 173.257 20.9424 173.257L50.785 207.3L80.5697 209.278C80.5697 209.278 66.4706 179.629 63.3168 173.848C60.1629 168.067 49.5581 141.866 49.5581 141.866C48.7326 139.698 47.4588 137.728 45.8198 136.085C41.7795 131.801 33.9431 129.161 26.8904 127.735L26.672 130.863Z" fill="#E6A371"/>
<path d="M38.0347 136.85C42.4604 137.37 48.145 140.703 50.1169 148.482L52.0439 158.117L61.5825 177.477L92.8317 186.392L88.7722 198.635C88.7722 198.635 57.7799 196.175 53.7653 195.096C49.7508 194.017 33.0888 170.385 33.0888 170.385C33.0888 170.385 24.7385 155.991 26.8903 145.386C27.9566 140.093 32.5749 136.207 38.0347 136.85Z" fill="#E6A371"/>
<path d="M38.0348 136.85H37.2897C36.5603 136.831 35.831 136.885 35.1122 137.01C33.9531 137.242 32.8441 137.677 31.8363 138.295C30.4719 139.143 29.3221 140.295 28.4769 141.661C27.9773 142.464 27.5802 143.328 27.2951 144.23C27.2151 144.468 27.1487 144.71 27.0959 144.956C27.0249 145.204 26.9733 145.457 26.9418 145.714C26.8711 146.234 26.8005 146.761 26.7234 147.3C26.5706 149.665 26.7239 152.04 27.1794 154.366C27.6939 157.024 28.4441 159.632 29.4212 162.157C30.4828 164.982 31.7495 167.726 33.2109 170.366C35.626 173.764 38.2532 177.348 41.0794 181.055C43.9907 184.955 47.1016 188.703 50.3996 192.282C51.259 193.206 52.2275 194.021 53.2836 194.71C53.8524 194.978 54.463 195.145 55.0886 195.205C55.7309 195.301 56.3732 195.411 57.0156 195.481C59.5849 195.822 62.2634 196.091 64.9547 196.361C70.3246 196.888 75.8743 197.376 81.4883 197.851L88.7723 198.442L88.6053 198.558C89.9798 194.396 91.3309 190.315 92.6584 186.315L92.774 186.527L61.5311 177.592H61.4669V177.535L51.954 158.156C51.5258 156.04 51.134 154.034 50.7786 152.137C50.497 150.346 50.0891 148.578 49.5581 146.844C48.6428 144.092 46.9657 141.655 44.7214 139.817C43.2952 138.658 41.6503 137.797 39.8847 137.286C39.4325 137.157 38.9736 137.052 38.5101 136.972L38.0348 136.882C38.0348 136.882 38.2018 136.882 38.5165 136.94C38.9848 137.002 39.4483 137.097 39.904 137.222C41.6695 137.712 43.3172 138.556 44.7471 139.702C47.0255 141.542 48.734 143.993 49.6738 146.767C50.2299 148.504 50.6593 150.28 50.9584 152.079C51.3395 153.972 51.7399 155.976 52.1596 158.091L61.7238 177.438L61.6339 177.368L92.8896 186.264L93.0502 186.309L92.9988 186.469C91.6756 190.465 90.3246 194.548 88.9457 198.719L88.9007 198.841H88.7723L81.4883 198.25C75.8486 197.768 70.3246 197.286 64.9483 196.753C62.257 196.483 59.6042 196.207 57.0027 195.867C56.3604 195.796 55.7181 195.687 55.0757 195.59C54.7546 195.545 54.4334 195.468 54.1123 195.404C53.7758 195.352 53.4529 195.234 53.1616 195.057C52.0872 194.337 51.1037 193.489 50.2326 192.533C46.9274 188.943 43.8122 185.182 40.8996 181.267C38.0797 177.554 35.459 173.963 33.0439 170.553C31.5837 167.897 30.3193 165.138 29.2606 162.299C28.2539 159.733 27.48 157.083 26.9482 154.379C26.4976 152.037 26.353 149.647 26.5178 147.268C26.5949 146.722 26.672 146.183 26.7427 145.662C26.7785 145.404 26.8344 145.148 26.9097 144.898C26.9637 144.648 27.0323 144.401 27.1152 144.159C27.4074 143.24 27.8153 142.361 28.3292 141.545C29.1911 140.167 30.3636 139.01 31.7528 138.166C32.7741 137.543 33.8988 137.108 35.0736 136.882C35.799 136.759 36.5359 136.718 37.2704 136.76C37.7843 136.817 38.0348 136.85 38.0348 136.85Z" fill="black"/>
<path d="M56.187 184.953C56.2829 184.503 56.4475 184.069 56.6751 183.669C57.156 182.668 57.7279 181.713 58.3837 180.817C59.0409 179.921 59.7784 179.087 60.5869 178.325C60.9006 177.986 61.2646 177.698 61.666 177.47C61.7367 177.547 60.163 178.941 58.6535 181.016C57.144 183.091 56.2833 184.998 56.187 184.953Z" fill="black"/>
<path d="M50.7143 144.352C50.4404 144.107 50.1869 143.841 49.9564 143.555C49.7251 143.286 49.4425 142.964 49.0892 142.611C48.7359 142.258 48.357 141.834 47.8816 141.41C46.8161 140.394 45.6876 139.445 44.503 138.571C43.0447 137.508 41.5168 136.545 39.9296 135.687C37.0145 134.165 33.9574 132.932 30.8021 132.006C29.5946 131.647 28.6054 131.364 27.9245 131.203C27.5649 131.129 27.2125 131.024 26.8711 130.889C27.2371 130.924 27.5999 130.986 27.9566 131.075C28.6503 131.21 29.646 131.448 30.8664 131.775C34.0601 132.631 37.1509 133.833 40.0838 135.359C41.6866 136.221 43.2237 137.2 44.6828 138.288C45.8698 139.182 46.9924 140.159 48.0422 141.211C48.5047 141.641 48.8772 142.084 49.2177 142.451C49.5581 142.817 49.86 143.157 50.0527 143.44C50.2972 143.726 50.5184 144.031 50.7143 144.352Z" fill="black"/>
<path d="M142.265 153.017C142.13 152.976 141.987 152.963 141.846 152.978C141.705 152.992 141.568 153.034 141.444 153.102C141.319 153.169 141.209 153.26 141.12 153.37C141.03 153.48 140.963 153.607 140.923 153.743L130.055 190.086L93.6475 195.738C93.0832 195.827 92.577 196.135 92.2399 196.597C91.9027 197.058 91.7622 197.634 91.849 198.198L131.731 191.981L142.978 154.353C143.059 154.081 143.029 153.789 142.896 153.539C142.762 153.289 142.536 153.101 142.265 153.017Z" fill="#E0E0E0"/>
<path d="M142.265 153.017C142.516 153.078 142.734 153.232 142.875 153.447C142.963 153.579 143.021 153.728 143.047 153.884C143.072 154.04 143.064 154.2 143.023 154.353L142.67 155.58L140.325 163.57L131.879 192.026V191.987V192.128H131.731L131.847 192.026L131.802 192.167L131.667 192.122H131.725L92.6198 198.308L91.8747 198.423H91.7141V198.256C91.6382 197.764 91.7221 197.261 91.9533 196.821C92.1845 196.38 92.551 196.026 92.9987 195.809C93.2202 195.704 93.4562 195.632 93.6989 195.597L94.3733 195.494L95.7158 195.282L101.041 194.454L111.318 192.854L130.035 189.957L129.92 190.06C133.35 178.672 136.202 169.191 138.206 162.543L140.55 154.835C140.683 154.407 140.805 154.015 140.916 153.659C140.972 153.513 141.058 153.38 141.168 153.269C141.279 153.158 141.412 153.072 141.559 153.017C141.792 152.925 142.051 152.925 142.285 153.017C142.049 152.964 141.802 152.984 141.578 153.075C141.445 153.131 141.325 153.214 141.225 153.319C141.126 153.424 141.049 153.549 141 153.685C140.897 154.028 140.782 154.419 140.653 154.86L138.386 162.568C136.414 169.223 133.594 178.717 130.215 190.118V190.201H130.125L111.344 193.169L101.066 194.775L95.7415 195.603L94.399 195.815C93.9597 195.853 93.5276 195.95 93.1143 196.104C92.731 196.29 92.4171 196.593 92.2183 196.97C92.0195 197.347 91.9464 197.777 92.0095 198.198L91.8168 198.063L92.5619 197.948L131.705 191.884H131.738L131.558 191.981V191.891H131.648L131.526 192.058V192C135.058 180.252 138.013 170.45 140.081 163.57C141.122 160.147 141.944 157.455 142.509 155.606L142.882 154.385C142.922 154.241 142.932 154.09 142.911 153.942C142.89 153.794 142.839 153.652 142.76 153.524C142.648 153.311 142.476 153.134 142.265 153.017Z" fill="black"/>
<path d="M131.738 192.006C131.66 192.058 131.275 191.608 130.8 191.068C130.324 190.529 129.945 190.073 130.01 190.002C130.074 189.931 130.569 190.285 131.057 190.85C131.545 191.415 131.815 191.955 131.738 192.006Z" fill="#372011"/>
<path d="M125.732 191.46C125.732 191.422 125.892 191.3 126.149 191.46C126.231 191.503 126.298 191.568 126.343 191.647C126.389 191.727 126.411 191.818 126.406 191.91C126.401 192.025 126.36 192.136 126.288 192.227C126.216 192.317 126.117 192.382 126.006 192.413C125.894 192.444 125.776 192.438 125.668 192.397C125.56 192.357 125.468 192.283 125.404 192.186C125.349 192.113 125.316 192.026 125.308 191.935C125.3 191.845 125.318 191.753 125.359 191.672C125.513 191.402 125.745 191.447 125.732 191.486C125.719 191.524 125.61 191.595 125.578 191.762C125.571 191.807 125.574 191.853 125.589 191.896C125.603 191.939 125.628 191.978 125.661 192.01C125.694 192.041 125.734 192.064 125.777 192.077C125.821 192.09 125.867 192.092 125.912 192.083C125.959 192.07 126.001 192.043 126.034 192.007C126.067 191.971 126.089 191.926 126.098 191.878C126.105 191.837 126.1 191.796 126.086 191.757C126.071 191.719 126.046 191.685 126.014 191.659C125.867 191.499 125.751 191.499 125.732 191.46Z" fill="#372011"/>
<path d="M128.057 191.101C128.057 191.062 128.218 190.94 128.475 191.101C128.556 191.143 128.624 191.207 128.67 191.287C128.715 191.367 128.737 191.458 128.731 191.55C128.724 191.664 128.68 191.773 128.608 191.862C128.535 191.95 128.437 192.014 128.327 192.045C128.217 192.072 128.101 192.065 127.995 192.026C127.889 191.987 127.796 191.918 127.729 191.826C127.675 191.753 127.641 191.667 127.634 191.576C127.626 191.485 127.643 191.394 127.684 191.312C127.845 191.043 128.07 191.081 128.057 191.12C128.044 191.158 127.935 191.235 127.903 191.396C127.894 191.438 127.896 191.482 127.908 191.524C127.921 191.565 127.943 191.603 127.973 191.634C128.006 191.67 128.047 191.697 128.093 191.713C128.139 191.729 128.189 191.733 128.237 191.724C128.283 191.709 128.325 191.682 128.358 191.646C128.39 191.61 128.413 191.566 128.423 191.518C128.431 191.476 128.428 191.434 128.413 191.394C128.398 191.354 128.373 191.319 128.34 191.293C128.205 191.145 128.076 191.145 128.057 191.101Z" fill="#372011"/>
<path d="M38.2339 238.967L23.4539 287.52L28.843 287.572L48.813 238.459L38.2339 238.967Z" fill="black"/>
<path d="M101.792 232.351C101.754 232.351 118.493 287.437 118.493 287.437L123.837 287.514L113.534 231.246L101.792 232.351Z" fill="black"/>
<path d="M15.1358 161.83C14.3293 161.085 13.3253 160.589 12.2441 160.401C11.1629 160.213 10.0504 160.341 9.04006 160.77C4.89705 162.536 -1.16653 166.159 0.19521 171.882C1.89738 179.038 21.4884 225.709 27.8089 240.701C28.386 242.068 29.3557 243.233 30.5952 244.048C31.8347 244.863 33.2882 245.292 34.7717 245.281L116.874 244.587C117.732 244.579 118.579 244.389 119.359 244.029C120.138 243.669 120.832 243.149 121.396 242.501C121.959 241.853 122.379 241.093 122.627 240.272C122.875 239.45 122.946 238.585 122.835 237.734L119.765 214.417C119.271 210.671 117.516 207.205 114.788 204.591C112.06 201.976 108.523 200.37 104.76 200.035L51.6649 195.321L15.1358 161.83Z" fill="#372011"/>
<path d="M25.1239 233.449C25.1024 233.393 25.0873 233.335 25.079 233.276C25.079 233.147 25.0212 232.987 24.9762 232.781C24.8863 232.319 24.7642 231.676 24.6101 230.854C24.3082 229.159 23.8714 226.756 23.3254 223.789C22.7794 220.821 22.1692 217.243 21.4755 213.299C21.1351 211.327 20.7689 209.253 20.3964 207.107C20.2101 206.028 20.0174 204.936 19.8247 203.825C19.566 202.688 19.5355 201.512 19.7348 200.363C19.8754 199.779 20.1454 199.235 20.5249 198.77C20.9169 198.313 21.3949 197.938 21.9316 197.665C22.9433 197.182 24.0289 196.871 25.1432 196.747C27.3271 196.503 29.4211 196.381 31.4252 196.233C35.4269 195.957 39.0303 195.777 42.0621 195.655C45.0939 195.533 47.5476 195.481 49.2433 195.456H51.1703H51.6778H51.8512C51.7936 195.462 51.7354 195.462 51.6778 195.456H51.1703L49.2433 195.533L42.075 195.841C39.0432 195.989 35.4397 196.194 31.4444 196.483C29.4532 196.637 27.34 196.772 25.1882 197.016C24.1026 197.131 23.0446 197.431 22.06 197.903C21.5651 198.142 21.1287 198.487 20.7813 198.913C20.434 199.339 20.1842 199.836 20.0495 200.369C19.8599 201.476 19.8927 202.609 20.1459 203.703C20.3343 204.816 20.5206 205.908 20.7047 206.979C21.0773 209.12 21.4305 211.186 21.7646 213.177C22.4069 217.128 23.0492 220.68 23.5438 223.679C24.0384 226.679 24.4366 229.062 24.7128 230.745C24.8413 231.561 24.9441 232.21 25.0147 232.672C25.0147 232.878 25.0661 233.045 25.0854 233.179C25.1159 233.266 25.129 233.358 25.1239 233.449Z" fill="black"/>
<path d="M119.109 231.246C119.109 231.336 97.9126 231.413 71.7505 231.413C45.5885 231.413 24.3788 231.336 24.3788 231.246C24.3788 231.156 45.5757 231.079 71.7441 231.079C97.9126 231.079 119.109 231.156 119.109 231.246Z" fill="black"/>
<path d="M34.5597 196.066C34.4891 196.13 28.008 188.673 20.0817 179.417C12.1553 170.161 5.78344 162.607 5.8541 162.543C5.92475 162.478 12.4058 169.936 20.3322 179.198C28.2585 188.461 34.6561 196.008 34.5597 196.066Z" fill="black"/>
</svg>
