<svg width="286" height="288" viewBox="0 0 286 288" fill="none" xmlns="http://www.w3.org/2000/svg">
<path d="M4.59516 8.94644H56.3283C57.6778 8.94644 58.7719 10.0405 58.7719 11.3901V65.3649C58.7719 66.7144 57.6778 67.8085 56.3283 67.8085H4.59516C3.24559 67.8085 2.15154 66.7144 2.15154 65.3649V11.3901C2.15154 10.0405 3.24559 8.94644 4.59516 8.94644Z" stroke="black" stroke-width="0.2"/>
<path d="M30.982 22.1682C27.8746 22.1682 24.837 23.0897 22.2533 24.8161C19.6695 26.5424 17.6558 28.9962 16.4666 31.8671C15.2775 34.738 14.9663 37.897 15.5726 40.9447C16.1788 43.9924 17.6751 46.7919 19.8724 48.9892C22.0697 51.1864 24.8692 52.6828 27.9169 53.289C30.9646 53.8952 34.1236 53.5841 36.9945 52.3949C39.8653 51.2058 42.3191 49.192 44.0455 46.6083C45.7719 44.0246 46.6933 40.987 46.6933 37.8796C46.6933 33.7126 45.038 29.7164 42.0916 26.77C39.1452 23.8235 35.1489 22.1682 30.982 22.1682ZM31.2197 47.2961C29.3141 47.2961 27.4512 46.731 25.8668 45.6723C24.2823 44.6136 23.0474 43.1088 22.3182 41.3483C21.5889 39.5877 21.3981 37.6505 21.7699 35.7815C22.1416 33.9125 23.0593 32.1957 24.4068 30.8482C25.7542 29.5008 27.471 28.5831 29.34 28.2114C31.209 27.8396 33.1462 28.0304 34.9068 28.7597C36.6673 29.4889 38.1721 30.7238 39.2308 32.3083C40.2895 33.8927 40.8546 35.7556 40.8546 37.6612C40.8546 40.2165 39.8395 42.6672 38.0326 44.4741C36.2257 46.281 33.775 47.2961 31.2197 47.2961Z" fill="#E0E0E0"/>
<path d="M31.2197 22.1748V27.9943C32.7406 27.9876 34.2415 28.341 35.5996 29.0257C36.9578 29.7104 38.1345 30.7069 39.0336 31.9336C39.9327 33.1604 40.5285 34.5826 40.7725 36.0838C41.0164 37.5851 40.9015 39.1228 40.4371 40.5711L46.1281 42.1127C46.773 39.7992 46.8785 37.3687 46.4365 35.0081C45.9945 32.6475 45.0168 30.4197 43.5786 28.4963C42.1404 26.573 40.28 25.0052 38.1408 23.9137C36.0015 22.8222 33.6403 22.2361 31.2389 22.2005L31.2197 22.1748Z" fill="#FAFAFA"/>
<path d="M21.5655 37.642C21.564 35.7767 22.104 33.9511 23.1199 32.3868C24.1358 30.8224 25.584 29.5866 27.2886 28.8293L24.8734 23.4016C22.0204 24.5981 19.5841 26.6104 17.8701 29.186C16.1561 31.7616 15.2406 34.7859 15.2385 37.8797C15.2385 38.1045 15.2385 38.3229 15.2385 38.522H21.559C21.5847 38.2458 21.5655 37.9439 21.5655 37.642Z" fill="#EBEBEB"/>
<path d="M31.2197 47.2962C30.533 47.2959 29.8483 47.2227 29.1771 47.0778C28.933 48.4781 28.4769 51.1887 28.1172 53.3277C29.0619 53.5039 30.021 53.5921 30.982 53.591C34.4107 53.5913 37.7453 52.4695 40.4767 50.3969C43.208 48.3243 45.1861 45.4148 46.1088 42.1126L40.4371 40.571C39.8173 42.5276 38.5889 44.2351 36.9309 45.4448C35.2729 46.6545 33.272 47.3031 31.2197 47.2962Z" fill="#EBEBEB"/>
<path d="M29.1321 38.4255H28.554V39.1771H27.7447V38.4255H25.8177V37.8667L27.5006 35.6057H28.3677L26.8133 37.7254H27.7704V37.0831H28.554V37.7254H29.1321V38.4255Z" fill="#E0E0E0"/>
<path d="M29.3762 37.3914C29.3762 36.2095 30.0185 35.5415 30.9049 35.5415C31.7913 35.5415 32.4401 36.1838 32.4401 37.3914C32.4401 38.599 31.7977 39.2349 30.9049 39.2349C30.0121 39.2349 29.3762 38.5669 29.3762 37.3914ZM31.605 37.3914C31.605 36.5757 31.3224 36.2416 30.9049 36.2416C30.4874 36.2416 30.2112 36.5757 30.2112 37.3914C30.2112 38.2072 30.5002 38.5348 30.9049 38.5348C31.3096 38.5348 31.605 38.2007 31.605 37.3914Z" fill="#E0E0E0"/>
<path d="M32.7805 36.5499C32.7701 36.4276 32.7852 36.3045 32.8248 36.1883C32.8645 36.0721 32.9278 35.9654 33.0108 35.875C33.0939 35.7846 33.1948 35.7124 33.3072 35.663C33.4195 35.6136 33.541 35.5881 33.6637 35.5881C33.7865 35.5881 33.9079 35.6136 34.0203 35.663C34.1327 35.7124 34.2336 35.7846 34.3166 35.875C34.3997 35.9654 34.463 36.0721 34.5026 36.1883C34.5423 36.3045 34.5574 36.4276 34.5469 36.5499C34.5574 36.6723 34.5423 36.7954 34.5026 36.9116C34.463 37.0278 34.3997 37.1344 34.3166 37.2249C34.2336 37.3153 34.1327 37.3875 34.0203 37.4369C33.9079 37.4862 33.7865 37.5117 33.6637 37.5117C33.541 37.5117 33.4195 37.4862 33.3072 37.4369C33.1948 37.3875 33.0939 37.3153 33.0108 37.2249C32.9278 37.1344 32.8645 37.0278 32.8248 36.9116C32.7852 36.7954 32.7701 36.6723 32.7805 36.5499ZM34.0652 36.5499C34.0652 36.1645 33.9174 35.9847 33.6926 35.9847C33.4678 35.9847 33.3201 36.171 33.3201 36.5499C33.3201 36.9289 33.4742 37.1152 33.6926 37.1152C33.911 37.1152 34.0138 36.9289 34.0138 36.5499H34.0652ZM35.8187 35.6057H36.4611L34.0202 39.1771H33.3715L35.8187 35.6057ZM35.2342 38.2328C35.2528 38.0626 35.3204 37.9014 35.4286 37.7687C35.5369 37.636 35.6813 37.5376 35.8444 37.4852C36.0075 37.4329 36.1822 37.4289 36.3475 37.4737C36.5127 37.5185 36.6615 37.6103 36.7757 37.7379C36.89 37.8655 36.9648 38.0234 36.9912 38.1926C37.0176 38.3618 36.9944 38.5351 36.9244 38.6914C36.8544 38.8477 36.7407 38.9804 36.5969 39.0734C36.4531 39.1664 36.2855 39.2158 36.1142 39.2156C35.9876 39.2191 35.8618 39.1954 35.7451 39.1462C35.6284 39.097 35.5236 39.0234 35.4378 38.9302C35.352 38.8371 35.2871 38.7267 35.2476 38.6064C35.208 38.4861 35.1947 38.3587 35.2085 38.2328H35.2342ZM36.5189 38.2328C36.5189 37.8539 36.3711 37.6676 36.1463 37.6676C35.9215 37.6676 35.7738 37.8474 35.7738 38.2328C35.7738 38.6182 35.9279 38.7981 36.1463 38.7981C36.3647 38.7981 36.4611 38.6054 36.4611 38.2328H36.5189Z" fill="#E0E0E0"/>
<path d="M43.9827 57.5542C43.9827 57.6377 38.1632 57.7084 30.982 57.7084C23.8008 57.7084 17.9556 57.6377 17.9556 57.5542C17.9556 57.4707 23.7751 57.4065 30.9563 57.4065C38.1375 57.4065 43.9827 57.4772 43.9827 57.5542Z" fill="#E0E0E0"/>
<path d="M38.1953 59.9436C38.1953 60.0271 34.9837 60.0914 30.982 60.0914C26.9803 60.0914 23.7686 60.0271 23.7686 59.9436C23.7686 59.8601 26.9803 59.7959 30.982 59.7959C34.9837 59.7959 38.1953 59.8601 38.1953 59.9436Z" fill="#E0E0E0"/>
<path d="M7.71688 15.3018C8.50796 15.3018 9.14927 14.6605 9.14927 13.8694C9.14927 13.0783 8.50796 12.437 7.71688 12.437C6.92579 12.437 6.28448 13.0783 6.28448 13.8694C6.28448 14.6605 6.92579 15.3018 7.71688 15.3018Z" fill="#E0E0E0"/>
<path d="M11.4103 15.3018C12.2014 15.3018 12.8427 14.6605 12.8427 13.8694C12.8427 13.0783 12.2014 12.437 11.4103 12.437C10.6192 12.437 9.97787 13.0783 9.97787 13.8694C9.97787 14.6605 10.6192 15.3018 11.4103 15.3018Z" fill="#E0E0E0"/>
<path d="M16.5296 13.8694C16.5296 14.1527 16.4456 14.4297 16.2882 14.6652C16.1308 14.9008 15.9071 15.0844 15.6454 15.1928C15.3836 15.3012 15.0956 15.3296 14.8178 15.2743C14.5399 15.219 14.2847 15.0826 14.0844 14.8823C13.884 14.6819 13.7476 14.4267 13.6923 14.1489C13.6371 13.871 13.6654 13.583 13.7739 13.3213C13.8823 13.0595 14.0659 12.8358 14.3014 12.6784C14.537 12.521 14.8139 12.437 15.0972 12.437C15.2856 12.4362 15.4722 12.4726 15.6464 12.5443C15.8205 12.616 15.9788 12.7215 16.112 12.8547C16.2451 12.9878 16.3506 13.1461 16.4223 13.3203C16.494 13.4944 16.5305 13.6811 16.5296 13.8694Z" fill="#E0E0E0"/>
<path d="M243.873 29.1866C243.737 28.6053 243.668 28.011 243.667 27.4148C243.642 26.7011 243.561 25.9903 243.425 25.2885C243.304 24.3234 243.112 23.3681 242.85 22.4298C242.221 19.8459 241.201 17.3677 239.825 15.0765C238.013 12.0357 235.622 9.36128 232.781 7.19744C229.122 4.37545 224.797 2.49315 220.2 1.72244C215.604 0.951739 210.883 1.31719 206.469 2.78542C203.925 3.60479 201.525 4.79993 199.352 6.32921C198.225 7.1074 197.151 7.95781 196.139 8.87483C195.138 9.84077 194.204 10.8708 193.343 11.9579C189.725 16.5169 187.696 22.0859 187.553 27.8508C187.409 33.6157 189.158 39.2743 192.545 43.9997C193.35 45.1266 194.231 46.2 195.183 47.2127C196.15 48.174 197.178 49.0736 198.263 49.906C200.359 51.5367 202.698 52.8452 205.198 53.7864C211.245 56.0925 217.922 56.2867 224.099 54.3361C230.275 52.3855 235.57 48.4102 239.086 43.0842C240.582 40.8637 241.729 38.4368 242.487 35.8844C242.792 34.9586 243.031 34.0133 243.201 33.0553C243.373 32.3621 243.49 31.6572 243.552 30.9467C243.581 30.3474 243.678 29.753 243.843 29.1748C243.912 29.7635 243.912 30.358 243.843 30.9467C243.838 31.6717 243.769 32.395 243.637 33.1084C243.513 34.0929 243.311 35.0665 243.032 36.0203C242.362 38.6696 241.267 41.1991 239.788 43.5154C237.641 46.9472 234.767 49.8912 231.358 52.1496C227.949 54.4081 224.085 55.9288 220.024 56.6097C214.867 57.4518 209.573 56.9255 204.696 55.0858C202.056 54.1161 199.584 52.7555 197.368 51.0518C196.218 50.1793 195.129 49.2342 194.106 48.2227C193.097 47.159 192.163 46.0303 191.31 44.8443C187.716 39.8655 185.857 33.8906 186.009 27.8019C186.16 21.7131 188.314 15.8333 192.151 11.0306C193.064 9.886 194.055 8.80269 195.116 7.78807C196.186 6.82593 197.32 5.93409 198.511 5.11841C200.812 3.52596 203.348 2.287 206.033 1.44469C210.996 -0.15742 216.308 -0.432747 221.416 0.647333C225.451 1.51453 229.248 3.21518 232.553 5.63481C235.858 8.05445 238.593 11.1369 240.575 14.6748C241.938 17.0595 242.908 19.6386 243.45 22.3176C243.676 23.2892 243.823 24.2766 243.891 25.2708C243.988 25.9892 244.02 26.7145 243.988 27.4384C244.017 28.0235 243.978 28.6099 243.873 29.1866Z" fill="#EBEBEB"/>
<path d="M237.995 11.1587C238.055 11.2482 237.55 11.7214 236.576 12.5015L234.794 13.8955C234.438 14.1577 234.063 14.4583 233.648 14.7396L232.27 15.5134C227.26 18.5956 221.562 20.1435 215.794 19.9895L213.299 19.868L210.923 19.4652C210.537 19.3948 210.145 19.3373 209.765 19.2542L208.648 18.9344C207.912 18.717 207.181 18.5316 206.492 18.295C204.035 17.4121 201.673 16.2458 199.448 14.8164C195.695 12.3736 193.865 10.1483 194.008 10.0077C194.15 9.86698 196.199 11.683 199.983 13.7932C202.19 15.0312 204.496 16.0541 206.873 16.8498C207.544 17.0608 208.245 17.2207 208.951 17.4125L210.026 17.7003L211.143 17.8857L213.43 18.2438L215.806 18.3461C221.332 18.4798 226.805 17.163 231.753 14.5094L233.149 13.87C233.576 13.6334 233.962 13.3776 234.337 13.1538L236.273 11.9644C237.306 11.3569 237.93 11.0947 237.995 11.1587Z" fill="#EBEBEB"/>
<path d="M193.006 45.8527C192.94 45.763 193.446 45.2892 194.421 44.5081L196.205 43.1123C196.562 42.8434 196.937 42.5489 197.353 42.2672L198.739 41.4925C203.753 38.4053 209.457 36.8553 215.231 37.0106L217.729 37.1323L220.108 37.5356C220.5 37.6061 220.887 37.6637 221.267 37.7469L222.392 38.0671C223.123 38.2847 223.855 38.4704 224.544 38.7073C226.986 39.591 229.333 40.7544 231.544 42.1775C235.303 44.6234 237.135 46.8515 236.992 46.9923C236.85 47.1332 234.798 45.3148 231.009 43.202C228.802 41.9719 226.497 40.9563 224.122 40.1671C223.45 39.9558 222.748 39.7958 222.041 39.5973L220.964 39.3156L219.888 39.1619L217.598 38.8034L215.219 38.6945C209.685 38.5615 204.205 39.8799 199.25 42.5361L197.853 43.1764C197.425 43.4133 197.038 43.6694 196.663 43.8935L194.748 45.0267C193.69 45.6542 193.065 45.9487 193.006 45.8527Z" fill="#EBEBEB"/>
<path d="M244 29.8297C244 30.0376 231.217 30.0578 215.473 29.8759C199.728 29.694 187 29.3765 187 29.1687C187 28.9608 199.777 28.9435 215.527 29.1254C231.278 29.3072 244.006 29.6392 244 29.8297Z" fill="#EBEBEB"/>
<path d="M214.34 57C213.924 57 213.884 44.2205 214.253 28.4849C214.623 12.7493 215.247 -0.0120818 215.663 8.58387e-06C216.078 0.0120989 216.113 12.7735 215.749 28.5212C215.385 44.2688 214.733 57.0121 214.34 57Z" fill="#EBEBEB"/>
<path d="M214.591 56.9907C214.479 57.1599 211.245 55.0264 207.52 50.2095C205.341 47.3748 203.577 44.2609 202.277 40.9563C200.691 36.8764 199.92 32.54 200.007 28.1795C200.113 23.8149 201.12 19.5155 202.967 15.5357C204.448 12.3033 206.368 9.27852 208.677 6.54242C212.626 1.90072 215.885 -0.154199 215.997 0.0089858C216.109 0.172171 213.204 2.52324 209.578 7.22538C207.462 9.96246 205.694 12.9373 204.31 16.0857C202.626 19.9115 201.706 24.0136 201.599 28.1735C201.52 32.3438 202.215 36.4937 203.651 40.4244C204.847 43.6401 206.451 46.6978 208.428 49.5265C211.824 54.4281 214.734 56.8215 214.591 56.9907Z" fill="#EBEBEB"/>
<path d="M215.425 0.00870454C215.537 -0.154551 218.766 1.97382 222.492 6.79894C224.667 9.63464 226.429 12.75 227.727 16.0561C229.308 20.1363 230.078 24.4722 229.994 28.8324C229.883 33.2009 228.875 37.5037 227.032 41.4878C225.542 44.7119 223.616 47.7276 221.306 50.4547C217.362 55.0985 214.108 57.1543 214.003 56.991C213.897 56.8278 216.791 54.4757 220.412 49.7715C222.522 47.0351 224.286 44.0609 225.665 40.9133C227.346 37.0852 228.266 32.9819 228.379 28.8203C228.456 24.6498 227.759 20.5 226.324 16.5701C225.13 13.3513 223.527 10.2903 221.554 7.45801C218.17 2.57847 215.263 0.184053 215.425 0.00870454Z" fill="#EBEBEB"/>
<path d="M190.671 248.884V231.51C194.083 231.511 197.418 232.518 200.26 234.405C203.102 236.292 205.324 238.976 206.649 242.12C207.973 245.264 208.341 248.729 207.706 252.081C207.071 255.433 205.461 258.523 203.078 260.964C200.696 263.406 197.646 265.091 194.311 265.808C190.975 266.525 187.503 266.242 184.327 264.995C181.152 263.748 178.414 261.593 176.458 258.798C174.502 256.003 173.413 252.693 173.328 249.283L190.671 248.884Z" fill="#EBEBEB"/>
<path d="M186.438 244.202L169.063 244.594C169.059 239.95 170.818 235.478 173.983 232.081C177.228 228.831 181.597 226.952 186.188 226.833L186.438 244.202Z" fill="#F5F5F5"/>
<path d="M285.093 287.591C285.093 287.687 222.145 287.758 144.501 287.758C66.856 287.758 3.89502 287.687 3.89502 287.591C3.89502 287.495 66.8432 287.424 144.501 287.424C222.158 287.424 285.093 287.482 285.093 287.591Z" fill="#263238"/>
<path d="M211.373 155.74H156.788C154.699 155.74 153.005 157.434 153.005 159.524V192.944C153.005 195.033 154.699 196.727 156.788 196.727H211.373C213.463 196.727 215.157 195.033 215.157 192.944V159.524C215.157 157.434 213.463 155.74 211.373 155.74Z" fill="white"/>
<path d="M211.38 196.734C211.38 196.734 211.553 196.734 211.894 196.676C212.391 196.607 212.868 196.434 213.294 196.168C213.992 195.742 214.535 195.103 214.842 194.344C215.234 193.445 215.067 192.295 215.099 191.036C215.099 185.975 215.067 178.659 215.041 169.627C215.041 167.366 215.041 165.003 215.041 162.562C215.041 161.92 215.041 161.322 215.041 160.693C215.07 160.066 215.045 159.439 214.964 158.817C214.835 158.198 214.548 157.624 214.13 157.149C213.713 156.675 213.179 156.318 212.581 156.113C211.957 155.925 211.303 155.855 210.654 155.907H195.675H156.795C155.967 155.908 155.164 156.192 154.521 156.712C153.877 157.232 153.43 157.957 153.256 158.766C153.185 159.173 153.157 159.586 153.172 159.999V173.719C153.172 180.219 153.172 186.495 153.172 192.469C153.114 193.19 153.247 193.915 153.557 194.569C153.873 195.202 154.366 195.729 154.977 196.085C155.582 196.436 156.275 196.608 156.975 196.58H167.355H182.128L203.537 196.631L209.356 196.663H203.537L182.128 196.714H167.355H156.962C156.209 196.74 155.464 196.555 154.81 196.181C154.148 195.794 153.612 195.223 153.268 194.537C152.94 193.84 152.796 193.07 152.851 192.302C152.851 186.328 152.851 180.052 152.851 173.552C152.851 170.293 152.851 166.985 152.851 163.628V159.832C152.835 159.402 152.865 158.971 152.941 158.547C153.132 157.666 153.618 156.877 154.319 156.309C155.02 155.742 155.893 155.43 156.795 155.426H195.675H204.404H210.654C211.339 155.375 212.027 155.452 212.684 155.65C213.329 155.871 213.905 156.256 214.355 156.767C214.806 157.279 215.115 157.899 215.253 158.567C215.335 159.205 215.361 159.85 215.33 160.494V162.363C215.33 164.829 215.33 167.193 215.33 169.428C215.33 178.459 215.292 185.776 215.279 190.837C215.279 191.479 215.279 192.064 215.279 192.629C215.286 193.161 215.188 193.69 214.99 194.184C214.669 194.956 214.105 195.603 213.384 196.027C212.948 196.291 212.459 196.456 211.951 196.509C211.769 196.603 211.577 196.678 211.38 196.734Z" fill="#263238"/>
<path d="M183.246 179.545H180.863V189.039H183.246V179.545Z" fill="#E6A371"/>
<path d="M163.327 178.17H160.944V189.039H163.327V178.17Z" fill="#E6A371"/>
<path d="M168.305 175.903H165.922V189.032H168.305V175.903Z" fill="#E6A371"/>
<path d="M173.283 176.622H170.9V189.032H173.283V176.622Z" fill="#E6A371"/>
<path d="M178.268 172.422H175.885V189.032H178.268V172.422Z" fill="#E6A371"/>
<path d="M188.224 172.505H185.841V189.032H188.224V172.505Z" fill="#E6A371"/>
<path d="M193.208 177.933H190.825V189.032H193.208V177.933Z" fill="#E6A371"/>
<path d="M198.186 173.231H195.803V189.032H198.186V173.231Z" fill="#E6A371"/>
<path d="M203.164 169.672H200.781V189.032H203.164V169.672Z" fill="#E6A371"/>
<path d="M208.149 173.154H205.766V189.039H208.149V173.154Z" fill="#E6A371"/>
<path d="M161.143 161.386C161.143 161.684 161.055 161.974 160.89 162.221C160.725 162.469 160.49 162.661 160.215 162.775C159.941 162.889 159.639 162.919 159.347 162.861C159.055 162.803 158.788 162.659 158.577 162.449C158.367 162.239 158.224 161.971 158.166 161.68C158.108 161.388 158.138 161.086 158.252 160.811C158.365 160.537 158.558 160.302 158.805 160.137C159.052 159.971 159.343 159.883 159.64 159.883C160.039 159.883 160.421 160.042 160.703 160.324C160.985 160.605 161.143 160.988 161.143 161.386Z" fill="#E0E0E0"/>
<path d="M165.049 161.386C165.049 161.684 164.96 161.975 164.795 162.222C164.629 162.469 164.394 162.662 164.119 162.776C163.844 162.889 163.542 162.919 163.25 162.86C162.958 162.802 162.69 162.658 162.481 162.447C162.271 162.236 162.128 161.968 162.071 161.676C162.013 161.384 162.044 161.081 162.159 160.807C162.274 160.532 162.467 160.298 162.715 160.133C162.963 159.969 163.255 159.882 163.552 159.883C163.749 159.883 163.944 159.922 164.126 159.998C164.308 160.073 164.474 160.184 164.613 160.324C164.752 160.464 164.862 160.629 164.937 160.812C165.011 160.994 165.05 161.189 165.049 161.386Z" fill="#E0E0E0"/>
<path d="M168.903 161.386C168.903 161.684 168.815 161.974 168.649 162.221C168.484 162.469 168.249 162.661 167.975 162.775C167.7 162.889 167.398 162.919 167.106 162.861C166.815 162.803 166.547 162.659 166.337 162.449C166.127 162.239 165.983 161.971 165.925 161.68C165.867 161.388 165.897 161.086 166.011 160.811C166.125 160.537 166.317 160.302 166.565 160.137C166.812 159.971 167.102 159.883 167.4 159.883C167.798 159.883 168.181 160.042 168.462 160.324C168.744 160.605 168.903 160.988 168.903 161.386Z" fill="#E0E0E0"/>
<path d="M275.69 67.2854H233.514C230.524 67.2854 228.1 69.7097 228.1 72.7002V144.654C228.1 147.644 230.524 150.069 233.514 150.069H275.69C278.68 150.069 281.105 147.644 281.105 144.654V72.7002C281.105 69.7097 278.68 67.2854 275.69 67.2854Z" fill="white"/>
<path d="M275.69 150.069H275.863C275.972 150.069 276.146 150.069 276.364 150.024C277.018 149.932 277.651 149.726 278.233 149.413C279.175 148.892 279.943 148.106 280.443 147.152C280.755 146.552 280.951 145.898 281.021 145.225C281.072 144.5 281.021 143.71 281.021 142.881C281.021 136.239 280.989 126.636 280.963 114.779C280.937 102.922 280.963 88.7841 280.931 73.0985C280.99 72.1286 280.781 71.1612 280.328 70.3016C279.875 69.442 279.195 68.7231 278.362 68.2232C276.666 67.1312 274.508 67.5809 272.491 67.4781H233.514C232.417 67.4803 231.347 67.8258 230.456 68.4662C229.564 69.1066 228.895 70.0099 228.543 71.0494C228.272 72.1146 228.179 73.217 228.267 74.3125V77.6269C228.267 82.0375 228.267 86.3797 228.267 90.6533C228.267 99.1898 228.267 107.424 228.267 115.267C228.267 123.11 228.267 130.568 228.267 137.543V142.682C228.267 143.517 228.235 144.371 228.267 145.168C228.379 146.346 228.883 147.452 229.698 148.311C230.513 149.169 231.592 149.729 232.763 149.902C233.521 149.968 234.282 149.989 235.043 149.966H237.298L265.4 150.024L273.037 150.056H275.028H275.703C275.703 150.056 275.471 150.056 275.028 150.056H273.037L265.4 150.088L237.298 150.139H235.062C234.291 150.159 233.519 150.138 232.75 150.075C231.521 149.899 230.386 149.315 229.529 148.417C228.672 147.519 228.141 146.359 228.023 145.123C227.971 144.275 228.023 143.459 228.023 142.611C228.023 140.928 228.023 139.213 228.023 137.473C228.023 130.497 228.023 123.046 228.023 115.197C228.023 107.347 228.023 99.1384 228.023 90.5826V72.5974C228.034 72.0204 228.133 71.4485 228.318 70.9017C228.687 69.7974 229.395 68.8377 230.341 68.159C231.292 67.4734 232.433 67.1028 233.604 67.0991H275.658C276.697 67.0825 277.72 67.3547 278.614 67.8855C279.508 68.4163 280.236 69.1847 280.719 70.1052C280.951 70.5588 281.124 71.0401 281.233 71.5376C281.322 72.0334 281.361 72.537 281.349 73.0406C281.349 88.7263 281.349 102.851 281.31 114.721C281.272 126.592 281.272 136.181 281.259 142.823C281.259 143.652 281.259 144.429 281.22 145.174C281.153 145.868 280.95 146.543 280.623 147.159C280.105 148.12 279.317 148.909 278.355 149.426C277.756 149.743 277.102 149.941 276.428 150.011C276.184 150.049 275.937 150.068 275.69 150.069Z" fill="#263238"/>
<path d="M235.242 76.0082C236.14 76.0082 236.867 75.2807 236.867 74.3832C236.867 73.4856 236.14 72.7581 235.242 72.7581C234.345 72.7581 233.617 73.4856 233.617 74.3832C233.617 75.2807 234.345 76.0082 235.242 76.0082Z" fill="#E0E0E0"/>
<path d="M241.062 74.3832C241.062 74.7046 240.966 75.0188 240.788 75.286C240.609 75.5532 240.356 75.7615 240.059 75.8845C239.762 76.0075 239.435 76.0397 239.12 75.977C238.804 75.9143 238.515 75.7595 238.288 75.5323C238.06 75.305 237.906 75.0154 237.843 74.7002C237.78 74.385 237.812 74.0582 237.935 73.7613C238.058 73.4643 238.267 73.2105 238.534 73.0319C238.801 72.8534 239.115 72.7581 239.437 72.7581C239.868 72.7581 240.281 72.9293 240.586 73.234C240.891 73.5388 241.062 73.9522 241.062 74.3832Z" fill="#E0E0E0"/>
<path d="M243.631 76.0082C244.529 76.0082 245.256 75.2807 245.256 74.3832C245.256 73.4856 244.529 72.7581 243.631 72.7581C242.734 72.7581 242.006 73.4856 242.006 74.3832C242.006 75.2807 242.734 76.0082 243.631 76.0082Z" fill="#E0E0E0"/>
<path d="M273.352 82.9131C273.352 83.003 264.956 83.0801 254.602 83.0801C244.248 83.0801 235.846 83.003 235.846 82.9131C235.846 82.8232 244.241 82.7461 254.602 82.7461C264.963 82.7461 273.352 82.8168 273.352 82.9131Z" fill="#263238"/>
<path d="M273.352 86.2149C273.352 86.3048 264.956 86.3819 254.602 86.3819C244.248 86.3819 235.846 86.3048 235.846 86.2149C235.846 86.1249 244.241 86.0479 254.602 86.0479C264.963 86.0479 273.352 86.1185 273.352 86.2149Z" fill="#263238"/>
<path d="M273.352 89.5164C273.352 89.6063 264.956 89.6834 254.602 89.6834C244.248 89.6834 235.846 89.6063 235.846 89.5164C235.846 89.4265 244.241 89.3494 254.602 89.3494C264.963 89.3494 273.352 89.42 273.352 89.5164Z" fill="#263238"/>
<path d="M273.352 92.818C273.352 92.9079 264.956 92.985 254.602 92.985C244.248 92.985 235.846 92.9079 235.846 92.818C235.846 92.728 244.241 92.6445 254.602 92.6445C264.963 92.6445 273.352 92.7216 273.352 92.818Z" fill="#263238"/>
<path d="M273.352 96.113C273.352 96.2094 264.956 96.2801 254.602 96.2801C244.248 96.2801 235.846 96.2094 235.846 96.113C235.846 96.0167 244.241 95.946 254.602 95.946C264.963 95.946 273.352 96.0231 273.352 96.113Z" fill="#263238"/>
<path d="M273.352 99.3889C273.352 99.4853 264.956 99.5559 254.602 99.5559C244.248 99.5559 235.846 99.4853 235.846 99.3889C235.846 99.2926 244.241 99.2219 254.602 99.2219C264.963 99.2219 273.352 99.3247 273.352 99.3889Z" fill="#263238"/>
<path d="M273.352 124.677C273.352 124.767 264.956 124.845 254.602 124.845C244.248 124.845 235.846 124.767 235.846 124.677C235.846 124.588 244.241 124.51 254.602 124.51C264.963 124.51 273.352 124.581 273.352 124.677Z" fill="#263238"/>
<path d="M273.352 128.294C273.352 128.384 264.956 128.461 254.602 128.461C244.248 128.461 235.846 128.384 235.846 128.294C235.846 128.204 244.241 128.127 254.602 128.127C264.963 128.127 273.352 128.178 273.352 128.294Z" fill="#263238"/>
<path d="M273.352 131.865C273.352 131.955 264.956 132.032 254.602 132.032C244.248 132.032 235.846 131.955 235.846 131.865C235.846 131.775 244.241 131.698 254.602 131.698C264.963 131.698 273.352 131.769 273.352 131.865Z" fill="#263238"/>
<path d="M273.352 135.456C273.352 135.546 264.956 135.623 254.602 135.623C244.248 135.623 235.846 135.546 235.846 135.456C235.846 135.366 244.241 135.289 254.602 135.289C264.963 135.289 273.352 135.359 273.352 135.456Z" fill="#263238"/>
<path d="M273.352 139.046C273.352 139.143 264.956 139.22 254.602 139.22C244.248 139.22 235.846 139.143 235.846 139.046C235.846 138.95 244.241 138.879 254.602 138.879C264.963 138.879 273.352 138.956 273.352 139.046Z" fill="#263238"/>
<path d="M274.328 104.193H271.405H263.338H235.923L235.987 104.148C235.987 106.3 235.987 108.536 235.987 110.822C235.987 113.109 235.987 115.479 235.987 117.702L235.923 117.65H235.859V117.605C235.859 115.383 235.859 113.109 235.859 110.726C235.859 108.343 235.859 106.23 235.859 104.052V104.001H235.923H263.338H271.405H274.328V104.193Z" fill="#E0E0E0"/>
<path d="M274.328 106.454C274.328 106.454 265.727 106.506 255.122 106.506C244.518 106.506 235.923 106.506 235.923 106.454C235.923 106.403 244.518 106.403 255.122 106.403C265.727 106.403 274.328 106.454 274.328 106.454Z" fill="#E0E0E0"/>
<path d="M274.328 108.343C274.328 108.343 265.727 108.388 255.122 108.388C244.518 108.388 235.923 108.388 235.923 108.343C235.923 108.298 244.518 108.292 255.122 108.292C265.727 108.292 274.328 108.311 274.328 108.343Z" fill="#E0E0E0"/>
<path d="M274.328 110.206C274.328 110.206 265.727 110.257 255.122 110.257C244.518 110.257 235.923 110.257 235.923 110.206C235.923 110.154 244.518 110.161 255.122 110.161C265.727 110.161 274.328 110.18 274.328 110.206Z" fill="#E0E0E0"/>
<path d="M274.328 112.075C274.328 112.075 265.727 112.12 255.122 112.12C244.518 112.12 235.923 112.12 235.923 112.075C235.923 112.03 244.518 112.023 255.122 112.023C265.727 112.023 274.328 112.049 274.328 112.075Z" fill="#E0E0E0"/>
<path d="M274.328 113.938C274.328 113.938 265.727 113.989 255.122 113.989C244.518 113.989 235.923 113.989 235.923 113.938C235.923 113.886 244.518 113.893 255.122 113.893C265.727 113.893 274.328 113.912 274.328 113.938Z" fill="#E0E0E0"/>
<path d="M235.923 115.807C235.923 115.807 244.518 115.755 255.122 115.755C265.727 115.755 274.328 115.755 274.328 115.807C274.328 115.858 265.727 115.858 255.122 115.858C244.518 115.858 235.923 115.832 235.923 115.807Z" fill="#E0E0E0"/>
<path d="M241.364 117.952C241.364 117.952 241.319 114.869 241.319 111.073C241.319 107.277 241.319 104.194 241.364 104.194C241.409 104.194 241.415 107.27 241.415 111.073C241.415 114.876 241.396 117.952 241.364 117.952Z" fill="#E0E0E0"/>
<path d="M246.894 117.952C246.894 117.952 246.849 114.869 246.849 111.073C246.849 107.277 246.849 104.194 246.894 104.194C246.939 104.194 246.945 107.27 246.945 111.073C246.945 114.876 246.926 117.952 246.894 117.952Z" fill="#E0E0E0"/>
<path d="M252.405 117.952C252.373 117.952 252.354 114.869 252.354 111.073C252.354 107.277 252.354 104.194 252.405 104.194C252.457 104.194 252.45 107.27 252.45 111.073C252.45 114.876 252.457 117.952 252.405 117.952Z" fill="#E0E0E0"/>
<path d="M257.961 117.952C257.961 117.952 257.91 114.869 257.91 111.073C257.91 107.277 257.91 104.194 257.961 104.194C258.013 104.194 258.006 107.27 258.006 111.073C258.006 114.876 257.987 117.952 257.961 117.952Z" fill="#E0E0E0"/>
<path d="M263.492 117.952C263.46 117.952 263.44 114.869 263.44 111.073C263.44 107.277 263.441 104.194 263.492 104.194C263.543 104.194 263.537 107.27 263.537 111.073C263.537 114.876 263.518 117.952 263.492 117.952Z" fill="#E0E0E0"/>
<path d="M268.842 117.952C268.842 117.952 268.791 114.869 268.791 111.073C268.791 107.277 268.791 104.194 268.842 104.194C268.894 104.194 268.894 107.27 268.894 111.073C268.894 114.876 268.868 117.952 268.842 117.952Z" fill="#E0E0E0"/>
<path d="M274.373 117.952C274.373 117.952 274.328 114.869 274.328 111.073C274.328 107.277 274.328 104.194 274.373 104.194C274.418 104.194 274.424 107.27 274.424 111.073C274.424 114.876 274.399 117.952 274.373 117.952Z" fill="#E0E0E0"/>
<path d="M241.704 115.807C241.704 115.851 241.695 115.895 241.678 115.936C241.661 115.977 241.636 116.014 241.604 116.045C241.572 116.076 241.535 116.101 241.493 116.117C241.452 116.134 241.408 116.142 241.364 116.141C241.314 116.155 241.262 116.157 241.211 116.148C241.16 116.139 241.112 116.117 241.071 116.086C241.03 116.055 240.996 116.015 240.973 115.969C240.95 115.922 240.938 115.871 240.938 115.82C240.938 115.768 240.95 115.717 240.973 115.671C240.996 115.624 241.03 115.584 241.071 115.553C241.112 115.522 241.16 115.501 241.211 115.491C241.262 115.482 241.314 115.484 241.364 115.498C241.449 115.497 241.532 115.527 241.595 115.585C241.659 115.642 241.698 115.722 241.704 115.807Z" fill="#E6A371"/>
<path d="M246.894 112.409C247.079 112.409 247.228 112.259 247.228 112.075C247.228 111.891 247.079 111.741 246.894 111.741C246.71 111.741 246.56 111.891 246.56 112.075C246.56 112.259 246.71 112.409 246.894 112.409Z" fill="#E6A371"/>
<path d="M252.765 113.906C252.772 113.954 252.768 114.003 252.754 114.049C252.74 114.096 252.716 114.139 252.684 114.176C252.653 114.213 252.613 114.242 252.569 114.262C252.524 114.282 252.476 114.293 252.428 114.293C252.379 114.293 252.331 114.282 252.287 114.262C252.242 114.242 252.203 114.213 252.171 114.176C252.139 114.139 252.115 114.096 252.102 114.049C252.088 114.003 252.084 113.954 252.091 113.906C252.102 113.824 252.142 113.75 252.204 113.696C252.266 113.642 252.346 113.612 252.428 113.612C252.51 113.612 252.589 113.642 252.651 113.696C252.713 113.75 252.754 113.824 252.765 113.906Z" fill="#E6A371"/>
<path d="M258.263 109.975C258.329 110.04 258.366 110.129 258.366 110.222C258.366 110.315 258.329 110.404 258.263 110.469C258.198 110.535 258.109 110.572 258.016 110.572C257.923 110.572 257.834 110.535 257.769 110.469C257.703 110.404 257.666 110.315 257.666 110.222C257.666 110.129 257.703 110.04 257.769 109.975C257.834 109.909 257.923 109.872 258.016 109.872C258.109 109.872 258.198 109.909 258.263 109.975Z" fill="#E6A371"/>
<path d="M263.858 109.975C263.924 110.04 263.96 110.129 263.96 110.222C263.96 110.315 263.924 110.404 263.858 110.469C263.792 110.535 263.703 110.572 263.611 110.572C263.518 110.572 263.429 110.535 263.363 110.469C263.298 110.404 263.261 110.315 263.261 110.222C263.261 110.129 263.298 110.04 263.363 109.975C263.429 109.909 263.518 109.872 263.611 109.872C263.703 109.872 263.792 109.909 263.858 109.975Z" fill="#E6A371"/>
<path d="M269.106 113.642C269.171 113.707 269.209 113.795 269.209 113.887C269.21 113.979 269.174 114.068 269.109 114.134C269.044 114.199 268.956 114.236 268.864 114.237C268.772 114.238 268.683 114.201 268.618 114.137C268.552 114.072 268.515 113.984 268.514 113.892C268.514 113.8 268.55 113.711 268.614 113.645C268.679 113.58 268.767 113.543 268.859 113.542C268.952 113.541 269.04 113.577 269.106 113.642Z" fill="#E6A371"/>
<path d="M247.267 108.343C247.255 108.424 247.215 108.499 247.153 108.553C247.091 108.607 247.012 108.637 246.929 108.637C246.847 108.637 246.768 108.607 246.706 108.553C246.644 108.499 246.603 108.424 246.592 108.343C246.586 108.295 246.589 108.246 246.603 108.199C246.617 108.152 246.641 108.109 246.673 108.073C246.705 108.036 246.744 108.007 246.788 107.986C246.833 107.966 246.881 107.956 246.929 107.956C246.978 107.956 247.026 107.966 247.07 107.986C247.115 108.007 247.154 108.036 247.186 108.073C247.218 108.109 247.242 108.152 247.256 108.199C247.27 108.246 247.273 108.295 247.267 108.343Z" fill="#455A64"/>
<path d="M241.704 113.938C241.704 114.028 241.668 114.114 241.604 114.178C241.541 114.242 241.454 114.278 241.364 114.278C241.319 114.278 241.275 114.269 241.234 114.252C241.193 114.235 241.156 114.21 241.125 114.178C241.094 114.146 241.07 114.109 241.053 114.067C241.037 114.026 241.029 113.982 241.03 113.938C241.03 113.894 241.038 113.85 241.055 113.81C241.072 113.769 241.096 113.732 241.127 113.701C241.158 113.67 241.195 113.646 241.236 113.629C241.276 113.612 241.32 113.604 241.364 113.604C241.408 113.603 241.452 113.611 241.493 113.627C241.535 113.644 241.572 113.668 241.604 113.699C241.636 113.73 241.661 113.767 241.678 113.808C241.695 113.849 241.704 113.893 241.704 113.938Z" fill="#455A64"/>
<path d="M269.106 115.563C269.171 115.628 269.207 115.717 269.206 115.809C269.205 115.901 269.168 115.99 269.103 116.054C269.037 116.119 268.948 116.155 268.856 116.154C268.764 116.154 268.676 116.117 268.611 116.051C268.546 115.985 268.51 115.897 268.511 115.805C268.512 115.713 268.549 115.624 268.614 115.56C268.68 115.495 268.769 115.459 268.861 115.459C268.953 115.46 269.041 115.497 269.106 115.563Z" fill="#455A64"/>
<path d="M263.826 112.075C263.826 112.163 263.791 112.248 263.728 112.311C263.665 112.374 263.58 112.409 263.492 112.409C263.447 112.41 263.403 112.402 263.362 112.385C263.321 112.369 263.283 112.344 263.252 112.313C263.22 112.282 263.195 112.245 263.177 112.204C263.16 112.163 263.151 112.119 263.151 112.075C263.151 111.985 263.187 111.898 263.251 111.834C263.315 111.77 263.402 111.734 263.492 111.734C263.536 111.734 263.58 111.743 263.621 111.76C263.662 111.778 263.699 111.803 263.73 111.834C263.761 111.866 263.786 111.904 263.802 111.945C263.819 111.986 263.827 112.03 263.826 112.075Z" fill="#455A64"/>
<path d="M258.353 112.024C258.353 112.114 258.317 112.2 258.254 112.264C258.19 112.328 258.103 112.364 258.013 112.364C257.968 112.364 257.924 112.355 257.883 112.338C257.843 112.321 257.805 112.296 257.774 112.264C257.743 112.232 257.719 112.195 257.702 112.153C257.686 112.112 257.678 112.068 257.679 112.024C257.679 111.935 257.714 111.85 257.777 111.787C257.839 111.725 257.924 111.69 258.013 111.69C258.057 111.689 258.101 111.697 258.143 111.713C258.184 111.729 258.221 111.754 258.253 111.785C258.285 111.816 258.31 111.853 258.327 111.894C258.344 111.935 258.353 111.979 258.353 112.024Z" fill="#455A64"/>
<path d="M239.058 119.301C238.706 119.37 238.344 119.37 237.991 119.301C238.344 119.233 238.706 119.233 239.058 119.301Z" fill="#E0E0E0"/>
<path d="M244.697 119.301C244.345 119.37 243.983 119.37 243.631 119.301C243.983 119.233 244.345 119.233 244.697 119.301Z" fill="#E0E0E0"/>
<path d="M250.363 119.301C250.011 119.37 249.649 119.37 249.296 119.301C249.649 119.233 250.011 119.233 250.363 119.301Z" fill="#E0E0E0"/>
<path d="M256.015 119.301C255.663 119.37 255.301 119.37 254.949 119.301C255.301 119.233 255.663 119.233 256.015 119.301Z" fill="#E0E0E0"/>
<path d="M261.668 119.301C261.316 119.37 260.954 119.37 260.601 119.301C260.954 119.233 261.316 119.233 261.668 119.301Z" fill="#E0E0E0"/>
<path d="M266.723 119.301C266.371 119.37 266.009 119.37 265.656 119.301C266.009 119.233 266.371 119.233 266.723 119.301Z" fill="#E0E0E0"/>
<path d="M271.778 119.301C271.426 119.37 271.064 119.37 270.712 119.301C271.064 119.233 271.426 119.233 271.778 119.301Z" fill="#E0E0E0"/>
<path d="M235.127 117.669C234.843 117.729 234.55 117.729 234.266 117.669C234.549 117.601 234.844 117.601 235.127 117.669Z" fill="#E0E0E0"/>
<path d="M235.127 115.499C234.843 115.559 234.55 115.559 234.266 115.499C234.549 115.43 234.844 115.43 235.127 115.499Z" fill="#E0E0E0"/>
<path d="M235.127 113.327C234.843 113.387 234.55 113.387 234.266 113.327C234.549 113.259 234.844 113.259 235.127 113.327Z" fill="#E0E0E0"/>
<path d="M235.127 111.156C234.843 111.216 234.55 111.216 234.266 111.156C234.549 111.088 234.844 111.088 235.127 111.156Z" fill="#E0E0E0"/>
<path d="M235.127 108.985C234.843 109.045 234.55 109.045 234.266 108.985C234.549 108.917 234.844 108.917 235.127 108.985Z" fill="#E0E0E0"/>
<path d="M235.127 106.814C234.843 106.874 234.55 106.874 234.266 106.814C234.549 106.746 234.844 106.746 235.127 106.814Z" fill="#E0E0E0"/>
<path d="M235.127 104.643C234.843 104.703 234.55 104.703 234.266 104.643C234.549 104.575 234.844 104.575 235.127 104.643Z" fill="#E0E0E0"/>
<path d="M235.885 117.83L235.827 117.657L241.325 115.723L246.881 111.972L252.412 113.803L257.987 110.129L263.569 110.116L263.595 110.129L268.894 113.88L274.032 110.482L274.135 110.636L268.894 114.105L268.836 114.066L263.511 110.302L258.045 110.315L252.444 114.008L246.913 112.178L241.396 115.897L235.885 117.83Z" fill="#E6A371"/>
<path d="M268.926 115.845L263.511 112.165H257.929L252.347 108.484L246.933 108.433L241.402 114.034H235.923V113.848H241.325L246.862 108.247L252.405 108.298L257.987 111.979H263.569L268.862 115.582L274.148 106.288L274.309 106.378L268.926 115.845Z" fill="#455A64"/>
<path d="M73.7931 18.7446H209.215C210.707 18.7446 212.139 19.3374 213.194 20.3927C214.249 21.4479 214.842 22.8791 214.842 24.3714V134.717C214.842 136.86 213.991 138.915 212.475 140.431C210.96 141.946 208.905 142.797 206.761 142.797H76.8313C74.6883 142.797 72.633 141.946 71.1176 140.431C69.6022 138.915 68.7509 136.86 68.7509 134.717V23.7869C68.7509 22.4496 69.2821 21.1671 70.2277 20.2215C71.1733 19.2759 72.4558 18.7446 73.7931 18.7446Z" fill="white"/>
<path d="M72.7269 18.7446H210.076C211.285 18.7446 212.445 19.2251 213.301 20.0804C214.156 20.9356 214.636 22.0956 214.636 23.3052V33.6788H68.7509V22.7206C68.7509 21.6661 69.1698 20.6548 69.9154 19.9092C70.661 19.1635 71.6724 18.7446 72.7269 18.7446Z" fill="#E0E0E0"/>
<path d="M214.636 33.6787C214.636 33.7686 182.025 33.8457 141.803 33.8457C101.58 33.8457 68.9564 33.7686 68.9564 33.6787C68.9564 33.5888 101.561 33.5117 141.803 33.5117C182.045 33.5117 214.636 33.5824 214.636 33.6787Z" fill="#263238"/>
<path d="M76.7222 26.5361C76.7222 26.8092 76.6412 27.0762 76.4894 27.3033C76.3377 27.5304 76.122 27.7074 75.8696 27.8119C75.6173 27.9165 75.3396 27.9438 75.0717 27.8905C74.8038 27.8372 74.5578 27.7057 74.3646 27.5126C74.1715 27.3194 74.04 27.0734 73.9867 26.8055C73.9334 26.5376 73.9607 26.2599 74.0653 26.0076C74.1698 25.7552 74.3468 25.5395 74.5739 25.3878C74.801 25.236 75.068 25.155 75.3412 25.155C75.5227 25.1542 75.7027 25.1893 75.8706 25.2584C76.0386 25.3275 76.1912 25.4292 76.3196 25.5576C76.448 25.686 76.5497 25.8386 76.6188 26.0066C76.6879 26.1745 76.723 26.3545 76.7222 26.5361Z" fill="#263238"/>
<path d="M81.1157 26.5361C81.1157 26.8095 81.0345 27.0767 80.8825 27.304C80.7304 27.5312 80.5144 27.7082 80.2617 27.8125C80.0089 27.9169 79.7309 27.9438 79.4629 27.89C79.1948 27.8362 78.9488 27.7041 78.7559 27.5103C78.563 27.3165 78.432 27.0698 78.3794 26.8015C78.3269 26.5332 78.3551 26.2553 78.4606 26.0031C78.5662 25.7509 78.7442 25.5356 78.9721 25.3847C79.2001 25.2337 79.4677 25.1538 79.7411 25.155C79.9222 25.155 80.1014 25.1908 80.2686 25.2603C80.4358 25.3298 80.5876 25.4316 80.7154 25.5599C80.8431 25.6882 80.9442 25.8405 81.0129 26.008C81.0816 26.1756 81.1165 26.355 81.1157 26.5361Z" fill="#263238"/>
<path d="M85.5991 26.5361C85.5991 26.8092 85.5181 27.0762 85.3664 27.3033C85.2146 27.5304 84.9989 27.7074 84.7466 27.8119C84.4942 27.9165 84.2166 27.9438 83.9487 27.8905C83.6808 27.8372 83.4347 27.7057 83.2416 27.5126C83.0484 27.3194 82.9169 27.0734 82.8636 26.8055C82.8103 26.5376 82.8377 26.2599 82.9422 26.0076C83.0467 25.7552 83.2238 25.5395 83.4509 25.3878C83.678 25.236 83.945 25.155 84.2181 25.155C84.3997 25.1542 84.5797 25.1893 84.7476 25.2584C84.9155 25.3275 85.0681 25.4292 85.1965 25.5576C85.3249 25.686 85.4266 25.8386 85.4957 26.0066C85.5648 26.1745 85.6 26.3545 85.5991 26.5361Z" fill="#263238"/>
<path d="M166.012 44.791C166.012 44.881 155.478 44.958 142.484 44.958C129.489 44.958 118.955 44.881 118.955 44.791C118.955 44.7011 129.489 44.624 142.484 44.624C155.478 44.624 166.012 44.7204 166.012 44.791Z" fill="#263238"/>
<path d="M144.205 54.7344C144.205 54.8307 131.596 54.9014 116.052 54.9014C100.508 54.9014 87.8987 54.8307 87.8987 54.7344C87.8987 54.638 100.501 54.5674 116.052 54.5674C131.603 54.5674 144.205 54.6445 144.205 54.7344Z" fill="#263238"/>
<path d="M144.205 60.0591C144.205 60.1554 131.596 60.2261 116.052 60.2261C100.508 60.2261 87.8987 60.1554 87.8987 60.0591C87.8987 59.9627 100.501 59.8921 116.052 59.8921C131.603 59.8921 144.205 59.9692 144.205 60.0591Z" fill="#263238"/>
<path d="M144.205 65.384C144.205 65.4804 131.596 65.5575 116.052 65.5575C100.508 65.5575 87.8987 65.4804 87.8987 65.384C87.8987 65.2877 100.501 65.217 116.052 65.217C131.603 65.217 144.205 65.2941 144.205 65.384Z" fill="#263238"/>
<path d="M144.205 70.7154C144.205 70.8053 131.596 70.8824 116.052 70.8824C100.508 70.8824 87.8987 70.8053 87.8987 70.7154C87.8987 70.6255 100.501 70.542 116.052 70.542C131.603 70.542 144.205 70.6191 144.205 70.7154Z" fill="#263238"/>
<path d="M144.205 76.0404C144.205 76.1303 131.596 76.2074 116.052 76.2074C100.508 76.2074 87.8987 76.1303 87.8987 76.0404C87.8987 75.9504 100.501 75.8669 116.052 75.8669C131.603 75.8669 144.205 75.944 144.205 76.0404Z" fill="#263238"/>
<path d="M144.205 90.833C144.205 90.9294 131.596 91 116.052 91C100.508 91 87.8987 90.9294 87.8987 90.833C87.8987 90.7367 100.501 90.666 116.052 90.666C131.603 90.666 144.205 90.7431 144.205 90.833Z" fill="#263238"/>
<path d="M144.205 85.4697C144.205 85.5661 131.596 85.6367 116.052 85.6367C100.508 85.6367 87.8987 85.5661 87.8987 85.4697C87.8987 85.3734 100.501 85.3027 116.052 85.3027C131.603 85.3027 144.205 85.3798 144.205 85.4697Z" fill="#263238"/>
<path d="M180.227 53.6487C177.218 53.6474 174.276 54.5386 171.774 56.2094C169.272 57.8803 167.321 60.2557 166.169 63.0353C165.017 65.8149 164.715 68.8737 165.302 71.8248C165.889 74.7759 167.338 77.4867 169.465 79.6143C171.593 81.7419 174.304 83.1907 177.255 83.7774C180.206 84.3641 183.265 84.0623 186.044 82.9103C188.824 81.7583 191.199 79.8077 192.87 77.3054C194.541 74.8031 195.432 71.8615 195.431 68.8526C195.429 64.8208 193.827 60.9546 190.976 58.1037C188.125 55.2528 184.259 53.6504 180.227 53.6487ZM180.458 77.9672C178.609 77.9685 176.802 77.4214 175.264 76.3953C173.726 75.3691 172.527 73.9099 171.819 72.2023C171.111 70.4947 170.925 68.6153 171.285 66.802C171.644 64.9887 172.534 63.3228 173.841 62.0151C175.148 60.7074 176.813 59.8167 178.626 59.4555C180.439 59.0944 182.319 59.2791 184.027 59.9863C185.735 60.6935 187.195 61.8913 188.222 63.4284C189.249 64.9654 189.798 66.7726 189.798 68.6213C189.798 69.8478 189.558 71.0625 189.089 72.1959C188.621 73.3293 187.933 74.3594 187.067 75.2272C186.2 76.0951 185.171 76.7837 184.038 77.2538C182.905 77.724 181.691 77.9664 180.465 77.9672H180.458Z" fill="#E6A371"/>
<path d="M171.112 68.6215C171.112 66.8167 171.635 65.0506 172.618 63.5368C173.6 62.0229 175.001 60.8262 176.649 60.0914L174.311 54.8372C171.562 56.0062 169.218 57.9585 167.57 60.4509C165.923 62.9433 165.046 65.8653 165.049 68.8528C165.049 69.0626 165.049 69.2767 165.049 69.4951H171.17C171.132 69.1996 171.112 68.917 171.112 68.6215Z" fill="#E0E0E0"/>
<path d="M192.81 87.8977C192.81 87.9748 187.177 88.039 180.227 88.039C173.277 88.039 167.644 87.9748 167.644 87.8977C167.644 87.8207 173.277 87.75 180.227 87.75C187.177 87.75 192.81 87.8271 192.81 87.8977Z" fill="#263238"/>
<path d="M187.203 90.21C187.203 90.2871 184.081 90.3513 180.227 90.3513C176.373 90.3513 173.245 90.2871 173.245 90.21C173.245 90.1329 176.373 90.0623 180.227 90.0623C184.081 90.0623 187.203 90.1265 187.203 90.21Z" fill="#263238"/>
<path d="M179.128 66.6301V67.2725L177.895 70.1565H176.816L177.998 67.4395H177.073V67.979H176.225V66.6301H179.128Z" fill="#263238"/>
<path d="M182.115 69.0324C182.115 69.6747 181.646 70.2271 180.587 70.2271C180.112 70.2374 179.644 70.1198 179.231 69.8867L179.585 69.1351C179.872 69.326 180.209 69.4287 180.554 69.4306C180.895 69.4306 181.12 69.2957 181.12 69.0581C181.12 68.8204 180.972 68.7048 180.439 68.7048H179.488L179.662 66.6558H181.891V67.4201H180.465L180.42 67.934H180.651C181.711 67.9147 182.115 68.4093 182.115 69.0324Z" fill="#263238"/>
<path d="M182.289 67.5807C182.302 67.4063 182.367 67.2396 182.474 67.1012C182.581 66.9628 182.726 66.8586 182.892 66.8014C183.057 66.7443 183.235 66.7366 183.405 66.7794C183.575 66.8222 183.728 66.9136 183.847 67.0423C183.965 67.1711 184.044 67.3316 184.072 67.5043C184.101 67.6769 184.079 67.8542 184.008 68.0143C183.937 68.1744 183.822 68.3104 183.675 68.4057C183.528 68.501 183.357 68.5513 183.182 68.5506C183.057 68.5531 182.933 68.5291 182.819 68.4802C182.704 68.4312 182.601 68.3585 182.517 68.2668C182.432 68.1751 182.368 68.0665 182.329 67.9482C182.29 67.83 182.276 67.7047 182.289 67.5807ZM185.256 66.6558H185.976L183.58 70.1565H182.86L185.256 66.6558ZM183.477 67.5807C183.477 67.2274 183.355 67.0861 183.182 67.0861C183.008 67.0861 182.886 67.2274 182.886 67.5807C182.886 67.934 183.021 68.0753 183.182 68.0753C183.342 68.0753 183.477 67.9147 183.477 67.5807ZM184.762 69.2315C184.775 69.057 184.84 68.8904 184.947 68.752C185.054 68.6135 185.199 68.5094 185.364 68.4522C185.53 68.3951 185.708 68.3874 185.878 68.4302C186.048 68.473 186.201 68.5644 186.32 68.6931C186.438 68.8219 186.517 68.9824 186.545 69.1551C186.574 69.3277 186.552 69.5049 186.481 69.6651C186.41 69.8252 186.295 69.9612 186.148 70.0565C186.001 70.1518 185.83 70.2021 185.655 70.2014C185.53 70.2039 185.406 70.1799 185.292 70.1309C185.177 70.082 185.074 70.0093 184.99 69.9176C184.905 69.8259 184.841 69.7173 184.802 69.599C184.763 69.4808 184.749 69.3555 184.762 69.2315ZM185.95 69.2315C185.95 68.8782 185.822 68.7369 185.655 68.7369C185.488 68.7369 185.359 68.8782 185.359 69.2315C185.359 69.5848 185.488 69.7261 185.655 69.7261C185.822 69.7261 185.95 69.5912 185.95 69.2315Z" fill="#263238"/>
<path d="M98.2979 121.633H93.9558V131.634H98.2979V121.633Z" fill="#EBEBEB"/>
<path d="M113.027 121.633H108.684V131.634H113.027V121.633Z" fill="#EBEBEB"/>
<path d="M105.665 112.524H101.323V131.634H105.665V112.524Z" fill="#F5F5F5"/>
<path d="M120.394 112.524H116.052V131.634H120.394V112.524Z" fill="#F5F5F5"/>
<path d="M127.755 113.071H123.413V131.634H127.755V113.071Z" fill="#EBEBEB"/>
<path d="M142.484 113.071H138.142V131.634H142.484V113.071Z" fill="#EBEBEB"/>
<path d="M157.212 113.071H152.87V131.634H157.212V113.071Z" fill="#EBEBEB"/>
<path d="M135.123 103.333H130.78V131.64H135.123V103.333Z" fill="#F5F5F5"/>
<path d="M149.851 106.101H145.509V131.634H149.851V106.101Z" fill="#F5F5F5"/>
<path d="M178.968 113.071H174.626V131.634H178.968V113.071Z" fill="#EBEBEB"/>
<path d="M171.607 116.635H167.265V131.634H171.607V116.635Z" fill="#F5F5F5"/>
<path d="M194.371 103.166H190.029V131.634H194.371V103.166Z" fill="#EBEBEB"/>
<path d="M187.01 116.635H182.668V131.634H187.01V116.635Z" fill="#F5F5F5"/>
<path d="M201.745 116.635H197.403V131.634H201.745V116.635Z" fill="#F5F5F5"/>
<path d="M164.58 110.013H160.238V131.634H164.58V110.013Z" fill="#EBEBEB"/>
<path d="M132.592 104.45C133.209 104.45 133.709 103.95 133.709 103.333C133.709 102.715 133.209 102.215 132.592 102.215C131.975 102.215 131.474 102.715 131.474 103.333C131.474 103.95 131.975 104.45 132.592 104.45Z" fill="#E6A371"/>
<path d="M132.592 105.356C132.19 105.356 131.797 105.237 131.463 105.014C131.13 104.79 130.869 104.473 130.716 104.102C130.563 103.73 130.523 103.322 130.602 102.928C130.68 102.534 130.874 102.172 131.159 101.889C131.443 101.605 131.806 101.412 132.2 101.335C132.594 101.257 133.002 101.298 133.373 101.453C133.744 101.608 134.06 101.869 134.283 102.203C134.505 102.538 134.623 102.931 134.622 103.333C134.62 103.87 134.405 104.385 134.025 104.764C133.644 105.143 133.129 105.356 132.592 105.356ZM132.592 101.464C132.222 101.462 131.86 101.571 131.552 101.776C131.243 101.98 131.003 102.272 130.86 102.613C130.718 102.954 130.68 103.331 130.751 103.694C130.823 104.057 131 104.39 131.261 104.652C131.523 104.914 131.856 105.093 132.218 105.166C132.581 105.238 132.957 105.202 133.299 105.06C133.641 104.919 133.933 104.679 134.139 104.372C134.345 104.064 134.455 103.703 134.455 103.333C134.455 102.838 134.259 102.364 133.909 102.013C133.56 101.663 133.086 101.465 132.592 101.464Z" fill="#E6A371"/>
<path d="M133.485 100.481L133.427 98.2841L133.973 98.297L132.952 97.0444L131.924 98.3034L132.489 98.3098L132.547 100.481H133.485Z" fill="#EBEBEB"/>
<path d="M97.3601 117.059C97.3601 117.28 97.2946 117.496 97.1718 117.68C97.049 117.864 96.8744 118.007 96.6702 118.092C96.466 118.176 96.2413 118.199 96.0245 118.155C95.8077 118.112 95.6085 118.006 95.4522 117.85C95.2959 117.693 95.1894 117.494 95.1463 117.277C95.1032 117.061 95.1253 116.836 95.2099 116.632C95.2945 116.427 95.4378 116.253 95.6216 116.13C95.8054 116.007 96.0215 115.942 96.2425 115.942C96.5389 115.942 96.8232 116.059 97.0328 116.269C97.2424 116.479 97.3601 116.763 97.3601 117.059Z" fill="#E6A371"/>
<path d="M96.2425 119.128C95.8408 119.128 95.4481 119.008 95.1142 118.785C94.7803 118.562 94.5201 118.244 94.3667 117.873C94.2132 117.502 94.1734 117.093 94.2522 116.7C94.3311 116.306 94.525 115.944 94.8096 115.66C95.0941 115.377 95.4563 115.184 95.8505 115.106C96.2446 115.029 96.653 115.07 97.0237 115.224C97.3945 115.379 97.7111 115.64 97.9333 115.975C98.1556 116.31 98.2735 116.703 98.2723 117.104C98.2723 117.371 98.2197 117.634 98.1176 117.88C98.0156 118.126 97.866 118.349 97.6774 118.537C97.4888 118.725 97.265 118.874 97.0188 118.975C96.7726 119.077 96.5088 119.128 96.2425 119.128ZM96.2425 115.235C95.8728 115.235 95.5114 115.345 95.2041 115.55C94.8967 115.756 94.6571 116.047 94.5156 116.389C94.3742 116.731 94.3371 117.106 94.4093 117.469C94.4814 117.832 94.6594 118.165 94.9208 118.426C95.1822 118.687 95.5153 118.865 95.8779 118.938C96.2404 119.01 96.6163 118.973 96.9578 118.831C97.2994 118.69 97.5913 118.45 97.7967 118.143C98.0021 117.835 98.1117 117.474 98.1117 117.104C98.1125 116.859 98.0648 116.615 97.9711 116.388C97.8775 116.161 97.7399 115.954 97.5661 115.781C97.3924 115.607 97.186 115.469 96.9588 115.376C96.7317 115.282 96.4882 115.234 96.2425 115.235Z" fill="#E6A371"/>
<path d="M95.5745 110.135L95.6323 112.422L95.0606 112.415L96.1269 113.713L97.1931 112.402L96.6022 112.396L96.5444 110.141L95.5745 110.135Z" fill="#EBEBEB"/>
<path d="M154.649 105.356L154.707 107.643L154.136 107.636L155.202 108.934L156.268 107.624L155.677 107.617L155.619 105.363L154.649 105.356Z" fill="#EBEBEB"/>
<path d="M168.093 125.602L155.022 113.34C146.736 109.339 133.947 103.448 132.457 103.526C130.787 103.628 99.0559 116.128 86.9994 120.939L86.7617 120.342C88.541 119.635 130.299 102.999 132.418 102.89H132.463C134.782 102.89 153.23 111.773 155.343 112.788L155.42 112.846L168.196 124.825C170.624 123.54 184.518 116.212 184.755 116.109C184.839 116.07 185.057 115.98 204.166 115.98V116.623C196.831 116.623 185.815 116.623 184.98 116.713C184.254 117.079 173.829 122.577 168.28 125.5L168.093 125.602Z" fill="#E6A371"/>
<path d="M156.319 112.801C156.319 113.022 156.254 113.238 156.131 113.422C156.008 113.605 155.834 113.749 155.629 113.833C155.425 113.918 155.201 113.94 154.984 113.897C154.767 113.854 154.568 113.747 154.411 113.591C154.255 113.435 154.149 113.236 154.106 113.019C154.062 112.802 154.085 112.577 154.169 112.373C154.254 112.169 154.397 111.994 154.581 111.871C154.765 111.749 154.981 111.683 155.202 111.683C155.349 111.683 155.494 111.712 155.629 111.768C155.765 111.824 155.888 111.907 155.992 112.01C156.096 112.114 156.178 112.237 156.234 112.373C156.291 112.509 156.319 112.654 156.319 112.801Z" fill="#E6A371"/>
<path d="M155.202 114.869C154.8 114.869 154.408 114.75 154.074 114.527C153.74 114.304 153.48 113.987 153.327 113.616C153.173 113.245 153.133 112.837 153.211 112.443C153.289 112.05 153.483 111.688 153.767 111.404C154.05 111.12 154.412 110.927 154.806 110.849C155.2 110.77 155.608 110.81 155.979 110.964C156.349 111.118 156.666 111.378 156.889 111.712C157.112 112.045 157.232 112.438 157.232 112.839C157.23 113.377 157.015 113.892 156.635 114.273C156.255 114.653 155.74 114.867 155.202 114.869ZM155.202 110.977C154.833 110.977 154.473 111.086 154.167 111.291C153.861 111.495 153.622 111.786 153.481 112.126C153.34 112.467 153.303 112.841 153.375 113.203C153.447 113.564 153.624 113.896 153.885 114.156C154.145 114.417 154.477 114.594 154.838 114.666C155.2 114.738 155.574 114.701 155.915 114.56C156.255 114.419 156.546 114.181 156.751 113.874C156.955 113.568 157.065 113.208 157.065 112.839C157.068 112.593 157.022 112.348 156.93 112.119C156.838 111.89 156.701 111.681 156.528 111.506C156.355 111.33 156.148 111.19 155.921 111.095C155.693 111 155.449 110.951 155.202 110.951V110.977Z" fill="#E6A371"/>
<path d="M186.001 116.128C186.001 116.349 185.936 116.565 185.813 116.749C185.69 116.933 185.516 117.076 185.311 117.16C185.107 117.245 184.883 117.267 184.666 117.224C184.449 117.181 184.25 117.075 184.093 116.918C183.937 116.762 183.831 116.563 183.788 116.346C183.744 116.129 183.767 115.904 183.851 115.7C183.936 115.496 184.079 115.321 184.263 115.199C184.447 115.076 184.663 115.01 184.884 115.01C185.031 115.01 185.176 115.039 185.311 115.095C185.447 115.151 185.57 115.234 185.674 115.338C185.778 115.441 185.86 115.565 185.916 115.7C185.973 115.836 186.001 115.981 186.001 116.128Z" fill="#E6A371"/>
<path d="M184.884 118.196C184.482 118.196 184.09 118.077 183.756 117.854C183.422 117.631 183.162 117.314 183.009 116.943C182.855 116.572 182.815 116.164 182.893 115.77C182.971 115.377 183.165 115.015 183.448 114.731C183.732 114.447 184.094 114.254 184.488 114.176C184.882 114.097 185.29 114.138 185.661 114.291C186.031 114.445 186.348 114.705 186.571 115.039C186.794 115.373 186.914 115.765 186.914 116.166C186.912 116.704 186.697 117.22 186.317 117.6C185.937 117.98 185.422 118.195 184.884 118.196ZM184.884 114.304C184.514 114.302 184.151 114.411 183.843 114.616C183.535 114.821 183.294 115.113 183.152 115.455C183.009 115.796 182.972 116.173 183.044 116.536C183.116 116.899 183.294 117.233 183.556 117.495C183.817 117.756 184.151 117.935 184.514 118.006C184.877 118.078 185.254 118.041 185.596 117.899C185.937 117.756 186.229 117.516 186.434 117.207C186.639 116.899 186.748 116.537 186.747 116.166C186.747 115.672 186.55 115.199 186.201 114.849C185.852 114.5 185.378 114.304 184.884 114.304Z" fill="#E6A371"/>
<path d="M184.28 109.493L184.344 111.779L183.773 111.767L184.839 113.07L185.905 111.754H185.314L185.25 109.499L184.28 109.493Z" fill="#EBEBEB"/>
<path d="M207.128 142.778H207.468H207.898L208.483 142.688C209.032 142.583 209.57 142.424 210.089 142.213C210.799 141.905 211.463 141.498 212.061 141.005C212.812 140.371 213.436 139.6 213.898 138.731C214.446 137.68 214.749 136.519 214.784 135.334C214.784 132.764 214.784 129.777 214.784 126.431C214.784 113.032 214.752 93.6722 214.733 69.7069C214.733 57.7339 214.733 44.6176 214.733 30.5249C214.733 28.765 214.733 26.9857 214.733 25.2C214.797 24.3162 214.723 23.4277 214.514 22.5665C214.257 21.7186 213.784 20.9525 213.14 20.344C212.501 19.7161 211.704 19.2723 210.834 19.0594C209.939 18.9039 209.03 18.8521 208.123 18.9052H179.366H76.356C75.2191 18.9052 74.0565 18.9052 72.9517 18.9052C71.8499 19.0191 70.8289 19.5358 70.0845 20.356C69.3401 21.1763 68.9247 22.2425 68.9179 23.3501V40.2177C68.9179 49.116 68.9179 57.8774 68.9179 66.5017C68.9179 83.729 68.9179 100.352 68.9179 116.186C68.9179 120.147 68.9179 124.056 68.9179 127.915V133.657C68.8718 134.595 68.9169 135.535 69.0528 136.464C69.3103 137.823 69.934 139.085 70.8566 140.115C71.7792 141.146 72.9656 141.904 74.2877 142.309C75.1592 142.562 76.0659 142.673 76.9727 142.637H90.4616H129.644L186.368 142.688L201.783 142.72H205.792C206.697 142.72 207.16 142.72 207.16 142.72H205.792H201.783H186.368L129.644 142.778H90.4616H76.9727C76.0377 142.812 75.1033 142.697 74.2042 142.438C72.8308 142.019 71.5979 141.233 70.639 140.164C69.6801 139.095 69.0316 137.785 68.7637 136.374C68.6238 135.426 68.5765 134.467 68.6224 133.509C68.6224 131.582 68.6224 129.694 68.6224 127.767V116.186C68.6224 100.352 68.6224 83.729 68.6224 66.5017V23.3822C68.6329 22.1935 69.0796 21.05 69.8777 20.169C70.6758 19.288 71.7698 18.7308 72.9517 18.6033C74.1272 18.5455 75.2448 18.6033 76.3946 18.6033H179.405H209.511C209.982 18.5995 210.452 18.6535 210.911 18.7639C211.826 18.9873 212.666 19.4481 213.345 20.1C214.021 20.7476 214.521 21.5567 214.797 22.4509C215.008 23.3401 215.084 24.2561 215.022 25.1679V30.4928C215.022 44.5726 215.022 57.689 215.022 69.6748C215.022 93.6208 214.977 113 214.964 126.399C214.964 129.745 214.964 132.726 214.964 135.301C214.934 136.398 214.671 137.476 214.191 138.463C213.712 139.45 213.027 140.324 212.183 141.025C211.579 141.518 210.909 141.922 210.191 142.226C209.67 142.436 209.127 142.591 208.573 142.688L207.982 142.772H207.552L207.128 142.778Z" fill="#263238"/>
<path d="M222.244 83.4062C223.096 79.7766 220.845 76.143 217.216 75.2903C213.586 74.4377 209.952 76.6888 209.1 80.3184C208.247 83.948 210.498 87.5816 214.128 88.4342C217.757 89.2869 221.391 87.0357 222.244 83.4062Z" fill="#F5F5F5"/>
<path d="M208.933 81.8663C208.988 82.4153 209.078 82.9602 209.202 83.4978C209.436 84.3952 209.855 85.2338 210.432 85.9597C211.008 86.6856 211.731 87.2828 212.552 87.7129C213.374 88.143 214.276 88.3965 215.202 88.4571C216.127 88.5177 217.055 88.384 217.925 88.0648C219.153 87.6178 220.22 86.815 220.989 85.7588C221.82 84.6309 222.268 83.267 222.268 81.8663C222.268 80.4656 221.82 79.1017 220.989 77.9738C220.603 77.4348 220.132 76.9619 219.595 76.5735C219.09 76.1863 218.526 75.8826 217.925 75.6743C216.889 75.2924 215.773 75.1764 214.68 75.3368C213.587 75.4973 212.552 75.9291 211.669 76.5928C210.463 77.4974 209.595 78.7795 209.202 80.2348C209.079 80.7726 208.989 81.3175 208.933 81.8663C208.889 81.3074 208.938 80.7451 209.08 80.2027C209.429 78.6926 210.292 77.3508 211.521 76.4065C212.433 75.7024 213.508 75.2398 214.647 75.0613C215.785 74.8827 216.95 74.9942 218.034 75.3852C218.664 75.6029 219.255 75.9171 219.788 76.3166C220.349 76.7264 220.843 77.2204 221.252 77.7811C222.128 78.9643 222.601 80.3975 222.601 81.8695C222.601 83.3415 222.128 84.7747 221.252 85.9579C220.843 86.5186 220.349 87.0126 219.788 87.4224C219.254 87.8196 218.662 88.1336 218.034 88.3538C216.874 88.7716 215.623 88.8692 214.412 88.6364C213.127 88.3865 211.941 87.7722 210.995 86.8667C210.05 85.9612 209.385 84.8029 209.08 83.5299C208.938 82.9875 208.889 82.4252 208.933 81.8663Z" fill="#263238"/>
<path d="M214.656 83.7804C214.59 83.7787 214.526 83.7569 214.473 83.7178C214.42 83.6787 214.38 83.6243 214.359 83.562C214.338 83.4996 214.337 83.4322 214.356 83.3691C214.374 83.3059 214.412 83.2499 214.463 83.2087L216.197 81.8534L214.444 80.5302C214.377 80.4782 214.333 80.4016 214.322 80.3174C214.311 80.2331 214.334 80.148 214.386 80.0806C214.411 80.0469 214.443 80.0185 214.479 79.997C214.515 79.9755 214.556 79.9613 214.597 79.9554C214.639 79.9494 214.682 79.9517 214.722 79.9622C214.763 79.9727 214.802 79.9911 214.835 80.0164L216.917 81.5965C216.956 81.6258 216.988 81.6635 217.01 81.7069C217.032 81.7503 217.044 81.7982 217.045 81.847C217.045 81.8963 217.035 81.9449 217.013 81.9894C216.992 82.0339 216.961 82.073 216.923 82.1039L214.855 83.7162C214.797 83.7592 214.727 83.7818 214.656 83.7804Z" fill="#263238"/>
<path d="M74.2264 83.8168C75.079 80.1872 72.8279 76.5536 69.1983 75.701C65.5687 74.8483 61.9351 77.0995 61.0825 80.7291C60.2298 84.3587 62.481 87.9922 66.1106 88.8449C69.7402 89.6975 73.3737 87.4464 74.2264 83.8168Z" fill="#F5F5F5"/>
<path d="M74.4098 82.2774C74.3497 81.7286 74.2575 81.1838 74.1336 80.6459C73.7442 79.1891 72.8753 77.906 71.667 77.0039C70.8467 76.3835 69.8916 75.9653 68.8793 75.7834C67.7175 75.5708 66.5199 75.6729 65.4107 76.0789C64.8124 76.2938 64.2495 76.5969 63.7407 76.9782C63.2068 77.3709 62.7386 77.8456 62.3533 78.3849C61.5227 79.5127 61.0747 80.8767 61.0747 82.2774C61.0747 83.678 61.5227 85.042 62.3533 86.1699C62.7387 86.7072 63.207 87.1798 63.7407 87.5702C64.2465 87.9561 64.8101 88.2596 65.4107 88.4694C66.5193 88.8776 67.7169 88.9818 68.8793 88.7713C69.8916 88.5894 70.8467 88.1713 71.667 87.5509C72.8727 86.6463 73.741 85.3642 74.1336 83.9089C74.2564 83.3707 74.3486 82.826 74.4098 82.2774C74.4494 82.8362 74.3996 83.3979 74.262 83.941C73.9589 85.2142 73.2945 86.3728 72.3487 87.2775C71.403 88.1822 70.2161 88.7946 68.9307 89.0411C67.7181 89.2765 66.4645 89.1811 65.3016 88.7649C64.0182 88.2971 62.9011 87.4616 62.0899 86.3626C61.2104 85.1809 60.7354 83.7472 60.7354 82.2742C60.7354 80.8011 61.2104 79.3674 62.0899 78.1857C62.4963 77.6221 62.9908 77.1276 63.5544 76.7212C64.0863 76.3241 64.6754 76.0101 65.3016 75.7899C66.4647 75.3749 67.7174 75.2773 68.9307 75.5072C69.9789 75.7052 70.9665 76.1451 71.8148 76.7919C73.0441 77.737 73.9088 79.0782 74.262 80.588C74.4023 81.1395 74.4522 81.71 74.4098 82.2774Z" fill="#263238"/>
<path d="M68.6995 84.1915C68.6298 84.193 68.5617 84.1703 68.5068 84.1273L66.4192 82.5471C66.3802 82.5179 66.3483 82.4801 66.3261 82.4367C66.3038 82.3933 66.2917 82.3454 66.2908 82.2966C66.2902 82.2467 66.3016 82.1973 66.324 82.1526C66.3463 82.108 66.379 82.0692 66.4192 82.0397L68.4811 80.4274C68.5141 80.3986 68.5526 80.3767 68.5944 80.3633C68.6361 80.3499 68.6801 80.3452 68.7238 80.3494C68.7674 80.3537 68.8097 80.3668 68.8481 80.388C68.8865 80.4092 68.9201 80.4381 68.9469 80.4728C68.9737 80.5075 68.9931 80.5473 69.0039 80.5898C69.0147 80.6323 69.0167 80.6765 69.0098 80.7198C69.0029 80.7631 68.9872 80.8045 68.9636 80.8415C68.9401 80.8785 68.9092 80.9103 68.8729 80.9349L67.1386 82.2902L68.8922 83.6134C68.9461 83.6538 68.9859 83.7102 69.006 83.7746C69.0261 83.8389 69.0255 83.9079 69.0042 83.9719C68.9829 84.0358 68.942 84.0914 68.8873 84.1309C68.8326 84.1703 68.7669 84.1915 68.6995 84.1915Z" fill="#263238"/>
<path d="M254.146 254.19C262.708 250.554 272.626 243.405 277.045 234.637C267.539 238.574 259.523 245.418 254.146 254.19Z" fill="url(#paint0_linear_8_7729)"/>
<path d="M255.97 240.592C264.532 236.956 274.444 229.801 278.869 221.033C269.364 224.974 261.349 231.82 255.97 240.592Z" fill="url(#paint1_linear_8_7729)"/>
<path d="M258.443 227.353C267.012 223.718 276.923 216.569 281.349 207.801C271.842 211.739 263.825 218.583 258.443 227.353Z" fill="url(#paint2_linear_8_7729)"/>
<path d="M261.552 213.498C269.632 208.707 278.638 200.241 281.991 190.946C273.015 196.176 265.876 204.053 261.552 213.498Z" fill="url(#paint3_linear_8_7729)"/>
<path d="M264.873 202.894C270.757 195.186 276.248 183.739 276.171 173.809C269.631 182.184 265.701 192.3 264.873 202.894Z" fill="url(#paint4_linear_8_7729)"/>
<path d="M263.222 207.942C262.04 197.524 257.987 184.433 251.121 176.623C252.276 187.958 256.455 198.775 263.222 207.942Z" fill="url(#paint5_linear_8_7729)"/>
<path d="M260.46 219.324C258.36 208.591 253.06 195.314 245.256 187.786C247.394 199.475 252.647 210.371 260.46 219.324Z" fill="url(#paint6_linear_8_7729)"/>
<path d="M257.274 233.212C255.18 222.478 249.881 209.201 242.077 201.673C244.215 213.361 249.465 224.256 257.274 233.212Z" fill="url(#paint7_linear_8_7729)"/>
<path d="M254.724 250.265C252.63 239.532 247.331 226.255 239.527 218.721C241.665 230.411 246.915 241.308 254.724 250.265Z" fill="url(#paint8_linear_8_7729)"/>
<path d="M265.252 200.877C265.252 200.877 265.252 200.928 265.188 201.037C265.123 201.146 265.091 201.32 265.021 201.513L264.43 203.375C263.916 204.988 263.216 207.339 262.4 210.255C261.584 213.171 260.678 216.678 259.747 220.532C258.816 224.386 257.904 228.734 257.043 233.276C256.182 237.817 255.501 242.166 254.936 246.122C254.371 250.079 253.966 253.67 253.651 256.682C253.337 259.695 253.144 262.136 253.041 263.825C252.99 264.653 252.945 265.302 252.919 265.752C252.919 265.957 252.919 266.124 252.919 266.259C252.908 266.317 252.908 266.375 252.919 266.433C252.919 266.433 252.919 266.375 252.919 266.259C252.919 266.144 252.958 265.964 252.977 265.758C253.022 265.289 253.086 264.641 253.163 263.831C253.311 262.142 253.549 259.708 253.883 256.701C254.217 253.695 254.653 250.118 255.219 246.154C255.784 242.191 256.503 237.856 257.345 233.308C258.186 228.76 259.124 224.469 260.023 220.57C260.923 216.672 261.815 213.184 262.593 210.293C263.37 207.403 264.038 205.013 264.52 203.388L265.053 201.519C265.111 201.313 265.149 201.153 265.188 201.024C265.215 200.978 265.237 200.928 265.252 200.877Z" fill="url(#paint9_linear_8_7729)"/>
<path d="M249.971 259.868C253.606 252.263 256.246 241.568 254.467 233.218C250.408 241.475 248.845 250.737 249.971 259.868Z" fill="url(#paint10_linear_8_7729)"/>
<path d="M243.933 250.021C247.562 242.41 250.208 231.721 248.429 223.371C244.367 231.627 242.805 240.89 243.933 250.021Z" fill="url(#paint11_linear_8_7729)"/>
<path d="M238.518 240.007C242.147 232.396 244.787 221.707 243.014 213.357C238.952 221.613 237.39 230.876 238.518 240.007Z" fill="url(#paint12_linear_8_7729)"/>
<path d="M233.18 229.203C235.878 221.155 237.234 210.184 234.465 202.155C231.423 210.856 230.977 220.253 233.18 229.203Z" fill="url(#paint13_linear_8_7729)"/>
<path d="M229.705 220.365C229.442 211.796 226.918 201.095 221.599 194.749C221.719 203.9 224.539 212.811 229.705 220.365Z" fill="url(#paint14_linear_8_7729)"/>
<path d="M231.311 224.643C225.01 218.695 215.433 212.792 206.819 212.021C213.558 218.554 222.08 222.946 231.311 224.643Z" fill="url(#paint15_linear_8_7729)"/>
<path d="M235.557 233.635C228.491 228.041 218.009 222.793 208.945 222.774C216.545 228.949 225.807 232.729 235.557 233.635Z" fill="url(#paint16_linear_8_7729)"/>
<path d="M240.843 244.484C233.778 238.89 223.295 233.635 214.225 233.616C221.824 239.799 231.089 243.582 240.843 244.484Z" fill="url(#paint17_linear_8_7729)"/>
<path d="M248.262 256.99C241.197 251.396 230.714 246.142 221.651 246.122C229.247 252.304 238.51 256.088 248.262 256.99Z" fill="url(#paint18_linear_8_7729)"/>
<path d="M228.883 218.811C228.883 218.811 228.883 218.856 228.922 218.952L229.063 219.35C229.211 219.729 229.41 220.243 229.654 220.892C230.168 222.228 230.939 224.148 231.966 226.499C233.983 231.207 236.964 237.631 240.676 244.517C242.533 247.953 244.395 251.184 246.143 254.087C247.89 256.991 249.528 259.553 250.954 261.686C252.38 263.818 253.523 265.54 254.384 266.69L255.347 268.026L255.604 268.373C255.632 268.412 255.665 268.449 255.7 268.482C255.7 268.482 255.7 268.43 255.63 268.353L255.399 267.987L254.48 266.619C253.677 265.437 252.553 263.709 251.14 261.564C249.727 259.419 248.134 256.83 246.393 253.933C244.652 251.036 242.815 247.799 240.953 244.362C237.253 237.489 234.24 231.066 232.172 226.409C231.138 224.071 230.322 222.17 229.77 220.847L229.127 219.331C229.057 219.17 228.999 219.042 228.947 218.939C228.932 218.894 228.91 218.85 228.883 218.811Z" fill="url(#paint19_linear_8_7729)"/>
<path d="M232.679 260.787H268.759V267.737H265.053L261.931 287.572H239.623L236.411 267.737H232.679V260.787Z" fill="#E6A371"/>
<path d="M232.679 267.595C232.679 267.499 240.696 267.428 250.587 267.428C260.479 267.428 268.502 267.499 268.502 267.595C268.502 267.692 260.479 267.762 250.587 267.762C240.696 267.762 232.679 267.679 232.679 267.595Z" fill="black"/>
<path d="M89.7165 195.873C91.1722 195.949 92.6319 195.872 94.0714 195.642C95.1038 195.372 96.0862 194.938 96.9812 194.357C96.9812 194.357 100.148 194.794 100.655 194.087C100.962 193.641 101.128 193.113 101.131 192.571L103.456 192.282L105.563 192.681L106.725 194.1C106.725 194.1 107.599 194.1 107.637 193.573C107.637 193.573 108.8 193.047 108.691 192.681C108.582 192.314 107.939 190.574 107.939 190.574L107.053 188.672C107.053 188.672 101.31 188.313 101.092 188.454C100.874 188.595 93.6025 191.987 93.6025 191.987L90.9112 192.629L89.7165 195.873Z" fill="#EB996E"/>
<path d="M92.6968 186.488L101.805 184.446L108.164 184.105C108.164 184.105 113.585 186.623 113.431 188.878L114.568 189.488C114.568 189.488 114.472 191.171 113.116 190.773C112.457 190.583 111.812 190.342 111.189 190.053L112.648 192.276C112.342 192.449 111.998 192.543 111.647 192.55C111.296 192.556 110.949 192.476 110.637 192.314C110.181 192.096 106.982 189.674 106.982 189.674L104.278 189.597C104.278 189.597 99.255 193.053 96.9234 193.451C94.5917 193.85 90.6221 193.027 90.6221 193.027L92.6968 186.488Z" fill="#FFBE9D"/>
<path d="M113.116 190.799C113.116 190.76 113.348 190.837 113.72 190.799C113.827 190.775 113.927 190.729 114.015 190.664C114.102 190.598 114.175 190.515 114.228 190.42C114.359 190.153 114.413 189.855 114.382 189.559L114.433 189.649L110.502 187.08L109.32 186.309C108.954 186.071 108.543 185.795 108.248 185.666H107.714H107.13H106.083C105.395 185.702 104.706 185.683 104.021 185.609C104.696 185.491 105.379 185.431 106.064 185.429L107.091 185.377H107.67H107.971H108.196C108.243 185.371 108.291 185.371 108.338 185.377C108.743 185.585 109.135 185.817 109.513 186.071L110.701 186.842C112.217 187.85 113.585 188.769 114.555 189.508L114.607 189.546V189.604C114.63 189.947 114.549 190.29 114.375 190.587C114.306 190.699 114.212 190.794 114.101 190.865C113.99 190.937 113.864 190.982 113.733 190.998C113.573 191.018 113.411 191.002 113.258 190.953C113.168 190.831 113.116 190.811 113.116 190.799Z" fill="#EB996E"/>
<path d="M112.551 192.154C112.193 191.823 111.874 191.453 111.601 191.049C111.042 190.343 110.316 189.347 109.474 188.236H109.507L109.397 188.152C109.121 187.94 108.845 187.735 108.575 187.555L108.164 187.304C108.041 187.237 107.906 187.193 107.766 187.176C107.239 187.09 106.707 187.037 106.173 187.015C105.671 187.026 105.17 186.987 104.676 186.9C105.169 186.791 105.675 186.75 106.179 186.778C106.729 186.764 107.279 186.794 107.824 186.868C107.996 186.892 108.163 186.944 108.318 187.022C108.466 187.099 108.607 187.189 108.749 187.279C109.038 187.465 109.32 187.671 109.603 187.889L109.712 187.979C110.528 189.097 111.247 190.111 111.755 190.857C112.071 191.256 112.338 191.691 112.551 192.154Z" fill="#EB996E"/>
<path d="M148.188 260.299L148.4 277.153C148.4 277.153 165.524 281.38 165.871 284.489L133.279 287.296L131.872 261.044L148.188 260.299Z" fill="#E6A371"/>
<g opacity="0.6">
<path d="M138.231 276.228C137.922 276.339 137.665 276.561 137.508 276.85C137.352 277.139 137.307 277.476 137.384 277.795C137.483 278.109 137.699 278.372 137.987 278.531C138.275 278.69 138.613 278.733 138.932 278.65C139.259 278.531 139.531 278.296 139.695 277.988C139.858 277.681 139.902 277.324 139.818 276.986C139.68 276.67 139.426 276.419 139.107 276.286C138.789 276.153 138.431 276.148 138.109 276.273" fill="white"/>
</g>
<g opacity="0.6">
<path d="M133.279 287.296L133.138 284.649L164.702 283.037C165.049 283.181 165.354 283.41 165.59 283.703C165.825 283.996 165.984 284.343 166.051 284.713L133.279 287.296Z" fill="black"/>
</g>
<path d="M148.92 276.96C148.92 277.121 148.13 277.23 147.372 277.783C146.614 278.335 146.222 279.029 146.087 278.971C145.952 278.913 146.119 277.956 147.063 277.314C148.008 276.671 148.952 276.813 148.92 276.96Z" fill="black"/>
<path d="M152.421 278.213C152.459 278.367 151.778 278.669 151.277 279.369C150.776 280.069 150.635 280.795 150.487 280.795C150.339 280.795 150.179 279.896 150.828 279.042C151.476 278.187 152.408 278.059 152.421 278.213Z" fill="black"/>
<path d="M154.559 282.221C154.418 282.26 154.161 281.476 154.527 280.583C154.893 279.69 155.619 279.299 155.696 279.433C155.773 279.568 155.33 280.076 155.054 280.789C154.778 281.502 154.72 282.195 154.559 282.221Z" fill="black"/>
<path d="M148.451 273.126C148.387 273.273 147.648 273.094 146.749 273.196C145.849 273.299 145.162 273.62 145.072 273.485C144.982 273.351 145.631 272.753 146.691 272.644C147.751 272.535 148.522 272.997 148.451 273.126Z" fill="black"/>
<g opacity="0.3">
<path d="M148.226 263.639L148.271 266.638L132.271 268.353L132.052 264.57L148.226 263.639Z" fill="black"/>
</g>
<path d="M148.348 269.728C147.818 269.898 147.253 269.922 146.71 269.798C146.116 269.721 145.534 269.572 144.976 269.355C144.645 269.226 144.323 269.073 144.012 268.899C143.823 268.808 143.649 268.687 143.499 268.54C143.389 268.432 143.318 268.291 143.297 268.139C143.276 267.986 143.306 267.831 143.383 267.698C143.456 267.582 143.557 267.486 143.675 267.416C143.794 267.347 143.927 267.307 144.064 267.3C144.279 267.287 144.495 267.304 144.706 267.351C145.651 267.538 146.534 267.957 147.275 268.572C148.066 269.214 148.355 269.818 148.303 269.856C148.252 269.895 147.841 269.432 147.019 268.893C146.554 268.579 146.051 268.326 145.522 268.141C145.211 268.031 144.891 267.95 144.565 267.897C144.218 267.82 143.922 267.833 143.839 267.994C143.839 268.051 143.807 268.077 143.884 268.173C143.998 268.278 144.126 268.366 144.263 268.437C144.55 268.603 144.846 268.753 145.149 268.886C145.669 269.114 146.209 269.293 146.762 269.42C147.298 269.48 147.828 269.583 148.348 269.728Z" fill="black"/>
<path d="M148.149 269.965C147.811 269.515 147.631 268.967 147.635 268.405C147.579 267.801 147.627 267.193 147.776 266.606C147.865 266.257 147.988 265.917 148.143 265.591C148.22 265.371 148.353 265.174 148.529 265.02C148.704 264.866 148.916 264.76 149.145 264.711C149.291 264.707 149.435 264.745 149.56 264.82C149.685 264.895 149.786 265.004 149.851 265.135C149.944 265.322 150.011 265.521 150.05 265.726C150.124 266.09 150.142 266.462 150.102 266.831C150.038 267.45 149.817 268.043 149.459 268.552C148.862 269.432 148.207 269.657 148.175 269.599C148.143 269.542 148.656 269.188 149.106 268.353C149.365 267.871 149.516 267.339 149.549 266.792C149.568 266.476 149.542 266.158 149.472 265.848C149.402 265.501 149.26 265.206 149.132 265.27C149.003 265.334 148.708 265.546 148.586 265.835C148.437 266.125 148.317 266.428 148.226 266.741C148.067 267.275 147.987 267.829 147.988 268.385C148.033 269.349 148.233 269.94 148.149 269.965Z" fill="black"/>
<path d="M66.5669 202.47C66.5669 202.47 119.623 193.663 121.987 193.297C131.082 191.897 141.462 193.008 144.925 199.534C146.734 204.364 147.768 209.45 147.988 214.603C148.425 222.626 151.611 270.152 151.611 270.152L129.721 273.794L122.514 221.206L110.155 223.525C110.849 223.442 78.0389 229.306 68.1342 230.34C60.4841 231.117 51.6649 226.994 49.905 220.172C48.7488 215.714 46.2373 203.305 46.2373 203.305L66.5669 202.47Z" fill="black"/>
<path d="M127.697 213.942C126.638 214.956 125.656 216.049 124.762 217.211C123.963 218.443 123.255 219.731 122.642 221.065C122.687 220.62 122.807 220.186 122.995 219.78C123.376 218.796 123.878 217.864 124.492 217.006C125.104 216.145 125.818 215.362 126.618 214.674C126.935 214.372 127.3 214.124 127.697 213.942Z" fill="#372011"/>
<path d="M21.392 112.473C20.614 113.753 20.238 115.236 20.3129 116.732C20.3129 118.19 21.3149 121.145 23.8971 121.292C23.2098 125.461 25.8819 128.538 30.3204 128.544C34.7589 128.551 39.8461 120.933 43.9634 119.263L55.9107 116.102C56.9577 115.858 57.3881 114.58 57.3688 113.533C57.3495 112.486 57.0733 111.336 57.4523 110.321C57.9726 108.94 59.5784 108.202 60.1244 106.827C60.7667 105.266 59.784 103.532 58.6727 102.273C57.5615 101.014 56.2126 99.8129 55.8593 98.1749C55.5318 96.6655 56.1163 94.9633 55.3583 93.6144C54.4334 91.9572 51.999 91.7452 50.862 90.2229C50.3161 89.4778 50.1426 88.5143 49.5774 87.7692C48.6588 86.4846 46.886 86.1698 45.3252 86.3368C43.7643 86.5038 42.2677 87.0755 40.7068 87.1911C38.5615 87.3453 36.3454 86.6516 34.2835 87.2746C32.0097 87.9555 30.6287 89.9724 29.1449 91.9251L27.2179 94.1861C26.8242 94.5753 26.394 94.9259 25.9333 95.2331C25.0747 95.6759 24.2596 96.1985 23.4989 96.7939C23.147 97.1656 22.8739 97.6045 22.696 98.0844C22.5181 98.5643 22.4391 99.0752 22.4637 99.5864C22.4883 100.098 22.616 100.599 22.8391 101.059C23.0623 101.52 23.3763 101.93 23.7622 102.267C22.9392 102.549 22.2295 103.09 21.7388 103.809C21.2481 104.528 21.0026 105.386 21.0387 106.255C21.0387 106.255 20.8268 108.234 22.0793 109.114C21.5981 109.511 21.2675 110.061 21.1424 110.672C21.0174 111.283 21.1055 111.919 21.392 112.473Z" fill="black"/>
<path d="M29.3954 116.513C28.3258 113.51 27.5198 110.42 26.9867 107.277C26.4533 104.119 26.7138 100.879 27.7446 97.8474C27.9117 97.3978 29.3505 94.3596 29.8258 94.4045C30.1726 94.4431 29.2862 97.2757 29.4597 97.5712C31.1169 100.417 31.5729 103.847 31.3031 107.129C31.0121 110.319 30.3657 113.467 29.3762 116.513" fill="black"/>
<path d="M37.264 144.307C30.1984 143.421 29.4019 132.103 29.4019 132.103L29.0807 104.367C28.8238 96.3829 33.2558 89.5935 41.2464 89.5356L41.9851 89.5742C45.5646 89.7713 48.9391 91.3076 51.4381 93.878C53.9371 96.4484 55.3778 99.8648 55.474 103.448C55.6602 110.373 55.7759 118.029 55.5318 121.723C55.0308 129.373 47.31 130.156 47.31 130.156C47.31 130.156 47.1044 137.023 47.1301 139.387C47.2136 147.531 39.2166 144.487 37.2383 144.313L37.264 144.307Z" fill="#FFBE9D"/>
<path d="M47.3356 130.15C43.7985 129.952 40.3923 128.744 37.5209 126.669C37.5209 126.669 39.5827 132.694 47.265 132.411L47.3356 130.15Z" fill="#EB996E"/>
<path d="M53.4827 109.724C53.471 110.009 53.3482 110.278 53.1405 110.474C52.9328 110.67 52.6568 110.776 52.3715 110.771C52.2319 110.774 52.093 110.75 51.9629 110.699C51.8329 110.648 51.7145 110.571 51.6145 110.474C51.5146 110.376 51.4351 110.259 51.3809 110.131C51.3267 110.002 51.2988 109.864 51.2988 109.724C51.3105 109.439 51.4334 109.17 51.641 108.974C51.8487 108.778 52.1248 108.672 52.4101 108.677C52.5497 108.674 52.6886 108.698 52.8186 108.749C52.9486 108.8 53.0671 108.877 53.1671 108.974C53.267 109.072 53.3464 109.189 53.4007 109.317C53.4549 109.446 53.4828 109.584 53.4827 109.724Z" fill="black"/>
<path d="M53.6947 106.538C53.547 106.673 52.7569 106.011 51.575 105.953C50.3931 105.896 49.5067 106.435 49.3847 106.281C49.2626 106.127 49.481 105.966 49.8728 105.716C50.3983 105.387 51.0142 105.232 51.6328 105.273C52.2455 105.304 52.8324 105.529 53.3093 105.915C53.6562 106.21 53.7654 106.454 53.6947 106.538Z" fill="black"/>
<path d="M42.4219 109.724C42.4102 110.009 42.2873 110.278 42.0796 110.474C41.872 110.67 41.5959 110.776 41.3106 110.771C41.171 110.774 41.0321 110.75 40.9021 110.699C40.7721 110.648 40.6536 110.571 40.5536 110.474C40.4537 110.376 40.3742 110.259 40.32 110.131C40.2658 110.002 40.2379 109.864 40.2379 109.724C40.2496 109.439 40.3725 109.17 40.5802 108.974C40.7878 108.778 41.0639 108.672 41.3492 108.677C41.4888 108.674 41.6277 108.698 41.7577 108.749C41.8877 108.8 42.0062 108.877 42.1062 108.974C42.2061 109.072 42.2856 109.189 42.3398 109.317C42.394 109.446 42.4219 109.584 42.4219 109.724Z" fill="black"/>
<path d="M42.1457 106.39C41.9979 106.531 41.2014 105.87 40.026 105.812C38.8505 105.754 37.9577 106.294 37.8356 106.14C37.7136 105.986 37.9256 105.825 38.3174 105.574C38.8452 105.245 39.4631 105.09 40.0838 105.131C40.6964 105.163 41.2833 105.388 41.7603 105.774C42.1007 106.069 42.2099 106.332 42.1457 106.39Z" fill="black"/>
<path d="M45.8776 115.659C46.5077 115.501 47.1549 115.421 47.8045 115.421C48.1064 115.421 48.3891 115.357 48.4469 115.158C48.4896 114.848 48.4357 114.531 48.2927 114.252C48.0486 113.514 47.7981 112.736 47.5283 111.921C46.4685 108.593 45.717 105.87 45.8519 105.831C45.9868 105.793 46.9567 108.446 48.0165 111.773C48.267 112.589 48.5111 113.372 48.7423 114.117C48.9128 114.49 48.9447 114.912 48.8323 115.306C48.7838 115.409 48.7123 115.5 48.6232 115.571C48.5341 115.642 48.4298 115.692 48.3184 115.717C48.1499 115.755 47.9771 115.77 47.8045 115.762C47.1605 115.811 46.5127 115.777 45.8776 115.659Z" fill="black"/>
<path d="M42.364 116.288C42.5567 116.288 42.4925 117.573 43.5331 118.53C44.5736 119.487 45.9482 119.429 45.9482 119.609C45.9482 119.686 45.6335 119.841 45.0554 119.821C44.3068 119.795 43.5918 119.504 43.0385 118.999C42.5063 118.515 42.1838 117.842 42.1392 117.124C42.1264 116.584 42.287 116.276 42.364 116.288Z" fill="black"/>
<path d="M42.364 101.618C42.2356 101.926 41.0794 101.714 39.6791 101.804C38.2788 101.894 37.1483 102.215 36.9813 101.92C36.9107 101.778 37.1162 101.489 37.5851 101.2C38.2064 100.852 38.8992 100.65 39.6106 100.609C40.3219 100.569 41.033 100.692 41.6896 100.969C42.1521 101.2 42.364 101.464 42.364 101.618Z" fill="black"/>
<path d="M53.4185 102.601C53.1937 102.851 52.3972 102.536 51.4273 102.466C50.4574 102.395 49.6159 102.549 49.4425 102.26C49.3654 102.119 49.5067 101.862 49.8857 101.618C50.3822 101.334 50.9548 101.213 51.5236 101.271C52.099 101.313 52.6458 101.539 53.0845 101.913C53.4185 102.189 53.5148 102.472 53.4185 102.601Z" fill="black"/>
<path d="M29.4019 110.064C29.2734 110 24.2247 108.227 24.1091 113.469C23.9935 118.71 29.2862 117.747 29.2991 117.592C29.3119 117.438 29.4019 110.064 29.4019 110.064Z" fill="#FFBE9D"/>
<path d="M27.7382 115.576C27.7382 115.576 27.6483 115.633 27.4877 115.704C27.2688 115.789 27.0258 115.789 26.8069 115.704C26.2545 115.486 25.8112 114.599 25.8048 113.649C25.8061 113.205 25.9025 112.767 26.0874 112.364C26.1397 112.2 26.2316 112.052 26.3548 111.932C26.478 111.812 26.6289 111.724 26.794 111.677C26.8997 111.651 27.011 111.663 27.1085 111.711C27.206 111.759 27.2834 111.84 27.3271 111.94C27.3914 112.088 27.3271 112.191 27.3849 112.197C27.4428 112.203 27.5006 112.113 27.462 111.895C27.4357 111.764 27.3655 111.646 27.2629 111.561C27.1209 111.45 26.941 111.399 26.7619 111.42C26.5451 111.457 26.3415 111.549 26.1706 111.687C25.9996 111.826 25.8671 112.006 25.7856 112.21C25.5566 112.662 25.4377 113.161 25.4387 113.668C25.4387 114.721 25.9718 115.723 26.7234 115.961C26.8627 116.005 27.0102 116.017 27.1548 115.996C27.2994 115.974 27.4374 115.921 27.5584 115.839C27.7254 115.698 27.7575 115.582 27.7382 115.576Z" fill="#EB996E"/>
<path d="M52.2173 94.7127C53.0716 94.2567 50.5601 91.5011 48.4854 90.499C45.3509 89.0345 40.5527 88.0903 37.6365 88.8739C34.123 89.8246 31.2132 91.5268 29.3954 94.687C27.6684 97.9039 26.8241 101.521 26.9482 105.17C26.8951 106.283 27.1366 107.391 27.6483 108.381C28.3677 109.55 29.7616 110.308 29.6781 111.895C29.6353 112.479 29.8246 113.056 30.2048 113.501C31.149 114.535 32.3373 113.591 32.8897 112.64C34.0716 110.597 34.2257 108.144 34.3606 105.793C34.5419 104.126 34.4508 102.44 34.0909 100.802C33.8468 99.9284 33.4485 99.0934 33.2494 98.2327C33.1235 97.7936 33.0945 97.3324 33.1644 96.881C33.2343 96.4297 33.4013 95.9988 33.6541 95.6184C33.7846 95.4645 33.9286 95.3226 34.0844 95.1944C34.8243 94.5657 35.7181 94.145 36.6742 93.9757C37.6302 93.8064 38.6142 93.8945 39.525 94.231C42.4668 95.3101 47.4898 96.9352 48.8194 95.9524C50.7464 94.5328 51.196 93.6015 51.196 93.6015L52.2173 94.7127Z" fill="black"/>
<path d="M37.9191 88.1674C39.3612 87.6793 40.8854 87.4809 42.4043 87.5834C43.9233 87.6859 45.407 88.0874 46.7704 88.7648C47.5001 89.1129 48.1521 89.6046 48.6874 90.2105C49.2226 90.8164 49.6302 91.5241 49.8857 92.2911C50.3032 93.8456 49.6159 95.7533 48.1129 96.3378L48.0101 96.4021C45.7684 97.1279 44.3167 96.8067 42.0943 96.0102C40.2251 95.3358 38.5679 94.1539 36.6987 93.4923C34.6927 92.7835 32.5203 92.6918 30.4617 93.2289C32.4596 90.9159 35.0318 89.1701 37.9191 88.1674Z" fill="black"/>
<path d="M27.9438 93.3509C27.9887 93.3895 28.4127 92.8885 29.267 92.2975C29.7603 91.9529 30.2929 91.6683 30.8535 91.4496C31.5281 91.1701 32.2572 91.0471 32.9861 91.0899C34.3232 91.235 35.5911 91.7586 36.6409 92.5994C37.4567 93.2417 37.8292 93.7813 37.8806 93.7428C37.932 93.7042 37.8228 93.5822 37.6494 93.3381C37.4028 92.9966 37.1184 92.6842 36.8015 92.4067C35.7437 91.4728 34.4214 90.8914 33.0182 90.7431C32.2367 90.6946 31.455 90.8333 30.7379 91.1477C30.1568 91.3879 29.612 91.7079 29.1192 92.0984C28.6442 92.4292 28.2438 92.8559 27.9438 93.3509Z" fill="#372011"/>
<path d="M43.9249 87.6921C44.3779 87.8898 44.841 88.0635 45.3123 88.2124C47.5232 89.0952 49.4044 90.6442 50.695 92.6445C51.1832 93.4089 51.4209 93.9291 51.4722 93.9291C51.373 93.4332 51.1813 92.9603 50.907 92.5353C49.6983 90.3905 47.7332 88.7736 45.3958 88.0005C44.9288 87.8076 44.4301 87.7031 43.9249 87.6921Z" fill="#372011"/>
<path d="M28.3998 125.724L27.4749 129.713L48.9736 143.067L48.0101 136.413C46.054 134.405 43.8502 132.654 41.4519 131.203C37.3213 128.892 32.9429 127.054 28.3998 125.724Z" fill="#F5F5F5"/>
<path d="M26.672 130.863C26.672 130.863 20.056 144.885 19.6064 150.21C19.1567 155.535 20.9424 173.257 20.9424 173.257L50.785 207.3L80.5697 209.278C80.5697 209.278 66.4706 179.629 63.3168 173.848C60.1629 168.067 49.5581 141.866 49.5581 141.866C48.7326 139.698 47.4588 137.728 45.8198 136.085C41.7795 131.801 33.9431 129.161 26.8904 127.735L26.672 130.863Z" fill="#E6A371"/>
<path d="M38.0348 136.85C42.4604 137.37 48.145 140.703 50.1169 148.482L52.0439 158.117L61.5825 177.477L92.8318 186.392L88.7722 198.635C88.7722 198.635 57.7799 196.175 53.7654 195.096C49.7508 194.017 33.0888 170.385 33.0888 170.385C33.0888 170.385 24.7386 155.991 26.8904 145.386C27.9566 140.093 32.575 136.207 38.0348 136.85Z" fill="#E6A371"/>
<path d="M38.0347 136.85H37.2896C36.5603 136.831 35.8309 136.885 35.1122 137.01C33.9531 137.242 32.8441 137.677 31.8363 138.295C30.4719 139.143 29.3221 140.295 28.4769 141.661C27.9772 142.464 27.5802 143.328 27.295 144.23C27.2151 144.468 27.1486 144.71 27.0959 144.956C27.0248 145.204 26.9733 145.457 26.9417 145.714C26.8711 146.234 26.8004 146.761 26.7234 147.3C26.5706 149.665 26.7239 152.04 27.1794 154.366C27.6939 157.024 28.4441 159.632 29.4211 162.157C30.4828 164.982 31.7494 167.726 33.2109 170.366C35.626 173.764 38.2531 177.348 41.0794 181.055C43.9907 184.955 47.1015 188.703 50.3996 192.282C51.259 193.206 52.2274 194.021 53.2836 194.71C53.8524 194.978 54.463 195.145 55.0886 195.205C55.7309 195.301 56.3732 195.411 57.0155 195.481C59.5849 195.822 62.2634 196.091 64.9547 196.361C70.3246 196.888 75.8743 197.376 81.4882 197.851L88.7722 198.442L88.6052 198.558C89.9798 194.396 91.3308 190.315 92.6583 186.315L92.7739 186.527L61.5311 177.592H61.4669V177.535L51.954 158.156C51.5258 156.04 51.134 154.034 50.7785 152.137C50.4969 150.346 50.0891 148.578 49.5581 146.844C48.6428 144.092 46.9657 141.655 44.7214 139.817C43.2951 138.658 41.6503 137.797 39.8847 137.286C39.4325 137.157 38.9736 137.052 38.5101 136.972L38.0347 136.882C38.0347 136.882 38.2018 136.882 38.5165 136.94C38.9848 137.002 39.4483 137.097 39.9039 137.222C41.6695 137.712 43.3172 138.556 44.7471 139.702C47.0255 141.542 48.734 143.993 49.6737 146.767C50.2299 148.504 50.6592 150.28 50.9584 152.079C51.3395 153.972 51.7399 155.976 52.1595 158.091L61.7238 177.438L61.6339 177.368L92.8896 186.264L93.0501 186.309L92.9988 186.469C91.6756 190.465 90.3245 194.548 88.9457 198.719L88.9007 198.841H88.7722L81.4882 198.25C75.8486 197.768 70.3246 197.286 64.9483 196.753C62.2569 196.483 59.6041 196.207 57.0027 195.867C56.3604 195.796 55.718 195.687 55.0757 195.59C54.7545 195.545 54.4334 195.468 54.1122 195.404C53.7758 195.352 53.4528 195.234 53.1616 195.057C52.0871 194.337 51.1037 193.489 50.2326 192.533C46.9274 188.943 43.8122 185.182 40.8995 181.267C38.0797 177.554 35.459 173.963 33.0439 170.553C31.5837 167.897 30.3192 165.138 29.2605 162.299C28.2539 159.733 27.48 157.083 26.9482 154.379C26.4976 152.037 26.3529 149.647 26.5178 147.268C26.5949 146.722 26.672 146.183 26.7426 145.662C26.7785 145.404 26.8343 145.148 26.9096 144.898C26.9637 144.648 27.0323 144.401 27.1152 144.159C27.4074 143.24 27.8153 142.361 28.3292 141.545C29.191 140.167 30.3635 139.01 31.7528 138.166C32.774 137.543 33.8988 137.108 35.0736 136.882C35.799 136.759 36.5359 136.718 37.2704 136.76C37.7842 136.817 38.0347 136.85 38.0347 136.85Z" fill="black"/>
<path d="M56.187 184.953C56.2829 184.503 56.4475 184.069 56.6751 183.669C57.156 182.668 57.7279 181.713 58.3837 180.817C59.0409 179.921 59.7784 179.087 60.5869 178.325C60.9006 177.986 61.2646 177.698 61.666 177.47C61.7367 177.547 60.163 178.941 58.6535 181.016C57.144 183.091 56.2833 184.998 56.187 184.953Z" fill="black"/>
<path d="M50.7143 144.352C50.4404 144.107 50.1869 143.841 49.9564 143.555C49.7251 143.286 49.4425 142.964 49.0892 142.611C48.7359 142.258 48.357 141.834 47.8816 141.41C46.8161 140.394 45.6876 139.445 44.503 138.571C43.0447 137.508 41.5168 136.545 39.9296 135.687C37.0145 134.165 33.9574 132.932 30.8021 132.006C29.5946 131.647 28.6054 131.364 27.9245 131.203C27.5649 131.129 27.2125 131.024 26.8711 130.889C27.2371 130.924 27.5999 130.986 27.9566 131.075C28.6503 131.21 29.646 131.448 30.8664 131.775C34.0601 132.631 37.1509 133.833 40.0838 135.359C41.6866 136.221 43.2237 137.2 44.6828 138.288C45.8698 139.182 46.9924 140.159 48.0422 141.211C48.5047 141.641 48.8772 142.084 49.2177 142.451C49.5581 142.817 49.86 143.157 50.0527 143.44C50.2972 143.726 50.5184 144.031 50.7143 144.352Z" fill="black"/>
<path d="M142.265 153.017C142.13 152.976 141.987 152.963 141.846 152.978C141.705 152.992 141.568 153.034 141.444 153.102C141.319 153.169 141.209 153.26 141.12 153.37C141.03 153.48 140.963 153.607 140.923 153.743L130.055 190.086L93.6475 195.738C93.0832 195.827 92.577 196.135 92.2399 196.597C91.9027 197.058 91.7622 197.634 91.849 198.198L131.731 191.981L142.978 154.353C143.059 154.081 143.029 153.789 142.896 153.539C142.762 153.289 142.536 153.101 142.265 153.017Z" fill="#E0E0E0"/>
<path d="M142.265 153.017C142.516 153.078 142.734 153.232 142.875 153.447C142.963 153.579 143.021 153.728 143.047 153.884C143.072 154.04 143.064 154.2 143.023 154.353L142.67 155.58L140.325 163.57L131.879 192.026V191.987V192.128H131.731L131.847 192.026L131.802 192.167L131.667 192.122H131.725L92.6198 198.308L91.8747 198.423H91.7141V198.256C91.6382 197.764 91.7221 197.261 91.9533 196.821C92.1845 196.38 92.551 196.026 92.9987 195.809C93.2202 195.704 93.4562 195.632 93.6989 195.597L94.3733 195.494L95.7158 195.282L101.041 194.454L111.318 192.854L130.035 189.957L129.92 190.06C133.35 178.672 136.202 169.191 138.206 162.543L140.55 154.835C140.683 154.407 140.805 154.015 140.916 153.659C140.972 153.513 141.058 153.38 141.168 153.269C141.279 153.158 141.412 153.072 141.559 153.017C141.792 152.925 142.051 152.925 142.285 153.017C142.049 152.964 141.802 152.984 141.578 153.075C141.445 153.131 141.325 153.214 141.225 153.319C141.126 153.424 141.049 153.549 141 153.685C140.897 154.028 140.782 154.419 140.653 154.86L138.386 162.568C136.414 169.223 133.594 178.717 130.215 190.118V190.201H130.125L111.344 193.169L101.066 194.775L95.7415 195.603L94.399 195.815C93.9597 195.853 93.5276 195.95 93.1143 196.104C92.731 196.29 92.4171 196.593 92.2183 196.97C92.0195 197.347 91.9464 197.777 92.0095 198.198L91.8168 198.063L92.5619 197.948L131.705 191.884H131.738L131.558 191.981V191.891H131.648L131.526 192.058V192C135.058 180.252 138.013 170.45 140.081 163.57C141.122 160.147 141.944 157.455 142.509 155.606L142.882 154.385C142.922 154.241 142.932 154.09 142.911 153.942C142.89 153.794 142.839 153.652 142.76 153.524C142.648 153.311 142.476 153.134 142.265 153.017Z" fill="black"/>
<path d="M131.738 192.006C131.66 192.058 131.275 191.608 130.8 191.068C130.324 190.529 129.945 190.073 130.01 190.002C130.074 189.931 130.569 190.285 131.057 190.85C131.545 191.415 131.815 191.955 131.738 192.006Z" fill="#372011"/>
<path d="M125.732 191.46C125.732 191.422 125.892 191.3 126.149 191.46C126.23 191.503 126.298 191.568 126.343 191.647C126.389 191.727 126.411 191.818 126.406 191.91C126.401 192.025 126.36 192.136 126.288 192.227C126.216 192.317 126.117 192.382 126.006 192.413C125.894 192.444 125.776 192.438 125.668 192.397C125.56 192.357 125.468 192.283 125.404 192.186C125.349 192.113 125.316 192.026 125.308 191.935C125.3 191.845 125.318 191.753 125.359 191.672C125.513 191.402 125.745 191.447 125.732 191.486C125.719 191.524 125.61 191.595 125.578 191.762C125.571 191.807 125.574 191.853 125.589 191.896C125.603 191.939 125.628 191.978 125.661 192.01C125.694 192.041 125.734 192.064 125.777 192.077C125.821 192.09 125.867 192.092 125.912 192.083C125.959 192.07 126.001 192.043 126.034 192.007C126.067 191.971 126.089 191.926 126.098 191.878C126.105 191.837 126.1 191.796 126.086 191.757C126.071 191.719 126.046 191.685 126.014 191.659C125.867 191.499 125.751 191.499 125.732 191.46Z" fill="#372011"/>
<path d="M128.057 191.101C128.057 191.062 128.218 190.94 128.475 191.101C128.556 191.143 128.624 191.207 128.67 191.287C128.715 191.367 128.737 191.458 128.731 191.55C128.724 191.664 128.68 191.773 128.608 191.862C128.535 191.95 128.437 192.014 128.327 192.045C128.217 192.072 128.101 192.065 127.995 192.026C127.889 191.987 127.796 191.918 127.729 191.826C127.675 191.753 127.641 191.667 127.634 191.576C127.626 191.485 127.643 191.394 127.684 191.312C127.845 191.043 128.07 191.081 128.057 191.12C128.044 191.158 127.935 191.235 127.903 191.396C127.894 191.438 127.896 191.482 127.908 191.524C127.921 191.565 127.943 191.603 127.973 191.634C128.006 191.67 128.047 191.697 128.093 191.713C128.139 191.729 128.189 191.733 128.237 191.724C128.283 191.709 128.325 191.682 128.358 191.646C128.39 191.61 128.413 191.566 128.423 191.518C128.431 191.476 128.428 191.434 128.413 191.394C128.398 191.354 128.373 191.319 128.34 191.293C128.205 191.145 128.076 191.145 128.057 191.101Z" fill="#372011"/>
<path d="M38.2339 238.967L23.4539 287.52L28.843 287.572L48.813 238.459L38.2339 238.967Z" fill="black"/>
<path d="M101.792 232.351C101.754 232.351 118.493 287.437 118.493 287.437L123.837 287.514L113.534 231.246L101.792 232.351Z" fill="black"/>
<path d="M15.1358 161.83C14.3293 161.085 13.3253 160.589 12.2441 160.401C11.1629 160.213 10.0504 160.341 9.04006 160.77C4.89705 162.536 -1.16653 166.159 0.19521 171.882C1.89738 179.038 21.4884 225.709 27.8089 240.701C28.386 242.068 29.3557 243.233 30.5952 244.048C31.8347 244.863 33.2882 245.292 34.7717 245.281L116.874 244.587C117.732 244.579 118.579 244.389 119.359 244.029C120.138 243.669 120.832 243.149 121.396 242.501C121.959 241.853 122.379 241.093 122.627 240.272C122.875 239.45 122.946 238.585 122.835 237.734L119.765 214.417C119.271 210.671 117.516 207.205 114.788 204.591C112.06 201.976 108.523 200.37 104.76 200.035L51.6649 195.321L15.1358 161.83Z" fill="#372011"/>
<path d="M25.124 233.449C25.1024 233.393 25.0874 233.335 25.079 233.276C25.079 233.147 25.0212 232.987 24.9762 232.781C24.8863 232.319 24.7643 231.676 24.6101 230.854C24.3082 229.159 23.8714 226.756 23.3254 223.789C22.7795 220.821 22.1693 217.243 21.4755 213.299C21.1351 211.327 20.769 209.253 20.3964 207.107C20.2102 206.028 20.0175 204.936 19.8248 203.825C19.5661 202.688 19.5355 201.512 19.7348 200.363C19.8754 199.779 20.1454 199.235 20.5249 198.77C20.917 198.313 21.3949 197.938 21.9316 197.665C22.9433 197.182 24.0289 196.871 25.1432 196.747C27.3271 196.503 29.4211 196.381 31.4252 196.233C35.4269 195.957 39.0304 195.777 42.0621 195.655C45.0939 195.533 47.5476 195.481 49.2434 195.456H51.1704H51.6778H51.8512C51.7936 195.462 51.7354 195.462 51.6778 195.456H51.1704L49.2434 195.533L42.075 195.841C39.0432 195.989 35.4397 196.194 31.4445 196.483C29.4532 196.637 27.34 196.772 25.1882 197.016C24.1026 197.131 23.0446 197.431 22.0601 197.903C21.5651 198.142 21.1287 198.487 20.7813 198.913C20.434 199.339 20.1842 199.836 20.0496 200.369C19.86 201.476 19.8927 202.609 20.1459 203.703C20.3343 204.816 20.5206 205.908 20.7047 206.979C21.0773 209.12 21.4306 211.186 21.7646 213.177C22.4069 217.128 23.0492 220.68 23.5438 223.679C24.0384 226.679 24.4367 229.062 24.7129 230.745C24.8413 231.561 24.9441 232.21 25.0148 232.672C25.0148 232.878 25.0661 233.045 25.0854 233.179C25.116 233.266 25.1291 233.358 25.124 233.449Z" fill="black"/>
<path d="M119.109 231.246C119.109 231.336 97.9126 231.413 71.7505 231.413C45.5885 231.413 24.3788 231.336 24.3788 231.246C24.3788 231.156 45.5757 231.079 71.7441 231.079C97.9126 231.079 119.109 231.156 119.109 231.246Z" fill="black"/>
<path d="M34.5598 196.066C34.4891 196.13 28.008 188.673 20.0817 179.417C12.1554 170.161 5.78347 162.607 5.85413 162.543C5.92478 162.478 12.4059 169.936 20.3322 179.198C28.2585 188.461 34.6561 196.008 34.5598 196.066Z" fill="black"/>
<defs>
<linearGradient id="paint0_linear_8_7729" x1="249.609" y1="219.292" x2="267.658" y2="256.742" gradientUnits="userSpaceOnUse">
<stop stop-color="#F0DB92"/>
<stop offset="1" stop-color="#BF9033"/>
</linearGradient>
<linearGradient id="paint1_linear_8_7729" x1="251.433" y1="205.683" x2="269.492" y2="243.14" gradientUnits="userSpaceOnUse">
<stop stop-color="#F0DB92"/>
<stop offset="1" stop-color="#BF9033"/>
</linearGradient>
<linearGradient id="paint2_linear_8_7729" x1="253.904" y1="192.456" x2="271.951" y2="229.91" gradientUnits="userSpaceOnUse">
<stop stop-color="#F0DB92"/>
<stop offset="1" stop-color="#BF9033"/>
</linearGradient>
<linearGradient id="paint3_linear_8_7729" x1="257.502" y1="173.247" x2="281.389" y2="211.599" gradientUnits="userSpaceOnUse">
<stop stop-color="#F0DB92"/>
<stop offset="1" stop-color="#BF9033"/>
</linearGradient>
<linearGradient id="paint4_linear_8_7729" x1="262.634" y1="150.983" x2="294.695" y2="173.049" gradientUnits="userSpaceOnUse">
<stop stop-color="#F0DB92"/>
<stop offset="1" stop-color="#BF9033"/>
</linearGradient>
<linearGradient id="paint5_linear_8_7729" x1="248.723" y1="152.042" x2="283.18" y2="175.629" gradientUnits="userSpaceOnUse">
<stop stop-color="#F0DB92"/>
<stop offset="1" stop-color="#BF9033"/>
</linearGradient>
<linearGradient id="paint6_linear_8_7729" x1="242.244" y1="163.034" x2="279.005" y2="194.43" gradientUnits="userSpaceOnUse">
<stop stop-color="#F0DB92"/>
<stop offset="1" stop-color="#BF9033"/>
</linearGradient>
<linearGradient id="paint7_linear_8_7729" x1="239.065" y1="176.922" x2="275.824" y2="208.302" gradientUnits="userSpaceOnUse">
<stop stop-color="#F0DB92"/>
<stop offset="1" stop-color="#BF9033"/>
</linearGradient>
<linearGradient id="paint8_linear_8_7729" x1="236.515" y1="193.964" x2="273.28" y2="225.344" gradientUnits="userSpaceOnUse">
<stop stop-color="#F0DB92"/>
<stop offset="1" stop-color="#BF9033"/>
</linearGradient>
<linearGradient id="paint9_linear_8_7729" x1="250.465" y1="149.427" x2="296.904" y2="164.915" gradientUnits="userSpaceOnUse">
<stop stop-color="#F0DB92"/>
<stop offset="1" stop-color="#BF9033"/>
</linearGradient>
<linearGradient id="paint10_linear_8_7729" x1="250.168" y1="238.423" x2="256.535" y2="239.271" gradientUnits="userSpaceOnUse">
<stop stop-color="#F0DB92"/>
<stop offset="1" stop-color="#BF9033"/>
</linearGradient>
<linearGradient id="paint11_linear_8_7729" x1="244.128" y1="228.576" x2="250.496" y2="229.425" gradientUnits="userSpaceOnUse">
<stop stop-color="#F0DB92"/>
<stop offset="1" stop-color="#BF9033"/>
</linearGradient>
<linearGradient id="paint12_linear_8_7729" x1="238.713" y1="218.562" x2="245.078" y2="219.41" gradientUnits="userSpaceOnUse">
<stop stop-color="#F0DB92"/>
<stop offset="1" stop-color="#BF9033"/>
</linearGradient>
<linearGradient id="paint13_linear_8_7729" x1="232.229" y1="207.438" x2="237.181" y2="207.94" gradientUnits="userSpaceOnUse">
<stop stop-color="#F0DB92"/>
<stop offset="1" stop-color="#BF9033"/>
</linearGradient>
<linearGradient id="paint14_linear_8_7729" x1="222.425" y1="199.752" x2="231.716" y2="201.678" gradientUnits="userSpaceOnUse">
<stop stop-color="#F0DB92"/>
<stop offset="1" stop-color="#BF9033"/>
</linearGradient>
<linearGradient id="paint15_linear_8_7729" x1="209.314" y1="214.486" x2="220.508" y2="228.715" gradientUnits="userSpaceOnUse">
<stop stop-color="#F0DB92"/>
<stop offset="1" stop-color="#BF9033"/>
</linearGradient>
<linearGradient id="paint16_linear_8_7729" x1="211.656" y1="224.895" x2="220.553" y2="239.174" gradientUnits="userSpaceOnUse">
<stop stop-color="#F0DB92"/>
<stop offset="1" stop-color="#BF9033"/>
</linearGradient>
<linearGradient id="paint17_linear_8_7729" x1="216.936" y1="235.739" x2="225.841" y2="250.023" gradientUnits="userSpaceOnUse">
<stop stop-color="#F0DB92"/>
<stop offset="1" stop-color="#BF9033"/>
</linearGradient>
<linearGradient id="paint18_linear_8_7729" x1="224.361" y1="248.245" x2="233.266" y2="262.528" gradientUnits="userSpaceOnUse">
<stop stop-color="#F0DB92"/>
<stop offset="1" stop-color="#BF9033"/>
</linearGradient>
<linearGradient id="paint19_linear_8_7729" x1="223.569" y1="179.828" x2="282.13" y2="235.84" gradientUnits="userSpaceOnUse">
<stop stop-color="#F0DB92"/>
<stop offset="1" stop-color="#BF9033"/>
</linearGradient>
</defs>
</svg>
