<svg width="165" height="125" viewBox="0 0 165 125" fill="none" xmlns="http://www.w3.org/2000/svg">
<path d="M14.2545 0.166992H149.677C151.169 0.166992 152.6 0.759812 153.655 1.81504C154.711 2.87027 155.303 4.30147 155.303 5.79378V116.139C155.303 118.282 154.452 120.338 152.937 121.853C151.421 123.368 149.366 124.22 147.223 124.22H17.2928C15.1497 124.22 13.0944 123.368 11.579 121.853C10.0636 120.338 9.21228 118.282 9.21228 116.139V5.20927C9.21228 3.87197 9.74352 2.58945 10.6891 1.64384C11.6347 0.698229 12.9173 0.166992 14.2545 0.166992Z" fill="white"/>
<path d="M13.1883 0.166992H150.537C151.747 0.166992 152.907 0.647474 153.762 1.50274C154.617 2.358 155.098 3.51799 155.098 4.72752V15.1011H9.21228V4.143C9.21228 3.0885 9.63118 2.07718 10.3768 1.33154C11.1225 0.585891 12.1338 0.166992 13.1883 0.166992Z" fill="#E0E0E0"/>
<path d="M155.098 15.1011C155.098 15.191 122.487 15.2681 82.2642 15.2681C42.0416 15.2681 9.41779 15.191 9.41779 15.1011C9.41779 15.0112 42.0224 14.9341 82.2642 14.9341C122.506 14.9341 155.098 15.0047 155.098 15.1011Z" fill="#263238"/>
<path d="M17.1835 7.95841C17.1835 8.23155 17.1025 8.49855 16.9508 8.72566C16.799 8.95276 16.5833 9.12977 16.331 9.23429C16.0787 9.33882 15.801 9.36617 15.5331 9.31288C15.2652 9.2596 15.0191 9.12807 14.826 8.93493C14.6329 8.74179 14.5013 8.49572 14.448 8.22783C14.3948 7.95994 14.4221 7.68227 14.5266 7.42993C14.6312 7.17758 14.8082 6.9619 15.0353 6.81015C15.2624 6.6584 15.5294 6.57741 15.8025 6.57741C15.9841 6.57656 16.1641 6.6117 16.332 6.6808C16.4999 6.7499 16.6525 6.85159 16.7809 6.98C16.9093 7.10841 17.011 7.26099 17.0801 7.42892C17.1492 7.59686 17.1844 7.77682 17.1835 7.95841Z" fill="#263238"/>
<path d="M21.5771 7.95841C21.5771 8.23182 21.4959 8.49908 21.3439 8.72632C21.1918 8.95356 20.9758 9.13056 20.7231 9.2349C20.4703 9.33923 20.1923 9.3662 19.9243 9.31239C19.6562 9.25858 19.4102 9.12642 19.2173 8.93264C19.0244 8.73886 18.8934 8.49218 18.8408 8.22387C18.7883 7.95556 18.8165 7.67769 18.922 7.42546C19.0276 7.17323 19.2056 6.95799 19.4335 6.80702C19.6615 6.65605 19.9291 6.57614 20.2025 6.57741C20.3835 6.57741 20.5628 6.61317 20.73 6.68265C20.8972 6.75213 21.049 6.85396 21.1767 6.98228C21.3045 7.11061 21.4056 7.2629 21.4743 7.43041C21.543 7.59793 21.5779 7.77736 21.5771 7.95841Z" fill="#263238"/>
<path d="M26.0605 7.95841C26.0605 8.23155 25.9795 8.49855 25.8278 8.72566C25.676 8.95276 25.4604 9.12977 25.208 9.23429C24.9557 9.33882 24.678 9.36617 24.4101 9.31288C24.1422 9.2596 23.8961 9.12807 23.703 8.93493C23.5099 8.74179 23.3783 8.49572 23.3251 8.22783C23.2718 7.95994 23.2991 7.68227 23.4036 7.42993C23.5082 7.17758 23.6852 6.9619 23.9123 6.81015C24.1394 6.6584 24.4064 6.57741 24.6795 6.57741C24.8611 6.57656 25.0411 6.6117 25.209 6.6808C25.377 6.7499 25.5295 6.85159 25.6579 6.98C25.7863 7.10841 25.888 7.26099 25.9571 7.42892C26.0262 7.59686 26.0614 7.77682 26.0605 7.95841Z" fill="#263238"/>
<path d="M106.474 26.2134C106.474 26.3033 95.9394 26.3804 82.9451 26.3804C69.9508 26.3804 59.4166 26.3033 59.4166 26.2134C59.4166 26.1235 69.9508 26.0464 82.9451 26.0464C95.9394 26.0464 106.474 26.1427 106.474 26.2134Z" fill="#263238"/>
<path d="M84.6665 36.1568C84.6665 36.2531 72.0576 36.3238 56.5133 36.3238C40.9689 36.3238 28.36 36.2531 28.36 36.1568C28.36 36.0604 40.9625 35.9897 56.5133 35.9897C72.064 35.9897 84.6665 36.0668 84.6665 36.1568Z" fill="#263238"/>
<path d="M84.6665 41.4815C84.6665 41.5778 72.0576 41.6485 56.5133 41.6485C40.9689 41.6485 28.36 41.5778 28.36 41.4815C28.36 41.3851 40.9625 41.3145 56.5133 41.3145C72.064 41.3145 84.6665 41.3915 84.6665 41.4815Z" fill="#263238"/>
<path d="M84.6665 46.8064C84.6665 46.9028 72.0576 46.9798 56.5133 46.9798C40.9689 46.9798 28.36 46.9028 28.36 46.8064C28.36 46.7101 40.9625 46.6394 56.5133 46.6394C72.064 46.6394 84.6665 46.7165 84.6665 46.8064Z" fill="#263238"/>
<path d="M84.6665 52.1378C84.6665 52.2277 72.0576 52.3048 56.5133 52.3048C40.9689 52.3048 28.36 52.2277 28.36 52.1378C28.36 52.0479 40.9625 51.9644 56.5133 51.9644C72.064 51.9644 84.6665 52.0414 84.6665 52.1378Z" fill="#263238"/>
<path d="M84.6665 57.4627C84.6665 57.5527 72.0576 57.6297 56.5133 57.6297C40.9689 57.6297 28.36 57.5527 28.36 57.4627C28.36 57.3728 40.9625 57.2893 56.5133 57.2893C72.064 57.2893 84.6665 57.3664 84.6665 57.4627Z" fill="#263238"/>
<path d="M84.6665 72.2554C84.6665 72.3517 72.0576 72.4224 56.5133 72.4224C40.9689 72.4224 28.36 72.3517 28.36 72.2554C28.36 72.159 40.9625 72.0884 56.5133 72.0884C72.064 72.0884 84.6665 72.1655 84.6665 72.2554Z" fill="#263238"/>
<path d="M84.6665 66.8921C84.6665 66.9884 72.0576 67.0591 56.5133 67.0591C40.9689 67.0591 28.36 66.9884 28.36 66.8921C28.36 66.7958 40.9625 66.7251 56.5133 66.7251C72.064 66.7251 84.6665 66.8022 84.6665 66.8921Z" fill="#263238"/>
<path d="M120.688 35.071C117.679 35.0698 114.738 35.9609 112.235 37.6318C109.733 39.3026 107.783 41.6781 106.631 44.4577C105.479 47.2372 105.177 50.2961 105.764 53.2472C106.35 56.1983 107.799 58.9091 109.927 61.0367C112.054 63.1643 114.765 64.6131 117.716 65.1997C120.667 65.7864 123.726 65.4847 126.506 64.3326C129.285 63.1806 131.661 61.2301 133.331 58.7278C135.002 56.2255 135.893 53.2838 135.892 50.275C135.891 46.2431 134.288 42.377 131.437 39.526C128.586 36.6751 124.72 35.0727 120.688 35.071ZM120.92 59.3896C119.071 59.3908 117.263 58.8438 115.725 57.8176C114.188 56.7915 112.989 55.3323 112.281 53.6247C111.572 51.917 111.386 50.0377 111.746 48.2244C112.106 46.411 112.996 44.7451 114.302 43.4375C115.609 42.1298 117.274 41.239 119.087 40.8779C120.901 40.5168 122.78 40.7015 124.488 41.4086C126.196 42.1158 127.656 43.3137 128.683 44.8508C129.711 46.3878 130.259 48.195 130.259 50.0437C130.26 51.2702 130.019 52.4848 129.551 53.6182C129.082 54.7517 128.395 55.7817 127.528 56.6496C126.661 57.5174 125.632 58.2061 124.5 58.6762C123.367 59.1463 122.152 59.3887 120.926 59.3896H120.92Z" fill="#E6A371"/>
<path d="M111.574 50.0439C111.574 48.2391 112.097 46.473 113.079 44.9591C114.062 43.4453 115.462 42.2486 117.111 41.5138L114.772 36.2595C112.023 37.4285 109.679 39.3809 108.032 41.8733C106.385 44.3656 105.508 47.2877 105.51 50.2751C105.51 50.4849 105.51 50.6991 105.51 50.9175H111.631C111.593 50.622 111.574 50.3394 111.574 50.0439Z" fill="#E0E0E0"/>
<path d="M133.272 69.3201C133.272 69.3972 127.638 69.4614 120.688 69.4614C113.738 69.4614 108.105 69.3972 108.105 69.3201C108.105 69.243 113.738 69.1724 120.688 69.1724C127.638 69.1724 133.272 69.2494 133.272 69.3201Z" fill="#263238"/>
<path d="M127.664 71.6324C127.664 71.7094 124.542 71.7737 120.688 71.7737C116.834 71.7737 113.706 71.7094 113.706 71.6324C113.706 71.5553 116.834 71.4846 120.688 71.4846C124.542 71.4846 127.664 71.5489 127.664 71.6324Z" fill="#263238"/>
<path d="M119.59 48.0525V48.6948L118.357 51.5789H117.278L118.459 48.8618H117.534V49.4014H116.687V48.0525H119.59Z" fill="#263238"/>
<path d="M122.577 50.4547C122.577 51.0971 122.108 51.6495 121.048 51.6495C120.574 51.6598 120.106 51.5422 119.693 51.309L120.046 50.5575C120.334 50.7483 120.671 50.851 121.016 50.853C121.356 50.853 121.581 50.7181 121.581 50.4804C121.581 50.2428 121.433 50.1272 120.9 50.1272H119.95L120.123 48.0781H122.352V48.8425H120.926L120.881 49.3564H121.112C122.172 49.3371 122.577 49.8317 122.577 50.4547Z" fill="#263238"/>
<path d="M122.75 49.0031C122.764 48.8286 122.828 48.662 122.935 48.5235C123.042 48.3851 123.187 48.281 123.353 48.2238C123.518 48.1666 123.697 48.159 123.866 48.2018C124.036 48.2446 124.19 48.3359 124.308 48.4647C124.427 48.5935 124.505 48.754 124.534 48.9266C124.562 49.0993 124.54 49.2765 124.469 49.4367C124.399 49.5968 124.283 49.7328 124.136 49.8281C123.989 49.9233 123.818 49.9737 123.643 49.973C123.518 49.9755 123.395 49.9515 123.28 49.9025C123.165 49.8536 123.062 49.7809 122.978 49.6892C122.894 49.5975 122.83 49.4889 122.79 49.3706C122.751 49.2523 122.737 49.1271 122.75 49.0031ZM125.718 48.0781H126.437L124.041 51.5788H123.322L125.718 48.0781ZM123.938 49.0031C123.938 48.6498 123.816 48.5085 123.643 48.5085C123.47 48.5085 123.347 48.6498 123.347 49.0031C123.347 49.3564 123.482 49.4977 123.643 49.4977C123.804 49.4977 123.938 49.3371 123.938 49.0031ZM125.223 50.6539C125.237 50.4794 125.301 50.3127 125.408 50.1743C125.515 50.0359 125.66 49.9317 125.826 49.8746C125.991 49.8174 126.17 49.8098 126.339 49.8526C126.509 49.8954 126.663 49.9867 126.781 50.1155C126.9 50.2442 126.978 50.4048 127.007 50.5774C127.035 50.7501 127.013 50.9273 126.942 51.0874C126.872 51.2475 126.756 51.3836 126.609 51.4788C126.462 51.5741 126.291 51.6245 126.116 51.6238C125.991 51.6263 125.868 51.6022 125.753 51.5533C125.638 51.5044 125.535 51.4317 125.451 51.34C125.367 51.2483 125.303 51.1397 125.263 51.0214C125.224 50.9031 125.21 50.7778 125.223 50.6539ZM126.411 50.6539C126.411 50.3006 126.283 50.1593 126.116 50.1593C125.949 50.1593 125.82 50.3006 125.82 50.6539C125.82 51.0071 125.949 51.1485 126.116 51.1485C126.283 51.1485 126.411 51.0136 126.411 50.6539Z" fill="#263238"/>
<path d="M38.7594 103.055H34.4172V113.056H38.7594V103.055Z" fill="#EBEBEB"/>
<path d="M53.4879 103.055H49.1458V113.056H53.4879V103.055Z" fill="#EBEBEB"/>
<path d="M46.1269 93.9468H41.7847V113.056H46.1269V93.9468Z" fill="#F5F5F5"/>
<path d="M60.8554 93.9468H56.5133V113.056H60.8554V93.9468Z" fill="#F5F5F5"/>
<path d="M68.2165 94.4929H63.8744V113.056H68.2165V94.4929Z" fill="#EBEBEB"/>
<path d="M82.9451 94.4929H78.603V113.056H82.9451V94.4929Z" fill="#EBEBEB"/>
<path d="M97.6737 94.4929H93.3315V113.056H97.6737V94.4929Z" fill="#EBEBEB"/>
<path d="M75.584 84.7551H71.2419V113.063H75.584V84.7551Z" fill="#F5F5F5"/>
<path d="M90.3126 87.5237H85.9705V113.056H90.3126V87.5237Z" fill="#F5F5F5"/>
<path d="M119.429 94.4929H115.087V113.056H119.429V94.4929Z" fill="#EBEBEB"/>
<path d="M112.068 98.0579H107.726V113.056H112.068V98.0579Z" fill="#F5F5F5"/>
<path d="M134.832 84.5881H130.49V113.056H134.832V84.5881Z" fill="#EBEBEB"/>
<path d="M127.471 98.0579H123.129V113.056H127.471V98.0579Z" fill="#F5F5F5"/>
<path d="M142.206 98.0579H137.864V113.056H142.206V98.0579Z" fill="#F5F5F5"/>
<path d="M105.041 91.4353H100.699V113.056H105.041V91.4353Z" fill="#EBEBEB"/>
<path d="M73.0532 85.8728C73.6705 85.8728 74.1709 85.3724 74.1709 84.7551C74.1709 84.1378 73.6705 83.6375 73.0532 83.6375C72.4359 83.6375 71.9355 84.1378 71.9355 84.7551C71.9355 85.3724 72.4359 85.8728 73.0532 85.8728Z" fill="#E6A371"/>
<path d="M73.0532 86.7785C72.6515 86.7785 72.2588 86.6593 71.9249 86.436C71.591 86.2127 71.3308 85.8953 71.1774 85.524C71.0239 85.1527 70.9841 84.7443 71.063 84.3504C71.1418 83.9565 71.3358 83.5948 71.6203 83.3112C71.9048 83.0276 72.2671 82.8348 72.6612 82.7572C73.0554 82.6796 73.4637 82.7207 73.8345 82.8753C74.2052 83.03 74.5218 83.2911 74.7441 83.6258C74.9663 83.9604 75.0843 84.3535 75.083 84.7552C75.0813 85.2924 74.8667 85.807 74.4862 86.1863C74.1058 86.5655 73.5905 86.7785 73.0532 86.7785ZM73.0532 82.886C72.6833 82.8847 72.3213 82.9933 72.013 83.1979C71.7048 83.4025 71.4642 83.694 71.3218 84.0354C71.1793 84.3768 71.1414 84.7529 71.2128 85.1159C71.2842 85.4789 71.4617 85.8125 71.7228 86.0746C71.984 86.3366 72.317 86.5153 72.6798 86.5879C73.0426 86.6606 73.4187 86.624 73.7606 86.4827C74.1026 86.3414 74.3949 86.1018 74.6005 85.7943C74.8062 85.4868 74.916 85.1251 74.916 84.7552C74.916 84.2605 74.72 83.7861 74.3708 83.4357C74.0217 83.0854 73.5479 82.8877 73.0532 82.886Z" fill="#E6A371"/>
<path d="M73.9461 81.9032L73.8882 79.7065L74.4342 79.7193L73.4129 78.4668L72.3852 79.7258L72.9504 79.7322L73.0083 81.9032H73.9461Z" fill="#EBEBEB"/>
<path d="M37.8215 98.4817C37.8215 98.7027 37.756 98.9188 37.6332 99.1026C37.5104 99.2864 37.3358 99.4296 37.1316 99.5142C36.9274 99.5988 36.7027 99.621 36.4859 99.5778C36.269 99.5347 36.0699 99.4283 35.9136 99.272C35.7573 99.1157 35.6508 98.9165 35.6077 98.6997C35.5646 98.4829 35.5867 98.2582 35.6713 98.054C35.7559 97.8497 35.8992 97.6752 36.083 97.5524C36.2668 97.4296 36.4828 97.364 36.7039 97.364C37.0003 97.364 37.2846 97.4818 37.4942 97.6914C37.7038 97.901 37.8215 98.1852 37.8215 98.4817Z" fill="#E6A371"/>
<path d="M36.7039 100.55C36.3022 100.55 35.9095 100.431 35.5755 100.207C35.2416 99.9842 34.9815 99.6668 34.828 99.2955C34.6746 98.9242 34.6348 98.5158 34.7136 98.1219C34.7924 97.728 34.9864 97.3663 35.2709 97.0827C35.5554 96.7991 35.9177 96.6063 36.3119 96.5287C36.706 96.4511 37.1143 96.4922 37.4851 96.6468C37.8559 96.8015 38.1724 97.0626 38.3947 97.3972C38.617 97.7319 38.7349 98.1249 38.7336 98.5267C38.7336 98.7929 38.6811 99.0565 38.579 99.3024C38.4769 99.5483 38.3273 99.7717 38.1388 99.9596C37.9502 100.148 37.7264 100.297 37.4802 100.398C37.2339 100.499 36.9701 100.551 36.7039 100.55ZM36.7039 96.6575C36.3342 96.6575 35.9728 96.7671 35.6654 96.9725C35.358 97.1779 35.1185 97.4698 34.977 97.8114C34.8355 98.1529 34.7985 98.5287 34.8706 98.8913C34.9427 99.2539 35.1208 99.587 35.3822 99.8484C35.6436 100.11 35.9766 100.288 36.3392 100.36C36.7018 100.432 37.0776 100.395 37.4192 100.254C37.7607 100.112 38.0527 99.8725 38.258 99.5651C38.4634 99.2577 38.5731 98.8964 38.5731 98.5267C38.5739 98.281 38.5261 98.0375 38.4325 97.8104C38.3389 97.5832 38.2012 97.3768 38.0275 97.2031C37.8537 97.0293 37.6473 96.8917 37.4202 96.798C37.193 96.7044 36.9496 96.6566 36.7039 96.6575Z" fill="#E6A371"/>
<path d="M36.0359 91.5574L36.0937 93.8441L35.522 93.8376L36.5883 95.1351L37.6546 93.8248L37.0636 93.8184L37.0058 91.5638L36.0359 91.5574Z" fill="#EBEBEB"/>
<path d="M95.1108 86.7786L95.1686 89.0653L94.5969 89.0588L95.6632 90.3563L96.7294 89.046L96.1385 89.0396L96.0807 86.785L95.1108 86.7786Z" fill="#EBEBEB"/>
<path d="M108.555 107.025L95.4833 94.7627C87.1973 90.761 74.4086 84.8708 72.9184 84.9479C71.2483 85.0507 39.5173 97.5504 27.4608 102.361L27.2231 101.764C29.0024 101.057 70.7601 84.4212 72.8798 84.312H72.9248C75.2436 84.312 93.6913 93.1954 95.8045 94.2103L95.8816 94.2681L108.657 106.248C111.085 104.963 124.979 97.6339 125.217 97.5311C125.3 97.4926 125.519 97.4027 144.628 97.4027V98.045C137.292 98.045 126.277 98.045 125.442 98.1349C124.716 98.501 114.291 103.999 108.741 106.922L108.555 107.025Z" fill="#E6A371"/>
<path d="M96.7808 94.2231C96.7808 94.4442 96.7153 94.6603 96.5925 94.8441C96.4697 95.0279 96.2951 95.1711 96.0909 95.2557C95.8867 95.3403 95.6619 95.3624 95.4451 95.3193C95.2283 95.2762 95.0292 95.1697 94.8729 95.0134C94.7166 94.8571 94.6101 94.658 94.567 94.4412C94.5239 94.2244 94.546 93.9996 94.6306 93.7954C94.7152 93.5912 94.8585 93.4166 95.0422 93.2938C95.226 93.171 95.4421 93.1055 95.6632 93.1055C95.81 93.1055 95.9553 93.1344 96.0909 93.1905C96.2265 93.2467 96.3497 93.329 96.4535 93.4328C96.5573 93.5366 96.6396 93.6598 96.6958 93.7954C96.7519 93.931 96.7808 94.0764 96.7808 94.2231Z" fill="#E6A371"/>
<path d="M95.6632 96.2915C95.2617 96.2915 94.8693 96.1724 94.5355 95.9494C94.2017 95.7263 93.9416 95.4093 93.7879 95.0384C93.6343 94.6676 93.5941 94.2594 93.6724 93.8657C93.7507 93.472 93.9441 93.1103 94.2279 92.8264C94.5118 92.5426 94.8735 92.3493 95.2672 92.2709C95.6609 92.1926 96.069 92.2328 96.4399 92.3864C96.8108 92.5401 97.1278 92.8002 97.3509 93.134C97.5739 93.4678 97.6929 93.8602 97.6929 94.2617C97.6912 94.7995 97.4769 95.3148 97.0966 95.6951C96.7163 96.0754 96.201 96.2898 95.6632 96.2915ZM95.6632 92.3989C95.2948 92.3989 94.9346 92.5082 94.6283 92.7129C94.322 92.9176 94.0832 93.2085 93.9422 93.5488C93.8012 93.8892 93.7643 94.2638 93.8362 94.6251C93.9081 94.9864 94.0855 95.3184 94.346 95.5789C94.6065 95.8394 94.9384 96.0168 95.2998 96.0886C95.6611 96.1605 96.0357 96.1236 96.376 95.9826C96.7164 95.8417 97.0073 95.6029 97.212 95.2966C97.4167 94.9903 97.5259 94.6301 97.5259 94.2617C97.5293 94.0149 97.4837 93.7699 97.3916 93.541C97.2995 93.312 97.1628 93.1036 96.9895 92.9279C96.8162 92.7522 96.6097 92.6127 96.382 92.5175C96.1543 92.4222 95.91 92.3732 95.6632 92.3732V92.3989Z" fill="#E6A371"/>
<path d="M126.463 97.5503C126.463 97.7713 126.397 97.9874 126.274 98.1712C126.152 98.355 125.977 98.4982 125.773 98.5828C125.569 98.6674 125.344 98.6896 125.127 98.6464C124.91 98.6033 124.711 98.4969 124.555 98.3406C124.399 98.1843 124.292 97.9851 124.249 97.7683C124.206 97.5515 124.228 97.3268 124.313 97.1226C124.397 96.9183 124.54 96.7438 124.724 96.621C124.908 96.4982 125.124 96.4326 125.345 96.4326C125.492 96.4326 125.637 96.4615 125.773 96.5177C125.908 96.5739 126.032 96.6562 126.135 96.76C126.239 96.8637 126.322 96.987 126.378 97.1226C126.434 97.2582 126.463 97.4035 126.463 97.5503Z" fill="#E6A371"/>
<path d="M125.345 99.6186C124.944 99.6186 124.551 99.4995 124.217 99.2765C123.884 99.0535 123.623 98.7365 123.47 98.3656C123.316 97.9947 123.276 97.5866 123.354 97.1928C123.433 96.7991 123.626 96.4374 123.91 96.1536C124.194 95.8697 124.555 95.6764 124.949 95.5981C125.343 95.5198 125.751 95.56 126.122 95.7136C126.493 95.8672 126.81 96.1274 127.033 96.4612C127.256 96.795 127.375 97.1874 127.375 97.5888C127.373 98.1266 127.159 98.6419 126.779 99.0222C126.398 99.4025 125.883 99.6169 125.345 99.6186ZM125.345 95.7261C124.975 95.7248 124.613 95.8335 124.304 96.0384C123.996 96.2433 123.755 96.5352 123.613 96.877C123.471 97.2188 123.433 97.5952 123.505 97.9583C123.577 98.3215 123.755 98.6552 124.017 98.917C124.279 99.1788 124.612 99.3569 124.976 99.4288C125.339 99.5007 125.715 99.4632 126.057 99.3209C126.399 99.1786 126.691 98.9381 126.896 98.6297C127.1 98.3213 127.209 97.9591 127.208 97.5888C127.208 97.0948 127.012 96.621 126.662 96.2717C126.313 95.9223 125.839 95.7261 125.345 95.7261Z" fill="#E6A371"/>
<path d="M124.741 90.915L124.806 93.2017L124.234 93.1889L125.3 94.4928L126.366 93.176H125.775L125.711 90.9215L124.741 90.915Z" fill="#EBEBEB"/>
<path d="M147.589 124.201H147.929H148.36L148.944 124.111C149.494 124.005 150.032 123.846 150.55 123.635C151.261 123.327 151.924 122.92 152.522 122.428C153.274 121.794 153.897 121.022 154.359 120.154C154.907 119.103 155.21 117.941 155.246 116.756C155.246 114.187 155.246 111.2 155.246 107.853C155.246 94.4543 155.213 75.0946 155.194 51.1293C155.194 39.1563 155.194 26.04 155.194 11.9473C155.194 10.1873 155.194 8.40807 155.194 6.6224C155.258 5.73854 155.184 4.8501 154.976 3.98886C154.719 3.14099 154.245 2.37489 153.601 1.7664C152.962 1.13848 152.165 0.694656 151.295 0.481745C150.401 0.326235 149.491 0.274507 148.585 0.327588H119.828H16.8174C15.6805 0.327588 14.5179 0.327588 13.4131 0.327588C12.3113 0.441501 11.2903 0.958117 10.5459 1.77838C9.80148 2.59865 9.38606 3.66483 9.37927 4.7725V21.64C9.37927 30.5384 9.37927 39.2998 9.37927 47.9241C9.37927 65.1513 9.37927 81.7748 9.37927 97.6081C9.37927 101.569 9.37927 105.479 9.37927 109.337V115.079C9.33315 116.017 9.37833 116.957 9.51417 117.886C9.7717 119.245 10.3954 120.508 11.318 121.538C12.2406 122.568 13.427 123.326 14.7491 123.732C15.6206 123.985 16.5273 124.095 17.4341 124.059H30.923H70.105L126.829 124.111L142.245 124.143H146.253C147.159 124.143 147.621 124.143 147.621 124.143H146.253H142.245H126.829L70.105 124.201H30.923H17.4341C16.4991 124.234 15.5647 124.119 14.6656 123.86C13.2922 123.441 12.0593 122.655 11.1004 121.586C10.1415 120.518 9.493 119.207 9.22512 117.797C9.08521 116.848 9.03788 115.889 9.08381 114.932C9.08381 113.005 9.08381 111.116 9.08381 109.189V97.6081C9.08381 81.7748 9.08381 65.1513 9.08381 47.9241V4.80461C9.09427 3.61588 9.54099 2.47239 10.3391 1.59138C11.1372 0.710359 12.2312 0.153185 13.4131 0.0256931C14.5886 -0.0321164 15.7062 0.0256931 16.856 0.0256931H119.866H149.972C150.444 0.021907 150.914 0.075835 151.372 0.186275C152.287 0.409615 153.127 0.870486 153.807 1.52232C154.482 2.16998 154.982 2.97905 155.258 3.87324C155.469 4.7625 155.545 5.67845 155.483 6.59028V11.9152C155.483 25.995 155.483 39.1113 155.483 51.0972C155.483 75.0432 155.438 94.4222 155.425 107.821C155.425 111.168 155.425 114.148 155.425 116.724C155.396 117.821 155.133 118.899 154.653 119.886C154.173 120.873 153.488 121.746 152.644 122.447C152.041 122.94 151.37 123.344 150.653 123.648C150.131 123.859 149.589 124.014 149.034 124.111L148.443 124.194H148.013L147.589 124.201Z" fill="#263238"/>
<path d="M162.705 64.8285C163.558 61.1989 161.306 57.5653 157.677 56.7127C154.047 55.86 150.414 58.1112 149.561 61.7408C148.708 65.3704 150.96 69.004 154.589 69.8566C158.219 70.7093 161.852 68.4581 162.705 64.8285Z" fill="#F5F5F5"/>
<path d="M149.394 63.2887C149.449 63.8377 149.539 64.3826 149.664 64.9202C149.897 65.8175 150.316 66.6561 150.893 67.382C151.47 68.1079 152.192 68.7051 153.014 69.1352C153.835 69.5653 154.738 69.8188 155.663 69.8794C156.588 69.94 157.516 69.8064 158.387 69.4871C159.614 69.0402 160.681 68.2374 161.45 67.1812C162.281 66.0533 162.729 64.6893 162.729 63.2887C162.729 61.888 162.281 60.524 161.45 59.3962C161.065 58.8571 160.594 58.3842 160.057 57.9959C159.552 57.6086 158.988 57.305 158.387 57.0966C157.35 56.7147 156.234 56.5987 155.141 56.7592C154.048 56.9196 153.013 57.3514 152.13 58.0151C150.925 58.9197 150.056 60.2018 149.664 61.6571C149.54 62.1949 149.45 62.7398 149.394 63.2887C149.35 62.7298 149.4 62.1674 149.542 61.625C149.891 60.115 150.754 58.7731 151.983 57.8289C152.895 57.1248 153.97 56.6621 155.108 56.4836C156.247 56.3051 157.412 56.4165 158.496 56.8076C159.125 57.0253 159.717 57.3395 160.249 57.7389C160.81 58.1487 161.304 58.6427 161.714 59.2035C162.589 60.3867 163.062 61.8198 163.062 63.2919C163.062 64.7639 162.589 66.197 161.714 67.3803C161.304 67.941 160.81 68.435 160.249 68.8448C159.715 69.2419 159.124 69.556 158.496 69.7762C157.335 70.194 156.084 70.2916 154.873 70.0588C153.588 69.8089 152.402 69.1945 151.457 68.2891C150.512 67.3836 149.847 66.2253 149.542 64.9523C149.4 64.4099 149.35 63.8476 149.394 63.2887Z" fill="#263238"/>
<path d="M155.117 65.2028C155.051 65.2011 154.988 65.1793 154.935 65.1402C154.882 65.1011 154.842 65.0467 154.821 64.9843C154.8 64.9219 154.798 64.8546 154.817 64.7914C154.836 64.7282 154.873 64.6723 154.924 64.6311L156.659 63.2758L154.905 61.9526C154.838 61.9005 154.794 61.824 154.783 61.7397C154.772 61.6555 154.795 61.5703 154.847 61.503C154.873 61.4692 154.904 61.4408 154.941 61.4193C154.977 61.3978 155.017 61.3837 155.059 61.3777C155.101 61.3718 155.143 61.3741 155.184 61.3846C155.225 61.395 155.263 61.4134 155.297 61.4387L157.378 63.0189C157.417 63.0481 157.449 63.0859 157.471 63.1293C157.493 63.1727 157.506 63.2206 157.507 63.2694C157.507 63.3186 157.496 63.3673 157.475 63.4118C157.454 63.4563 157.423 63.4954 157.384 63.5263L155.316 65.1386C155.259 65.1816 155.189 65.2042 155.117 65.2028Z" fill="#263238"/>
<path d="M14.6878 65.2391C15.5404 61.6095 13.2893 57.976 9.65968 57.1233C6.03008 56.2707 2.39651 58.5218 1.54386 62.1514C0.69121 65.781 2.94236 69.4146 6.57196 70.2672C10.2016 71.1199 13.8351 68.8687 14.6878 65.2391Z" fill="#F5F5F5"/>
<path d="M14.8712 63.6997C14.8112 63.151 14.7189 62.6062 14.595 62.0682C14.2057 60.6114 13.3367 59.3284 12.1284 58.4262C11.3081 57.8058 10.353 57.3877 9.34075 57.2058C8.17889 56.9932 6.98133 57.0952 5.87217 57.5013C5.27382 57.7162 4.71093 58.0193 4.20212 58.4005C3.66827 58.7932 3.19999 59.268 2.8147 59.8072C1.98416 60.9351 1.53615 62.2991 1.53615 63.6997C1.53615 65.1004 1.98416 66.4644 2.8147 67.5922C3.20011 68.1295 3.66842 68.6022 4.20212 68.9925C4.70789 69.3785 5.27155 69.682 5.87217 69.8918C6.98074 70.3 8.17832 70.4042 9.34075 70.1937C10.353 70.0118 11.3081 69.5936 12.1284 68.9732C13.3342 68.0687 14.2025 66.7866 14.595 65.3312C14.7178 64.7931 14.81 64.2483 14.8712 63.6997C14.9109 64.2586 14.861 64.8202 14.7235 65.3634C14.4203 66.6366 13.7559 67.7951 12.8102 68.6999C11.8644 69.6046 10.6775 70.217 9.39213 70.4634C8.17956 70.6989 6.92596 70.6035 5.76298 70.1872C4.47962 69.7195 3.36255 68.8839 2.55134 67.7849C1.6718 66.6033 1.19678 65.1695 1.19678 63.6965C1.19678 62.2235 1.6718 60.7897 2.55134 59.6081C2.95768 59.0444 3.45218 58.5499 4.01585 58.1436C4.54774 57.7465 5.13683 57.4325 5.76298 57.2122C6.9261 56.7973 8.17879 56.6997 9.39213 56.9296C10.4404 57.1275 11.4279 57.5674 12.2762 58.2143C13.5056 59.1593 14.3702 60.5005 14.7235 62.0104C14.8637 62.5618 14.9136 63.1323 14.8712 63.6997Z" fill="#263238"/>
<path d="M9.16088 65.6138C9.09116 65.6153 9.02307 65.5926 8.96818 65.5496L6.88062 63.9695C6.84159 63.9402 6.80974 63.9025 6.78748 63.8591C6.76522 63.8157 6.75314 63.7677 6.75215 63.719C6.75164 63.669 6.76303 63.6197 6.78537 63.575C6.80771 63.5303 6.84035 63.4916 6.88062 63.4621L8.94249 61.8498C8.97548 61.8209 9.01403 61.7991 9.05577 61.7857C9.0975 61.7723 9.14154 61.7675 9.18518 61.7718C9.22882 61.776 9.27113 61.7892 9.3095 61.8104C9.34786 61.8316 9.38148 61.8604 9.40827 61.8951C9.43507 61.9298 9.45447 61.9697 9.4653 62.0121C9.47612 62.0546 9.47813 62.0989 9.4712 62.1422C9.46427 62.1855 9.44855 62.2269 9.425 62.2639C9.40146 62.3009 9.3706 62.3326 9.33431 62.3572L7.60003 63.7126L9.35358 65.0358C9.40751 65.0762 9.44733 65.1326 9.46743 65.1969C9.48753 65.2613 9.48688 65.3303 9.46556 65.3942C9.44425 65.4582 9.40336 65.5138 9.34867 65.5532C9.29399 65.5926 9.22829 65.6138 9.16088 65.6138Z" fill="#263238"/>
</svg>
