<svg width="248" height="290" viewBox="0 0 248 290" fill="none" xmlns="http://www.w3.org/2000/svg">
<path d="M103.23 110.492V0.269434H228.591V110.492H103.23Z" stroke="black" stroke-width="0.2"/>
<path d="M228.691 110.592C228.691 109.547 228.64 66.6118 228.567 0.169524L228.691 0.293843H103.141L103.288 0.14692C103.288 40.2677 103.288 78.066 103.288 110.569L103.158 110.44L228.719 110.569L103.158 110.699H103V110.569C103 78.066 103 40.279 103 0.14692V0H103.158H228.708H228.832V0.124316C228.742 66.6118 228.691 109.547 228.691 110.592Z" fill="black"/>
<path d="M229.053 11.4994C229.053 11.5503 201.177 11.5955 166.798 11.5955C132.418 11.5955 104.531 11.5503 104.531 11.4994C104.531 11.4486 132.407 11.3977 166.798 11.3977C201.189 11.3977 229.053 11.4429 229.053 11.4994Z" fill="black"/>
<path d="M111.674 6.32902C111.678 6.58475 111.607 6.83603 111.468 7.05086C111.329 7.26568 111.129 7.43433 110.894 7.53532C110.66 7.63631 110.4 7.66507 110.148 7.61794C109.897 7.57081 109.665 7.44992 109.483 7.27067C109.3 7.09142 109.175 6.86192 109.124 6.6114C109.072 6.36088 109.096 6.10068 109.193 5.86394C109.29 5.6272 109.455 5.42463 109.668 5.28203C109.88 5.13944 110.13 5.06327 110.386 5.06323C110.723 5.06318 111.048 5.19581 111.289 5.43256C111.53 5.66932 111.668 5.99125 111.674 6.32902Z" fill="#E6A371"/>
<path d="M115.906 6.32902C115.911 6.58475 115.839 6.83603 115.7 7.05086C115.562 7.26568 115.362 7.43433 115.127 7.53532C114.892 7.63631 114.632 7.66507 114.381 7.61794C114.129 7.57081 113.898 7.44992 113.715 7.27067C113.533 7.09142 113.408 6.86192 113.356 6.6114C113.305 6.36088 113.329 6.10068 113.426 5.86394C113.523 5.6272 113.688 5.42463 113.9 5.28203C114.112 5.13944 114.362 5.06327 114.618 5.06323C114.956 5.06318 115.28 5.19581 115.521 5.43256C115.762 5.66932 115.901 5.99125 115.906 6.32902Z" fill="#E6A371"/>
<path d="M120.139 6.32902C120.143 6.58475 120.072 6.83603 119.933 7.05086C119.794 7.26568 119.594 7.43433 119.359 7.53532C119.124 7.63631 118.865 7.66507 118.613 7.61794C118.362 7.57081 118.13 7.44992 117.948 7.27067C117.765 7.09142 117.64 6.86192 117.589 6.6114C117.537 6.36088 117.561 6.10068 117.658 5.86394C117.755 5.6272 117.92 5.42463 118.132 5.28203C118.345 5.13944 118.595 5.06327 118.85 5.06323C119.188 5.06318 119.513 5.19581 119.754 5.43256C119.995 5.66932 120.133 5.99125 120.139 6.32902Z" fill="#E6A371"/>
<path d="M222.848 21.2415C222.919 21.2336 222.989 21.2204 223.057 21.202C223.156 21.169 223.247 21.1151 223.323 21.0439C223.399 20.9727 223.459 20.8859 223.498 20.7895C223.548 20.6443 223.565 20.49 223.549 20.3374C223.549 20.1622 223.549 19.9757 223.549 19.7723C223.549 19.3655 223.549 18.8908 223.549 18.3653C223.549 17.8397 223.549 17.2351 223.549 16.5966C223.549 16.4327 223.549 16.2632 223.549 16.1049C223.534 15.9414 223.459 15.7891 223.34 15.6766C223.22 15.5642 223.063 15.4995 222.899 15.4946H222.334H217.209H187.519C187.363 15.4926 187.211 15.5496 187.095 15.6544C186.979 15.7591 186.906 15.9039 186.892 16.0597V20.3148C186.872 20.4737 186.9 20.6348 186.971 20.7782C187.047 20.9093 187.167 21.0094 187.31 21.0607C187.383 21.0834 187.46 21.0948 187.536 21.0946H197.227H210.575L219.571 21.1285H222.017H222.656H222.871C222.799 21.1334 222.728 21.1334 222.656 21.1285H222.017H219.571L210.575 21.1624H197.227H189.344H187.536C187.438 21.1617 187.341 21.1464 187.248 21.1172C187.06 21.049 186.902 20.917 186.802 20.7443C186.712 20.5704 186.674 20.374 186.694 20.1792V16.0936C186.713 15.8873 186.807 15.6952 186.96 15.5551C187.113 15.415 187.312 15.337 187.519 15.3364H217.209H222.334H222.899C223.089 15.3414 223.27 15.4163 223.407 15.5467C223.545 15.6771 223.63 15.8538 223.645 16.0428C223.645 16.2236 223.645 16.3818 223.645 16.5457C223.645 17.1899 223.645 17.7776 223.645 18.3144C223.645 18.8512 223.645 19.3146 223.645 19.7215C223.645 19.9305 223.645 20.117 223.645 20.2865C223.658 20.4455 223.636 20.6054 223.583 20.7556C223.54 20.8548 223.476 20.9432 223.395 21.0146C223.314 21.0859 223.218 21.1384 223.114 21.1681C223.034 21.2165 222.942 21.2419 222.848 21.2415Z" fill="black"/>
<path d="M189.062 19.0827L189.158 18.8793C189.331 19.0185 189.547 19.0926 189.768 19.0884C190.09 19.0884 190.226 18.9641 190.226 18.8059C190.226 18.3538 189.096 18.6363 189.096 17.9526C189.096 17.6644 189.316 17.4214 189.802 17.4214C190.011 17.4201 190.217 17.4768 190.396 17.5853L190.311 17.8C190.16 17.7009 189.983 17.6479 189.802 17.6474C189.486 17.6474 189.35 17.7774 189.35 17.9413C189.35 18.3933 190.48 18.1108 190.48 18.7889C190.48 19.0714 190.254 19.3144 189.763 19.3144C189.51 19.3178 189.263 19.2362 189.062 19.0827Z" fill="#E0E0E0"/>
<path d="M192.096 18.676H190.966C190.98 18.7975 191.042 18.9086 191.137 18.9857C191.232 19.0627 191.353 19.0996 191.475 19.0885C191.55 19.0913 191.625 19.0776 191.694 19.0483C191.764 19.019 191.826 18.9749 191.876 18.919L192.017 19.0828C191.946 19.1599 191.858 19.2202 191.76 19.2593C191.662 19.2984 191.557 19.3153 191.452 19.3089C191.358 19.315 191.263 19.302 191.174 19.2706C191.085 19.2392 191.003 19.19 190.933 19.1262C190.864 19.0623 190.808 18.985 190.769 18.8989C190.73 18.8127 190.708 18.7196 190.706 18.6251C190.702 18.5313 190.718 18.4376 190.751 18.3499C190.785 18.2622 190.836 18.1823 190.902 18.1151C190.967 18.0479 191.046 17.9949 191.133 17.9591C191.22 17.9234 191.313 17.9058 191.407 17.9075C191.501 17.905 191.594 17.922 191.681 17.9575C191.768 17.9929 191.847 18.0461 191.912 18.1136C191.978 18.181 192.028 18.2613 192.061 18.3494C192.094 18.4375 192.108 18.5314 192.102 18.6251C192.102 18.6251 192.096 18.6534 192.096 18.676ZM190.966 18.4951H191.865C191.855 18.3833 191.802 18.2794 191.718 18.2049C191.634 18.1303 191.525 18.0906 191.413 18.0939C191.3 18.0878 191.189 18.1264 191.104 18.2016C191.019 18.2767 190.968 18.3822 190.961 18.4951H190.966Z" fill="#E0E0E0"/>
<path d="M193.526 18.45V19.2977H193.283V19.1112C193.229 19.1795 193.159 19.2333 193.079 19.2678C192.999 19.3023 192.912 19.3165 192.825 19.309C192.503 19.309 192.305 19.1394 192.305 18.8965C192.305 18.6535 192.452 18.4896 192.871 18.4896H193.272V18.4387C193.272 18.224 193.147 18.0997 192.893 18.0997C192.733 18.0973 192.577 18.1513 192.452 18.2523L192.345 18.0601C192.508 17.9392 192.707 17.8756 192.91 17.8793C193.306 17.8793 193.526 18.0601 193.526 18.45ZM193.272 18.8682V18.6704H192.876C192.628 18.6704 192.554 18.7665 192.554 18.8851C192.554 19.0038 192.673 19.1168 192.865 19.1168C192.95 19.1218 193.035 19.1006 193.107 19.0562C193.18 19.0118 193.237 18.9462 193.272 18.8682Z" fill="#E0E0E0"/>
<path d="M194.747 17.8792V18.1278H194.69C194.628 18.1239 194.566 18.1338 194.509 18.1567C194.451 18.1797 194.399 18.2152 194.357 18.2606C194.315 18.306 194.283 18.3603 194.265 18.4194C194.246 18.4786 194.241 18.5411 194.249 18.6025V19.3032H193.978V17.8905H194.221V18.1278C194.278 18.0427 194.357 17.9745 194.449 17.9307C194.542 17.887 194.645 17.8691 194.747 17.8792Z" fill="#E0E0E0"/>
<path d="M194.916 18.625C194.91 18.5246 194.926 18.424 194.962 18.33C194.998 18.2361 195.054 18.151 195.126 18.0803C195.197 18.0097 195.283 17.9552 195.378 17.9205C195.472 17.8858 195.573 17.8717 195.673 17.8791C195.786 17.8725 195.898 17.897 195.998 17.9498C196.097 18.0026 196.181 18.0817 196.238 18.1786L196.046 18.3029C196.006 18.2395 195.95 18.1876 195.883 18.1519C195.817 18.1163 195.743 18.0983 195.668 18.0995C195.546 18.1126 195.433 18.1703 195.351 18.2616C195.269 18.3528 195.223 18.4712 195.223 18.5939C195.223 18.7167 195.269 18.8351 195.351 18.9263C195.433 19.0176 195.546 19.0753 195.668 19.0884C195.743 19.0907 195.818 19.0732 195.884 19.0374C195.951 19.0017 196.007 18.9491 196.046 18.885L196.238 19.0093C196.181 19.1062 196.097 19.1853 195.998 19.2381C195.898 19.2909 195.786 19.3154 195.673 19.3088C195.578 19.3165 195.482 19.3047 195.392 19.274C195.301 19.2433 195.218 19.1945 195.147 19.1304C195.076 19.0664 195.019 18.9885 194.979 18.9016C194.94 18.8147 194.918 18.7206 194.916 18.625Z" fill="#E0E0E0"/>
<path d="M197.872 18.4895V19.2975H197.617V18.5177C197.617 18.2408 197.476 18.1052 197.239 18.1052C197.177 18.1005 197.115 18.1097 197.057 18.1319C196.999 18.1542 196.947 18.189 196.904 18.2339C196.861 18.2788 196.829 18.3326 196.81 18.3915C196.791 18.4503 196.784 18.5128 196.792 18.5742V19.2975H196.538V17.3311H196.804V18.0939C196.865 18.0226 196.941 17.9662 197.027 17.929C197.113 17.8917 197.207 17.8747 197.301 17.8792C197.379 17.8781 197.457 17.8935 197.53 17.9244C197.602 17.9552 197.667 18.0008 197.721 18.0582C197.775 18.1157 197.816 18.1837 197.842 18.258C197.868 18.3322 197.878 18.4111 197.872 18.4895Z" fill="#E0E0E0"/>
<path d="M198.222 19.1279C198.221 19.104 198.225 19.0801 198.234 19.0578C198.243 19.0355 198.256 19.0153 198.273 18.9983C198.29 18.9814 198.31 18.9681 198.333 18.9593C198.355 18.9505 198.379 18.9463 198.403 18.9471C198.451 18.9471 198.497 18.9662 198.531 19.0001C198.564 19.034 198.584 19.08 198.584 19.1279C198.584 19.1759 198.564 19.2219 198.531 19.2558C198.497 19.2897 198.451 19.3088 198.403 19.3088C198.379 19.3096 198.355 19.3054 198.333 19.2966C198.31 19.2878 198.29 19.2745 198.273 19.2576C198.256 19.2406 198.243 19.2204 198.234 19.1981C198.225 19.1758 198.221 19.1519 198.222 19.1279Z" fill="#E0E0E0"/>
<path d="M198.821 19.1278C198.821 19.0799 198.84 19.0339 198.874 19C198.908 18.9661 198.954 18.947 199.002 18.947C199.05 18.947 199.096 18.9661 199.13 19C199.163 19.0339 199.182 19.0799 199.182 19.1278C199.182 19.1758 199.163 19.2218 199.13 19.2557C199.096 19.2896 199.05 19.3087 199.002 19.3087C198.954 19.3087 198.908 19.2896 198.874 19.2557C198.84 19.2218 198.821 19.1758 198.821 19.1278Z" fill="#E0E0E0"/>
<path d="M199.42 19.1278C199.42 19.0799 199.439 19.0339 199.473 19C199.507 18.9661 199.553 18.947 199.601 18.947C199.649 18.947 199.695 18.9661 199.729 19C199.762 19.0339 199.781 19.0799 199.781 19.1278C199.781 19.1758 199.762 19.2218 199.729 19.2557C199.695 19.2896 199.649 19.3087 199.601 19.3087C199.553 19.3087 199.507 19.2896 199.473 19.2557C199.439 19.2218 199.42 19.1758 199.42 19.1278Z" fill="#E0E0E0"/>
<path d="M180.913 30.667V50.4449H204.986V30.667C204.986 30.2174 204.807 29.7862 204.489 29.4683C204.171 29.1504 203.74 28.9718 203.291 28.9718H182.626C182.402 28.9695 182.179 29.0117 181.972 29.0959C181.764 29.1801 181.575 29.3046 181.416 29.4623C181.257 29.6199 181.13 29.8075 181.044 30.0143C180.958 30.2211 180.913 30.443 180.913 30.667Z" fill="#E0E0E0"/>
<path d="M182.044 39.7138L182.207 32.4412H203.268V36.5889" fill="#F5F5F5"/>
<path d="M201.98 30.4749H183.575V32.4413H201.98V30.4749Z" fill="#F5F5F5"/>
<path d="M183.575 30.4917H183.931H184.976L188.864 30.4578L201.98 30.4182H202.076V30.4917C202.076 31.1189 202.076 31.7857 202.076 32.4582C201.878 32.6559 202.014 32.5147 201.968 32.5599H196.108H190.915L183.569 32.5203H183.53V32.4808C183.53 31.8479 183.53 31.3506 183.53 31.0059C183.53 30.8533 183.53 30.729 183.53 30.6386C183.527 30.5972 183.527 30.5557 183.53 30.5143C183.534 30.5594 183.534 30.6048 183.53 30.6499C183.53 30.746 183.53 30.8759 183.53 31.0341C183.53 31.3732 183.53 31.8592 183.53 32.4808L183.485 32.4412L190.831 32.4016H196.024H201.889C201.85 32.4412 201.997 32.2999 201.799 32.4977V30.4917L201.895 30.5934L188.853 30.5482H184.937H183.874H183.592L183.575 30.4917Z" fill="#E0E0E0"/>
<path d="M204.15 55.4232C204.15 55.4797 199.55 55.5249 193.876 55.5249C188.203 55.5249 183.603 55.4797 183.603 55.4232C183.603 55.3667 188.203 55.3271 193.876 55.3271C199.55 55.3271 204.15 55.3554 204.15 55.4232Z" fill="#E0E0E0"/>
<path d="M179.066 36.1425L180.913 50.4729H204.986V36.5889H194.057L191.933 34.7241H180.309C180.13 34.7242 179.954 34.7624 179.791 34.8361C179.629 34.9099 179.484 35.0175 179.366 35.1517C179.248 35.286 179.161 35.4438 179.109 35.6147C179.057 35.7855 179.042 35.9655 179.066 36.1425Z" fill="#EBEBEB"/>
<path d="M198.363 42.2003C198.363 42.2568 195.724 42.302 192.475 42.302C189.226 42.302 186.587 42.2568 186.587 42.2003C186.587 42.1438 189.226 42.1042 192.475 42.1042C195.724 42.1042 198.363 42.1495 198.363 42.2003Z" fill="#E0E0E0"/>
<path d="M198.363 43.6129C198.363 43.6695 195.724 43.709 192.475 43.709C189.226 43.709 186.587 43.6695 186.587 43.6129C186.587 43.5564 189.226 43.5112 192.475 43.5112C195.724 43.5112 198.363 43.5564 198.363 43.6129Z" fill="#E0E0E0"/>
<path d="M199.064 58.1017C199.064 58.1582 196.182 58.2034 192.622 58.2034C189.062 58.2034 186.18 58.1582 186.18 58.1017C186.18 58.0452 189.068 58.0056 192.622 58.0056C196.176 58.0056 199.064 58.0508 199.064 58.1017Z" fill="#E0E0E0"/>
<path d="M180.733 72.7317V92.5095H204.805V72.7317C204.805 72.2821 204.626 71.8509 204.309 71.5329C203.991 71.215 203.559 71.0364 203.11 71.0364H182.439C182.216 71.0349 181.994 71.0777 181.787 71.1622C181.58 71.2467 181.392 71.3714 181.233 71.5289C181.074 71.6865 180.949 71.8739 180.863 72.0803C180.777 72.2867 180.733 72.5081 180.733 72.7317Z" fill="#E0E0E0"/>
<path d="M181.863 81.7785L182.021 74.5059H203.087V78.6536" fill="#F5F5F5"/>
<path d="M201.799 72.5396H183.394V74.506H201.799V72.5396Z" fill="#F5F5F5"/>
<path d="M183.394 72.5451C183.394 72.5451 183.422 72.5451 183.479 72.5451H183.745H184.79L188.683 72.5169L201.799 72.4717H201.889V74.5342L201.788 74.6359H195.928H190.735L183.389 74.5964H183.343V74.5512C183.343 73.9183 183.343 73.421 183.372 73.0763C183.372 72.9237 183.372 72.8051 183.372 72.709C183.372 72.613 183.372 72.5847 183.372 72.5904C183.374 72.6336 183.374 72.677 183.372 72.7203C183.372 72.822 183.372 72.9464 183.372 73.1046C183.372 73.4436 183.372 73.9296 183.372 74.5512L183.332 74.5116L190.678 74.4721H195.871H201.737C201.691 74.5173 201.838 74.376 201.641 74.5681V72.6073L201.742 72.7034L188.695 72.6582H184.784H183.716H183.338L183.394 72.5451Z" fill="#E0E0E0"/>
<path d="M203.94 97.4879C203.94 97.5444 199.341 97.5896 193.667 97.5896C187.994 97.5896 183.394 97.5444 183.394 97.4879C183.394 97.4314 187.994 97.3918 193.667 97.3918C199.341 97.3918 203.94 97.4371 203.94 97.4879Z" fill="#E0E0E0"/>
<path d="M178.879 78.2015L180.733 92.532H204.805V78.6536H193.871L191.752 76.7888H180.122C179.944 76.789 179.768 76.8271 179.606 76.9005C179.444 76.9739 179.299 77.0809 179.182 77.2146C179.064 77.3482 178.976 77.5053 178.924 77.6755C178.872 77.8456 178.857 78.025 178.879 78.2015Z" fill="#EBEBEB"/>
<path d="M198.177 84.2706C198.177 84.3215 195.543 84.3667 192.294 84.3667C189.045 84.3667 186.406 84.3215 186.406 84.2706C186.406 84.2198 189.039 84.1746 192.283 84.1746C195.526 84.1746 198.177 84.2141 198.177 84.2706Z" fill="#E0E0E0"/>
<path d="M198.177 85.6776C198.177 85.7341 195.543 85.7737 192.294 85.7737C189.045 85.7737 186.406 85.7341 186.406 85.6776C186.406 85.6211 189.039 85.5815 192.294 85.5815C195.549 85.5815 198.177 85.6211 198.177 85.6776Z" fill="#E0E0E0"/>
<path d="M198.894 100.166C198.894 100.223 196.007 100.268 192.452 100.268C188.898 100.268 186.01 100.223 186.01 100.166C186.01 100.11 188.892 100.07 192.452 100.07C196.012 100.07 198.894 100.116 198.894 100.166Z" fill="#E0E0E0"/>
<path d="M26.9764 72.9862H14.3921C14.1841 72.9854 13.9783 72.9435 13.7865 72.8629C13.5948 72.7823 13.4209 72.6645 13.2749 72.5164C13.1289 72.3683 13.0136 72.1927 12.9357 71.9999C12.8578 71.807 12.8189 71.6006 12.8211 71.3926V53.9994C12.8211 53.5823 12.9865 53.1821 13.2809 52.8866C13.5754 52.5911 13.9749 52.4243 14.3921 52.4229H22.371L28.5474 58.7913V71.3926C28.5496 71.6006 28.5107 71.807 28.4328 71.9999C28.3549 72.1927 28.2396 72.3683 28.0936 72.5164C27.9476 72.6645 27.7737 72.7823 27.582 72.8629C27.3902 72.9435 27.1844 72.9854 26.9764 72.9862Z" fill="#EBEBEB"/>
<path d="M22.371 52.4229V57.3278C22.371 57.52 22.4089 57.7103 22.4824 57.8878C22.556 58.0654 22.6638 58.2267 22.7997 58.3627C22.9356 58.4986 23.0969 58.6064 23.2745 58.6799C23.4521 58.7535 23.6424 58.7913 23.8346 58.7913H28.5474L22.371 52.4229Z" fill="#F5F5F5"/>
<path d="M22.4388 57.7571C22.4412 58.1275 22.5704 58.4859 22.8048 58.7727C23.0392 59.0596 23.3647 59.2575 23.7272 59.3337C23.7767 59.3503 23.8279 59.3617 23.8798 59.3676C24.4957 59.4806 28.5474 60.1982 28.5474 60.1078V58.7912H23.8346C23.8346 58.7912 22.6592 58.7516 22.4388 57.7571Z" fill="#E0E0E0"/>
<path d="M26.9764 72.9861C26.9764 72.9861 27.0669 72.9861 27.2477 72.9522C27.5091 72.9023 27.7539 72.7876 27.9597 72.6188C28.1275 72.4803 28.2645 72.3081 28.3618 72.1135C28.4591 71.9189 28.5146 71.706 28.5248 71.4886C28.5248 70.9801 28.5248 70.3924 28.5248 69.7312C28.5248 67.0979 28.5248 63.3232 28.5248 58.7686L22.3315 52.4623H22.371H14.7481C14.5468 52.448 14.3447 52.448 14.1434 52.4623C13.9489 52.5033 13.7644 52.5823 13.6005 52.6948C13.4367 52.8073 13.2966 52.951 13.1885 53.1178C13.0178 53.3367 12.9121 53.599 12.8833 53.875C12.8833 54.1519 12.8833 54.4401 12.8833 54.7283V56.4236C12.8833 57.5537 12.8833 58.6556 12.8833 59.7462V66.0412C12.8833 67.0414 12.8833 68.0134 12.8833 68.9627V71.0479C12.8632 71.2678 12.8632 71.4891 12.8833 71.709C12.9453 72.0212 13.1034 72.3062 13.3355 72.524C13.5675 72.7419 13.8619 72.8817 14.1774 72.9239C14.3824 72.9381 14.5882 72.9381 14.7933 72.9239C14.5844 72.9351 14.375 72.9351 14.1661 72.9239C13.9472 72.8959 13.7371 72.8207 13.5501 72.7036C13.3564 72.5882 13.1889 72.4336 13.0585 72.2497C12.9281 72.0657 12.8376 71.8565 12.7929 71.6356C12.7702 71.4101 12.7702 71.1829 12.7929 70.9575V66.0412C12.7929 64.0409 12.7929 61.9388 12.7929 59.7632V54.7453C12.7929 54.4571 12.7929 54.1802 12.7929 53.8807C12.8125 53.5811 12.9163 53.2932 13.0924 53.05C13.3457 52.7021 13.7249 52.4669 14.1491 52.3945C14.3558 52.375 14.564 52.375 14.7707 52.3945H22.3936L28.5813 58.7573C28.5813 63.3119 28.5813 67.0866 28.5813 69.7199C28.5813 70.3811 28.5813 70.9631 28.5813 71.4773C28.5691 71.6943 28.5127 71.9065 28.4155 72.1008C28.3184 72.2952 28.1825 72.4676 28.0162 72.6075C27.8039 72.775 27.5535 72.8876 27.2872 72.9352H27.0838L26.9764 72.9861Z" fill="#E0E0E0"/>
<path d="M28.5474 58.7913H28.4287H28.0783H26.8012H24.9082H23.7781C23.57 58.7843 23.3656 58.7351 23.1772 58.6467C22.9887 58.5583 22.8202 58.4326 22.6818 58.2771C22.5427 58.1115 22.4388 57.9192 22.3767 57.712C22.3185 57.518 22.2955 57.3151 22.3089 57.113V55.9829C22.3089 55.2765 22.3089 54.6323 22.3089 54.0898C22.3089 53.5474 22.3089 53.1292 22.3089 52.8128C22.3089 52.6715 22.3089 52.5585 22.3089 52.4681C22.3089 52.3777 22.3089 52.3438 22.3089 52.3438C22.3169 52.3848 22.3169 52.427 22.3089 52.4681C22.3089 52.5585 22.3089 52.6715 22.3089 52.8128C22.3089 53.1292 22.3089 53.5643 22.3089 54.0898C22.3089 54.6154 22.3089 55.2765 22.3089 55.9829C22.3089 56.3389 22.3089 56.7118 22.3089 57.113C22.2923 57.3063 22.3147 57.501 22.3749 57.6855C22.4351 57.8699 22.5318 58.0404 22.6592 58.1867C22.7872 58.3316 22.9435 58.449 23.1183 58.5315C23.2932 58.6141 23.4831 58.6602 23.6763 58.667H24.8065H26.6995H27.9766H28.327C28.5078 58.78 28.5474 58.7857 28.5474 58.7913Z" fill="#E0E0E0"/>
<path d="M22.1337 56.7965C22.1337 56.8304 20.6475 56.853 18.8167 56.853C16.9858 56.853 15.4996 56.853 15.4996 56.7965C15.4996 56.74 16.9801 56.74 18.8167 56.74C20.6532 56.74 22.1337 56.7682 22.1337 56.7965Z" fill="#E0E0E0"/>
<path d="M25.2812 59.2433C25.2812 59.2433 23.0943 59.2998 20.3932 59.2998C17.6922 59.2998 15.4996 59.2998 15.4996 59.2433C15.4996 59.1868 17.6865 59.1868 20.3932 59.1868C23.1 59.1868 25.2812 59.2094 25.2812 59.2433Z" fill="#E0E0E0"/>
<path d="M25.2812 61.6846C25.2812 61.7185 23.0943 61.7411 20.3932 61.7411C17.6922 61.7411 15.4996 61.7411 15.4996 61.6846C15.4996 61.628 17.6865 61.6337 20.3932 61.6337C23.1 61.6337 25.2812 61.6563 25.2812 61.6846Z" fill="#E0E0E0"/>
<path d="M25.2812 64.1312C25.2812 64.1312 23.0943 64.1877 20.3932 64.1877C17.6922 64.1877 15.4996 64.1877 15.4996 64.1312C15.4996 64.0747 17.6865 64.0747 20.3932 64.0747C23.1 64.0747 25.2812 64.103 25.2812 64.1312Z" fill="#E0E0E0"/>
<path d="M25.2812 66.5782C25.2812 66.5782 23.0943 66.6291 20.3932 66.6291C17.6922 66.6291 15.4996 66.6291 15.4996 66.5782C15.4996 66.5274 17.6865 66.5217 20.3932 66.5217C23.1 66.5217 25.2812 66.5443 25.2812 66.5782Z" fill="#E0E0E0"/>
<path d="M25.2812 69.59C25.2812 69.6239 23.0943 69.6465 20.3932 69.6465C17.6922 69.6465 15.4996 69.6465 15.4996 69.59C15.4996 69.5334 17.6865 69.5334 20.3932 69.5334C23.1 69.5334 25.2812 69.5617 25.2812 69.59Z" fill="#E0E0E0"/>
<path d="M28.4739 78.2019C28.4739 78.2866 24.9817 78.3488 20.6814 78.3488C16.3812 78.3488 12.8833 78.2866 12.8833 78.2019C12.8833 78.1171 16.3755 78.0549 20.6814 78.0549C24.9873 78.0549 28.4739 78.1227 28.4739 78.2019Z" fill="black"/>
<path d="M25.6937 80.2417C24.0274 80.3906 22.3536 80.4397 20.6814 80.3886C19.0073 80.4398 17.3317 80.3907 15.6635 80.2417C17.3319 80.0961 19.0073 80.0471 20.6814 80.0948C22.3536 80.0472 24.0272 80.0962 25.6937 80.2417Z" fill="black"/>
<path d="M26.9764 117.498H14.3921C13.9749 117.496 13.5754 117.329 13.2809 117.034C12.9865 116.738 12.8211 116.338 12.8211 115.921V98.5165C12.8211 98.0994 12.9865 97.6992 13.2809 97.4037C13.5754 97.1082 13.9749 96.9414 14.3921 96.9399H22.371L28.5474 103.308V115.921C28.5474 116.338 28.382 116.738 28.0876 117.034C27.7931 117.329 27.3936 117.496 26.9764 117.498Z" fill="#EBEBEB"/>
<path d="M22.371 96.9341V101.839C22.371 102.227 22.5252 102.599 22.7997 102.874C23.0742 103.148 23.4464 103.303 23.8346 103.303H28.5474L22.371 96.9341Z" fill="#F5F5F5"/>
<path d="M22.4388 102.269C22.4412 102.639 22.5704 102.997 22.8048 103.284C23.0392 103.571 23.3647 103.769 23.7272 103.845L23.8798 103.879C24.4957 103.992 28.5474 104.71 28.5474 104.619V103.303H23.8346C23.8346 103.303 22.6592 103.263 22.4388 102.269Z" fill="#E0E0E0"/>
<path d="M26.9764 117.498C26.9764 117.498 27.0669 117.498 27.2477 117.464C27.5091 117.414 27.7539 117.299 27.9597 117.13C28.1275 116.992 28.2645 116.82 28.3618 116.625C28.4591 116.43 28.5146 116.217 28.5248 116C28.5248 115.492 28.5248 114.904 28.5248 114.243C28.5248 111.609 28.5248 107.835 28.5248 103.28V103.308L22.3315 96.9738H22.371H14.7481C14.5468 96.9595 14.3447 96.9595 14.1434 96.9738C13.9489 97.0148 13.7644 97.0938 13.6005 97.2063C13.4366 97.3188 13.2966 97.4625 13.1885 97.6293C13.0249 97.856 12.9289 98.1245 12.9116 98.4035C12.9116 98.6804 12.9116 98.9685 12.9116 99.2567V100.952C12.9116 102.082 12.9116 103.184 12.9116 104.275V110.553C12.9116 111.553 12.9116 112.525 12.9116 113.474V115.559C12.8915 115.779 12.8915 116.001 12.9116 116.22C12.9736 116.533 13.1317 116.818 13.3637 117.035C13.5958 117.253 13.8901 117.393 14.2056 117.435C14.4107 117.45 14.6165 117.45 14.8215 117.435C14.6126 117.447 14.4032 117.447 14.1943 117.435C13.9755 117.407 13.7653 117.332 13.5784 117.215C13.3846 117.1 13.2172 116.945 13.0868 116.761C12.9564 116.577 12.8659 116.368 12.8211 116.147C12.7985 115.922 12.7985 115.694 12.8211 115.469V110.553C12.8211 108.552 12.8211 106.45 12.8211 104.275V99.2567C12.8211 98.9685 12.8211 98.6917 12.8211 98.3922C12.8407 98.0926 12.9446 97.8046 13.1206 97.5615C13.3739 97.2136 13.7531 96.9783 14.1773 96.906C14.3841 96.8865 14.5922 96.8865 14.7989 96.906H22.3936L28.5643 103.274C28.5643 107.829 28.5643 111.604 28.5643 114.237C28.5643 114.898 28.5643 115.48 28.5643 115.994C28.5522 116.211 28.4958 116.424 28.3986 116.618C28.3014 116.812 28.1655 116.985 27.9992 117.125C27.7869 117.292 27.5365 117.405 27.2703 117.452H27.0669L26.9764 117.498Z" fill="#E0E0E0"/>
<path d="M28.5474 103.303H28.4287H28.0783H26.8012H24.9082H23.7781C23.57 103.296 23.3656 103.247 23.1772 103.158C22.9887 103.07 22.8202 102.944 22.6818 102.789C22.5427 102.623 22.4388 102.431 22.3767 102.223C22.3185 102.029 22.2955 101.827 22.3089 101.625V100.494C22.3089 99.788 22.3089 99.1438 22.3089 98.6013C22.3089 98.0588 22.3089 97.6407 22.3089 97.3242C22.3089 97.183 22.3089 97.07 22.3089 96.9795C22.3089 96.8891 22.3089 96.8552 22.3089 96.8552C22.3169 96.8963 22.3169 96.9385 22.3089 96.9795C22.3089 97.07 22.3089 97.183 22.3089 97.3242C22.3089 97.6407 22.3089 98.0758 22.3089 98.6013C22.3089 99.1268 22.3089 99.788 22.3089 100.494C22.3089 100.85 22.3089 101.223 22.3089 101.625C22.2923 101.818 22.3147 102.012 22.3749 102.197C22.4351 102.381 22.5318 102.552 22.6592 102.698C22.7872 102.843 22.9435 102.96 23.1183 103.043C23.2932 103.126 23.4831 103.172 23.6763 103.178H24.8065H26.6995H27.9766H28.327C28.5078 103.292 28.5474 103.297 28.5474 103.303Z" fill="#E0E0E0"/>
<path d="M22.1337 101.308C22.1337 101.342 20.6475 101.364 18.8167 101.364C16.9858 101.364 15.4996 101.364 15.4996 101.308C15.4996 101.251 16.9801 101.251 18.8167 101.251C20.6532 101.251 22.1337 101.28 22.1337 101.308Z" fill="#E0E0E0"/>
<path d="M25.2812 103.755C25.2812 103.755 23.0943 103.811 20.3932 103.811C17.6922 103.811 15.4996 103.783 15.4996 103.755C15.4996 103.726 17.6865 103.698 20.3932 103.698C23.1 103.698 25.2812 103.721 25.2812 103.755Z" fill="#E0E0E0"/>
<path d="M25.2812 106.196C25.2812 106.23 23.0943 106.253 20.3932 106.253C17.6922 106.253 15.4996 106.253 15.4996 106.196C15.4996 106.14 17.6865 106.145 20.3932 106.145C23.1 106.145 25.2812 106.168 25.2812 106.196Z" fill="#E0E0E0"/>
<path d="M25.2812 108.643C25.2812 108.671 23.0943 108.699 20.3932 108.699C17.6922 108.699 15.4996 108.671 15.4996 108.643C15.4996 108.614 17.6865 108.586 20.3932 108.586C23.1 108.586 25.2812 108.614 25.2812 108.643Z" fill="#E0E0E0"/>
<path d="M25.2812 111.089C25.2812 111.118 23.0943 111.14 20.3932 111.14C17.6922 111.14 15.4996 111.14 15.4996 111.089C15.4996 111.039 17.6865 111.033 20.3932 111.033C23.1 111.033 25.2812 111.056 25.2812 111.089Z" fill="#E0E0E0"/>
<path d="M25.2812 114.101C25.2812 114.135 23.0943 114.158 20.3932 114.158C17.6922 114.158 15.4996 114.158 15.4996 114.101C15.4996 114.045 17.6865 114.045 20.3932 114.045C23.1 114.045 25.2812 114.073 25.2812 114.101Z" fill="#E0E0E0"/>
<path d="M28.4739 122.713C28.4739 122.798 24.9817 122.86 20.6814 122.86C16.3812 122.86 12.8833 122.798 12.8833 122.713C12.8833 122.629 16.3755 122.566 20.6814 122.566C24.9873 122.566 28.4739 122.634 28.4739 122.713Z" fill="black"/>
<path d="M25.6937 124.753C24.0274 124.902 22.3536 124.951 20.6814 124.9C19.0073 124.951 17.3317 124.902 15.6635 124.753C17.3319 124.608 19.0073 124.559 20.6814 124.606C22.3536 124.559 24.0272 124.608 25.6937 124.753Z" fill="black"/>
<path d="M26.1119 172.101H13.5275C13.1103 172.1 12.7108 171.933 12.4163 171.638C12.1219 171.342 11.9566 170.942 11.9566 170.525V153.115C11.9566 152.698 12.1219 152.297 12.4163 152.002C12.7108 151.706 13.1103 151.54 13.5275 151.538H21.5064L27.6828 157.907V170.525C27.6828 170.942 27.5175 171.342 27.223 171.638C26.9286 171.933 26.529 172.1 26.1119 172.101Z" fill="#EBEBEB"/>
<path d="M21.5064 151.538V156.437C21.5064 156.826 21.6606 157.198 21.9351 157.472C22.2096 157.747 22.5818 157.901 22.97 157.901H27.6828L21.5064 151.538Z" fill="#F5F5F5"/>
<path d="M21.5742 156.867C21.5764 157.238 21.7054 157.597 21.9397 157.885C22.174 158.173 22.4997 158.372 22.8626 158.449C22.9146 158.464 22.9675 158.475 23.0209 158.483C23.6311 158.596 27.6828 159.314 27.6828 159.223V157.906H22.97C22.97 157.906 21.7946 157.85 21.5742 156.867Z" fill="#E0E0E0"/>
<path d="M26.1119 172.101C26.1119 172.101 26.2023 172.101 26.3831 172.067C26.6446 172.018 26.8893 171.903 27.0951 171.734C27.2629 171.596 27.3999 171.423 27.4972 171.229C27.5945 171.034 27.6501 170.821 27.6602 170.604C27.6602 170.095 27.6602 169.502 27.6602 168.847C27.6602 166.213 27.6602 162.439 27.6602 157.884L21.4669 151.578H21.5064H13.8835C13.6823 151.561 13.48 151.561 13.2789 151.578C13.0824 151.61 12.8944 151.682 12.7257 151.787C12.5569 151.893 12.4108 152.031 12.2956 152.194C12.1321 152.42 12.0361 152.689 12.0187 152.968C12.0187 153.245 12.0187 153.533 12.0187 153.821V155.516C12.0187 156.646 12.0187 157.748 12.0187 158.839V165.117C12.0187 166.117 12.0187 167.089 12.0187 168.038V170.124C12.0112 170.365 12.0244 170.607 12.0583 170.847C12.1203 171.159 12.2784 171.444 12.5104 171.662C12.7425 171.88 13.0369 172.02 13.3523 172.062C13.5575 172.073 13.7631 172.073 13.9683 172.062H16.3472H23.5125H25.4564H23.4842H16.319H13.94C13.7312 172.076 13.5216 172.076 13.3128 172.062C12.988 172.021 12.6831 171.884 12.438 171.667C12.193 171.45 12.0192 171.164 11.9396 170.847C11.9172 170.621 11.9172 170.394 11.9396 170.169C11.9396 169.943 11.9396 169.711 11.9396 169.485V165.162C11.9396 163.162 11.9396 161.06 11.9396 158.884V153.866C11.9396 153.578 11.9396 153.301 11.9396 153.002C11.9654 152.637 12.1133 152.293 12.3594 152.023C12.6055 151.753 12.9355 151.574 13.2958 151.515C13.5019 151.489 13.7098 151.48 13.9174 151.487H21.529L27.7167 157.85C27.7167 162.405 27.7167 166.179 27.7167 168.813C27.7167 169.474 27.7167 170.056 27.7167 170.57C27.7045 170.787 27.6481 170.999 27.551 171.194C27.4538 171.388 27.3179 171.56 27.1516 171.7C26.9412 171.87 26.6897 171.981 26.4227 172.022C26.355 172.028 26.2869 172.028 26.2192 172.022L26.1119 172.101Z" fill="#E0E0E0"/>
<path d="M27.6828 157.907H27.5641H27.2138H25.9367H24.0437H22.9135C22.7062 157.9 22.5024 157.851 22.3148 157.763C22.1272 157.674 21.9598 157.548 21.8229 157.392C21.6812 157.228 21.5754 157.035 21.5121 156.827C21.4539 156.633 21.4309 156.43 21.4443 156.228V155.098C21.4443 154.386 21.4443 153.748 21.4443 153.205C21.4443 152.663 21.4443 152.244 21.4443 151.928C21.4443 151.787 21.4443 151.674 21.4443 151.583C21.4443 151.493 21.4443 151.459 21.4443 151.459C21.4524 151.5 21.4524 151.542 21.4443 151.583V151.928C21.4443 152.244 21.4443 152.68 21.4443 153.205C21.4443 153.731 21.4443 154.386 21.4443 155.098C21.4443 155.454 21.4443 155.827 21.4443 156.228C21.4284 156.422 21.4511 156.616 21.5113 156.8C21.5714 156.985 21.6678 157.155 21.7946 157.302C21.9221 157.447 22.0783 157.564 22.2534 157.646C22.4285 157.728 22.6186 157.772 22.8118 157.777H23.942H25.835H27.1121H27.4624C27.6432 157.895 27.6828 157.901 27.6828 157.907Z" fill="#E0E0E0"/>
<path d="M21.2691 155.912C21.2691 155.94 19.7829 155.968 17.9521 155.968C16.1212 155.968 14.6351 155.968 14.6351 155.912C14.6351 155.855 16.1212 155.855 17.9521 155.855C19.7829 155.855 21.2691 155.883 21.2691 155.912Z" fill="#E0E0E0"/>
<path d="M24.4166 158.359C24.4166 158.387 22.2298 158.409 19.5287 158.409C16.8276 158.409 14.6351 158.409 14.6351 158.359C14.6351 158.308 16.8219 158.302 19.5287 158.302C22.2354 158.302 24.4166 158.325 24.4166 158.359Z" fill="#E0E0E0"/>
<path d="M24.4166 160.8C24.4166 160.834 22.2298 160.856 19.5287 160.856C16.8276 160.856 14.6351 160.856 14.6351 160.8C14.6351 160.743 16.8219 160.743 19.5287 160.743C22.2354 160.743 24.4166 160.771 24.4166 160.8Z" fill="#E0E0E0"/>
<path d="M24.4166 163.246C24.4166 163.275 22.2298 163.303 19.5287 163.303C16.8276 163.303 14.6351 163.303 14.6351 163.246C14.6351 163.19 16.8219 163.19 19.5287 163.19C22.2354 163.19 24.4166 163.213 24.4166 163.246Z" fill="#E0E0E0"/>
<path d="M24.4166 165.688C24.4166 165.722 22.2298 165.744 19.5287 165.744C16.8276 165.744 14.6351 165.744 14.6351 165.688C14.6351 165.631 16.8219 165.637 19.5287 165.637C22.2354 165.637 24.4166 165.659 24.4166 165.688Z" fill="#E0E0E0"/>
<path d="M24.4166 168.705C24.4166 168.733 22.2298 168.762 19.5287 168.762C16.8276 168.762 14.6351 168.733 14.6351 168.705C14.6351 168.677 16.8219 168.649 19.5287 168.649C22.2354 168.649 24.4166 168.677 24.4166 168.705Z" fill="#E0E0E0"/>
<path d="M27.6093 177.317C27.6093 177.396 24.1171 177.464 19.8168 177.464C15.5166 177.464 12.0244 177.396 12.0244 177.317C12.0244 177.238 15.5109 177.17 19.8168 177.17C24.1228 177.17 27.6093 177.238 27.6093 177.317Z" fill="black"/>
<path d="M24.8348 179.357C23.1664 179.502 21.4909 179.551 19.8169 179.504C18.1428 179.552 16.4673 179.503 14.7989 179.357C16.4673 179.211 18.1428 179.162 19.8169 179.21C21.4909 179.162 23.1664 179.212 24.8348 179.357Z" fill="black"/>
<path d="M13.1769 11.4605L13.742 22.7169C13.7428 22.8954 13.8107 23.067 13.9321 23.1978C14.0535 23.3286 14.2196 23.4091 14.3975 23.4232H31.7568C31.9386 23.4033 32.1058 23.3141 32.2236 23.1741C32.3415 23.0342 32.4009 22.8543 32.3897 22.6717V13.9073C32.4037 13.7192 32.3425 13.5333 32.2197 13.3903C32.0968 13.2473 31.9222 13.1589 31.7342 13.1444L21.088 13.2518C20.9995 13.2505 20.9123 13.2302 20.8323 13.1921C20.7523 13.1541 20.6815 13.0993 20.6247 13.0314L18.7712 10.8954C18.7149 10.8287 18.6449 10.775 18.5659 10.7379C18.4868 10.7008 18.4007 10.6813 18.3135 10.6807H13.7928C13.6094 10.7061 13.4428 10.8014 13.3281 10.9467C13.2133 11.092 13.1591 11.2761 13.1769 11.4605Z" fill="#EBEBEB"/>
<path d="M32.4066 11.8167H13.4368V25.0452H32.4066V11.8167Z" fill="#F5F5F5"/>
<path d="M11.928 13.0031L13.3747 26.8137C13.3811 26.9236 13.4269 27.0275 13.5037 27.1064C13.5805 27.1853 13.6831 27.2339 13.7928 27.2432H32.2823C32.3962 27.2346 32.5027 27.1832 32.5802 27.0994C32.6578 27.0155 32.7008 26.9054 32.7004 26.7911L33.6328 12.9918C33.6407 12.9297 33.636 12.8667 33.6192 12.8064C33.6023 12.7462 33.5735 12.6899 33.5345 12.6409C33.4956 12.5919 33.4472 12.5513 33.3923 12.5213C33.3373 12.4913 33.2769 12.4726 33.2147 12.4663H12.3462C12.2828 12.4725 12.2214 12.4915 12.1656 12.5222C12.1099 12.5529 12.0609 12.5947 12.0218 12.6449C11.9827 12.6951 11.9542 12.7528 11.9381 12.8144C11.922 12.876 11.9185 12.9402 11.928 13.0031Z" fill="#EBEBEB"/>
<path d="M30.5701 34.2333C30.5701 34.3181 27.0836 34.3803 22.7776 34.3803C18.4717 34.3803 14.9852 34.3181 14.9852 34.2333C14.9852 34.1486 18.4717 34.0864 22.7776 34.0864C27.0836 34.0864 30.5701 34.1599 30.5701 34.2333Z" fill="black"/>
<path d="M27.7955 36.2734C26.1292 36.4221 24.4554 36.4712 22.7832 36.4203C21.1092 36.4712 19.4335 36.4222 17.7653 36.2734C19.4337 36.1279 21.1092 36.0789 22.7832 36.1264C24.4554 36.0789 26.129 36.128 27.7955 36.2734Z" fill="black"/>
<path d="M62.545 11.4887L63.1383 22.7451C63.1364 22.925 63.2031 23.0987 63.3249 23.231C63.4467 23.3633 63.6144 23.4442 63.7938 23.4572H81.1926C81.3792 23.4427 81.5523 23.3549 81.6742 23.2129C81.796 23.071 81.8565 22.8865 81.8425 22.6999V13.9299C81.8494 13.8371 81.8379 13.7438 81.8087 13.6555C81.7795 13.5671 81.7331 13.4854 81.6721 13.415C81.6112 13.3447 81.537 13.287 81.4538 13.2454C81.3705 13.2038 81.2798 13.1791 81.187 13.1727L70.5126 13.2518C70.4241 13.2505 70.3368 13.2302 70.2569 13.1921C70.1769 13.1541 70.1061 13.0993 70.0492 13.0314L68.1958 10.901C68.1398 10.8336 68.0699 10.779 67.9909 10.741C67.912 10.7029 67.8257 10.6824 67.7381 10.6807H63.2174C63.1192 10.6869 63.0233 10.7131 62.9355 10.7576C62.8478 10.8022 62.7701 10.8642 62.7071 10.9399C62.6442 11.0155 62.5973 11.1032 62.5694 11.1976C62.5416 11.2919 62.5332 11.391 62.545 11.4887Z" fill="#EBEBEB"/>
<path d="M81.8199 11.8391H62.8501V25.0677H81.8199V11.8391Z" fill="#F5F5F5"/>
<path d="M61.3413 13.0315L62.7936 26.8252C62.7962 26.9354 62.84 27.0406 62.9164 27.1201C62.9927 27.1996 63.0961 27.2476 63.2061 27.2546H81.6956C81.809 27.2474 81.9154 27.1972 81.9931 27.1143C82.0708 27.0313 82.114 26.9219 82.1137 26.8082L83.0461 13.0089C83.054 12.9468 83.0493 12.8838 83.0324 12.8235C83.0156 12.7633 82.9868 12.707 82.9478 12.658C82.9089 12.609 82.8605 12.5684 82.8055 12.5384C82.7506 12.5084 82.6902 12.4897 82.628 12.4834H61.7595C61.695 12.4894 61.6325 12.5088 61.5758 12.5402C61.5192 12.5716 61.4697 12.6144 61.4304 12.6659C61.3911 12.7174 61.3629 12.7765 61.3476 12.8394C61.3323 12.9023 61.3301 12.9677 61.3413 13.0315Z" fill="#EBEBEB"/>
<path d="M79.9834 34.2617C79.9834 34.3408 76.4968 34.4086 72.1909 34.4086C67.885 34.4086 64.3984 34.3408 64.3984 34.2617C64.3984 34.1826 67.885 34.1147 72.1909 34.1147C76.4968 34.1147 79.9834 34.1769 79.9834 34.2617Z" fill="black"/>
<path d="M77.2371 36.3015C75.5687 36.4471 73.8932 36.4961 72.2192 36.4484C70.5451 36.496 68.8697 36.4469 67.2012 36.3015C68.8695 36.1527 70.5451 36.1036 72.2192 36.1546C73.8932 36.1035 75.5689 36.1525 77.2371 36.3015Z" fill="black"/>
<path d="M51.4696 157.86L52.0686 169.116C52.0652 169.296 52.1307 169.469 52.2516 169.602C52.3725 169.734 52.5396 169.815 52.7184 169.828H70.0777C70.2647 169.814 70.4384 169.726 70.5611 169.584C70.6838 169.443 70.7457 169.258 70.7332 169.071V160.301C70.7401 160.208 70.7286 160.115 70.6994 160.027C70.6702 159.938 70.6238 159.856 70.5629 159.786C70.5019 159.716 70.4277 159.658 70.3445 159.617C70.2612 159.575 70.1706 159.55 70.0777 159.544L59.3977 159.623C59.3091 159.622 59.2219 159.601 59.142 159.563C59.062 159.525 58.9912 159.47 58.9343 159.402L57.0808 157.272C57.0249 157.205 56.955 157.15 56.876 157.112C56.797 157.074 56.7108 157.053 56.6231 157.052H52.1025C52.0077 157.063 51.9161 157.093 51.833 157.139C51.7498 157.186 51.6767 157.249 51.6179 157.324C51.559 157.399 51.5156 157.485 51.4902 157.577C51.4647 157.669 51.4577 157.765 51.4696 157.86Z" fill="#EBEBEB"/>
<path d="M70.7275 158.21H51.7578V171.439H70.7275V158.21Z" fill="#F5F5F5"/>
<path d="M50.249 159.397L51.7012 173.196C51.7038 173.306 51.7476 173.411 51.824 173.491C51.9004 173.57 52.0037 173.618 52.1137 173.626H70.6032C70.7171 173.617 70.8236 173.566 70.9012 173.482C70.9787 173.398 71.0217 173.288 71.0214 173.173L71.9312 159.38C71.9398 159.317 71.9358 159.254 71.9193 159.193C71.9028 159.132 71.8741 159.075 71.8351 159.025C71.7961 158.976 71.7474 158.934 71.6921 158.904C71.6367 158.874 71.5758 158.855 71.513 158.849H50.6671C50.6026 158.855 50.5401 158.874 50.4835 158.905C50.4268 158.937 50.3773 158.98 50.338 159.031C50.2987 159.083 50.2705 159.142 50.2552 159.205C50.2399 159.268 50.2378 159.333 50.249 159.397Z" fill="#EBEBEB"/>
<path d="M68.8911 180.633C68.8911 180.712 65.4045 180.779 61.0986 180.779C56.7927 180.779 53.3061 180.712 53.3061 180.633C53.3061 180.553 56.7983 180.486 61.0986 180.486C65.3989 180.486 68.8911 180.548 68.8911 180.633Z" fill="black"/>
<path d="M66.1165 182.673C64.4481 182.818 62.7726 182.867 61.0985 182.82C59.4245 182.867 57.749 182.818 56.0806 182.673C57.7488 182.524 59.4245 182.475 61.0985 182.526C62.7726 182.475 64.4482 182.524 66.1165 182.673Z" fill="black"/>
<path d="M247.958 289.277C247.958 289.362 192.444 289.424 123.985 289.424C55.5249 289.424 0 289.362 0 289.277C0 289.193 55.5023 289.13 123.985 289.13C192.467 289.13 247.958 289.198 247.958 289.277Z" fill="#263238"/>
<path d="M151.554 141.172H107.625L99.2332 153.604L91.0452 141.172H47.8956C47.2396 141.172 46.59 141.043 45.9839 140.792C45.3779 140.541 44.8272 140.173 44.3634 139.709C43.8995 139.246 43.5315 138.695 43.2805 138.089C43.0295 137.483 42.9003 136.833 42.9003 136.177V50.6182C42.8995 49.9617 43.0282 49.3115 43.2789 48.7048C43.5296 48.0981 43.8974 47.5467 44.3614 47.0823C44.8253 46.6178 45.3762 46.2494 45.9826 45.998C46.5891 45.7466 47.2391 45.6172 47.8956 45.6172H151.554C152.211 45.6172 152.861 45.7466 153.467 45.998C154.073 46.2494 154.624 46.6178 155.088 47.0823C155.552 47.5467 155.92 48.0981 156.171 48.7048C156.422 49.3115 156.55 49.9617 156.549 50.6182V136.2C156.543 137.521 156.015 138.785 155.078 139.717C154.142 140.649 152.875 141.172 151.554 141.172Z" fill="#F6F7FB"/>
<path d="M151.554 141.173H151.825C152.097 141.155 152.368 141.115 152.633 141.054C153.54 140.849 154.37 140.395 155.03 139.741C155.691 139.088 156.154 138.262 156.369 137.358C156.421 137.144 156.46 136.927 156.487 136.708C156.487 136.482 156.516 136.251 156.487 136.013C156.487 135.539 156.487 135.041 156.487 134.527C156.487 132.463 156.487 130.091 156.487 127.413C156.487 116.676 156.459 101.204 156.442 82.0651C156.442 72.487 156.442 62.0047 156.442 50.7483C156.466 49.6942 156.149 48.6604 155.538 47.8011C154.927 46.9417 154.055 46.3026 153.052 45.979C152.369 45.7716 151.655 45.6912 150.944 45.7417H123.594H83.8743H48.0594C47.8277 45.7417 47.613 45.7417 47.3926 45.7417C47.1737 45.7675 46.9567 45.8072 46.7428 45.8603C45.8787 46.0682 45.0891 46.5114 44.4617 47.1409C43.8343 47.7703 43.3935 48.5613 43.1884 49.426C43.0441 50.2255 42.9967 51.0394 43.0472 51.8502V88.0154C43.0472 100.532 43.0472 112.659 43.0472 124.282V135.019C43.0143 135.713 43.0446 136.409 43.1376 137.098C43.2685 137.764 43.5373 138.395 43.9265 138.951C44.3158 139.506 44.817 139.975 45.3979 140.325C45.9752 140.674 46.6207 140.896 47.2909 140.975C47.9521 141.043 48.6584 141.003 49.3365 141.014H61.4349H91.0452H91.1073L91.1412 141.065L99.318 153.497H99.1484L107.551 141.065L107.579 141.026H107.625L140.038 141.173L107.653 141.212L107.726 141.173C105.127 145.045 102.334 149.199 99.3462 153.633L99.2615 153.763L99.1767 153.633L90.983 141.201L91.0734 141.252H61.4632H49.3535C48.6641 141.252 47.9916 141.28 47.2796 141.212C46.2165 141.091 45.2177 140.64 44.4226 139.924C43.6274 139.208 43.0755 138.262 42.8437 137.217C42.7427 136.512 42.7087 135.798 42.742 135.087V124.35C42.742 112.726 42.742 100.617 42.742 88.0832V50.6635C42.7288 49.5036 43.1094 48.3734 43.8218 47.4578C44.5342 46.5422 45.536 45.8954 46.6637 45.623C46.8907 45.5674 47.1209 45.5259 47.3531 45.4987C47.5848 45.4987 47.8221 45.4987 48.0481 45.4987H150.949C151.688 45.4508 152.429 45.537 153.136 45.753C153.839 45.9904 154.483 46.3758 155.024 46.8831C155.563 47.3779 155.989 47.9831 156.273 48.6575C156.548 49.3295 156.685 50.0503 156.674 50.7766C156.674 62.033 156.674 72.5152 156.674 82.0934C156.674 101.233 156.64 116.727 156.629 127.441C156.629 130.12 156.629 132.491 156.629 134.556C156.629 135.07 156.629 135.567 156.629 136.042C156.629 136.279 156.629 136.516 156.6 136.742C156.576 136.965 156.536 137.186 156.482 137.404C156.26 138.317 155.786 139.15 155.113 139.806C154.441 140.463 153.597 140.917 152.679 141.116C152.413 141.172 152.142 141.204 151.871 141.212L151.554 141.173Z" fill="black"/>
<path d="M98.8292 123.452C115.955 123.452 129.837 109.569 129.837 92.4435C129.837 75.3182 115.955 61.4353 98.8292 61.4353C81.7038 61.4353 67.821 75.3182 67.821 92.4435C67.821 109.569 81.7038 123.452 98.8292 123.452Z" fill="#E6A371"/>
<path d="M93.5517 87.1494H93.0368V84.1417C93.0008 83.2925 93.1306 82.4446 93.4181 81.6489C93.7057 80.8533 94.1452 80.1265 94.71 79.5124C95.2748 78.8983 95.9533 78.4095 96.7046 78.0756C97.4559 77.7417 98.2643 77.5696 99.0813 77.5696C99.8982 77.5696 100.707 77.7417 101.458 78.0756C102.209 78.4095 102.888 78.8983 103.453 79.5124C104.017 80.1265 104.457 80.8533 104.744 81.6489C105.032 82.4446 105.162 83.2925 105.126 84.1417V86.5771H104.611V84.1417C104.645 83.3639 104.528 82.5869 104.265 81.8577C104.003 81.1284 103.601 80.4621 103.084 79.899C102.568 79.3359 101.946 78.8877 101.258 78.5815C100.57 78.2753 99.8296 78.1174 99.0813 78.1174C98.3329 78.1174 97.5924 78.2753 96.9043 78.5815C96.2163 78.8877 95.595 79.3359 95.0782 79.899C94.5613 80.4621 94.1596 81.1284 93.8972 81.8577C93.6348 82.5869 93.5173 83.3639 93.5517 84.1417V87.1494Z" fill="white"/>
<path d="M106.589 107.317H91.0698C90.731 107.319 90.3952 107.253 90.0819 107.124C89.7686 106.995 89.4839 106.806 89.2443 106.566C89.0048 106.327 88.815 106.042 88.6861 105.729C88.5572 105.415 88.4916 105.08 88.4932 104.741V89.2219C88.4932 88.5385 88.7646 87.8831 89.2478 87.3999C89.731 86.9167 90.3864 86.6453 91.0698 86.6453H106.589C107.271 86.6484 107.925 86.9208 108.407 87.4034C108.89 87.8859 109.162 88.5395 109.165 89.2219V104.741C109.165 105.424 108.894 106.08 108.411 106.563C107.927 107.046 107.272 107.317 106.589 107.317ZM91.0698 87.1653C90.5243 87.1653 90.0012 87.382 89.6156 87.7677C89.2299 88.1534 89.0132 88.6765 89.0132 89.2219V104.741C89.0132 105.011 89.0664 105.278 89.1698 105.528C89.2731 105.777 89.4246 106.004 89.6156 106.195C89.8065 106.386 90.0332 106.537 90.2828 106.641C90.5323 106.744 90.7997 106.797 91.0698 106.797H106.589C106.859 106.797 107.126 106.744 107.376 106.641C107.625 106.537 107.852 106.386 108.043 106.195C108.234 106.004 108.385 105.777 108.489 105.528C108.592 105.278 108.645 105.011 108.645 104.741V89.2219C108.645 88.6765 108.429 88.1534 108.043 87.7677C107.657 87.382 107.134 87.1653 106.589 87.1653H91.0698Z" fill="white"/>
<path d="M99.0934 97.2333C98.5938 97.2355 98.1047 97.104 97.6883 96.8555C97.2719 96.607 96.9469 96.2528 96.7545 95.8378C96.5622 95.4227 96.5113 94.9656 96.6082 94.5245C96.705 94.0833 96.9454 93.6781 97.2987 93.3601C97.652 93.0421 98.1023 92.8258 98.5925 92.7386C99.0826 92.6514 99.5905 92.6973 100.052 92.8704C100.513 93.0434 100.906 93.3359 101.182 93.7107C101.459 94.0855 101.605 94.5257 101.602 94.9754C101.599 95.5733 101.334 96.146 100.864 96.5688C100.394 96.9916 99.7578 97.2304 99.0934 97.2333ZM99.0934 93.1997C98.7032 93.1997 98.3218 93.3039 97.9973 93.499C97.6729 93.6941 97.42 93.9714 97.2707 94.2959C97.1213 94.6203 97.0823 94.9774 97.1584 95.3218C97.2345 95.6662 97.4224 95.9826 97.6984 96.231C97.9743 96.4793 98.3258 96.6484 98.7085 96.7169C99.0913 96.7854 99.488 96.7503 99.8485 96.6159C100.209 96.4815 100.517 96.2539 100.734 95.9619C100.951 95.6699 101.066 95.3266 101.066 94.9754C101.068 94.7418 101.018 94.5102 100.92 94.2942C100.821 94.0781 100.676 93.8817 100.492 93.7166C100.309 93.5514 100.09 93.4206 99.8504 93.3319C99.6103 93.2432 99.353 93.1983 99.0934 93.1997Z" fill="white"/>
<path d="M99.0813 97.2334H98.5771V101.267H99.0813V97.2334Z" fill="white"/>
<path d="M151.017 55.0979C151.566 52.6046 149.989 50.1388 147.496 49.5901C145.003 49.0415 142.537 50.6179 141.989 53.1111C141.44 55.6043 143.016 58.0702 145.51 58.6189C148.003 59.1675 150.469 57.5911 151.017 55.0979Z" fill="#E0E0E0"/>
<path d="M145.016 55.7492C144.997 55.749 144.978 55.7448 144.961 55.7371C144.943 55.7293 144.927 55.7181 144.914 55.704C144.901 55.6913 144.89 55.676 144.883 55.659C144.875 55.642 144.872 55.6237 144.872 55.6051C144.872 55.5866 144.875 55.5683 144.883 55.5513C144.89 55.5343 144.901 55.5189 144.914 55.5062L147.909 52.5113C147.922 52.4978 147.937 52.487 147.954 52.4797C147.971 52.4723 147.99 52.4685 148.008 52.4685C148.027 52.4685 148.045 52.4723 148.062 52.4797C148.079 52.487 148.094 52.4978 148.107 52.5113C148.121 52.5245 148.132 52.5403 148.139 52.5578C148.146 52.5752 148.15 52.594 148.15 52.613C148.15 52.632 148.146 52.6508 148.139 52.6683C148.132 52.6858 148.121 52.7016 148.107 52.7147L145.112 55.704C145.087 55.731 145.053 55.7472 145.016 55.7492Z" fill="white"/>
<path d="M148.005 55.7492C147.969 55.7472 147.934 55.731 147.909 55.704L144.914 52.7147C144.901 52.7016 144.89 52.6858 144.882 52.6683C144.875 52.6508 144.871 52.632 144.871 52.613C144.871 52.594 144.875 52.5752 144.882 52.5578C144.89 52.5403 144.901 52.5245 144.914 52.5113C144.927 52.4978 144.942 52.487 144.959 52.4797C144.976 52.4723 144.995 52.4685 145.013 52.4685C145.032 52.4685 145.05 52.4723 145.067 52.4797C145.084 52.487 145.1 52.4978 145.112 52.5113L148.107 55.5062C148.121 55.5189 148.131 55.5343 148.139 55.5513C148.146 55.5683 148.15 55.5866 148.15 55.6051C148.15 55.6237 148.146 55.642 148.139 55.659C148.131 55.676 148.121 55.6913 148.107 55.704C148.094 55.7181 148.078 55.7293 148.061 55.7371C148.043 55.7448 148.025 55.749 148.005 55.7492Z" fill="white"/>
<path d="M30.2093 260.944C30.2093 260.944 15.2798 243.76 9.64595 226.576C4.01209 209.392 6.68492 211.364 6.68492 211.364C6.68492 211.364 14.2909 228.056 20.0661 236.12C25.8412 244.184 36.1257 256.011 36.1257 256.011L30.2093 260.944Z" fill="url(#paint0_linear_8_8257)"/>
<path d="M33.1816 214.037C33.0809 213.86 32.9213 213.724 32.7306 213.652C32.5399 213.581 32.3302 213.578 32.138 213.645C31.9457 213.713 31.7831 213.845 31.6785 214.02C31.5739 214.195 31.5339 214.401 31.5655 214.602C32.4752 220.642 34.4417 234.803 34.3909 243.986C34.2948 255.92 34.3909 260.532 34.3909 260.532H40.6068C40.6068 260.532 39.4766 235.86 38.0978 228.322C37.0919 223.061 35.0012 217.207 33.1816 214.037Z" fill="url(#paint1_linear_8_8257)"/>
<path d="M36.5721 258.52C39.1766 252.62 40.8997 246.369 41.6861 239.968C42.1946 235.578 41.2848 229.639 39.9287 221.716C39.402 218.819 39.1391 215.88 39.1432 212.935C39.1463 212.607 39.258 212.29 39.461 212.032C39.6639 211.775 39.9465 211.592 40.2646 211.512C40.5826 211.433 40.918 211.461 41.2182 211.593C41.5184 211.725 41.7664 211.952 41.9234 212.24C42.6749 213.579 44.8449 218.151 45.3986 221.016C46.9018 228.836 48.6027 232.747 47.303 240.172C46.0033 247.597 41.1831 259.023 41.1831 259.023L36.5721 258.52Z" fill="url(#paint2_linear_8_8257)"/>
<path d="M42.1664 259.023C42.1664 259.023 58.5537 223.796 59.6839 218.569C60.8141 213.342 64.6849 201.3 65.1369 201.984C65.589 202.667 66.2671 209.024 63.323 216.297C60.379 223.57 47.755 260.096 47.755 260.096H42.1664" fill="url(#paint3_linear_8_8257)"/>
<path d="M34.7751 257.446C34.6128 257.356 34.4596 257.25 34.3174 257.13C34.0236 256.91 33.5828 256.599 33.046 256.164C31.9554 255.305 30.424 253.999 28.6383 252.276C24.0329 247.731 20.0434 242.601 16.7716 237.019C13.5029 231.433 10.7835 225.544 8.65139 219.433C7.82637 217.094 7.22739 215.178 6.83748 213.85C6.63405 213.184 6.49843 212.664 6.40237 212.313C6.34255 212.129 6.29906 211.94 6.2724 211.748C6.35314 211.916 6.41931 212.09 6.47018 212.268C6.5945 212.647 6.75837 213.155 6.96745 213.788C7.39691 215.105 8.03545 217.004 8.88308 219.332C11.0789 225.397 13.8194 231.25 17.0711 236.821C20.3422 242.377 24.2944 247.502 28.8361 252.078C30.5935 253.824 32.091 255.152 33.1533 256.034C33.6789 256.486 34.1083 256.814 34.3796 257.051C34.5219 257.172 34.6542 257.304 34.7751 257.446Z" fill="url(#paint4_linear_8_8257)"/>
<path d="M36.5721 240.545C36.4868 240.206 36.4376 239.86 36.4252 239.511C36.346 238.782 36.2443 237.815 36.12 236.685C35.8601 234.301 35.4532 231.034 34.8768 227.401C34.3005 223.768 33.6506 220.541 33.1477 218.201C32.9047 217.071 32.7069 216.139 32.5487 215.421C32.4573 215.085 32.3968 214.74 32.3679 214.393C32.5018 214.715 32.6076 215.047 32.6843 215.387C32.8651 216.037 33.1081 216.975 33.3907 218.145C33.9558 220.479 34.6395 223.728 35.2215 227.35C35.8036 230.972 36.1709 234.267 36.3517 236.663C36.4478 237.855 36.5156 238.827 36.5438 239.488C36.5825 239.839 36.592 240.192 36.5721 240.545Z" fill="url(#paint5_linear_8_8257)"/>
<path d="M40.409 211.963C40.4894 212.104 40.5538 212.254 40.6011 212.409L41.0927 213.72C41.3131 214.285 41.5618 214.986 41.7991 215.817C42.0364 216.647 42.3642 217.574 42.5959 218.642L43.0027 220.298C43.1383 220.863 43.2344 221.485 43.3587 222.112C43.63 223.361 43.7938 224.717 43.9916 226.141C44.3448 229.239 44.477 232.359 44.3872 235.476C44.2543 238.594 43.8993 241.698 43.3248 244.766C43.0253 246.167 42.7597 247.512 42.4094 248.721C42.2342 249.337 42.0929 249.942 41.9178 250.507L41.3922 252.157C41.0814 253.197 40.6972 254.107 40.3977 254.915C40.0982 255.723 39.8326 256.407 39.5444 256.955L38.9793 258.226C38.9199 258.377 38.8441 258.521 38.7533 258.656C38.7915 258.498 38.8445 258.345 38.9115 258.198C39.0471 257.87 39.2223 257.441 39.437 256.904C39.6518 256.367 39.9513 255.661 40.2282 254.841C40.505 254.022 40.878 253.146 41.1775 252.078C41.3357 251.564 41.4996 251.021 41.6748 250.456C41.8499 249.891 41.9799 249.292 42.1438 248.676C42.4828 247.45 42.7089 246.116 43.0253 244.721C43.5761 241.668 43.9197 238.581 44.0538 235.482C44.1428 232.382 44.022 229.28 43.6921 226.197C43.5 224.779 43.3474 223.428 43.0931 222.18C42.9745 221.558 42.884 220.948 42.7541 220.371C42.6241 219.795 42.4941 219.241 42.3698 218.716C42.1494 217.659 41.8499 216.727 41.6296 215.89C41.4092 215.054 41.1775 214.353 40.9797 213.777L40.5559 212.449C40.491 212.292 40.4418 212.129 40.409 211.963Z" fill="url(#paint6_linear_8_8257)"/>
<path d="M64.9618 202.69C64.968 202.742 64.968 202.796 64.9618 202.848C64.9618 202.972 64.9166 203.119 64.8883 203.306C64.8148 203.707 64.7244 204.3 64.5662 205.058C64.2498 206.572 63.7186 208.753 62.871 211.398C62.0233 214.042 60.9384 217.15 59.6104 220.558C58.2825 223.965 56.7511 227.684 55.2932 231.639C53.8353 235.595 52.6769 239.443 51.6089 242.941C50.5409 246.439 49.5407 249.58 48.5688 252.174C47.8249 254.23 46.9665 256.243 45.9976 258.204C45.6642 258.899 45.3591 259.418 45.167 259.78L44.9353 260.181C44.8844 260.272 44.8562 260.317 44.8505 260.311C44.861 260.26 44.8801 260.21 44.907 260.164L45.1048 259.746C45.28 259.379 45.5625 258.848 45.879 258.141C46.5345 256.746 47.4273 254.694 48.354 252.089C49.2808 249.484 50.2753 246.354 51.3151 242.85C52.3548 239.347 53.5019 235.504 54.9824 231.549C56.4629 227.593 57.9887 223.869 59.3279 220.467C60.6671 217.066 61.8086 213.986 62.6562 211.353C63.5039 208.719 64.0633 206.561 64.4193 205.058C64.6001 204.306 64.7131 203.718 64.8092 203.317C64.8487 203.136 64.8883 202.989 64.9166 202.871C64.9205 202.808 64.9358 202.747 64.9618 202.69Z" fill="url(#paint7_linear_8_8257)"/>
<path d="M14.4152 194.909C14.1904 194.69 13.8989 194.552 13.5869 194.518C13.275 194.484 12.9605 194.555 12.6935 194.72C12.4266 194.885 12.2224 195.134 12.1136 195.428C12.0047 195.723 11.9974 196.045 12.0927 196.344C12.6524 198.157 13.3398 199.929 14.1496 201.645C16.41 206.431 23.0214 223.615 26.1237 233.052C29.226 242.489 33.5658 260.097 33.5658 260.097L40.1829 259.023C40.1829 259.023 34.1309 230.119 28.2371 219.671C23.4848 211.296 18.7268 199.192 14.4152 194.909Z" fill="url(#paint8_linear_8_8257)"/>
<path d="M27.915 238.957C28.0604 239.206 28.1761 239.472 28.2597 239.748C28.4519 240.268 28.7231 241.025 29.0226 241.969C29.6329 243.856 30.3788 246.489 31.1247 249.422C31.8706 252.355 32.5035 255.022 32.9386 256.955C33.1364 257.864 33.3002 258.65 33.4359 259.243C33.5092 259.522 33.5546 259.808 33.5715 260.096C33.4534 259.833 33.3625 259.559 33.3002 259.277C33.142 258.672 32.9386 257.915 32.6956 257.017C32.187 255.028 31.5259 252.411 30.7856 249.518C30.0454 246.625 29.3334 243.946 28.7852 242.048C28.5253 241.149 28.3049 240.398 28.1298 239.787C28.0307 239.518 27.9588 239.24 27.915 238.957Z" fill="url(#paint9_linear_8_8257)"/>
<path d="M36.9111 259.56C36.8924 259.503 36.881 259.444 36.8772 259.385C36.8772 259.243 36.832 259.074 36.7981 258.865C36.7303 258.407 36.6681 257.735 36.5269 256.859C36.2839 255.118 35.8544 252.615 35.1424 249.558C34.2951 245.984 33.2615 242.457 32.0458 238.991C30.6839 235.069 28.983 230.831 27.0561 226.446C23.1627 217.693 19.2749 209.923 16.7151 204.182C15.4267 201.311 14.4548 198.978 13.7654 197.344C13.432 196.531 13.2003 195.892 13.0251 195.463C12.946 195.265 12.8895 195.101 12.8387 194.971C12.8134 194.915 12.7963 194.856 12.7878 194.796C12.8222 194.845 12.8506 194.898 12.8726 194.954L13.0873 195.434C13.2851 195.887 13.5507 196.508 13.8954 197.294C14.5904 198.904 15.6245 201.249 16.9411 204.075C19.5518 209.776 23.4791 217.535 27.3782 226.305C29.3051 230.696 31.006 234.945 32.3509 238.884C33.5574 242.366 34.5704 245.913 35.3854 249.507C35.935 251.933 36.3612 254.384 36.6625 256.853C36.7812 257.723 36.8207 258.407 36.8716 258.865L36.9111 259.39C36.9177 259.447 36.9177 259.504 36.9111 259.56Z" fill="url(#paint10_linear_8_8257)"/>
<path d="M40.2056 259.023C40.1004 258.653 40.0248 258.275 39.9795 257.893C39.8496 257.119 39.6744 256.09 39.4653 254.853C39.0132 252.287 38.3351 248.755 37.3123 244.913C36.2895 241.07 35.2046 237.663 34.3457 235.205C33.9275 234.018 33.5772 233.04 33.3116 232.3C33.1658 231.951 33.0486 231.59 32.9612 231.221C33.1498 231.55 33.3104 231.894 33.4415 232.249C33.7241 232.922 34.1253 233.899 34.5717 235.12C35.7679 238.305 36.794 241.551 37.6457 244.845C38.5012 248.136 39.1896 251.469 39.7083 254.83C39.8948 256.118 40.036 257.164 40.1095 257.893C40.1699 258.267 40.202 258.644 40.2056 259.023Z" fill="url(#paint11_linear_8_8257)"/>
<path d="M53.7901 258.073H27.9602V289.543H53.7901V258.073Z" fill="#E6A371"/>
<g opacity="0.3">
<path d="M53.7901 258.073H27.9602V289.543H53.7901V258.073Z" fill="black"/>
</g>
<path d="M45.5456 258.073H22.6315V289.543H45.5456V258.073Z" fill="#E6A371"/>
<path d="M204.735 188.06L191.156 186.094L163.992 190.111L156.369 192.807L157.72 209.477L183.838 214.285L201.457 209.064L208.12 199.26L204.735 188.06Z" fill="#FFBE9D"/>
<path d="M213.296 189.654L201.926 186.975C201.926 186.975 193.896 211.839 174.068 210.748C157.906 209.872 157.72 191.835 157.72 191.835L146.074 195.564C146.074 195.564 141.615 225.44 146.548 246.608C147.678 251.553 149.244 258.215 149.244 258.215L147.667 289.142L233.808 289.277L213.296 189.654Z" fill="#E6A371"/>
<g opacity="0.3">
<path d="M179.526 283.141C183.719 283.033 187.584 283.389 191.777 283.288C196.807 283.163 201.875 283.039 206.842 283.853C210.561 284.469 214.188 285.599 217.907 286.186C222.992 286.989 228.412 286.706 232.932 284.259L232.203 280.038L215.036 275.891L179.526 283.141Z" fill="black"/>
</g>
<path d="M136.349 202.526C140.304 197.44 146.836 195.321 146.836 195.321L151.244 233.685L142.898 289.549L115.559 289.419C115.559 289.419 130.636 209.9 136.349 202.526Z" fill="#E6A371"/>
<path d="M211.968 189.371C211.968 189.371 230.367 190.846 236.967 221.015C239.951 234.651 243.748 250.626 244.816 261.368C245.601 269.155 241.369 281.349 233.605 282.349L223.84 283.66C221.926 283.936 219.977 283.865 218.088 283.451C211.923 282.033 211.307 277.8 210.176 273.28L207.351 264.284C205.791 255.728 213.765 254.112 218.167 254.231L214.884 215.178L211.968 189.371Z" fill="#E6A371"/>
<path d="M144.559 216.653C144.516 216.789 144.488 216.929 144.474 217.071C144.429 217.376 144.367 217.783 144.288 218.286C144.254 218.552 144.209 218.851 144.164 219.168C144.118 219.484 144.096 219.84 144.056 220.219C143.977 220.97 143.887 221.829 143.847 222.784C143.716 225.018 143.701 227.257 143.802 229.492C143.937 232.225 144.208 234.951 144.616 237.657C145.039 240.545 145.571 243.268 146.113 245.732C146.656 248.196 147.181 250.405 147.645 252.259C148.108 254.112 148.498 255.598 148.775 256.627C148.91 257.119 149.018 257.514 149.102 257.808C149.133 257.948 149.178 258.084 149.238 258.215C149.226 258.073 149.199 257.933 149.159 257.797C149.091 257.492 149.001 257.096 148.888 256.599C148.633 255.531 148.277 254.039 147.837 252.208C147.396 250.377 146.887 248.139 146.373 245.676C145.859 243.212 145.322 240.494 144.904 237.618C144.486 234.741 144.192 231.967 144.068 229.475C143.943 226.983 143.938 224.694 144.068 222.796C144.096 221.841 144.169 220.987 144.231 220.23C144.258 219.853 144.286 219.503 144.316 219.179C144.35 218.863 144.384 218.569 144.412 218.297C144.469 217.795 144.514 217.388 144.542 217.077C144.562 216.937 144.567 216.795 144.559 216.653Z" fill="black"/>
<path d="M232.605 264.798C232.592 264.536 232.548 264.276 232.475 264.024C232.294 263.344 232.056 262.68 231.763 262.04C230.797 259.908 229.294 258.062 227.401 256.684C225.508 255.306 223.29 254.443 220.964 254.18C220.265 254.095 219.559 254.072 218.856 254.112C218.597 254.115 218.339 254.148 218.088 254.208C219.032 254.214 219.975 254.272 220.913 254.384C223.187 254.699 225.347 255.571 227.203 256.921C229.059 258.272 230.554 260.059 231.553 262.125C231.95 262.997 232.301 263.889 232.605 264.798Z" fill="black"/>
<path d="M228.355 249.778C228.209 249.741 228.059 249.728 227.909 249.739C227.503 249.731 227.097 249.75 226.694 249.795C225.36 249.931 224.052 250.258 222.812 250.767C221.572 251.282 220.412 251.968 219.365 252.807C219.049 253.059 218.749 253.331 218.466 253.621C218.268 253.83 218.167 253.948 218.178 253.965C218.189 253.982 218.675 253.57 219.495 252.971C221.626 251.406 224.107 250.386 226.722 249.999C227.722 249.852 228.355 249.829 228.355 249.778Z" fill="black"/>
<path d="M209.306 210.748C209.347 210.481 209.363 210.21 209.351 209.94C209.351 209.42 209.385 208.674 209.447 207.753C209.777 202.936 211.097 198.238 213.324 193.954C213.748 193.134 214.115 192.479 214.381 192.038C214.53 191.814 214.656 191.575 214.759 191.326C214.579 191.527 214.418 191.745 214.279 191.976C213.985 192.405 213.589 193.044 213.149 193.858C210.803 198.128 209.469 202.88 209.25 207.747C209.216 208.674 209.216 209.443 209.25 209.946C209.241 210.214 209.26 210.483 209.306 210.748Z" fill="black"/>
<path d="M174.068 238.115C174.08 238.223 174.106 238.33 174.147 238.431C174.215 238.635 174.299 238.946 174.452 239.319C174.864 240.398 175.377 241.437 175.983 242.421C177.989 245.701 180.9 248.332 184.365 249.996C187.831 251.66 191.704 252.287 195.518 251.801C196.669 251.658 197.803 251.41 198.909 251.061C199.299 250.942 199.592 250.812 199.79 250.739C199.894 250.705 199.994 250.662 200.09 250.609C200.09 250.581 199.655 250.728 198.875 250.948C197.765 251.259 196.631 251.475 195.484 251.592C191.714 252.036 187.895 251.399 184.473 249.756C181.051 248.114 178.165 245.532 176.153 242.314C175.538 241.347 175.001 240.332 174.548 239.279C174.271 238.533 174.09 238.104 174.068 238.115Z" fill="black"/>
<path d="M212.844 280.524C212.872 280.496 213.16 280.908 213.849 281.474C214.858 282.235 216.012 282.781 217.24 283.078C219.049 283.531 220.917 283.697 222.778 283.57C224.88 283.417 227.202 283.169 229.61 282.813C231.877 282.519 234.11 282.004 236.278 281.276C237.182 280.878 238.01 280.325 238.724 279.643C239.354 279.052 239.922 278.399 240.42 277.693C241.156 276.673 241.787 275.581 242.301 274.433C242.476 274.02 242.612 273.704 242.697 273.483C242.73 273.368 242.78 273.257 242.844 273.156C242.823 273.273 242.792 273.388 242.753 273.5C242.686 273.732 242.567 274.065 242.403 274.478C241.929 275.657 241.32 276.778 240.589 277.817C240.095 278.541 239.527 279.212 238.894 279.818C238.165 280.528 237.315 281.102 236.385 281.513C234.204 282.271 231.951 282.799 229.66 283.09C227.236 283.451 224.919 283.689 222.8 283.83C220.912 283.941 219.018 283.75 217.189 283.265C215.952 282.946 214.796 282.368 213.799 281.57C213.536 281.343 213.295 281.091 213.081 280.818C212.99 280.731 212.91 280.632 212.844 280.524Z" fill="black"/>
<path d="M209.809 220.354C209.883 220.354 211.826 227.864 214.138 237.177C216.449 246.49 218.263 254.05 218.184 254.073C218.104 254.096 216.166 246.557 213.855 237.245C211.544 227.932 209.73 220.371 209.809 220.354Z" fill="black"/>
<path d="M207.464 262.894C207.404 262.692 207.371 262.483 207.368 262.272C207.311 261.709 207.298 261.142 207.328 260.577C207.393 259.715 207.679 258.883 208.159 258.164C208.431 257.736 208.747 257.338 209.103 256.977C209.496 256.601 209.935 256.275 210.408 256.005C212.082 255.127 213.894 254.542 215.765 254.276C216.327 254.195 216.893 254.146 217.46 254.129C217.668 254.098 217.88 254.098 218.088 254.129C218.088 254.175 217.2 254.208 215.793 254.463C213.964 254.778 212.194 255.376 210.549 256.237C210.096 256.495 209.675 256.806 209.295 257.164C208.952 257.508 208.645 257.887 208.379 258.294C207.912 258.964 207.62 259.742 207.532 260.554C207.482 261.118 207.465 261.684 207.481 262.25C207.5 262.464 207.495 262.68 207.464 262.894Z" fill="black"/>
<g opacity="0.3">
<path d="M145.407 241.986C140.711 234.035 140.609 223.705 144.706 215.427C143.394 224.247 143.677 233.232 145.542 241.952" fill="black"/>
</g>
<path d="M152.894 277.648C154.375 274.856 165.919 267.476 165.919 267.476L162.794 266.753L159.342 268.211C159.081 269.381 158.574 270.483 157.856 271.443C156.59 273.252 154.437 271.381 154.437 271.381L155.895 264.391L162.721 260.283C162.721 260.283 169.14 261.266 170.18 261.763L172.915 264.267C174.119 265.21 177.588 268.923 178.537 269.036C179.487 269.149 209.306 262.453 209.306 262.453C213.392 265.691 215.522 272.116 216.189 276.755C216.189 276.755 216.918 279.015 216.127 280.27L179.549 283.14L171.796 285.282C169.72 286.141 167.593 286.871 165.428 287.469C162.851 288.034 161.116 287.181 161.043 285.774C160.969 284.367 162.975 284.192 162.975 284.192C164.686 283.578 166.351 282.845 167.959 281.999C169.137 281.214 170.106 280.156 170.785 278.914L168.021 279.241C168.021 279.241 162.144 283.321 159.935 284.519C157.726 285.717 157.29 283.519 157.11 282.824C156.929 282.129 163.71 275.529 163.71 275.529C163.71 275.529 157.262 279.484 156.104 280.502C154.945 281.519 153.227 281.807 152.86 281.134C152.493 280.462 151.419 280.439 152.894 277.648Z" fill="#FFBE9D"/>
<path d="M184.686 278.292C184.718 278.144 184.73 277.992 184.719 277.84C184.726 277.662 184.715 277.484 184.686 277.309C184.663 277.074 184.619 276.841 184.556 276.614C184.188 275.294 183.551 274.065 182.685 273.003C181.841 271.938 180.895 270.957 179.86 270.076C179.454 269.688 179.009 269.343 178.532 269.047C178.908 269.46 179.308 269.851 179.73 270.217C180.714 271.133 181.628 272.12 182.465 273.172C183.312 274.207 183.956 275.392 184.363 276.665C184.657 277.648 184.629 278.298 184.686 278.292Z" fill="#EB996E"/>
<path d="M166.185 267.267C166.846 267.365 167.521 267.305 168.154 267.091C168.788 266.878 169.362 266.518 169.83 266.041C169.784 265.979 169.078 266.505 168.067 266.832C167.055 267.16 166.185 267.188 166.185 267.267Z" fill="#EB996E"/>
<path d="M164.264 274.919C166.253 274.295 168.185 273.501 170.039 272.545C169.03 272.812 168.046 273.167 167.1 273.608C166.119 273.964 165.17 274.402 164.264 274.919Z" fill="#EB996E"/>
<path d="M170.457 278.829C170.977 278.71 171.482 278.53 171.96 278.292C172.473 278.143 172.966 277.932 173.429 277.665C172.351 277.775 171.323 278.177 170.457 278.829Z" fill="#EB996E"/>
<path d="M165.23 275.427C165.644 275.713 166.024 276.047 166.36 276.422C166.633 276.849 166.853 277.308 167.015 277.789C167.049 277.789 167.083 277.603 167.015 277.309C166.947 276.927 166.788 276.566 166.552 276.258C166.319 275.949 166.014 275.701 165.665 275.534C165.411 275.41 165.23 275.399 165.23 275.427Z" fill="#EB996E"/>
<path d="M162.506 271.161C162.467 271.229 162.975 271.506 163.309 272.088C163.478 272.462 163.616 272.849 163.721 273.246C163.803 273.03 163.829 272.796 163.796 272.567C163.764 272.337 163.674 272.12 163.535 271.935C163.156 271.28 162.517 271.088 162.506 271.161Z" fill="#EB996E"/>
<path d="M163.422 263.532C163.455 263.532 163.557 263.419 163.642 263.165C163.729 262.832 163.729 262.481 163.642 262.148C163.561 261.813 163.393 261.505 163.156 261.255C162.97 261.069 162.817 261.001 162.794 261.029C163.031 261.4 163.221 261.798 163.359 262.216C163.44 262.65 163.461 263.093 163.422 263.532Z" fill="#EB996E"/>
<path d="M216.426 281.315C216.389 281.036 216.373 280.755 216.381 280.473C216.381 280.202 216.381 279.874 216.341 279.49C216.302 279.106 216.308 278.671 216.251 278.196C216.039 275.688 215.501 273.219 214.652 270.85C214.175 269.556 213.596 268.301 212.923 267.098C212.584 266.533 212.29 266.03 211.951 265.572C211.793 265.34 211.634 265.12 211.482 264.905C211.329 264.691 211.165 264.498 211.013 264.34C209.798 262.843 208.865 262.08 208.911 262.035C209.148 262.185 209.367 262.362 209.566 262.56C209.821 262.774 210.062 263.002 210.289 263.244C210.555 263.521 210.855 263.809 211.177 264.205C211.329 264.397 211.493 264.589 211.663 264.77C211.832 264.95 211.985 265.205 212.154 265.436C212.505 265.894 212.81 266.425 213.154 266.968C213.852 268.177 214.446 269.444 214.929 270.754C215.786 273.141 216.302 275.637 216.46 278.168C216.5 278.648 216.494 279.089 216.505 279.473C216.517 279.857 216.505 280.191 216.505 280.462C216.508 280.748 216.482 281.034 216.426 281.315Z" fill="black"/>
<g opacity="0.3">
<path d="M228.977 255.18C225.547 253.764 221.768 253.419 218.138 254.191C221.259 254.048 224.346 254.882 226.969 256.578C229.591 258.274 231.619 260.747 232.768 263.651C233.028 264.352 233.548 265.182 234.294 265.075C235.04 264.967 235.243 264.103 235.243 263.408C235.249 259.752 232.35 256.587 228.977 255.18Z" fill="black"/>
</g>
<path d="M144.322 214.065C144.153 214.034 143.989 213.979 143.836 213.901C143.525 213.783 143.09 213.585 142.559 213.336C141.173 212.644 139.849 211.833 138.603 210.912C137.362 209.995 136.201 208.974 135.134 207.86C134.727 207.431 134.405 207.069 134.201 206.815C133.998 206.561 133.885 206.408 133.902 206.391C133.919 206.374 134.433 206.9 135.281 207.714C136.382 208.776 137.55 209.767 138.778 210.68C140.01 211.586 141.299 212.411 142.638 213.15C143.7 213.732 144.356 214.026 144.322 214.065Z" fill="white"/>
<path d="M209.572 216.195C209.529 216.234 209.482 216.266 209.431 216.291L208.995 216.551C208.617 216.783 208.04 217.117 207.3 217.489C205.179 218.578 202.978 219.506 200.717 220.264C197.358 221.375 193.912 222.203 190.416 222.739C186.134 223.377 181.815 223.735 177.486 223.813C172.881 223.92 168.496 223.813 164.49 223.745C160.954 223.695 157.425 223.429 153.923 222.948C151.559 222.613 149.23 222.072 146.961 221.332C146.164 221.061 145.548 220.835 145.141 220.66L144.678 220.462C144.623 220.443 144.57 220.418 144.52 220.388L144.689 220.434L145.164 220.603C145.576 220.761 146.198 220.97 147 221.225C149.273 221.915 151.597 222.423 153.951 222.745C157.449 223.192 160.969 223.435 164.495 223.474C168.451 223.547 172.858 223.626 177.453 223.519C181.769 223.443 186.076 223.092 190.348 222.468C193.834 221.95 197.272 221.146 200.627 220.066C202.886 219.328 205.092 218.433 207.227 217.388C207.978 217.015 208.56 216.715 208.922 216.501L209.368 216.269C209.515 216.212 209.566 216.19 209.572 216.195Z" fill="white"/>
<path d="M144.537 236.335C144.298 236.313 144.063 236.264 143.836 236.188L141.954 235.674C140.372 235.227 138.191 234.589 135.783 233.871C133.376 233.153 131.206 232.481 129.635 231.984L127.782 231.385C127.552 231.319 127.329 231.232 127.115 231.125C127.354 231.147 127.589 231.196 127.816 231.272L129.698 231.786C131.28 232.232 133.461 232.871 135.868 233.589C138.275 234.306 140.445 234.973 142.016 235.47L143.87 236.075C144.101 236.138 144.324 236.225 144.537 236.335Z" fill="white"/>
<path d="M146.181 267.567C146.181 267.64 140.53 266.024 133.58 263.95C126.629 261.877 121.04 260.13 121.063 260.051C121.086 259.972 126.714 261.588 133.664 263.668C140.615 265.747 146.204 267.488 146.181 267.567Z" fill="white"/>
<path d="M227.852 199.994C227.662 200.179 227.454 200.344 227.231 200.486C226.824 200.785 226.213 201.204 225.451 201.701C221.46 204.282 217.179 206.386 212.697 207.968C211.838 208.267 211.137 208.493 210.645 208.634C210.397 208.725 210.139 208.789 209.877 208.827C210.112 208.705 210.358 208.604 210.612 208.527L212.629 207.776C214.324 207.126 216.647 206.165 219.133 204.95C221.619 203.735 223.801 202.481 225.349 201.531L227.18 200.401C227.39 200.244 227.615 200.108 227.852 199.994Z" fill="white"/>
<path d="M239.109 232.103C238.814 232.27 238.508 232.415 238.193 232.538C237.6 232.803 236.718 233.154 235.622 233.555C229.892 235.642 223.875 236.839 217.782 237.103C216.613 237.154 215.669 237.166 215.014 237.143C214.676 237.151 214.338 237.135 214.002 237.098C214.337 237.047 214.675 237.024 215.014 237.03C215.663 237.03 216.607 236.974 217.771 236.894C220.798 236.702 223.809 236.311 226.784 235.725C229.757 235.127 232.689 234.338 235.56 233.363C236.662 232.984 237.549 232.662 238.159 232.43C238.466 232.294 238.783 232.184 239.109 232.103Z" fill="white"/>
<path d="M222.868 283.457C222.864 283.351 222.873 283.244 222.896 283.141C222.93 282.909 222.981 282.615 223.038 282.254C223.094 281.892 223.179 281.395 223.235 280.841C223.292 280.287 223.388 279.665 223.411 278.965C223.411 278.62 223.456 278.253 223.478 277.874C223.501 277.496 223.478 277.094 223.478 276.687C223.478 275.868 223.445 274.992 223.399 274.071C223.251 272.076 222.947 270.096 222.49 268.149C222.01 266.207 221.381 264.304 220.608 262.459C220.224 261.622 219.879 260.814 219.478 260.097C219.286 259.735 219.11 259.379 218.913 259.046L218.347 258.108C218.003 257.497 217.63 256.977 217.33 256.52C217.031 256.062 216.765 255.666 216.511 255.356L215.98 254.627C215.912 254.546 215.855 254.457 215.81 254.361C215.889 254.43 215.961 254.505 216.025 254.587L216.59 255.288C216.898 255.649 217.186 256.026 217.455 256.418C217.771 256.876 218.155 257.384 218.511 257.989L219.076 258.927C219.274 259.255 219.455 259.616 219.642 259.978C220.048 260.696 220.41 261.504 220.772 262.346C222.4 266.048 223.356 270.011 223.597 274.049C223.631 274.975 223.682 275.857 223.648 276.682C223.648 277.094 223.648 277.496 223.614 277.88C223.58 278.264 223.558 278.626 223.529 278.976C223.49 279.682 223.377 280.304 223.303 280.858C223.23 281.412 223.145 281.886 223.06 282.265C222.976 282.643 222.913 282.915 222.862 283.152C222.875 283.253 222.877 283.356 222.868 283.457Z" fill="white"/>
<path d="M244.669 266.137C244.641 266.137 244.624 265.674 244.494 264.86C244.294 263.711 243.913 262.601 243.364 261.571C242.559 260.043 241.477 258.679 240.171 257.548C238.58 256.153 236.737 255.075 234.741 254.372C232.733 253.702 230.635 253.336 228.519 253.287C226.787 253.239 225.054 253.305 223.332 253.485C221.857 253.621 220.664 253.773 219.839 253.864L218.89 253.965C218.779 253.981 218.667 253.981 218.557 253.965C218.66 253.927 218.769 253.902 218.879 253.892L219.822 253.734C220.642 253.604 221.834 253.429 223.309 253.259C225.041 253.053 226.786 252.966 228.53 252.999C230.675 253.042 232.802 253.409 234.837 254.09C236.868 254.809 238.74 255.914 240.352 257.345C241.672 258.504 242.758 259.907 243.55 261.475C244.086 262.538 244.436 263.685 244.584 264.866C244.629 265.184 244.651 265.505 244.652 265.827C244.669 265.929 244.675 266.033 244.669 266.137Z" fill="white"/>
<path d="M183.878 249.778C183.773 249.81 183.665 249.829 183.555 249.835L182.634 249.931L179.244 250.213C176.379 250.434 172.418 250.705 168.044 250.931C163.67 251.157 159.698 251.298 156.821 251.332C155.386 251.332 154.222 251.332 153.431 251.332H152.51C152.401 251.336 152.293 251.324 152.188 251.298C152.294 251.276 152.402 251.267 152.51 251.27H153.431L156.821 251.185C159.686 251.1 163.653 250.931 168.027 250.699L179.227 250.066L182.617 249.874L183.544 249.835C183.652 249.801 183.764 249.782 183.878 249.778Z" fill="white"/>
<g opacity="0.3">
<path d="M187.161 250.954C190.721 251.999 195.637 252.253 199.123 250.954C196.411 254.813 191.173 256.209 186.624 254.954C182.075 253.7 177.888 249.151 177.537 244.444C179.741 247.411 183.601 249.897 187.161 250.954Z" fill="black"/>
</g>
<path d="M216.031 247.23C215.937 247.264 215.841 247.29 215.742 247.309L214.923 247.484C214.205 247.631 213.171 247.823 211.883 248.049C209.312 248.501 205.746 249.055 201.796 249.541C197.846 250.027 194.247 250.343 191.625 250.524C190.325 250.614 189.268 250.677 188.539 250.705L187.703 250.733C187.606 250.749 187.507 250.749 187.409 250.733C187.504 250.709 187.6 250.694 187.697 250.688L188.534 250.603L191.608 250.326C194.207 250.095 197.79 249.761 201.745 249.258C205.701 248.755 209.255 248.252 211.832 247.857L214.884 247.382L215.72 247.263C215.821 247.234 215.926 247.222 216.031 247.23Z" fill="white"/>
<g opacity="0.3">
<path d="M210.109 222.072C209.216 232.3 212.002 242.449 214.765 252.338C214.888 252.952 215.147 253.532 215.522 254.033C215.716 254.284 215.986 254.465 216.292 254.549C216.597 254.634 216.922 254.617 217.217 254.502C218.082 254.062 217.963 252.807 217.72 251.88L210.041 222.496" fill="black"/>
</g>
<path d="M67.03 232.261L78.6424 289.277H179.453C179.986 289.277 180.498 289.065 180.875 288.688C181.253 288.311 181.465 287.799 181.465 287.266C181.465 286.732 181.253 286.221 180.875 285.843C180.498 285.466 179.986 285.254 179.453 285.254H159.155L148.39 232.227C148.29 231.733 148.023 231.289 147.634 230.968C147.245 230.647 146.758 230.469 146.254 230.464L69.2112 229.622C68.8828 229.618 68.5577 229.687 68.2597 229.825C67.9617 229.963 67.6984 230.166 67.4891 230.419C67.2799 230.672 67.1301 230.969 67.0506 231.288C66.9711 231.607 66.9641 231.939 67.03 232.261Z" fill="#E0E0E0"/>
<path d="M67.03 232.261C67.0151 232.205 67.0038 232.148 66.9961 232.091C66.9744 231.919 66.9744 231.744 66.9961 231.571C67.0359 231.231 67.1528 230.903 67.3379 230.615C67.5229 230.326 67.7712 230.083 68.0641 229.904C68.2706 229.782 68.4958 229.694 68.7309 229.644C68.9916 229.596 69.2572 229.579 69.522 229.594H71.3359L75.8566 229.633L104.987 229.91L125.296 230.113L136.676 230.232L142.644 230.294L145.689 230.322C145.949 230.322 146.192 230.322 146.469 230.322C146.741 230.349 147.005 230.426 147.249 230.549C147.753 230.785 148.155 231.197 148.379 231.707C148.478 231.956 148.548 232.216 148.588 232.481L148.746 233.25C148.848 233.758 148.955 234.272 149.057 234.787C149.272 235.821 149.481 236.86 149.696 237.9L150.984 244.246C151.854 248.522 152.743 252.897 153.651 257.373C155.471 266.313 157.364 275.608 159.302 285.192L159.167 285.079H179.125C179.388 285.066 179.651 285.082 179.911 285.124C180.451 285.258 180.92 285.594 181.222 286.062C181.393 286.311 181.51 286.594 181.565 286.891C181.621 287.188 181.613 287.494 181.543 287.788C181.472 288.082 181.341 288.358 181.157 288.598C180.973 288.838 180.741 289.037 180.476 289.181C180.184 289.339 179.858 289.426 179.526 289.436H153.267H125.974H78.6424H78.5576V289.351C75.0033 271.833 72.1157 257.571 70.1153 247.693C69.1264 242.754 68.3523 238.912 67.8267 236.301C67.5668 234.996 67.369 234.001 67.2617 233.329C67.1543 232.656 67.0752 232.312 67.0752 232.312C67.0752 232.312 67.1543 232.656 67.2956 233.323L67.9172 236.284C68.454 238.895 69.2451 242.737 70.2622 247.665L78.795 289.311L78.6876 289.221H126.019H179.566C179.854 289.21 180.136 289.135 180.391 289.001C180.622 288.874 180.823 288.7 180.983 288.491C181.143 288.281 181.256 288.041 181.317 287.785C181.378 287.528 181.384 287.262 181.335 287.004C181.287 286.745 181.185 286.499 181.035 286.283C180.77 285.893 180.365 285.62 179.905 285.52C179.664 285.481 179.42 285.466 179.176 285.474H159.042V285.367C157.098 275.761 155.217 266.482 153.391 257.542C152.483 253.075 151.596 248.699 150.73 244.416L149.408 237.985C149.198 236.94 148.989 235.905 148.78 234.871C148.673 234.357 148.571 233.843 148.464 233.329L148.311 232.566C148.274 232.316 148.208 232.071 148.114 231.837C147.925 231.387 147.582 231.019 147.147 230.797C146.929 230.69 146.694 230.621 146.452 230.594C146.215 230.594 145.944 230.594 145.695 230.594L142.644 230.56L136.676 230.492L125.301 230.356L104.992 230.119L75.8622 229.763L71.3416 229.701L69.5276 229.673C69.267 229.657 69.0055 229.67 68.7478 229.712C68.5195 229.763 68.3004 229.849 68.098 229.966C67.807 230.138 67.5592 230.373 67.374 230.656C67.1888 230.938 67.0711 231.259 67.03 231.594C67.0017 231.815 67.0017 232.039 67.03 232.261Z" fill="black"/>
<path d="M113.48 258.373C113.48 259.031 113.284 259.675 112.919 260.222C112.553 260.769 112.033 261.196 111.425 261.448C110.817 261.7 110.148 261.766 109.502 261.637C108.856 261.509 108.263 261.192 107.798 260.726C107.332 260.261 107.015 259.668 106.887 259.022C106.759 258.377 106.824 257.707 107.076 257.099C107.328 256.491 107.755 255.971 108.302 255.606C108.85 255.24 109.493 255.045 110.151 255.045C111.034 255.045 111.881 255.395 112.505 256.02C113.129 256.644 113.48 257.49 113.48 258.373Z" fill="white"/>
<path d="M67.1204 232.724C67.1204 232.724 67.2391 232.724 67.4707 232.724H72.4096L86.8248 232.792L134.376 233.125L141.253 233.182H142.949C143.238 233.168 143.528 233.185 143.813 233.233C144.103 233.289 144.379 233.401 144.627 233.56C145.131 233.879 145.496 234.375 145.65 234.951C145.78 235.516 145.87 236.036 145.983 236.578C146.836 240.873 147.678 245.015 148.441 248.959C150.001 256.87 151.408 263.962 152.583 269.935L155.358 284.062C155.674 285.729 155.923 287.023 156.098 287.91C156.177 288.345 156.239 288.678 156.285 288.916C156.33 289.153 156.335 289.255 156.335 289.255C156.335 289.255 156.302 289.142 156.256 288.921C156.211 288.701 156.132 288.356 156.042 287.921C155.861 287.034 155.595 285.746 155.25 284.084C154.572 280.739 153.6 275.913 152.391 269.957L148.187 248.993C147.402 245.037 146.571 240.907 145.718 236.612C145.605 236.081 145.503 235.527 145.39 235.007C145.249 234.499 144.925 234.062 144.48 233.781C144.258 233.646 144.013 233.554 143.757 233.51C143.49 233.466 143.219 233.45 142.949 233.464H141.253L134.376 233.414L86.8191 232.995L72.4096 232.837L68.4879 232.781H67.4707L67.1204 232.724Z" fill="black"/>
<path d="M201.751 146.131C201.867 151.403 200.866 156.64 198.813 161.497C196.76 166.354 193.701 170.721 189.839 174.312C188.057 169.169 186.281 164.027 184.51 158.885" fill="black"/>
<path d="M161.608 115.447C166.179 112.949 171.7 112.588 176.808 113.611C181.917 114.633 186.675 116.944 191.184 119.555C193.716 121.019 196.236 122.629 198.055 124.912C201.372 129.088 204.656 135.948 204.972 141.299C205.232 145.605 203.582 156.382 201.762 160.292C200.095 163.88 192.28 166.615 188.421 167.502L153.024 126.308C153.664 124.019 154.752 121.88 156.226 120.016C157.699 118.151 159.529 116.598 161.608 115.447Z" fill="black"/>
<path d="M155.505 120.996L163.981 119.482C159.342 130.529 158.082 155.788 155.431 167.474C152.301 162.953 145.039 149.109 145.429 143.611C145.819 138.112 145.452 120.064 155.505 120.996Z" fill="black"/>
<path d="M195.744 139.384C195.287 132.931 191.105 127.641 184.838 126.042L165.292 121.058C156.85 120.149 151.21 130.535 150.656 139.011C150.04 148.431 149.662 158.365 150.764 165.395C152.973 179.522 163.8 181.352 163.8 181.352C163.8 181.352 163.8 188.077 163.8 192.202L170.338 219.275L191.41 190.162L195.772 139.565C195.789 139.316 195.744 139.706 195.744 139.384Z" fill="#FFBE9D"/>
<path d="M154.9 149.685C154.895 150.158 155.075 150.613 155.401 150.955C155.727 151.297 156.174 151.498 156.646 151.516C156.877 151.535 157.109 151.507 157.329 151.434C157.548 151.362 157.751 151.246 157.926 151.094C158.1 150.941 158.242 150.756 158.343 150.548C158.445 150.34 158.504 150.114 158.517 149.883C158.521 149.411 158.342 148.957 158.018 148.615C157.693 148.273 157.247 148.071 156.776 148.052C156.545 148.033 156.313 148.06 156.092 148.132C155.872 148.205 155.668 148.32 155.493 148.472C155.318 148.625 155.176 148.81 155.074 149.019C154.972 149.227 154.913 149.454 154.9 149.685Z" fill="black"/>
<path d="M152.798 144.543C153.024 144.78 154.397 143.769 156.347 143.775C158.296 143.78 159.737 144.763 159.935 144.526C160.042 144.419 159.811 143.995 159.189 143.537C158.347 142.951 157.344 142.639 156.319 142.644C155.305 142.641 154.316 142.957 153.493 143.548C152.872 144.012 152.668 144.436 152.798 144.543Z" fill="black"/>
<path d="M171.898 149.685C171.893 150.158 172.073 150.613 172.399 150.955C172.725 151.297 173.172 151.498 173.644 151.516C173.875 151.535 174.108 151.508 174.328 151.435C174.549 151.363 174.752 151.246 174.927 151.093C175.101 150.941 175.243 150.754 175.344 150.545C175.445 150.336 175.503 150.109 175.514 149.877C175.519 149.406 175.34 148.951 175.015 148.609C174.69 148.267 174.245 148.066 173.774 148.046C173.542 148.027 173.309 148.055 173.089 148.127C172.868 148.2 172.664 148.316 172.489 148.469C172.314 148.622 172.172 148.808 172.07 149.017C171.968 149.226 171.91 149.453 171.898 149.685Z" fill="black"/>
<path d="M171.293 144.543C171.519 144.781 172.898 143.769 174.848 143.775C176.797 143.78 178.238 144.764 178.436 144.526C178.538 144.419 178.311 143.995 177.69 143.537C176.851 142.957 175.856 142.645 174.836 142.645C173.823 142.643 172.835 142.959 172.011 143.549C171.389 144.012 171.186 144.436 171.293 144.543Z" fill="black"/>
<path d="M165.23 159.857C165.23 159.75 164.026 159.535 162.06 159.292C161.562 159.241 161.093 159.139 161.009 158.8C160.968 158.285 161.086 157.77 161.348 157.325C161.819 156.124 162.312 154.86 162.828 153.534C164.885 148.143 166.371 143.707 166.157 143.628C165.942 143.549 164.094 147.849 162.037 153.234C161.54 154.56 161.067 155.83 160.619 157.043C160.304 157.643 160.21 158.335 160.353 158.998C160.425 159.174 160.536 159.331 160.678 159.458C160.82 159.584 160.989 159.676 161.173 159.727C161.446 159.806 161.73 159.846 162.015 159.846C163.964 159.959 165.19 159.97 165.23 159.857Z" fill="black"/>
<path d="M182.544 176.318C182.544 176.318 177.944 186.043 163.806 184.67V181.347C170.397 181.438 176.884 179.697 182.544 176.318Z" fill="#EB996E"/>
<path d="M171.909 137.497C172.101 138.028 174.045 137.779 176.334 138.062C178.622 138.344 180.47 138.971 180.775 138.497C180.911 138.265 180.589 137.768 179.843 137.254C178.853 136.619 177.725 136.231 176.554 136.123C175.384 135.98 174.197 136.116 173.09 136.519C172.248 136.83 171.824 137.242 171.909 137.497Z" fill="black"/>
<path d="M153.414 138.576C153.753 139.022 155.109 138.576 156.714 138.548C158.319 138.519 159.698 138.853 160.014 138.389C160.15 138.163 159.935 137.723 159.342 137.299C158.539 136.796 157.606 136.542 156.66 136.569C155.714 136.597 154.796 136.903 154.024 137.451C153.448 137.903 153.261 138.361 153.414 138.576Z" fill="black"/>
<path d="M154.493 126.099C155.358 123.974 157.692 122.708 159.98 122.584C162.269 122.46 164.501 123.335 166.501 124.483C174.915 129.348 179.244 141.096 187.556 146.131C189.602 147.368 192.263 146.233 194.004 147.871C195.744 149.51 196.869 152.132 195.908 154.319C197.099 152.84 198.072 151.198 198.796 149.442C199.429 147.651 199.508 145.577 198.558 143.933C197.841 142.684 196.569 141.735 196.225 140.339C195.914 139.107 196.4 137.824 196.349 136.558C196.205 135.272 195.762 134.037 195.055 132.953C191.794 127.195 187.313 121.985 181.544 118.741C177.777 116.567 173.489 115.459 169.14 115.537C164.766 115.635 160.572 117.297 157.319 120.222C155.46 121.957 153.504 123.748 154.493 126.099Z" fill="black"/>
<path d="M193.8 149.623C193.947 149.216 201.322 146.561 201.418 154.393C201.514 162.004 193.834 160.507 193.817 160.286C193.8 160.066 193.8 149.623 193.8 149.623Z" fill="#FFBE9D"/>
<path d="M196.14 157.382C196.174 157.382 196.27 157.472 196.496 157.574C196.815 157.701 197.171 157.701 197.49 157.574C198.287 157.275 198.954 155.986 198.977 154.619C198.992 153.965 198.861 153.316 198.592 152.72C198.517 152.483 198.386 152.268 198.21 152.093C198.034 151.918 197.818 151.788 197.581 151.714C197.429 151.675 197.268 151.69 197.127 151.757C196.985 151.824 196.872 151.939 196.807 152.081C196.705 152.296 196.756 152.449 196.711 152.46C196.665 152.471 196.547 152.336 196.609 152.019C196.65 151.832 196.754 151.665 196.903 151.545C197.005 151.464 197.122 151.405 197.247 151.37C197.372 151.335 197.503 151.325 197.632 151.341C197.945 151.4 198.239 151.538 198.483 151.743C198.728 151.948 198.915 152.212 199.027 152.511C199.36 153.165 199.525 153.891 199.508 154.624C199.474 156.161 198.705 157.602 197.603 157.93C197.401 157.992 197.187 158.007 196.977 157.974C196.768 157.942 196.569 157.863 196.394 157.744C196.151 157.568 196.112 157.399 196.14 157.382Z" fill="#EB996E"/>
<path d="M196.829 145.713C196.67 145.641 196.516 145.556 196.371 145.459C196.078 145.272 195.626 145.023 195.094 144.645C193.594 143.548 192.214 142.294 190.981 140.904C189.186 138.824 187.509 136.645 185.957 134.377C184.088 131.599 181.988 128.982 179.679 126.557C178.447 125.345 177.086 124.27 175.622 123.353C174.249 122.516 172.781 121.848 171.248 121.363C168.646 120.529 165.91 120.193 163.184 120.375C161.345 120.487 159.528 120.842 157.782 121.431C157.155 121.623 156.691 121.832 156.369 121.957C156.209 122.03 156.043 122.089 155.872 122.132C156.023 122.042 156.179 121.962 156.341 121.895C156.794 121.678 157.26 121.489 157.737 121.33C159.482 120.68 161.31 120.284 163.167 120.154C165.926 119.928 168.702 120.235 171.344 121.058C172.907 121.54 174.404 122.212 175.803 123.059C177.289 123.99 178.67 125.079 179.922 126.308C182.245 128.758 184.352 131.405 186.217 134.219C187.752 136.487 189.404 138.673 191.167 140.768C192.376 142.161 193.718 143.433 195.173 144.566C195.693 144.956 196.128 145.221 196.405 145.425C196.554 145.509 196.696 145.605 196.829 145.713Z" fill="#455A64"/>
<path d="M197.004 158.726C197.379 158.657 197.766 158.734 198.086 158.94C198.407 159.146 198.636 159.466 198.729 159.836C198.821 160.206 198.769 160.597 198.583 160.929C198.398 161.262 198.092 161.511 197.729 161.626C197.366 161.742 196.973 161.714 196.629 161.55C196.285 161.385 196.017 161.096 195.88 160.741C195.742 160.385 195.745 159.991 195.888 159.638C196.03 159.285 196.302 158.999 196.648 158.84" fill="white"/>
<path d="M196.648 158.84C196.322 159.103 196.083 159.46 195.965 159.862C195.911 160.07 195.909 160.288 195.96 160.496C196.012 160.704 196.114 160.896 196.258 161.055C196.428 161.255 196.654 161.401 196.906 161.473C197.158 161.546 197.427 161.543 197.677 161.464C197.927 161.385 198.149 161.234 198.314 161.029C198.479 160.825 198.579 160.576 198.604 160.314C198.627 160.103 198.598 159.89 198.519 159.693C198.44 159.496 198.314 159.321 198.151 159.184C197.829 158.925 197.434 158.772 197.021 158.743C197.021 158.743 197.134 158.664 197.377 158.659C197.722 158.661 198.056 158.779 198.327 158.992C198.538 159.149 198.706 159.358 198.813 159.598C198.92 159.839 198.962 160.103 198.937 160.365C198.916 160.693 198.796 161.007 198.593 161.265C198.391 161.524 198.115 161.716 197.802 161.815C197.489 161.915 197.153 161.917 196.838 161.823C196.524 161.729 196.245 161.542 196.038 161.286C195.867 161.087 195.75 160.848 195.698 160.59C195.647 160.333 195.663 160.067 195.744 159.817C195.834 159.488 196.033 159.199 196.309 158.998C196.507 158.845 196.643 158.823 196.648 158.84Z" fill="black"/>
<path d="M194.914 147.866C195.032 149.945 195.128 152.138 194.168 153.986C193.207 155.834 190.777 157.094 188.98 156.06C187.505 155.218 187.065 153.325 186.81 151.646C186.093 146.798 185.759 141.899 184.996 137.056L194.914 147.866Z" fill="black"/>
<path d="M156.369 122.482C156.369 122.522 157.042 122.352 158.257 122.313C159.981 122.286 161.694 122.599 163.297 123.234C164.403 123.662 165.46 124.208 166.45 124.861C167.585 125.623 168.672 126.453 169.705 127.348C172.099 129.372 174.24 131.68 176.079 134.219C177.046 135.575 177.905 136.971 178.831 138.265C179.712 139.523 180.736 140.674 181.883 141.695C183.856 143.368 186.014 144.81 188.313 145.995C190.263 147.024 191.89 147.747 193.015 148.256L194.315 148.821C194.464 148.894 194.622 148.951 194.784 148.99C194.65 148.893 194.506 148.812 194.354 148.747L193.083 148.12C191.953 147.555 190.376 146.809 188.46 145.752C186.202 144.536 184.084 143.077 182.143 141.401C181.023 140.391 180.025 139.253 179.17 138.011C178.261 136.734 177.407 135.338 176.43 133.965C174.57 131.398 172.399 129.073 169.965 127.042C168.91 126.146 167.801 125.315 166.643 124.556C165.625 123.903 164.539 123.363 163.405 122.946C161.761 122.323 160.006 122.05 158.251 122.143C157.777 122.171 157.307 122.237 156.844 122.341C156.68 122.366 156.52 122.414 156.369 122.482Z" fill="#455A64"/>
<path d="M195.123 143.164C195.328 143.341 195.554 143.493 195.795 143.616L197.728 144.747L198.372 145.114C198.626 145.268 198.912 145.362 199.208 145.391C199.388 145.41 199.569 145.368 199.722 145.272C199.804 145.215 199.872 145.14 199.921 145.053C199.97 144.966 199.999 144.869 200.005 144.769C199.988 144.42 199.864 144.084 199.649 143.808L197.389 140.226L197.083 140.503C198.576 141.602 200.404 142.147 202.254 142.045C202.491 142.044 202.725 142.004 202.949 141.927C203.074 141.886 203.189 141.819 203.287 141.73C203.384 141.642 203.462 141.533 203.514 141.413C203.557 141.284 203.568 141.146 203.546 141.012C203.523 140.878 203.467 140.752 203.384 140.644C203.258 140.471 203.114 140.312 202.955 140.169C201.95 139.198 201.078 138.098 200.361 136.898C199.729 135.77 199.178 134.599 198.711 133.394C198.746 133.744 198.828 134.088 198.954 134.417C199.238 135.331 199.617 136.214 200.084 137.05C200.778 138.296 201.646 139.438 202.661 140.441C202.943 140.712 203.226 141.006 203.119 141.26C203.011 141.514 202.593 141.622 202.192 141.622C201.321 141.665 200.45 141.56 199.615 141.311C198.783 141.067 197.998 140.685 197.293 140.181L196.388 139.514L196.993 140.458L199.253 144.012C199.43 144.225 199.542 144.484 199.575 144.758C199.575 144.973 199.383 145.097 199.14 145.08C198.652 144.984 198.187 144.792 197.773 144.515L195.784 143.498C195.576 143.364 195.354 143.252 195.123 143.164Z" fill="#455A64"/>
<path d="M172.615 163.439C172.474 162.86 172.133 162.35 171.652 161.996C171.172 161.643 170.583 161.47 169.988 161.507C169.553 161.56 169.139 161.721 168.781 161.974C168.424 162.228 168.136 162.566 167.942 162.959C167.753 163.354 167.645 163.784 167.624 164.221C167.604 164.659 167.672 165.097 167.824 165.508L167.869 165.688C168.275 166.126 168.806 166.427 169.389 166.552C169.973 166.676 170.58 166.617 171.129 166.384C171.667 166.125 172.104 165.696 172.373 165.164C172.641 164.632 172.727 164.025 172.615 163.439Z" fill="#EB996E"/>
<path d="M166.45 165.745C166.45 165.451 168.423 165.541 169.909 163.925C171.395 162.309 171.276 160.196 171.553 160.196C171.677 160.196 171.915 160.682 171.892 161.575C171.852 162.728 171.405 163.831 170.632 164.688C169.886 165.513 168.848 166.015 167.739 166.09C166.925 166.124 166.433 165.881 166.45 165.745Z" fill="black"/>
<path d="M232.881 285.497C232.838 285.503 232.795 285.503 232.751 285.497L232.356 285.537L230.847 285.661C229.536 285.768 227.637 285.893 225.287 286.034C220.591 286.311 214.098 286.599 206.922 286.718C199.745 286.836 193.235 286.769 188.534 286.644C186.183 286.588 184.279 286.52 182.968 286.463L181.453 286.384H182.968L188.539 286.48C193.241 286.548 199.739 286.582 206.916 286.48C214.092 286.379 220.58 286.107 225.275 285.881L230.841 285.604L232.356 285.537H232.746L232.881 285.497Z" fill="white"/>
<defs>
<linearGradient id="paint0_linear_8_8257" x1="9.11458" y1="220.992" x2="40.1765" y2="233.317" gradientUnits="userSpaceOnUse">
<stop stop-color="#F0DB92"/>
<stop offset="1" stop-color="#BF9033"/>
</linearGradient>
<linearGradient id="paint1_linear_8_8257" x1="32.4769" y1="222.764" x2="43.1278" y2="224.109" gradientUnits="userSpaceOnUse">
<stop stop-color="#F0DB92"/>
<stop offset="1" stop-color="#BF9033"/>
</linearGradient>
<linearGradient id="paint2_linear_8_8257" x1="37.7121" y1="220.756" x2="50.782" y2="222.771" gradientUnits="userSpaceOnUse">
<stop stop-color="#F0DB92"/>
<stop offset="1" stop-color="#BF9033"/>
</linearGradient>
<linearGradient id="paint3_linear_8_8257" x1="44.5473" y1="213.311" x2="70.6788" y2="220.193" gradientUnits="userSpaceOnUse">
<stop stop-color="#F0DB92"/>
<stop offset="1" stop-color="#BF9033"/>
</linearGradient>
<linearGradient id="paint4_linear_8_8257" x1="0.624573" y1="175.884" x2="54.2871" y2="235.18" gradientUnits="userSpaceOnUse">
<stop stop-color="#F0DB92"/>
<stop offset="1" stop-color="#BF9033"/>
</linearGradient>
<linearGradient id="paint5_linear_8_8257" x1="31.5328" y1="193.868" x2="47.827" y2="198.52" gradientUnits="userSpaceOnUse">
<stop stop-color="#F0DB92"/>
<stop offset="1" stop-color="#BF9033"/>
</linearGradient>
<linearGradient id="paint6_linear_8_8257" x1="37.6315" y1="175.318" x2="60.2596" y2="180.178" gradientUnits="userSpaceOnUse">
<stop stop-color="#F0DB92"/>
<stop offset="1" stop-color="#BF9033"/>
</linearGradient>
<linearGradient id="paint7_linear_8_8257" x1="40.8645" y1="157.467" x2="101.707" y2="195.097" gradientUnits="userSpaceOnUse">
<stop stop-color="#F0DB92"/>
<stop offset="1" stop-color="#BF9033"/>
</linearGradient>
<linearGradient id="paint8_linear_8_8257" x1="14.8941" y1="207.32" x2="46.0871" y2="216.091" gradientUnits="userSpaceOnUse">
<stop stop-color="#F0DB92"/>
<stop offset="1" stop-color="#BF9033"/>
</linearGradient>
<linearGradient id="paint9_linear_8_8257" x1="26.7942" y1="222.366" x2="46.1069" y2="231.521" gradientUnits="userSpaceOnUse">
<stop stop-color="#F0DB92"/>
<stop offset="1" stop-color="#BF9033"/>
</linearGradient>
<linearGradient id="paint10_linear_8_8257" x1="8.00677" y1="143.968" x2="78.284" y2="190.353" gradientUnits="userSpaceOnUse">
<stop stop-color="#F0DB92"/>
<stop offset="1" stop-color="#BF9033"/>
</linearGradient>
<linearGradient id="paint11_linear_8_8257" x1="31.5257" y1="209.401" x2="56.4967" y2="220.929" gradientUnits="userSpaceOnUse">
<stop stop-color="#F0DB92"/>
<stop offset="1" stop-color="#BF9033"/>
</linearGradient>
</defs>
</svg>
