<svg width="92" height="16" viewBox="0 0 92 16" fill="none" xmlns="http://www.w3.org/2000/svg">
<path d="M7.62284 0L9.6391 4.84768L14.8726 5.26725L10.8852 8.68285L12.1034 13.7898L7.62284 11.0531L3.14225 13.7898L4.36045 8.68285L0.373088 5.26725L5.60657 4.84768L7.62284 0Z" fill="url(#paint0_linear_8_12108)"/>
<path d="M26.6799 0L28.6962 4.84768L33.9297 5.26725L29.9423 8.68285L31.1605 13.7898L26.6799 11.0531L22.1993 13.7898L23.4175 8.68285L19.4302 5.26725L24.6637 4.84768L26.6799 0Z" fill="url(#paint1_linear_8_12108)"/>
<path d="M45.737 0L47.7533 4.84768L52.9868 5.26725L48.9994 8.68285L50.2176 13.7898L45.737 11.0531L41.2564 13.7898L42.4746 8.68285L38.4873 5.26725L43.7208 4.84768L45.737 0Z" fill="url(#paint2_linear_8_12108)"/>
<path d="M64.7941 0L66.8104 4.84768L72.0438 5.26725L68.0565 8.68285L69.2747 13.7898L64.7941 11.0531L60.3135 13.7898L61.5317 8.68285L57.5444 5.26725L62.7778 4.84768L64.7941 0Z" fill="url(#paint3_linear_8_12108)"/>
<path d="M83.8512 0L85.8675 4.84768L91.1009 5.26725L87.1136 8.68285L88.3318 13.7898L83.8512 11.0531L79.3706 13.7898L80.5888 8.68285L76.6015 5.26725L81.8349 4.84768L83.8512 0Z" fill="url(#paint4_linear_8_12108)"/>
<defs>
<linearGradient id="paint0_linear_8_12108" x1="1.55286" y1="2.97771" x2="14.3062" y2="11.3314" gradientUnits="userSpaceOnUse">
<stop stop-color="#F0DB92"/>
<stop offset="1" stop-color="#BF9033"/>
</linearGradient>
<linearGradient id="paint1_linear_8_12108" x1="20.6099" y1="2.97771" x2="33.3633" y2="11.3314" gradientUnits="userSpaceOnUse">
<stop stop-color="#F0DB92"/>
<stop offset="1" stop-color="#BF9033"/>
</linearGradient>
<linearGradient id="paint2_linear_8_12108" x1="39.6671" y1="2.97771" x2="52.4204" y2="11.3314" gradientUnits="userSpaceOnUse">
<stop stop-color="#F0DB92"/>
<stop offset="1" stop-color="#BF9033"/>
</linearGradient>
<linearGradient id="paint3_linear_8_12108" x1="58.7241" y1="2.97771" x2="71.4775" y2="11.3314" gradientUnits="userSpaceOnUse">
<stop stop-color="#F0DB92"/>
<stop offset="1" stop-color="#BF9033"/>
</linearGradient>
<linearGradient id="paint4_linear_8_12108" x1="77.7812" y1="2.97771" x2="90.5346" y2="11.3314" gradientUnits="userSpaceOnUse">
<stop stop-color="#F0DB92"/>
<stop offset="1" stop-color="#BF9033"/>
</linearGradient>
</defs>
</svg>
