<svg width="221" height="82" viewBox="0 0 221 82" fill="none" xmlns="http://www.w3.org/2000/svg">
<path d="M74.6915 68.1079C71.7357 65.2432 70.4861 63.214 70.4861 62.0346C70.4861 61.2253 71.0651 60.1374 72.6766 58.7931C74.0209 57.72 74.9137 56.5143 74.9137 55.4375V51.7963C71.6355 55.8295 67.7871 57.9615 63.8088 57.9615C59.7833 57.9615 56.2965 56.4891 53.3405 53.5403L53.3477 53.5257H56.9556C60.2339 53.5257 63.3915 52.7748 66.428 51.2694C68.1592 50.4112 69.7988 49.3267 71.3465 48.0148C73.2583 46.3942 75.2487 44.2974 77.001 42.4824V53.7871C77.001 56.7258 77.2233 57.3995 74.8044 59.5893C73.7336 60.5587 72.6766 61.3396 72.6766 62.0458C72.7829 62.8003 72.8431 63.6225 73.8971 64.4879C74.4511 62.1912 76.8993 60.8607 78.6433 60.3815C81.5143 59.5923 83.4291 59.1049 83.8003 55.9988C83.8266 55.7783 83.8498 54.7488 83.8603 54.5008L85.9474 54.1522L85.9443 55.5187C85.9443 56.9727 85.4141 58.3723 84.4985 59.7272C83.1383 61.3058 81.4237 61.5952 79.6687 62.2542C77.2274 63.1712 74.6915 65.2812 74.6915 68.1079Z" fill="#372011"/>
<path d="M53.3044 53.5227C49.766 52.9293 46.8727 51.3468 44.6201 48.7718C42.3633 46.1895 41.2352 43.2079 41.2352 39.8232C41.2352 36.0579 42.6602 32.8344 45.5061 30.1458C48.3562 27.4609 51.7695 26.1167 55.7478 26.1167H57.7625C60.5023 26.1167 62.9344 27.4463 65.059 30.1057C67.183 32.7685 68.2421 36.0065 68.2421 39.8232C65.2456 37.7538 63.3371 36.9625 60.5756 36.7025C57.1947 36.3874 54.4733 36.4864 52.0371 39.2592C50.4802 41.032 49.7005 43.2334 49.7005 45.867C49.7005 48.5483 50.9053 51.0978 53.3121 53.5115L53.3044 53.5227ZM48.0888 48.6915C47.55 47.2921 47.2825 45.9476 47.2825 44.6582C47.2825 41.7572 48.3009 39.2848 50.345 37.2409C53.1834 34.4058 56.1729 33.9919 59.9562 34.219C61.641 34.3216 62.5973 34.6659 65.0182 35.7904C64.2126 33.6402 63.0041 31.8931 61.3924 30.5488C59.7768 29.2045 58.0299 28.5343 56.1504 28.5343C52.6562 28.5343 49.7005 29.6624 47.2825 31.9224C44.8614 34.1788 43.6526 36.9479 43.6526 40.2261C43.6526 44.1492 45.1326 46.9696 48.0888 48.6915Z" fill="#372011"/>
<path d="M18.5452 60.7822C14.7835 57.5584 12.9006 54.0643 12.9006 50.3021V42.2402H7.25613V48.6905C7.25613 51.8594 8.33308 54.6028 10.4832 56.9137C12.6334 59.2249 15.3219 60.5147 18.5452 60.7822Z" fill="#372011"/>
<path d="M42.1311 42.2401H15.3219V49.4963C15.3219 52.3462 16.2083 54.8847 17.9811 57.115C19.754 59.3458 22.091 60.8369 24.9956 61.5878L25.1311 61.5436L25.1824 61.6901C24.1275 62.1593 22.721 62.3972 20.9626 62.3972H18.5452C14.7286 62.3972 11.4905 61.0636 8.83135 58.4049C6.16839 55.7453 4.83868 52.5074 4.83868 48.6904V42.2401H1.61543C0.534736 42.2401 0 41.7275 0 41.0316C0 40.2257 0.538354 39.8228 1.61543 39.8228C16.9488 39.8228 26.8086 39.8228 42.1311 39.8228V42.2401Z" fill="#372011"/>
<path d="M25.1714 61.5289C26.7905 60.9611 28.5779 59.7196 30.2337 57.5583C32.2299 54.9539 33.999 53.5259 35.878 53.5259C36.9001 53.5259 37.7608 53.8222 38.4605 54.4156C39.1565 55.0052 39.5081 55.7855 39.5081 56.7526C39.5081 58.3642 38.7278 59.7084 37.1675 60.7816C35.6107 61.859 33.7023 62.3972 31.4459 62.3972C28.8123 62.3972 26.7942 62.1262 25.3986 61.5875C25.34 61.6169 25.2814 61.6465 25.2191 61.6753L25.1714 61.5289Z" fill="#372011"/>
<path d="M201.923 25.3585C200.871 24.9811 199.754 24.7138 198.571 24.5672L198.553 24.5636C197.648 24.4354 196.74 24.3694 195.861 24.3694C194.758 24.3694 193.692 24.4721 192.67 24.6771C191.641 24.8823 190.652 25.1863 189.711 25.5892V25.5928C188.769 25.9958 187.883 26.5011 187.055 27.1093C186.212 27.7246 185.429 28.439 184.7 29.2522L183.996 30.0396L183.374 29.1899C182.172 27.5709 180.74 26.3474 179.074 25.5196C177.392 24.688 175.469 24.2523 173.304 24.2046V24.2082H173.235C173.052 24.2082 172.905 24.2338 172.792 24.2851C172.7 24.3218 172.627 24.384 172.565 24.4645C172.469 24.5929 172.4 24.7247 172.356 24.8565C172.312 24.9811 172.29 25.1168 172.29 25.2595C172.29 25.4097 172.312 25.5525 172.356 25.6844C172.404 25.82 172.477 25.9518 172.575 26.0799L172.59 26.1057C172.656 26.1972 172.744 26.2667 172.843 26.3144C172.975 26.373 173.136 26.406 173.337 26.4133V26.417C175.612 26.472 177.554 27.047 179.162 28.1386C180.755 29.2263 182 30.8123 182.89 32.8967C182.934 32.9883 182.985 33.0652 183.041 33.1311C183.081 33.175 183.121 33.2079 183.165 33.2337L183.176 33.2446C183.234 33.274 183.3 33.2996 183.374 33.3178C183.45 33.3363 183.55 33.3472 183.659 33.3472C183.879 33.3472 184.085 33.2996 184.267 33.2043C184.458 33.1091 184.637 32.9626 184.806 32.7612C185.454 31.7464 186.172 30.8564 186.96 30.0873C187.769 29.2959 188.648 28.6403 189.593 28.1129C190.542 27.5891 191.539 27.1935 192.582 26.9298C193.63 26.6696 194.721 26.5379 195.861 26.5379C196.326 26.5379 196.82 26.5634 197.34 26.6147C197.846 26.6624 198.348 26.7356 198.835 26.8272V26.8309C201.175 27.2704 203.143 28.1678 204.736 29.5194C206.336 30.8746 207.549 32.6768 208.373 34.9186L208.38 34.9441C208.662 35.794 208.893 36.6474 209.08 37.5119C209.263 38.3836 209.406 39.2773 209.505 40.2042C209.604 41.0942 209.677 41.9952 209.725 42.9074C209.776 43.8633 209.798 44.7937 209.798 45.7058C209.798 46.4237 209.791 47.2478 209.768 48.1782C209.754 49.0244 209.728 49.8557 209.692 50.6727V50.6763C209.626 52.1816 209.593 53.6798 209.593 55.1598V61.2916V62.1522H208.732H203.882H203.018V61.2916V51.233C203.018 50.8487 203.025 50.3357 203.04 49.7206C203.047 49.1964 203.062 48.6799 203.08 48.1636V48.1563C203.102 47.5958 203.121 47.0501 203.131 46.5189C203.143 46.072 203.146 45.5227 203.146 44.8705C203.146 44.3103 203.135 43.7864 203.113 43.303C203.088 42.7792 203.055 42.2627 203.003 41.7498C202.955 41.237 202.886 40.739 202.798 40.2554C202.714 39.7865 202.608 39.3104 202.48 38.8233C202.263 38.0687 201.974 37.3727 201.608 36.7354C201.241 36.0944 200.805 35.512 200.292 34.9918C199.798 34.4899 199.237 34.0761 198.611 33.7611C197.978 33.4386 197.278 33.2116 196.505 33.0761C196.084 33.0175 195.659 32.9846 195.23 32.9846C193.838 32.9846 192.567 33.2959 191.424 33.9187C190.274 34.5448 189.234 35.4937 188.304 36.761C187.901 37.38 187.571 38.021 187.315 38.6839C187.055 39.3507 186.868 40.0394 186.751 40.7536C186.638 41.4824 186.55 42.2369 186.487 43.0209C186.429 43.7682 186.399 44.5301 186.399 45.3065V47.31H186.396C186.407 47.6178 186.414 47.9402 186.422 48.2735C186.429 48.7242 186.432 49.05 186.432 49.2554V61.2916V62.1522H185.571H180.744H179.883V61.2916V44.6986C179.883 43.8341 179.861 42.9769 179.806 42.1455C179.78 41.7352 179.736 41.3214 179.674 40.9112C179.612 40.4934 179.535 40.0944 179.44 39.706C179.18 38.6951 178.806 37.772 178.319 36.9404C177.839 36.1162 177.242 35.3801 176.524 34.728C175.828 34.0908 175.063 33.6144 174.235 33.2996C173.399 32.9846 172.488 32.8271 171.499 32.8271C171.316 32.8271 171.183 32.8271 171.099 32.8307C171.008 32.8344 170.883 32.8417 170.722 32.8563C169.869 32.9442 169.085 33.1311 168.378 33.4095C167.678 33.6879 167.045 34.0651 166.473 34.5375L165.151 35.6329V41.6276C165.182 41.3759 165.221 41.1274 165.268 40.8817C165.393 40.2444 165.572 39.6143 165.807 38.9954V38.9918C166.056 38.3435 166.403 37.7499 166.84 37.2188C167.275 36.6914 167.799 36.2298 168.411 35.8344L168.47 35.7977C168.942 35.5412 169.418 35.3471 169.902 35.2189C170.396 35.0834 170.891 35.0173 171.396 35.0173C171.817 35.0173 172.238 35.065 172.663 35.1604C173.074 35.2518 173.48 35.3911 173.879 35.5779C174.286 35.7646 174.663 35.9991 175.012 36.2811C175.356 36.5632 175.667 36.8856 175.942 37.2519L175.953 37.2701C176.323 37.7903 176.623 38.3359 176.861 38.9038C177.095 39.4752 177.264 40.0686 177.367 40.6913C177.466 41.2738 177.535 41.8525 177.579 42.4349C177.623 43.0245 177.645 43.6106 177.645 44.1967V63.2367C177.645 63.3937 177.67 63.5366 177.722 63.6574C177.777 63.7856 177.861 63.9067 177.978 64.0164L177.989 64.0278C178.103 64.1446 178.224 64.229 178.348 64.2805C178.466 64.3318 178.604 64.3571 178.762 64.3571H187.553C187.707 64.3571 187.842 64.3318 187.963 64.2805C188.084 64.229 188.201 64.1446 188.308 64.0349C188.421 63.9179 188.505 63.7933 188.56 63.6652C188.612 63.5407 188.638 63.3978 188.638 63.2367C188.638 61.7089 188.634 60.6027 188.63 59.9213C188.626 58.8186 188.615 57.713 188.605 56.6066C188.593 55.5075 188.586 54.4013 188.579 53.2955C188.572 51.7572 188.568 50.6433 188.568 49.9619C188.568 49.0575 188.575 47.9364 188.586 46.6105C188.601 45.4861 188.615 44.3725 188.641 43.2772C188.652 42.4349 188.758 41.6181 188.956 40.8305C189.154 40.0319 189.447 39.2554 189.828 38.5008L189.831 38.4935C190.249 37.6876 190.795 37.0174 191.469 36.4827C192.143 35.9514 192.93 35.5632 193.828 35.3215L193.861 35.3142C194.095 35.263 194.326 35.2226 194.549 35.1968C194.787 35.1677 195.014 35.153 195.23 35.153C195.784 35.153 196.304 35.2299 196.787 35.3874C197.275 35.5412 197.717 35.7795 198.117 36.098V36.0944C198.491 36.3874 198.824 36.7244 199.124 37.1089C199.417 37.4863 199.674 37.9002 199.893 38.3544L199.9 38.3653C200.106 38.8123 200.278 39.2736 200.413 39.761C200.549 40.2481 200.644 40.7426 200.707 41.2443C200.787 41.889 200.85 42.5631 200.89 43.2554C200.934 43.9549 200.955 44.6398 200.955 45.3065C200.955 45.7424 200.948 46.2699 200.934 46.8889C200.923 47.4346 200.905 47.9548 200.882 48.4566C200.857 48.9838 200.842 49.4896 200.831 49.9732C200.82 50.3835 200.817 50.8817 200.817 51.4749V63.2367C200.817 63.3937 200.842 63.5366 200.897 63.6612C200.948 63.7893 201.033 63.9102 201.15 64.0242C201.263 64.1412 201.384 64.2255 201.508 64.2768C201.637 64.3281 201.78 64.3571 201.933 64.3571H210.677C210.834 64.3571 210.977 64.3281 211.102 64.2768C211.226 64.2255 211.347 64.1412 211.464 64.0242L211.468 64.0278C211.578 63.9139 211.662 63.7893 211.717 63.6612C211.768 63.5366 211.798 63.3937 211.798 63.2367V43.9001C211.798 42.8376 211.758 41.7902 211.677 40.7536C211.597 39.706 211.472 38.6693 211.307 37.6512V37.6439C211.15 36.6401 210.911 35.651 210.593 34.673C210.274 33.7025 209.882 32.7575 209.417 31.8307H209.413C208.853 30.7759 208.205 29.8382 207.461 29.0177C206.717 28.1936 205.875 27.4755 204.937 26.8603H204.934C203.985 26.2412 202.981 25.7392 201.923 25.3585Z" fill="#372011"/>
<path d="M146.846 32.5267C146.729 32.4754 146.594 32.446 146.439 32.446H142.081C141.887 32.446 141.726 32.4754 141.605 32.5303C141.498 32.578 141.407 32.6475 141.33 32.7429C141.227 32.8783 141.151 33.0138 141.103 33.1492C141.055 33.2812 141.033 33.4204 141.033 33.567C141.033 33.7133 141.055 33.8525 141.103 33.9809C141.151 34.12 141.227 34.2518 141.327 34.3838C141.4 34.468 141.484 34.5302 141.583 34.5705C141.715 34.6255 141.879 34.6511 142.081 34.6511H144.495H145.356V35.5119V61.2916V62.1521H144.495H139.634H138.774V61.2916V27.7979V26.9371H139.634H143.751C143.964 26.9371 144.136 26.9115 144.264 26.8527C144.367 26.8126 144.447 26.7503 144.51 26.6659L144.513 26.6514C144.615 26.5232 144.689 26.3914 144.736 26.2558C144.781 26.1239 144.803 25.981 144.803 25.8309C144.803 25.6879 144.781 25.5525 144.736 25.4243C144.689 25.2925 144.615 25.1605 144.513 25.0323L144.51 25.0177C144.374 24.8383 144.121 24.7466 143.751 24.7466H137.689C137.524 24.7466 137.381 24.7724 137.257 24.82C137.136 24.8713 137.015 24.9482 136.898 25.0544H136.902C136.781 25.1753 136.697 25.2961 136.645 25.417C136.594 25.5342 136.568 25.6733 136.568 25.8309V63.2366C136.568 63.3937 136.594 63.5366 136.649 63.6611C136.7 63.7893 136.785 63.9102 136.895 64.0201C137.011 64.1375 137.136 64.2218 137.272 64.2767C137.396 64.3317 137.536 64.3571 137.689 64.3571H146.439C146.601 64.3571 146.736 64.3317 146.857 64.2804C146.978 64.2289 147.099 64.1445 147.216 64.0241L147.22 64.0277C147.337 63.9067 147.425 63.7822 147.48 63.6503C147.532 63.5295 147.561 63.3902 147.561 63.2366V33.5303C147.561 33.4022 147.535 33.2776 147.484 33.1641C147.429 33.0359 147.337 32.9112 147.216 32.7903C147.095 32.6694 146.971 32.5817 146.846 32.5267Z" fill="#372011"/>
<path d="M127.81 33.428C127.312 32.3549 126.711 31.3255 126.005 30.3402C124.448 28.3403 122.653 26.8275 120.616 25.8055C118.58 24.7837 116.287 24.238 113.741 24.1719V24.1755H113.705C113.51 24.1755 113.349 24.2012 113.228 24.2526C113.13 24.2929 113.049 24.3588 112.979 24.4466H112.976C112.88 24.5748 112.803 24.7067 112.759 24.8423C112.712 24.9668 112.69 25.1061 112.69 25.2598C112.69 25.4028 112.715 25.5346 112.759 25.6591C112.811 25.8018 112.891 25.9375 112.99 26.062C113.063 26.1573 113.166 26.2342 113.291 26.2928C113.429 26.3588 113.602 26.399 113.8 26.4136V26.4173C116.389 26.5124 118.653 27.1573 120.594 28.3476C122.547 29.5417 124.158 31.2816 125.429 33.56L125.44 33.5783C125.924 34.4977 126.316 35.4354 126.62 36.3914C126.92 37.34 127.136 38.3216 127.272 39.3364V39.3437C127.396 40.3107 127.488 41.2923 127.55 42.2886C127.616 43.2775 127.645 44.2483 127.645 45.2042V61.1891V62.0499H126.785H121.957H121.096V61.1891V46.1419C121.096 45.3764 121.081 44.6659 121.056 44.0102C121.03 43.3398 120.993 42.6402 120.938 41.9187C120.884 41.2556 120.777 40.6073 120.62 39.9699C120.463 39.3253 120.254 38.6918 120.001 38.069C119.594 37.1899 119.104 36.4133 118.521 35.7358C117.942 35.0617 117.276 34.4866 116.514 34.0104C115.741 33.538 114.935 33.1826 114.1 32.9446C113.261 32.7066 112.382 32.5857 111.463 32.5857C111.151 32.5857 110.84 32.6002 110.529 32.6258C110.21 32.6516 109.899 32.6919 109.598 32.7432C108.671 32.9373 107.818 33.234 107.031 33.6332C106.251 34.0325 105.543 34.5306 104.913 35.1276L103.649 36.3311V42.1507C103.667 42.0535 103.685 41.9566 103.705 41.8601C103.855 41.1274 104.071 40.4205 104.35 39.7319L104.353 39.7282C104.646 39.0176 105.027 38.362 105.496 37.7612C105.965 37.1641 106.522 36.6221 107.163 36.1423L107.199 36.1129C107.877 35.6587 108.576 35.3218 109.302 35.0948C110.034 34.8676 110.789 34.7541 111.565 34.7541C112.254 34.7541 112.932 34.8494 113.595 35.0434C114.246 35.2338 114.876 35.5159 115.481 35.897L115.525 35.9262C116.052 36.3072 116.51 36.7247 116.891 37.179V37.1826C117.283 37.6478 117.598 38.1531 117.843 38.699C118.078 39.2154 118.268 39.754 118.415 40.3069C118.558 40.8748 118.657 41.4499 118.708 42.0322H118.704C118.755 42.5926 118.796 43.1421 118.818 43.6805C118.847 44.2629 118.858 44.805 118.858 45.3068V63.1709C118.858 63.3102 118.884 63.4347 118.935 63.5482C118.99 63.6763 119.078 63.8008 119.202 63.9218V63.9253C119.316 64.0427 119.437 64.1267 119.561 64.178C119.682 64.2293 119.818 64.2548 119.975 64.2548H128.766C128.905 64.2548 129.034 64.2293 129.151 64.178C129.276 64.123 129.4 64.0386 129.521 63.9253L129.517 63.9218C129.635 63.8043 129.723 63.6838 129.773 63.5629C129.825 63.4455 129.851 63.3137 129.851 63.1709V44.0029C129.851 42.7795 129.778 41.567 129.635 40.3692C129.488 39.1606 129.272 37.9664 128.982 36.7906C128.7 35.6295 128.308 34.5087 127.81 33.428Z" fill="#372011"/>
<path d="M76.1623 17.846C75.6623 17.1698 75.2881 16.4523 75.0388 15.6937C72.0409 6.56738 80.7311 -1.78897 89.6091 0.333216C93.1941 1.19022 96.1639 3.79746 96.9304 8.1101C97.4233 10.884 96.8195 13.8603 94.4873 15.7695C94.3259 10.1668 80.7275 10.4354 76.1887 17.8452L76.1623 17.846Z" fill="#372011"/>
<path d="M75.6199 22.3399C76.2999 22.4837 77.4857 22.2521 77.905 21.6524C78.5356 20.7505 77.7924 19.7206 77.2259 19.0259C76.9571 18.6961 76.6232 18.316 76.2244 17.8857L76.1864 17.8838C75.8674 18.1991 75.4122 18.6818 75.0481 19.2162C74.3331 20.2659 74.0964 22.0173 75.6199 22.3399Z" fill="#372011"/>
<path d="M137.682 13.7111C137.528 13.7111 137.392 13.7403 137.275 13.7916C137.151 13.8466 137.026 13.9344 136.905 14.0552C136.784 14.1762 136.693 14.3007 136.638 14.4289C136.586 14.5425 136.561 14.667 136.561 14.7951V19.8802C136.561 20.0341 136.59 20.1732 136.641 20.2941C136.696 20.4261 136.784 20.5506 136.902 20.6715L136.905 20.6678C137.022 20.7887 137.143 20.8729 137.264 20.9242C137.385 20.9754 137.52 21.001 137.682 21.001H146.432C146.586 21.001 146.725 20.9754 146.85 20.9205C146.986 20.8656 147.11 20.7811 147.227 20.6642C147.337 20.5543 147.421 20.4334 147.473 20.305C147.527 20.1805 147.553 20.0377 147.553 19.8802V8.86238C147.553 8.70502 147.527 8.56575 147.476 8.44848C147.425 8.32765 147.34 8.20676 147.22 8.08593H147.223C147.106 7.97964 146.986 7.90283 146.865 7.85152C146.74 7.80383 146.597 7.77832 146.432 7.77832H140.37C140 7.77832 139.747 7.86972 139.612 8.04921L139.608 8.0638C139.506 8.19217 139.432 8.32397 139.384 8.45583C139.341 8.58395 139.319 8.71961 139.319 8.86238C139.319 9.01263 139.341 9.15541 139.384 9.28721C139.432 9.42287 139.506 9.55472 139.608 9.68285L139.612 9.69768C139.674 9.78185 139.755 9.84408 139.857 9.88442C139.985 9.94302 140.158 9.96858 140.37 9.96858H144.487H145.348V10.8294V17.9353V18.7961H144.487H139.626H138.766V17.9353V16.7768V15.916H139.626H142.04C142.242 15.916 142.406 15.8904 142.539 15.8354C142.637 15.7951 142.722 15.7329 142.795 15.6487C142.894 15.5169 142.971 15.3849 143.018 15.2458C143.066 15.1176 143.088 14.9783 143.088 14.8319C143.088 14.6852 143.066 14.5461 143.018 14.4143C142.971 14.2787 142.894 14.1432 142.791 14.0077C142.714 13.9125 142.623 13.8429 142.517 13.7952C142.396 13.7403 142.235 13.7111 142.04 13.7111H137.682Z" fill="#372011"/>
<path fill-rule="evenodd" clip-rule="evenodd" d="M26.5875 39.8232C28.6157 39.3953 30.3222 37.9945 30.6761 35.9286L30.7553 35.2843C30.7699 35.0837 30.7961 34.8626 30.8082 34.6573C30.8658 33.6798 30.8664 32.9789 30.7503 32.0326C30.7161 31.7529 30.5023 30.3883 30.4102 30.2069C30.3216 29.7163 29.9554 28.7341 29.7833 28.274L29.4313 27.4759C29.2763 27.1909 28.9878 26.564 28.8194 26.3147L27.9749 24.9837C27.9169 24.896 27.8636 24.8357 27.8059 24.7485C27.7782 24.7065 27.758 24.6722 27.7291 24.6321C27.6964 24.5867 27.6757 24.5723 27.6426 24.5222C27.614 24.479 27.5909 24.4373 27.5591 24.3976L27.12 23.8269C27.0879 23.7883 27.0686 23.7583 27.0341 23.7165L26.1928 22.7309C26.1222 22.6548 26.0597 22.5931 25.9929 22.5181C25.9564 22.477 25.924 22.4485 25.884 22.4082C25.4066 21.9302 25.0376 21.5592 24.4734 21.1183L23.5494 20.431C23.4764 20.3757 23.5208 20.4166 23.517 20.3886C23.4611 20.3738 22.6138 19.8109 22.4629 19.7247C21.7962 19.3436 21.4007 19.1198 20.6883 18.7921C20.5758 18.7404 20.4648 18.6909 20.3383 18.6382C19.8637 18.4404 18.5914 17.9379 18.0873 17.8359C18.0358 17.8045 17.3955 17.6333 17.289 17.6122C17.1282 17.5803 17.0281 17.5439 16.8755 17.5134C16.732 17.4847 16.5886 17.4554 16.4452 17.4264L15.5978 17.2543C15.5207 17.2396 15.5127 17.2495 15.4459 17.2397C15.3378 17.2238 15.2304 17.1852 15.1222 17.1784L14.4857 17.0917C14.3771 17.0752 14.2679 17.0528 14.159 17.0454C14.0796 17.04 13.9496 17.0297 13.8578 17.0111C13.3294 16.9435 12.3869 16.903 11.8912 16.8851C10.7555 16.8439 8.63156 17.0378 7.49962 17.3438C7.4251 17.3639 7.36144 17.3797 7.29217 17.3996C7.19299 17.428 6.78444 17.6014 6.72692 17.5948C6.74199 17.5281 6.75398 17.534 6.80011 17.5111L7.26798 17.3049L7.8779 17.1189C8.62318 16.933 9.28081 16.8132 10.0556 16.7557C10.676 16.7096 11.2956 16.6711 11.9406 16.6685C12.271 16.6672 13.5492 16.6829 13.9301 16.7318L14.8886 16.8264C15.0593 16.8358 15.4354 16.9057 15.5497 16.9113C15.6729 16.9175 16.0808 16.9962 16.2166 17.0246C16.3362 17.0495 16.4157 17.0492 16.5471 17.0757C16.7157 17.1099 18.1173 17.415 18.1922 17.4705L18.9862 17.6956C20.6572 18.2193 21.9127 18.8267 23.3714 19.688L23.6668 19.8774L24.1649 20.2036C24.2527 20.2633 24.3284 20.3116 24.4126 20.3739L25.1191 20.9086L26.2147 21.856C26.7648 22.3824 27.6673 23.3427 28.0993 23.9491L28.3478 24.286C28.3802 24.3348 28.4018 24.3485 28.4345 24.3957L28.5975 24.6221C28.7037 24.7804 28.7998 24.9279 28.9053 25.0869L29.7004 26.4756C29.724 26.5242 29.715 26.4871 29.7278 26.5458C29.7619 26.5823 29.7848 26.6387 29.8096 26.687C30.1747 27.3987 30.382 27.9463 30.681 28.6692L30.7965 28.9857C30.8518 29.0648 31.1283 29.948 31.1642 30.0726C31.1769 30.1168 31.1903 30.1441 31.203 30.1884C31.3869 30.827 31.4887 31.3236 31.6018 31.9951C31.7323 32.7702 31.7565 33.469 31.7541 34.2613C31.7359 37.3136 31.3742 38.8068 30.8374 39.8232H26.5875Z" fill="url(#paint0_linear_8_12649)"/>
<path fill-rule="evenodd" clip-rule="evenodd" d="M32.4556 36.3819C32.5122 36.3933 32.697 36.2886 32.7474 36.2593L33.6707 35.6342C33.9711 35.3877 34.2401 35.14 34.4982 34.8453C34.7101 34.6035 34.7327 34.5585 34.9131 34.3266C35.3189 33.8051 35.7231 32.9241 35.8545 32.2742C36.03 31.4068 36.0255 30.835 35.8733 29.9974C35.8617 29.9333 35.8447 29.8215 35.8155 29.7783C35.7572 29.6921 35.7032 29.7183 35.6199 29.7486L35.1083 29.9666C34.6321 30.2053 34.5118 30.2925 34.1009 30.6006C33.9813 30.6903 33.8862 30.7828 33.7736 30.883C33.7182 30.9324 33.6691 30.9826 33.6176 31.0357C33.4454 31.2134 33.3254 31.3594 33.1791 31.5577C32.5246 32.4447 32.1895 33.5977 32.2049 34.7342C32.2132 35.3435 32.2542 35.6659 32.3544 36.256C32.3648 36.3167 32.3853 36.3676 32.4556 36.3819Z" fill="url(#paint1_linear_8_12649)"/>
<path fill-rule="evenodd" clip-rule="evenodd" d="M25.4083 28.8145C25.157 28.7915 24.6232 28.8972 24.3925 28.9596C24.1187 29.0336 23.8511 29.1284 23.5952 29.2512C23.4322 29.3294 23.5541 29.5077 23.6531 29.6775C23.7495 29.8428 23.9158 30.1396 24.027 30.2785C24.4245 30.7752 24.72 31.1635 25.2949 31.5473C25.6449 31.7809 25.8493 31.8908 26.2504 32.0456C26.8731 32.286 27.8105 32.3607 28.4725 32.2194C28.4757 32.2188 28.5017 32.2119 28.5039 32.2111C28.5337 32.201 28.5158 32.209 28.5297 32.1995C28.6022 32.2005 28.6861 32.1798 28.7562 32.1628L29.3738 31.9884C29.447 31.9651 29.9056 31.8029 29.9518 31.7532C30.0151 31.6852 29.9768 31.6074 29.941 31.5526C29.5866 31.0096 29.3426 30.7499 28.8739 30.2922L28.3874 29.8816C27.8329 29.4873 27.1689 29.0742 26.4899 28.9404C26.2197 28.8872 25.6734 28.7747 25.4083 28.8145Z" fill="url(#paint2_linear_8_12649)"/>
<path fill-rule="evenodd" clip-rule="evenodd" d="M14.8418 15.354C14.8412 15.286 14.7503 15.1733 14.7117 15.115C14.6572 15.033 14.6175 14.9627 14.5517 14.8866C14.3969 14.7075 14.4163 14.692 14.1782 14.4525C13.8444 14.1168 13.3191 13.7606 12.8467 13.6505C12.396 13.5454 12.2307 13.531 11.7668 13.5561C11.4962 13.5708 10.875 13.7062 10.5971 13.8291C10.466 13.8869 10.5293 13.9905 10.5753 14.0767L11.1143 14.9027C11.9234 15.8536 12.9317 16.5393 14.3315 16.3491C14.5507 16.3201 14.5941 16.2997 14.7743 16.2664C14.8527 16.2519 14.8999 16.2289 14.9794 16.2069C15.0314 16.1925 15.1417 16.1636 15.1684 16.1211C15.2071 16.0595 15.1538 15.9702 15.1318 15.9169C15.1022 15.8452 15.0793 15.797 15.0495 15.7271L14.9094 15.4472C14.8808 15.3902 14.8983 15.3953 14.8418 15.354Z" fill="url(#paint3_linear_8_12649)"/>
<path fill-rule="evenodd" clip-rule="evenodd" d="M24.9986 36.064C25.1169 36.1964 25.7025 36.4605 25.894 36.5406C26.1515 36.6483 26.2466 36.6479 26.4436 36.7164C26.5298 36.7463 26.6324 36.7656 26.7427 36.7881L27.3186 36.8611C27.423 36.8691 27.4974 36.8755 27.5998 36.8777C28.312 36.8926 28.9034 36.78 29.565 36.6012C29.7192 36.5595 29.8658 36.5114 30.0122 36.4607C30.2998 36.3613 30.0723 36.1742 29.9071 35.9238C29.8369 35.8171 29.5687 35.5116 29.4718 35.4022C29.3667 35.2837 29.2636 35.1868 29.1496 35.0755C28.925 34.8565 28.6897 34.6617 28.4308 34.469C28.358 34.4022 28.0881 34.226 27.9856 34.1623L27.4908 33.8766C27.3598 33.8209 27.2375 33.7576 27.099 33.6956C26.9838 33.6441 26.7884 33.5643 26.6584 33.538C26.6346 33.5157 26.6115 33.5149 26.5729 33.5042C26.268 33.4203 26.2517 33.3973 25.8789 33.3334C25.6435 33.2931 25.3465 33.279 25.1047 33.2721C24.7809 33.2627 24.3912 33.3151 24.0773 33.3716C24.017 33.3824 23.9812 33.3916 23.9207 33.4072C23.513 33.5117 23.558 33.5029 23.1614 33.6395C22.9314 33.7187 23.0472 33.8462 23.2126 34.1512L23.5498 34.6608C23.5941 34.7223 23.8609 35.101 23.9387 35.138C23.9603 35.1944 24.2617 35.4988 24.3332 35.5474C24.3681 35.6048 24.8987 36.034 24.9986 36.064Z" fill="url(#paint4_linear_8_12649)"/>
<path fill-rule="evenodd" clip-rule="evenodd" d="M8.48693 20.3637C8.6988 20.4066 9.03428 20.3598 9.22607 20.3336C9.57776 20.2856 9.9913 20.1591 10.3092 20.0076C10.3588 19.9839 10.4068 19.9645 10.4557 19.9375C10.6803 19.8133 10.8464 19.7157 11.0472 19.5492C11.0706 19.5299 11.0838 19.5233 11.1073 19.504L11.4536 19.1727C11.826 18.7806 12.1528 18.1523 12.3061 17.6264C12.3254 17.5601 12.4173 17.2819 12.4123 17.2192C12.4027 17.0989 12.242 17.1034 12.0956 17.0959C11.9616 17.089 11.831 17.0805 11.715 17.0845C11.1776 17.1029 10.7459 17.2058 10.2702 17.4471C10.2134 17.4759 10.1821 17.5008 10.1305 17.5274L9.92926 17.6508C9.89706 17.6753 9.89579 17.6826 9.86354 17.7069C9.04138 18.325 8.62892 19.2798 8.42766 20.2744C8.42067 20.309 8.45232 20.3567 8.48693 20.3637Z" fill="url(#paint5_linear_8_12649)"/>
<path fill-rule="evenodd" clip-rule="evenodd" d="M25.8357 19.8637C26.0116 20.7308 26.5431 21.5908 27.2423 22.1371C27.4476 22.2975 27.4413 22.32 27.5769 22.0661C27.7366 21.7671 27.8693 21.3845 27.9745 21.0558C28.0048 20.9609 28.1024 20.5453 28.1068 20.4571C28.1142 20.307 28.1599 20.0933 28.1663 19.8902C28.1724 19.6951 28.1684 19.5412 28.1603 19.3538C28.1447 18.9918 28.0385 18.5165 27.9118 18.1806C27.8617 18.0477 27.6886 17.6349 27.6123 17.5662C27.5975 17.4878 27.5433 17.4292 27.4983 17.3613C27.452 17.2915 27.4142 17.2348 27.3679 17.1648C27.2771 17.0274 27.1774 16.9194 27.0768 16.7878C27.0462 16.7581 27.0235 16.7291 26.9921 16.6937C26.8085 16.4866 26.6007 16.3049 26.3965 16.1239C26.3478 16.0808 26.3336 16.0699 26.251 16.0532C26.2119 16.0919 26.2173 16.0686 26.1835 16.126C26.1638 16.1593 26.151 16.1953 26.1374 16.2312L25.9799 16.6918C25.8786 17.0118 25.8581 17.1589 25.7894 17.4916C25.7683 17.5936 25.7742 17.6396 25.7531 17.7473C25.7403 17.8128 25.7461 17.8246 25.7414 17.8709C25.7386 17.8973 25.7318 17.9195 25.7292 17.9433C25.7242 17.989 25.7269 17.9309 25.7273 17.9695C25.7276 18.0098 25.7229 17.981 25.733 18.0013C25.6992 18.1685 25.6982 18.3501 25.697 18.505C25.6939 18.9014 25.7122 19.2663 25.7873 19.6545C25.7989 19.7143 25.8151 19.8077 25.8357 19.8637Z" fill="url(#paint6_linear_8_12649)"/>
<path fill-rule="evenodd" clip-rule="evenodd" d="M31.0486 20.0936C31.0395 20.0345 30.9524 19.9372 30.9225 19.8756L30.5455 19.3281C30.5087 19.2854 30.4853 19.2515 30.4258 19.2601C30.2825 19.2809 29.8504 20.1249 29.7978 20.2358C29.7097 20.4216 29.6227 20.6103 29.5472 20.8083C29.4303 21.1146 29.1704 21.874 29.1586 22.1394C29.1532 22.259 29.1037 22.3815 29.0959 22.5027C29.0821 22.7173 29.0468 22.9228 29.0433 23.168C29.039 23.4716 29.0498 23.8094 29.096 24.098C29.1678 24.5466 29.2282 24.7728 29.3857 25.1923C29.4183 25.279 29.4475 25.3518 29.4861 25.4345L29.668 25.7899C29.6984 25.8383 29.7041 25.8641 29.7357 25.9122C29.8154 26.0338 29.8405 26.0923 29.919 26.1895C30.0348 26.333 30.1836 26.6696 30.3313 26.567C30.3855 26.5295 30.5465 26.3144 30.6071 26.2511C30.6494 26.1929 30.685 26.1408 30.7294 26.0808C30.7936 25.9938 31.0575 25.6031 31.0784 25.5223L31.21 25.2926C31.2538 25.2077 31.2911 25.1313 31.3304 25.0475C31.4051 24.8885 31.4859 24.689 31.5434 24.5153C31.786 23.7834 31.8669 23.1849 31.8111 22.4254L31.7404 21.9062C31.6832 21.5934 31.6608 21.5651 31.5884 21.2994C31.5721 21.2394 31.5683 21.2245 31.5411 21.1762C31.5393 21.117 31.5179 21.0903 31.4985 21.0374C31.4775 20.9805 31.4643 20.9441 31.4436 20.8937C31.3398 20.6407 31.1959 20.3234 31.0486 20.0936Z" fill="url(#paint7_linear_8_12649)"/>
<path fill-rule="evenodd" clip-rule="evenodd" d="M22.3734 23.4983C22.6889 23.5621 23.0518 23.5496 23.304 23.5184C23.615 23.4799 23.8142 23.4424 24.1169 23.3282C24.2674 23.2714 24.5005 23.165 24.6473 23.0804L24.9689 22.8668C25.0159 22.8354 25.1007 22.8042 25.0928 22.7286C25.085 22.6556 24.899 22.4734 24.843 22.4169C24.2953 21.8644 23.3812 21.258 22.5465 21.1356C22.3305 21.104 21.7277 21.0583 21.6005 21.1144C21.5187 21.1035 21.345 21.1403 21.2721 21.1538C21.166 21.1735 21.0648 21.1994 20.9605 21.2272C20.8484 21.2571 20.4615 21.3862 20.3949 21.4429C20.3074 21.4491 19.8002 21.7413 19.7084 21.8027C19.6598 21.8354 19.6238 21.86 19.5743 21.8916C19.4427 21.9758 19.4354 22.0277 19.5681 22.1468C19.804 22.3584 20.3644 22.788 20.672 22.922C20.7274 22.9679 20.9514 23.0645 21.0349 23.1036C21.1631 23.1637 21.2922 23.2189 21.44 23.2721C21.5804 23.3227 22.2228 23.5309 22.3734 23.4983Z" fill="url(#paint8_linear_8_12649)"/>
<path fill-rule="evenodd" clip-rule="evenodd" d="M1.3711 21.8939C1.49168 21.9183 1.78488 21.8728 1.89673 21.8523C2.06699 21.8212 2.22098 21.7754 2.37575 21.7211C2.86804 21.5483 3.40418 21.1898 3.71287 20.7695C4.0191 20.3527 4.19202 19.9547 4.3085 19.379C4.33497 19.2481 4.33805 19.1667 4.36023 19.0487C4.40021 18.8365 4.26118 18.8432 3.92487 18.8589C3.24018 18.8906 2.54801 19.1333 2.09473 19.6685C1.60087 20.2517 1.42446 20.8858 1.32835 21.6521C1.31852 21.7303 1.29085 21.8777 1.3711 21.8939Z" fill="url(#paint9_linear_8_12649)"/>
<path fill-rule="evenodd" clip-rule="evenodd" d="M23.9555 16.749C23.9605 16.6828 23.8099 16.406 23.7691 16.336C23.4856 15.8501 23.1356 15.408 22.6629 15.0886C22.5998 15.0459 22.4501 14.9279 22.3807 14.9214C22.3225 14.8344 21.8485 14.6374 21.766 14.6029C21.5449 14.5106 21.2726 14.4309 21.0194 14.3645C20.8065 14.3087 20.8725 14.771 20.8825 14.9704L20.9635 15.6568C20.9819 15.6941 20.9895 15.7664 20.9991 15.8193C21.039 16.0392 21.1747 16.5565 21.2566 16.7569C21.3492 16.9835 21.4096 17.1733 21.5339 17.4073L21.7734 17.8273C21.806 17.8763 21.8299 17.9123 21.8624 17.9613C21.9343 18.0699 21.9161 18.0779 21.9727 18.0849C21.9847 18.1358 21.9739 18.1076 22.0009 18.1531C22.0393 18.2176 22.2718 18.4694 22.321 18.519C22.4198 18.6183 22.6421 18.8244 22.7681 18.8934C22.8687 19.0065 23.3228 19.2244 23.4828 19.2921C23.6318 19.3551 23.7548 19.3912 23.927 19.4348C24.0736 19.4719 24.2668 19.5751 24.2965 19.3934C24.3653 18.9714 24.3386 18.3099 24.2748 17.8789C24.2686 17.8369 24.2638 17.7247 24.2321 17.6977C24.2483 17.5787 24.0284 16.8169 23.9555 16.749Z" fill="url(#paint10_linear_8_12649)"/>
<path fill-rule="evenodd" clip-rule="evenodd" d="M7.27306 17.8755C7.01229 17.9429 7.0513 17.9079 6.73995 18.0216C5.79588 18.3663 5.20858 19.1463 5.00256 20.1541C4.95987 20.3626 4.89053 21.1706 4.93629 21.3689C4.94992 21.4281 4.9762 21.4542 5.03897 21.4528C5.12302 21.4511 5.44564 21.3502 5.521 21.3234L5.89193 21.165C6.02572 21.1019 6.12509 21.032 6.24863 20.9656L6.46688 20.8099C6.57577 20.7275 6.7839 20.5363 6.86295 20.4376L7.0592 20.2094C7.12106 20.1304 7.17894 20.0383 7.2317 19.9458C7.60033 19.2999 7.70175 18.734 7.70018 18.0041C7.69988 17.8914 7.69885 17.9265 7.666 17.8467C7.54752 17.8227 7.36416 17.8529 7.27306 17.8755Z" fill="url(#paint11_linear_8_12649)"/>
<path fill-rule="evenodd" clip-rule="evenodd" d="M8.72169 16.4668C9.11076 16.5454 9.35549 16.5228 9.66877 16.4826C9.96481 16.4445 10.1072 16.3838 10.3569 16.298C10.4997 16.249 10.4638 16.1847 10.4132 16.0752C10.2817 15.7911 10.1385 15.504 9.93484 15.2604L9.77494 15.0578C8.90492 14.0831 7.84684 13.8312 6.62048 14.2537C6.55977 14.2747 6.32523 14.3549 6.29243 14.3809C6.19903 14.455 6.30895 14.5649 6.37328 14.6899C6.42037 14.7813 6.49024 14.907 6.56036 14.9775C6.95245 15.4886 7.36359 15.9323 7.97876 16.2237C8.27636 16.3646 8.3914 16.3999 8.72169 16.4668Z" fill="url(#paint12_linear_8_12649)"/>
<path fill-rule="evenodd" clip-rule="evenodd" d="M18.4477 21.0949C18.8117 21.0598 18.7127 21.1015 19.1495 21.0182C19.4851 20.9542 19.6641 20.8425 19.7906 20.8098C19.9046 20.7283 20.1321 20.6648 20.4631 20.3802C20.5689 20.2893 20.6661 20.209 20.7583 20.1076C20.8514 20.0053 21.0987 19.7347 21.1544 19.6189C21.1897 19.5459 21.1339 19.4911 21.0755 19.4481C20.955 19.3594 20.8492 19.2778 20.7127 19.1999C20.4801 19.0669 20.1219 18.8658 19.8515 18.8111C19.7585 18.7509 19.3329 18.6854 19.2181 18.6782C18.9216 18.6598 18.945 18.6596 18.6534 18.6803C17.8742 18.7354 17.0834 19.2593 16.572 19.8092C16.5113 19.8745 16.4679 19.9235 16.4097 19.9913C16.3557 20.0541 16.2984 20.1064 16.2584 20.1802C16.2037 20.2369 16.0903 20.3541 16.1757 20.4344C16.3022 20.5531 16.8453 20.78 17.0296 20.8457C17.2642 20.9297 17.4687 20.974 17.7417 21.0294C18.1443 21.1111 18.2453 21.0683 18.4477 21.0949Z" fill="url(#paint13_linear_8_12649)"/>
<path fill-rule="evenodd" clip-rule="evenodd" d="M34.7985 27.4788C34.8881 27.3726 34.9806 26.2741 34.9514 26.1874C34.9679 26.0965 34.9535 25.9653 34.9494 25.8762C34.9471 25.8233 34.9441 25.6249 34.92 25.5732C34.9487 25.3772 34.7347 24.4435 34.6831 24.2516L34.5952 23.9497C34.5423 23.7687 34.4322 23.8314 34.3449 23.8905C34.1899 23.9954 33.9776 24.141 33.851 24.274C33.7276 24.3328 33.2228 24.8909 33.1018 25.0226L32.828 25.3663C32.7851 25.4266 32.7268 25.4806 32.6909 25.5553C32.5597 25.7041 32.3309 26.1043 32.2345 26.2915C32.142 26.4714 32.0282 26.6651 31.964 26.8623C31.9412 26.8943 31.894 27.0371 31.874 27.0893C31.8431 27.1702 31.8204 27.2509 31.7868 27.3456C31.7229 27.5257 31.6878 27.7153 31.6463 27.9199C31.5124 28.5823 31.5036 29.2448 31.6202 29.8732C31.6458 30.0115 31.8213 30.82 31.9087 30.8919C31.988 30.9572 32.1098 30.8768 32.2004 30.8199C32.3643 30.7167 32.4574 30.6787 32.6264 30.5503C32.7201 30.479 32.84 30.4128 32.9568 30.3116C33.4665 29.8707 33.8457 29.5214 34.2102 28.9041C34.2903 28.7684 34.3625 28.6439 34.4333 28.5034C34.4837 28.4033 34.5959 28.1739 34.6191 28.0594C34.6794 27.975 34.7697 27.6206 34.7985 27.4788Z" fill="url(#paint14_linear_8_12649)"/>
<path fill-rule="evenodd" clip-rule="evenodd" d="M17.9133 16.9189C17.9462 16.9623 18.1562 17.046 18.2069 17.0674C18.4152 17.1553 18.7602 17.2545 18.978 17.2694L19.2606 17.2882C19.3513 17.277 19.3136 17.2456 19.333 17.2415C19.3569 17.2366 19.3586 17.1262 19.3585 17.1141C19.354 16.0361 18.9546 14.8112 18.1473 14.0707C18.0152 13.9496 17.6267 13.6439 17.472 13.5967C17.355 13.5195 16.9521 13.3523 16.7746 13.3164C16.5052 13.2619 16.5752 13.2438 16.1857 13.1963C16.0945 13.1852 15.9507 13.1436 15.8355 13.1728C15.7789 13.2967 15.8222 13.4814 15.845 13.6167C15.9431 14.2 16.2189 15.0171 16.5362 15.5383C16.598 15.6397 16.927 16.1347 16.9998 16.1773C17.0664 16.2829 17.3003 16.5006 17.4035 16.584C17.4999 16.6617 17.782 16.8822 17.9133 16.9189Z" fill="url(#paint15_linear_8_12649)"/>
<path fill-rule="evenodd" clip-rule="evenodd" d="M24.6214 27.1396C24.7908 27.2766 25.3451 27.4749 25.5746 27.5537C25.6598 27.5829 25.8465 27.635 25.9465 27.6553C26.227 27.712 26.6239 27.7456 26.895 27.7288L27.1947 27.7067C27.1984 27.7053 27.72 27.6271 28.0637 27.4929L28.4645 27.3213C28.514 27.2984 28.5468 27.2775 28.5471 27.2155C28.5475 27.1421 28.4541 27.0118 28.4239 26.9499L28.2044 26.5938C28.1106 26.4832 28.0327 26.3478 27.9087 26.1982C27.8893 26.1748 27.8826 26.1617 27.8633 26.1382C27.8291 26.0966 27.8023 26.0647 27.7651 26.0233C27.6984 25.9493 27.648 25.8868 27.5773 25.8133C27.3841 25.6119 27.2477 25.4976 27.0418 25.3194C26.955 25.2443 26.486 24.921 26.3861 24.8979C26.2817 24.8103 25.9201 24.6683 25.7561 24.6158C25.4793 24.527 25.4528 24.5249 25.1823 24.4685C25.0931 24.45 25.0525 24.4564 24.9847 24.4442C24.6798 24.3826 24.0661 24.4199 23.7498 24.4808L23.6743 24.5073C23.5139 24.4737 22.6545 24.785 22.4462 24.8822C22.4 24.9038 22.3626 24.9277 22.3598 24.9906C22.3563 25.0662 22.6014 25.3896 22.6617 25.4593C23.0358 25.8906 23.3763 26.294 23.8653 26.6421C24.0147 26.7485 24.4703 27.0935 24.6214 27.1396Z" fill="url(#paint16_linear_8_12649)"/>
<path fill-rule="evenodd" clip-rule="evenodd" d="M6.69356 16.6285C6.62495 16.565 6.54633 16.5223 6.46421 16.4692C6.24288 16.3259 6.00713 16.229 5.76005 16.1387C5.69614 16.1153 5.64284 16.1117 5.57923 16.0914C5.18624 15.966 4.70769 15.9983 4.33267 16.0992C3.90097 16.2155 3.60964 16.408 3.27712 16.6608C3.2389 16.6898 3.20707 16.7215 3.17131 16.7534C3.03125 16.8781 2.66202 17.1953 2.62404 17.3829C2.6818 17.4412 2.90971 17.6018 3.00443 17.6301C3.07171 17.6935 3.45643 17.8466 3.53282 17.8736C4.12701 18.0839 4.71631 18.1324 5.32756 17.9867C5.49168 17.9476 5.66002 17.8802 5.80339 17.8118C6.01991 17.7087 6.24944 17.5741 6.43092 17.4196C6.6493 17.2338 6.69628 17.1851 6.88698 16.9823C6.93208 16.9344 6.93745 16.936 6.95458 16.8515C6.88054 16.7767 6.79449 16.6777 6.69356 16.6285Z" fill="url(#paint17_linear_8_12649)"/>
<path fill-rule="evenodd" clip-rule="evenodd" d="M14.3404 20.2023C14.3985 20.1797 14.4756 20.1635 14.5433 20.1454C15.1122 19.9936 15.7636 19.576 16.1355 19.1322C16.3506 18.8754 16.7963 18.2865 16.8655 17.9443C16.787 17.865 16.8322 17.8884 16.6727 17.8278C16.3751 17.7145 16.2143 17.6887 15.8838 17.6219C15.5297 17.5503 15.0026 17.584 14.7415 17.6538C14.5236 17.6628 14.1341 17.8586 13.9298 17.9601C13.7893 18.0298 13.481 18.2636 13.359 18.3796C13.1317 18.5952 13.0691 18.6729 12.8649 18.9341C12.737 19.0977 12.244 19.9138 12.2594 20.0478C12.2763 20.1934 12.849 20.2484 12.9333 20.2589C13.2104 20.2933 13.3945 20.2992 13.637 20.292C13.8691 20.2854 14.1332 20.2494 14.3404 20.2023Z" fill="url(#paint18_linear_8_12649)"/>
<path d="M94.1556 23.2676C96.8654 23.2676 99.3285 24.3756 101.113 26.1605C102.898 27.9455 104.006 30.4085 104.006 33.1184V63.4719C104.006 63.9714 103.601 64.3763 103.102 64.3763H94.1556C93.6561 64.3763 93.2512 63.9714 93.2512 63.4719V24.172C93.2512 23.6725 93.6561 23.2676 94.1556 23.2676ZM95.06 25.1274V62.5675H102.198V33.1184C102.198 30.9077 101.293 28.8973 99.8346 27.4394C98.5782 26.1829 96.9115 25.3372 95.06 25.1274Z" fill="#372011"/>
<path d="M155.797 23.2676C158.507 23.2676 160.97 24.3756 162.755 26.1605C164.54 27.9456 165.648 30.4085 165.648 33.1184V63.4719C165.648 63.9714 165.243 64.3763 164.744 64.3763H155.797C155.298 64.3763 154.893 63.9714 154.893 63.4719V24.172C154.893 23.6725 155.298 23.2676 155.797 23.2676ZM156.702 25.1274V62.5675H163.839V33.1184C163.839 30.9078 162.934 28.8974 161.476 27.4394C160.22 26.183 158.553 25.3372 156.702 25.1274Z" fill="#372011"/>
<path d="M83.8602 34.0843H77.001V53.8796C76.9765 53.909 76.9602 53.9473 76.9578 53.9934L76.8589 56.4818H75.9574C75.381 56.4818 74.9137 56.0145 74.9137 55.4382L74.8932 31.6379C74.8932 31.3323 75.1312 31.3148 75.3405 31.124C75.5259 30.9551 75.6867 31.997 75.9574 31.997H84.9038C85.4802 31.997 85.9474 32.4642 85.9474 33.0406V55.4382C85.9474 56.0145 85.4802 56.4818 84.9038 56.4818H83.8629L83.8602 54.3945V54.2097V53.8122V34.0843Z" fill="#372011"/>
<path d="M74.9739 33.4328C74.9227 33.3158 74.8932 33.1801 74.8932 33.026V29.3643C74.8932 29.1701 74.9227 29.0088 74.9776 28.8878C75.0253 28.7815 75.0948 28.6901 75.1901 28.6134C75.3255 28.5106 75.461 28.4339 75.5965 28.3861C75.7285 28.3383 75.8676 28.3165 76.0142 28.3165C76.1606 28.3165 76.2998 28.3383 76.4281 28.3861C76.5672 28.4339 76.6991 28.5106 76.8311 28.6097C76.9152 28.6829 76.9774 28.7669 77.0178 28.8661C77.0728 28.9977 77.0983 29.1624 77.0983 29.3643V31.0815V31.9421H77.9592L85.7528 31.8988H86.6135V31.0382V26.1774V25.3168H85.7528H72.8094H71.9486V26.1774V30.2944C71.9486 30.5069 71.923 30.6793 71.8642 30.8074C71.824 30.91 71.7618 30.9903 71.6775 31.053L71.6629 31.0564C71.5347 31.1587 71.4029 31.2325 71.2672 31.2797C71.1354 31.3239 70.9925 31.3458 70.8424 31.3458C70.6994 31.3458 70.564 31.3239 70.4358 31.2797C70.3039 31.2325 70.1719 31.1587 70.0438 31.0564L70.0292 31.053C69.8497 30.9171 69.758 30.6645 69.758 30.2944V24.2323C69.758 24.0676 69.7839 23.9246 69.8315 23.8002C69.8828 23.6792 69.9597 23.5583 70.0659 23.4413V23.4449C70.1868 23.3238 70.3077 23.24 70.4285 23.1885C70.5458 23.1373 70.6848 23.1113 70.8424 23.1113H87.6979C87.8549 23.1113 87.9979 23.1373 88.1224 23.1922C88.2506 23.2435 88.3714 23.3278 88.4814 23.4378C88.5987 23.5545 88.6831 23.6792 88.738 23.815C88.793 23.9395 88.8184 24.0788 88.8184 24.2323V32.9827C88.8184 33.144 88.793 33.2796 88.7417 33.4007C88.6903 33.5217 88.6058 33.6422 88.4854 33.7595L88.489 33.7633C88.368 33.8806 88.2435 33.9686 88.1116 34.0234C87.9908 34.0749 87.8515 34.1038 87.6979 34.1038L75.9775 34.1471C75.8494 34.1471 75.7249 34.1217 75.6113 34.0704C75.4831 34.0154 75.3584 33.9239 75.2376 33.8028C75.1167 33.6818 75.0289 33.5573 74.9739 33.4328Z" fill="#372011"/>
<path d="M7.86383 77.8573H8.6312V80.7431C8.27814 81.0529 7.86023 81.2907 7.37747 81.4564C6.89471 81.6221 6.38674 81.705 5.85354 81.705C5.09698 81.705 4.41607 81.5393 3.81082 81.2078C3.20557 80.8764 2.73002 80.4188 2.38416 79.8352C2.03831 79.2444 1.86538 78.5851 1.86538 77.8573C1.86538 77.1296 2.03831 76.4739 2.38416 75.8903C2.73002 75.2994 3.20557 74.8383 3.81082 74.5068C4.41607 74.1754 5.10058 74.0097 5.86435 74.0097C6.44078 74.0097 6.97037 74.1033 7.45313 74.2907C7.93589 74.4708 8.34299 74.741 8.67444 75.1013L8.17727 75.6093C7.57922 75.0184 6.81906 74.723 5.89677 74.723C5.28432 74.723 4.72951 74.8599 4.23234 75.1337C3.74237 75.4003 3.35689 75.775 3.07588 76.2577C2.79487 76.7333 2.65436 77.2665 2.65436 77.8573C2.65436 78.4482 2.79487 78.9814 3.07588 79.4569C3.35689 79.9325 3.74237 80.3071 4.23234 80.5809C4.7223 80.8548 5.27351 80.9917 5.88596 80.9917C6.66414 80.9917 7.32343 80.7971 7.86383 80.408V77.8573ZM20.6869 81.705C19.9375 81.705 19.2566 81.5393 18.6442 81.2078C18.0389 80.8692 17.5634 80.408 17.2175 79.8244C16.8789 79.2408 16.7095 78.5851 16.7095 77.8573C16.7095 77.1296 16.8789 76.4739 17.2175 75.8903C17.5634 75.3066 18.0389 74.8491 18.6442 74.5176C19.2566 74.179 19.9375 74.0097 20.6869 74.0097C21.4362 74.0097 22.1099 74.1754 22.708 74.5068C23.3132 74.8383 23.7888 75.2994 24.1346 75.8903C24.4805 76.4739 24.6534 77.1296 24.6534 77.8573C24.6534 78.5851 24.4805 79.2444 24.1346 79.8352C23.7888 80.4188 23.3132 80.8764 22.708 81.2078C22.1099 81.5393 21.4362 81.705 20.6869 81.705ZM20.6869 80.9917C21.2849 80.9917 21.8253 80.8584 22.3081 80.5918C22.7908 80.318 23.1691 79.9433 23.4429 79.4677C23.7167 78.985 23.8536 78.4482 23.8536 77.8573C23.8536 77.2665 23.7167 76.7333 23.4429 76.2577C23.1691 75.775 22.7908 75.4003 22.3081 75.1337C21.8253 74.8599 21.2849 74.723 20.6869 74.723C20.0888 74.723 19.5448 74.8599 19.0549 75.1337C18.5721 75.4003 18.1902 75.775 17.9092 76.2577C17.6354 76.7333 17.4985 77.2665 17.4985 77.8573C17.4985 78.4482 17.6354 78.985 17.9092 79.4677C18.1902 79.9433 18.5721 80.318 19.0549 80.5918C19.5448 80.8584 20.0888 80.9917 20.6869 80.9917ZM32.9309 74.0745H33.7307V80.9484H37.9675V81.6401H32.9309V74.0745ZM45.7803 74.0745H48.8605C49.6603 74.0745 50.3665 74.2366 50.9789 74.5609C51.5914 74.8779 52.0669 75.3246 52.4056 75.9011C52.7442 76.4703 52.9136 77.1224 52.9136 77.8573C52.9136 78.5923 52.7442 79.248 52.4056 79.8244C52.0669 80.3936 51.5914 80.8403 50.9789 81.1646C50.3665 81.4816 49.6603 81.6401 48.8605 81.6401H45.7803V74.0745ZM48.8173 80.9484C49.4802 80.9484 50.0602 80.8187 50.5574 80.5593C51.0546 80.2927 51.4401 79.9289 51.7139 79.4677C51.9877 78.9994 52.1246 78.4626 52.1246 77.8573C52.1246 77.2521 51.9877 76.7189 51.7139 76.2577C51.4401 75.7894 51.0546 75.4255 50.5574 75.1661C50.0602 74.8995 49.4802 74.7662 48.8173 74.7662H46.5801V80.9484H48.8173ZM63.2803 81.705C62.7183 81.705 62.1779 81.6149 61.6591 81.4348C61.1475 81.2547 60.7512 81.0169 60.4702 80.7215L60.7837 80.1054C61.0575 80.3792 61.4213 80.6026 61.8753 80.7755C62.3292 80.9412 62.7976 81.0241 63.2803 81.0241C63.9576 81.0241 64.4656 80.9016 64.8042 80.6566C65.1429 80.4044 65.3122 80.0802 65.3122 79.6839C65.3122 79.3813 65.2186 79.1399 65.0312 78.9597C64.8511 78.7796 64.6277 78.6427 64.3611 78.549C64.0945 78.4482 63.7234 78.3401 63.2479 78.2248C62.6787 78.0807 62.2247 77.9438 61.8861 77.8141C61.5474 77.6772 61.2556 77.4718 61.0106 77.198C60.7729 76.9242 60.654 76.5532 60.654 76.0848C60.654 75.7029 60.7548 75.3571 60.9566 75.0472C61.1583 74.7302 61.4682 74.478 61.8861 74.2907C62.304 74.1033 62.8228 74.0097 63.4424 74.0097C63.8748 74.0097 64.2963 74.0709 64.707 74.1934C65.1249 74.3087 65.4852 74.4708 65.7878 74.6798L65.5176 75.3174C65.2005 75.1085 64.8619 74.9536 64.5016 74.8527C64.1414 74.7446 63.7883 74.6906 63.4424 74.6906C62.7795 74.6906 62.2788 74.8203 61.9401 75.0797C61.6087 75.3318 61.4429 75.6597 61.4429 76.0632C61.4429 76.3658 61.533 76.6108 61.7132 76.7981C61.9005 76.9783 62.1311 77.1188 62.4049 77.2197C62.6859 77.3133 63.0606 77.4178 63.5289 77.5331C64.0837 77.67 64.5304 77.8069 64.8691 77.9438C65.215 78.0735 65.5068 78.2752 65.7445 78.549C65.9823 78.8156 66.1012 79.1795 66.1012 79.6407C66.1012 80.0225 65.9967 80.372 65.7878 80.689C65.586 80.9989 65.2726 81.2474 64.8475 81.4348C64.4224 81.6149 63.9 81.705 63.2803 81.705ZM82.1861 74.0745V81.6401H81.4187V75.5876L78.4465 80.6782H78.0682L75.096 75.6201V81.6401H74.3287V74.0745H74.9879L78.2736 79.6839L81.5268 74.0745H82.1861ZM91.136 74.0745H91.9358V81.6401H91.136V74.0745ZM102.352 74.7662H99.6933V74.0745H105.811V74.7662H103.152V81.6401H102.352V74.7662ZM119.896 74.0745V81.6401H119.107V78.1491H114.373V81.6401H113.573V74.0745H114.373V77.4466H119.107V74.0745H119.896ZM128.364 74.0745H129.045L128.991 76.9278H128.418L128.364 74.0745ZM139.606 81.705C139.044 81.705 138.503 81.6149 137.984 81.4348C137.473 81.2547 137.077 81.0169 136.796 80.7215L137.109 80.1054C137.383 80.3792 137.747 80.6026 138.201 80.7755C138.655 80.9412 139.123 81.0241 139.606 81.0241C140.283 81.0241 140.791 80.9016 141.13 80.6566C141.468 80.4044 141.638 80.0802 141.638 79.6839C141.638 79.3813 141.544 79.1399 141.357 78.9597C141.176 78.7796 140.953 78.6427 140.686 78.549C140.42 78.4482 140.049 78.3401 139.573 78.2248C139.004 78.0807 138.55 77.9438 138.211 77.8141C137.873 77.6772 137.581 77.4718 137.336 77.198C137.098 76.9242 136.979 76.5532 136.979 76.0848C136.979 75.7029 137.08 75.3571 137.282 75.0472C137.484 74.7302 137.794 74.478 138.211 74.2907C138.629 74.1033 139.148 74.0097 139.768 74.0097C140.2 74.0097 140.622 74.0709 141.032 74.1934C141.45 74.3087 141.811 74.4708 142.113 74.6798L141.843 75.3174C141.526 75.1085 141.187 74.9536 140.827 74.8527C140.467 74.7446 140.114 74.6906 139.768 74.6906C139.105 74.6906 138.604 74.8203 138.265 75.0797C137.934 75.3318 137.768 75.6597 137.768 76.0632C137.768 76.3658 137.858 76.6108 138.039 76.7981C138.226 76.9783 138.456 77.1188 138.73 77.2197C139.011 77.3133 139.386 77.4178 139.854 77.5331C140.409 77.67 140.856 77.8069 141.194 77.9438C141.54 78.0735 141.832 78.2752 142.07 78.549C142.308 78.8156 142.427 79.1795 142.427 79.6407C142.427 80.0225 142.322 80.372 142.113 80.689C141.911 80.9989 141.598 81.2474 141.173 81.4348C140.748 81.6149 140.225 81.705 139.606 81.705ZM174.609 77.8573H175.377V80.7431C175.024 81.0529 174.606 81.2907 174.123 81.4564C173.64 81.6221 173.132 81.705 172.599 81.705C171.842 81.705 171.162 81.5393 170.556 81.2078C169.951 80.8764 169.476 80.4188 169.13 79.8352C168.784 79.2444 168.611 78.5851 168.611 77.8573C168.611 77.1296 168.784 76.4739 169.13 75.8903C169.476 75.2994 169.951 74.8383 170.556 74.5068C171.162 74.1754 171.846 74.0097 172.61 74.0097C173.186 74.0097 173.716 74.1033 174.199 74.2907C174.681 74.4708 175.089 74.741 175.42 75.1013L174.923 75.6093C174.325 75.0184 173.565 74.723 172.642 74.723C172.03 74.723 171.475 74.8599 170.978 75.1337C170.488 75.4003 170.102 75.775 169.821 76.2577C169.54 76.7333 169.4 77.2665 169.4 77.8573C169.4 78.4482 169.54 78.9814 169.821 79.4569C170.102 79.9325 170.488 80.3071 170.978 80.5809C171.468 80.8548 172.019 80.9917 172.631 80.9917C173.41 80.9917 174.069 80.7971 174.609 80.408V77.8573ZM187.432 81.705C186.683 81.705 186.002 81.5393 185.39 81.2078C184.784 80.8692 184.309 80.408 183.963 79.8244C183.624 79.2408 183.455 78.5851 183.455 77.8573C183.455 77.1296 183.624 76.4739 183.963 75.8903C184.309 75.3066 184.784 74.8491 185.39 74.5176C186.002 74.179 186.683 74.0097 187.432 74.0097C188.182 74.0097 188.855 74.1754 189.453 74.5068C190.059 74.8383 190.534 75.2994 190.88 75.8903C191.226 76.4739 191.399 77.1296 191.399 77.8573C191.399 78.5851 191.226 79.2444 190.88 79.8352C190.534 80.4188 190.059 80.8764 189.453 81.2078C188.855 81.5393 188.182 81.705 187.432 81.705ZM187.432 80.9917C188.03 80.9917 188.571 80.8584 189.054 80.5918C189.536 80.318 189.915 79.9433 190.188 79.4677C190.462 78.985 190.599 78.4482 190.599 77.8573C190.599 77.2665 190.462 76.7333 190.188 76.2577C189.915 75.775 189.536 75.4003 189.054 75.1337C188.571 74.8599 188.03 74.723 187.432 74.723C186.834 74.723 186.29 74.8599 185.8 75.1337C185.318 75.4003 184.936 75.775 184.655 76.2577C184.381 76.7333 184.244 77.2665 184.244 77.8573C184.244 78.4482 184.381 78.985 184.655 79.4677C184.936 79.9433 185.318 80.318 185.8 80.5918C186.29 80.8584 186.834 80.9917 187.432 80.9917ZM199.676 74.0745H200.476V80.9484H204.713V81.6401H199.676V74.0745ZM212.526 74.0745H215.606C216.406 74.0745 217.112 74.2366 217.724 74.5609C218.337 74.8779 218.812 75.3246 219.151 75.9011C219.49 76.4703 219.659 77.1224 219.659 77.8573C219.659 78.5923 219.49 79.248 219.151 79.8244C218.812 80.3936 218.337 80.8403 217.724 81.1646C217.112 81.4816 216.406 81.6401 215.606 81.6401H212.526V74.0745ZM215.563 80.9484C216.226 80.9484 216.806 80.8187 217.303 80.5593C217.8 80.2927 218.186 79.9289 218.459 79.4677C218.733 78.9994 218.87 78.4626 218.87 77.8573C218.87 77.2521 218.733 76.7189 218.459 76.2577C218.186 75.7894 217.8 75.4255 217.303 75.1661C216.806 74.8995 216.226 74.7662 215.563 74.7662H213.326V80.9484H215.563Z" fill="#372011"/>
<defs>
<linearGradient id="paint0_linear_8_12649" x1="9.2761" y1="21.1909" x2="29.2051" y2="35.3006" gradientUnits="userSpaceOnUse">
<stop stop-color="#F0DB92"/>
<stop offset="1" stop-color="#BF9033"/>
</linearGradient>
<linearGradient id="paint1_linear_8_12649" x1="32.5897" y1="31.0211" x2="36.5621" y2="32.4982" gradientUnits="userSpaceOnUse">
<stop stop-color="#F0DB92"/>
<stop offset="1" stop-color="#BF9033"/>
</linearGradient>
<linearGradient id="paint2_linear_8_12649" x1="24.1746" y1="29.4867" x2="27.2942" y2="33.2811" gradientUnits="userSpaceOnUse">
<stop stop-color="#F0DB92"/>
<stop offset="1" stop-color="#BF9033"/>
</linearGradient>
<linearGradient id="paint3_linear_8_12649" x1="9.59488" y1="11.3201" x2="11.6498" y2="17.3073" gradientUnits="userSpaceOnUse">
<stop stop-color="#F0DB92"/>
<stop offset="1" stop-color="#BF9033"/>
</linearGradient>
<linearGradient id="paint4_linear_8_12649" x1="21.6221" y1="30.4394" x2="23.8745" y2="38.3108" gradientUnits="userSpaceOnUse">
<stop stop-color="#F0DB92"/>
<stop offset="1" stop-color="#BF9033"/>
</linearGradient>
<linearGradient id="paint5_linear_8_12649" x1="8.83266" y1="17.7276" x2="11.7615" y2="20.0464" gradientUnits="userSpaceOnUse">
<stop stop-color="#F0DB92"/>
<stop offset="1" stop-color="#BF9033"/>
</linearGradient>
<linearGradient id="paint6_linear_8_12649" x1="25.9485" y1="17.265" x2="28.7157" y2="17.9874" gradientUnits="userSpaceOnUse">
<stop stop-color="#F0DB92"/>
<stop offset="1" stop-color="#BF9033"/>
</linearGradient>
<linearGradient id="paint7_linear_8_12649" x1="29.3261" y1="20.6899" x2="32.4617" y2="21.4707" gradientUnits="userSpaceOnUse">
<stop stop-color="#F0DB92"/>
<stop offset="1" stop-color="#BF9033"/>
</linearGradient>
<linearGradient id="paint8_linear_8_12649" x1="18.3582" y1="19.1603" x2="19.706" y2="24.6251" gradientUnits="userSpaceOnUse">
<stop stop-color="#F0DB92"/>
<stop offset="1" stop-color="#BF9033"/>
</linearGradient>
<linearGradient id="paint9_linear_8_12649" x1="1.62648" y1="19.4475" x2="4.1777" y2="21.1199" gradientUnits="userSpaceOnUse">
<stop stop-color="#F0DB92"/>
<stop offset="1" stop-color="#BF9033"/>
</linearGradient>
<linearGradient id="paint10_linear_8_12649" x1="21.2187" y1="15.3634" x2="24.6892" y2="16.8995" gradientUnits="userSpaceOnUse">
<stop stop-color="#F0DB92"/>
<stop offset="1" stop-color="#BF9033"/>
</linearGradient>
<linearGradient id="paint11_linear_8_12649" x1="5.20431" y1="18.5439" x2="7.85442" y2="19.8784" gradientUnits="userSpaceOnUse">
<stop stop-color="#F0DB92"/>
<stop offset="1" stop-color="#BF9033"/>
</linearGradient>
<linearGradient id="paint12_linear_8_12649" x1="5.4238" y1="12.1239" x2="7.15717" y2="17.363" gradientUnits="userSpaceOnUse">
<stop stop-color="#F0DB92"/>
<stop offset="1" stop-color="#BF9033"/>
</linearGradient>
<linearGradient id="paint13_linear_8_12649" x1="16.6562" y1="19.1392" x2="18.7763" y2="22.0079" gradientUnits="userSpaceOnUse">
<stop stop-color="#F0DB92"/>
<stop offset="1" stop-color="#BF9033"/>
</linearGradient>
<linearGradient id="paint14_linear_8_12649" x1="31.8872" y1="25.2141" x2="35.6044" y2="26.3893" gradientUnits="userSpaceOnUse">
<stop stop-color="#F0DB92"/>
<stop offset="1" stop-color="#BF9033"/>
</linearGradient>
<linearGradient id="paint15_linear_8_12649" x1="16.1693" y1="13.9684" x2="19.3904" y2="15.7844" gradientUnits="userSpaceOnUse">
<stop stop-color="#F0DB92"/>
<stop offset="1" stop-color="#BF9033"/>
</linearGradient>
<linearGradient id="paint16_linear_8_12649" x1="21.1337" y1="21.8066" x2="23.3083" y2="28.9852" gradientUnits="userSpaceOnUse">
<stop stop-color="#F0DB92"/>
<stop offset="1" stop-color="#BF9033"/>
</linearGradient>
<linearGradient id="paint17_linear_8_12649" x1="3.06513" y1="16.4122" x2="4.85346" y2="18.8739" gradientUnits="userSpaceOnUse">
<stop stop-color="#F0DB92"/>
<stop offset="1" stop-color="#BF9033"/>
</linearGradient>
<linearGradient id="paint18_linear_8_12649" x1="12.7283" y1="18.1119" x2="15.1897" y2="20.8497" gradientUnits="userSpaceOnUse">
<stop stop-color="#F0DB92"/>
<stop offset="1" stop-color="#BF9033"/>
</linearGradient>
</defs>
</svg>
