<svg width="567" height="536" viewBox="0 0 567 536" fill="none" xmlns="http://www.w3.org/2000/svg">
<path d="M353.413 146.484C353.588 146.484 353.713 147.196 353.688 148.058C353.663 148.92 353.501 149.608 353.313 149.608C353.126 149.608 353.013 148.908 353.038 148.033C353.063 147.158 353.226 146.471 353.413 146.484Z" fill="#E0E0E0"/>
<path d="M355.8 134.349C355.975 134.411 355.625 135.749 355.187 137.386C354.737 139.023 354.35 140.36 354.175 140.323C354 140.298 354.1 138.885 354.563 137.211C355.012 135.536 355.637 134.274 355.812 134.336L355.8 134.349Z" fill="#E0E0E0"/>
<path d="M361.873 123.614C362.011 123.727 361.236 124.876 360.274 126.276C359.312 127.676 358.524 128.813 358.362 128.725C358.212 128.638 358.749 127.338 359.736 125.913C360.711 124.489 361.736 123.502 361.861 123.614H361.873Z" fill="#E0E0E0"/>
<path d="M371.109 115.403C371.209 115.553 370.122 116.428 368.772 117.453C367.422 118.478 366.298 119.29 366.173 119.153C366.048 119.028 366.997 117.978 368.372 116.928C369.747 115.878 371.009 115.241 371.096 115.391L371.109 115.403Z" fill="#E0E0E0"/>
<path d="M382.156 109.792C382.219 109.955 381.007 110.655 379.457 111.342C377.895 112.029 376.57 112.467 376.495 112.304C376.408 112.142 377.62 111.454 379.195 110.755C380.769 110.055 382.094 109.63 382.156 109.792Z" fill="#E0E0E0"/>
<path d="M394.004 106.168C394.041 106.343 392.741 106.843 391.092 107.28C389.442 107.718 388.067 107.943 388.018 107.768C387.968 107.593 389.267 107.093 390.929 106.656C392.591 106.206 393.966 105.993 394.004 106.168Z" fill="#E0E0E0"/>
<path d="M406.188 103.869C406.213 104.044 404.876 104.419 403.189 104.706C401.502 104.993 400.115 105.068 400.077 104.893C400.04 104.719 401.39 104.344 403.077 104.056C404.764 103.769 406.163 103.681 406.188 103.869Z" fill="#E0E0E0"/>
<path d="M418.523 102.644C418.523 102.819 417.148 103.056 415.449 103.169C413.749 103.281 412.349 103.219 412.337 103.044C412.312 102.869 413.686 102.632 415.411 102.519C417.123 102.407 418.523 102.469 418.523 102.644Z" fill="#E0E0E0"/>
<path d="M430.882 103.456C430.857 103.631 429.457 103.631 427.77 103.444C426.083 103.256 424.708 102.956 424.721 102.781C424.721 102.607 426.12 102.607 427.833 102.794C429.545 102.981 430.907 103.281 430.882 103.456Z" fill="#E0E0E0"/>
<path d="M442.904 106.431C442.842 106.606 441.467 106.343 439.843 105.868C438.206 105.381 436.918 104.856 436.956 104.681C436.993 104.506 438.368 104.756 440.018 105.243C441.667 105.731 442.954 106.268 442.892 106.431H442.904Z" fill="#E0E0E0"/>
<path d="M454.152 111.592C454.064 111.742 452.764 111.242 451.252 110.455C449.74 109.667 448.578 108.905 448.653 108.743C448.728 108.58 450.028 109.092 451.552 109.88C453.077 110.667 454.239 111.442 454.152 111.592Z" fill="#E0E0E0"/>
<path d="M464.112 118.94C463.987 119.078 462.887 118.24 461.575 117.153C460.263 116.066 459.225 115.141 459.338 114.991C459.438 114.841 460.663 115.553 461.987 116.641C463.312 117.74 464.237 118.803 464.112 118.928V118.94Z" fill="#E0E0E0"/>
<path d="M472.147 128.338C471.997 128.438 471.122 127.363 470.085 126.013C469.06 124.651 468.26 123.514 468.398 123.402C468.535 123.289 469.56 124.239 470.597 125.626C471.634 127.001 472.284 128.25 472.134 128.35L472.147 128.338Z" fill="#E0E0E0"/>
<path d="M477.834 139.335C477.659 139.398 477.046 138.161 476.347 136.598C475.659 135.049 475.134 133.762 475.297 133.674C475.459 133.587 476.234 134.761 476.934 136.336C477.634 137.911 477.984 139.273 477.821 139.335H477.834Z" fill="#E0E0E0"/>
<path d="M480.87 151.32C480.695 151.345 480.383 149.995 480.058 148.321C479.733 146.646 479.521 145.284 479.696 145.234C479.871 145.184 480.371 146.509 480.695 148.196C481.02 149.883 481.045 151.295 480.87 151.32Z" fill="#E0E0E0"/>
<path d="M480.92 163.692C480.745 163.667 480.782 162.28 480.882 160.593C480.982 158.893 481.107 157.518 481.295 157.518C481.47 157.518 481.645 158.918 481.532 160.643C481.432 162.367 481.095 163.729 480.92 163.704V163.692Z" fill="#E0E0E0"/>
<path d="M477.621 175.602C477.458 175.527 477.833 174.189 478.458 172.615C479.008 171.015 479.52 169.716 479.708 169.766C479.87 169.803 479.633 171.19 479.071 172.827C478.433 174.439 477.783 175.677 477.621 175.602Z" fill="#E0E0E0"/>
<path d="M470.885 185.949C470.748 185.824 471.572 184.712 472.61 183.362C473.647 182.013 474.509 180.938 474.659 181.025C474.809 181.125 474.184 182.387 473.122 183.75C472.072 185.124 471.01 186.049 470.885 185.937V185.949Z" fill="#E0E0E0"/>
<path d="M461.2 193.61C461.112 193.447 462.275 192.685 463.687 191.748C465.099 190.81 466.261 190.048 466.374 190.198C466.486 190.336 465.486 191.335 464.049 192.298C462.6 193.26 461.287 193.772 461.212 193.61H461.2Z" fill="#E0E0E0"/>
<path d="M449.377 196.997C449.377 196.809 450.74 196.622 452.402 196.334C454.064 196.047 455.426 195.784 455.476 195.959C455.526 196.122 454.226 196.684 452.514 196.972C450.802 197.271 449.39 197.171 449.377 196.997Z" fill="#E0E0E0"/>
<path d="M437.418 194.36C437.506 194.197 438.781 194.735 440.368 195.322C441.942 195.909 443.267 196.334 443.23 196.509C443.192 196.684 441.78 196.534 440.143 195.922C438.506 195.322 437.343 194.51 437.431 194.36H437.418Z" fill="#E0E0E0"/>
<path d="M428.146 186.274C428.296 186.174 429.196 187.224 430.333 188.474C431.47 189.723 432.42 190.723 432.307 190.861C432.195 190.998 431.02 190.198 429.858 188.911C428.683 187.624 428.008 186.374 428.158 186.274H428.146Z" fill="#E0E0E0"/>
<path d="M424.034 174.752C424.221 174.752 424.384 176.114 424.721 177.764C425.058 179.413 425.421 180.738 425.246 180.813C425.083 180.875 424.421 179.613 424.084 177.901C423.734 176.189 423.859 174.764 424.034 174.764V174.752Z" fill="#E0E0E0"/>
<path d="M427.721 163.167C427.871 163.28 427.146 164.454 426.383 165.954C425.609 167.441 425.071 168.716 424.896 168.653C424.734 168.603 424.996 167.204 425.809 165.654C426.608 164.104 427.596 163.067 427.733 163.167H427.721Z" fill="#E0E0E0"/>
<path d="M437.281 155.444C437.356 155.606 436.181 156.331 434.744 157.219C433.307 158.106 432.157 158.868 432.032 158.718C431.92 158.581 432.919 157.581 434.394 156.669C435.869 155.756 437.206 155.281 437.281 155.444Z" fill="#E0E0E0"/>
<path d="M449.103 151.87C449.128 152.045 447.778 152.382 446.128 152.745C444.466 153.107 443.117 153.382 443.054 153.207C443.004 153.044 444.291 152.482 445.991 152.107C447.678 151.732 449.09 151.695 449.115 151.87H449.103Z" fill="#E0E0E0"/>
<path d="M461.475 151.595C461.462 151.77 460.063 151.87 458.363 151.807C456.664 151.745 455.276 151.545 455.276 151.37C455.276 151.195 456.664 151.095 458.388 151.157C460.113 151.22 461.487 151.42 461.475 151.595Z" fill="#E0E0E0"/>
<path d="M473.609 154.044C473.547 154.219 472.197 153.919 470.547 153.494C468.898 153.069 467.573 152.67 467.611 152.482C467.648 152.307 469.048 152.432 470.71 152.857C472.384 153.294 473.659 153.869 473.609 154.032V154.044Z" fill="#E0E0E0"/>
<path d="M484.832 159.231C484.732 159.38 483.495 158.768 481.995 157.956C480.495 157.144 479.308 156.456 479.383 156.281C479.458 156.119 480.795 156.556 482.308 157.381C483.832 158.193 484.932 159.081 484.832 159.231Z" fill="#E0E0E0"/>
<path d="M494.304 167.166C494.167 167.279 493.092 166.404 491.892 165.204C490.718 163.967 489.73 163.017 489.855 162.855C489.955 162.73 491.155 163.48 492.342 164.729C493.567 165.954 494.442 167.041 494.304 167.154V167.166Z" fill="#E0E0E0"/>
<path d="M501.228 177.401C501.065 177.476 500.328 176.301 499.478 174.839C498.628 173.365 497.966 172.152 498.116 172.052C498.266 171.953 499.178 173.015 500.041 174.514C500.903 176.002 501.39 177.326 501.228 177.401Z" fill="#E0E0E0"/>
<path d="M505.365 189.061C505.19 189.098 504.74 187.786 504.277 186.149C503.802 184.512 503.478 183.175 503.64 183.112C503.802 183.05 504.427 184.312 504.902 185.974C505.39 187.624 505.54 189.023 505.365 189.061Z" fill="#E0E0E0"/>
<path d="M506.914 201.345C506.739 201.345 506.476 199.971 506.351 198.284C506.226 196.584 506.264 195.197 506.439 195.172C506.614 195.147 506.864 196.522 507.001 198.234C507.139 199.946 507.089 201.345 506.914 201.345Z" fill="#E0E0E0"/>
<path d="M506.189 213.705C506.014 213.68 506.014 212.28 506.189 210.593C506.364 208.894 506.652 207.532 506.827 207.544C507.002 207.544 507.014 208.944 506.827 210.656C506.652 212.368 506.364 213.73 506.189 213.705Z" fill="#E0E0E0"/>
<path d="M503.39 225.777C503.215 225.715 503.452 224.34 503.902 222.703C504.352 221.066 504.864 219.766 505.039 219.804C505.214 219.841 504.989 221.216 504.527 222.878C504.065 224.54 503.552 225.84 503.39 225.777Z" fill="#E0E0E0"/>
<path d="M498.616 237.199C498.453 237.112 498.928 235.8 499.666 234.275C500.403 232.738 501.053 231.513 501.228 231.588C501.378 231.651 501.003 233 500.253 234.55C499.503 236.1 498.766 237.287 498.616 237.199Z" fill="#E0E0E0"/>
<path d="M492.318 247.872C492.168 247.772 492.793 246.522 493.705 245.085C494.617 243.648 495.479 242.548 495.642 242.636C495.804 242.723 495.179 243.973 494.255 245.435C493.342 246.885 492.468 247.984 492.318 247.884V247.872Z" fill="#E0E0E0"/>
<path d="M484.881 257.782C484.744 257.67 485.494 256.482 486.544 255.145C487.606 253.808 488.568 252.808 488.718 252.908C488.868 253.021 488.118 254.195 487.056 255.545C485.994 256.895 485.019 257.894 484.881 257.782Z" fill="#E0E0E0"/>
<path d="M476.633 267.03C476.508 266.905 477.346 265.793 478.496 264.53C479.658 263.281 480.708 262.356 480.845 262.481C480.982 262.606 480.145 263.718 478.983 264.98C477.821 266.243 476.771 267.155 476.633 267.03Z" fill="#E0E0E0"/>
<path d="M467.824 275.765C467.699 275.64 468.598 274.566 469.823 273.378C471.048 272.191 472.148 271.329 472.285 271.454C472.41 271.579 471.51 272.653 470.286 273.841C469.048 275.028 467.949 275.89 467.824 275.765Z" fill="#E0E0E0"/>
<path d="M458.676 284.126C458.551 283.988 459.488 282.951 460.763 281.814C462.037 280.664 463.162 279.852 463.287 279.977C463.412 280.114 462.475 281.151 461.2 282.289C459.925 283.438 458.801 284.263 458.676 284.126Z" fill="#E0E0E0"/>
<path d="M451.69 290.299C451.578 290.162 452.003 289.587 452.653 289.025C453.303 288.45 453.927 288.1 454.04 288.237C454.152 288.375 453.727 288.95 453.078 289.512C452.428 290.087 451.803 290.437 451.69 290.299Z" fill="#E0E0E0"/>
<path d="M91.4005 264.18C91.5504 264.081 92.0503 264.593 92.5127 265.318C92.9751 266.043 93.225 266.705 93.0751 266.805C92.9251 266.905 92.4252 266.392 91.9628 265.668C91.5005 264.943 91.238 264.268 91.388 264.18H91.4005Z" fill="#E0E0E0"/>
<path d="M85.3142 253.233C85.4766 253.158 86.2515 254.333 87.0513 255.857C87.8511 257.382 88.376 258.694 88.2135 258.782C88.051 258.869 87.2762 257.695 86.4764 256.157C85.6766 254.62 85.1517 253.308 85.3142 253.233Z" fill="#E0E0E0"/>
<path d="M80.328 241.748C80.4905 241.686 81.1528 242.936 81.8026 244.523C82.4525 246.122 82.8399 247.472 82.6774 247.547C82.515 247.622 81.8526 246.372 81.2028 244.773C80.553 243.161 80.1655 241.811 80.328 241.748Z" fill="#E0E0E0"/>
<path d="M76.5045 229.826C76.6795 229.776 77.2168 231.088 77.6917 232.738C78.1791 234.388 78.4291 235.775 78.2541 235.837C78.0791 235.887 77.5543 234.588 77.0669 232.925C76.5795 231.263 76.3296 229.876 76.5045 229.826Z" fill="#E0E0E0"/>
<path d="M73.9175 217.579C74.0924 217.554 74.4924 218.904 74.8048 220.603C75.1172 222.303 75.2297 223.703 75.0547 223.74C74.8798 223.778 74.4799 222.428 74.1674 220.716C73.855 219.016 73.7425 217.604 73.9175 217.579Z" fill="#E0E0E0"/>
<path d="M72.6304 205.12C72.8053 205.12 73.0677 206.494 73.1927 208.219C73.3177 209.943 73.2802 211.343 73.1052 211.368C72.9303 211.393 72.6803 210.006 72.5429 208.269C72.4054 206.544 72.4554 205.132 72.6304 205.12Z" fill="#E0E0E0"/>
<path d="M72.7178 192.598C72.8928 192.598 72.9927 194.022 72.9303 195.734C72.8678 197.459 72.6803 198.859 72.4929 198.846C72.3179 198.846 72.2179 197.434 72.2804 195.709C72.3429 193.972 72.5304 192.585 72.7178 192.598Z" fill="#E0E0E0"/>
<path d="M74.2423 180.176C74.4172 180.213 74.3547 181.613 74.0923 183.325C73.8299 185.024 73.48 186.387 73.2925 186.374C73.1175 186.349 73.18 184.949 73.4425 183.225C73.7049 181.513 74.0548 180.151 74.2423 180.176Z" fill="#E0E0E0"/>
<path d="M77.2663 168.028C77.4413 168.078 77.2039 169.478 76.729 171.128C76.2666 172.79 75.7417 174.102 75.5667 174.052C75.3918 174.014 75.6292 172.615 76.1041 170.953C76.579 169.278 77.0914 167.966 77.2663 168.028Z" fill="#E0E0E0"/>
<path d="M81.7408 156.331C81.9033 156.406 81.5034 157.756 80.8285 159.343C80.1662 160.93 79.4913 162.167 79.3164 162.105C79.1539 162.042 79.5538 160.693 80.2287 159.093C80.9035 157.493 81.5784 156.256 81.7408 156.331Z" fill="#E0E0E0"/>
<path d="M87.6015 145.259C87.7515 145.359 87.1891 146.646 86.3393 148.146C85.4895 149.645 84.6647 150.795 84.5148 150.708C84.3523 150.62 84.9147 149.333 85.777 147.821C86.6393 146.309 87.4516 145.159 87.6015 145.259Z" fill="#E0E0E0"/>
<path d="M94.7372 134.986C94.8747 135.099 94.1623 136.311 93.1376 137.698C92.1128 139.085 91.1631 140.123 91.0131 140.023C90.8631 139.923 91.5755 138.71 92.6127 137.311C93.65 135.924 94.5997 134.874 94.7372 134.986Z" fill="#E0E0E0"/>
<path d="M103.085 125.664C103.21 125.788 102.348 126.913 101.161 128.15C99.9737 129.4 98.8989 130.312 98.7615 130.187C98.624 130.062 99.4863 128.95 100.686 127.701C101.886 126.438 102.96 125.526 103.085 125.664Z" fill="#E0E0E0"/>
<path d="M112.558 117.478C112.671 117.628 111.671 118.615 110.334 119.702C108.996 120.79 107.809 121.552 107.697 121.415C107.584 121.277 108.572 120.29 109.921 119.19C111.271 118.103 112.446 117.328 112.558 117.478Z" fill="#E0E0E0"/>
<path d="M123.018 110.617C123.106 110.78 121.981 111.629 120.519 112.517C119.044 113.416 117.782 114.016 117.682 113.866C117.582 113.716 118.707 112.867 120.181 111.967C121.669 111.067 122.931 110.467 123.018 110.617Z" fill="#E0E0E0"/>
<path d="M134.328 105.256C134.391 105.418 133.166 106.118 131.579 106.793C129.992 107.48 128.654 107.893 128.579 107.73C128.504 107.568 129.729 106.88 131.329 106.193C132.928 105.506 134.266 105.081 134.328 105.256Z" fill="#E0E0E0"/>
<path d="M146.275 101.507C146.313 101.682 145.001 102.194 143.338 102.656C141.676 103.119 140.289 103.344 140.239 103.181C140.189 103.019 141.501 102.494 143.176 102.032C144.851 101.569 146.238 101.332 146.275 101.507Z" fill="#E0E0E0"/>
<path d="M158.597 99.3948C158.609 99.5697 157.247 99.9072 155.547 100.145C153.848 100.382 152.436 100.432 152.398 100.257C152.361 100.082 153.735 99.7447 155.447 99.5072C157.16 99.2698 158.572 99.2198 158.584 99.3948H158.597Z" fill="#E0E0E0"/>
<path d="M171.106 98.8949C171.106 99.0699 169.694 99.2323 167.982 99.2448C166.257 99.2448 164.858 99.1199 164.845 98.9449C164.845 98.7699 166.232 98.6075 167.969 98.595C169.707 98.595 171.106 98.7199 171.106 98.8949Z" fill="#E0E0E0"/>
<path d="M183.566 100.045C183.541 100.22 182.129 100.195 180.417 99.9821C178.705 99.7697 177.343 99.4448 177.355 99.2698C177.368 99.0949 178.78 99.1199 180.504 99.3448C182.229 99.5573 183.604 99.8822 183.566 100.057V100.045Z" fill="#E0E0E0"/>
<path d="M195.764 102.869C195.714 103.044 194.314 102.819 192.652 102.369C190.99 101.919 189.678 101.419 189.715 101.244C189.753 101.069 191.14 101.294 192.827 101.744C194.501 102.194 195.826 102.694 195.764 102.869Z" fill="#E0E0E0"/>
<path d="M207.423 107.393C207.348 107.555 205.999 107.13 204.424 106.456C202.837 105.781 201.612 105.093 201.675 104.918C201.737 104.756 203.087 105.168 204.674 105.856C206.274 106.543 207.498 107.23 207.423 107.393Z" fill="#E0E0E0"/>
<path d="M218.308 113.579C218.208 113.729 216.946 113.117 215.471 112.204C214.009 111.292 212.897 110.43 212.972 110.28C213.072 110.105 214.334 110.73 215.809 111.642C217.283 112.554 218.396 113.416 218.296 113.566L218.308 113.579Z" fill="#E0E0E0"/>
<path d="M228.218 121.215C228.093 121.352 226.918 120.565 225.593 119.477C224.269 118.378 223.282 117.378 223.381 117.241C223.481 117.103 224.669 117.878 226.006 118.978C227.343 120.077 228.33 121.09 228.218 121.215Z" fill="#E0E0E0"/>
<path d="M237.116 130.025C236.979 130.15 235.904 129.225 234.717 127.988C233.53 126.738 232.667 125.626 232.792 125.501C232.917 125.376 233.992 126.288 235.192 127.538C236.391 128.8 237.254 129.912 237.116 130.025Z" fill="#E0E0E0"/>
<path d="M245.014 139.748C244.864 139.848 243.902 138.835 242.84 137.473C241.79 136.111 241.04 134.911 241.19 134.799C241.327 134.686 242.302 135.711 243.364 137.086C244.427 138.46 245.164 139.66 245.014 139.76V139.748Z" fill="#E0E0E0"/>
<path d="M251.962 150.158C251.813 150.245 250.938 149.145 250 147.696C249.076 146.246 248.438 144.984 248.588 144.884C248.738 144.784 249.613 145.884 250.55 147.346C251.488 148.808 252.112 150.07 251.962 150.158Z" fill="#E0E0E0"/>
<path d="M258.073 161.08C257.911 161.168 257.123 159.993 256.311 158.468C255.499 156.944 254.961 155.644 255.124 155.556C255.286 155.469 256.073 156.631 256.886 158.168C257.698 159.693 258.235 161.005 258.073 161.08Z" fill="#E0E0E0"/>
<path d="M262.16 169.553C261.997 169.628 261.573 169.053 261.21 168.278C260.848 167.491 260.685 166.804 260.848 166.729C261.01 166.654 261.435 167.229 261.797 168.016C262.16 168.803 262.322 169.491 262.16 169.566V169.553Z" fill="#E0E0E0"/>
<path d="M108.984 320.792C108.909 320.63 109.484 320.205 110.271 319.855C111.059 319.492 111.758 319.342 111.833 319.505C111.896 319.667 111.321 320.092 110.546 320.442C109.771 320.792 109.072 320.954 108.984 320.792Z" fill="#E0E0E0"/>
<path d="M98.786 327.553C98.6735 327.415 99.6108 326.403 100.973 325.378C102.335 324.354 103.572 323.716 103.672 323.866C103.772 324.016 102.71 324.879 101.373 325.903C100.036 326.916 98.911 327.703 98.786 327.565V327.553Z" fill="#E0E0E0"/>
<path d="M90.4759 336.513C90.3259 336.413 91.0882 335.264 92.1755 333.951C93.2627 332.639 94.25 331.677 94.3749 331.802C94.4999 331.927 93.7501 333.077 92.6753 334.364C91.6006 335.664 90.6133 336.626 90.4759 336.513Z" fill="#E0E0E0"/>
<path d="M84.2894 347.061C84.1269 346.986 84.6268 345.699 85.4141 344.199C86.2014 342.687 86.9638 341.537 87.1137 341.625C87.2637 341.712 86.7638 342.999 85.989 344.499C85.2142 345.986 84.4519 347.136 84.2894 347.061Z" fill="#E0E0E0"/>
<path d="M80.3903 358.658C80.2153 358.621 80.4403 357.258 80.9027 355.621C81.3651 353.984 81.8774 352.697 82.0399 352.759C82.2149 352.822 81.9774 354.172 81.5275 355.796C81.0776 357.408 80.5652 358.696 80.3903 358.658Z" fill="#E0E0E0"/>
<path d="M78.9534 370.805C78.7785 370.805 78.716 369.43 78.8285 367.731C78.941 366.031 79.1659 364.669 79.3534 364.694C79.5283 364.719 79.5908 366.094 79.4783 367.768C79.3658 369.443 79.1409 370.805 78.9534 370.805Z" fill="#E0E0E0"/>
<path d="M80.2155 382.965C80.0405 383.002 79.5906 381.69 79.3157 380.015C79.0407 378.328 79.0532 376.941 79.2282 376.929C79.4157 376.916 79.6781 378.253 79.953 379.915C80.2155 381.578 80.3904 382.94 80.2155 382.977V382.965Z" fill="#E0E0E0"/>
<path d="M84.3146 394.487C84.1522 394.562 83.4023 393.4 82.74 391.838C82.0777 390.275 81.7527 388.913 81.9277 388.863C82.1027 388.801 82.6775 390.038 83.3399 391.588C83.9897 393.137 84.4771 394.412 84.3146 394.499V394.487Z" fill="#E0E0E0"/>
<path d="M90.9256 404.772C90.7881 404.884 89.8633 403.86 88.876 402.485C87.8763 401.098 87.2014 399.911 87.3514 399.811C87.5014 399.711 88.4262 400.735 89.4134 402.11C90.4007 403.472 91.0755 404.672 90.9381 404.785L90.9256 404.772Z" fill="#E0E0E0"/>
<path d="M99.5242 413.47C99.4117 413.607 98.2995 412.795 97.0497 411.645C95.7875 410.496 94.8753 409.458 95.0127 409.333C95.1377 409.208 96.2499 410.021 97.4871 411.158C98.7243 412.295 99.6366 413.32 99.5242 413.47Z" fill="#E0E0E0"/>
<path d="M109.659 420.343C109.571 420.506 108.321 419.906 106.872 419.031C105.422 418.144 104.322 417.307 104.422 417.157C104.522 417.007 105.772 417.594 107.209 418.469C108.646 419.344 109.734 420.181 109.659 420.343Z" fill="#E0E0E0"/>
<path d="M120.893 425.18C120.843 425.355 119.506 425.005 117.906 424.405C116.319 423.805 115.082 423.193 115.157 423.018C115.232 422.855 116.569 423.193 118.144 423.792C119.718 424.38 120.956 425.005 120.893 425.18Z" fill="#E0E0E0"/>
<path d="M132.853 427.779C132.828 427.954 131.454 427.879 129.779 427.604C128.104 427.329 126.767 426.954 126.817 426.779C126.855 426.604 128.229 426.679 129.892 426.954C131.554 427.229 132.878 427.592 132.853 427.779Z" fill="#E0E0E0"/>
<path d="M145.088 427.892C145.113 428.066 143.75 428.279 142.051 428.354C140.351 428.429 138.977 428.354 138.977 428.166C138.977 427.992 140.339 427.779 142.026 427.704C143.7 427.629 145.075 427.704 145.1 427.892H145.088Z" fill="#E0E0E0"/>
<path d="M157.059 425.417C157.109 425.592 155.822 426.079 154.173 426.504C152.523 426.929 151.161 427.142 151.123 426.967C151.086 426.792 152.373 426.304 154.01 425.879C155.635 425.455 156.997 425.255 157.059 425.417Z" fill="#E0E0E0"/>
<path d="M168.32 420.618C168.407 420.781 167.233 421.506 165.708 422.243C164.171 422.98 162.884 423.455 162.809 423.28C162.734 423.105 163.908 422.38 165.42 421.656C166.933 420.918 168.232 420.456 168.32 420.618Z" fill="#E0E0E0"/>
<path d="M178.505 413.832C178.617 413.97 177.592 414.895 176.23 415.907C174.855 416.907 173.668 417.606 173.568 417.456C173.468 417.307 174.493 416.382 175.843 415.382C177.205 414.382 178.392 413.695 178.505 413.832Z" fill="#E0E0E0"/>
<path d="M187.353 405.384C187.49 405.497 186.64 406.597 185.466 407.821C184.291 409.046 183.229 409.933 183.116 409.808C182.991 409.683 183.841 408.584 185.003 407.371C186.165 406.159 187.228 405.272 187.353 405.384Z" fill="#E0E0E0"/>
<path d="M194.613 395.524C194.763 395.612 194.126 396.836 193.176 398.249C192.226 399.661 191.339 400.723 191.201 400.61C191.064 400.498 191.701 399.286 192.638 397.886C193.576 396.486 194.463 395.437 194.613 395.524Z" fill="#E0E0E0"/>
<path d="M200.037 384.552C200.2 384.614 199.787 385.927 199.1 387.489C198.412 389.051 197.725 390.238 197.575 390.163C197.413 390.088 197.838 388.763 198.512 387.226C199.187 385.689 199.875 384.489 200.037 384.552Z" fill="#E0E0E0"/>
<path d="M202.736 375.716C202.911 375.754 202.886 376.466 202.661 377.316C202.449 378.153 202.136 378.803 201.961 378.753C201.786 378.703 201.824 377.991 202.036 377.154C202.249 376.329 202.561 375.679 202.736 375.716Z" fill="#E0E0E0"/>
<path d="M330.206 13.993L274.324 28.9979C272.158 29.5796 270.873 31.8073 271.455 33.9737L281.832 72.6203C282.413 74.7867 284.641 76.0713 286.807 75.4896L342.689 60.4848C344.856 59.9031 346.14 57.6753 345.559 55.5089L335.182 16.8624C334.6 14.696 332.372 13.4114 330.206 13.993Z" fill="#F5F5F5"/>
<path d="M332.718 18.9015C332.718 18.9015 332.593 19.1389 332.306 19.5513L331.043 21.3259C329.869 22.9255 328.257 25.1125 326.282 27.7993C324.245 30.5362 321.833 33.7729 319.159 37.3471C317.809 39.1466 316.397 41.0212 314.935 42.9707C314.197 43.9455 313.448 44.9328 312.698 45.945C311.898 47.0073 310.736 47.8196 309.411 48.182C308.099 48.5569 306.687 48.4819 305.45 47.9945C304.287 47.4946 303.138 47.0073 302.013 46.5324C299.776 45.5701 297.614 44.6453 295.552 43.758C291.453 41.9835 287.754 40.3838 284.617 39.0217C281.568 37.672 279.081 36.5722 277.269 35.7724C276.456 35.3975 275.807 35.0976 275.282 34.8602C274.832 34.6477 274.594 34.5227 274.607 34.4977C274.607 34.4727 274.869 34.5602 275.332 34.7352C275.857 34.9476 276.531 35.2101 277.369 35.535C279.206 36.2848 281.718 37.3221 284.792 38.5968C287.941 39.9214 291.665 41.4836 295.777 43.2082C297.839 44.083 300.013 44.9952 302.25 45.945C303.375 46.4199 304.512 46.8948 305.675 47.3947C306.787 47.8321 308.049 47.8946 309.224 47.5571C310.398 47.2197 311.448 46.5074 312.16 45.5576C312.923 44.5578 313.673 43.5706 314.41 42.5958C315.885 40.6588 317.309 38.7842 318.659 36.9971C321.371 33.448 323.82 30.2488 325.895 27.5369C327.932 24.9125 329.606 22.7505 330.819 21.1884C331.381 20.4886 331.831 19.9262 332.181 19.4763C332.493 19.0889 332.668 18.889 332.693 18.914L332.718 18.9015Z" fill="#E0E0E0"/>
<path d="M300.113 45.3826C300.263 45.4701 297.139 50.8813 293.14 57.4548C289.128 64.0282 285.754 69.2769 285.604 69.1895C285.454 69.102 288.578 63.6908 292.577 57.1173C296.589 50.5439 299.963 45.2952 300.113 45.3826Z" fill="#E0E0E0"/>
<path d="M315.884 41.1462C315.972 40.9962 321.383 44.1205 327.957 48.1195C334.53 52.1311 339.779 55.5052 339.691 55.6552C339.604 55.8052 334.192 52.6809 327.619 48.6819C321.046 44.6703 315.797 41.2961 315.884 41.1462Z" fill="#E0E0E0"/>
<path d="M531.458 170.653C514.387 170.653 500.553 156.819 500.553 139.748C500.553 122.677 514.387 108.843 531.458 108.843C548.529 108.843 562.363 122.677 562.363 139.748C562.363 156.819 548.529 170.653 531.458 170.653Z" fill="#EBEBEB"/>
<path d="M526.748 158.431H534.271V139.598H539.519L540.082 133.287H534.271V129.7C534.271 128.213 534.571 127.626 536.008 127.626H540.082V121.077H534.871C529.272 121.077 526.748 123.539 526.748 128.263V133.287H522.836V139.673H526.748V158.431Z" fill="white"/>
<path d="M145.913 502.724C146.763 506.435 144.451 510.122 140.739 510.972C137.028 511.821 133.341 509.509 132.491 505.798C131.641 502.086 133.953 498.4 137.665 497.55C141.377 496.7 145.063 499.012 145.913 502.724Z" fill="#EBEBEB"/>
<path d="M113.42 510.297L165.033 498.437L160.534 495.163C157.747 493.138 155.785 490.164 155.023 486.815L151.811 472.818C149.424 462.433 139.077 455.947 128.679 458.334C118.294 460.721 111.808 471.069 114.195 481.466L117.282 494.925C117.994 498.05 117.644 501.311 116.282 504.211L113.42 510.309V510.297Z" fill="#EBEBEB"/>
<path d="M127.043 452.325L126.386 452.476C125.168 452.756 124.408 453.97 124.687 455.187L126.144 461.533C126.424 462.751 127.637 463.511 128.855 463.232L129.513 463.081C130.73 462.801 131.491 461.587 131.211 460.37L129.754 454.024C129.475 452.806 128.261 452.046 127.043 452.325Z" fill="#EBEBEB"/>
<path d="M165.07 498.55C165.095 498.662 153.636 501.374 139.489 504.623C125.33 507.872 113.833 510.422 113.808 510.309C113.783 510.197 125.242 507.485 139.402 504.236C153.561 500.987 165.058 498.45 165.07 498.55Z" fill="#E0E0E0"/>
<path d="M132.554 506.01C132.554 506.01 135.878 507.685 139.577 506.835C143.976 505.823 145.963 502.924 145.963 502.924L132.541 505.998L132.554 506.01Z" fill="#E0E0E0"/>
<path d="M148.674 470.969C148.512 470.381 148.324 469.769 147.9 469.319C147.475 468.869 146.75 468.657 146.237 468.994C145.613 469.282 145.275 469.956 145.425 470.631C145.925 472.843 147.025 477.742 147.575 480.679C148.024 483.091 148.262 485.728 147.15 487.915C146.287 489.602 144.65 490.789 142.901 491.526C141.151 492.264 139.264 492.601 137.402 493.001C135.053 493.501 132.703 494.126 130.554 495.188C129.979 495.475 129.391 495.813 129.042 496.35C128.692 496.888 128.679 497.687 129.166 498.112C129.616 498.5 130.279 498.437 130.854 498.362C136.852 497.537 142.888 496.6 148.587 494.551C149.774 494.126 151.011 493.601 151.724 492.564C152.536 491.389 152.473 489.839 152.336 488.415C151.749 482.491 150.311 476.692 148.674 470.969Z" fill="#E0E0E0"/>
<g opacity="0.2">
<path d="M123.793 462.821C123.793 462.821 123.818 462.821 123.83 462.808C123.855 462.808 123.868 462.783 123.893 462.771L123.793 462.821Z" fill="white"/>
</g>
<path d="M140.389 459.196C140.364 459.271 139.226 458.784 137.289 458.397C136.327 458.197 135.152 458.059 133.853 458.022C132.553 458.009 131.116 458.084 129.641 458.347C128.167 458.622 126.792 459.034 125.58 459.509C124.38 459.996 123.318 460.534 122.493 461.059C120.806 462.096 119.906 462.946 119.856 462.883C119.843 462.858 120.056 462.646 120.468 462.271C120.668 462.071 120.931 461.846 121.243 461.621C121.556 461.383 121.905 461.096 122.343 460.834C123.168 460.271 124.23 459.709 125.442 459.184C126.667 458.684 128.067 458.247 129.579 457.972C131.091 457.709 132.553 457.634 133.878 457.672C135.202 457.747 136.39 457.897 137.364 458.147C137.852 458.247 138.289 458.397 138.664 458.509C139.051 458.622 139.364 458.747 139.626 458.859C140.139 459.072 140.426 459.209 140.414 459.234L140.389 459.196Z" fill="#E0E0E0"/>
<path d="M117.482 503.149C117.37 503.099 118.032 501.486 118.269 499.374C118.532 497.262 118.269 495.538 118.382 495.525C118.469 495.5 118.932 497.25 118.657 499.424C118.407 501.611 117.557 503.199 117.469 503.149H117.482Z" fill="white"/>
<path d="M141.214 509.472C141.214 509.472 140.864 509.772 140.177 509.972C139.489 510.172 138.465 510.272 137.39 509.972C136.315 509.684 135.478 509.072 134.99 508.56C134.49 508.035 134.303 507.635 134.353 507.61C134.403 507.572 134.665 507.922 135.19 508.36C135.703 508.797 136.503 509.322 137.502 509.597C138.502 509.872 139.452 509.822 140.127 509.709C140.801 509.597 141.201 509.435 141.226 509.485L141.214 509.472Z" fill="white"/>
<path d="M126.117 453.21C126.217 453.273 125.692 454.023 125.643 455.085C125.555 456.147 125.967 456.947 125.867 456.997C125.792 457.072 125.155 456.26 125.243 455.06C125.318 453.86 126.055 453.135 126.117 453.21Z" fill="white"/>
<path d="M529.759 348.135C531.146 347.298 532.608 346.661 534.133 346.236L535.033 341.912L542.343 341.787L543.393 346.086C544.93 346.461 546.417 347.048 547.83 347.836L551.529 345.411L556.79 350.497L554.503 354.271C555.34 355.659 555.978 357.133 556.403 358.645L560.727 359.545L560.852 366.856L556.553 367.906C556.178 369.443 555.59 370.93 554.803 372.342L557.227 376.041L552.141 381.303L548.367 379.016C546.98 379.853 545.505 380.49 543.993 380.915L543.093 385.239L535.783 385.364L534.733 381.065C533.196 380.69 531.708 380.103 530.296 379.316L526.597 381.74L521.336 376.654L523.623 372.88C522.786 371.492 522.148 370.03 521.723 368.506L517.399 367.606L517.274 360.295L521.573 359.245C521.948 357.708 522.536 356.221 523.323 354.809L520.899 351.11L525.985 345.849L529.759 348.135ZM533.658 357.883C530.646 361.007 530.734 365.969 533.858 368.98C536.982 371.992 541.944 371.905 544.955 368.781C547.967 365.656 547.88 360.695 544.755 357.683C541.631 354.671 536.67 354.759 533.658 357.883Z" fill="#EBEBEB"/>
<path d="M559.902 535.253C559.902 535.428 436.519 535.578 284.367 535.578C132.216 535.578 8.80811 535.428 8.80811 535.253C8.80811 535.078 132.154 534.928 284.367 534.928C436.581 534.928 559.902 535.078 559.902 535.253Z" fill="black"/>
<path d="M352.377 147.583L142.814 166.479C114.883 169.003 94.4256 195.247 97.1249 225.115L108.172 347.573C110.859 377.441 135.691 399.598 163.622 397.086L244.965 389.751C247.427 389.526 249.851 390.613 251.438 392.65L274.445 421.93C277.844 426.254 284.205 425.692 286.78 420.818L304.176 387.889C305.388 385.602 307.575 384.102 310.037 383.877L373.184 378.178C401.115 375.654 421.573 349.41 418.873 319.542L407.826 197.084C405.139 167.216 380.308 145.059 352.377 147.571V147.583Z" fill="white"/>
<path d="M352.377 147.583C352.377 147.583 353.276 147.533 355.051 147.458C355.488 147.446 355.988 147.421 356.538 147.396C357.088 147.371 357.688 147.333 358.338 147.396C359.65 147.496 361.162 147.571 362.887 147.733C363.736 147.883 364.636 148.046 365.586 148.208C366.536 148.396 367.548 148.496 368.56 148.833C369.585 149.133 370.66 149.433 371.772 149.758C372.897 150.058 373.996 150.608 375.171 151.045C379.82 152.97 384.969 155.894 389.855 160.293C394.742 164.667 399.353 170.528 402.727 177.776C403.14 178.688 403.552 179.613 403.964 180.538C404.402 181.463 404.652 182.475 405.014 183.45C405.339 184.437 405.714 185.424 406.001 186.449C406.251 187.486 406.489 188.524 406.739 189.586C407.738 193.81 408.076 198.321 408.501 202.945C410.188 221.478 412.1 242.586 414.224 265.905C415.287 277.565 416.386 289.787 417.549 302.521C417.836 305.708 418.123 308.92 418.423 312.169C418.573 313.794 418.723 315.418 418.873 317.068L419.098 319.53L419.211 322.029C419.536 328.69 418.736 335.539 416.636 342.137C414.549 348.723 411.175 355.059 406.601 360.545C402.027 366.044 396.241 370.693 389.58 373.879C386.269 375.517 382.707 376.654 379.07 377.504C378.171 377.791 377.221 377.828 376.308 377.991L373.522 378.391C371.66 378.591 369.785 378.741 367.91 378.916C360.4 379.591 352.777 380.29 345.066 380.978C337.355 381.678 329.545 382.377 321.646 383.09C317.697 383.452 313.736 383.815 309.749 384.177C307.837 384.414 306.075 385.539 304.963 387.114C304.413 387.889 304.001 388.838 303.513 389.713L302.101 392.4C298.315 399.573 294.49 406.809 290.629 414.12C289.667 415.944 288.692 417.781 287.73 419.618C287.242 420.518 286.805 421.506 286.08 422.33C285.393 423.155 284.53 423.855 283.543 424.342C281.581 425.305 279.194 425.33 277.195 424.442C276.182 424.005 275.307 423.318 274.57 422.505C273.833 421.693 273.245 420.856 272.583 420.031C267.372 413.407 262.123 406.722 256.837 399.986C255.512 398.299 254.188 396.611 252.863 394.924C252.2 394.087 251.538 393.212 250.863 392.412C250.176 391.638 249.326 391.013 248.389 390.588C247.439 390.163 246.414 389.963 245.377 389.988C244.34 390.051 243.228 390.176 242.165 390.263C240.003 390.463 237.841 390.65 235.679 390.85C218.346 392.412 200.763 394 182.967 395.612C178.518 396.012 174.082 396.412 169.658 396.811C165.246 397.199 160.797 397.724 156.361 397.399C155.249 397.311 154.136 397.261 153.049 397.136L149.775 396.549C149.237 396.449 148.688 396.374 148.15 396.237L146.563 395.774L143.389 394.837L140.327 393.587L138.802 392.962L137.34 392.188L134.429 390.65L131.679 388.838C124.356 383.989 118.595 377.141 114.483 369.593C114.221 369.118 113.933 368.668 113.708 368.181L113.046 366.706L111.734 363.757C111.347 362.757 111.034 361.732 110.684 360.72C110.372 359.695 109.934 358.708 109.722 357.658C108.622 353.534 108.01 349.285 107.66 345.099C104.636 311.519 101.724 279.139 98.9495 248.284C98.2621 240.574 97.5748 232.95 96.8999 225.44C96.2001 217.892 96.8999 210.293 99.0744 203.245C103.323 189.111 113.234 177.226 125.668 171.09L127.993 169.94L130.404 169.041C131.204 168.741 132.004 168.428 132.816 168.153L135.291 167.516C136.116 167.316 136.94 167.079 137.765 166.891L140.277 166.529L142.777 166.166L145.263 165.941C151.887 165.354 158.373 164.767 164.746 164.192C177.481 163.055 189.703 161.955 201.375 160.905C248.039 156.744 285.792 153.369 311.899 151.045C324.946 149.895 335.068 149.008 341.954 148.396C345.378 148.096 348.003 147.871 349.765 147.721C351.527 147.571 352.427 147.508 352.427 147.508C352.427 147.508 351.527 147.608 349.765 147.783C348.003 147.946 345.378 148.196 341.954 148.521C335.081 149.158 324.958 150.083 311.911 151.295C285.817 153.669 248.064 157.119 201.413 161.368C189.753 162.43 177.531 163.53 164.796 164.692C158.435 165.267 151.937 165.854 145.313 166.454L142.827 166.679L140.352 167.041L137.865 167.404C137.053 167.591 136.241 167.816 135.428 168.016L132.979 168.641C132.179 168.903 131.392 169.228 130.592 169.516L128.205 170.415L125.906 171.553C113.608 177.626 103.811 189.386 99.6118 203.395C97.4623 210.381 96.775 217.892 97.4748 225.377C98.1497 232.888 98.8495 240.511 99.5368 248.222C102.324 279.077 105.248 311.457 108.285 345.024C108.635 349.223 109.247 353.384 110.334 357.483C110.534 358.521 110.972 359.495 111.284 360.508C111.634 361.507 111.934 362.52 112.321 363.507L113.621 366.419L114.271 367.881C114.496 368.356 114.783 368.818 115.046 369.281C119.12 376.741 124.806 383.502 132.042 388.288L134.753 390.076L137.628 391.6L139.065 392.363L140.577 392.975L143.601 394.2L146.738 395.124L148.313 395.587C148.838 395.712 149.387 395.787 149.925 395.899L153.149 396.487C154.236 396.624 155.336 396.661 156.423 396.749C160.797 397.086 165.196 396.561 169.62 396.174C174.044 395.774 178.481 395.374 182.929 394.974C200.725 393.375 218.309 391.788 235.642 390.225C237.804 390.026 239.966 389.838 242.128 389.638C243.215 389.551 244.265 389.426 245.377 389.363C246.514 389.326 247.639 389.563 248.676 390.013C249.701 390.475 250.626 391.163 251.376 392C252.088 392.862 252.725 393.7 253.4 394.549C254.725 396.237 256.05 397.924 257.374 399.611C262.673 406.347 267.922 413.033 273.12 419.656C273.77 420.468 274.408 421.356 275.083 422.093C275.757 422.83 276.57 423.48 277.494 423.867C279.332 424.692 281.506 424.667 283.306 423.78C284.205 423.33 284.993 422.693 285.63 421.93C286.28 421.181 286.705 420.243 287.205 419.319C288.179 417.482 289.142 415.644 290.104 413.82C293.966 406.509 297.802 399.261 301.589 392.1L303.013 389.413C303.501 388.526 303.901 387.614 304.513 386.739C305.725 385.027 307.637 383.815 309.724 383.552C313.723 383.19 317.697 382.827 321.646 382.465C329.545 381.753 337.355 381.053 345.066 380.353C352.777 379.666 360.387 378.978 367.91 378.303C369.785 378.128 371.66 377.978 373.522 377.778L376.283 377.379C377.196 377.216 378.133 377.179 379.02 376.904C382.619 376.066 386.131 374.942 389.405 373.33C395.991 370.18 401.715 365.581 406.239 360.158C410.775 354.721 414.112 348.46 416.186 341.937C418.273 335.401 419.073 328.615 418.748 322.017L418.648 319.542L418.423 317.08C418.273 315.443 418.136 313.806 417.986 312.182C417.699 308.932 417.411 305.721 417.124 302.534C415.986 289.799 414.887 277.577 413.837 265.918C411.75 242.586 409.863 221.478 408.201 202.945C407.788 198.309 407.451 193.822 406.464 189.623C406.214 188.574 405.976 187.536 405.726 186.512C405.426 185.499 405.064 184.512 404.739 183.525C404.389 182.55 404.139 181.55 403.702 180.625C403.29 179.701 402.877 178.776 402.477 177.876C399.128 170.665 394.554 164.829 389.718 160.455C384.869 156.056 379.758 153.132 375.121 151.195C373.947 150.745 372.859 150.195 371.735 149.895C370.622 149.57 369.548 149.258 368.535 148.958C367.523 148.608 366.511 148.508 365.573 148.321C364.624 148.146 363.724 147.983 362.887 147.833C361.175 147.658 359.662 147.583 358.35 147.471C357.7 147.396 357.1 147.421 356.551 147.446C356.001 147.458 355.513 147.483 355.063 147.496C353.301 147.546 352.389 147.558 352.389 147.558L352.377 147.583Z" fill="black"/>
<path d="M461.26 103.86C465.423 80.583 449.928 58.3388 426.652 54.1759C403.375 50.0129 381.131 65.5076 376.968 88.7842C372.805 112.061 388.3 134.305 411.576 138.468C434.853 142.631 457.097 127.136 461.26 103.86Z" fill="#E6A371"/>
<g opacity="0.3">
<path d="M461.26 103.86C465.423 80.583 449.928 58.3388 426.652 54.1758C403.375 50.0129 381.131 65.5076 376.968 88.7842C372.805 112.061 388.3 134.305 411.576 138.468C434.853 142.631 457.097 127.136 461.26 103.86Z" fill="black"/>
</g>
<path d="M441.901 127.929C461.963 115.413 468.079 89.0031 455.563 68.9415C443.046 48.8798 416.636 42.7632 396.575 55.2797C376.513 67.7961 370.397 94.2059 382.913 114.268C395.429 134.329 421.839 140.446 441.901 127.929Z" fill="#E6A371"/>
<path d="M447.739 94.7484C449.474 79.0039 438.118 64.8335 422.373 63.0981C406.629 61.3627 392.458 72.7193 390.723 88.4639C388.987 104.208 400.344 118.379 416.089 120.114C431.833 121.85 446.003 110.493 447.739 94.7484Z" fill="white"/>
<path d="M433.269 91.9466C433.082 99.6948 426.633 105.818 418.885 105.631C411.137 105.443 405.014 98.9949 405.201 91.2468C405.388 83.4986 411.837 77.3751 419.585 77.5625C427.333 77.75 433.457 84.1985 433.269 91.9466Z" fill="#E6A371"/>
<path d="M449.853 61.0164L448.916 51.8561L458.451 42.1335L458.876 52.0061L449.853 61.0164Z" fill="#455A64"/>
<path d="M469.986 54.2431L460.576 53.2433L450.891 62.1037L460.326 63.3409L469.986 54.2431Z" fill="#455A64"/>
<g opacity="0.3">
<path d="M421.11 91.4467L454.464 67.2775C453.39 65.5904 452.028 63.8908 450.49 62.1787L421.172 89.2223L421.122 91.4467H421.11Z" fill="black"/>
</g>
<path d="M459.301 50.644C454.752 54.9804 450.191 59.3044 445.642 63.6409C438.418 70.5142 431.195 77.3876 423.972 84.261C422.31 85.8356 420.648 87.4227 418.985 88.9973C417.411 90.497 419.748 92.9339 421.335 91.4342C425.884 87.0978 430.445 82.7738 434.994 78.4373C442.217 71.564 449.441 64.6906 456.664 57.8173C458.326 56.2426 459.988 54.6555 461.65 53.0809C463.225 51.5812 460.888 49.1443 459.301 50.644Z" fill="black"/>
<g opacity="0.2">
<path d="M378.82 251.059C378.283 238.737 376.046 226.427 373.309 214.167C372.671 211.456 372.034 208.744 371.397 206.044C370.734 203.358 369.972 200.708 369.26 198.046C367.885 192.723 366.31 187.499 364.711 182.338C361.636 171.953 356.938 159.393 353.313 149.608C346.952 147.333 338.829 146.996 329.207 148.308L258.911 158.456C244.477 172.602 231.18 183.537 220.195 191.623C220.045 190.648 219.895 189.686 219.758 188.711L159.447 216.18C148.112 223.253 142.276 237.949 149.075 254.895L155.748 273.366L160.372 282.864C165.746 293.886 176.481 299.447 186.516 297.223L185.891 297.473C186.141 297.385 186.391 297.285 186.641 297.198C188.403 296.798 190.14 296.173 191.827 295.273C193.052 294.811 194.264 294.361 195.464 293.898L245.027 357.658C248.651 362.32 255.362 362.17 258.811 357.371L274.77 335.139C277.769 330.952 276.994 324.966 273.045 321.804C262.698 313.556 244.252 297.723 237.516 284.901C237.266 284.363 235.317 279.989 235.104 277.94C238.253 276.64 241.49 275.315 244.814 273.953C248.476 273.191 252.225 272.466 256.074 271.766C264.022 270.367 272.383 269.117 281.106 268.542C289.816 267.942 298.889 268.542 308.199 269.729C326.882 272.041 346.34 276.903 366.898 281.601L367.898 281.776L369.047 281.726C369.822 281.714 370.484 281.264 371.184 281.014C371.772 280.552 372.396 280.114 372.946 279.602L374.371 277.84C375.921 275.253 377.083 272.379 377.62 269.379C378.857 263.418 379.157 257.22 378.807 251.071L378.82 251.059Z" fill="black"/>
</g>
<path d="M173.457 208.781C173.457 208.781 198.688 199.184 237.866 166.029C266.509 141.785 288.304 113.741 297.952 100.42C302.588 94.0211 311.261 92.4965 317.472 97.2578C327.057 104.606 340.892 123.752 357.888 173.627C387.855 261.544 371.772 279.714 364.461 278.852C357.15 277.977 308.537 264.793 277.182 265.48C245.827 266.18 198.813 279.052 198.813 279.052L173.457 208.794V208.781Z" fill="#E0E0E0"/>
<path d="M173.456 208.781C173.456 208.781 173.619 209.194 173.919 209.993C174.218 210.806 174.656 211.993 175.231 213.555C176.38 216.704 178.068 221.328 180.267 227.339C184.641 239.361 191.002 256.895 199.025 278.965L198.775 278.84C212.509 275.19 228.181 271.541 245.601 268.592C254.312 267.155 263.472 265.88 273.045 265.38C282.63 264.855 292.59 265.568 302.763 266.817C312.935 268.092 323.345 269.942 333.968 272.079C339.279 273.141 344.653 274.303 350.064 275.503C352.776 276.103 355.5 276.703 358.237 277.302C359.612 277.602 360.987 277.89 362.361 278.165C363.049 278.302 363.736 278.402 364.423 278.515C365.086 278.565 365.748 278.527 366.385 278.302C367.672 277.902 368.772 276.99 369.684 275.953C370.584 274.89 371.297 273.666 371.909 272.404C373.084 269.829 373.783 267.042 374.258 264.206C375.183 258.519 375.146 252.658 374.796 246.797C373.996 235.062 371.684 223.265 368.81 211.493C366.223 200.921 363.123 190.611 359.837 180.525C356.538 170.44 353.038 160.593 349.252 151.058C345.453 141.522 341.416 132.274 336.767 123.564C334.455 119.215 331.956 115.004 329.269 111.005C326.57 107.018 323.608 103.244 320.209 100.02C319.371 99.1949 318.472 98.445 317.572 97.7202C317.134 97.3328 316.635 97.0579 316.172 96.7205C315.672 96.4455 315.185 96.1456 314.66 95.9206C312.586 95.0084 310.286 94.571 308.037 94.8209C305.8 95.0459 303.625 95.8082 301.801 97.0704L301.113 97.5453L300.476 98.0826C300.038 98.4201 299.664 98.8325 299.276 99.2324C298.539 100.045 297.889 100.944 297.227 101.857C291.94 109.08 286.554 115.903 281.156 122.339C270.371 135.224 259.548 146.571 249.101 156.306C228.031 175.614 209.01 188.973 195.401 197.309C188.578 201.458 183.079 204.357 179.292 206.182C177.405 207.107 175.931 207.744 174.943 208.169C173.944 208.594 173.431 208.769 173.431 208.769C173.619 208.681 174.018 208.506 174.918 208.106C175.906 207.669 177.355 207.007 179.242 206.057C183.004 204.195 188.478 201.258 195.276 197.084C202.062 192.898 210.172 187.436 219.233 180.625C221.482 178.913 223.844 177.164 226.194 175.252C228.568 173.377 231.017 171.44 233.479 169.366C238.466 165.304 243.564 160.818 248.788 155.969C259.211 146.221 269.983 134.874 280.743 121.989C286.129 115.553 291.491 108.73 296.764 101.519C297.414 100.62 298.076 99.6948 298.851 98.845C299.251 98.4326 299.639 98.0077 300.088 97.6452L300.751 97.0829L301.463 96.5955C303.375 95.2833 305.637 94.4835 307.974 94.2461C310.311 93.9836 312.723 94.4335 314.897 95.3833C315.447 95.6207 315.96 95.9332 316.472 96.2206C316.959 96.5705 317.484 96.8704 317.922 97.2578C318.847 97.9952 319.759 98.7575 320.609 99.5948C324.058 102.869 327.045 106.668 329.756 110.667C332.468 114.691 334.968 118.903 337.292 123.277C341.954 132.012 346.003 141.285 349.814 150.833C353.613 160.393 357.125 170.24 360.424 180.338C363.711 190.436 366.823 200.758 369.409 211.356C372.284 223.153 374.608 234.975 375.408 246.772C375.77 252.658 375.795 258.569 374.858 264.318C374.371 267.192 373.658 270.029 372.446 272.679C371.809 273.978 371.072 275.253 370.122 276.365C369.16 277.465 367.985 278.44 366.548 278.902C365.848 279.152 365.061 279.214 364.323 279.139C363.623 279.015 362.911 278.915 362.211 278.777C360.824 278.502 359.437 278.215 358.075 277.915C355.338 277.315 352.613 276.703 349.902 276.115C344.478 274.915 339.129 273.753 333.818 272.679C323.208 270.542 312.81 268.679 302.663 267.392C292.515 266.13 282.593 265.405 273.045 265.918C263.497 266.405 254.362 267.667 245.651 269.079C228.256 271.991 212.572 275.615 198.85 279.227L198.663 279.277L198.6 279.102C190.652 256.945 184.341 239.349 180.017 227.289C177.868 221.278 176.218 216.654 175.093 213.505C174.543 211.955 174.118 210.768 173.844 209.968C173.569 209.169 173.431 208.781 173.431 208.781H173.456Z" fill="black"/>
<g opacity="0.3">
<path d="M352.589 178.813C368.235 225.715 372.909 266.655 363.012 270.254C353.114 273.866 332.407 238.762 316.748 191.86C301.101 144.959 296.428 104.019 306.325 100.42C316.223 96.8079 336.93 131.912 352.589 178.813Z" fill="black"/>
</g>
<path d="M308.499 164.254C308.499 164.254 332.043 151.832 341.704 184.849C351.364 217.867 327.407 220.803 327.407 220.803C319.059 204.132 312.698 185.349 308.499 164.254Z" fill="white"/>
<path d="M149.675 244.898L159.36 278.69C160.61 283.039 164.759 285.888 169.258 285.5C172.344 285.238 175.356 286.488 177.331 288.875L232.88 355.634C236.754 360.295 243.952 360.145 247.639 355.346L264.722 333.114C267.934 328.928 267.109 322.942 262.873 319.78C250.326 310.42 226.619 291.324 222.67 277.915C220.158 269.379 220.483 265.193 221.533 263.156C222.92 260.481 223.282 257.395 222.095 254.633L213.522 234.6C211.922 230.851 208.086 228.552 204.024 228.901L157.935 232.876C152.012 233.388 148.025 239.174 149.662 244.898H149.675Z" fill="#E6A371"/>
<path opacity="0.3" d="M177.505 289.075L187.815 301.472L224.882 282.926C224.882 282.926 222.02 277.102 222.257 275.353L177.505 289.075Z" fill="black"/>
<path d="M130.179 252.883L137.328 271.354L142.276 280.852C149.062 293.873 163.884 299.31 175.981 293.236L239.703 269.242C220.645 245.472 210.373 217.467 205.824 186.699L141.277 214.167C129.142 221.241 122.893 235.937 130.179 252.883Z" fill="#E6A371"/>
<path d="M200.013 215.942C200.2 216.392 188.465 221.941 173.806 228.339C159.135 234.738 147.088 239.549 146.9 239.099C146.713 238.649 158.435 233.1 173.106 226.702C187.765 220.304 199.813 215.492 200.013 215.942Z" fill="black"/>
<path d="M203.999 225.527C204.187 225.977 192.452 231.526 177.793 237.924C163.122 244.323 151.074 249.134 150.887 248.684C150.7 248.234 162.422 242.686 177.093 236.287C191.752 229.889 203.799 225.077 203.999 225.527Z" fill="black"/>
<path d="M207.986 235.112C208.173 235.562 196.438 241.111 181.779 247.51C167.108 253.908 155.073 258.719 154.873 258.269C154.686 257.82 166.408 252.271 181.08 245.872C195.739 239.474 207.786 234.663 207.986 235.112Z" fill="black"/>
<path d="M211.972 244.698C212.159 245.148 200.425 250.696 185.766 257.095C171.094 263.493 159.06 268.305 158.86 267.855C158.672 267.405 170.407 261.856 185.066 255.458C199.725 249.059 211.772 244.248 211.972 244.698Z" fill="black"/>
<path d="M239.716 269.229C239.716 269.229 239.491 269.367 239.028 269.567C238.503 269.779 237.828 270.054 237.016 270.404C235.179 271.129 232.655 272.141 229.555 273.366C223.257 275.84 214.547 279.264 204.886 282.951C195.226 286.65 186.428 289.849 180.03 292.061C176.831 293.174 174.231 294.036 172.419 294.611C171.569 294.873 170.882 295.098 170.332 295.261C169.857 295.398 169.595 295.473 169.595 295.448C169.595 295.423 169.832 295.323 170.295 295.136C170.832 294.936 171.507 294.686 172.332 294.373C174.194 293.699 176.743 292.761 179.867 291.624C186.228 289.312 195.001 286.038 204.649 282.339C214.272 278.677 222.982 275.365 229.38 272.928C232.505 271.779 235.054 270.841 236.916 270.167C237.753 269.879 238.441 269.629 238.978 269.454C239.453 269.292 239.703 269.229 239.716 269.242V269.229Z" fill="black"/>
<path d="M351.576 264.468C351.576 264.468 351.489 264.368 351.339 264.156C351.177 263.918 350.977 263.606 350.714 263.206C350.152 262.331 349.364 261.106 348.365 259.544C346.365 256.332 343.528 251.659 340.217 245.76C333.618 233.975 325.233 217.204 318.222 197.784C314.698 188.086 311.848 178.651 309.636 169.99C309.049 167.828 308.562 165.704 308.087 163.642C307.612 161.58 307.162 159.58 306.712 157.643C305.85 153.769 305.025 150.158 304.325 146.846C302.913 140.235 302.038 134.824 301.613 131.062C301.388 129.188 301.263 127.726 301.188 126.726C301.163 126.263 301.138 125.889 301.113 125.601C301.113 125.351 301.101 125.214 301.113 125.214C301.113 125.214 301.151 125.339 301.176 125.589L301.313 126.713C301.426 127.701 301.588 129.163 301.851 131.025C302.351 134.761 303.3 140.148 304.763 146.734C305.512 150.033 306.337 153.632 307.224 157.506C307.674 159.443 308.149 161.443 308.624 163.492C309.112 165.554 309.611 167.666 310.199 169.816C312.448 178.451 315.298 187.849 318.809 197.534C325.808 216.917 334.106 233.688 340.592 245.51C343.841 251.421 346.615 256.132 348.552 259.382C349.502 260.969 350.264 262.219 350.789 263.106C351.027 263.506 351.214 263.831 351.364 264.081C351.489 264.305 351.551 264.418 351.539 264.43L351.576 264.468Z" fill="black"/>
<path d="M218.583 117.803C200.65 117.803 186.116 103.269 186.116 85.3357C186.116 67.4024 200.65 52.8684 218.583 52.8684C236.517 52.8684 251.051 67.4024 251.051 85.3357C251.051 103.269 236.517 117.803 218.583 117.803Z" fill="#455A64"/>
<path d="M218.583 70.7391C223.332 70.7391 223.895 70.7516 225.782 70.8391C227.519 70.9141 228.456 71.214 229.093 71.4515C229.918 71.7764 230.518 72.1638 231.143 72.7887C231.768 73.4135 232.155 74.0009 232.48 74.8382C232.73 75.463 233.017 76.4128 233.092 78.1499C233.18 80.0244 233.192 80.5868 233.192 85.3482C233.192 90.1095 233.18 90.6594 233.092 92.5464C233.017 94.2835 232.717 95.2208 232.48 95.8582C232.155 96.6955 231.768 97.2828 231.143 97.9077C230.518 98.5325 229.931 98.9199 229.093 99.2449C228.468 99.4948 227.519 99.7822 225.782 99.8572C223.907 99.9447 223.345 99.9572 218.583 99.9572C213.822 99.9572 213.272 99.9447 211.385 99.8572C209.648 99.7822 208.711 99.4823 208.073 99.2449C207.249 98.9199 206.649 98.5325 206.024 97.9077C205.399 97.2828 205.012 96.6955 204.687 95.8582C204.449 95.2333 204.149 94.2835 204.074 92.5464C203.987 90.6719 203.974 90.1095 203.974 85.3482C203.974 80.5868 203.987 80.0369 204.074 78.1499C204.149 76.4128 204.449 75.4755 204.687 74.8382C205.012 74.0134 205.399 73.4135 206.024 72.7887C206.649 72.1638 207.236 71.7764 208.073 71.4515C208.698 71.2015 209.648 70.9141 211.385 70.8391C213.26 70.7516 213.822 70.7391 218.583 70.7391ZM218.583 67.5274C213.747 67.5274 213.147 67.5524 211.248 67.6399C209.348 67.7274 208.061 68.0273 206.924 68.4647C205.749 68.9146 204.762 69.5269 203.774 70.5142C202.787 71.5015 202.175 72.5012 201.725 73.6634C201.287 74.8007 200.988 76.0879 200.9 77.9874C200.813 79.887 200.788 80.4868 200.788 85.3232C200.788 90.1595 200.813 90.7594 200.9 92.6589C200.988 94.5585 201.287 95.8457 201.725 96.9829C202.175 98.1576 202.787 99.1449 203.774 100.132C204.762 101.119 205.761 101.732 206.924 102.182C208.061 102.619 209.348 102.919 211.248 103.006C213.147 103.094 213.747 103.119 218.583 103.119C223.42 103.119 224.02 103.094 225.919 103.006C227.819 102.919 229.106 102.619 230.243 102.182C231.418 101.732 232.405 101.119 233.392 100.132C234.38 99.1449 234.992 98.1451 235.442 96.9829C235.879 95.8457 236.179 94.5585 236.267 92.6589C236.354 90.7594 236.379 90.1595 236.379 85.3232C236.379 80.4868 236.354 79.887 236.267 77.9874C236.179 76.0879 235.879 74.8007 235.442 73.6634C234.992 72.4887 234.38 71.5015 233.392 70.5142C232.405 69.5269 231.405 68.9146 230.243 68.4647C229.106 68.0273 227.819 67.7274 225.919 67.6399C224.02 67.5524 223.42 67.5274 218.583 67.5274Z" fill="white"/>
<path d="M218.583 76.1878C213.535 76.1878 209.436 80.2869 209.436 85.3357C209.436 90.3845 213.535 94.4835 218.583 94.4835C223.632 94.4835 227.731 90.3845 227.731 85.3357C227.731 80.2869 223.632 76.1878 218.583 76.1878ZM218.583 91.2593C215.309 91.2593 212.647 88.5974 212.647 85.3232C212.647 82.0489 215.309 79.3871 218.583 79.3871C221.858 79.3871 224.519 82.0489 224.519 85.3232C224.519 88.5974 221.858 91.2593 218.583 91.2593Z" fill="white"/>
<path d="M230.231 75.8254C230.231 77.0002 229.268 77.9624 228.094 77.9624C226.919 77.9624 225.957 77.0002 225.957 75.8254C225.957 74.6507 226.919 73.6884 228.094 73.6884C229.268 73.6884 230.231 74.6507 230.231 75.8254Z" fill="white"/>
<path d="M91.9559 264.01L19.0259 245.339C16.8529 244.783 14.6403 246.094 14.084 248.267L1.00748 299.344C0.451159 301.517 1.76176 303.73 3.9348 304.286L76.8648 322.957C79.0378 323.513 81.2504 322.203 81.8067 320.03L94.8833 268.952C95.4396 266.779 94.129 264.567 91.9559 264.01Z" fill="#E6A371"/>
<path d="M90.6022 270.742C90.6022 270.742 90.3148 270.916 89.7399 271.191C89.115 271.479 88.2777 271.866 87.228 272.354C84.9785 273.366 81.8293 274.778 77.9677 276.503C74.0311 278.24 69.3697 280.302 64.196 282.589C61.5966 283.726 58.8722 284.926 56.0479 286.163C54.6357 286.775 53.1986 287.413 51.7364 288.05C50.2118 288.712 48.4497 288.875 46.7876 288.475C45.1255 288.075 43.6259 287.125 42.5886 285.838C41.6139 284.576 40.6516 283.326 39.7143 282.101C37.8398 279.652 36.0402 277.29 34.3156 275.04C30.8914 270.542 27.8046 266.48 25.2053 263.056C22.6559 259.669 20.5939 256.907 19.1067 254.945C18.4319 254.021 17.882 253.283 17.4696 252.721C17.1072 252.208 16.9197 251.934 16.9322 251.921C16.9447 251.909 17.1697 252.158 17.5696 252.646C18.007 253.183 18.5818 253.908 19.2942 254.795C20.8188 256.732 22.9433 259.457 25.5552 262.781C28.192 266.193 31.3163 270.217 34.778 274.691C36.5151 276.94 38.3271 279.289 40.2017 281.739C41.139 282.951 42.1012 284.201 43.076 285.451C44.0383 286.625 45.4129 287.5 46.9376 287.862C50.0868 288.762 52.9362 286.675 55.7855 285.6C58.6098 284.376 61.3466 283.189 63.946 282.064C69.1323 279.827 73.8187 277.815 77.7802 276.115C81.6793 274.466 84.8536 273.116 87.128 272.154C88.1903 271.716 89.0401 271.366 89.6774 271.104C90.2648 270.866 90.5772 270.754 90.5897 270.779L90.6022 270.742Z" fill="black"/>
<path d="M38.264 279.664C38.3515 279.827 31.5406 283.801 23.0551 288.55C14.5572 293.299 7.60882 297.023 7.52134 296.873C7.43386 296.71 14.2447 292.736 22.7427 287.987C31.2282 283.239 38.189 279.514 38.2765 279.664H38.264Z" fill="black"/>
<path d="M58.2597 284.788C58.4222 284.701 62.3963 291.512 67.1451 299.997C71.894 308.495 75.6181 315.443 75.4681 315.531C75.3057 315.618 71.3316 308.807 66.5828 300.309C61.8339 291.824 58.1098 284.863 58.2597 284.776V284.788Z" fill="black"/>
<path d="M519.024 311.219L566.388 240.649L479.221 243.111L492.943 266.293L489.194 282.789L504.69 287.075L519.024 311.219Z" fill="white"/>
<path opacity="0.3" d="M492.943 266.293L566.388 240.649L504.69 287.075L489.194 282.789L492.943 266.293Z" fill="black"/>
<path d="M489.194 282.789C489.107 282.626 506.315 273.066 527.635 261.431C548.955 249.796 566.301 240.486 566.388 240.649C566.476 240.811 549.267 250.371 527.947 262.006C506.628 273.641 489.282 282.951 489.194 282.789Z" fill="black"/>
<path d="M504.69 287.075C504.69 287.075 504.778 286.975 504.99 286.813C505.228 286.625 505.528 286.388 505.902 286.088C506.74 285.438 507.927 284.513 509.427 283.351C512.538 280.964 517 277.565 522.486 273.366C533.583 264.955 548.842 253.383 565.726 240.599L566.026 241.161L565.763 241.248C545.693 248.209 527.522 254.508 514.325 259.082C507.765 261.319 502.441 263.143 498.717 264.418C496.905 265.018 495.48 265.505 494.455 265.843L493.343 266.193C493.093 266.268 492.956 266.305 492.956 266.293C492.956 266.293 493.081 266.23 493.318 266.13L494.405 265.718C495.405 265.355 496.817 264.843 498.617 264.181C502.328 262.856 507.627 260.969 514.163 258.644C527.347 254.02 545.493 247.659 565.538 240.624L565.801 240.536C565.976 240.474 566.151 240.561 566.213 240.736C566.263 240.874 566.213 241.024 566.101 241.099C549.18 253.833 533.871 265.343 522.748 273.716C517.212 277.84 512.713 281.189 509.577 283.538C508.039 284.663 506.827 285.55 505.977 286.188C505.59 286.463 505.278 286.688 505.028 286.863C504.815 287.013 504.703 287.088 504.69 287.075Z" fill="black"/>
<path d="M519.024 311.219C519.024 311.219 518.936 311.094 518.774 310.832C518.599 310.544 518.362 310.145 518.049 309.645C517.387 308.557 516.437 306.983 515.212 304.958C512.713 300.797 509.076 294.773 504.515 287.188L504.64 287.275C500.041 286.013 494.83 284.588 489.131 283.026L488.906 282.964L488.956 282.739C490.093 277.69 491.343 272.129 492.68 266.23L492.718 266.43C488.519 259.357 483.87 251.534 478.971 243.261L478.708 242.811H479.233C492.255 242.423 506.489 242.011 521.298 241.586C537.22 241.149 552.478 240.724 566.4 240.336H567L566.663 240.811C552.728 261.444 540.819 279.077 532.383 291.586C528.184 297.773 524.848 302.696 522.548 306.083C521.423 307.745 520.549 309.02 519.936 309.92C519.649 310.332 519.424 310.657 519.261 310.894C519.111 311.107 519.036 311.219 519.036 311.207C519.036 311.207 519.111 311.069 519.261 310.844C519.424 310.594 519.649 310.257 519.936 309.82C520.536 308.907 521.411 307.583 522.536 305.883C524.823 302.446 528.122 297.473 532.283 291.212C540.619 278.715 552.391 261.081 566.15 240.461L566.413 240.936C552.491 241.336 537.245 241.773 521.311 242.223C506.502 242.636 492.268 243.036 479.246 243.398L479.496 242.936C484.382 251.221 489.006 259.057 493.193 266.143L493.243 266.243L493.218 266.355C491.868 272.241 490.593 277.815 489.431 282.851L489.256 282.564C494.93 284.151 500.153 285.613 504.74 286.888L504.815 286.913L504.852 286.988C509.301 294.573 512.825 300.597 515.262 304.758C516.462 306.833 517.399 308.432 518.049 309.545C518.362 310.082 518.599 310.494 518.774 310.794C518.936 311.082 519.024 311.232 519.024 311.232V311.219Z" fill="black"/>
<path d="M107.06 214.88L34.4023 106.643L168.108 110.405L147.063 145.971L152.812 171.29L129.055 177.851L107.06 214.88Z" fill="white"/>
<path opacity="0.3" d="M147.063 145.971L34.4023 106.643L129.055 177.851L152.812 171.29L147.063 145.971Z" fill="black"/>
<path d="M152.812 171.29C152.724 171.453 126.143 157.106 93.451 139.26C60.7463 121.402 34.3151 106.806 34.4026 106.656C34.49 106.506 61.0587 120.84 93.7634 138.698C126.456 156.544 152.899 171.153 152.812 171.303V171.29Z" fill="black"/>
<path d="M129.055 177.851C129.055 177.851 128.88 177.739 128.555 177.514C128.205 177.264 127.73 176.914 127.118 176.464C125.831 175.514 123.981 174.139 121.607 172.377C116.82 168.791 109.935 163.642 101.424 157.269C84.4031 144.447 60.9087 126.751 34.9524 107.193C34.8149 107.08 34.7774 106.881 34.8899 106.743C34.9774 106.631 35.1274 106.581 35.2523 106.631C35.3773 106.681 35.5148 106.718 35.6522 106.768C66.4324 117.54 94.2883 127.288 114.483 134.349C124.544 137.898 132.679 140.785 138.34 142.784C141.127 143.784 143.314 144.572 144.814 145.109C145.526 145.371 146.088 145.584 146.488 145.734C146.863 145.871 147.051 145.971 147.051 145.971C147.051 145.971 146.851 145.921 146.463 145.796C146.051 145.659 145.489 145.471 144.764 145.234C143.252 144.722 141.052 143.972 138.253 143.022C132.579 141.072 124.406 138.261 114.321 134.786C94.1133 127.763 66.2325 118.078 35.4273 107.38L35.0274 107.243L35.3273 106.681C61.2461 126.288 84.6906 144.034 101.687 156.906C110.134 163.342 116.983 168.553 121.744 172.177C124.081 173.977 125.906 175.377 127.18 176.351C127.78 176.826 128.243 177.189 128.58 177.451C128.893 177.701 129.042 177.839 129.042 177.839L129.055 177.851Z" fill="black"/>
<path d="M107.06 214.88C107.06 214.88 107.185 214.642 107.435 214.217C107.698 213.78 108.06 213.143 108.547 212.318C109.535 210.643 110.972 208.194 112.834 205.007C116.571 198.646 122.019 189.398 128.88 177.751L128.918 177.676L128.993 177.651C136.028 175.689 144.026 173.465 152.749 171.04L152.574 171.328C150.812 163.605 148.863 155.069 146.788 146.021L146.763 145.909L146.813 145.809C153.224 134.949 160.335 122.927 167.833 110.23L168.083 110.692C148.101 110.13 126.268 109.53 103.549 108.893C79.1169 108.193 55.7225 107.53 34.3776 106.918L34.64 106.443C55.7975 138.086 73.8932 165.142 86.7026 184.3C93.1011 193.897 98.1874 201.52 101.674 206.757C103.411 209.369 104.748 211.381 105.673 212.755C106.123 213.43 106.46 213.955 106.698 214.317C106.935 214.667 107.048 214.867 107.048 214.867C107.048 214.867 106.935 214.705 106.698 214.367C106.46 214.017 106.111 213.518 105.673 212.855C104.748 211.493 103.411 209.519 101.674 206.944C98.1624 201.745 93.0511 194.185 86.6152 184.662C73.7057 165.504 55.4726 138.436 34.1402 106.781L33.8027 106.293H34.3901C55.735 106.906 79.1419 107.555 103.561 108.243C126.281 108.893 148.113 109.517 168.096 110.08H168.621L168.358 110.542C160.835 123.227 153.712 135.236 147.288 146.096L147.326 145.896C149.375 154.944 151.3 163.48 153.049 171.215L153.099 171.44L152.874 171.503C144.151 173.902 136.141 176.102 129.105 178.039L129.23 177.951C122.244 189.611 116.708 198.859 112.896 205.22C111.009 208.356 109.56 210.781 108.56 212.43C108.073 213.23 107.71 213.843 107.448 214.28C107.198 214.692 107.073 214.88 107.073 214.88H107.06Z" fill="black"/>
<path d="M70.7929 359.87L9.33252 441.913L114.47 444.4L99.3986 415.607L104.947 395.974L86.5516 389.838L70.7929 359.87Z" fill="white"/>
<path opacity="0.3" d="M99.3991 415.607L9.33301 441.913L86.5521 389.838L104.948 395.974L99.3991 415.607Z" fill="black"/>
<path d="M104.947 395.974C105.022 396.137 83.6775 406.547 57.2838 419.231C30.8776 431.916 9.4077 442.063 9.33272 441.913C9.25773 441.751 30.5902 431.341 56.9964 418.656C83.3901 405.972 104.86 395.824 104.947 395.987V395.974Z" fill="black"/>
<path d="M86.5528 389.838C86.5528 389.838 86.4278 389.951 86.1779 390.138C85.8904 390.338 85.5155 390.613 85.0406 390.95C84.0034 391.675 82.5162 392.7 80.6167 394.025C76.7301 396.686 71.1439 400.511 64.2581 405.222C50.3864 414.645 31.2535 427.617 10.121 441.976L9.84605 441.388L10.1585 441.301C34.7776 434.165 57.0598 427.704 73.2309 423.018C81.279 420.718 87.815 418.844 92.3639 417.544C94.6009 416.919 96.3504 416.432 97.5752 416.094C98.15 415.944 98.5999 415.819 98.9373 415.732C99.2497 415.657 99.3997 415.619 99.4122 415.632C99.4122 415.632 99.2623 415.694 98.9623 415.794C98.6249 415.894 98.1875 416.044 97.6251 416.219C96.4004 416.594 94.6634 417.119 92.4514 417.794C87.915 419.144 81.404 421.081 73.3809 423.468C57.2223 428.204 34.9651 434.727 10.3584 441.938L10.046 442.026C9.87104 442.076 9.69609 441.976 9.6461 441.801C9.60861 441.663 9.6586 441.513 9.77107 441.438C30.9535 427.154 50.1115 414.22 64.0206 404.847C70.9565 400.211 76.5802 396.449 80.4917 393.825C82.4163 392.55 83.9284 391.55 84.9907 390.85C85.4905 390.525 85.8779 390.275 86.1654 390.088C86.4278 389.926 86.5778 389.838 86.5778 389.851L86.5528 389.838Z" fill="black"/>
<path d="M70.7937 359.87C70.7937 359.87 70.8812 360.02 71.0686 360.358C71.2561 360.708 71.5185 361.207 71.8685 361.845C72.5933 363.194 73.6305 365.144 74.9802 367.668C77.7171 372.817 81.7036 380.315 86.7274 389.738L86.6149 389.638C92.0636 391.438 98.2622 393.487 105.023 395.724L105.248 395.799L105.186 396.024C103.498 402.023 101.636 408.646 99.6618 415.669L99.6368 415.469C104.248 424.255 109.347 433.978 114.746 444.238L114.983 444.7H114.458C98.7496 444.325 81.5787 443.925 63.7079 443.5C44.5 443.038 26.0919 442.601 9.30835 442.188H8.7085L9.07091 441.701C27.1291 417.719 42.5629 397.211 53.4978 382.69C58.934 375.479 63.258 369.755 66.2323 365.819C67.6945 363.882 68.8317 362.382 69.619 361.357C69.9939 360.87 70.2813 360.495 70.4938 360.22C70.6937 359.97 70.7812 359.858 70.7812 359.858C70.7812 359.858 70.6812 360.008 70.4813 360.283C70.2688 360.57 69.9814 360.957 69.6065 361.47C68.8192 362.52 67.6945 364.057 66.2323 366.031C63.2705 370.005 58.9715 375.791 53.5603 383.065C42.7254 397.586 27.4415 418.094 9.55829 442.076L9.32085 441.588C26.1044 441.976 44.5125 442.413 63.7204 442.85C81.5786 443.275 98.7496 443.688 114.471 444.063L114.196 444.513C108.822 434.24 103.736 424.505 99.1495 415.707L99.0995 415.607L99.1245 415.507C101.124 408.496 102.999 401.873 104.698 395.874L104.861 396.174C98.1122 393.912 91.9262 391.838 86.4775 390.001L86.4025 389.976L86.365 389.901C81.4662 380.478 77.5796 372.992 74.9052 367.843C73.5806 365.269 72.5433 363.282 71.8435 361.92C71.506 361.257 71.2436 360.745 71.0562 360.383C70.8812 360.033 70.7937 359.845 70.7937 359.845V359.87Z" fill="black"/>
<path d="M364.336 406.684L356.601 407.021L328.77 467.432L284.755 489.377L286.855 512.034C286.855 512.034 341.042 502.036 354.551 494.476C368.061 486.915 385.281 437.789 385.281 437.789C385.369 438.139 366.973 406.709 366.973 406.709" fill="#FFBF9D"/>
<path d="M287.33 461.896L281.693 455.96C280.606 455.26 279.331 454.91 278.044 454.948L260.174 455.485C256.799 455.822 253.763 457.659 251.9 460.496L245.402 471.556C245.402 471.556 241.028 479.129 241.59 480.966C242.428 483.741 245.365 483.178 245.365 483.178C245.365 483.178 245.989 486.677 247.152 487.39C249.101 488.577 251.488 487.665 251.488 487.665C252.138 489.002 253.525 489.902 255.012 489.789C255.312 489.764 255.625 489.714 255.937 489.614C258.062 488.977 259.011 484.865 259.011 484.865L268.072 483.191C268.072 483.191 281.081 491.889 285.68 497.6C290.266 503.299 302.289 498.95 302.289 498.95L306.787 477.455L287.342 461.896H287.33Z" fill="#FFBF9D"/>
<path d="M274.159 464.47C274.171 464.595 272.721 464.87 270.247 465.12C267.785 465.395 264.298 465.495 260.374 466.007L260.799 465.695C260.162 467.095 259.375 468.544 258.475 469.969C255.701 474.405 252.426 477.867 249.877 480.142C247.315 482.403 245.465 483.453 245.391 483.341C245.291 483.203 246.953 481.929 249.327 479.554C251.689 477.18 254.801 473.706 257.513 469.369C258.387 467.969 259.162 466.57 259.8 465.233L259.937 464.958L260.224 464.92C264.261 464.47 267.735 464.508 270.197 464.433C272.659 464.383 274.134 464.333 274.146 464.47H274.159Z" fill="#FF9A6C"/>
<path d="M274.57 472.993C274.595 473.106 273.371 473.568 271.209 473.893C269.047 474.205 265.935 474.305 262.461 473.593L263.098 473.231C262.736 474.293 262.311 475.38 261.798 476.467C259.911 480.429 257.249 483.453 255.075 485.29C252.9 487.14 251.301 487.915 251.238 487.802C251.138 487.652 252.563 486.652 254.538 484.703C256.512 482.766 258.962 479.779 260.786 475.98C261.286 474.93 261.698 473.881 262.073 472.868L262.236 472.406L262.711 472.506C269.397 473.993 274.558 472.656 274.595 472.993H274.57Z" fill="#FF9A6C"/>
<path d="M297.253 477.405C291.942 474.93 286.63 472.468 281.307 469.994C279.095 468.969 276.795 467.919 274.371 467.932C271.746 467.932 269.309 469.182 266.985 470.381C264.123 471.856 261.261 473.343 258.412 474.818C257.95 475.055 257.437 475.343 257.275 475.843C257.062 476.492 257.537 477.167 258.012 477.655C262.299 481.991 269.997 482.303 274.621 478.329C275.995 482.079 277.42 485.903 279.994 488.939C282.569 491.989 286.58 494.138 290.504 493.413" fill="#FFBF9D"/>
<path d="M290.504 493.426C290.504 493.426 290.367 493.501 290.079 493.563C289.792 493.638 289.354 493.688 288.779 493.713C287.642 493.738 285.905 493.526 283.981 492.551C282.068 491.601 279.981 489.877 278.332 487.402C276.645 484.94 275.395 481.841 274.158 478.504L274.958 478.717C272.608 480.791 269.184 481.891 265.672 481.616C263.923 481.491 262.136 481.016 260.499 480.167C259.699 479.717 258.899 479.217 258.199 478.579C257.849 478.254 257.487 477.967 257.174 477.53C256.874 477.117 256.55 476.517 256.725 475.793C256.862 475.205 257.324 474.83 257.674 474.605C258.049 474.368 258.374 474.218 258.712 474.043C259.374 473.693 260.036 473.356 260.699 473.018C262.011 472.343 263.31 471.669 264.585 471.019C267.135 469.757 269.546 468.269 272.271 467.669C275.02 467.007 277.72 467.857 279.832 468.819C281.993 469.806 283.931 470.756 285.73 471.619C289.179 473.306 292.029 474.693 294.216 475.755C296.203 476.755 297.29 477.342 297.265 477.417C297.227 477.492 296.078 477.03 294.028 476.155C291.804 475.168 288.904 473.893 285.393 472.343C283.556 471.519 281.581 470.631 279.457 469.682C277.345 468.782 274.945 468.069 272.483 468.694C270.021 469.257 267.647 470.719 265.085 472.006C263.81 472.668 262.523 473.343 261.198 474.03C260.536 474.368 259.874 474.718 259.211 475.055C258.537 475.405 257.824 475.743 257.799 476.08C257.662 476.492 258.274 477.23 258.936 477.755C259.561 478.329 260.286 478.792 261.011 479.204C262.498 479.979 264.135 480.416 265.747 480.554C268.972 480.829 272.133 479.829 274.295 477.98L274.845 477.505L275.083 478.192C276.27 481.541 277.445 484.578 279.007 486.977C280.531 489.389 282.443 491.064 284.243 492.064C287.917 494.076 290.529 493.263 290.491 493.463L290.504 493.426Z" fill="#FF9A6C"/>
<path d="M510.852 275.515C511.827 263.393 514.551 251.421 514.913 239.261C515.276 227.102 512.939 214.255 505.066 204.982C497.193 195.709 482.721 191.385 472.349 197.734L469.612 207.919C470.337 254.983 466.575 302.496 467.3 349.56C467.4 355.746 472.011 361.645 474.423 367.331C476.847 373.017 482.146 377.941 488.332 377.978C496.418 378.028 502.266 370.218 505.291 362.72C516.263 335.526 508.515 304.733 510.852 275.503V275.515Z" fill="black"/>
<path d="M485.933 210.606C484.371 207.482 482.771 204.32 480.334 201.82C477.897 199.321 474.461 197.559 470.999 197.984C469.374 198.184 467.675 198.984 467.025 200.496C466.375 202.008 467.4 204.145 469.037 204.12L469.362 204.445C472.773 207.906 476.26 211.306 479.809 214.617C480.697 215.455 481.634 216.304 482.771 216.742C483.921 217.179 485.345 217.104 486.208 216.254C487.645 214.83 486.833 212.418 485.92 210.606H485.933Z" fill="#E6A371"/>
<path d="M491.981 222.978C480.884 207.369 465.225 197.759 446.142 196.147C435.382 195.234 430.771 197.172 422.872 198.746C414.974 200.308 407.689 203.995 402.615 210.256C396.591 217.692 391.38 226.115 389.693 235.525C387.968 245.198 388.056 254.783 389.38 262.768C390.98 272.466 396.541 287.5 401.765 295.823L418.161 298.96C431.87 300.359 445.767 301.759 459.364 299.535C472.961 297.31 486.457 290.987 494.418 279.739C505.478 264.118 503.066 238.574 491.968 222.978H491.981Z" fill="black"/>
<path d="M469.849 221.316L437.582 205.882L428.847 206.307C409.351 205.057 394.442 225.64 393.243 241.423C391.905 258.957 390.981 280.414 392.88 293.536C396.717 319.917 418.761 323.591 418.761 323.591C418.761 323.591 417.362 337.413 416.612 346.136L467.637 345.911L478.01 230.826C478.172 226.015 474.623 221.891 469.849 221.328V221.316Z" fill="#FFBF9D"/>
<path d="M432.295 290.087C432.208 288.7 431.533 287.437 430.608 286.538C428.784 284.738 425.947 284.388 423.772 285.675C421.598 286.975 420.211 289.837 420.411 292.599C421.473 294.286 423.185 295.486 425.147 295.798C425.447 295.848 425.759 295.873 426.072 295.885C427.571 295.948 429.134 295.548 430.346 294.523C431.571 293.499 432.395 291.799 432.283 290.087H432.295Z" fill="#FF9A6C"/>
<path d="M398.728 265.393C398.641 267.18 400.078 268.717 401.94 268.842C403.79 268.967 405.377 267.63 405.464 265.843C405.552 264.056 404.115 262.518 402.253 262.393C400.391 262.268 398.816 263.618 398.728 265.393Z" fill="black"/>
<path d="M398.591 250.596C399.004 251.046 401.59 249.184 405.215 249.234C408.839 249.234 411.488 251.146 411.888 250.696C412.088 250.496 411.663 249.696 410.513 248.847C409.376 247.984 407.439 247.147 405.177 247.122C402.915 247.11 401.003 247.909 399.891 248.747C398.766 249.584 398.379 250.384 398.579 250.584L398.591 250.596Z" fill="black"/>
<path d="M419.923 280.564C419.948 280.364 417.686 279.939 414.037 279.427C413.113 279.314 412.238 279.127 412.088 278.49C411.875 277.815 412.275 276.827 412.738 275.753C413.637 273.516 414.587 271.179 415.574 268.717C419.511 258.707 422.385 250.471 421.973 250.321C421.573 250.171 418.049 258.157 414.1 268.167C413.15 270.641 412.238 272.991 411.375 275.24C411.013 276.29 410.388 277.477 410.851 278.877C411.088 279.577 411.763 280.089 412.363 280.252C412.95 280.439 413.475 280.452 413.937 280.489C417.611 280.739 419.898 280.777 419.923 280.577V280.564Z" fill="black"/>
<path d="M418.724 323.554C418.724 323.554 436.42 324.929 454.103 314.606C454.103 314.606 444.468 332.739 418.149 329.927L418.711 323.554H418.724Z" fill="#FF9A6C"/>
<path d="M430.583 283.213C429.996 283.176 429.933 287.113 426.522 289.874C423.123 292.636 418.924 292.136 418.886 292.686C418.824 292.936 419.811 293.461 421.585 293.536C423.323 293.623 425.872 293.086 427.959 291.412C430.046 289.724 430.958 287.437 431.108 285.825C431.283 284.176 430.858 283.201 430.583 283.213Z" fill="black"/>
<path d="M400.678 237.999C401.278 238.899 404.065 238.337 407.314 238.649C410.576 238.862 413.238 239.849 413.962 239.062C414.287 238.674 413.937 237.812 412.825 236.9C411.725 236 409.813 235.15 407.576 234.975C405.34 234.8 403.327 235.325 402.115 236.05C400.878 236.775 400.403 237.574 400.666 238.012L400.678 237.999Z" fill="black"/>
<path d="M435.807 266.367C435.782 268.155 434.245 269.604 432.383 269.604C430.521 269.604 429.034 268.18 429.059 266.392C429.084 264.605 430.621 263.156 432.483 263.156C434.345 263.156 435.832 264.593 435.807 266.367Z" fill="black"/>
<path d="M447.667 252.521C447.23 252.933 444.768 250.921 441.131 250.746C437.507 250.521 434.745 252.258 434.383 251.783C434.195 251.571 434.67 250.809 435.87 250.021C437.057 249.234 439.044 248.522 441.306 248.647C443.568 248.772 445.43 249.696 446.48 250.609C447.555 251.521 447.892 252.333 447.68 252.521H447.667Z" fill="black"/>
<path d="M446.28 240.774C445.53 241.561 442.768 240.561 439.407 240.361C436.045 240.049 433.158 240.599 432.546 239.711C432.283 239.274 432.771 238.474 434.058 237.762C435.32 237.049 437.407 236.512 439.719 236.687C442.031 236.875 443.993 237.712 445.118 238.624C446.267 239.536 446.617 240.399 446.28 240.786V240.774Z" fill="black"/>
<path d="M470.512 274.591C470.537 272.629 472.874 268.042 474.811 267.755C479.997 267.017 489.307 267.555 489.22 280.689C489.107 298.635 471.111 294.823 471.074 294.311C471.049 293.911 470.399 281.364 470.512 274.591Z" fill="#FFBF9D"/>
<path d="M476.073 287.775C476.148 287.712 476.385 288 476.91 288.237C477.422 288.475 478.31 288.65 479.247 288.3C481.147 287.612 482.759 284.613 482.871 281.376C482.934 279.739 482.596 278.19 482.021 276.89C481.484 275.578 480.634 274.653 479.684 274.478C478.735 274.253 478.06 274.816 477.835 275.328C477.585 275.828 477.697 276.19 477.61 276.215C477.56 276.265 477.223 275.915 477.373 275.178C477.448 274.815 477.66 274.403 478.085 274.053C478.522 273.703 479.147 273.528 479.822 273.603C481.209 273.703 482.446 274.99 483.071 276.403C483.771 277.827 484.183 279.577 484.121 281.414C483.983 285.026 482.109 288.4 479.51 289.137C478.247 289.462 477.198 289.075 476.648 288.637C476.098 288.187 475.998 287.787 476.06 287.762L476.073 287.775Z" fill="#FF9A6C"/>
<path d="M475.536 267.855L470.674 272.254C452.329 252.146 417.187 202.533 419.136 205.482C419.136 205.482 432.946 200.871 447.367 204.345C461.789 207.819 488.957 216.992 487.358 234.175C485.771 251.346 475.536 267.855 475.536 267.855Z" fill="black"/>
<path d="M501.779 265.68C501.779 265.68 501.741 265.318 501.579 264.63C501.417 263.943 501.092 262.956 500.554 261.731C499.467 259.294 497.305 255.945 493.656 252.821C490.057 249.621 484.97 246.86 479.109 244.56C473.261 242.211 466.625 240.236 460.201 236.95C453.728 233.763 448.029 229.839 443.205 225.852C438.407 221.841 434.495 217.754 431.483 214.105C428.459 210.456 426.309 207.282 424.86 205.057C424.197 204.007 423.66 203.145 423.235 202.47C422.86 201.883 422.648 201.583 422.623 201.595C422.598 201.608 422.748 201.945 423.073 202.558C423.41 203.17 423.872 204.095 424.56 205.245C425.922 207.532 428.009 210.781 430.983 214.505C433.958 218.229 437.857 222.403 442.668 226.49C447.504 230.539 453.253 234.538 459.789 237.749C466.3 241.086 472.986 243.036 478.797 245.335C484.633 247.572 489.657 250.221 493.243 253.296C496.88 256.307 499.08 259.519 500.242 261.869C501.404 264.243 501.704 265.693 501.791 265.668L501.779 265.68Z" fill="#455A64"/>
<path d="M496.393 268.142C496.393 268.142 496.668 266.692 495.968 264.193C495.293 261.706 493.406 258.269 489.819 255.32C486.27 252.283 481.059 250.196 475.298 248.459C469.499 246.76 463.238 244.673 457.165 241.323C451.091 237.999 445.717 234.1 441.331 230.001C436.92 225.927 433.42 221.778 430.759 218.092C428.059 214.43 426.297 211.181 425.035 208.981C424.485 207.919 424.048 207.057 423.685 206.369C423.373 205.782 423.185 205.47 423.16 205.482C423.135 205.495 423.26 205.832 423.523 206.444C423.835 207.157 424.235 208.044 424.722 209.131C425.897 211.393 427.584 214.717 430.234 218.454C432.858 222.216 436.332 226.452 440.756 230.601C445.155 234.775 450.591 238.749 456.727 242.111C462.863 245.497 469.274 247.609 475.061 249.259C480.822 250.946 485.933 252.921 489.42 255.808C492.956 258.619 494.881 261.894 495.631 264.281C496.43 266.68 496.28 268.142 496.405 268.13L496.393 268.142Z" fill="#455A64"/>
<path d="M472.899 298.085C472.899 297.96 474.436 297.872 477.123 297.36C479.797 296.81 483.634 295.448 487.508 292.449C491.419 289.499 495.031 284.738 497.768 278.865C500.492 272.978 502.354 265.968 503.042 258.507C503.366 254.77 503.329 251.109 502.917 247.609C502.454 244.11 501.642 240.799 500.605 237.724C498.455 231.588 495.381 226.515 492.319 222.678C486.158 214.942 480.809 211.643 481.034 211.406C481.059 211.368 481.384 211.568 481.984 211.993C482.571 212.418 483.496 213.005 484.571 213.893C486.758 215.605 489.795 218.316 492.969 222.166C496.156 226.002 499.367 231.126 501.629 237.374C502.717 240.511 503.566 243.898 504.054 247.485C504.491 251.071 504.541 254.833 504.216 258.644C503.516 266.243 501.579 273.366 498.743 279.364C495.906 285.35 492.107 290.199 488.008 293.149C483.946 296.16 479.96 297.423 477.198 297.847C475.823 298.135 474.723 298.06 473.998 298.135C473.261 298.172 472.886 298.16 472.886 298.122L472.899 298.085Z" fill="#455A64"/>
<path d="M417.012 339.95L467.662 334.476L476.935 342.912L440.781 364.169L424.822 372.43L409.076 367.643L404.077 358.258L417.012 339.95Z" fill="#FFBF9D"/>
<path d="M348.753 401.61C348.753 401.61 364.624 371.143 368.561 364.482C375.259 353.134 387.756 346.711 387.756 346.711L417.011 339.938C417.011 339.938 413.975 354.597 432.183 355.609C455.34 356.896 469.724 334.689 469.724 334.689C469.724 334.689 496.143 337.413 503.441 340.475C510.739 343.537 531.372 352.172 534.409 379.616L541.482 424.417L485.658 428.666L486.432 488.315L513.901 535.303H379.17C381.282 535.866 388.706 504.486 383.832 479.692L374.634 457.372C370.96 448.437 368.673 438.964 368.123 429.316C367.761 422.968 367.936 418.156 367.936 418.156C367.936 418.156 353.614 413.233 348.74 401.598L348.753 401.61Z" fill="#E6A371"/>
<path d="M392.73 509.297L486.32 481.204L485.658 428.679L533.321 425.042C533.321 425.042 529.522 452.261 528.96 466.207C528.16 486.278 518.5 514.333 512.051 520.282C505.59 526.243 390.255 532.704 390.255 532.704L392.742 509.272L392.73 509.297Z" fill="#FFBF9D"/>
<path d="M339.655 525.818C340.43 527.093 341.892 527.855 343.354 527.605C343.641 527.555 343.954 527.468 344.266 527.343C346.316 526.506 345.791 522.232 345.791 522.232L355.751 519.807C355.751 519.807 369.523 527.255 374.622 532.492C379.72 537.74 391.28 532.279 391.28 532.279L393.742 510.459L373.872 495.101C373.872 495.101 375.084 496.013 373.572 492.976C372.047 489.939 366.311 491.576 366.311 491.576C365.286 490.089 361.425 489.827 361.425 489.827L345.278 492.964C341.954 493.613 339.092 495.725 337.518 498.725L331.469 510.159C331.469 510.159 328.445 518.295 329.17 520.07C330.27 522.756 333.131 521.919 333.131 521.919C333.131 521.919 334.331 527.018 335.706 527.093C337.08 527.168 339.667 525.818 339.667 525.818H339.655Z" fill="#FFBF9D"/>
<path d="M373.122 507.685C373.122 507.86 370.935 507.823 367.474 508.247C364.012 508.685 359.263 509.672 354.377 511.759C351.94 512.796 349.703 513.996 347.753 515.221C345.866 516.483 343.892 517.545 343.367 519.032C343.104 519.757 343.304 520.457 343.692 520.957C344.079 521.457 344.567 521.769 345.004 521.907C345.891 522.194 346.416 521.907 346.454 522.007C346.491 522.032 345.979 522.494 344.904 522.294C344.379 522.194 343.767 521.907 343.242 521.332C342.717 520.794 342.355 519.782 342.654 518.807C342.929 517.833 343.692 517.033 344.504 516.358C345.341 515.708 346.229 515.046 347.216 514.408C349.178 513.109 351.452 511.859 353.952 510.797C358.951 508.647 363.862 507.76 367.386 507.51C370.935 507.273 373.122 507.573 373.11 507.685H373.122Z" fill="#FF9A6C"/>
<path d="M375.072 517.983C375.072 518.295 368.423 518.532 360.325 519.632C352.215 520.707 345.741 522.244 345.666 521.944C345.629 521.807 347.216 521.257 349.828 520.582C352.44 519.907 356.101 519.145 360.188 518.595C364.274 518.045 368.011 517.808 370.71 517.77C373.41 517.72 375.084 517.845 375.084 517.983H375.072Z" fill="#FF9A6C"/>
<path d="M339.718 525.393C339.718 525.393 339.543 524.793 339.38 523.669C339.23 522.556 339.03 520.932 339.005 518.895C339.005 517.883 339.018 516.758 339.205 515.558C339.368 514.346 339.843 513.046 340.53 511.884C341.83 509.547 343.692 507.085 346.154 505.161C348.603 503.249 351.077 501.611 353.639 500.624C356.176 499.637 358.588 499.25 360.588 499.012C362.6 498.787 364.224 498.7 365.349 498.662C366.474 498.625 367.099 498.637 367.099 498.7C367.124 498.862 364.637 499.137 360.688 499.737C358.726 500.074 356.389 500.524 353.989 501.512C351.602 502.486 349.178 504.123 346.804 505.973C344.429 507.847 342.692 510.097 341.355 512.371C339.943 514.546 339.83 516.933 339.743 518.907C339.655 522.881 339.955 525.381 339.73 525.393H339.718Z" fill="#FF9A6C"/>
<path d="M360.95 494.026C360.963 494.176 358.526 494.438 354.677 495.188C350.977 496.05 344.991 496.788 341.98 502.224C338.643 507.21 335.844 511.884 334.744 515.633C333.569 519.357 333.894 521.857 333.669 521.844C333.619 521.844 333.469 521.244 333.444 520.12C333.407 519.007 333.519 517.358 334.031 515.421C334.981 511.484 337.756 506.635 341.105 501.624C341.967 500.362 342.904 499.162 344.029 498.175C345.141 497.175 346.479 496.538 347.716 496.075C350.228 495.15 352.577 494.751 354.539 494.438C358.476 493.863 360.938 493.876 360.938 494.001L360.95 494.026Z" fill="#FF9A6C"/>
<path d="M370.797 529.305C370.797 529.305 370.422 529.105 369.773 528.643C369.035 528.13 368.073 527.48 366.873 526.668C364.324 524.993 360.537 522.619 355.601 520.12L355.838 520.145C352.864 520.894 349.515 521.732 345.891 522.644L346.203 522.194C346.291 523.019 346.303 523.819 346.203 524.668C346.103 525.506 345.903 526.406 345.253 527.18C344.916 527.555 344.391 527.805 343.966 527.893C343.529 528.043 343.041 528.13 342.554 528.08C341.579 528.018 340.642 527.58 339.942 526.88C339.767 526.705 339.605 526.518 339.455 526.318L339.355 526.168L339.305 526.093L339.28 526.056C339.142 526.006 340.442 526.368 339.892 526.218H339.867L339.555 526.393C339.142 526.593 338.717 526.78 338.293 526.955C337.855 527.13 337.418 527.28 336.943 527.405C336.705 527.468 336.468 527.518 336.206 527.543C335.956 527.568 335.668 527.605 335.256 527.43C334.656 527.068 334.418 526.606 334.168 526.168C333.931 525.731 333.731 525.281 333.556 524.818C333.206 523.906 332.931 522.981 332.681 522.019L333.306 522.382C332.019 522.719 330.444 522.519 329.445 521.394C328.995 520.869 328.607 520.207 328.595 519.42C328.57 518.707 328.682 518.083 328.795 517.445C329.307 514.921 330.119 512.471 331.019 509.972V509.947L331.044 509.91C332.069 507.96 333.156 505.898 334.268 503.811C334.956 502.511 335.631 501.224 336.318 499.949C337.005 498.712 337.593 497.325 338.592 496.175C339.555 495.038 340.754 494.113 342.054 493.463C343.354 492.776 344.841 492.514 346.141 492.276C351.489 491.251 356.588 490.277 361.362 489.364H361.487C362.449 489.439 363.337 489.602 364.236 489.852C365.111 490.127 366.036 490.439 366.698 491.301L366.123 491.164C367.798 490.327 369.785 490.164 371.372 491.052C372.972 491.926 373.784 493.488 374.284 494.976L374.146 494.776C379.845 499.162 384.507 502.736 387.831 505.298C389.368 506.51 390.593 507.473 391.53 508.21C392.367 508.885 392.792 509.26 392.78 509.285C392.755 509.31 392.28 509.01 391.405 508.385C390.443 507.698 389.18 506.785 387.593 505.636C384.219 503.149 379.495 499.662 373.697 495.388L373.609 495.313L373.559 495.176C373.109 493.863 372.309 492.451 370.997 491.776C369.723 491.051 367.973 491.214 366.573 491.926L366.223 492.101L365.986 491.789C365.599 491.276 364.786 490.927 363.986 490.702C363.174 490.477 362.299 490.327 361.425 490.252H361.549C356.788 491.189 351.689 492.189 346.341 493.238C344.978 493.501 343.704 493.726 342.517 494.351C341.329 494.938 340.255 495.775 339.38 496.813C338.492 497.812 337.93 499.112 337.23 500.399C336.555 501.674 335.868 502.974 335.193 504.261C334.094 506.348 332.994 508.41 331.969 510.359L331.994 510.297C331.119 512.734 330.294 515.183 329.807 517.595C329.695 518.195 329.595 518.807 329.607 519.345C329.595 519.807 329.857 520.295 330.194 520.694C330.844 521.482 332.044 521.644 333.019 521.407L333.519 521.282L333.644 521.769C333.869 522.681 334.131 523.594 334.456 524.456C334.768 525.268 335.206 526.256 335.681 526.556C335.706 526.556 335.881 526.606 336.093 526.568C336.293 526.556 336.493 526.506 336.705 526.456C337.118 526.356 337.53 526.206 337.943 526.056C338.355 525.893 338.755 525.718 339.142 525.531L339.43 525.393H339.455C338.905 525.231 340.205 525.581 340.067 525.556L340.092 525.593L340.13 525.656L340.205 525.781C340.317 525.943 340.442 526.093 340.579 526.231C341.129 526.78 341.867 527.13 342.604 527.18C342.979 527.218 343.341 527.155 343.704 527.03C344.104 526.943 344.366 526.805 344.591 526.568C345.478 525.493 345.478 523.694 345.366 522.269L345.341 521.894L345.678 521.819C349.315 520.957 352.677 520.17 355.651 519.457L355.776 519.432L355.888 519.495C360.837 522.107 364.574 524.569 367.073 526.343C368.323 527.243 369.26 527.968 369.872 528.48C370.485 528.992 370.797 529.267 370.785 529.292L370.797 529.305Z" fill="#FF9A6C"/>
<path d="M222.382 531.879L187.003 438.976C185.666 435.477 188.253 431.728 191.99 431.728H305.588C307.662 431.728 309.549 432.928 310.424 434.802L344.441 523.419L415.799 524.631C418.748 524.631 421.135 527.018 421.135 529.967C421.135 532.916 418.748 535.303 415.799 535.303H227.369C225.157 535.303 223.17 533.929 222.382 531.867V531.879Z" fill="#455A64"/>
<path d="M270.459 483.528C270.459 487.64 267.122 490.976 263.011 490.976C258.899 490.976 255.562 487.64 255.562 483.528C255.562 479.417 258.899 476.08 263.011 476.08C267.122 476.08 270.459 479.417 270.459 483.528Z" fill="white"/>
<path d="M382.394 367.956C382.557 368.043 381.045 370.88 378.908 375.616C376.771 380.34 374.134 387.014 371.997 394.624C369.885 402.248 368.685 409.321 368.06 414.47C367.435 419.619 367.26 422.83 367.073 422.83C366.998 422.83 366.96 422.018 366.96 420.568C366.96 419.106 367.048 416.994 367.26 414.395C367.685 409.196 368.76 402.023 370.897 394.337C373.046 386.651 375.833 379.965 378.17 375.292C379.333 372.955 380.345 371.105 381.107 369.855C381.857 368.606 382.307 367.931 382.382 367.968L382.394 367.956Z" fill="black"/>
<path d="M541.482 424.43C541.482 424.43 541.082 424.53 540.332 424.605C539.47 424.692 538.357 424.805 536.983 424.93C533.933 425.18 529.709 425.542 524.473 425.979C513.688 426.792 498.779 427.916 481.683 429.204L481.133 429.241L481.096 428.691C480.734 423.005 480.359 417.007 479.971 410.846C479.359 400.098 478.847 389.863 478.684 380.54C478.197 371.155 480.496 362.595 484.17 356.509C487.807 350.322 492.643 346.736 496.167 344.986C497.967 344.136 499.404 343.574 500.416 343.337C501.416 343.049 501.953 342.924 501.953 342.962C502.003 343.112 499.829 343.549 496.367 345.374C492.956 347.223 488.332 350.822 484.858 356.908C481.346 362.932 479.184 371.242 479.721 380.515C479.946 389.813 480.496 400.048 481.096 410.783C481.471 416.944 481.846 422.943 482.196 428.616L481.608 428.104C498.704 426.979 513.626 425.992 524.423 425.267C529.672 424.967 533.896 424.717 536.958 424.542C538.345 424.48 539.457 424.43 540.319 424.392C541.082 424.367 541.482 424.38 541.494 424.405L541.482 424.43Z" fill="black"/>
<path d="M436.532 460.921C436.494 460.996 435.844 460.746 434.657 460.234C434.057 459.984 433.345 459.659 432.57 459.184C431.783 458.722 430.846 458.247 429.921 457.559C427.996 456.297 425.884 454.523 423.76 452.336C421.685 450.099 419.623 447.437 417.861 444.388C416.136 441.313 414.899 438.177 414.049 435.24C413.262 432.29 412.812 429.566 412.712 427.267C412.587 426.117 412.662 425.08 412.675 424.167C412.675 423.255 412.75 422.468 412.85 421.83C413.012 420.556 413.137 419.868 413.212 419.868C413.437 419.893 413.075 422.705 413.512 427.192C413.712 429.441 414.237 432.078 415.062 434.94C415.949 437.777 417.186 440.813 418.861 443.813C420.573 446.787 422.56 449.399 424.547 451.611C426.584 453.785 428.584 455.572 430.408 456.897C434.045 459.571 436.644 460.696 436.557 460.909L436.532 460.921Z" fill="black"/>
</svg>
