<svg width="53" height="54" viewBox="0 0 53 54" fill="none" xmlns="http://www.w3.org/2000/svg">
<path d="M52.7407 53.5909C52.7361 53.2775 52.7361 52.9634 52.7407 52.65V49.95C52.7407 47.4545 52.7407 44.0182 52.7407 39.5591C52.7407 30.4773 52.7407 17.4273 52.6543 0.940907L52.8163 1.55455L0.248534 1.96363L0.518666 0.940907V27.6136C0.518666 36.4227 0.518666 45.0545 0.518666 53.5091L0.259317 52.5273L37.7213 52.9773L48.7752 53.2636H51.7682H52.557H52.8271C52.8271 53.2636 52.7515 53.2636 52.5894 53.2636H51.833H48.9048L37.905 53.55L0.259317 54H0V53.0182C0 44.55 0 35.9182 0 27.1227V1.02273L0.270133 0L52.8379 0.409085H53V1.02273C53 17.6727 52.9352 30.8454 52.9136 40.0091C52.9136 44.3864 52.9136 47.8227 52.9136 50.2364V52.8545C52.7515 53.3454 52.7515 53.6318 52.7407 53.5909Z" fill="url(#paint0_linear_8_12070)"/>
<defs>
<linearGradient id="paint0_linear_8_12070" x1="-10.502" y1="-42.3802" x2="44.5801" y2="53.397" gradientUnits="userSpaceOnUse">
<stop stop-color="#F0DB92"/>
<stop offset="1" stop-color="#BF9033"/>
</linearGradient>
</defs>
</svg>
