<svg width="121" height="45" viewBox="0 0 121 45" fill="none" xmlns="http://www.w3.org/2000/svg">
<path d="M40.8288 37.2304C39.2131 35.6644 38.53 34.5552 38.53 33.9105C38.53 33.4681 38.8465 32.8734 39.7274 32.1386C40.4623 31.5519 40.9503 30.8929 40.9503 30.3043V28.3139C39.1583 30.5185 37.0546 31.684 34.88 31.684C32.6795 31.684 30.7735 30.8791 29.1577 29.2672L29.1616 29.2592H31.1338C32.9258 29.2592 34.6519 28.8487 36.3117 28.0258C37.2581 27.5567 38.1543 26.9639 39.0003 26.2468C40.0454 25.3609 41.1334 24.2147 42.0913 23.2226V29.4021C42.0913 31.0085 42.2128 31.3768 40.8906 32.5738C40.3052 33.1037 39.7274 33.5306 39.7274 33.9166C39.7855 34.3291 39.8184 34.7785 40.3946 35.2516C40.6974 33.9961 42.0357 33.2688 42.989 33.0068C44.5584 32.5754 45.6051 32.309 45.808 30.6111C45.8224 30.4906 45.8351 29.9278 45.8408 29.7922L46.9817 29.6017L46.98 30.3486C46.98 31.1435 46.6902 31.9085 46.1897 32.6492C45.4461 33.5121 44.5089 33.6703 43.5495 34.0305C42.215 34.5318 40.8288 35.6852 40.8288 37.2304Z" fill="#372011"/>
<path d="M29.1381 29.2573C27.2039 28.9329 25.6223 28.0678 24.391 26.6603C23.1573 25.2487 22.5407 23.6189 22.5407 21.7687C22.5407 19.7104 23.3196 17.9483 24.8753 16.4787C26.4333 15.011 28.2991 14.2762 30.4737 14.2762H31.575C33.0727 14.2762 34.4022 15.003 35.5635 16.4567C36.7246 17.9123 37.3035 19.6823 37.3035 21.7687C35.6656 20.6374 34.6223 20.2049 33.1128 20.0628C31.2647 19.8905 29.7771 19.9446 28.4453 21.4604C27.5943 22.4294 27.1681 23.6328 27.1681 25.0724C27.1681 26.5381 27.8267 27.9317 29.1423 29.2512L29.1381 29.2573ZM26.2871 26.6164C25.9926 25.8514 25.8463 25.1165 25.8463 24.4116C25.8463 22.8258 26.403 21.4744 27.5204 20.3571C29.072 18.8073 30.7061 18.581 32.7742 18.7052C33.6952 18.7613 34.2179 18.9495 35.5413 19.5642C35.1009 18.3888 34.4403 17.4338 33.5593 16.6989C32.6761 15.9641 31.7212 15.5977 30.6938 15.5977C28.7838 15.5977 27.1681 16.2144 25.8463 17.4498C24.5229 18.6833 23.8621 20.1969 23.8621 21.9889C23.8621 24.1334 24.6711 25.6751 26.2871 26.6164Z" fill="#372011"/>
<path d="M10.1374 33.2257C8.0811 31.4634 7.05185 29.5534 7.05185 27.4969V23.09H3.96637V26.6159C3.96637 28.3482 4.55507 29.8478 5.73042 31.111C6.90578 32.3744 8.37541 33.0795 10.1374 33.2257Z" fill="#372011"/>
<path d="M23.0303 23.09H8.3755V27.0565C8.3755 28.6143 8.86002 30.002 9.82909 31.2211C10.7982 32.4406 12.0757 33.2557 13.6635 33.6661L13.7375 33.6419L13.7656 33.722C13.1889 33.9785 12.4201 34.1085 11.4589 34.1085H10.1374C8.05116 34.1085 6.28111 33.3796 4.82752 31.9262C3.37185 30.4724 2.64499 28.7025 2.64499 26.616V23.09H0.883048C0.292305 23.09 0 22.8098 0 22.4294C0 21.9889 0.294283 21.7686 0.883048 21.7686C9.26481 21.7686 14.6545 21.7686 23.0303 21.7686V23.09Z" fill="#372011"/>
<path d="M13.7597 33.6339C14.6447 33.3236 15.6218 32.6449 16.5269 31.4635C17.6181 30.0398 18.5852 29.2592 19.6123 29.2592C20.171 29.2592 20.6415 29.4212 21.024 29.7456C21.4044 30.0679 21.5966 30.4944 21.5966 31.0231C21.5966 31.904 21.1701 32.6388 20.3172 33.2254C19.4662 33.8144 18.423 34.1086 17.1895 34.1086C15.7499 34.1086 14.6467 33.9605 13.8839 33.666C13.8518 33.682 13.8198 33.6982 13.7858 33.714L13.7597 33.6339Z" fill="#372011"/>
<path d="M110.378 13.8619C109.803 13.6556 109.192 13.5095 108.546 13.4294L108.536 13.4274C108.041 13.3573 107.545 13.3213 107.064 13.3213C106.461 13.3213 105.879 13.3774 105.32 13.4895C104.757 13.6016 104.217 13.7678 103.702 13.988V13.99C103.188 14.2103 102.703 14.4865 102.251 14.819C101.79 15.1553 101.362 15.5458 100.963 15.9904L100.579 16.4208L100.238 15.9563C99.5816 15.0713 98.7986 14.4025 97.8876 13.95C96.9687 13.4954 95.9173 13.2572 94.734 13.2312V13.2331H94.696C94.5959 13.2331 94.5159 13.2472 94.4537 13.2752C94.4035 13.2952 94.3635 13.3293 94.3297 13.3733C94.2774 13.4435 94.2394 13.5155 94.2154 13.5875C94.1916 13.6556 94.1793 13.7298 94.1793 13.8078C94.1793 13.8899 94.1916 13.968 94.2154 14.0401C94.2416 14.1142 94.2816 14.1863 94.3355 14.2563L94.3435 14.2704C94.3797 14.3204 94.4278 14.3584 94.4817 14.3844C94.554 14.4165 94.6421 14.4345 94.7521 14.4385V14.4405C95.9954 14.4706 97.0568 14.7849 97.9358 15.3817C98.8067 15.9762 99.4874 16.8432 99.974 17.9825C99.9981 18.0326 100.026 18.0747 100.056 18.1107C100.078 18.1347 100.1 18.1527 100.124 18.1668L100.13 18.1728C100.162 18.1888 100.198 18.2028 100.238 18.2128C100.28 18.2228 100.334 18.2288 100.394 18.2288C100.514 18.2288 100.627 18.2028 100.727 18.1507C100.831 18.0987 100.929 18.0186 101.021 17.9085C101.376 17.3538 101.768 16.8673 102.198 16.4468C102.641 16.0143 103.121 15.6559 103.638 15.3676C104.157 15.0812 104.701 14.865 105.272 14.7209C105.845 14.5786 106.441 14.5066 107.064 14.5066C107.318 14.5066 107.588 14.5206 107.873 14.5486C108.149 14.5747 108.424 14.6147 108.69 14.6648V14.6668C109.969 14.907 111.045 15.3976 111.916 16.1364C112.79 16.8772 113.453 17.8623 113.904 19.0878L113.908 19.1018C114.062 19.5664 114.188 20.0328 114.29 20.5054C114.39 20.9819 114.468 21.4704 114.523 21.9771C114.576 22.4636 114.616 22.9561 114.643 23.4548C114.671 23.9773 114.683 24.4859 114.683 24.9845C114.683 25.3769 114.679 25.8274 114.666 26.336C114.658 26.7985 114.645 27.2529 114.625 27.6995V27.7015C114.588 28.5244 114.57 29.3433 114.57 30.1523V33.5042V33.9746H114.1H111.449H110.976V33.5042V28.0058C110.976 27.7958 110.98 27.5153 110.988 27.1791C110.992 26.8926 111 26.6102 111.01 26.328V26.324C111.022 26.0176 111.033 25.7193 111.038 25.429C111.045 25.1847 111.047 24.8844 111.047 24.5279C111.047 24.2216 111.04 23.9353 111.028 23.671C111.015 23.3847 110.996 23.1023 110.968 22.822C110.942 22.5417 110.904 22.2694 110.856 22.0051C110.81 21.7487 110.752 21.4885 110.682 21.2222C110.564 20.8098 110.406 20.4293 110.206 20.0809C110.005 19.7306 109.767 19.4122 109.487 19.1278C109.217 18.8535 108.91 18.6272 108.568 18.4551C108.221 18.2788 107.839 18.1547 107.417 18.0806C107.186 18.0486 106.954 18.0306 106.72 18.0306C105.959 18.0306 105.264 18.2008 104.639 18.5412C104.01 18.8835 103.442 19.4022 102.933 20.0949C102.713 20.4333 102.533 20.7837 102.393 21.1461C102.251 21.5106 102.149 21.887 102.084 22.2774C102.022 22.6758 101.974 23.0883 101.94 23.5168C101.908 23.9253 101.892 24.3418 101.892 24.7662V25.8614H101.89C101.896 26.0297 101.9 26.2058 101.904 26.388C101.908 26.6344 101.91 26.8125 101.91 26.9248V33.5042V33.9746H101.44H98.8007H98.33V33.5042V24.4339C98.33 23.9613 98.3182 23.4928 98.2882 23.0383C98.274 22.814 98.25 22.5878 98.2159 22.3635C98.182 22.1352 98.1401 21.9171 98.0877 21.7048C97.9457 21.1522 97.7416 20.6476 97.4753 20.193C97.2129 19.7425 96.8864 19.3401 96.4939 18.9836C96.1135 18.6353 95.6951 18.3749 95.2426 18.2028C94.786 18.0306 94.2875 17.9445 93.7469 17.9445C93.6469 17.9445 93.5746 17.9445 93.5287 17.9465C93.4787 17.9485 93.4106 17.9525 93.3225 17.9605C92.856 18.0086 92.4274 18.1107 92.0411 18.2629C91.6585 18.4151 91.3121 18.6212 90.9998 18.8795L90.2772 19.4783V22.7552C90.2941 22.6176 90.3155 22.4818 90.3412 22.3475C90.4093 21.9991 90.5074 21.6547 90.6355 21.3163V21.3144C90.7717 20.96 90.9617 20.6355 91.2002 20.3452C91.4383 20.0569 91.7246 19.8046 92.059 19.5884L92.0912 19.5683C92.3492 19.4281 92.6097 19.322 92.874 19.252C93.1442 19.1779 93.4145 19.1418 93.6907 19.1418C93.9211 19.1418 94.1513 19.1679 94.3836 19.22C94.6078 19.27 94.8302 19.3461 95.0484 19.4482C95.2706 19.5503 95.4769 19.6784 95.6672 19.8326C95.8553 19.9868 96.0255 20.1631 96.1758 20.3633L96.1817 20.3732C96.384 20.6576 96.5481 20.9558 96.6783 21.2662C96.8063 21.5786 96.8983 21.903 96.9545 22.2434C97.0087 22.5618 97.0467 22.8781 97.0707 23.1965C97.0949 23.5188 97.1068 23.8392 97.1068 24.1595V34.5674C97.1068 34.6533 97.1207 34.7314 97.1488 34.7975C97.1788 34.8675 97.2249 34.9337 97.2889 34.9937L97.295 34.9999C97.3569 35.0637 97.423 35.1099 97.4912 35.138C97.5553 35.1661 97.6312 35.1799 97.7173 35.1799H102.523C102.607 35.1799 102.681 35.1661 102.747 35.138C102.813 35.1099 102.877 35.0637 102.935 35.0038C102.997 34.9398 103.043 34.8717 103.073 34.8017C103.101 34.7336 103.116 34.6555 103.116 34.5674C103.116 33.7323 103.113 33.1276 103.111 32.7552C103.11 32.1524 103.103 31.548 103.098 30.9432C103.092 30.3424 103.088 29.7377 103.083 29.1333C103.08 28.2924 103.078 27.6835 103.078 27.311C103.078 26.8166 103.081 26.2038 103.088 25.479C103.096 24.8643 103.103 24.2556 103.118 23.6569C103.123 23.1965 103.182 22.75 103.29 22.3195C103.398 21.8829 103.558 21.4585 103.766 21.046L103.768 21.042C103.997 20.6014 104.295 20.2351 104.663 19.9428C105.032 19.6524 105.462 19.4402 105.953 19.3081L105.971 19.3041C106.099 19.2761 106.225 19.254 106.347 19.2399C106.477 19.224 106.601 19.2159 106.72 19.2159C107.022 19.2159 107.306 19.258 107.57 19.3441C107.837 19.4281 108.079 19.5584 108.297 19.7325V19.7306C108.502 19.8907 108.684 20.0749 108.848 20.2851C109.008 20.4914 109.148 20.7177 109.268 20.966L109.272 20.9719C109.385 21.2162 109.479 21.4684 109.553 21.7348C109.627 22.0011 109.679 22.2714 109.713 22.5456C109.757 22.8981 109.791 23.2665 109.813 23.645C109.837 24.0274 109.849 24.4017 109.849 24.7662C109.849 25.0045 109.845 25.2928 109.837 25.6312C109.831 25.9295 109.821 26.2138 109.809 26.4881C109.795 26.7764 109.787 27.0528 109.781 27.3172C109.775 27.5414 109.773 27.8138 109.773 28.1381V34.5674C109.773 34.6533 109.787 34.7314 109.817 34.7995C109.845 34.8695 109.891 34.9356 109.955 34.9979C110.017 35.0619 110.083 35.108 110.151 35.136C110.222 35.1641 110.3 35.1799 110.384 35.1799H115.163C115.249 35.1799 115.327 35.1641 115.395 35.136C115.463 35.108 115.53 35.0619 115.594 34.9979L115.596 34.9999C115.656 34.9376 115.702 34.8695 115.732 34.7995C115.76 34.7314 115.776 34.6533 115.776 34.5674V23.9974C115.776 23.4166 115.754 22.8441 115.71 22.2774C115.666 21.7048 115.598 21.1381 115.507 20.5815V20.5775C115.422 20.0288 115.291 19.4882 115.117 18.9536C114.943 18.423 114.729 17.9065 114.474 17.3999H114.472C114.166 16.8233 113.812 16.3107 113.405 15.8622C112.999 15.4117 112.538 15.0192 112.026 14.6828H112.024C111.505 14.3444 110.956 14.0701 110.378 13.8619Z" fill="#372011"/>
<path d="M80.2712 17.7804C80.2072 17.7523 80.1331 17.7362 80.0488 17.7362H77.6664C77.5602 17.7362 77.4721 17.7523 77.4059 17.7824C77.3479 17.8084 77.2979 17.8464 77.256 17.8985C77.1998 17.9726 77.1578 18.0466 77.1317 18.1207C77.1056 18.1928 77.0937 18.2689 77.0937 18.349C77.0937 18.429 77.1056 18.5051 77.1317 18.5753C77.1578 18.6513 77.1997 18.7234 77.2539 18.7955C77.2939 18.8415 77.3399 18.8756 77.3941 18.8976C77.466 18.9277 77.556 18.9416 77.6664 18.9416H78.9859H79.4563V19.4122V33.5042V33.9747H78.9859H76.3288H75.8583V33.5042V15.1954V14.7249H76.3288H78.5793C78.6955 14.7249 78.7897 14.7109 78.8597 14.6788C78.9158 14.6568 78.9597 14.6228 78.994 14.5767L78.9958 14.5687C79.0517 14.4986 79.0921 14.4266 79.1179 14.3525C79.142 14.2804 79.154 14.2022 79.154 14.1202C79.154 14.0421 79.142 13.968 79.1179 13.898C79.0921 13.8259 79.0517 13.7537 78.9958 13.6837L78.994 13.6757C78.9197 13.5776 78.7816 13.5275 78.5793 13.5275H75.2655C75.1755 13.5275 75.0974 13.5416 75.0293 13.5676C74.9632 13.5957 74.8971 13.6377 74.8331 13.6958H74.8351C74.7689 13.7618 74.7231 13.8279 74.695 13.8939C74.6669 13.9581 74.6528 14.0341 74.6528 14.1202V34.5675C74.6528 34.6533 74.6669 34.7314 74.697 34.7995C74.725 34.8696 74.7711 34.9356 74.8312 34.9957C74.8951 35.0599 74.9632 35.106 75.0374 35.136C75.1054 35.1661 75.1816 35.18 75.2655 35.18H80.0488C80.137 35.18 80.2111 35.1661 80.2773 35.138C80.3434 35.1099 80.4093 35.0638 80.4735 34.9979L80.4755 34.9999C80.5396 34.9337 80.5877 34.8657 80.6177 34.7936C80.6458 34.7276 80.6616 34.6514 80.6616 34.5675V18.329C80.6616 18.2589 80.6477 18.1908 80.6197 18.1288C80.5897 18.0587 80.5396 17.9905 80.4735 17.9245C80.4073 17.8584 80.3392 17.8104 80.2712 17.7804Z" fill="#372011"/>
<path d="M69.8655 18.2729C69.5932 17.6862 69.2648 17.1235 68.8784 16.5849C68.0274 15.4917 67.0462 14.6648 65.9329 14.1061C64.8197 13.5475 63.5663 13.2492 62.1748 13.2131V13.2151H62.1548C62.0486 13.2151 61.9605 13.2292 61.8944 13.2572C61.8404 13.2793 61.7963 13.3153 61.7582 13.3633H61.7563C61.7043 13.4334 61.6621 13.5054 61.6381 13.5796C61.612 13.6476 61.6002 13.7238 61.6002 13.8078C61.6002 13.886 61.614 13.958 61.6381 14.0261C61.6662 14.1041 61.7101 14.1783 61.7643 14.2463C61.8043 14.2984 61.8605 14.3404 61.9285 14.3725C62.0044 14.4085 62.0986 14.4305 62.2068 14.4385V14.4405C63.6224 14.4925 64.8599 14.845 65.9209 15.4957C66.9881 16.1484 67.869 17.0995 68.5638 18.345L68.5699 18.355C68.8342 18.8576 69.0485 19.3702 69.2146 19.8927C69.3789 20.4112 69.4971 20.9479 69.5712 21.5026V21.5066C69.6391 22.0351 69.6894 22.5717 69.7232 23.1164C69.7593 23.6569 69.7752 24.1876 69.7752 24.7101V33.448V33.9186H69.3048H66.6657H66.1953V33.448V25.2227C66.1953 24.8042 66.1872 24.4158 66.1733 24.0574C66.1592 23.691 66.1391 23.3085 66.109 22.9141C66.0791 22.5517 66.0211 22.1973 65.9351 21.8489C65.849 21.4965 65.7347 21.1502 65.5966 20.8098C65.3743 20.3292 65.1061 19.9047 64.7876 19.5343C64.4714 19.1659 64.1068 18.8515 63.6905 18.5912C63.2681 18.333 62.8276 18.1387 62.371 18.0086C61.9125 17.8785 61.432 17.8124 60.9293 17.8124C60.7591 17.8124 60.5891 17.8203 60.4187 17.8343C60.2444 17.8484 60.0744 17.8705 59.9101 17.8985C59.4035 18.0046 58.9372 18.1668 58.5067 18.385C58.0802 18.6033 57.6935 18.8755 57.3492 19.2019L56.6583 19.8598V23.0409C56.6678 22.9879 56.6779 22.9349 56.6887 22.8821C56.7706 22.4816 56.8888 22.0952 57.0411 21.7188L57.0429 21.7167C57.203 21.3283 57.4112 20.9699 57.6677 20.6415C57.924 20.3151 58.2283 20.0188 58.5787 19.7566L58.5987 19.7405C58.9692 19.4922 59.3515 19.3081 59.7482 19.1839C60.1485 19.0598 60.561 18.9977 60.9854 18.9977C61.3619 18.9977 61.7324 19.0498 62.0947 19.1559C62.451 19.2599 62.7953 19.4142 63.1257 19.6225L63.1499 19.6384C63.4381 19.8467 63.6885 20.0749 63.8967 20.3232V20.3252C64.111 20.5795 64.2832 20.8558 64.4171 21.1542C64.5453 21.4364 64.6495 21.7308 64.7295 22.0331C64.8077 22.3435 64.8619 22.6579 64.8899 22.9762H64.8877C64.9158 23.2825 64.938 23.5829 64.95 23.8772C64.9657 24.1956 64.9719 24.4919 64.9719 24.7662V34.5313C64.9719 34.6075 64.9858 34.6755 65.0139 34.7375C65.0439 34.8076 65.092 34.8756 65.1601 34.9418V34.9437C65.2222 35.0079 65.2882 35.0538 65.3563 35.0818C65.4224 35.1099 65.4966 35.1238 65.5824 35.1238H70.388C70.4641 35.1238 70.5342 35.1099 70.5984 35.0818C70.6664 35.0518 70.7346 35.0057 70.8005 34.9437L70.7985 34.9418C70.8626 34.8775 70.9107 34.8117 70.9386 34.7456C70.9666 34.6814 70.9808 34.6094 70.9808 34.5313V24.0535C70.9808 23.3847 70.9408 22.7219 70.8626 22.0671C70.7824 21.4064 70.6642 20.7537 70.5061 20.111C70.3519 19.4762 70.1376 18.8636 69.8655 18.2729Z" fill="#372011"/>
<path d="M41.633 9.75528C41.3597 9.38562 41.1552 8.99342 41.0189 8.57877C39.3801 3.58999 44.1305 -0.977884 48.9835 0.182178C50.9432 0.650646 52.5666 2.07586 52.9856 4.43329C53.255 5.9496 52.925 7.57655 51.6501 8.62017C51.5618 5.55756 44.1285 5.70439 41.6474 9.75485L41.633 9.75528Z" fill="#372011"/>
<path d="M41.3365 12.2118C41.7082 12.2904 42.3564 12.1638 42.5855 11.836C42.9303 11.343 42.524 10.78 42.2143 10.4003C42.0674 10.22 41.8849 10.0122 41.6669 9.77699L41.6461 9.77594C41.4717 9.94831 41.2229 10.2122 41.0239 10.5043C40.633 11.0781 40.5036 12.0355 41.3365 12.2118Z" fill="#372011"/>
<path d="M75.2614 7.49496C75.1773 7.49496 75.1032 7.51091 75.039 7.53896C74.9711 7.56902 74.9031 7.61701 74.8369 7.68309C74.7708 7.74923 74.7207 7.81729 74.6908 7.88736C74.6626 7.94945 74.6488 8.01751 74.6488 8.08755V10.8672C74.6488 10.9514 74.6647 11.0274 74.6927 11.0935C74.7227 11.1656 74.7708 11.2337 74.835 11.2998L74.8369 11.2977C74.9009 11.3638 74.9671 11.4098 75.0331 11.4379C75.0993 11.4659 75.1732 11.4799 75.2614 11.4799H80.0448C80.1288 11.4799 80.2049 11.4659 80.273 11.4359C80.3472 11.4058 80.4151 11.3597 80.4793 11.2958C80.5393 11.2357 80.5854 11.1696 80.6135 11.0994C80.6435 11.0314 80.6574 10.9533 80.6574 10.8672V4.84449C80.6574 4.75847 80.6435 4.68234 80.6154 4.61824C80.5874 4.55219 80.5413 4.48611 80.4754 4.42006H80.4773C80.4131 4.36195 80.3472 4.31997 80.2811 4.29192C80.213 4.26585 80.135 4.25191 80.0448 4.25191H76.7311C76.5288 4.25191 76.3907 4.30187 76.3165 4.39999L76.3145 4.40796C76.2584 4.47813 76.2184 4.55018 76.1923 4.62226C76.1684 4.69229 76.1565 4.76645 76.1565 4.84449C76.1565 4.92662 76.1684 5.00467 76.1923 5.07672C76.2184 5.15087 76.2584 5.22295 76.3145 5.29299L76.3165 5.3011C76.3507 5.34711 76.3946 5.38112 76.4508 5.40317C76.5207 5.43521 76.6149 5.44918 76.7311 5.44918H78.9816H79.4522V5.91975V9.80404V10.2746H78.9816H76.3245H75.8541V9.80404V9.17078V8.70024H76.3245H77.6441C77.7542 8.70024 77.8442 8.68627 77.9164 8.65621C77.9703 8.63416 78.0164 8.60015 78.0564 8.55414C78.1106 8.48206 78.1527 8.40991 78.1787 8.33388C78.2046 8.26381 78.2168 8.18767 78.2168 8.10762C78.2168 8.02746 78.2046 7.95143 78.1787 7.87938C78.1527 7.80523 78.1106 7.73117 78.0545 7.65711C78.0126 7.60504 77.9625 7.567 77.9044 7.54097C77.8383 7.51091 77.7503 7.49496 77.6441 7.49496H75.2614Z" fill="#372011"/>
<path fill-rule="evenodd" clip-rule="evenodd" d="M14.5338 21.7686C15.6425 21.5347 16.5753 20.769 16.7688 19.6397L16.8121 19.2875C16.82 19.1779 16.8344 19.057 16.841 18.9447C16.8725 18.4104 16.8728 18.0273 16.8094 17.51C16.7906 17.3571 16.6738 16.6112 16.6234 16.512C16.575 16.2439 16.3748 15.7069 16.2807 15.4554L16.0883 15.0191C16.0036 14.8633 15.8459 14.5207 15.7539 14.3844L15.2922 13.6568C15.2605 13.6089 15.2314 13.5759 15.1998 13.5282C15.1847 13.5053 15.1737 13.4866 15.1579 13.4646C15.14 13.4398 15.1287 13.432 15.1106 13.4046C15.0949 13.3809 15.0823 13.3581 15.065 13.3364L14.8249 13.0245C14.8074 13.0034 14.7968 12.987 14.778 12.9641L14.318 12.4254C14.2795 12.3838 14.2453 12.35 14.2088 12.309C14.1888 12.2866 14.1711 12.271 14.1492 12.249C13.8883 11.9877 13.6866 11.7849 13.3782 11.5439L12.8731 11.1682C12.8332 11.1379 12.8574 11.1603 12.8554 11.145C12.8248 11.1369 12.3617 10.8292 12.2792 10.7821C11.9147 10.5738 11.6985 10.4514 11.3091 10.2723C11.2476 10.244 11.187 10.217 11.1178 10.1882C10.8583 10.08 10.1628 9.80537 9.88732 9.74961C9.85917 9.73243 9.50915 9.63884 9.45092 9.6273C9.36305 9.6099 9.30834 9.58999 9.22489 9.57331C9.14645 9.55759 9.06808 9.54158 8.9897 9.52572L8.52647 9.43166C8.48432 9.42365 8.47997 9.42906 8.44342 9.42369C8.38436 9.41502 8.32566 9.39389 8.26646 9.39016L7.91856 9.3428C7.85917 9.33374 7.79952 9.32152 7.73999 9.31746C7.69656 9.31453 7.62553 9.30889 7.57533 9.29874C7.28645 9.26176 6.77125 9.23965 6.5003 9.22983C5.8795 9.20732 4.71848 9.31331 4.09972 9.48057C4.05899 9.49158 4.02419 9.50021 3.98632 9.51109C3.9321 9.52665 3.70878 9.62143 3.67734 9.61777C3.68558 9.58132 3.69213 9.58456 3.71734 9.57203L3.9731 9.45931L4.3065 9.35767C4.7139 9.25602 5.07338 9.19057 5.49693 9.15909C5.83607 9.13391 6.17474 9.11289 6.52729 9.11147C6.7079 9.11071 7.40662 9.11935 7.61485 9.14608L8.13882 9.19776C8.23213 9.2029 8.43768 9.24113 8.50017 9.24419C8.5675 9.24756 8.7905 9.2906 8.86472 9.30609C8.93011 9.3197 8.97358 9.31954 9.04536 9.33404C9.13755 9.35272 9.9037 9.51953 9.94463 9.54985L10.3787 9.67288C11.2921 9.95916 11.9784 10.2912 12.7758 10.762L12.9373 10.8656L13.2096 11.0439C13.2576 11.0765 13.2989 11.1029 13.3449 11.1369L13.7311 11.4293L14.33 11.9471C14.6307 12.2349 15.124 12.7598 15.3602 13.0913L15.4961 13.2754C15.5138 13.3021 15.5256 13.3096 15.5434 13.3354L15.6326 13.4592C15.6906 13.5457 15.7431 13.6263 15.8008 13.7132L16.2355 14.4724C16.2483 14.4989 16.2434 14.4786 16.2504 14.5107C16.269 14.5307 16.2816 14.5615 16.2951 14.5879C16.4947 14.9769 16.608 15.2763 16.7715 15.6714L16.8346 15.8445C16.8648 15.8877 17.016 16.3705 17.0356 16.4386C17.0425 16.4628 17.0499 16.4777 17.0568 16.5019C17.1573 16.851 17.213 17.1224 17.2748 17.4895C17.3462 17.9132 17.3594 18.2952 17.3581 18.7283C17.3481 20.3968 17.1504 21.213 16.857 21.7686H14.5338Z" fill="url(#paint0_linear_1_203)"/>
<path fill-rule="evenodd" clip-rule="evenodd" d="M17.7415 19.8876C17.7724 19.8938 17.8734 19.8366 17.901 19.8206L18.4057 19.4788C18.5699 19.3441 18.7169 19.2087 18.858 19.0476C18.9738 18.9154 18.9862 18.8909 19.0848 18.7641C19.3067 18.479 19.5276 17.9974 19.5994 17.6422C19.6954 17.168 19.6929 16.8554 19.6097 16.3976C19.6033 16.3626 19.5941 16.3014 19.5781 16.2778C19.5462 16.2307 19.5167 16.245 19.4712 16.2616L19.1915 16.3807C18.9312 16.5112 18.8655 16.5589 18.6408 16.7273C18.5754 16.7763 18.5235 16.8269 18.4619 16.8817C18.4316 16.9087 18.4048 16.9361 18.3767 16.9652C18.2825 17.0623 18.2169 17.1421 18.137 17.2505C17.7792 17.7354 17.596 18.3657 17.6044 18.9869C17.6089 19.32 17.6314 19.4962 17.6862 19.8188C17.6918 19.852 17.703 19.8798 17.7415 19.8876Z" fill="url(#paint1_linear_1_203)"/>
<path fill-rule="evenodd" clip-rule="evenodd" d="M13.8892 15.7512C13.7518 15.7386 13.4601 15.7964 13.3339 15.8305C13.1843 15.8709 13.038 15.9228 12.8981 15.9899C12.809 16.0326 12.8757 16.1301 12.9298 16.2229C12.9825 16.3133 13.0734 16.4755 13.1342 16.5514C13.3515 16.8229 13.513 17.0352 13.8272 17.245C14.0185 17.3727 14.1303 17.4327 14.3495 17.5174C14.6899 17.6488 15.2024 17.6896 15.5642 17.6124C15.5659 17.612 15.5802 17.6083 15.5814 17.6079C15.5977 17.6024 15.5879 17.6067 15.5955 17.6015C15.6351 17.6021 15.681 17.5908 15.7193 17.5815L16.0569 17.4861C16.0969 17.4734 16.3476 17.3847 16.3729 17.3576C16.4075 17.3204 16.3865 17.2779 16.367 17.2479C16.1732 16.9511 16.0399 16.8091 15.7836 16.5589L15.5177 16.3345C15.2146 16.1189 14.8516 15.8931 14.4804 15.82C14.3327 15.7909 14.0341 15.7294 13.8892 15.7512Z" fill="url(#paint2_linear_1_203)"/>
<path fill-rule="evenodd" clip-rule="evenodd" d="M8.11313 8.39292C8.1128 8.35575 8.06309 8.29415 8.04197 8.26228C8.01221 8.21743 7.99049 8.17903 7.95453 8.1374C7.8699 8.03952 7.88051 8.03105 7.75036 7.90014C7.5679 7.71662 7.28074 7.52188 7.02254 7.46173C6.77615 7.40428 6.68577 7.39637 6.43222 7.41011C6.28427 7.41812 5.94474 7.49218 5.7928 7.55931C5.72112 7.59095 5.75576 7.64754 5.78087 7.69471L6.07552 8.14623C6.51779 8.66598 7.06898 9.04082 7.83414 8.93684C7.95401 8.92102 7.9777 8.90984 8.07621 8.89165C8.11906 8.88371 8.14486 8.87115 8.1883 8.85912C8.21675 8.85128 8.27706 8.83546 8.29163 8.81222C8.31279 8.77854 8.28365 8.72973 8.27166 8.70063C8.25548 8.66141 8.24292 8.63507 8.22667 8.59684L8.15007 8.44385C8.13445 8.4127 8.14401 8.41547 8.11313 8.39292Z" fill="url(#paint3_linear_1_203)"/>
<path fill-rule="evenodd" clip-rule="evenodd" d="M13.6652 19.7139C13.7299 19.7863 14.05 19.9306 14.1547 19.9744C14.2955 20.0333 14.3474 20.0331 14.4551 20.0705C14.5023 20.0869 14.5583 20.0974 14.6186 20.1097L14.9335 20.1496C14.9905 20.154 15.0312 20.1575 15.0872 20.1587C15.4765 20.1668 15.7998 20.1053 16.1614 20.0075C16.2457 19.9848 16.3258 19.9585 16.4058 19.9308C16.5631 19.8764 16.4387 19.7741 16.3484 19.6373C16.31 19.5789 16.1634 19.4119 16.1104 19.3521C16.053 19.2874 15.9966 19.2344 15.9343 19.1736C15.8116 19.0538 15.6829 18.9474 15.5414 18.842C15.5016 18.8055 15.3541 18.7092 15.298 18.6744L15.0275 18.5182C14.956 18.4877 14.8891 18.4531 14.8134 18.4192C14.7504 18.3911 14.6436 18.3475 14.5726 18.3331C14.5595 18.3209 14.5469 18.3205 14.5258 18.3146C14.3592 18.2688 14.3502 18.2562 14.1464 18.2213C14.0178 18.1992 13.8554 18.1915 13.7233 18.1877C13.5462 18.1826 13.3332 18.2112 13.1616 18.2421C13.1287 18.2481 13.1091 18.2531 13.076 18.2616C12.8532 18.3188 12.8778 18.3139 12.661 18.3886C12.5352 18.4319 12.5985 18.5016 12.6889 18.6683L12.8733 18.9468C12.8975 18.9805 13.0433 19.1875 13.0858 19.2077C13.0977 19.2386 13.2624 19.4049 13.3015 19.4315C13.3206 19.4629 13.6106 19.6975 13.6652 19.7139Z" fill="url(#paint4_linear_1_203)"/>
<path fill-rule="evenodd" clip-rule="evenodd" d="M4.63929 11.1315C4.7551 11.155 4.93849 11.1294 5.04333 11.1151C5.23557 11.0888 5.46163 11.0197 5.63542 10.9369C5.66251 10.9239 5.68875 10.9133 5.71547 10.8985C5.83824 10.8307 5.92904 10.7773 6.03882 10.6863C6.05161 10.6757 6.0588 10.6721 6.07165 10.6616L6.26096 10.4805C6.46455 10.2661 6.64318 9.92267 6.72696 9.63521C6.73751 9.59896 6.78777 9.44692 6.78503 9.41264C6.77979 9.34689 6.69196 9.34933 6.61194 9.34521C6.53864 9.34146 6.46728 9.33684 6.40387 9.33901C6.11011 9.34907 5.87414 9.40533 5.61406 9.53723C5.58305 9.55295 5.56594 9.56659 5.5377 9.58113L5.42771 9.64859C5.41011 9.66194 5.40942 9.66596 5.39179 9.67921C4.94237 10.0171 4.7169 10.5391 4.60689 11.0827C4.60306 11.1017 4.62037 11.1277 4.63929 11.1315Z" fill="url(#paint5_linear_1_203)"/>
<path fill-rule="evenodd" clip-rule="evenodd" d="M14.1228 10.8583C14.2189 11.3323 14.5095 11.8024 14.8917 12.1011C15.0039 12.1887 15.0005 12.201 15.0746 12.0622C15.1619 11.8988 15.2344 11.6896 15.2919 11.5099C15.3085 11.4581 15.3619 11.2309 15.3643 11.1827C15.3683 11.1006 15.3933 10.9838 15.3968 10.8728C15.4001 10.7662 15.3979 10.682 15.3935 10.5796C15.385 10.3817 15.3269 10.1219 15.2577 9.93827C15.2303 9.86563 15.1357 9.63997 15.0939 9.60239C15.0858 9.55958 15.0562 9.52751 15.0316 9.49043C15.0063 9.45223 14.9856 9.42125 14.9604 9.38299C14.9107 9.30791 14.8562 9.24885 14.8012 9.17691C14.7845 9.16069 14.7721 9.14484 14.7549 9.12546C14.6546 9.01225 14.5409 8.91295 14.4293 8.814C14.4027 8.79044 14.3949 8.7845 14.3498 8.77538C14.3285 8.79653 14.3314 8.78378 14.3129 8.81516C14.3022 8.83335 14.2951 8.85302 14.2877 8.87267L14.2016 9.12447C14.1463 9.29934 14.1351 9.37976 14.0975 9.56163C14.0859 9.61743 14.0891 9.64254 14.0776 9.7014C14.0706 9.7372 14.0738 9.74369 14.0712 9.769C14.0697 9.78344 14.066 9.79553 14.0646 9.80858C14.0619 9.83356 14.0633 9.80179 14.0635 9.82289C14.0637 9.8449 14.0611 9.82915 14.0667 9.84029C14.0482 9.93168 14.0476 10.0309 14.047 10.1156C14.0453 10.3323 14.0553 10.5317 14.0963 10.7439C14.1027 10.7767 14.1115 10.8277 14.1228 10.8583Z" fill="url(#paint6_linear_1_203)"/>
<path fill-rule="evenodd" clip-rule="evenodd" d="M16.9722 10.984C16.9672 10.9517 16.9196 10.8985 16.9033 10.8648L16.6972 10.5656C16.6771 10.5422 16.6643 10.5237 16.6318 10.5284C16.5534 10.5397 16.3172 11.0011 16.2885 11.0617C16.2403 11.1633 16.1927 11.2665 16.1515 11.3747C16.0876 11.5421 15.9455 11.9572 15.9391 12.1023C15.9361 12.1677 15.909 12.2347 15.9048 12.3009C15.8972 12.4182 15.878 12.5305 15.876 12.6646C15.8737 12.8306 15.8796 13.0152 15.9048 13.1729C15.9441 13.4182 15.9771 13.5418 16.0632 13.7712C16.081 13.8186 16.097 13.8583 16.1181 13.9036L16.2175 14.0978C16.2341 14.1242 16.2373 14.1383 16.2545 14.1647C16.2981 14.2311 16.3118 14.2631 16.3547 14.3162C16.4181 14.3947 16.4994 14.5787 16.5801 14.5226C16.6097 14.5021 16.6977 14.3845 16.7309 14.3499C16.754 14.3181 16.7735 14.2896 16.7977 14.2568C16.8328 14.2092 16.9771 13.9957 16.9885 13.9515L17.0604 13.826C17.0844 13.7796 17.1048 13.7378 17.1263 13.692C17.1671 13.6051 17.2112 13.496 17.2427 13.4011C17.3753 13.001 17.4195 12.6738 17.389 12.2586L17.3504 11.9748C17.3191 11.8039 17.3069 11.7884 17.2673 11.6431C17.2584 11.6104 17.2563 11.6022 17.2414 11.5758C17.2405 11.5435 17.2287 11.5288 17.2181 11.4999C17.2066 11.4688 17.1995 11.4489 17.1881 11.4214C17.1314 11.2831 17.0527 11.1096 16.9722 10.984Z" fill="url(#paint7_linear_1_203)"/>
<path fill-rule="evenodd" clip-rule="evenodd" d="M12.23 12.845C12.4025 12.8799 12.6008 12.8731 12.7387 12.856C12.9087 12.835 13.0176 12.8145 13.1831 12.752C13.2653 12.721 13.3928 12.6628 13.473 12.6166L13.6488 12.4999C13.6745 12.4827 13.7209 12.4656 13.7165 12.4243C13.7123 12.3844 13.6106 12.2848 13.58 12.2539C13.2806 11.9519 12.7809 11.6204 12.3246 11.5535C12.2066 11.5362 11.877 11.5112 11.8075 11.5419C11.7628 11.536 11.6679 11.5561 11.628 11.5635C11.57 11.5742 11.5147 11.5884 11.4577 11.6036C11.3964 11.6199 11.1849 11.6905 11.1485 11.7215C11.1007 11.7249 10.8234 11.8846 10.7732 11.9182C10.7467 11.9361 10.727 11.9495 10.6999 11.9667C10.628 12.0128 10.624 12.0411 10.6965 12.1063C10.8255 12.2219 11.1318 12.4568 11.3 12.53C11.3303 12.5551 11.4527 12.6079 11.4983 12.6293C11.5684 12.6621 11.639 12.6923 11.7198 12.7214C11.7965 12.749 12.1477 12.8629 12.23 12.845Z" fill="url(#paint8_linear_1_203)"/>
<path fill-rule="evenodd" clip-rule="evenodd" d="M0.74946 11.968C0.815377 11.9814 0.975651 11.9565 1.03679 11.9453C1.12986 11.9283 1.21404 11.9033 1.29864 11.8736C1.56774 11.7792 1.86081 11.5832 2.02956 11.3534C2.19695 11.1256 2.29147 10.908 2.35515 10.5933C2.36962 10.5218 2.3713 10.4772 2.38343 10.4128C2.40528 10.2968 2.32928 10.3005 2.14544 10.309C1.77117 10.3264 1.3928 10.459 1.14502 10.7516C0.875062 11.0704 0.778629 11.417 0.726093 11.8358C0.720721 11.8786 0.705593 11.9592 0.74946 11.968Z" fill="url(#paint9_linear_1_203)"/>
<path fill-rule="evenodd" clip-rule="evenodd" d="M13.0949 9.1557C13.0976 9.11948 13.0153 8.96817 12.993 8.92994C12.8381 8.6643 12.6467 8.42264 12.3883 8.24806C12.3538 8.22473 12.272 8.16023 12.2341 8.15664C12.2022 8.10911 11.9431 8.00144 11.8981 7.98255C11.7772 7.93213 11.6283 7.88853 11.4899 7.85224C11.3735 7.82172 11.4096 8.07444 11.4151 8.18344L11.4594 8.55866C11.4694 8.57906 11.4736 8.61855 11.4789 8.64748C11.5006 8.76768 11.5748 9.05046 11.6196 9.15998C11.6702 9.28387 11.7032 9.38763 11.7712 9.51554L11.9021 9.74513C11.9199 9.77189 11.933 9.79157 11.9507 9.81839C11.99 9.87775 11.9801 9.88213 12.011 9.88596C12.0176 9.91374 12.0117 9.89835 12.0264 9.9232C12.0474 9.95846 12.1745 10.0961 12.2014 10.1232C12.2555 10.1775 12.3769 10.2902 12.4459 10.3279C12.5008 10.3897 12.7491 10.5088 12.8365 10.5458C12.9179 10.5803 12.9852 10.6 13.0793 10.6238C13.1595 10.6441 13.2651 10.7006 13.2813 10.6012C13.3189 10.3705 13.3043 10.0089 13.2694 9.77333C13.2661 9.75039 13.2634 9.68903 13.2461 9.67427C13.255 9.60924 13.1347 9.19278 13.0949 9.1557Z" fill="url(#paint10_linear_1_203)"/>
<path fill-rule="evenodd" clip-rule="evenodd" d="M3.97585 9.77121C3.83331 9.80806 3.85463 9.78891 3.68443 9.8511C3.16838 10.0395 2.84734 10.4659 2.73472 11.0168C2.71138 11.1308 2.67348 11.5724 2.6985 11.6808C2.70594 11.7132 2.72031 11.7275 2.75462 11.7267C2.80057 11.7258 2.97692 11.6706 3.01812 11.656L3.22088 11.5693C3.29402 11.5349 3.34833 11.4967 3.41586 11.4604L3.53517 11.3753C3.59469 11.3302 3.70846 11.2257 3.75167 11.1718L3.85895 11.047C3.89277 11.0038 3.92441 10.9535 3.95324 10.9029C4.15475 10.5498 4.21019 10.2405 4.20933 9.84151C4.20917 9.77988 4.20861 9.79909 4.19065 9.75545C4.12588 9.74237 4.02565 9.75888 3.97585 9.77121Z" fill="url(#paint11_linear_1_203)"/>
<path fill-rule="evenodd" clip-rule="evenodd" d="M4.76751 9.00134C4.98019 9.04435 5.11397 9.03199 5.28522 9.00997C5.44705 8.98917 5.52486 8.95599 5.66137 8.90909C5.73941 8.88229 5.71984 8.84716 5.69215 8.7873C5.62027 8.632 5.54199 8.47506 5.43066 8.34191L5.34326 8.23113C4.86767 7.69836 4.28929 7.56063 3.61892 7.79161C3.58573 7.80307 3.45752 7.84691 3.4396 7.86115C3.38854 7.90165 3.44863 7.96173 3.48379 8.03006C3.50953 8.08002 3.54773 8.14871 3.58606 8.18727C3.80039 8.46662 4.02513 8.7092 4.3614 8.86845C4.52408 8.94547 4.58697 8.96479 4.76751 9.00134Z" fill="url(#paint12_linear_1_203)"/>
<path fill-rule="evenodd" clip-rule="evenodd" d="M10.0842 11.5313C10.2832 11.5121 10.2291 11.5349 10.4678 11.4894C10.6513 11.4544 10.7492 11.3934 10.8183 11.3755C10.8806 11.3309 11.005 11.2962 11.1859 11.1406C11.2437 11.0909 11.2969 11.047 11.3473 10.9916C11.3982 10.9357 11.5334 10.7878 11.5638 10.7245C11.5831 10.6846 11.5526 10.6546 11.5207 10.6311C11.4548 10.5826 11.397 10.538 11.3224 10.4954C11.1952 10.4227 10.9994 10.3128 10.8516 10.2829C10.8008 10.25 10.5681 10.2142 10.5054 10.2103C10.3433 10.2002 10.356 10.2001 10.1967 10.2114C9.7707 10.2415 9.33845 10.5279 9.0589 10.8285C9.02571 10.8642 9.00198 10.891 8.97018 10.928C8.94068 10.9624 8.90934 10.9909 8.88746 11.0313C8.85756 11.0623 8.79557 11.1264 8.84227 11.1703C8.91141 11.2352 9.20831 11.3592 9.30903 11.3951C9.43727 11.441 9.54906 11.4652 9.69832 11.4955C9.91835 11.5402 9.97359 11.5168 10.0842 11.5313Z" fill="url(#paint13_linear_1_203)"/>
<path fill-rule="evenodd" clip-rule="evenodd" d="M19.022 15.0206C19.071 14.9625 19.1215 14.3621 19.1056 14.3147C19.1146 14.265 19.1067 14.1933 19.1045 14.1445C19.1032 14.1156 19.1016 14.0072 19.0884 13.9789C19.1041 13.8718 18.9871 13.3614 18.9589 13.2565L18.9109 13.0915C18.882 12.9925 18.8218 13.0268 18.774 13.0591C18.6893 13.1164 18.5733 13.196 18.504 13.2687C18.4366 13.3009 18.1607 13.606 18.0945 13.6779L17.9448 13.8658C17.9214 13.8988 17.8895 13.9283 17.8699 13.9691C17.7982 14.0505 17.6731 14.2692 17.6204 14.3716C17.5698 14.4699 17.5077 14.5758 17.4726 14.6836C17.4601 14.7011 17.4343 14.7791 17.4234 14.8077C17.4065 14.8519 17.394 14.896 17.3757 14.9478C17.3408 15.0462 17.3216 15.1499 17.2989 15.2617C17.2257 15.6238 17.2209 15.9859 17.2846 16.3295C17.2986 16.4051 17.3946 16.847 17.4424 16.8863C17.4857 16.922 17.5523 16.8781 17.6018 16.8469C17.6914 16.7905 17.7423 16.7698 17.8346 16.6996C17.8859 16.6606 17.9514 16.6244 18.0153 16.5691C18.2939 16.3281 18.5011 16.1372 18.7004 15.7997C18.7442 15.7255 18.7837 15.6575 18.8224 15.5807C18.8499 15.5259 18.9113 15.4006 18.9239 15.338C18.9569 15.2918 19.0063 15.0981 19.022 15.0206Z" fill="url(#paint14_linear_1_203)"/>
<path fill-rule="evenodd" clip-rule="evenodd" d="M9.79199 9.24837C9.81002 9.27207 9.92478 9.31782 9.95253 9.32955C10.0664 9.3776 10.255 9.43182 10.374 9.43996L10.5285 9.45021C10.5781 9.44411 10.5574 9.42697 10.5681 9.42473C10.5811 9.42203 10.5821 9.36168 10.582 9.35509C10.5796 8.76577 10.3612 8.09622 9.9199 7.69142C9.84773 7.62524 9.63534 7.45812 9.55077 7.43231C9.48683 7.39016 9.26661 7.29873 9.16955 7.27909C9.02232 7.24929 9.06059 7.23944 8.84764 7.21347C8.79778 7.2074 8.71921 7.18466 8.65622 7.20061C8.62527 7.26834 8.64894 7.36933 8.6614 7.44329C8.71505 7.76212 8.86577 8.20877 9.03926 8.49369C9.07301 8.5491 9.25286 8.81972 9.29264 8.84295C9.3291 8.9007 9.45694 9.01968 9.51337 9.06529C9.56603 9.10778 9.72024 9.2283 9.79199 9.24837Z" fill="url(#paint15_linear_1_203)"/>
<path fill-rule="evenodd" clip-rule="evenodd" d="M13.4589 14.8354C13.5515 14.9103 13.8545 15.0187 13.98 15.0618C14.0266 15.0778 14.1286 15.1062 14.1833 15.1173C14.3366 15.1483 14.5536 15.1667 14.7018 15.1575L14.8656 15.1454C14.8676 15.1447 15.1528 15.1019 15.3406 15.0286L15.5597 14.9347C15.5868 14.9223 15.6047 14.9108 15.6049 14.8769C15.6051 14.8368 15.554 14.7656 15.5375 14.7317L15.4175 14.5371C15.3662 14.4766 15.3236 14.4026 15.2559 14.3208C15.2453 14.308 15.2416 14.3009 15.2311 14.288C15.2124 14.2653 15.1977 14.2479 15.1774 14.2252C15.1409 14.1847 15.1134 14.1506 15.0748 14.1104C14.9691 14.0003 14.8946 13.9378 14.782 13.8405C14.7346 13.7994 14.4782 13.6226 14.4236 13.6101C14.3665 13.5622 14.1688 13.4845 14.0792 13.4558C13.9279 13.4073 13.9134 13.4061 13.7656 13.3753C13.7168 13.3652 13.6946 13.3687 13.6575 13.362C13.4908 13.3283 13.1554 13.3487 12.9825 13.3821L12.9412 13.3965C12.8535 13.3781 12.3838 13.5483 12.2699 13.6015C12.2447 13.6133 12.2242 13.6263 12.2226 13.6607C12.2208 13.702 12.3547 13.8788 12.3877 13.9169C12.5922 14.1527 12.7783 14.3732 13.0456 14.5635C13.1273 14.6216 13.3763 14.8102 13.4589 14.8354Z" fill="url(#paint16_linear_1_203)"/>
<path fill-rule="evenodd" clip-rule="evenodd" d="M3.65899 9.08984C3.62148 9.05513 3.57851 9.0318 3.53362 9.00276C3.41263 8.92445 3.28376 8.87146 3.1487 8.82209C3.11376 8.80933 3.08463 8.80735 3.04986 8.79625C2.83503 8.72769 2.57345 8.74536 2.36845 8.80053C2.13247 8.86408 1.97321 8.96934 1.79145 9.10753C1.77055 9.12339 1.75315 9.1407 1.73361 9.15813C1.65705 9.22632 1.45521 9.39968 1.43445 9.50224C1.46602 9.53408 1.5906 9.62191 1.64238 9.63734C1.67916 9.67201 1.88946 9.75572 1.93122 9.77049C2.25602 9.88542 2.57816 9.91191 2.91229 9.83229C3.002 9.8109 3.09402 9.77408 3.17239 9.73671C3.29075 9.68035 3.41622 9.60676 3.51542 9.52232C3.6348 9.42074 3.66047 9.39411 3.76472 9.28324C3.78937 9.25707 3.79231 9.25796 3.80167 9.21175C3.7612 9.17088 3.71416 9.11673 3.65899 9.08984Z" fill="url(#paint17_linear_1_203)"/>
<path fill-rule="evenodd" clip-rule="evenodd" d="M7.83904 11.0433C7.87081 11.031 7.91293 11.0221 7.94997 11.0122C8.26096 10.9292 8.61701 10.7009 8.8203 10.4584C8.93789 10.318 9.18152 9.99608 9.21936 9.80898C9.17645 9.76567 9.20113 9.77842 9.11395 9.7453C8.95131 9.6834 8.86341 9.6693 8.68273 9.63275C8.48917 9.5936 8.20105 9.61202 8.05828 9.65018C7.93916 9.65513 7.72628 9.76218 7.61459 9.81765C7.5378 9.85575 7.36928 9.98356 7.30257 10.0469C7.17835 10.1648 7.14411 10.2073 7.03248 10.3501C6.96258 10.4395 6.69308 10.8856 6.70152 10.9588C6.71075 11.0385 7.02378 11.0685 7.06986 11.0742C7.22133 11.0931 7.32199 11.0963 7.45455 11.0923C7.5814 11.0887 7.72576 11.0691 7.83904 11.0433Z" fill="url(#paint18_linear_1_203)"/>
<path d="M51.4687 12.7188C52.95 12.7188 54.2964 13.3244 55.2721 14.3001C56.2478 15.2759 56.8535 16.6222 56.8535 18.1036V34.6958C56.8535 34.9689 56.6321 35.1902 56.3591 35.1902H51.4687C51.1957 35.1902 50.9743 34.9689 50.9743 34.6958V13.2131C50.9743 12.9401 51.1957 12.7188 51.4687 12.7188ZM51.963 13.7354V34.2015H55.8647V18.1036C55.8647 16.8951 55.37 15.7962 54.573 14.9992C53.8862 14.3124 52.9752 13.8501 51.963 13.7354Z" fill="#372011"/>
<path d="M85.1642 12.7188C86.6456 12.7188 87.9919 13.3244 88.9676 14.3001C89.9433 15.2759 90.549 16.6222 90.549 18.1036V34.6958C90.549 34.9689 90.3277 35.1902 90.0546 35.1902H85.1642C84.8912 35.1902 84.6698 34.9689 84.6698 34.6958V13.2131C84.6698 12.9401 84.8912 12.7188 85.1642 12.7188ZM85.6586 13.7354V34.2015H89.5603V18.1036C89.5603 16.8951 89.0655 15.7962 88.2686 14.9992C87.5818 14.3124 86.6707 13.8501 85.6586 13.7354Z" fill="#372011"/>
<path d="M45.8409 18.6315H42.0914V29.4523C42.078 29.4684 42.0691 29.4893 42.0678 29.5145L42.0138 30.8747H41.521C41.2059 30.8747 40.9504 30.6193 40.9504 30.3043L40.9392 17.2942C40.9392 17.1271 41.0693 17.1176 41.1838 17.0133C41.2851 16.9209 41.373 17.4905 41.521 17.4905H46.4114C46.7264 17.4905 46.9819 17.7459 46.9819 18.0609V30.3043C46.9819 30.6193 46.7264 30.8747 46.4114 30.8747H45.8424L45.8409 29.7337V29.6327V29.4154V18.6315Z" fill="#372011"/>
<path d="M40.9833 18.2756C40.9553 18.2116 40.9392 18.1375 40.9392 18.0532V16.0516C40.9392 15.9454 40.9553 15.8573 40.9853 15.7911C41.0114 15.7331 41.0494 15.6831 41.1015 15.6412C41.1755 15.5849 41.2496 15.5431 41.3237 15.5169C41.3958 15.4907 41.4719 15.4789 41.552 15.4789C41.632 15.4789 41.7081 15.4907 41.7782 15.5169C41.8543 15.5431 41.9264 15.5849 41.9985 15.6392C42.0445 15.6792 42.0785 15.725 42.1006 15.7793C42.1306 15.8512 42.1446 15.9413 42.1446 16.0516V16.9903V17.4607H42.6152L46.8755 17.4371H47.3459V16.9666V14.3096V13.8391H46.8755H39.8001H39.3296V14.3096V16.56C39.3296 16.6762 39.3156 16.7704 39.2834 16.8405C39.2615 16.8966 39.2275 16.9405 39.1814 16.9747L39.1734 16.9766C39.1033 17.0325 39.0313 17.0728 38.9571 17.0986C38.885 17.1228 38.8069 17.1348 38.7249 17.1348C38.6468 17.1348 38.5727 17.1228 38.5026 17.0986C38.4305 17.0728 38.3584 17.0325 38.2884 16.9766L38.2804 16.9747C38.1823 16.9005 38.1321 16.7623 38.1321 16.56V13.2463C38.1321 13.1563 38.1463 13.0781 38.1723 13.0101C38.2003 12.944 38.2424 12.8779 38.3005 12.8139V12.8159C38.3665 12.7497 38.4326 12.7039 38.4986 12.6757C38.5627 12.6477 38.6387 12.6335 38.7249 12.6335H47.9387C48.0245 12.6335 48.1027 12.6477 48.1707 12.6778C48.2408 12.7058 48.3069 12.7519 48.367 12.812C48.4311 12.8758 48.4773 12.944 48.5073 13.0182C48.5373 13.0862 48.5512 13.1624 48.5512 13.2463V18.0296C48.5512 18.1177 48.5373 18.1919 48.5093 18.258C48.4812 18.3242 48.435 18.3901 48.3692 18.4542L48.3711 18.4563C48.305 18.5204 48.2369 18.5685 48.1648 18.5984C48.0988 18.6266 48.0227 18.6424 47.9387 18.6424L41.5319 18.666C41.4619 18.666 41.3938 18.6522 41.3318 18.6241C41.2617 18.5941 41.1935 18.5441 41.1274 18.4779C41.0614 18.4117 41.0134 18.3437 40.9833 18.2756Z" fill="#372011"/>
<path d="M4.29877 42.1866H4.71824V43.764C4.52524 43.9334 4.2968 44.0634 4.0329 44.154C3.76901 44.2446 3.49133 44.2899 3.19987 44.2899C2.78631 44.2899 2.4141 44.1993 2.08325 44.0181C1.7524 43.8369 1.49245 43.5868 1.30339 43.2678C1.11433 42.9448 1.0198 42.5844 1.0198 42.1866C1.0198 41.7888 1.11433 41.4304 1.30339 41.1113C1.49245 40.7884 1.7524 40.5363 2.08325 40.3551C2.4141 40.1739 2.78828 40.0833 3.20578 40.0833C3.52087 40.0833 3.81037 40.1345 4.07426 40.2369C4.33815 40.3354 4.56069 40.4831 4.74187 40.68L4.4701 40.9577C4.14319 40.6347 3.72766 40.4733 3.2235 40.4733C2.88871 40.4733 2.58543 40.5481 2.31366 40.6978C2.04583 40.8435 1.83511 41.0483 1.6815 41.3122C1.5279 41.5722 1.45109 41.8636 1.45109 42.1866C1.45109 42.5096 1.5279 42.801 1.6815 43.061C1.83511 43.3209 2.04583 43.5258 2.31366 43.6754C2.5815 43.8251 2.88281 43.8999 3.21759 43.8999C3.64297 43.8999 4.00336 43.7936 4.29877 43.5809V42.1866ZM11.3083 44.2899C10.8987 44.2899 10.5265 44.1993 10.1917 44.0181C9.86082 43.833 9.60086 43.5809 9.41181 43.2619C9.22669 42.9428 9.13413 42.5844 9.13413 42.1866C9.13413 41.7888 9.22669 41.4304 9.41181 41.1113C9.60086 40.7923 9.86082 40.5422 10.1917 40.361C10.5265 40.1759 10.8987 40.0833 11.3083 40.0833C11.7179 40.0833 12.0862 40.1739 12.4131 40.3551C12.7439 40.5363 13.0039 40.7884 13.193 41.1113C13.382 41.4304 13.4765 41.7888 13.4765 42.1866C13.4765 42.5844 13.382 42.9448 13.193 43.2678C13.0039 43.5868 12.7439 43.8369 12.4131 44.0181C12.0862 44.1993 11.7179 44.2899 11.3083 44.2899ZM11.3083 43.8999C11.6352 43.8999 11.9306 43.8271 12.1945 43.6813C12.4584 43.5317 12.6652 43.3268 12.8148 43.0669C12.9645 42.803 13.0393 42.5096 13.0393 42.1866C13.0393 41.8636 12.9645 41.5722 12.8148 41.3122C12.6652 41.0483 12.4584 40.8435 12.1945 40.6978C11.9306 40.5481 11.6352 40.4733 11.3083 40.4733C10.9814 40.4733 10.684 40.5481 10.4162 40.6978C10.1523 40.8435 9.94353 41.0483 9.78992 41.3122C9.64025 41.5722 9.56542 41.8636 9.56542 42.1866C9.56542 42.5096 9.64025 42.803 9.78992 43.0669C9.94353 43.3268 10.1523 43.5317 10.4162 43.6813C10.684 43.8271 10.9814 43.8999 11.3083 43.8999ZM18.0013 40.1188H18.4385V43.8763H20.7545V44.2544H18.0013V40.1188ZM25.0252 40.1188H26.709C27.1462 40.1188 27.5322 40.2074 27.867 40.3846C28.2017 40.5579 28.4617 40.8021 28.6468 41.1172C28.8319 41.4284 28.9245 41.7848 28.9245 42.1866C28.9245 42.5883 28.8319 42.9468 28.6468 43.2619C28.4617 43.573 28.2017 43.8172 27.867 43.9945C27.5322 44.1678 27.1462 44.2544 26.709 44.2544H25.0252V40.1188ZM26.6853 43.8763C27.0477 43.8763 27.3648 43.8054 27.6365 43.6636C27.9083 43.5179 28.119 43.319 28.2687 43.0669C28.4184 42.8109 28.4932 42.5174 28.4932 42.1866C28.4932 41.8557 28.4184 41.5643 28.2687 41.3122C28.119 41.0562 27.9083 40.8573 27.6365 40.7155C27.3648 40.5698 27.0477 40.4969 26.6853 40.4969H25.4624V43.8763H26.6853ZM34.5913 44.2899C34.2841 44.2899 33.9887 44.2406 33.7051 44.1422C33.4255 44.0437 33.2088 43.9137 33.0552 43.7522L33.2266 43.4155C33.3762 43.5651 33.5751 43.6872 33.8233 43.7818C34.0714 43.8724 34.3274 43.9177 34.5913 43.9177C34.9616 43.9177 35.2392 43.8507 35.4244 43.7168C35.6095 43.5789 35.702 43.4017 35.702 43.1851C35.702 43.0196 35.6508 42.8877 35.5484 42.7892C35.45 42.6907 35.3279 42.6159 35.1821 42.5647C35.0364 42.5096 34.8336 42.4505 34.5736 42.3875C34.2624 42.3087 34.0143 42.2339 33.8292 42.163C33.6441 42.0881 33.4845 41.9759 33.3506 41.8262C33.2207 41.6765 33.1557 41.4737 33.1557 41.2177C33.1557 41.0089 33.2108 40.8199 33.3211 40.6505C33.4314 40.4772 33.6007 40.3393 33.8292 40.2369C34.0576 40.1345 34.3412 40.0833 34.6799 40.0833C34.9163 40.0833 35.1467 40.1168 35.3712 40.1838C35.5996 40.2468 35.7966 40.3354 35.962 40.4496L35.8143 40.7982C35.641 40.684 35.4559 40.5993 35.2589 40.5442C35.062 40.4851 34.869 40.4555 34.6799 40.4555C34.3176 40.4555 34.0438 40.5264 33.8587 40.6682C33.6775 40.8061 33.587 40.9853 33.587 41.2059C33.587 41.3713 33.6362 41.5052 33.7347 41.6076C33.8371 41.7061 33.9631 41.7829 34.1128 41.838C34.2664 41.8892 34.4712 41.9463 34.7272 42.0094C35.0305 42.0842 35.2747 42.159 35.4598 42.2339C35.6489 42.3048 35.8084 42.415 35.9384 42.5647C36.0683 42.7104 36.1333 42.9093 36.1333 43.1614C36.1333 43.3702 36.0762 43.5612 35.962 43.7345C35.8517 43.9039 35.6804 44.0398 35.448 44.1422C35.2156 44.2406 34.93 44.2899 34.5913 44.2899ZM44.9259 40.1188V44.2544H44.5064V40.9459L42.8817 43.7286H42.6749L41.0502 40.9636V44.2544H40.6307V40.1188H40.9911L42.7872 43.1851L44.5655 40.1188H44.9259ZM49.8182 40.1188H50.2554V44.2544H49.8182V40.1188ZM55.9493 40.4969H54.4959V40.1188H57.8399V40.4969H56.3865V44.2544H55.9493V40.4969ZM65.5394 40.1188V44.2544H65.1081V42.3461H62.5203V44.2544H62.0831V40.1188H62.5203V41.9621H65.1081V40.1188H65.5394ZM70.1682 40.1188H70.5404L70.5108 41.6785H70.1977L70.1682 40.1188ZM76.3134 44.2899C76.0062 44.2899 75.7108 44.2406 75.4272 44.1422C75.1475 44.0437 74.9309 43.9137 74.7773 43.7522L74.9486 43.4155C75.0983 43.5651 75.2972 43.6872 75.5454 43.7818C75.7935 43.8724 76.0495 43.9177 76.3134 43.9177C76.6836 43.9177 76.9613 43.8507 77.1464 43.7168C77.3316 43.5789 77.4241 43.4017 77.4241 43.1851C77.4241 43.0196 77.3729 42.8877 77.2705 42.7892C77.172 42.6907 77.0499 42.6159 76.9042 42.5647C76.7585 42.5096 76.5556 42.4505 76.2957 42.3875C75.9845 42.3087 75.7364 42.2339 75.5513 42.163C75.3661 42.0881 75.2066 41.9759 75.0727 41.8262C74.9427 41.6765 74.8777 41.4737 74.8777 41.2177C74.8777 41.0089 74.9329 40.8199 75.0432 40.6505C75.1535 40.4772 75.3228 40.3393 75.5513 40.2369C75.7797 40.1345 76.0633 40.0833 76.402 40.0833C76.6383 40.0833 76.8688 40.1168 77.0933 40.1838C77.3217 40.2468 77.5186 40.3354 77.6841 40.4496L77.5364 40.7982C77.3631 40.684 77.1779 40.5993 76.981 40.5442C76.7841 40.4851 76.5911 40.4555 76.402 40.4555C76.0397 40.4555 75.7659 40.5264 75.5808 40.6682C75.3996 40.8061 75.309 40.9853 75.309 41.2059C75.309 41.3713 75.3583 41.5052 75.4567 41.6076C75.5591 41.7061 75.6852 41.7829 75.8349 41.838C75.9885 41.8892 76.1933 41.9463 76.4493 42.0094C76.7526 42.0842 76.9968 42.159 77.1819 42.2339C77.3709 42.3048 77.5305 42.415 77.6604 42.5647C77.7904 42.7104 77.8554 42.9093 77.8554 43.1614C77.8554 43.3702 77.7983 43.5612 77.6841 43.7345C77.5738 43.9039 77.4025 44.0398 77.1701 44.1422C76.9377 44.2406 76.6521 44.2899 76.3134 44.2899ZM95.4476 42.1866H95.8671V43.764C95.6741 43.9334 95.4456 44.0634 95.1817 44.154C94.9179 44.2446 94.6402 44.2899 94.3487 44.2899C93.9351 44.2899 93.5629 44.1993 93.2321 44.0181C92.9012 43.8369 92.6413 43.5868 92.4522 43.2678C92.2632 42.9448 92.1686 42.5844 92.1686 42.1866C92.1686 41.7888 92.2632 41.4304 92.4522 41.1113C92.6413 40.7884 92.9012 40.5363 93.2321 40.3551C93.5629 40.1739 93.9371 40.0833 94.3546 40.0833C94.6697 40.0833 94.9592 40.1345 95.2231 40.2369C95.487 40.3354 95.7095 40.4831 95.8907 40.68L95.6189 40.9577C95.292 40.6347 94.8765 40.4733 94.3723 40.4733C94.0376 40.4733 93.7343 40.5481 93.4625 40.6978C93.1947 40.8435 92.984 41.0483 92.8303 41.3122C92.6767 41.5722 92.5999 41.8636 92.5999 42.1866C92.5999 42.5096 92.6767 42.801 92.8303 43.061C92.984 43.3209 93.1947 43.5258 93.4625 43.6754C93.7303 43.8251 94.0316 43.8999 94.3664 43.8999C94.7918 43.8999 95.1522 43.7936 95.4476 43.5809V42.1866ZM102.457 44.2899C102.048 44.2899 101.675 44.1993 101.341 44.0181C101.01 43.833 100.75 43.5809 100.561 43.2619C100.376 42.9428 100.283 42.5844 100.283 42.1866C100.283 41.7888 100.376 41.4304 100.561 41.1113C100.75 40.7923 101.01 40.5422 101.341 40.361C101.675 40.1759 102.048 40.0833 102.457 40.0833C102.867 40.0833 103.235 40.1739 103.562 40.3551C103.893 40.5363 104.153 40.7884 104.342 41.1113C104.531 41.4304 104.625 41.7888 104.625 42.1866C104.625 42.5844 104.531 42.9448 104.342 43.2678C104.153 43.5868 103.893 43.8369 103.562 44.0181C103.235 44.1993 102.867 44.2899 102.457 44.2899ZM102.457 43.8999C102.784 43.8999 103.079 43.8271 103.343 43.6813C103.607 43.5317 103.814 43.3268 103.964 43.0669C104.113 42.803 104.188 42.5096 104.188 42.1866C104.188 41.8636 104.113 41.5722 103.964 41.3122C103.814 41.0483 103.607 40.8435 103.343 40.6978C103.079 40.5481 102.784 40.4733 102.457 40.4733C102.13 40.4733 101.833 40.5481 101.565 40.6978C101.301 40.8435 101.092 41.0483 100.939 41.3122C100.789 41.5722 100.714 41.8636 100.714 42.1866C100.714 42.5096 100.789 42.803 100.939 43.0669C101.092 43.3268 101.301 43.5317 101.565 43.6813C101.833 43.8271 102.13 43.8999 102.457 43.8999ZM109.15 40.1188H109.587V43.8763H111.903V44.2544H109.15V40.1188ZM116.174 40.1188H117.858C118.295 40.1188 118.681 40.2074 119.016 40.3846C119.351 40.5579 119.611 40.8021 119.796 41.1172C119.981 41.4284 120.073 41.7848 120.073 42.1866C120.073 42.5883 119.981 42.9468 119.796 43.2619C119.611 43.573 119.351 43.8172 119.016 43.9945C118.681 44.1678 118.295 44.2544 117.858 44.2544H116.174V40.1188ZM117.834 43.8763C118.197 43.8763 118.514 43.8054 118.785 43.6636C119.057 43.5179 119.268 43.319 119.418 43.0669C119.567 42.8109 119.642 42.5174 119.642 42.1866C119.642 41.8557 119.567 41.5643 119.418 41.3122C119.268 41.0562 119.057 40.8573 118.785 40.7155C118.514 40.5698 118.197 40.4969 117.834 40.4969H116.611V43.8763H117.834Z" fill="#372011"/>
<defs>
<linearGradient id="paint0_linear_1_203" x1="5.07081" y1="11.5836" x2="15.9647" y2="19.2964" gradientUnits="userSpaceOnUse">
<stop stop-color="#F0DB92"/>
<stop offset="1" stop-color="#BF9033"/>
</linearGradient>
<linearGradient id="paint1_linear_1_203" x1="17.8148" y1="16.9572" x2="19.9862" y2="17.7646" gradientUnits="userSpaceOnUse">
<stop stop-color="#F0DB92"/>
<stop offset="1" stop-color="#BF9033"/>
</linearGradient>
<linearGradient id="paint2_linear_1_203" x1="13.2148" y1="16.1186" x2="14.9201" y2="18.1927" gradientUnits="userSpaceOnUse">
<stop stop-color="#F0DB92"/>
<stop offset="1" stop-color="#BF9033"/>
</linearGradient>
<linearGradient id="paint3_linear_1_203" x1="5.24496" y1="6.18783" x2="6.36825" y2="9.46064" gradientUnits="userSpaceOnUse">
<stop stop-color="#F0DB92"/>
<stop offset="1" stop-color="#BF9033"/>
</linearGradient>
<linearGradient id="paint4_linear_1_203" x1="11.8195" y1="16.6393" x2="13.0508" y2="20.9421" gradientUnits="userSpaceOnUse">
<stop stop-color="#F0DB92"/>
<stop offset="1" stop-color="#BF9033"/>
</linearGradient>
<linearGradient id="paint5_linear_1_203" x1="4.82828" y1="9.69053" x2="6.42931" y2="10.9581" gradientUnits="userSpaceOnUse">
<stop stop-color="#F0DB92"/>
<stop offset="1" stop-color="#BF9033"/>
</linearGradient>
<linearGradient id="paint6_linear_1_203" x1="14.1845" y1="9.43778" x2="15.6971" y2="9.83265" gradientUnits="userSpaceOnUse">
<stop stop-color="#F0DB92"/>
<stop offset="1" stop-color="#BF9033"/>
</linearGradient>
<linearGradient id="paint7_linear_1_203" x1="16.0306" y1="11.31" x2="17.7446" y2="11.7368" gradientUnits="userSpaceOnUse">
<stop stop-color="#F0DB92"/>
<stop offset="1" stop-color="#BF9033"/>
</linearGradient>
<linearGradient id="paint8_linear_1_203" x1="10.0351" y1="10.4737" x2="10.7719" y2="13.461" gradientUnits="userSpaceOnUse">
<stop stop-color="#F0DB92"/>
<stop offset="1" stop-color="#BF9033"/>
</linearGradient>
<linearGradient id="paint9_linear_1_203" x1="0.889062" y1="10.6308" x2="2.28365" y2="11.545" gradientUnits="userSpaceOnUse">
<stop stop-color="#F0DB92"/>
<stop offset="1" stop-color="#BF9033"/>
</linearGradient>
<linearGradient id="paint10_linear_1_203" x1="11.5989" y1="8.39825" x2="13.496" y2="9.23798" gradientUnits="userSpaceOnUse">
<stop stop-color="#F0DB92"/>
<stop offset="1" stop-color="#BF9033"/>
</linearGradient>
<linearGradient id="paint11_linear_1_203" x1="2.845" y1="10.1366" x2="4.29364" y2="10.8661" gradientUnits="userSpaceOnUse">
<stop stop-color="#F0DB92"/>
<stop offset="1" stop-color="#BF9033"/>
</linearGradient>
<linearGradient id="paint12_linear_1_203" x1="2.96478" y1="6.62738" x2="3.91229" y2="9.49124" gradientUnits="userSpaceOnUse">
<stop stop-color="#F0DB92"/>
<stop offset="1" stop-color="#BF9033"/>
</linearGradient>
<linearGradient id="paint13_linear_1_203" x1="9.10494" y1="10.4623" x2="10.2639" y2="12.0304" gradientUnits="userSpaceOnUse">
<stop stop-color="#F0DB92"/>
<stop offset="1" stop-color="#BF9033"/>
</linearGradient>
<linearGradient id="paint14_linear_1_203" x1="17.4306" y1="13.7826" x2="19.4625" y2="14.4251" gradientUnits="userSpaceOnUse">
<stop stop-color="#F0DB92"/>
<stop offset="1" stop-color="#BF9033"/>
</linearGradient>
<linearGradient id="paint15_linear_1_203" x1="8.83867" y1="7.63551" x2="10.5994" y2="8.6282" gradientUnits="userSpaceOnUse">
<stop stop-color="#F0DB92"/>
<stop offset="1" stop-color="#BF9033"/>
</linearGradient>
<linearGradient id="paint16_linear_1_203" x1="11.5524" y1="11.9202" x2="12.7411" y2="15.8443" gradientUnits="userSpaceOnUse">
<stop stop-color="#F0DB92"/>
<stop offset="1" stop-color="#BF9033"/>
</linearGradient>
<linearGradient id="paint17_linear_1_203" x1="1.67556" y1="8.97164" x2="2.65312" y2="10.3173" gradientUnits="userSpaceOnUse">
<stop stop-color="#F0DB92"/>
<stop offset="1" stop-color="#BF9033"/>
</linearGradient>
<linearGradient id="paint18_linear_1_203" x1="6.9578" y1="9.90059" x2="8.3033" y2="11.3972" gradientUnits="userSpaceOnUse">
<stop stop-color="#F0DB92"/>
<stop offset="1" stop-color="#BF9033"/>
</linearGradient>
</defs>
</svg>
