<svg width="265" height="200" viewBox="0 0 265 200" fill="none" xmlns="http://www.w3.org/2000/svg">
<path d="M23.4442 0.267975H240.734C243.129 0.267975 245.425 1.21918 247.118 2.91233C248.811 4.60549 249.762 6.9019 249.762 9.29638V186.35C249.762 189.789 248.396 193.087 245.965 195.518C243.533 197.95 240.236 199.316 236.797 199.316H28.3191C24.8804 199.316 21.5826 197.95 19.1511 195.518C16.7196 193.087 15.3536 189.789 15.3536 186.35V8.3585C15.3536 6.21276 16.206 4.1549 17.7233 2.63763C19.2406 1.12036 21.2984 0.267975 23.4442 0.267975Z" fill="white"/>
<path d="M21.7333 0.267975H242.115C244.056 0.267975 245.917 1.03893 247.289 2.41123C248.662 3.78354 249.433 5.64479 249.433 7.58552V24.2304H15.3536V6.64764C15.3536 4.95565 16.0258 3.33295 17.2222 2.13653C18.4186 0.940114 20.0413 0.267975 21.7333 0.267975Z" fill="#E0E0E0"/>
<path d="M249.432 24.2304C249.432 24.3747 197.107 24.4984 132.568 24.4984C68.0293 24.4984 15.6831 24.3747 15.6831 24.2304C15.6831 24.0861 67.9984 23.9625 132.568 23.9625C197.138 23.9625 249.432 24.0758 249.432 24.2304Z" fill="#263238"/>
<path d="M28.1443 12.7696C28.1443 13.2078 28.0143 13.6363 27.7708 14.0007C27.5274 14.3651 27.1813 14.6491 26.7764 14.8168C26.3715 14.9845 25.926 15.0284 25.4961 14.9429C25.0663 14.8574 24.6714 14.6463 24.3615 14.3364C24.0516 14.0265 23.8406 13.6317 23.7551 13.2019C23.6696 12.772 23.7135 12.3265 23.8812 11.9216C24.0489 11.5167 24.3329 11.1706 24.6973 10.9271C25.0617 10.6837 25.4901 10.5537 25.9284 10.5537C26.2198 10.5523 26.5085 10.6087 26.778 10.7196C27.0475 10.8305 27.2923 10.9936 27.4983 11.1997C27.7044 11.4057 27.8675 11.6505 27.9784 11.92C28.0893 12.1895 28.1457 12.4782 28.1443 12.7696Z" fill="#263238"/>
<path d="M35.1936 12.7696C35.1936 13.2083 35.0634 13.6371 34.8194 14.0017C34.5755 14.3663 34.2288 14.6503 33.8233 14.8177C33.4178 14.9852 32.9717 15.0284 32.5416 14.9421C32.1115 14.8558 31.7167 14.6437 31.4072 14.3328C31.0977 14.0218 30.8875 13.626 30.8032 13.1955C30.7188 12.765 30.7642 12.3191 30.9335 11.9144C31.1028 11.5097 31.3884 11.1644 31.7542 10.9221C32.1199 10.6799 32.5493 10.5517 32.988 10.5537C33.2785 10.5537 33.5662 10.6111 33.8344 10.7226C34.1027 10.8341 34.3463 10.9974 34.5513 11.2033C34.7562 11.4092 34.9184 11.6536 35.0287 11.9224C35.1389 12.1912 35.195 12.4791 35.1936 12.7696Z" fill="#263238"/>
<path d="M42.3871 12.7696C42.3871 13.2078 42.2571 13.6363 42.0136 14.0007C41.7702 14.3651 41.4241 14.6491 41.0192 14.8168C40.6143 14.9845 40.1687 15.0284 39.7389 14.9429C39.3091 14.8574 38.9142 14.6463 38.6043 14.3364C38.2944 14.0265 38.0834 13.6317 37.9979 13.2019C37.9124 12.772 37.9563 12.3265 38.124 11.9216C38.2917 11.5167 38.5757 11.1706 38.9401 10.9271C39.3045 10.6837 39.7329 10.5537 40.1712 10.5537C40.4626 10.5523 40.7513 10.6087 41.0208 10.7196C41.2902 10.8305 41.5351 10.9936 41.7411 11.1997C41.9471 11.4057 42.1103 11.6505 42.2212 11.92C42.332 12.1895 42.3884 12.4782 42.3871 12.7696Z" fill="#263238"/>
<path d="M171.413 42.0604C171.413 42.2047 154.511 42.3284 133.661 42.3284C112.811 42.3284 95.9084 42.2047 95.9084 42.0604C95.9084 41.9161 112.811 41.7924 133.661 41.7924C154.511 41.7924 171.413 41.947 171.413 42.0604Z" fill="#263238"/>
<path d="M136.423 58.0148C136.423 58.1694 116.192 58.2827 91.2504 58.2827C66.3089 58.2827 46.0774 58.1694 46.0774 58.0148C46.0774 57.8602 66.2986 57.7468 91.2504 57.7468C116.202 57.7468 136.423 57.8705 136.423 58.0148Z" fill="#263238"/>
<path d="M136.423 66.5588C136.423 66.7134 116.192 66.8268 91.2504 66.8268C66.3089 66.8268 46.0774 66.7134 46.0774 66.5588C46.0774 66.4042 66.2986 66.2909 91.2504 66.2909C116.202 66.2909 136.423 66.4145 136.423 66.5588Z" fill="#263238"/>
<path d="M136.423 75.1027C136.423 75.2573 116.192 75.381 91.2504 75.381C66.3089 75.381 46.0774 75.2573 46.0774 75.1027C46.0774 74.9481 66.2986 74.8347 91.2504 74.8347C116.202 74.8347 136.423 74.9584 136.423 75.1027Z" fill="#263238"/>
<path d="M136.423 83.6571C136.423 83.8014 116.192 83.925 91.2504 83.925C66.3089 83.925 46.0774 83.8014 46.0774 83.6571C46.0774 83.5128 66.2986 83.3788 91.2504 83.3788C116.202 83.3788 136.423 83.5025 136.423 83.6571Z" fill="#263238"/>
<path d="M136.423 92.2011C136.423 92.3454 116.192 92.4691 91.2504 92.4691C66.3089 92.4691 46.0774 92.3454 46.0774 92.2011C46.0774 92.0568 66.2986 91.9229 91.2504 91.9229C116.202 91.9229 136.423 92.0465 136.423 92.2011Z" fill="#263238"/>
<path d="M136.423 115.937C136.423 116.091 116.192 116.205 91.2504 116.205C66.3089 116.205 46.0774 116.091 46.0774 115.937C46.0774 115.782 66.2986 115.669 91.2504 115.669C116.202 115.669 136.423 115.792 136.423 115.937Z" fill="#263238"/>
<path d="M136.423 107.331C136.423 107.485 116.192 107.599 91.2504 107.599C66.3089 107.599 46.0774 107.485 46.0774 107.331C46.0774 107.176 66.2986 107.063 91.2504 107.063C116.202 107.063 136.423 107.186 136.423 107.331Z" fill="#263238"/>
<path d="M194.221 56.273C189.393 56.2709 184.673 57.7008 180.658 60.3817C176.643 63.0627 173.513 66.8742 171.665 71.3341C169.816 75.7941 169.332 80.7021 170.273 85.4373C171.215 90.1724 173.539 94.522 176.953 97.9358C180.367 101.35 184.716 103.674 189.452 104.616C194.187 105.557 199.095 105.073 203.555 103.224C208.015 101.376 211.826 98.2461 214.507 94.2311C217.188 90.216 218.618 85.4961 218.616 80.6682C218.613 74.199 216.042 67.9956 211.468 63.4212C206.893 58.8468 200.69 56.2757 194.221 56.273ZM194.592 95.293C191.625 95.295 188.725 94.4173 186.258 92.7708C183.79 91.1242 181.867 88.7829 180.73 86.043C179.593 83.303 179.295 80.2876 179.872 77.378C180.45 74.4684 181.877 71.7954 183.974 69.6972C186.071 67.599 188.743 66.1697 191.652 65.5903C194.561 65.0108 197.577 65.3072 200.318 66.4419C203.058 67.5766 205.401 69.4986 207.049 71.9649C208.697 74.4311 209.577 77.3309 209.577 80.2972C209.579 82.2651 209.192 84.214 208.44 86.0327C207.689 87.8513 206.586 89.5041 205.195 90.8966C203.805 92.289 202.154 93.394 200.336 94.1483C198.518 94.9027 196.57 95.2916 194.602 95.293H194.592Z" fill="#E6A371"/>
<path d="M179.596 80.2973C179.596 77.4014 180.436 74.5676 182.012 72.1386C183.589 69.7096 185.836 67.7894 188.481 66.6104L184.729 58.1797C180.318 60.0554 176.556 63.1881 173.913 67.1872C171.271 71.1863 169.863 75.8748 169.867 80.6683C169.867 81.005 169.867 81.3485 169.867 81.6989H179.689C179.627 81.2248 179.596 80.7714 179.596 80.2973Z" fill="#E0E0E0"/>
<path d="M214.411 111.227C214.411 111.35 205.373 111.453 194.221 111.453C183.07 111.453 174.031 111.35 174.031 111.227C174.031 111.103 183.07 110.99 194.221 110.99C205.373 110.99 214.411 111.113 214.411 111.227Z" fill="#263238"/>
<path d="M205.413 114.937C205.413 115.061 200.404 115.164 194.221 115.164C188.037 115.164 183.018 115.061 183.018 114.937C183.018 114.813 188.037 114.7 194.221 114.7C200.404 114.7 205.413 114.803 205.413 114.937Z" fill="#263238"/>
<path d="M192.459 77.1023V78.1329L190.48 82.7605H188.748L190.645 78.4009H189.161V79.2666H187.8V77.1023H192.459Z" fill="#263238"/>
<path d="M197.251 80.9568C197.251 81.9875 196.499 82.8738 194.798 82.8738C194.038 82.8904 193.286 82.7017 192.624 82.3276L193.191 81.1217C193.652 81.4279 194.193 81.5927 194.747 81.5958C195.293 81.5958 195.654 81.3794 195.654 80.9981C195.654 80.6167 195.417 80.4312 194.561 80.4312H193.036L193.314 77.1435H196.891V78.3699H194.603L194.53 79.1944H194.902C196.602 79.1635 197.251 79.9571 197.251 80.9568Z" fill="#263238"/>
<path d="M197.529 78.6276C197.551 78.3477 197.655 78.0803 197.827 77.8582C197.998 77.6361 198.231 77.4689 198.497 77.3772C198.762 77.2855 199.048 77.2732 199.321 77.3419C199.593 77.4105 199.839 77.5571 200.029 77.7637C200.22 77.9703 200.345 78.2279 200.391 78.5049C200.437 78.782 200.401 79.0664 200.288 79.3233C200.175 79.5802 199.989 79.7985 199.753 79.9513C199.518 80.1042 199.243 80.185 198.962 80.1839C198.762 80.1878 198.564 80.1493 198.38 80.0708C198.196 79.9923 198.031 79.8756 197.895 79.7284C197.76 79.5813 197.657 79.4071 197.594 79.2173C197.531 79.0275 197.509 78.8265 197.529 78.6276ZM202.291 77.1435H203.445L199.601 82.7605H198.447L202.291 77.1435ZM199.436 78.6276C199.436 78.0607 199.24 77.834 198.962 77.834C198.684 77.834 198.488 78.0607 198.488 78.6276C198.488 79.1944 198.704 79.4212 198.962 79.4212C199.22 79.4212 199.436 79.1635 199.436 78.6276ZM201.497 81.2763C201.519 80.9964 201.623 80.729 201.794 80.5069C201.966 80.2848 202.199 80.1176 202.465 80.0259C202.73 79.9342 203.016 79.922 203.289 79.9906C203.561 80.0593 203.807 80.2059 203.997 80.4125C204.188 80.6191 204.313 80.8767 204.359 81.1537C204.405 81.4307 204.369 81.7151 204.256 81.972C204.143 82.2289 203.957 82.4472 203.721 82.6001C203.486 82.7529 203.211 82.8337 202.93 82.8326C202.73 82.8366 202.532 82.798 202.348 82.7195C202.164 82.641 201.999 82.5243 201.863 82.3772C201.728 82.2301 201.625 82.0558 201.562 81.8661C201.499 81.6763 201.477 81.4753 201.497 81.2763ZM203.404 81.2763C203.404 80.7095 203.198 80.4827 202.93 80.4827C202.662 80.4827 202.456 80.7095 202.456 81.2763C202.456 81.8432 202.662 82.0699 202.93 82.0699C203.198 82.0699 203.404 81.8535 203.404 81.2763Z" fill="#263238"/>
<path d="M62.7629 165.356H55.7958V181.403H62.7629V165.356Z" fill="#EBEBEB"/>
<path d="M86.3956 165.356H79.4285V181.403H86.3956V165.356Z" fill="#EBEBEB"/>
<path d="M74.5841 150.741H67.6169V181.403H74.5841V150.741Z" fill="#F5F5F5"/>
<path d="M98.2168 150.741H91.2496V181.403H98.2168V150.741Z" fill="#F5F5F5"/>
<path d="M110.028 151.618H103.061V181.403H110.028V151.618Z" fill="#EBEBEB"/>
<path d="M133.661 151.618H126.694V181.403H133.661V151.618Z" fill="#EBEBEB"/>
<path d="M157.293 151.618H150.326V181.403H157.293V151.618Z" fill="#EBEBEB"/>
<path d="M121.849 135.993H114.882V181.413H121.849V135.993Z" fill="#F5F5F5"/>
<path d="M145.482 140.435H138.515V181.403H145.482V140.435Z" fill="#F5F5F5"/>
<path d="M192.202 151.618H185.234V181.403H192.202V151.618Z" fill="#EBEBEB"/>
<path d="M180.39 157.337H173.423V181.403H180.39V157.337Z" fill="#F5F5F5"/>
<path d="M216.916 135.725H209.949V181.403H216.916V135.725Z" fill="#EBEBEB"/>
<path d="M205.104 157.337H198.137V181.403H205.104V157.337Z" fill="#F5F5F5"/>
<path d="M228.748 157.337H221.781V181.403H228.748V157.337Z" fill="#F5F5F5"/>
<path d="M169.115 146.712H162.147V181.403H169.115V146.712Z" fill="#EBEBEB"/>
<path d="M117.789 137.786C118.78 137.786 119.583 136.983 119.583 135.993C119.583 135.002 118.78 134.2 117.789 134.2C116.799 134.2 115.996 135.002 115.996 135.993C115.996 136.983 116.799 137.786 117.789 137.786Z" fill="#E6A371"/>
<path d="M117.789 139.24C117.145 139.24 116.514 139.048 115.979 138.69C115.443 138.332 115.025 137.822 114.779 137.227C114.533 136.631 114.469 135.976 114.596 135.344C114.722 134.712 115.033 134.131 115.49 133.676C115.946 133.221 116.528 132.912 117.16 132.787C117.793 132.663 118.448 132.729 119.043 132.977C119.638 133.225 120.145 133.644 120.502 134.181C120.859 134.718 121.048 135.349 121.046 135.993C121.043 136.855 120.699 137.681 120.088 138.289C119.478 138.898 118.651 139.24 117.789 139.24ZM117.789 132.994C117.196 132.992 116.615 133.166 116.12 133.494C115.626 133.823 115.24 134.29 115.011 134.838C114.782 135.386 114.722 135.989 114.836 136.572C114.951 137.154 115.235 137.69 115.654 138.11C116.073 138.531 116.608 138.817 117.19 138.934C117.772 139.05 118.376 138.992 118.924 138.765C119.473 138.538 119.942 138.154 120.272 137.66C120.602 137.167 120.778 136.587 120.778 135.993C120.778 135.199 120.463 134.438 119.903 133.876C119.343 133.314 118.583 132.997 117.789 132.994Z" fill="#E6A371"/>
<path d="M119.222 131.417L119.129 127.892L120.005 127.913L118.366 125.903L116.717 127.923L117.624 127.933L117.717 131.417H119.222Z" fill="#EBEBEB"/>
<path d="M61.2583 158.018C61.2583 158.372 61.1531 158.719 60.956 159.014C60.759 159.309 60.4789 159.539 60.1512 159.674C59.8235 159.81 59.463 159.846 59.1151 159.777C58.7672 159.707 58.4477 159.537 58.1969 159.286C57.9461 159.035 57.7753 158.715 57.7061 158.368C57.6369 158.02 57.6724 157.659 57.8081 157.331C57.9439 157.004 58.1737 156.724 58.4686 156.527C58.7636 156.33 59.1103 156.224 59.465 156.224C59.9406 156.224 60.3967 156.413 60.733 156.75C61.0693 157.086 61.2583 157.542 61.2583 158.018Z" fill="#E6A371"/>
<path d="M59.4648 161.337C58.8202 161.337 58.1902 161.145 57.6544 160.787C57.1186 160.429 56.7011 159.919 56.4549 159.324C56.2087 158.728 56.1448 158.073 56.2713 157.441C56.3978 156.808 56.7091 156.228 57.1656 155.773C57.6221 155.318 58.2034 155.009 58.8358 154.884C59.4682 154.76 60.1234 154.826 60.7183 155.074C61.3132 155.322 61.8212 155.741 62.1778 156.278C62.5344 156.815 62.7237 157.445 62.7216 158.09C62.7216 158.517 62.6373 158.94 62.4735 159.335C62.3097 159.729 62.0697 160.088 61.7671 160.389C61.4646 160.691 61.1055 160.93 60.7104 161.092C60.3153 161.255 59.892 161.338 59.4648 161.337ZM59.4648 155.091C58.8716 155.091 58.2918 155.267 57.7986 155.596C57.3054 155.926 56.921 156.394 56.694 156.942C56.467 157.49 56.4076 158.093 56.5233 158.675C56.639 159.257 56.9247 159.791 57.3441 160.211C57.7635 160.63 58.2979 160.916 58.8797 161.032C59.4615 161.147 60.0645 161.088 60.6125 160.861C61.1606 160.634 61.629 160.249 61.9585 159.756C62.2881 159.263 62.464 158.683 62.464 158.09C62.4653 157.696 62.3887 157.305 62.2385 156.941C62.0882 156.576 61.8674 156.245 61.5886 155.966C61.3098 155.687 60.9786 155.467 60.6142 155.316C60.2497 155.166 59.8591 155.089 59.4648 155.091Z" fill="#E6A371"/>
<path d="M58.3929 146.908L58.4856 150.577L57.5684 150.566L59.2792 152.648L60.9901 150.546L60.0419 150.535L59.9492 146.918L58.3929 146.908Z" fill="#EBEBEB"/>
<path d="M153.182 139.24L153.274 142.909L152.357 142.898L154.068 144.98L155.779 142.878L154.831 142.867L154.738 139.25L153.182 139.24Z" fill="#EBEBEB"/>
<path d="M174.752 171.725L153.779 152.05C140.483 145.629 119.963 136.178 117.572 136.302C114.892 136.467 63.9788 156.523 44.6337 164.243L44.2523 163.284C47.1072 162.151 114.109 135.457 117.51 135.282H117.582C121.303 135.282 150.903 149.535 154.294 151.164L154.417 151.257L174.917 170.478C178.813 168.417 201.105 156.657 201.487 156.492C201.621 156.43 201.971 156.286 232.633 156.286V157.317C220.863 157.317 203.187 157.317 201.848 157.461C200.683 158.049 183.956 166.871 175.051 171.56L174.752 171.725Z" fill="#E6A371"/>
<path d="M155.861 151.185C155.861 151.539 155.756 151.886 155.559 152.181C155.362 152.476 155.081 152.706 154.754 152.841C154.426 152.977 154.065 153.013 153.718 152.943C153.37 152.874 153.05 152.703 152.799 152.453C152.549 152.202 152.378 151.882 152.309 151.534C152.239 151.187 152.275 150.826 152.411 150.498C152.546 150.171 152.776 149.891 153.071 149.693C153.366 149.496 153.713 149.391 154.067 149.391C154.303 149.391 154.536 149.438 154.754 149.528C154.971 149.618 155.169 149.75 155.336 149.916C155.502 150.083 155.634 150.281 155.724 150.498C155.814 150.716 155.861 150.949 155.861 151.185Z" fill="#E6A371"/>
<path d="M154.067 154.503C153.423 154.503 152.794 154.312 152.258 153.954C151.722 153.597 151.305 153.088 151.058 152.493C150.812 151.898 150.747 151.243 150.873 150.611C150.999 149.979 151.309 149.399 151.764 148.944C152.22 148.488 152.8 148.178 153.432 148.052C154.064 147.927 154.719 147.991 155.314 148.238C155.909 148.484 156.417 148.902 156.775 149.437C157.133 149.973 157.324 150.602 157.324 151.247C157.321 152.109 156.977 152.936 156.367 153.546C155.757 154.157 154.93 154.501 154.067 154.503ZM154.067 148.258C153.476 148.258 152.898 148.433 152.407 148.761C151.915 149.09 151.532 149.557 151.306 150.103C151.08 150.649 151.021 151.25 151.136 151.83C151.251 152.409 151.536 152.942 151.954 153.36C152.372 153.778 152.905 154.063 153.484 154.178C154.064 154.293 154.665 154.234 155.211 154.008C155.757 153.782 156.224 153.399 156.553 152.907C156.881 152.416 157.056 151.838 157.056 151.247C157.062 150.851 156.988 150.457 156.841 150.09C156.693 149.723 156.474 149.388 156.196 149.106C155.917 148.824 155.586 148.601 155.221 148.448C154.855 148.295 154.463 148.216 154.067 148.216V148.258Z" fill="#E6A371"/>
<path d="M203.487 156.523C203.487 156.878 203.382 157.225 203.185 157.52C202.987 157.815 202.707 158.044 202.38 158.18C202.052 158.316 201.691 158.351 201.344 158.282C200.996 158.213 200.676 158.042 200.425 157.791C200.175 157.541 200.004 157.221 199.935 156.873C199.865 156.525 199.901 156.165 200.037 155.837C200.172 155.509 200.402 155.229 200.697 155.032C200.992 154.835 201.339 154.73 201.693 154.73C201.929 154.73 202.162 154.776 202.38 154.867C202.597 154.957 202.795 155.089 202.962 155.255C203.128 155.422 203.26 155.62 203.35 155.837C203.44 156.055 203.487 156.288 203.487 156.523Z" fill="#E6A371"/>
<path d="M201.693 159.842C201.049 159.842 200.42 159.651 199.884 159.293C199.348 158.935 198.931 158.427 198.684 157.831C198.438 157.236 198.373 156.582 198.499 155.95C198.625 155.318 198.935 154.738 199.39 154.282C199.846 153.827 200.426 153.517 201.058 153.391C201.69 153.265 202.345 153.33 202.94 153.576C203.535 153.823 204.043 154.24 204.401 154.776C204.759 155.311 204.95 155.941 204.95 156.585C204.947 157.448 204.603 158.275 203.993 158.885C203.383 159.495 202.556 159.839 201.693 159.842ZM201.693 153.596C201.099 153.594 200.518 153.769 200.023 154.097C199.528 154.426 199.142 154.894 198.914 155.443C198.686 155.991 198.626 156.595 198.741 157.178C198.856 157.761 199.142 158.296 199.562 158.716C199.982 159.136 200.518 159.422 201.1 159.537C201.683 159.653 202.287 159.593 202.836 159.364C203.384 159.136 203.852 158.75 204.181 158.255C204.51 157.76 204.684 157.179 204.682 156.585C204.682 155.792 204.367 155.032 203.807 154.472C203.246 153.911 202.486 153.596 201.693 153.596Z" fill="#E6A371"/>
<path d="M200.725 145.877L200.828 149.546L199.911 149.525L201.622 151.618L203.332 149.505H202.384L202.281 145.887L200.725 145.877Z" fill="#EBEBEB"/>
<path d="M237.385 199.285H237.931H238.621L239.559 199.14C240.441 198.971 241.304 198.716 242.136 198.378C243.276 197.883 244.341 197.231 245.3 196.44C246.506 195.423 247.507 194.185 248.248 192.792C249.127 191.105 249.613 189.241 249.67 187.34C249.67 183.217 249.67 178.424 249.67 173.055C249.67 151.556 249.618 120.492 249.587 82.039C249.587 62.8278 249.587 41.7822 249.587 19.1699C249.587 16.346 249.587 13.4911 249.587 10.6259C249.69 9.20771 249.572 7.78217 249.237 6.40028C248.825 5.03984 248.065 3.81061 247.031 2.83426C246.006 1.82673 244.728 1.1146 243.331 0.772979C241.896 0.523456 240.437 0.440458 238.982 0.525628H192.84H27.5565C25.7323 0.525628 23.8668 0.525628 22.0941 0.525628C20.3262 0.708405 18.688 1.53734 17.4936 2.85349C16.2991 4.16963 15.6326 5.88037 15.6217 7.65766V34.7223C15.6217 49.0001 15.6217 63.058 15.6217 76.8961C15.6217 104.538 15.6217 131.211 15.6217 156.616C15.6217 162.972 15.6217 169.245 15.6217 175.436V184.65C15.5477 186.154 15.6202 187.663 15.8381 189.153C16.2513 191.333 17.2521 193.359 18.7324 195.012C20.2127 196.665 22.1164 197.882 24.2378 198.532C25.6362 198.938 27.091 199.116 28.5459 199.058H50.1894H113.058L204.074 199.14L228.81 199.192H235.241C236.694 199.192 237.436 199.192 237.436 199.192H235.241H228.81H204.074L113.058 199.285H50.1894H28.5459C27.0457 199.338 25.5464 199.154 24.1039 198.738C21.9001 198.067 19.9219 196.805 18.3833 195.09C16.8446 193.375 15.8042 191.273 15.3743 189.009C15.1498 187.488 15.0739 185.948 15.1476 184.412C15.1476 181.321 15.1476 178.29 15.1476 175.199V156.616C15.1476 131.211 15.1476 104.538 15.1476 76.8961V7.70919C15.1644 5.80182 15.8812 3.96705 17.1618 2.55343C18.4424 1.1398 20.1977 0.245791 22.0941 0.0412256C23.9802 -0.051532 25.7735 0.0412256 27.6183 0.0412256H192.902H241.208C241.965 0.0351506 242.719 0.12168 243.455 0.298886C244.923 0.657244 246.27 1.39673 247.361 2.44262C248.445 3.48182 249.247 4.78 249.69 6.21476C250.029 7.64161 250.15 9.1113 250.051 10.5744V19.1184C250.051 41.71 250.051 62.7557 250.051 81.9874C250.051 120.41 249.979 151.504 249.958 173.003C249.958 178.373 249.958 183.155 249.958 187.288C249.911 189.048 249.489 190.778 248.719 192.361C247.949 193.945 246.85 195.346 245.496 196.471C244.528 197.262 243.452 197.911 242.301 198.398C241.464 198.736 240.593 198.985 239.704 199.14L238.755 199.274H238.065L237.385 199.285Z" fill="#263238"/>
<path d="M261.639 104.02C263.007 98.1962 259.395 92.366 253.571 90.9978C247.748 89.6297 241.917 93.2418 240.549 99.0656C239.181 104.889 242.793 110.72 248.617 112.088C254.441 113.456 260.271 109.844 261.639 104.02Z" fill="#F5F5F5"/>
<path d="M240.281 101.549C240.369 102.43 240.514 103.304 240.714 104.167C241.088 105.607 241.76 106.952 242.686 108.117C243.612 109.282 244.771 110.24 246.089 110.93C247.407 111.62 248.855 112.027 250.34 112.124C251.824 112.221 253.313 112.007 254.71 111.495C256.68 110.778 258.391 109.489 259.626 107.795C260.958 105.985 261.677 103.796 261.677 101.549C261.677 99.3016 260.958 97.113 259.626 95.3033C259.007 94.4385 258.251 93.6797 257.389 93.0565C256.579 92.4352 255.674 91.948 254.71 91.6136C253.046 91.0009 251.256 90.8147 249.503 91.0722C247.749 91.3297 246.088 92.0225 244.671 93.0874C242.737 94.5389 241.343 96.596 240.714 98.9312C240.516 99.7941 240.371 100.668 240.281 101.549C240.21 100.652 240.29 99.75 240.518 98.8796C241.078 96.4568 242.462 94.3037 244.434 92.7886C245.898 91.6589 247.623 90.9165 249.449 90.63C251.276 90.3436 253.146 90.5224 254.885 91.1498C255.894 91.4991 256.844 92.0033 257.698 92.6443C258.598 93.3018 259.391 94.0944 260.048 94.9941C261.453 96.8927 262.212 99.1922 262.212 101.554C262.212 103.916 261.453 106.216 260.048 108.114C259.391 109.014 258.598 109.807 257.698 110.464C256.841 111.101 255.893 111.605 254.885 111.958C253.023 112.629 251.015 112.786 249.072 112.412C247.01 112.011 245.108 111.025 243.591 109.572C242.074 108.119 241.007 106.261 240.518 104.218C240.29 103.348 240.21 102.446 240.281 101.549Z" fill="#263238"/>
<path d="M249.463 104.62C249.358 104.618 249.255 104.583 249.17 104.52C249.085 104.457 249.022 104.37 248.988 104.27C248.954 104.17 248.952 104.062 248.982 103.96C249.012 103.859 249.072 103.769 249.154 103.703L251.937 101.528L249.123 99.4054C249.015 99.3218 248.945 99.199 248.928 99.0638C248.91 98.9286 248.947 98.792 249.03 98.6839C249.071 98.6298 249.122 98.5842 249.18 98.5497C249.238 98.5152 249.303 98.4925 249.37 98.483C249.437 98.4734 249.505 98.4771 249.571 98.4939C249.636 98.5107 249.698 98.5402 249.752 98.5808L253.091 101.116C253.154 101.163 253.205 101.224 253.241 101.293C253.276 101.363 253.296 101.44 253.297 101.518C253.298 101.597 253.28 101.675 253.246 101.747C253.213 101.818 253.163 101.881 253.101 101.93L249.783 104.517C249.691 104.586 249.578 104.623 249.463 104.62Z" fill="#263238"/>
<path d="M24.1394 104.679C25.5075 98.855 21.8954 93.0248 16.0716 91.6567C10.2478 90.2885 4.41756 93.9006 3.04945 99.7244C1.68134 105.548 5.29341 111.378 11.1172 112.747C16.9411 114.115 22.7713 110.503 24.1394 104.679Z" fill="#F5F5F5"/>
<path d="M24.4337 102.209C24.3374 101.328 24.1894 100.454 23.9905 99.5908C23.3658 97.2533 21.9716 95.1946 20.0328 93.7471C18.7166 92.7516 17.1841 92.0807 15.5599 91.7889C13.6956 91.4478 11.7741 91.6114 9.99441 92.263C9.03433 92.6078 8.13115 93.0942 7.31475 93.7059C6.45816 94.336 5.70679 95.0978 5.08857 95.963C3.75594 97.7727 3.03709 99.9612 3.03709 102.209C3.03709 104.456 3.75594 106.645 5.08857 108.454C5.70697 109.316 6.45839 110.075 7.31475 110.701C8.12628 111.32 9.03068 111.807 9.99441 112.144C11.7732 112.799 13.6947 112.966 15.5599 112.628C17.1841 112.337 18.7166 111.666 20.0328 110.67C21.9675 109.219 23.3607 107.162 23.9905 104.826C24.1875 103.963 24.3355 103.089 24.4337 102.209C24.4973 103.105 24.4173 104.007 24.1966 104.878C23.7102 106.921 22.6442 108.78 21.1267 110.232C19.6092 111.683 17.7048 112.666 15.6423 113.061C13.6967 113.439 11.6853 113.286 9.81921 112.618C7.76 111.868 5.96762 110.527 4.666 108.764C3.25475 106.868 2.49255 104.567 2.49255 102.203C2.49255 99.8399 3.25475 97.5394 4.666 95.6435C5.31799 94.739 6.11144 93.9456 7.01586 93.2936C7.8693 92.6565 8.81452 92.1526 9.81921 91.7992C11.6855 91.1333 13.6955 90.9768 15.6423 91.3457C17.3242 91.6633 18.9088 92.3691 20.2699 93.407C22.2425 94.9234 23.6298 97.0754 24.1966 99.498C24.4217 100.383 24.5018 101.298 24.4337 102.209Z" fill="#263238"/>
<path d="M15.2711 105.28C15.1592 105.282 15.0499 105.246 14.9619 105.177L11.6123 102.642C11.5497 102.595 11.4985 102.534 11.4628 102.464C11.4271 102.395 11.4077 102.318 11.4062 102.24C11.4053 102.159 11.4236 102.08 11.4595 102.009C11.4953 101.937 11.5477 101.875 11.6123 101.827L14.9206 99.2404C14.9736 99.1941 15.0354 99.1591 15.1024 99.1375C15.1694 99.116 15.24 99.1084 15.31 99.1152C15.3801 99.122 15.448 99.1431 15.5095 99.1771C15.5711 99.2112 15.625 99.2575 15.668 99.3132C15.711 99.3688 15.7421 99.4327 15.7595 99.5009C15.7769 99.5691 15.7801 99.6401 15.769 99.7095C15.7578 99.779 15.7326 99.8455 15.6948 99.9048C15.6571 99.9642 15.6076 100.015 15.5493 100.055L12.7666 102.229L15.5803 104.352C15.6668 104.417 15.7307 104.508 15.7629 104.611C15.7952 104.714 15.7941 104.825 15.7599 104.928C15.7257 105.03 15.6601 105.119 15.5724 105.183C15.4846 105.246 15.3792 105.28 15.2711 105.28Z" fill="#263238"/>
</svg>
