<svg width="51" height="52" viewBox="0 0 51 52" fill="none" xmlns="http://www.w3.org/2000/svg">
<path d="M2.81069 0.0880017H48.3367C49.5244 0.0880017 50.4871 1.05078 50.4871 2.23843V49.7372C50.4871 50.9248 49.5244 51.8876 48.3367 51.8876H2.81069C1.62305 51.8876 0.660267 50.9248 0.660267 49.7372V2.23843C0.660267 1.05078 1.62305 0.0880017 2.81069 0.0880017Z" stroke="black" stroke-width="0.176003"/>
<path d="M26.0313 11.7235C23.2968 11.7235 20.6236 12.5344 18.3499 14.0537C16.0762 15.5729 14.304 17.7323 13.2575 20.2587C12.2111 22.7851 11.9373 25.5651 12.4708 28.2471C13.0042 30.9292 14.3211 33.3928 16.2547 35.3264C18.1883 37.26 20.6519 38.5769 23.334 39.1103C26.016 39.6438 28.796 39.37 31.3224 38.3236C33.8488 37.2771 36.0082 35.5049 37.5274 33.2312C39.0467 30.9575 39.8576 28.2843 39.8576 25.5498C39.8576 21.8828 38.4009 18.3661 35.808 15.7731C33.215 13.1802 29.6983 11.7235 26.0313 11.7235ZM26.2405 33.8365C24.5635 33.8365 22.9242 33.3392 21.5299 32.4075C20.1355 31.4758 19.0487 30.1516 18.407 28.6023C17.7653 27.053 17.5973 25.3482 17.9245 23.7034C18.2517 22.0587 19.0592 20.5479 20.245 19.3621C21.4308 18.1763 22.9416 17.3688 24.5863 17.0416C26.2311 16.7144 27.9359 16.8824 29.4852 17.5241C31.0345 18.1658 32.3587 19.2526 33.2904 20.647C34.2221 22.0413 34.7194 23.6806 34.7194 25.3576C34.7194 27.6063 33.8261 29.763 32.236 31.3531C30.6459 32.9432 28.4892 33.8365 26.2405 33.8365Z" fill="#C4C4C4"/>
<path d="M26.2412 11.7291V16.8504C27.5797 16.8445 28.9005 17.1555 30.0957 17.758C31.2908 18.3606 32.3264 19.2375 33.1176 20.317C33.9088 21.3966 34.4332 22.6482 34.6479 23.9693C34.8625 25.2904 34.7614 26.6436 34.3527 27.9182L39.3609 29.2748C39.9284 27.2389 40.0212 25.1 39.6323 23.0226C39.2433 20.9452 38.3829 18.9848 37.1173 17.2922C35.8516 15.5996 34.2145 14.2199 32.3319 13.2594C30.4493 12.2989 28.3714 11.7831 26.2582 11.7517L26.2412 11.7291Z" fill="#FAFAFA"/>
<path d="M17.7446 25.3405C17.7433 23.699 18.2185 22.0925 19.1125 20.7158C20.0065 19.3392 21.2809 18.2516 22.781 17.5852L20.6557 12.8087C18.1449 13.8617 16.001 15.6325 14.4926 17.8991C12.9842 20.1656 12.1786 22.8271 12.1768 25.5497C12.1768 25.7475 12.1768 25.9397 12.1768 26.1149H17.7389C17.7615 25.8719 17.7446 25.6062 17.7446 25.3405Z" fill="#DBDBDB"/>
<path d="M26.2409 33.8364C25.6367 33.8361 25.0341 33.7716 24.4434 33.6442C24.2286 34.8764 23.8273 37.2618 23.5107 39.1441C24.3421 39.2992 25.1861 39.3768 26.0318 39.3759C29.0491 39.3762 31.9836 38.389 34.3873 36.565C36.7909 34.7411 38.5316 32.1807 39.3437 29.2747L34.3524 27.9181C33.807 29.6399 32.726 31.1425 31.267 32.2071C29.8079 33.2716 28.0471 33.8424 26.2409 33.8364Z" fill="#DBDBDB"/>
<path d="M24.4031 26.0302H23.8943V26.6916H23.1821V26.0302H21.4863V25.5384L22.9673 23.5487H23.7304L22.3625 25.4141H23.2047V24.8488H23.8943V25.4141H24.4031V26.0302Z" fill="#C4C4C4"/>
<path d="M24.6182 25.1201C24.6182 24.0801 25.1834 23.4922 25.9635 23.4922C26.7435 23.4922 27.3145 24.0574 27.3145 25.1201C27.3145 26.1828 26.7492 26.7424 25.9635 26.7424C25.1778 26.7424 24.6182 26.1546 24.6182 25.1201ZM26.5796 25.1201C26.5796 24.4023 26.3309 24.1083 25.9635 24.1083C25.5961 24.1083 25.353 24.4023 25.353 25.1201C25.353 25.838 25.6074 26.1263 25.9635 26.1263C26.3196 26.1263 26.5796 25.8324 26.5796 25.1201Z" fill="#C4C4C4"/>
<path d="M27.6142 24.3796C27.605 24.272 27.6182 24.1636 27.6531 24.0613C27.688 23.9591 27.7438 23.8652 27.8168 23.7857C27.8899 23.7061 27.9787 23.6426 28.0776 23.5991C28.1765 23.5556 28.2834 23.5332 28.3914 23.5332C28.4994 23.5332 28.6063 23.5556 28.7052 23.5991C28.8041 23.6426 28.8929 23.7061 28.9659 23.7857C29.039 23.8652 29.0948 23.9591 29.1296 24.0613C29.1645 24.1636 29.1778 24.272 29.1686 24.3796C29.1778 24.4872 29.1645 24.5956 29.1296 24.6979C29.0948 24.8001 29.039 24.894 28.9659 24.9736C28.8929 25.0531 28.8041 25.1167 28.7052 25.1601C28.6063 25.2036 28.4994 25.226 28.3914 25.226C28.2834 25.226 28.1765 25.2036 28.0776 25.1601C27.9787 25.1167 27.8899 25.0531 27.8168 24.9736C27.7438 24.894 27.688 24.8001 27.6531 24.6979C27.6182 24.5956 27.605 24.4872 27.6142 24.3796ZM28.7447 24.3796C28.7447 24.0404 28.6147 23.8822 28.4168 23.8822C28.219 23.8822 28.089 24.0461 28.089 24.3796C28.089 24.7131 28.2246 24.877 28.4168 24.877C28.609 24.877 28.6995 24.7131 28.6995 24.3796H28.7447ZM30.2878 23.5487H30.8531L28.7051 26.6915H28.1342L30.2878 23.5487ZM29.7734 25.8606C29.7898 25.7108 29.8493 25.5689 29.9445 25.4521C30.0398 25.3354 30.1669 25.2487 30.3104 25.2027C30.4539 25.1566 30.6077 25.1531 30.7531 25.1925C30.8986 25.232 31.0295 25.3127 31.13 25.425C31.2305 25.5373 31.2964 25.6763 31.3196 25.8252C31.3428 25.9741 31.3224 26.1266 31.2609 26.2641C31.1993 26.4017 31.0992 26.5184 30.9726 26.6003C30.8461 26.6822 30.6986 26.7256 30.5478 26.7254C30.4365 26.7285 30.3257 26.7077 30.223 26.6644C30.1203 26.6211 30.0281 26.5563 29.9526 26.4743C29.8771 26.3924 29.82 26.2952 29.7852 26.1893C29.7504 26.0835 29.7387 25.9714 29.7508 25.8606H29.7734ZM30.904 25.8606C30.904 25.5271 30.774 25.3632 30.5761 25.3632C30.3783 25.3632 30.2483 25.5214 30.2483 25.8606C30.2483 26.1997 30.3839 26.358 30.5761 26.358C30.7683 26.358 30.8531 26.1884 30.8531 25.8606H30.904Z" fill="#C4C4C4"/>
<path d="M37.4727 42.8637C37.4727 42.9371 32.3514 42.9993 26.0318 42.9993C19.7122 42.9993 14.5684 42.9371 14.5684 42.8637C14.5684 42.7902 19.6896 42.7336 26.0092 42.7336C32.3288 42.7336 37.4727 42.7958 37.4727 42.8637Z" fill="#C4C4C4"/>
<path d="M32.3793 44.9664C32.3793 45.0399 29.553 45.0964 26.0315 45.0964C22.5099 45.0964 19.6836 45.0399 19.6836 44.9664C19.6836 44.8929 22.5099 44.8364 26.0315 44.8364C29.553 44.8364 32.3793 44.8929 32.3793 44.9664Z" fill="#C4C4C4"/>
<path d="M5.5574 5.68085C6.25357 5.68085 6.81793 5.11649 6.81793 4.42032C6.81793 3.72415 6.25357 3.15979 5.5574 3.15979C4.86123 3.15979 4.29688 3.72415 4.29688 4.42032C4.29688 5.11649 4.86123 5.68085 5.5574 5.68085Z" fill="#C4C4C4"/>
<path d="M8.80838 5.68085C9.50455 5.68085 10.0689 5.11649 10.0689 4.42032C10.0689 3.72415 9.50455 3.15979 8.80838 3.15979C8.11221 3.15979 7.54785 3.72415 7.54785 4.42032C7.54785 5.11649 8.11221 5.68085 8.80838 5.68085Z" fill="#C4C4C4"/>
<path d="M13.313 4.42033C13.313 4.66964 13.2391 4.91335 13.1006 5.12064C12.9621 5.32794 12.7652 5.4895 12.5349 5.58491C12.3046 5.68031 12.0511 5.70528 11.8066 5.65664C11.5621 5.608 11.3375 5.48795 11.1612 5.31166C10.9849 5.13537 10.8649 4.91077 10.8162 4.66625C10.7676 4.42173 10.7925 4.16828 10.8879 3.93795C10.9834 3.70762 11.1449 3.51075 11.3522 3.37224C11.5595 3.23373 11.8032 3.1598 12.0525 3.1598C12.2183 3.15905 12.3825 3.19115 12.5358 3.25423C12.6891 3.31731 12.8283 3.41013 12.9455 3.52733C13.0627 3.64453 13.1555 3.78379 13.2186 3.93706C13.2817 4.09034 13.3138 4.25459 13.313 4.42033Z" fill="#C4C4C4"/>
</svg>
