<svg width="271" height="14" viewBox="0 0 271 14" fill="none" xmlns="http://www.w3.org/2000/svg">
<path fill-rule="evenodd" clip-rule="evenodd" d="M0 1.97924C0.961631 2.06304 1.91894 2.14668 2.87183 2.22995C4.31889 2.35639 5.75574 2.48195 7.18204 2.60577C53.4358 6.62629 93.3586 10.0772 163.532 6.52485C233.858 2.96653 258.458 0.804667 265.507 0.18519C266.859 0.0664454 267.565 0.0043726 267.825 0L264.102 3.40538L271 5.9686C270.963 5.96796 270.751 5.9886 270.324 6.03018C266.328 6.41915 243.508 8.64035 169.045 12.4098C92.5914 16.2745 47.7346 12.3881 0.249504 8.27403L0.197632 8.26954C0.131774 8.264 0.0658969 8.25845 0 8.25289L5 5.5L0 1.97924Z" fill="url(#paint0_linear_5_5211)"/>
<defs>
<linearGradient id="paint0_linear_5_5211" x1="-53.6988" y1="24.9875" x2="-52.736" y2="-8.02841" gradientUnits="userSpaceOnUse">
<stop stop-color="#F0DB92"/>
<stop offset="1" stop-color="#BF9033"/>
</linearGradient>
</defs>
</svg>
