<svg width="37" height="42" viewBox="0 0 37 42" fill="none" xmlns="http://www.w3.org/2000/svg">
<path d="M34.8105 10.428C34.3122 9.35489 33.7115 8.3255 33.0047 7.34019C31.4479 5.34034 29.6528 3.82753 27.6163 2.80551C25.5797 1.78366 23.2868 1.23796 20.7412 1.17188V1.17549H20.7046C20.5104 1.17549 20.3492 1.20123 20.2283 1.2526C20.1296 1.29294 20.0489 1.35883 19.9791 1.44662H19.9756C19.8805 1.5748 19.8033 1.70667 19.7595 1.84227C19.7117 1.96677 19.69 2.10605 19.69 2.2598C19.69 2.40275 19.7153 2.53462 19.7595 2.65906C19.8108 2.80183 19.8911 2.93749 19.9902 3.062C20.0634 3.15732 20.1663 3.23419 20.2907 3.2928C20.4295 3.35876 20.6019 3.39903 20.7998 3.41362V3.4173C23.3894 3.51245 25.6533 4.15728 27.5943 5.34764C29.5466 6.54168 31.1581 8.28155 32.4292 10.56L32.4404 10.5783C32.9237 11.4977 33.3157 12.4354 33.6197 13.3914C33.9203 14.34 34.1364 15.3216 34.2721 16.3364V16.3437C34.3962 17.3107 34.4883 18.2923 34.5501 19.2886C34.6162 20.2775 34.6452 21.2483 34.6452 22.2042V38.1891V39.0499H33.7847H28.9569H28.0963V38.1891V23.1419C28.0963 22.3764 28.0814 21.6659 28.0559 21.0102C28.0302 20.3398 27.9934 19.6402 27.9385 18.9187C27.8837 18.2556 27.7775 17.6073 27.6203 16.9699C27.4627 16.3253 27.2537 15.6918 27.001 15.069C26.5944 14.1899 26.1036 13.4133 25.5211 12.7358C24.9425 12.0617 24.2755 11.4866 23.5141 11.0104C22.7412 10.538 21.9354 10.1826 21.1002 9.94455C20.2614 9.70658 19.3823 9.58569 18.4627 9.58569C18.1514 9.58569 17.8403 9.60021 17.5286 9.62584C17.2099 9.65158 16.8988 9.69192 16.5983 9.74323C15.6715 9.93725 14.8184 10.234 14.0309 10.6332C13.2506 11.0325 12.5433 11.5306 11.9134 12.1276L10.6494 13.3311V19.1507C10.6668 19.0535 10.6853 18.9566 10.7051 18.8601C10.855 18.1274 11.0711 17.4205 11.3498 16.7319L11.3531 16.7282C11.646 16.0176 12.0269 15.362 12.4961 14.7612C12.9649 14.1641 13.5216 13.6221 14.1626 13.1423L14.1993 13.1129C14.877 12.6587 15.5764 12.3218 16.302 12.0948C17.0344 11.8676 17.789 11.7541 18.5653 11.7541C19.2541 11.7541 19.9319 11.8494 20.5947 12.0434C21.2465 12.2338 21.8764 12.5159 22.4809 12.897L22.5251 12.9262C23.0523 13.3072 23.5104 13.7247 23.8912 14.179V14.1826C24.2833 14.6478 24.5984 15.1531 24.8433 15.699C25.0778 16.2154 25.2684 16.754 25.4148 17.3069C25.5578 17.8748 25.6569 18.4499 25.7082 19.0322H25.7042C25.7555 19.5926 25.7962 20.1421 25.8181 20.6805C25.8469 21.2629 25.8582 21.805 25.8582 22.3068V40.1709C25.8582 40.3102 25.8837 40.4347 25.9349 40.5482C25.9899 40.6763 26.0779 40.8008 26.2024 40.9218V40.9253C26.3162 41.0427 26.4369 41.1267 26.5613 41.178C26.6823 41.2293 26.818 41.2548 26.975 41.2548H35.7662C35.9055 41.2548 36.0337 41.2293 36.1512 41.178C36.2756 41.123 36.4003 41.0386 36.5208 40.9253L36.5172 40.9218C36.6346 40.8043 36.7225 40.6837 36.7735 40.5629C36.8248 40.4455 36.8507 40.3137 36.8507 40.1709V21.0029C36.8507 19.7795 36.7775 18.567 36.6346 17.3692C36.4878 16.1606 36.2715 14.9664 35.9824 13.7906C35.7001 12.6295 35.3081 11.5087 34.8105 10.428Z" fill="#372011"/>
<path d="M1.15561 0.267578C3.86548 0.267578 6.32851 1.37557 8.11342 3.16054C9.89839 4.94551 11.0064 7.40849 11.0064 10.1184V40.4719C11.0064 40.9714 10.6015 41.3763 10.102 41.3763H1.15561C0.656148 41.3763 0.251221 40.9714 0.251221 40.4719V1.17197C0.251221 0.672505 0.656148 0.267578 1.15561 0.267578ZM2.06001 2.12737V39.5675H9.19761V10.1184C9.19761 7.90772 8.29254 5.89731 6.83459 4.43937C5.57821 3.18292 3.91154 2.33719 2.06001 2.12737Z" fill="#372011"/>
</svg>
