<svg width="58" height="42" viewBox="0 0 58 42" fill="none" xmlns="http://www.w3.org/2000/svg">
<path d="M47.9229 2.35848C46.8715 1.98111 45.7541 1.71377 44.5711 1.5672L44.5526 1.56358C43.6479 1.4354 42.7397 1.36943 41.8609 1.36943C40.7582 1.36943 39.6921 1.47206 38.67 1.67711C37.6411 1.88229 36.6518 2.18628 35.7108 2.58922V2.59283C34.7692 2.99577 33.8826 3.5011 33.0549 4.10927C32.2125 4.72456 31.4285 5.43897 30.6995 6.2522L29.9965 7.03957L29.3737 6.18992C28.1724 4.57087 26.7401 3.34741 25.0736 2.51965C23.3925 1.68803 21.4691 1.25228 19.3044 1.20459V1.20822H19.2348C19.0517 1.20822 18.9053 1.23384 18.7915 1.28509C18.6998 1.32181 18.6266 1.38403 18.5647 1.46452C18.4691 1.59294 18.3995 1.72474 18.3557 1.85654C18.3121 1.98111 18.2896 2.11677 18.2896 2.25948C18.2896 2.40973 18.3121 2.55251 18.3557 2.68437C18.4035 2.81997 18.4767 2.95182 18.5753 3.07995L18.5901 3.10569C18.6562 3.19715 18.7442 3.26673 18.8428 3.31436C18.975 3.37296 19.1362 3.40601 19.3374 3.4133V3.41699C21.612 3.47197 23.5536 4.04704 25.1616 5.13864C26.7549 6.22633 28 7.81234 28.8903 9.89666C28.9345 9.98831 28.9852 10.0652 29.0407 10.1311C29.0808 10.175 29.121 10.2079 29.1652 10.2337L29.176 10.2446C29.2344 10.274 29.3005 10.2996 29.3737 10.3178C29.4503 10.3363 29.5495 10.3472 29.6594 10.3472C29.879 10.3472 30.0845 10.2996 30.2674 10.2043C30.458 10.1091 30.6374 9.96256 30.8058 9.76118C31.4544 8.74639 32.1723 7.85642 32.9597 7.08726C33.7692 6.29591 34.6481 5.64034 35.5933 5.1129C36.542 4.58908 37.5385 4.19349 38.5822 3.92983C39.63 3.66961 40.7214 3.53787 41.8609 3.53787C42.3261 3.53787 42.82 3.56337 43.3402 3.61474C43.8462 3.66237 44.3478 3.73557 44.8349 3.82721V3.83089C47.1754 4.27036 49.1426 5.16782 50.7359 6.51941C52.3362 7.87461 53.5486 9.67677 54.3728 11.9186L54.3804 11.9441C54.6622 12.794 54.8929 13.6474 55.0801 14.5119C55.263 15.3836 55.406 16.2773 55.5051 17.2042C55.6037 18.0942 55.6769 18.9952 55.7247 19.9074C55.7761 20.8633 55.7979 21.7937 55.7979 22.7058C55.7979 23.4237 55.7908 24.2478 55.7684 25.1782C55.7536 26.0244 55.7282 26.8557 55.6917 27.6727V27.6763C55.6256 29.1816 55.5926 30.6798 55.5926 32.1598V38.2916V39.1522H54.7318H49.8823H49.018V38.2916V28.233C49.018 27.8487 49.0251 27.3357 49.0399 26.7206C49.047 26.1964 49.0616 25.6799 49.08 25.1636V25.1563C49.1017 24.5958 49.1206 24.0501 49.1314 23.5189C49.1426 23.072 49.1462 22.5227 49.1462 21.8705C49.1462 21.3103 49.1348 20.7864 49.1131 20.303C49.0875 19.7792 49.0545 19.2627 49.0032 18.7498C48.9553 18.237 48.8858 17.739 48.7978 17.2554C48.714 16.7865 48.6077 16.3104 48.4796 15.8233C48.2634 15.0687 47.9737 14.3727 47.6077 13.7354C47.2412 13.0944 46.8054 12.512 46.2924 11.9918C45.7983 11.4899 45.2375 11.0761 44.6113 10.7611C43.9777 10.4386 43.2781 10.2116 42.5055 10.0761C42.0839 10.0175 41.6589 9.98463 41.2304 9.98463C39.8384 9.98463 38.5675 10.2959 37.4245 10.9187C36.2745 11.5448 35.2344 12.4937 34.304 13.761C33.9008 14.38 33.5713 15.021 33.3152 15.6839C33.0549 16.3507 32.8683 17.0394 32.7509 17.7536C32.6375 18.4824 32.5495 19.2369 32.4871 20.0209C32.4286 20.7682 32.3991 21.5301 32.3991 22.3065V24.31H32.3956C32.4067 24.6178 32.4139 24.9402 32.4216 25.2735C32.4286 25.7242 32.4321 26.05 32.4321 26.2554V38.2916V39.1522H31.5714H26.7438H25.8829V38.2916V21.6986C25.8829 20.8341 25.8611 19.9769 25.8063 19.1455C25.7803 18.7352 25.7365 18.3214 25.6741 17.9112C25.612 17.4934 25.5353 17.0944 25.4396 16.706C25.1798 15.6951 24.8063 14.772 24.3192 13.9404C23.8392 13.1162 23.2419 12.3801 22.5239 11.728C21.828 11.0908 21.0625 10.6144 20.2347 10.2996C19.3994 9.98463 18.4875 9.82709 17.4985 9.82709C17.3156 9.82709 17.1834 9.82709 17.0994 9.8307C17.008 9.83438 16.8834 9.84168 16.7223 9.85633C15.8688 9.94424 15.0848 10.1311 14.378 10.4095C13.6781 10.6879 13.0445 11.0651 12.473 11.5375L11.1511 12.6329V18.6276C11.1821 18.3759 11.2213 18.1274 11.2683 17.8817C11.3928 17.2444 11.5723 16.6143 11.8066 15.9954V15.9918C12.0558 15.3435 12.4035 14.7499 12.8396 14.2188C13.2752 13.6914 13.7991 13.2298 14.4107 12.8344L14.4697 12.7977C14.9417 12.5412 15.4183 12.3471 15.9018 12.2189C16.396 12.0834 16.8905 12.0173 17.3958 12.0173C17.8173 12.0173 18.2383 12.065 18.6633 12.1604C19.0736 12.2518 19.4803 12.3911 19.8794 12.5779C20.286 12.7646 20.6634 12.9991 21.0116 13.2811C21.3557 13.5632 21.6669 13.8856 21.9419 14.2519L21.9527 14.2701C22.3228 14.7903 22.6231 15.3359 22.8612 15.9038C23.0955 16.4752 23.2637 17.0686 23.3665 17.6913C23.4657 18.2738 23.5352 18.8525 23.5791 19.4349C23.6233 20.0245 23.6452 20.6106 23.6452 21.1967V40.2367C23.6452 40.3937 23.6705 40.5366 23.7218 40.6574C23.7768 40.7856 23.8611 40.9067 23.9782 41.0164L23.9893 41.0278C24.1026 41.1446 24.2235 41.229 24.3482 41.2805C24.4656 41.3318 24.6044 41.3571 24.762 41.3571H33.5531C33.7072 41.3571 33.8425 41.3318 33.9634 41.2805C34.0844 41.229 34.2015 41.1446 34.3077 41.0349C34.4211 40.9179 34.5054 40.7933 34.5603 40.6652C34.6117 40.5407 34.6376 40.3978 34.6376 40.2367C34.6376 38.7089 34.6336 37.6027 34.6299 36.9213C34.6263 35.8186 34.6151 34.713 34.6046 33.6066C34.5934 32.5075 34.5861 31.4013 34.5786 30.2955C34.5715 28.7572 34.5678 27.6433 34.5678 26.9619C34.5678 26.0575 34.5749 24.9364 34.5861 23.6105C34.6009 22.4861 34.6151 21.3725 34.641 20.2772C34.6518 19.4349 34.758 18.6181 34.9558 17.8305C35.1536 17.0319 35.447 16.2554 35.8278 15.5008L35.8312 15.4935C36.2491 14.6876 36.7946 14.0174 37.4687 13.4827C38.143 12.9514 38.9304 12.5632 39.8278 12.3215L39.8608 12.3142C40.0952 12.263 40.326 12.2226 40.5491 12.1968C40.7872 12.1677 41.0142 12.153 41.2304 12.153C41.7836 12.153 42.3036 12.2299 42.787 12.3874C43.2747 12.5412 43.7174 12.7795 44.1171 13.098V13.0944C44.4908 13.3874 44.8238 13.7244 45.1241 14.1089C45.4169 14.4863 45.6736 14.9002 45.8933 15.3544L45.9004 15.3653C46.1058 15.8123 46.2781 16.2736 46.4134 16.761C46.5493 17.2481 46.6442 17.7426 46.7068 18.2443C46.7871 18.889 46.8496 19.5631 46.8898 20.2553C46.9335 20.9549 46.9555 21.6398 46.9555 22.3065C46.9555 22.7424 46.9484 23.2699 46.9335 23.8889C46.9228 24.4346 46.9045 24.9548 46.8823 25.4566C46.8567 25.9838 46.8421 26.4896 46.8308 26.9732C46.8202 27.3835 46.8166 27.8817 46.8166 28.4749V40.2367C46.8166 40.3937 46.8421 40.5366 46.8969 40.6612C46.9484 40.7893 47.0328 40.9102 47.1496 41.0242C47.2634 41.1412 47.384 41.2255 47.5084 41.2768C47.6372 41.3281 47.78 41.3571 47.9335 41.3571H56.6768C56.8344 41.3571 56.9774 41.3281 57.1019 41.2768C57.2264 41.2255 57.3474 41.1412 57.4645 41.0242L57.4679 41.0278C57.5778 40.9139 57.6622 40.7893 57.7171 40.6612C57.7685 40.5366 57.7978 40.3937 57.7978 40.2367V20.9001C57.7978 19.8376 57.7577 18.7902 57.677 17.7536C57.5967 16.706 57.472 15.6693 57.3067 14.6512V14.6439C57.1498 13.6401 56.9113 12.651 56.5925 11.673C56.2743 10.7025 55.8823 9.75751 55.4171 8.83075H55.4131C54.8528 7.77592 54.2047 6.83825 53.4608 6.01772C52.7174 5.19358 51.8751 4.47555 50.9372 3.86026H50.9335C49.9849 3.24117 48.9813 2.73923 47.9229 2.35848Z" fill="#372011"/>
<path d="M1.79722 0.267578C4.5072 0.267578 6.97009 1.37557 8.75506 3.16054C10.54 4.94557 11.648 7.40849 11.648 10.1184V40.4719C11.648 40.9714 11.2431 41.3763 10.7436 41.3763H1.79722C1.29775 41.3763 0.892822 40.9714 0.892822 40.4719V1.17197C0.892822 0.672505 1.29775 0.267578 1.79722 0.267578ZM2.70161 2.12737V39.5675H9.83925V10.1184C9.83925 7.90778 8.93421 5.89737 7.47627 4.43937C6.21988 3.18298 4.55314 2.33719 2.70161 2.12737Z" fill="#372011"/>
</svg>
