<svg width="50" height="20" viewBox="0 0 50 20" fill="none" xmlns="http://www.w3.org/2000/svg">
<path d="M17.0037 15.8767C16.3534 15.2465 16.0784 14.8 16.0784 14.5406C16.0784 14.3625 16.2058 14.1232 16.5604 13.8274C16.8561 13.5913 17.0525 13.3261 17.0525 13.0892V12.2881C16.3313 13.1754 15.4847 13.6445 14.6094 13.6445C13.7238 13.6445 12.9567 13.3205 12.3064 12.6718L12.3079 12.6686H13.1017C13.8229 12.6686 14.5176 12.5034 15.1857 12.1722C15.5665 11.9834 15.9272 11.7448 16.2677 11.4562C16.6883 11.0996 17.1262 10.6383 17.5117 10.239V12.7261C17.5117 13.3726 17.5607 13.5208 17.0285 14.0026C16.7929 14.2158 16.5604 14.3877 16.5604 14.543C16.5838 14.709 16.597 14.8899 16.8289 15.0803C16.9508 14.575 17.4894 14.2823 17.8731 14.1769C18.5047 14.0032 18.9259 13.896 19.0076 13.2127C19.0134 13.1641 19.0185 12.9377 19.0208 12.8831L19.48 12.8064L19.4793 13.107C19.4793 13.4269 19.3627 13.7348 19.1612 14.0329C18.862 14.3802 18.4848 14.4439 18.0987 14.5889C17.5616 14.7906 17.0037 15.2548 17.0037 15.8767Z" fill="#372011"/>
<path d="M12.2984 12.6678C11.52 12.5373 10.8834 12.1891 10.3878 11.6226C9.89134 11.0545 9.64316 10.3986 9.64316 9.65391C9.64316 8.82552 9.95665 8.11634 10.5828 7.52485C11.2098 6.93416 11.9607 6.63843 12.836 6.63843H13.2792C13.882 6.63843 14.417 6.93095 14.8845 7.51602C15.3517 8.10184 15.5848 8.81423 15.5848 9.65391C14.9255 9.19863 14.5057 9.02454 13.8981 8.96734C13.1543 8.89802 12.5556 8.91979 12.0196 9.52983C11.6771 9.91985 11.5056 10.4042 11.5056 10.9836C11.5056 11.5735 11.7706 12.1343 12.3001 12.6654L12.2984 12.6678ZM11.151 11.605C11.0324 11.2971 10.9736 11.0013 10.9736 10.7176C10.9736 10.0794 11.1976 9.53546 11.6473 9.0858C12.2718 8.46205 12.9295 8.37099 13.7618 8.42096C14.1325 8.44354 14.3429 8.51929 14.8755 8.76668C14.6983 8.29363 14.4324 7.90925 14.0778 7.6135C13.7224 7.31775 13.3381 7.1703 12.9245 7.1703C12.1558 7.1703 11.5056 7.4185 10.9736 7.91571C10.4409 8.41212 10.175 9.02133 10.175 9.74256C10.175 10.6056 10.5006 11.2261 11.151 11.605Z" fill="#372011"/>
<path d="M4.65128 14.2649C3.8237 13.5556 3.40946 12.7869 3.40946 11.9592V10.1855H2.16765V11.6046C2.16765 12.3018 2.40458 12.9053 2.87763 13.4138C3.35067 13.9222 3.94215 14.206 4.65128 14.2649Z" fill="#372011"/>
<path d="M9.84026 10.1856H3.94215V11.782C3.94215 12.409 4.13715 12.9675 4.52717 13.4582C4.91722 13.949 5.43136 14.277 6.0704 14.4422L6.1002 14.4325L6.11149 14.4647C5.87941 14.5679 5.56997 14.6203 5.18312 14.6203H4.65128C3.81161 14.6203 3.09922 14.3269 2.51419 13.7419C1.92833 13.1568 1.63579 12.4445 1.63579 11.6047V10.1856H0.926666C0.68891 10.1856 0.571266 10.0729 0.571266 9.91975C0.571266 9.74246 0.689706 9.65381 0.926666 9.65381C4.30007 9.65381 6.46926 9.65381 9.84026 9.65381V10.1856Z" fill="#372011"/>
<path d="M6.10909 14.4294C6.46528 14.3045 6.85851 14.0313 7.22279 13.5559C7.66197 12.9829 8.05118 12.6687 8.46457 12.6687C8.68942 12.6687 8.8788 12.7339 9.03272 12.8644C9.18584 12.9942 9.2632 13.1658 9.2632 13.3786C9.2632 13.7331 9.09153 14.0289 8.74826 14.265C8.40576 14.502 7.9859 14.6204 7.48949 14.6204C6.91008 14.6204 6.46609 14.5608 6.15905 14.4423C6.14616 14.4488 6.13327 14.4553 6.11958 14.4616L6.10909 14.4294Z" fill="#372011"/>
<path d="M44.995 6.47163C44.7637 6.38861 44.5179 6.32979 44.2576 6.29755L44.2535 6.29675C44.0545 6.26855 43.8547 6.25404 43.6613 6.25404C43.4188 6.25404 43.1842 6.27662 42.9594 6.32173C42.733 6.36687 42.5153 6.43375 42.3083 6.5224V6.52319C42.1012 6.61184 41.9061 6.72301 41.724 6.85681C41.5387 6.99218 41.3662 7.14935 41.2058 7.32827L41.0511 7.50149L40.9141 7.31456C40.6498 6.95837 40.3347 6.6892 39.9681 6.50709C39.5982 6.32413 39.1751 6.22827 38.6988 6.21777V6.21857H38.6835C38.6432 6.21857 38.611 6.22421 38.586 6.23548C38.5658 6.24356 38.5497 6.25725 38.5361 6.27496C38.5151 6.30321 38.4998 6.33221 38.4901 6.36121C38.4805 6.38861 38.4756 6.41846 38.4756 6.44985C38.4756 6.48291 38.4805 6.51432 38.4901 6.54333C38.5007 6.57316 38.5168 6.60217 38.5385 6.63036L38.5417 6.63602C38.5562 6.65614 38.5756 6.67145 38.5973 6.68193C38.6264 6.69482 38.6618 6.70209 38.7061 6.7037V6.70451C39.2065 6.71661 39.6337 6.84312 39.9874 7.08328C40.338 7.32257 40.6119 7.6715 40.8078 8.13006C40.8175 8.15022 40.8287 8.16714 40.8409 8.18163C40.8497 8.1913 40.8585 8.19853 40.8683 8.20421L40.8706 8.20661C40.8835 8.21307 40.898 8.21871 40.9141 8.22271C40.931 8.22677 40.9528 8.22919 40.977 8.22919C41.0253 8.22919 41.0705 8.21871 41.1107 8.19774C41.1527 8.1768 41.1922 8.14456 41.2292 8.10025C41.3719 7.877 41.5298 7.6812 41.7031 7.51198C41.8812 7.33788 42.0745 7.19366 42.2825 7.07762C42.4912 6.96237 42.7104 6.87534 42.94 6.81734C43.1706 6.76009 43.4107 6.7311 43.6613 6.7311C43.7637 6.7311 43.8724 6.73671 43.9868 6.74802C44.0981 6.75849 44.2085 6.7746 44.3157 6.79476V6.79557C44.8306 6.89225 45.2633 7.0897 45.6139 7.38705C45.966 7.6852 46.2327 8.08168 46.414 8.5749L46.4157 8.58051C46.4777 8.76749 46.5284 8.95523 46.5696 9.14543C46.6099 9.33721 46.6413 9.53382 46.6631 9.73775C46.6848 9.93355 46.7009 10.1318 46.7114 10.3325C46.7227 10.5428 46.7276 10.7474 46.7276 10.9481C46.7276 11.1061 46.726 11.2874 46.7211 11.4921C46.7178 11.6782 46.7122 11.8611 46.7042 12.0409V12.0416C46.6896 12.3728 46.6824 12.7024 46.6824 13.028V14.3771V14.5664H46.493H45.4261H45.2359V14.3771V12.1641C45.2359 12.0796 45.2375 11.9667 45.2408 11.8314C45.2423 11.7161 45.2455 11.6024 45.2496 11.4888V11.4872C45.2544 11.3639 45.2585 11.2439 45.2609 11.127C45.2633 11.0287 45.2641 10.9078 45.2641 10.7644C45.2641 10.6411 45.2616 10.5258 45.2569 10.4195C45.2512 10.3043 45.244 10.1906 45.2327 10.0778C45.2222 9.96496 45.2069 9.85539 45.1875 9.749C45.1691 9.64584 45.1457 9.5411 45.1175 9.43394C45.0699 9.26793 45.0062 9.11481 44.9257 8.97459C44.845 8.83358 44.7492 8.70544 44.6363 8.59101C44.5276 8.48058 44.4042 8.38953 44.2665 8.32024C44.1271 8.2493 43.9732 8.19934 43.8032 8.16954C43.7104 8.15664 43.6169 8.14941 43.5226 8.14941C43.2164 8.14941 42.9368 8.21789 42.6853 8.35491C42.4323 8.49266 42.2035 8.70141 41.9988 8.98022C41.9101 9.11642 41.8376 9.25744 41.7813 9.40328C41.724 9.54997 41.6829 9.70149 41.6571 9.85862C41.6322 10.0189 41.6128 10.185 41.5991 10.3574C41.5862 10.5218 41.5797 10.6894 41.5797 10.8603V11.3011H41.579C41.5814 11.3688 41.583 11.4397 41.5847 11.513C41.5862 11.6122 41.587 11.6838 41.587 11.729V14.3771V14.5664H41.3976H40.3355H40.1461V14.3771V10.7265C40.1461 10.5363 40.1414 10.3478 40.1293 10.1648C40.1236 10.0746 40.1139 9.98353 40.1002 9.89328C40.0865 9.80138 40.0697 9.71358 40.0486 9.62813C39.9915 9.40574 39.9093 9.20265 39.8021 9.01969C39.6965 8.83838 39.5651 8.67643 39.4072 8.53296C39.2541 8.39278 39.0856 8.28798 38.9035 8.21871C38.7198 8.14941 38.5191 8.11475 38.3016 8.11475C38.2613 8.11475 38.2322 8.11475 38.2137 8.11555C38.1936 8.11636 38.1662 8.11796 38.1308 8.12119C37.943 8.14053 37.7705 8.18163 37.615 8.24288C37.461 8.30413 37.3216 8.38712 37.1959 8.49106L36.9051 8.73204V10.0509C36.9119 9.99552 36.9205 9.94086 36.9309 9.88681C36.9583 9.74659 36.9978 9.60797 37.0493 9.47181V9.47101C37.1041 9.32838 37.1806 9.19778 37.2766 9.08095C37.3724 8.96491 37.4877 8.86337 37.6222 8.77637L37.6352 8.76829C37.739 8.71186 37.8439 8.66916 37.9503 8.64096C38.059 8.61116 38.1678 8.59662 38.279 8.59662C38.3717 8.59662 38.4643 8.60711 38.5578 8.62808C38.6481 8.6482 38.7375 8.67884 38.8254 8.71994C38.9148 8.76102 38.9978 8.81261 39.0744 8.87466C39.1501 8.93671 39.2186 9.00765 39.2791 9.08822L39.2815 9.09222C39.3629 9.20667 39.429 9.32672 39.4813 9.45165C39.5329 9.57735 39.5699 9.70792 39.5925 9.84492C39.6143 9.97305 39.6296 10.1004 39.6393 10.2285C39.649 10.3582 39.6538 10.4872 39.6538 10.6161V14.805C39.6538 14.8395 39.6594 14.871 39.6707 14.8975C39.6828 14.9257 39.7013 14.9524 39.7271 14.9765L39.7295 14.979C39.7545 15.0047 39.7811 15.0233 39.8085 15.0346C39.8343 15.0459 39.8649 15.0515 39.8995 15.0515H41.8336C41.8675 15.0515 41.8973 15.0459 41.9239 15.0346C41.9505 15.0233 41.9763 15.0047 41.9996 14.9806C42.0246 14.9548 42.0431 14.9274 42.0552 14.8992C42.0665 14.8718 42.0722 14.8404 42.0722 14.805C42.0722 14.4689 42.0713 14.2255 42.0705 14.0756C42.0697 13.833 42.0673 13.5897 42.0649 13.3463C42.0625 13.1045 42.0609 12.8612 42.0592 12.6179C42.0577 12.2794 42.0569 12.0344 42.0569 11.8845C42.0569 11.6855 42.0584 11.4389 42.0609 11.1471C42.0641 10.8998 42.0673 10.6548 42.073 10.4138C42.0753 10.2285 42.0987 10.0488 42.1422 9.87553C42.1857 9.69983 42.2503 9.529 42.334 9.363L42.3348 9.36139C42.4268 9.18408 42.5468 9.03665 42.6951 8.919C42.8434 8.80211 43.0166 8.71672 43.2141 8.66354L43.2213 8.66193C43.2729 8.65066 43.3237 8.64177 43.3727 8.63611C43.4251 8.62969 43.4751 8.62646 43.5226 8.62646C43.6444 8.62646 43.7587 8.64338 43.8651 8.67804C43.9724 8.71186 44.0698 8.76428 44.1577 8.83437V8.83358C44.2399 8.89803 44.3132 8.97218 44.3793 9.05677C44.4437 9.13979 44.5002 9.23086 44.5485 9.33079L44.5501 9.33319C44.5952 9.43152 44.6332 9.53301 44.6629 9.64023C44.6928 9.74739 44.7137 9.8562 44.7275 9.96657C44.7451 10.1084 44.7589 10.2567 44.7677 10.409C44.7774 10.5629 44.7822 10.7136 44.7822 10.8603C44.7822 10.9562 44.7806 11.0722 44.7774 11.2084C44.775 11.3285 44.771 11.4429 44.7661 11.5533C44.7605 11.6693 44.7572 11.7806 44.7548 11.887C44.7524 11.9772 44.7516 12.0868 44.7516 12.2173V14.805C44.7516 14.8395 44.7572 14.871 44.7693 14.8984C44.7806 14.9266 44.7992 14.9531 44.8249 14.9782C44.8499 15.004 44.8765 15.0225 44.9038 15.0338C44.9322 15.0451 44.9636 15.0515 44.9973 15.0515H46.9209C46.9556 15.0515 46.987 15.0451 47.0144 15.0338C47.0418 15.0225 47.0685 15.004 47.0942 14.9782L47.095 14.979C47.1191 14.954 47.1377 14.9266 47.1498 14.8984C47.1611 14.871 47.1675 14.8395 47.1675 14.805V10.5508C47.1675 10.3171 47.1587 10.0867 47.141 9.85862C47.1233 9.62813 47.0958 9.40007 47.0595 9.17607V9.17447C47.025 8.95362 46.9725 8.73603 46.9024 8.52087C46.8324 8.30734 46.7461 8.09945 46.6438 7.89556H46.6429C46.5196 7.66349 46.377 7.4572 46.2134 7.27668C46.0498 7.09536 45.8645 6.9374 45.6582 6.80203H45.6574C45.4487 6.66583 45.2279 6.5554 44.995 6.47163Z" fill="#372011"/>
<path d="M32.878 8.04856C32.8522 8.03729 32.8224 8.03081 32.7885 8.03081H31.8296C31.7869 8.03081 31.7514 8.03728 31.7248 8.04937C31.7014 8.05986 31.6813 8.07516 31.6645 8.09613C31.6418 8.12592 31.625 8.15573 31.6144 8.18553C31.6039 8.21457 31.5991 8.24518 31.5991 8.27743C31.5991 8.30963 31.6039 8.34025 31.6144 8.36849C31.625 8.39909 31.6418 8.4281 31.6636 8.45714C31.6797 8.47566 31.6982 8.48935 31.72 8.49822C31.749 8.51032 31.7852 8.51594 31.8296 8.51594H32.3607H32.55V8.70533V14.3769V14.5663H32.3607H31.2913H31.102V14.3769V7.00821V6.81883H31.2913H32.197C32.2438 6.81883 32.2817 6.81321 32.3099 6.80028C32.3325 6.79144 32.3502 6.77774 32.3639 6.75918L32.3647 6.75597C32.3872 6.72777 32.4034 6.69879 32.4138 6.66894C32.4235 6.63993 32.4284 6.60848 32.4284 6.57547C32.4284 6.54401 32.4235 6.51421 32.4138 6.48602C32.4034 6.45701 32.3872 6.42798 32.3647 6.39978L32.3639 6.39657C32.3341 6.35709 32.2785 6.33691 32.197 6.33691H30.8634C30.8271 6.33691 30.7957 6.34259 30.7683 6.35306C30.7417 6.36436 30.7151 6.38127 30.6893 6.40464H30.6901C30.6635 6.43123 30.6451 6.45782 30.6337 6.4844C30.6224 6.5102 30.6167 6.5408 30.6167 6.57547V14.8049C30.6167 14.8394 30.6225 14.8709 30.6345 14.8983C30.6458 14.9264 30.6644 14.953 30.6886 14.9772C30.7143 15.003 30.7417 15.0216 30.7715 15.0337C30.7989 15.0458 30.8296 15.0514 30.8634 15.0514H32.7885C32.824 15.0514 32.8538 15.0458 32.8804 15.0345C32.9071 15.0232 32.9336 15.0046 32.9594 14.9781L32.9602 14.9789C32.986 14.9523 33.0054 14.9249 33.0174 14.8959C33.0288 14.8693 33.0351 14.8386 33.0351 14.8049V8.26936C33.0351 8.24117 33.0295 8.21377 33.0182 8.18879C33.0062 8.16059 32.986 8.13315 32.9594 8.10657C32.9328 8.07997 32.9054 8.06066 32.878 8.04856Z" fill="#372011"/>
<path d="M28.69 8.24684C28.5804 8.01074 28.4482 7.78427 28.2927 7.5675C27.9502 7.12753 27.5553 6.7947 27.1073 6.56985C26.6592 6.34504 26.1548 6.22499 25.5947 6.21045V6.21124H25.5867C25.5439 6.21124 25.5085 6.21691 25.4819 6.22821C25.4602 6.23708 25.4424 6.25158 25.4271 6.27089H25.4263C25.4054 6.29909 25.3884 6.32811 25.3787 6.35794C25.3682 6.38533 25.3635 6.41597 25.3635 6.4498C25.3635 6.48125 25.369 6.51026 25.3787 6.53764C25.39 6.56905 25.4077 6.59889 25.4295 6.62628C25.4456 6.64725 25.4682 6.66417 25.4956 6.67706C25.5261 6.69157 25.5641 6.70043 25.6076 6.70364V6.70445C26.1773 6.72538 26.6754 6.86725 27.1024 7.12913C27.5319 7.39183 27.8865 7.7746 28.1661 8.27588L28.1686 8.27989C28.2749 8.48217 28.3612 8.68847 28.4281 8.89878C28.4942 9.10748 28.5417 9.32345 28.5716 9.54671V9.54831C28.5989 9.76104 28.6191 9.977 28.6327 10.1962C28.6473 10.4138 28.6537 10.6273 28.6537 10.8376V14.3544V14.5438H28.4643H27.4022H27.2129V14.3544V11.0439C27.2129 10.8755 27.2096 10.7192 27.204 10.575C27.1983 10.4275 27.1902 10.2735 27.1781 10.1148C27.1661 9.96894 27.1427 9.8263 27.1082 9.68608C27.0735 9.54425 27.0275 9.40488 26.9719 9.26787C26.8824 9.07446 26.7745 8.9036 26.6463 8.75454C26.519 8.60626 26.3723 8.47973 26.2048 8.37496C26.0347 8.27103 25.8575 8.19285 25.6737 8.14047C25.4892 8.08811 25.2958 8.06152 25.0935 8.06152C25.025 8.06152 24.9565 8.06471 24.888 8.07035C24.8178 8.07601 24.7494 8.08489 24.6833 8.09618C24.4794 8.13886 24.2917 8.20415 24.1184 8.29198C23.9468 8.37983 23.7912 8.4894 23.6526 8.62074L23.3745 8.88552V10.1659C23.3783 10.1445 23.3824 10.1232 23.3867 10.1019C23.4197 9.94073 23.4673 9.78521 23.5286 9.63371L23.5293 9.6329C23.5937 9.47656 23.6775 9.33232 23.7808 9.20015C23.8839 9.06879 24.0064 8.94955 24.1474 8.84399L24.1555 8.83753C24.3046 8.73759 24.4584 8.66348 24.6181 8.61353C24.7792 8.56354 24.9452 8.53857 25.116 8.53857C25.2676 8.53857 25.4167 8.55954 25.5625 8.60222C25.7059 8.64411 25.8445 8.70618 25.9775 8.79001L25.9872 8.79645C26.1032 8.88026 26.204 8.97212 26.2877 9.07206V9.07286C26.374 9.17521 26.4433 9.28638 26.4972 9.40647C26.5488 9.52007 26.5907 9.63857 26.6229 9.76022C26.6544 9.88514 26.6762 10.0117 26.6875 10.1398H26.6866C26.6979 10.2631 26.7068 10.384 26.7117 10.5024C26.718 10.6305 26.7205 10.7498 26.7205 10.8602V14.7904C26.7205 14.821 26.7261 14.8484 26.7374 14.8734C26.7495 14.9016 26.7688 14.9289 26.7962 14.9556V14.9563C26.8212 14.9822 26.8478 15.0006 26.8752 15.0119C26.9018 15.0232 26.9317 15.0288 26.9662 15.0288H28.9003C28.9309 15.0288 28.9591 15.0232 28.985 15.0119C29.0123 14.9998 29.0398 14.9813 29.0663 14.9563L29.0655 14.9556C29.0913 14.9297 29.1107 14.9032 29.1219 14.8766C29.1332 14.8508 29.1389 14.8218 29.1389 14.7904V10.5734C29.1389 10.3042 29.1228 10.0374 29.0913 9.77392C29.059 9.50802 29.0115 9.2453 28.9478 8.98662C28.8857 8.73116 28.7995 8.48459 28.69 8.24684Z" fill="#372011"/>
<path d="M17.3272 4.81877C17.2172 4.66999 17.1349 4.51214 17.0801 4.34526C16.4205 2.33743 18.3324 0.498997 20.2856 0.965887C21.0743 1.15443 21.7277 1.72803 21.8963 2.67683C22.0047 3.2871 21.8719 3.94189 21.3588 4.36192C21.3233 3.12931 18.3316 3.18841 17.333 4.81859L17.3272 4.81877Z" fill="#372011"/>
<path d="M17.2079 5.80751C17.3575 5.83914 17.6183 5.7882 17.7106 5.65625C17.8493 5.45783 17.6858 5.23124 17.5612 5.07842C17.502 5.00585 17.4286 4.92223 17.3409 4.82757L17.3325 4.82715C17.2623 4.89652 17.1622 5.00272 17.0821 5.12028C16.9248 5.35122 16.8727 5.73653 17.2079 5.80751Z" fill="#372011"/>
<path d="M30.8617 3.90923C30.8279 3.90923 30.798 3.91565 30.7722 3.92694C30.7449 3.93904 30.7175 3.95835 30.6909 3.98495C30.6643 4.01157 30.6441 4.03896 30.6321 4.06716C30.6207 4.09215 30.6152 4.11954 30.6152 4.14773V5.26646C30.6152 5.30032 30.6215 5.33093 30.6328 5.35752C30.6449 5.38656 30.6643 5.41395 30.6901 5.44054L30.6909 5.43974C30.7166 5.46633 30.7432 5.48485 30.7698 5.49614C30.7965 5.50741 30.8262 5.51304 30.8617 5.51304H32.7869C32.8207 5.51304 32.8513 5.50741 32.8787 5.49533C32.9086 5.48324 32.9359 5.46467 32.9617 5.43894C32.9859 5.41476 33.0044 5.38816 33.0158 5.35992C33.0278 5.33253 33.0334 5.30112 33.0334 5.26646V2.8425C33.0334 2.80788 33.0278 2.77724 33.0165 2.75144C33.0052 2.72486 32.9867 2.69826 32.9602 2.67168H32.9609C32.9351 2.64829 32.9086 2.6314 32.882 2.62011C32.8546 2.60962 32.8232 2.604 32.7869 2.604H31.4532C31.3718 2.604 31.3162 2.62411 31.2864 2.6636L31.2856 2.66681C31.263 2.69505 31.2469 2.72405 31.2364 2.75306C31.2268 2.78125 31.2219 2.81109 31.2219 2.8425C31.2219 2.87556 31.2268 2.90697 31.2364 2.93596C31.2469 2.96581 31.263 2.99482 31.2856 3.02301L31.2864 3.02627C31.3001 3.04479 31.3178 3.05848 31.3404 3.06735C31.3685 3.08025 31.4065 3.08587 31.4532 3.08587H32.359H32.5484V3.27526V4.83857V5.02795H32.359H31.2896H31.1002V4.83857V4.5837V4.39432H31.2896H31.8207C31.865 4.39432 31.9012 4.3887 31.9303 4.3766C31.952 4.36773 31.9705 4.35404 31.9866 4.33552C32.0084 4.30651 32.0253 4.27747 32.0358 4.24687C32.0463 4.21867 32.0512 4.18803 32.0512 4.15581C32.0512 4.12355 32.0463 4.09295 32.0358 4.06395C32.0253 4.0341 32.0084 4.0043 31.9859 3.97449C31.969 3.95354 31.9488 3.93823 31.9255 3.92775C31.8988 3.91565 31.8634 3.90923 31.8207 3.90923H30.8617Z" fill="#372011"/>
<path fill-rule="evenodd" clip-rule="evenodd" d="M6.42055 9.65345C6.86676 9.55932 7.2422 9.25113 7.32007 8.79663L7.33749 8.65487C7.3407 8.61075 7.34648 8.5621 7.34913 8.51693C7.3618 8.30187 7.36195 8.14769 7.3364 7.93948C7.32886 7.87796 7.28184 7.57774 7.26156 7.53784C7.24207 7.42991 7.16152 7.2138 7.12364 7.11259L7.04621 6.93699C7.0121 6.87429 6.94865 6.73638 6.9116 6.68153L6.72579 6.3887C6.71303 6.36941 6.70131 6.35615 6.68862 6.33695C6.68253 6.32773 6.67809 6.32019 6.67172 6.31135C6.66452 6.30138 6.65997 6.29821 6.6527 6.28719C6.6464 6.27767 6.64132 6.2685 6.63433 6.25975L6.5377 6.13422C6.53066 6.12571 6.52641 6.11912 6.51882 6.10993L6.33372 5.89308C6.31819 5.87634 6.30443 5.86277 6.28975 5.84627C6.28171 5.83722 6.27459 5.83095 6.26578 5.8221C6.16076 5.71692 6.07958 5.63531 5.95545 5.53831L5.75217 5.3871C5.73611 5.37493 5.74587 5.38393 5.74505 5.37776C5.73274 5.37451 5.54633 5.25067 5.51314 5.2317C5.36645 5.14787 5.27945 5.09863 5.12271 5.02652C5.09797 5.01516 5.07355 5.00427 5.04572 4.99269C4.94129 4.94915 4.66138 4.83862 4.55049 4.81617C4.53916 4.80926 4.39829 4.77159 4.37485 4.76695C4.33949 4.75995 4.31747 4.75193 4.28388 4.74522C4.25231 4.73889 4.22077 4.73245 4.18923 4.72607L4.00279 4.68821C3.98582 4.68499 3.98407 4.68716 3.96936 4.685C3.94559 4.68151 3.92197 4.67301 3.89814 4.67151L3.75812 4.65245C3.73422 4.6488 3.71021 4.64388 3.68626 4.64225C3.66877 4.64107 3.64019 4.6388 3.61999 4.63471C3.50372 4.61983 3.29637 4.61093 3.18732 4.60698C2.93747 4.59792 2.47019 4.64058 2.22116 4.7079C2.20477 4.71233 2.19076 4.7158 2.17552 4.72018C2.1537 4.72644 2.06382 4.76459 2.05116 4.76311C2.05448 4.74844 2.05712 4.74975 2.06726 4.74471L2.1702 4.69934L2.30438 4.65843C2.46835 4.61752 2.61303 4.59118 2.78349 4.57851C2.91998 4.56838 3.05629 4.55991 3.19818 4.55934C3.27087 4.55904 3.55208 4.56251 3.63589 4.57327L3.84677 4.59407C3.88432 4.59614 3.96705 4.61153 3.9922 4.61276C4.0193 4.61411 4.10905 4.63144 4.13893 4.63767C4.16524 4.64315 4.18274 4.64308 4.21163 4.64892C4.24873 4.65644 4.55708 4.72357 4.57356 4.73578L4.74824 4.78529C5.11588 4.90051 5.39209 5.03415 5.713 5.22364L5.778 5.26531L5.88759 5.33708C5.9069 5.3502 5.92355 5.36083 5.94207 5.37454L6.0975 5.49218L6.33854 5.70061C6.45956 5.81642 6.65811 6.02767 6.75315 6.1611L6.80784 6.2352C6.81496 6.24596 6.81971 6.24896 6.8269 6.25936L6.86277 6.30915C6.88613 6.34399 6.90727 6.37643 6.93049 6.41141L7.10542 6.71693C7.11061 6.72763 7.10862 6.71947 7.11143 6.73239C7.11894 6.7404 7.12398 6.75281 7.12943 6.76344C7.20976 6.92001 7.25536 7.0405 7.32114 7.19953L7.34655 7.26917C7.35872 7.28657 7.41955 7.48087 7.42745 7.50828C7.43025 7.51801 7.43319 7.52402 7.43599 7.53376C7.47645 7.67426 7.49884 7.7835 7.52374 7.93125C7.55244 8.10176 7.55776 8.25551 7.55724 8.42982C7.55324 9.10133 7.47365 9.42983 7.35556 9.65345H6.42055Z" fill="url(#paint0_linear_8_6906)"/>
<path fill-rule="evenodd" clip-rule="evenodd" d="M7.71157 8.8966C7.72402 8.89912 7.76467 8.87609 7.77576 8.86963L7.97889 8.73211C8.04499 8.67788 8.10416 8.62339 8.16095 8.55855C8.20756 8.50535 8.21254 8.49547 8.25224 8.44444C8.34151 8.3297 8.43042 8.13587 8.45934 7.99291C8.49795 7.80207 8.49696 7.67626 8.46348 7.49201C8.46092 7.4779 8.45718 7.4533 8.45076 7.44379C8.43793 7.42482 8.42606 7.43059 8.40773 7.43726L8.29518 7.48521C8.1904 7.53773 8.16395 7.55691 8.07353 7.62471C8.04722 7.64443 8.0263 7.66478 8.00153 7.68684C7.98934 7.6977 7.97855 7.70874 7.96722 7.72044C7.92932 7.75953 7.90293 7.79164 7.87075 7.83527C7.72676 8.03041 7.65303 8.28408 7.65641 8.5341C7.65823 8.66816 7.66727 8.7391 7.68931 8.86892C7.69158 8.88228 7.6961 8.89347 7.71157 8.8966Z" fill="url(#paint1_linear_8_6906)"/>
<path fill-rule="evenodd" clip-rule="evenodd" d="M6.16112 7.23182C6.10582 7.22675 5.98839 7.25001 5.93762 7.26374C5.87739 7.28002 5.81852 7.30089 5.76222 7.32789C5.72637 7.3451 5.75319 7.38433 5.77496 7.42167C5.79617 7.45804 5.83275 7.52333 5.85723 7.55389C5.94468 7.66317 6.00969 7.74861 6.13617 7.83304C6.21316 7.88443 6.25814 7.9086 6.34637 7.94267C6.48337 7.99555 6.68961 8.01199 6.83526 7.9809C6.83594 7.98076 6.84168 7.97925 6.84217 7.97908C6.84872 7.97687 6.84478 7.97862 6.84784 7.97653C6.86379 7.97676 6.88224 7.9722 6.89765 7.96846L7.03354 7.93008C7.04965 7.92496 7.15053 7.88928 7.16071 7.87835C7.17463 7.86339 7.16621 7.84627 7.15833 7.83422C7.08036 7.71476 7.02668 7.65761 6.92356 7.55691L6.81653 7.46657C6.69453 7.37984 6.54845 7.28896 6.39906 7.25953C6.33962 7.24781 6.21943 7.22306 6.16112 7.23182Z" fill="url(#paint2_linear_8_6906)"/>
<path fill-rule="evenodd" clip-rule="evenodd" d="M3.83649 4.27022C3.83636 4.25526 3.81635 4.23047 3.80785 4.21764C3.79587 4.19959 3.78713 4.18413 3.77266 4.16738C3.7386 4.12798 3.74287 4.12457 3.69049 4.07189C3.61705 3.99803 3.50148 3.91965 3.39756 3.89544C3.2984 3.87232 3.26202 3.86914 3.15998 3.87467C3.10043 3.87789 2.96378 3.9077 2.90263 3.93472C2.87378 3.94745 2.88772 3.97023 2.89783 3.98921L3.01642 4.17093C3.19442 4.38012 3.41625 4.53098 3.72421 4.48913C3.77245 4.48276 3.78199 4.47826 3.82163 4.47094C3.83888 4.46774 3.84926 4.46269 3.86675 4.45785C3.87819 4.45469 3.90247 4.44832 3.90833 4.43897C3.91685 4.42542 3.90512 4.40577 3.90029 4.39406C3.89378 4.37827 3.88873 4.36768 3.88219 4.35229L3.85136 4.29071C3.84507 4.27818 3.84892 4.27929 3.83649 4.27022Z" fill="url(#paint3_linear_8_6906)"/>
<path fill-rule="evenodd" clip-rule="evenodd" d="M6.07099 8.82662C6.09701 8.85575 6.22587 8.91386 6.268 8.93149C6.32464 8.95518 6.34555 8.95509 6.3889 8.97015C6.40787 8.97673 6.43043 8.98099 6.45471 8.98594L6.58141 9.00199C6.60437 9.00375 6.62074 9.00516 6.64328 9.00564C6.79996 9.00893 6.93007 8.98415 7.07561 8.94481C7.10955 8.93564 7.1418 8.92506 7.174 8.91391C7.23728 8.89203 7.18722 8.85087 7.15089 8.79579C7.13544 8.77231 7.07644 8.7051 7.05511 8.68103C7.032 8.65496 7.00932 8.63363 6.98423 8.60916C6.93482 8.56097 6.88305 8.51812 6.82609 8.47571C6.81007 8.46103 6.75069 8.42227 6.72815 8.40825L6.61928 8.3454C6.59047 8.33313 6.56356 8.3192 6.53309 8.30557C6.50775 8.29424 6.46476 8.27669 6.43616 8.27091C6.43091 8.26599 6.42585 8.26581 6.41734 8.26347C6.35028 8.245 6.34668 8.23995 6.26466 8.22589C6.21288 8.21701 6.14754 8.21392 6.09435 8.2124C6.0231 8.21034 5.93736 8.22186 5.8683 8.23428C5.85504 8.23667 5.84716 8.2387 5.83386 8.24212C5.74416 8.26512 5.75406 8.26319 5.66681 8.29323C5.6162 8.31066 5.64168 8.3387 5.67806 8.4058L5.75225 8.51791C5.762 8.53144 5.8207 8.61476 5.83781 8.6229C5.84257 8.63532 5.90887 8.70228 5.9246 8.71298C5.93228 8.7256 6.04901 8.82004 6.07099 8.82662Z" fill="url(#paint4_linear_8_6906)"/>
<path fill-rule="evenodd" clip-rule="evenodd" d="M2.43838 5.3723C2.48499 5.38173 2.5588 5.37144 2.60099 5.36567C2.67837 5.35511 2.76935 5.32728 2.83929 5.29394C2.85019 5.28874 2.86075 5.28446 2.87151 5.27852C2.92092 5.2512 2.95747 5.22973 3.00165 5.19311C3.0068 5.18885 3.00969 5.18739 3.01486 5.18315L3.09105 5.11027C3.17299 5.02399 3.24489 4.88577 3.2786 4.77007C3.28285 4.75548 3.30308 4.69429 3.30198 4.68049C3.29987 4.65403 3.26452 4.65501 3.23231 4.65335C3.20281 4.65184 3.17409 4.64998 3.14857 4.65086C3.03034 4.65491 2.93537 4.67755 2.8307 4.73063C2.81822 4.73696 2.81133 4.74245 2.79996 4.7483L2.7557 4.77545C2.74861 4.78083 2.74834 4.78245 2.74124 4.78778C2.56036 4.92377 2.46962 5.13384 2.42534 5.35264C2.4238 5.36027 2.43077 5.37075 2.43838 5.3723Z" fill="url(#paint5_linear_8_6906)"/>
<path fill-rule="evenodd" clip-rule="evenodd" d="M6.25517 5.2624C6.29386 5.45316 6.41081 5.64237 6.56464 5.76256C6.60979 5.79783 6.60841 5.80279 6.63823 5.74693C6.67337 5.68114 6.70256 5.59697 6.72571 5.52465C6.73238 5.50379 6.75386 5.41236 6.75483 5.39295C6.75644 5.35992 6.76651 5.31291 6.7679 5.26822C6.76924 5.2253 6.76837 5.19145 6.76659 5.15021C6.76317 5.07058 6.7398 4.96601 6.71193 4.8921C6.70091 4.86287 6.66282 4.77204 6.64603 4.75692C6.64276 4.73969 6.63085 4.72678 6.62094 4.71186C6.61076 4.69649 6.60244 4.68402 6.59227 4.66862C6.57229 4.6384 6.55034 4.61463 6.52823 4.58568C6.52147 4.57915 6.5165 4.57277 6.50959 4.56497C6.4692 4.51941 6.42346 4.47944 6.37855 4.43962C6.36784 4.43014 6.3647 4.42775 6.34653 4.42407C6.33794 4.43259 6.33911 4.42746 6.33168 4.44008C6.32736 4.44741 6.32453 4.45532 6.32155 4.46323L6.28689 4.56457C6.26462 4.63495 6.26011 4.66732 6.24498 4.74051C6.24034 4.76297 6.24163 4.77308 6.23699 4.79677C6.23417 4.81118 6.23546 4.81379 6.23441 4.82398C6.23382 4.82979 6.23232 4.83465 6.23175 4.83991C6.23065 4.84996 6.23124 4.83717 6.23131 4.84566C6.23138 4.85452 6.23035 4.84818 6.23258 4.85267C6.22514 4.88945 6.22491 4.92939 6.22465 4.96347C6.22397 5.05068 6.22801 5.13096 6.24452 5.21636C6.24708 5.22953 6.25063 5.25006 6.25517 5.2624Z" fill="url(#paint6_linear_8_6906)"/>
<path fill-rule="evenodd" clip-rule="evenodd" d="M7.402 5.31305C7.4 5.30005 7.38084 5.27864 7.37426 5.2651L7.2913 5.14464C7.28321 5.13525 7.27807 5.12779 7.26499 5.12969C7.23346 5.13425 7.13839 5.31994 7.12681 5.34434C7.10744 5.38522 7.08829 5.42674 7.07168 5.47029C7.04597 5.53767 6.98879 5.70475 6.98619 5.76313C6.98501 5.78946 6.97411 5.8164 6.97239 5.84308C6.96936 5.89028 6.9616 5.93549 6.96081 5.98944C6.95987 6.05624 6.96225 6.13055 6.97241 6.19403C6.98821 6.29273 7.00151 6.34249 7.03616 6.4348C7.04332 6.45387 7.04976 6.46988 7.05823 6.48808L7.09825 6.56627C7.10494 6.5769 7.10621 6.58258 7.11316 6.59317C7.1307 6.61992 7.13621 6.6328 7.15347 6.65417C7.17896 6.68574 7.21169 6.7598 7.24419 6.73723C7.2561 6.72897 7.29153 6.68166 7.30487 6.66773C7.31416 6.65491 7.32201 6.64347 7.33176 6.63026C7.3459 6.61111 7.40395 6.52516 7.40855 6.50738L7.43749 6.45686C7.44714 6.43818 7.45535 6.42136 7.464 6.40294C7.48043 6.36795 7.49819 6.32407 7.51085 6.28585C7.56422 6.12482 7.58202 5.99315 7.56976 5.82606L7.55419 5.71184C7.54162 5.64302 7.53669 5.63678 7.52076 5.57834C7.51716 5.56514 7.51634 5.56187 7.51036 5.55124C7.50996 5.53821 7.50524 5.53233 7.50097 5.52071C7.49635 5.50818 7.49346 5.50017 7.48889 5.48908C7.46605 5.43341 7.4344 5.36361 7.402 5.31305Z" fill="url(#paint7_linear_8_6906)"/>
<path fill-rule="evenodd" clip-rule="evenodd" d="M5.49345 6.06204C5.56285 6.07608 5.64269 6.07333 5.69818 6.06645C5.76659 6.05799 5.81042 6.04973 5.87702 6.02461C5.91013 6.01211 5.96141 5.98871 5.99371 5.9701L6.06445 5.92312C6.07481 5.9162 6.09346 5.90933 6.09171 5.8927C6.09001 5.87665 6.04908 5.83656 6.03676 5.82414C5.91627 5.70258 5.71515 5.56916 5.53153 5.54224C5.484 5.53527 5.35138 5.52522 5.32339 5.53757C5.30541 5.53518 5.26719 5.54327 5.25116 5.54624C5.2278 5.55057 5.20555 5.55627 5.1826 5.5624C5.15794 5.56896 5.07281 5.59738 5.05817 5.60983C5.03891 5.61121 4.92732 5.67548 4.90714 5.68901C4.89644 5.6962 4.88851 5.7016 4.87763 5.70855C4.84868 5.72709 4.84706 5.7385 4.87627 5.76471C4.92816 5.81125 5.05146 5.90577 5.11913 5.93525C5.13132 5.94535 5.1806 5.9666 5.19896 5.97519C5.22717 5.98842 5.25557 6.00057 5.2881 6.01228C5.31898 6.0234 5.4603 6.06921 5.49345 6.06204Z" fill="url(#paint8_linear_8_6906)"/>
<path fill-rule="evenodd" clip-rule="evenodd" d="M0.872852 5.70925C0.899382 5.71463 0.963887 5.70461 0.988493 5.70012C1.02595 5.69327 1.05983 5.68319 1.09388 5.67124C1.20219 5.63323 1.32014 5.55435 1.38805 5.4619C1.45542 5.37018 1.49347 5.28264 1.51909 5.15597C1.52492 5.12717 1.52559 5.10925 1.53047 5.08331C1.53927 5.03662 1.50868 5.0381 1.43469 5.04154C1.28406 5.04853 1.13178 5.1019 1.03205 5.21967C0.923403 5.34796 0.884592 5.48747 0.863448 5.65605C0.861286 5.67325 0.855197 5.70568 0.872852 5.70925Z" fill="url(#paint9_linear_8_6906)"/>
<path fill-rule="evenodd" clip-rule="evenodd" d="M5.84154 4.57738C5.84263 4.56281 5.80949 4.50191 5.80052 4.48652C5.73815 4.37961 5.66115 4.28235 5.55716 4.21209C5.54326 4.2027 5.51033 4.17674 5.49507 4.17529C5.48225 4.15616 5.37798 4.11283 5.35983 4.10523C5.31118 4.08493 5.25128 4.06738 5.19556 4.05278C5.14873 4.0405 5.16326 4.14221 5.16545 4.18608L5.18328 4.33709C5.18732 4.3453 5.189 4.36119 5.19112 4.37284C5.19989 4.42122 5.22975 4.53503 5.24776 4.57911C5.26813 4.62897 5.28141 4.67073 5.30876 4.72221L5.36146 4.81461C5.36863 4.82538 5.37388 4.8333 5.38103 4.8441C5.39685 4.86799 5.39285 4.86975 5.4053 4.87129C5.40794 4.88247 5.40557 4.87627 5.4115 4.88628C5.41995 4.90047 5.4711 4.95586 5.48193 4.96678C5.50367 4.98864 5.55257 5.03398 5.5803 5.04915C5.60243 5.07404 5.70234 5.12196 5.73753 5.13687C5.77031 5.15073 5.79737 5.15867 5.83527 5.16826C5.86751 5.17643 5.91002 5.19914 5.91655 5.15914C5.93169 5.06632 5.92581 4.92078 5.91178 4.82596C5.91041 4.81673 5.90935 4.79203 5.90238 4.78609C5.90595 4.75992 5.85756 4.59231 5.84154 4.57738Z" fill="url(#paint10_linear_8_6906)"/>
<path fill-rule="evenodd" clip-rule="evenodd" d="M2.17131 4.82492C2.11394 4.83975 2.12252 4.83205 2.05403 4.85708C1.84633 4.93291 1.71712 5.1045 1.67179 5.32622C1.6624 5.3721 1.64715 5.54985 1.65722 5.59348C1.66021 5.6065 1.666 5.61226 1.6798 5.61194C1.6983 5.61157 1.76927 5.58938 1.78585 5.58347L1.86746 5.54862C1.89689 5.53475 1.91876 5.51937 1.94593 5.50476L1.99395 5.4705C2.01791 5.45238 2.0637 5.41032 2.08109 5.3886L2.12426 5.3384C2.13787 5.32101 2.15061 5.30074 2.16221 5.28039C2.24331 5.1383 2.26563 5.0138 2.26528 4.85322C2.26521 4.82841 2.26499 4.83614 2.25776 4.81858C2.23169 4.81331 2.19135 4.81996 2.17131 4.82492Z" fill="url(#paint11_linear_8_6906)"/>
<path fill-rule="evenodd" clip-rule="evenodd" d="M2.49 4.51485C2.57559 4.53216 2.62944 4.52719 2.69836 4.51833C2.76349 4.50996 2.79481 4.4966 2.84975 4.47773C2.88116 4.46694 2.87328 4.4528 2.86214 4.42871C2.83321 4.36621 2.8017 4.30304 2.75689 4.24945L2.72172 4.20487C2.53031 3.99045 2.29753 3.93502 2.02772 4.02797C2.01437 4.03259 1.96277 4.05023 1.95555 4.05596C1.935 4.07226 1.95919 4.09645 1.97334 4.12394C1.9837 4.14405 1.99907 4.1717 2.0145 4.18722C2.10076 4.29965 2.19121 4.39728 2.32655 4.46137C2.39202 4.49237 2.41733 4.50014 2.49 4.51485Z" fill="url(#paint12_linear_8_6906)"/>
<path fill-rule="evenodd" clip-rule="evenodd" d="M4.62977 5.53323C4.70986 5.52549 4.68808 5.53467 4.78417 5.51635C4.858 5.50227 4.8974 5.4777 4.92521 5.4705C4.9503 5.45256 5.00034 5.4386 5.07317 5.37599C5.09645 5.35598 5.11784 5.33832 5.13813 5.31602C5.15861 5.2935 5.21302 5.23396 5.22527 5.20849C5.23302 5.19243 5.22075 5.18037 5.20791 5.17092C5.18139 5.1514 5.15811 5.13346 5.1281 5.11631C5.07691 5.08706 4.9981 5.04282 4.93862 5.03079C4.91817 5.01752 4.82454 5.00312 4.79928 5.00154C4.73405 4.99748 4.73918 4.99744 4.67503 5.00199C4.5036 5.01413 4.32963 5.12938 4.21712 5.25037C4.20376 5.26474 4.19421 5.27551 4.18141 5.29042C4.16954 5.30424 4.15693 5.31574 4.14812 5.33197C4.13609 5.34446 4.11114 5.37024 4.12993 5.38791C4.15776 5.41403 4.27725 5.46393 4.31779 5.4784C4.3694 5.49688 4.41439 5.50663 4.47447 5.51882C4.56302 5.53679 4.58525 5.52738 4.62977 5.53323Z" fill="url(#paint13_linear_8_6906)"/>
<path fill-rule="evenodd" clip-rule="evenodd" d="M8.22701 6.93774C8.24674 6.91437 8.26708 6.6727 8.26066 6.65363C8.2643 6.63364 8.26111 6.60477 8.26023 6.58516C8.25971 6.57352 8.25906 6.52988 8.25375 6.5185C8.26005 6.47538 8.21299 6.26997 8.20162 6.22775L8.1823 6.16134C8.17066 6.1215 8.14643 6.13531 8.12722 6.14831C8.09312 6.17138 8.04641 6.20341 8.01856 6.23267C7.99142 6.24562 7.88037 6.3684 7.85373 6.39737L7.7935 6.47298C7.78406 6.48624 7.77124 6.49812 7.76334 6.51456C7.73448 6.5473 7.68413 6.63534 7.66293 6.67654C7.64257 6.7161 7.61754 6.75872 7.60343 6.8021C7.59841 6.80916 7.58801 6.84057 7.58362 6.85205C7.57683 6.86984 7.57182 6.8876 7.56443 6.90844C7.55037 6.94805 7.54265 6.98978 7.53353 7.03479C7.50406 7.18051 7.50214 7.32626 7.52778 7.46452C7.53342 7.49495 7.57203 7.67282 7.59126 7.68864C7.6087 7.70301 7.6355 7.68532 7.65544 7.67279C7.69149 7.65009 7.71197 7.64174 7.74914 7.61348C7.76977 7.59781 7.79613 7.58324 7.82184 7.56097C7.93397 7.46397 8.01739 7.38712 8.09759 7.25131C8.11522 7.22146 8.13109 7.19407 8.14667 7.16315C8.15777 7.14113 8.18246 7.09067 8.18755 7.06548C8.20081 7.0469 8.22068 6.96894 8.22701 6.93774Z" fill="url(#paint14_linear_8_6906)"/>
<path fill-rule="evenodd" clip-rule="evenodd" d="M4.51217 4.61449C4.51942 4.62403 4.56561 4.64244 4.57678 4.64716C4.6226 4.6665 4.6985 4.68832 4.74641 4.6916L4.80859 4.69572C4.82854 4.69327 4.82024 4.68637 4.82452 4.68547C4.82976 4.68438 4.83015 4.66009 4.83014 4.65744C4.82914 4.42026 4.74127 4.15078 4.56365 3.98787C4.5346 3.96123 4.44912 3.89397 4.41508 3.88358C4.38935 3.86662 4.30072 3.82982 4.26165 3.82191C4.2024 3.80992 4.2178 3.80596 4.1321 3.7955C4.11203 3.79306 4.0804 3.78391 4.05505 3.79033C4.0426 3.81759 4.05212 3.85823 4.05714 3.888C4.07873 4.01632 4.13939 4.19608 4.20922 4.31075C4.2228 4.33305 4.29518 4.44197 4.31119 4.45132C4.32587 4.47456 4.37732 4.52245 4.40003 4.54081C4.42123 4.5579 4.48329 4.60641 4.51217 4.61449Z" fill="url(#paint15_linear_8_6906)"/>
<path fill-rule="evenodd" clip-rule="evenodd" d="M5.98799 6.86314C6.02527 6.89328 6.14721 6.93689 6.19772 6.95423C6.21646 6.96066 6.25753 6.97212 6.27952 6.97658C6.34123 6.98906 6.42855 6.99645 6.4882 6.99276L6.55413 6.98789C6.55495 6.98759 6.66972 6.97039 6.74532 6.94087L6.83351 6.90311C6.84438 6.89808 6.8516 6.89348 6.85167 6.87984C6.85176 6.86369 6.83121 6.83502 6.82457 6.8214L6.77628 6.74306C6.75563 6.71871 6.73849 6.68894 6.71122 6.65603C6.70696 6.65088 6.70548 6.64799 6.70123 6.64283C6.6937 6.63366 6.68782 6.62666 6.67962 6.61755C6.66495 6.60126 6.65386 6.58751 6.63832 6.57135C6.5958 6.52704 6.5658 6.50188 6.5205 6.46269C6.5014 6.44617 6.39823 6.37503 6.37623 6.36996C6.35327 6.35069 6.27371 6.31945 6.23763 6.30788C6.17675 6.28834 6.17091 6.28789 6.11141 6.27549C6.09177 6.2714 6.08283 6.27282 6.06792 6.27014C6.00085 6.25657 5.86584 6.26479 5.79624 6.2782L5.77963 6.28402C5.74435 6.27662 5.55528 6.34512 5.50945 6.3665C5.49929 6.37125 5.49106 6.37651 5.49043 6.39035C5.48968 6.40698 5.54358 6.47813 5.55686 6.49347C5.63917 6.58835 5.71408 6.6771 5.82165 6.75368C5.85454 6.77709 5.95475 6.85299 5.98799 6.86314Z" fill="url(#paint16_linear_8_6906)"/>
<path fill-rule="evenodd" clip-rule="evenodd" d="M2.04383 4.55067C2.02874 4.5367 2.01144 4.52731 1.99337 4.51562C1.94468 4.48411 1.89281 4.46278 1.83845 4.44291C1.82439 4.43777 1.81267 4.43698 1.79867 4.43251C1.71221 4.40492 1.60693 4.41203 1.52443 4.43423C1.42945 4.45981 1.36536 4.50217 1.2922 4.55779C1.28379 4.56417 1.27679 4.57114 1.26892 4.57815C1.23811 4.6056 1.15688 4.67537 1.14852 4.71665C1.16123 4.72946 1.21137 4.76481 1.23221 4.77102C1.24701 4.78497 1.33165 4.81867 1.34846 4.82461C1.47918 4.87086 1.60883 4.88153 1.74331 4.84948C1.77941 4.84087 1.81645 4.82606 1.84799 4.81101C1.89562 4.78833 1.94612 4.75871 1.98605 4.72473C2.03409 4.68385 2.04443 4.67313 2.08638 4.6285C2.09631 4.61797 2.09749 4.61833 2.10126 4.59973C2.08497 4.58329 2.06604 4.56149 2.04383 4.55067Z" fill="url(#paint17_linear_8_6906)"/>
<path fill-rule="evenodd" clip-rule="evenodd" d="M3.72616 5.33672C3.73895 5.33176 3.7559 5.32818 3.77081 5.3242C3.89597 5.29081 4.03927 5.19893 4.12109 5.1013C4.16841 5.04481 4.26647 4.91525 4.2817 4.83995C4.26442 4.82252 4.27436 4.82765 4.23927 4.81432C4.17381 4.78941 4.13844 4.78373 4.06572 4.76902C3.98782 4.75326 3.87186 4.76068 3.8144 4.77604C3.76646 4.77803 3.68078 4.82111 3.63583 4.84344C3.60492 4.85877 3.5371 4.91021 3.51025 4.93572C3.46025 4.98317 3.44647 5.00025 3.40155 5.05772C3.37341 5.09371 3.26495 5.27325 3.26834 5.30272C3.27206 5.33477 3.39804 5.34687 3.41659 5.34918C3.47755 5.35675 3.51806 5.35805 3.57141 5.35645C3.62247 5.355 3.68057 5.34709 3.72616 5.33672Z" fill="url(#paint18_linear_8_6906)"/>
<path d="M21.2859 6.01147C21.882 6.01147 22.4239 6.25524 22.8166 6.64794C23.2093 7.04064 23.4531 7.5825 23.4531 8.17869V14.8566C23.4531 14.9665 23.364 15.0555 23.2541 15.0555H21.2859C21.176 15.0555 21.0869 14.9665 21.0869 14.8566V6.21044C21.0869 6.10056 21.176 6.01147 21.2859 6.01147ZM21.4848 6.42063V14.6576H23.0551V8.17869C23.0551 7.69233 22.856 7.25004 22.5352 6.92928C22.2588 6.65286 21.8922 6.4668 21.4848 6.42063Z" fill="#372011"/>
<path d="M34.8472 6.01147C35.4434 6.01147 35.9853 6.25524 36.378 6.64794C36.7707 7.04065 37.0145 7.5825 37.0145 8.17869V14.8566C37.0145 14.9665 36.9254 15.0555 36.8155 15.0555H34.8472C34.7374 15.0555 34.6483 14.9665 34.6483 14.8566V6.21044C34.6483 6.10056 34.7374 6.01147 34.8472 6.01147ZM35.0462 6.42063V14.6576H36.6165V8.17869C36.6165 7.69235 36.4174 7.25005 36.0967 6.92928C35.8202 6.65287 35.4536 6.4668 35.0462 6.42063Z" fill="#372011"/>
<path d="M19.0208 8.39119H17.5118V12.7462C17.5064 12.7527 17.5028 12.7611 17.5023 12.7713L17.4805 13.3187H17.2822C17.1554 13.3187 17.0526 13.2159 17.0526 13.0891L17.0481 7.85297C17.0481 7.78573 17.1004 7.78189 17.1465 7.73992C17.1873 7.70275 17.2226 7.93197 17.2822 7.93197H19.2504C19.3772 7.93197 19.48 8.03477 19.48 8.16157V13.0891C19.48 13.2159 19.3772 13.3187 19.2504 13.3187H19.0214L19.0208 12.8595V12.8188V12.7314V8.39119Z" fill="#372011"/>
<path d="M17.0658 8.24805C17.0545 8.22231 17.0481 8.19247 17.0481 8.15856V7.35297C17.0481 7.31024 17.0545 7.27476 17.0666 7.24813C17.0771 7.22476 17.0924 7.20463 17.1134 7.18778C17.1432 7.16515 17.173 7.14829 17.2028 7.13777C17.2318 7.12724 17.2624 7.12246 17.2947 7.12246C17.3269 7.12246 17.3575 7.12724 17.3857 7.13777C17.4163 7.14829 17.4454 7.16515 17.4744 7.18697C17.4929 7.20307 17.5066 7.22153 17.5155 7.24335C17.5276 7.27231 17.5332 7.30855 17.5332 7.35297V7.73076V7.92009H17.7226L19.4372 7.91057H19.6266V7.72124V6.65184V6.4625H19.4372H16.5896H16.4002V6.65184V7.55759C16.4002 7.60435 16.3946 7.64228 16.3817 7.67046C16.3728 7.69304 16.3591 7.71071 16.3406 7.72449L16.3374 7.72525C16.3092 7.74774 16.2802 7.76398 16.2503 7.77437C16.2213 7.78409 16.1899 7.78892 16.1569 7.78892C16.1254 7.78892 16.0956 7.78409 16.0674 7.77437C16.0384 7.76398 16.0094 7.74774 15.9812 7.72525L15.9779 7.72449C15.9385 7.6946 15.9183 7.63901 15.9183 7.55759V6.22391C15.9183 6.18769 15.924 6.15622 15.9345 6.12884C15.9457 6.10223 15.9627 6.07563 15.986 6.04988V6.05068C16.0126 6.02404 16.0392 6.0056 16.0658 5.99427C16.0916 5.983 16.1222 5.97729 16.1569 5.97729H19.8651C19.8997 5.97729 19.9311 5.983 19.9585 5.9951C19.9867 6.00637 20.0133 6.02493 20.0375 6.04911C20.0633 6.0748 20.0819 6.10224 20.094 6.1321C20.1061 6.15949 20.1116 6.19014 20.1116 6.22391V8.14904C20.1116 8.18451 20.1061 8.21435 20.0948 8.24099C20.0835 8.26761 20.0649 8.29413 20.0384 8.31994L20.0392 8.32076C20.0126 8.34658 19.9852 8.36594 19.9562 8.37799C19.9296 8.38931 19.8989 8.39567 19.8651 8.39567L17.2866 8.40519C17.2584 8.40519 17.231 8.39961 17.206 8.38832C17.1778 8.37624 17.1504 8.3561 17.1238 8.32946C17.0972 8.30284 17.0779 8.27545 17.0658 8.24805Z" fill="#372011"/>
<path d="M2.30135 18.2615H2.47018V18.8964C2.3925 18.9646 2.30056 19.0169 2.19435 19.0533C2.08814 19.0898 1.97639 19.108 1.85908 19.108C1.69263 19.108 1.54283 19.0716 1.40968 18.9986C1.27652 18.9257 1.17189 18.8251 1.09581 18.6967C1.01972 18.5667 0.98167 18.4216 0.98167 18.2615C0.98167 18.1014 1.01972 17.9572 1.09581 17.8288C1.17189 17.6988 1.27652 17.5973 1.40968 17.5244C1.54283 17.4515 1.69343 17.415 1.86146 17.415C1.98827 17.415 2.10479 17.4356 2.211 17.4768C2.3172 17.5165 2.40677 17.5759 2.47969 17.6552L2.37031 17.7669C2.23874 17.6369 2.0715 17.572 1.86859 17.572C1.73385 17.572 1.61179 17.6021 1.50241 17.6623C1.39462 17.721 1.30981 17.8034 1.24798 17.9096C1.18616 18.0142 1.15525 18.1315 1.15525 18.2615C1.15525 18.3915 1.18616 18.5088 1.24798 18.6134C1.30981 18.7181 1.39462 18.8005 1.50241 18.8607C1.6102 18.921 1.73147 18.9511 1.86621 18.9511C2.03742 18.9511 2.18246 18.9083 2.30135 18.8227V18.2615ZM5.12247 19.108C4.95761 19.108 4.80781 19.0716 4.67306 18.9986C4.53991 18.9241 4.43528 18.8227 4.35919 18.6943C4.28469 18.5659 4.24744 18.4216 4.24744 18.2615C4.24744 18.1014 4.28469 17.9572 4.35919 17.8288C4.43528 17.7004 4.53991 17.5997 4.67306 17.5268C4.80781 17.4523 4.95761 17.415 5.12247 17.415C5.28733 17.415 5.43555 17.4515 5.56712 17.5244C5.70028 17.5973 5.8049 17.6988 5.88099 17.8288C5.95708 17.9572 5.99512 18.1014 5.99512 18.2615C5.99512 18.4216 5.95708 18.5667 5.88099 18.6967C5.8049 18.8251 5.70028 18.9257 5.56712 18.9986C5.43555 19.0716 5.28733 19.108 5.12247 19.108ZM5.12247 18.9511C5.25404 18.9511 5.37293 18.9218 5.47914 18.8631C5.58535 18.8029 5.66857 18.7204 5.72881 18.6158C5.78905 18.5096 5.81917 18.3915 5.81917 18.2615C5.81917 18.1315 5.78905 18.0142 5.72881 17.9096C5.66857 17.8034 5.58535 17.721 5.47914 17.6623C5.37293 17.6021 5.25404 17.572 5.12247 17.572C4.9909 17.572 4.87121 17.6021 4.76342 17.6623C4.65721 17.721 4.5732 17.8034 4.51137 17.9096C4.45114 18.0142 4.42102 18.1315 4.42102 18.2615C4.42102 18.3915 4.45114 18.5096 4.51137 18.6158C4.5732 18.7204 4.65721 18.8029 4.76342 18.8631C4.87121 18.9218 4.9909 18.9511 5.12247 18.9511ZM7.81621 17.4293H7.99216V18.9416H8.92426V19.0938H7.81621V17.4293ZM10.6431 17.4293H11.3208C11.4967 17.4293 11.6521 17.465 11.7868 17.5363C11.9216 17.606 12.0262 17.7043 12.1007 17.8311C12.1752 17.9564 12.2125 18.0998 12.2125 18.2615C12.2125 18.4232 12.1752 18.5675 12.1007 18.6943C12.0262 18.8195 11.9216 18.9178 11.7868 18.9891C11.6521 19.0589 11.4967 19.0938 11.3208 19.0938H10.6431V17.4293ZM11.3113 18.9416C11.4571 18.9416 11.5847 18.913 11.6941 18.856C11.8035 18.7973 11.8883 18.7173 11.9485 18.6158C12.0088 18.5128 12.0389 18.3947 12.0389 18.2615C12.0389 18.1284 12.0088 18.0111 11.9485 17.9096C11.8883 17.8066 11.8035 17.7265 11.6941 17.6694C11.5847 17.6108 11.4571 17.5815 11.3113 17.5815H10.8191V18.9416H11.3113ZM14.4932 19.108C14.3695 19.108 14.2506 19.0882 14.1365 19.0486C14.024 19.0089 13.9368 18.9566 13.8749 18.8916L13.9439 18.7561C14.0041 18.8163 14.0842 18.8655 14.1841 18.9035C14.2839 18.94 14.387 18.9582 14.4932 18.9582C14.6422 18.9582 14.7539 18.9313 14.8284 18.8774C14.903 18.8219 14.9402 18.7506 14.9402 18.6634C14.9402 18.5968 14.9196 18.5437 14.8784 18.5041C14.8387 18.4644 14.7896 18.4343 14.731 18.4137C14.6723 18.3915 14.5907 18.3677 14.486 18.3424C14.3608 18.3107 14.2609 18.2805 14.1864 18.252C14.1119 18.2219 14.0477 18.1767 13.9938 18.1165C13.9415 18.0562 13.9154 17.9746 13.9154 17.8716C13.9154 17.7875 13.9376 17.7115 13.9819 17.6433C14.0263 17.5735 14.0945 17.5181 14.1864 17.4768C14.2784 17.4356 14.3925 17.415 14.5288 17.415C14.624 17.415 14.7167 17.4285 14.807 17.4554C14.899 17.4808 14.9782 17.5165 15.0448 17.5624L14.9854 17.7027C14.9156 17.6568 14.8411 17.6227 14.7619 17.6005C14.6826 17.5767 14.6049 17.5648 14.5288 17.5648C14.383 17.5648 14.2728 17.5934 14.1983 17.6504C14.1254 17.7059 14.0889 17.778 14.0889 17.8668C14.0889 17.9334 14.1088 17.9873 14.1484 18.0285C14.1896 18.0681 14.2403 18.099 14.3006 18.1212C14.3624 18.1418 14.4448 18.1648 14.5479 18.1902C14.6699 18.2203 14.7682 18.2504 14.8427 18.2805C14.9188 18.3091 14.983 18.3535 15.0353 18.4137C15.0876 18.4724 15.1138 18.5524 15.1138 18.6539C15.1138 18.7379 15.0908 18.8148 15.0448 18.8845C15.0004 18.9527 14.9315 19.0074 14.838 19.0486C14.7444 19.0882 14.6295 19.108 14.4932 19.108ZM18.6525 17.4293V19.0938H18.4837V17.7622L17.8298 18.8821H17.7466L17.0927 17.7693V19.0938H16.9238V17.4293H17.0689L17.7917 18.6634L18.5075 17.4293H18.6525ZM20.6215 17.4293H20.7975V19.0938H20.6215V17.4293ZM23.0891 17.5815H22.5042V17.4293H23.85V17.5815H23.2651V19.0938H23.0891V17.5815ZM26.9488 17.4293V19.0938H26.7752V18.3257H25.7337V19.0938H25.5578V17.4293H25.7337V18.1712H26.7752V17.4293H26.9488ZM28.8118 17.4293H28.9616L28.9497 18.057H28.8236L28.8118 17.4293ZM31.285 19.108C31.1614 19.108 31.0425 19.0882 30.9284 19.0486C30.8158 19.0089 30.7286 18.9566 30.6668 18.8916L30.7358 18.7561C30.796 18.8163 30.876 18.8655 30.9759 18.9035C31.0758 18.94 31.1788 18.9582 31.285 18.9582C31.434 18.9582 31.5458 18.9313 31.6203 18.8774C31.6948 18.8219 31.7321 18.7506 31.7321 18.6634C31.7321 18.5968 31.7115 18.5437 31.6702 18.5041C31.6306 18.4644 31.5815 18.4343 31.5228 18.4137C31.4642 18.3915 31.3825 18.3677 31.2779 18.3424C31.1527 18.3107 31.0528 18.2805 30.9783 18.252C30.9038 18.2219 30.8396 18.1767 30.7857 18.1165C30.7334 18.0562 30.7072 17.9746 30.7072 17.8716C30.7072 17.7875 30.7294 17.7115 30.7738 17.6433C30.8182 17.5735 30.8864 17.5181 30.9783 17.4768C31.0702 17.4356 31.1844 17.415 31.3207 17.415C31.4158 17.415 31.5085 17.4285 31.5989 17.4554C31.6908 17.4808 31.7701 17.5165 31.8367 17.5624L31.7772 17.7027C31.7075 17.6568 31.633 17.6227 31.5537 17.6005C31.4745 17.5767 31.3968 17.5648 31.3207 17.5648C31.1749 17.5648 31.0647 17.5934 30.9902 17.6504C30.9173 17.7059 30.8808 17.778 30.8808 17.8668C30.8808 17.9334 30.9006 17.9873 30.9402 18.0285C30.9815 18.0681 31.0322 18.099 31.0924 18.1212C31.1543 18.1418 31.2367 18.1648 31.3397 18.1902C31.4618 18.2203 31.5601 18.2504 31.6346 18.2805C31.7107 18.3091 31.7749 18.3535 31.8272 18.4137C31.8795 18.4724 31.9056 18.5524 31.9056 18.6539C31.9056 18.7379 31.8827 18.8148 31.8367 18.8845C31.7923 18.9527 31.7233 19.0074 31.6298 19.0486C31.5363 19.0882 31.4214 19.108 31.285 19.108ZM38.986 18.2615H39.1548V18.8964C39.0771 18.9646 38.9852 19.0169 38.879 19.0533C38.7728 19.0898 38.661 19.108 38.5437 19.108C38.3772 19.108 38.2274 19.0716 38.0943 18.9986C37.9611 18.9257 37.8565 18.8251 37.7804 18.6967C37.7043 18.5667 37.6663 18.4216 37.6663 18.2615C37.6663 18.1014 37.7043 17.9572 37.7804 17.8288C37.8565 17.6988 37.9611 17.5973 38.0943 17.5244C38.2274 17.4515 38.378 17.415 38.5461 17.415C38.6729 17.415 38.7894 17.4356 38.8956 17.4768C39.0018 17.5165 39.0914 17.5759 39.1643 17.6552L39.0549 17.7669C38.9233 17.6369 38.7561 17.572 38.5532 17.572C38.4185 17.572 38.2964 17.6021 38.187 17.6623C38.0792 17.721 37.9944 17.8034 37.9326 17.9096C37.8708 18.0142 37.8399 18.1315 37.8399 18.2615C37.8399 18.3915 37.8708 18.5088 37.9326 18.6134C37.9944 18.7181 38.0792 18.8005 38.187 18.8607C38.2948 18.921 38.4161 18.9511 38.5508 18.9511C38.722 18.9511 38.8671 18.9083 38.986 18.8227V18.2615ZM41.8071 19.108C41.6422 19.108 41.4924 19.0716 41.3577 18.9986C41.2245 18.9241 41.1199 18.8227 41.0438 18.6943C40.9693 18.5659 40.932 18.4216 40.932 18.2615C40.932 18.1014 40.9693 17.9572 41.0438 17.8288C41.1199 17.7004 41.2245 17.5997 41.3577 17.5268C41.4924 17.4523 41.6422 17.415 41.8071 17.415C41.9719 17.415 42.1202 17.4515 42.2517 17.5244C42.3849 17.5973 42.4895 17.6988 42.5656 17.8288C42.6417 17.9572 42.6797 18.1014 42.6797 18.2615C42.6797 18.4216 42.6417 18.5667 42.5656 18.6967C42.4895 18.8251 42.3849 18.9257 42.2517 18.9986C42.1202 19.0716 41.9719 19.108 41.8071 19.108ZM41.8071 18.9511C41.9386 18.9511 42.0575 18.9218 42.1637 18.8631C42.27 18.8029 42.3532 18.7204 42.4134 18.6158C42.4737 18.5096 42.5038 18.3915 42.5038 18.2615C42.5038 18.1315 42.4737 18.0142 42.4134 17.9096C42.3532 17.8034 42.27 17.721 42.1637 17.6623C42.0575 17.6021 41.9386 17.572 41.8071 17.572C41.6755 17.572 41.5558 17.6021 41.448 17.6623C41.3418 17.721 41.2578 17.8034 41.196 17.9096C41.1357 18.0142 41.1056 18.1315 41.1056 18.2615C41.1056 18.3915 41.1357 18.5096 41.196 18.6158C41.2578 18.7204 41.3418 18.8029 41.448 18.8631C41.5558 18.9218 41.6755 18.9511 41.8071 18.9511ZM44.5008 17.4293H44.6768V18.9416H45.6089V19.0938H44.5008V17.4293ZM47.3277 17.4293H48.0054C48.1813 17.4293 48.3367 17.465 48.4714 17.5363C48.6062 17.606 48.7108 17.7043 48.7853 17.8311C48.8598 17.9564 48.8971 18.0998 48.8971 18.2615C48.8971 18.4232 48.8598 18.5675 48.7853 18.6943C48.7108 18.8195 48.6062 18.9178 48.4714 18.9891C48.3367 19.0589 48.1813 19.0938 48.0054 19.0938H47.3277V17.4293ZM47.9959 18.9416C48.1417 18.9416 48.2693 18.913 48.3787 18.856C48.4881 18.7973 48.5729 18.7173 48.6331 18.6158C48.6934 18.5128 48.7235 18.3947 48.7235 18.2615C48.7235 18.1284 48.6934 18.0111 48.6331 17.9096C48.5729 17.8066 48.4881 17.7265 48.3787 17.6694C48.2693 17.6108 48.1417 17.5815 47.9959 17.5815H47.5037V18.9416H47.9959Z" fill="#372011"/>
<defs>
<linearGradient id="paint0_linear_8_6906" x1="2.61199" y1="5.55429" x2="6.99645" y2="8.65845" gradientUnits="userSpaceOnUse">
<stop stop-color="#F0DB92"/>
<stop offset="1" stop-color="#BF9033"/>
</linearGradient>
<linearGradient id="paint1_linear_8_6906" x1="7.74106" y1="7.71722" x2="8.61501" y2="8.04219" gradientUnits="userSpaceOnUse">
<stop stop-color="#F0DB92"/>
<stop offset="1" stop-color="#BF9033"/>
</linearGradient>
<linearGradient id="paint2_linear_8_6906" x1="5.88969" y1="7.37971" x2="6.57602" y2="8.21447" gradientUnits="userSpaceOnUse">
<stop stop-color="#F0DB92"/>
<stop offset="1" stop-color="#BF9033"/>
</linearGradient>
<linearGradient id="paint3_linear_8_6906" x1="2.68214" y1="3.38274" x2="3.13423" y2="4.69994" gradientUnits="userSpaceOnUse">
<stop stop-color="#F0DB92"/>
<stop offset="1" stop-color="#BF9033"/>
</linearGradient>
<linearGradient id="paint4_linear_8_6906" x1="5.32816" y1="7.58919" x2="5.82368" y2="9.32092" gradientUnits="userSpaceOnUse">
<stop stop-color="#F0DB92"/>
<stop offset="1" stop-color="#BF9033"/>
</linearGradient>
<linearGradient id="paint5_linear_8_6906" x1="2.51444" y1="4.79233" x2="3.15881" y2="5.30249" gradientUnits="userSpaceOnUse">
<stop stop-color="#F0DB92"/>
<stop offset="1" stop-color="#BF9033"/>
</linearGradient>
<linearGradient id="paint6_linear_8_6906" x1="6.27999" y1="4.69067" x2="6.88879" y2="4.84959" gradientUnits="userSpaceOnUse">
<stop stop-color="#F0DB92"/>
<stop offset="1" stop-color="#BF9033"/>
</linearGradient>
<linearGradient id="paint7_linear_8_6906" x1="7.02305" y1="5.44425" x2="7.71288" y2="5.61603" gradientUnits="userSpaceOnUse">
<stop stop-color="#F0DB92"/>
<stop offset="1" stop-color="#BF9033"/>
</linearGradient>
<linearGradient id="paint8_linear_8_6906" x1="4.61007" y1="5.10765" x2="4.90659" y2="6.30993" gradientUnits="userSpaceOnUse">
<stop stop-color="#F0DB92"/>
<stop offset="1" stop-color="#BF9033"/>
</linearGradient>
<linearGradient id="paint9_linear_8_6906" x1="0.929038" y1="5.17105" x2="1.49032" y2="5.53898" gradientUnits="userSpaceOnUse">
<stop stop-color="#F0DB92"/>
<stop offset="1" stop-color="#BF9033"/>
</linearGradient>
<linearGradient id="paint10_linear_8_6906" x1="5.23942" y1="4.27253" x2="6.00294" y2="4.6105" gradientUnits="userSpaceOnUse">
<stop stop-color="#F0DB92"/>
<stop offset="1" stop-color="#BF9033"/>
</linearGradient>
<linearGradient id="paint11_linear_8_6906" x1="1.71618" y1="4.97199" x2="2.29921" y2="5.26556" gradientUnits="userSpaceOnUse">
<stop stop-color="#F0DB92"/>
<stop offset="1" stop-color="#BF9033"/>
</linearGradient>
<linearGradient id="paint12_linear_8_6906" x1="1.76445" y1="3.55941" x2="2.1458" y2="4.71203" gradientUnits="userSpaceOnUse">
<stop stop-color="#F0DB92"/>
<stop offset="1" stop-color="#BF9033"/>
</linearGradient>
<linearGradient id="paint13_linear_8_6906" x1="4.23565" y1="5.10297" x2="4.70208" y2="5.73409" gradientUnits="userSpaceOnUse">
<stop stop-color="#F0DB92"/>
<stop offset="1" stop-color="#BF9033"/>
</linearGradient>
<linearGradient id="paint14_linear_8_6906" x1="7.58653" y1="6.43951" x2="8.40432" y2="6.69806" gradientUnits="userSpaceOnUse">
<stop stop-color="#F0DB92"/>
<stop offset="1" stop-color="#BF9033"/>
</linearGradient>
<linearGradient id="paint15_linear_8_6906" x1="4.12848" y1="3.96536" x2="4.83713" y2="4.36489" gradientUnits="userSpaceOnUse">
<stop stop-color="#F0DB92"/>
<stop offset="1" stop-color="#BF9033"/>
</linearGradient>
<linearGradient id="paint16_linear_8_6906" x1="5.22069" y1="5.68985" x2="5.69911" y2="7.26918" gradientUnits="userSpaceOnUse">
<stop stop-color="#F0DB92"/>
<stop offset="1" stop-color="#BF9033"/>
</linearGradient>
<linearGradient id="paint17_linear_8_6906" x1="1.24556" y1="4.5031" x2="1.639" y2="5.04468" gradientUnits="userSpaceOnUse">
<stop stop-color="#F0DB92"/>
<stop offset="1" stop-color="#BF9033"/>
</linearGradient>
<linearGradient id="paint18_linear_8_6906" x1="3.37149" y1="4.87682" x2="3.91301" y2="5.47915" gradientUnits="userSpaceOnUse">
<stop stop-color="#F0DB92"/>
<stop offset="1" stop-color="#BF9033"/>
</linearGradient>
</defs>
</svg>
