<svg width="57" height="69" viewBox="0 0 57 69" fill="none" xmlns="http://www.w3.org/2000/svg">
<path d="M33.6916 68.1079C30.7358 65.2432 29.4861 63.214 29.4861 62.0346C29.4861 61.2253 30.0652 60.1374 31.6767 58.7931C33.021 57.72 33.9137 56.5143 33.9137 55.4375V51.7963C30.6355 55.8295 26.7871 57.9615 22.8089 57.9615C18.7834 57.9615 15.2965 56.4891 12.3406 53.5403L12.3477 53.5257H15.9557C19.2339 53.5257 22.3915 52.7748 25.4281 51.2694C27.1592 50.4112 28.7989 49.3267 30.3465 48.0148C32.2583 46.3942 34.2487 44.2974 36.001 42.4824V53.7871C36.001 56.7258 36.2233 57.3995 33.8045 59.5893C32.7336 60.5587 31.6767 61.3396 31.6767 62.0458C31.783 62.8003 31.8431 63.6225 32.8971 64.4879C33.4511 62.1912 35.8994 60.8607 37.6433 60.3815C40.5143 59.5923 42.4291 59.1049 42.8003 55.9988C42.8266 55.7783 42.8498 54.7488 42.8604 54.5008L44.9475 54.1522L44.9444 55.5187C44.9444 56.9727 44.4142 58.3723 43.4985 59.7272C42.1383 61.3058 40.4237 61.5952 38.6687 62.2542C36.2274 63.1712 33.6916 65.2812 33.6916 68.1079Z" fill="#372011"/>
<path d="M12.3044 53.5227C8.76601 52.9293 5.87268 51.3468 3.62014 48.7718C1.36331 46.1895 0.235229 43.2079 0.235229 39.8232C0.235229 36.0579 1.66019 32.8344 4.50608 30.1458C7.35624 27.4609 10.7695 26.1167 14.7478 26.1167H16.7625C19.5023 26.1167 21.9344 27.4463 24.059 30.1057C26.183 32.7685 27.2421 36.0065 27.2421 39.8232C24.2456 37.7538 22.3371 36.9625 19.5756 36.7025C16.1947 36.3874 13.4733 36.4864 11.0371 39.2592C9.48025 41.032 8.70053 43.2334 8.70053 45.867C8.70053 48.5483 9.9053 51.0978 12.3121 53.5115L12.3044 53.5227ZM7.08878 48.6915C6.55 47.2921 6.28249 45.9476 6.28249 44.6582C6.28249 41.7572 7.3009 39.2848 9.34501 37.2409C12.1834 34.4058 15.1729 33.9919 18.9562 34.219C20.641 34.3216 21.5973 34.6659 24.0182 35.7904C23.2126 33.6402 22.0041 31.8931 20.3924 30.5488C18.7768 29.2045 17.0299 28.5343 15.1504 28.5343C11.6562 28.5343 8.70054 29.6624 6.28249 31.9224C3.86143 34.1788 2.65261 36.9479 2.65261 40.2261C2.65261 44.1492 4.13256 46.9696 7.08878 48.6915Z" fill="#372011"/>
<path d="M35.1623 17.846C34.6623 17.1698 34.2881 16.4523 34.0388 15.6937C31.0408 6.56738 39.731 -1.78897 48.6091 0.333216C52.1941 1.19022 55.1639 3.79746 55.9304 8.1101C56.4233 10.884 55.8195 13.8603 53.4872 15.7695C53.3258 10.1668 39.7274 10.4354 35.1886 17.8452L35.1623 17.846Z" fill="#372011"/>
<path d="M34.6199 22.3399C35.2999 22.4837 36.4857 22.2521 36.9049 21.6524C37.5355 20.7505 36.7923 19.7206 36.2259 19.0259C35.957 18.6961 35.6231 18.316 35.2244 17.8857L35.1864 17.8838C34.8673 18.1991 34.4122 18.6818 34.048 19.2162C33.3331 20.2659 33.0964 22.0173 34.6199 22.3399Z" fill="#372011"/>
<path d="M42.8601 34.0843H36.001V53.8796C35.9765 53.9091 35.9602 53.9473 35.9577 53.9934L35.8589 56.4818H34.9574C34.381 56.4818 33.9137 56.0145 33.9137 55.4382L33.8932 31.6379C33.8932 31.3323 34.1312 31.3148 34.3405 31.124C34.5259 30.9551 34.6866 31.997 34.9574 31.997H43.9037C44.4801 31.997 44.9474 32.4642 44.9474 33.0406V55.4382C44.9474 56.0145 44.4801 56.4818 43.9037 56.4818H42.8629L42.8601 54.3945V54.2097V53.8122V34.0843Z" fill="#372011"/>
<path d="M33.9739 33.4328C33.9227 33.3158 33.8933 33.1801 33.8933 33.026V29.3643C33.8933 29.1701 33.9227 29.0088 33.9776 28.8878C34.0253 28.7815 34.0948 28.6901 34.1902 28.6134C34.3256 28.5106 34.4611 28.4339 34.5965 28.3861C34.7285 28.3382 34.8677 28.3165 35.0142 28.3165C35.1606 28.3165 35.2998 28.3382 35.4281 28.3861C35.5672 28.4339 35.6991 28.5106 35.8311 28.6097C35.9153 28.6829 35.9775 28.7669 36.0178 28.8661C36.0728 28.9977 36.0984 29.1624 36.0984 29.3643V31.0815V31.9421H36.9592L44.7529 31.8988H45.6135V31.0382V26.1774V25.3168H44.7529H31.8094H30.9486V26.1774V30.2944C30.9486 30.5069 30.923 30.6793 30.8642 30.8074C30.8241 30.91 30.7618 30.9903 30.6775 31.053L30.6629 31.0564C30.5347 31.1587 30.4029 31.2325 30.2673 31.2797C30.1354 31.3239 29.9925 31.3458 29.8424 31.3458C29.6995 31.3458 29.564 31.3239 29.4358 31.2797C29.3039 31.2325 29.172 31.1587 29.0438 31.0564L29.0292 31.053C28.8498 30.9171 28.7581 30.6645 28.7581 30.2944V24.2323C28.7581 24.0676 28.7839 23.9246 28.8315 23.8002C28.8828 23.6792 28.9597 23.5583 29.066 23.4413V23.4449C29.1868 23.3238 29.3077 23.24 29.4285 23.1885C29.5458 23.1373 29.6848 23.1113 29.8424 23.1113H46.698C46.855 23.1113 46.9979 23.1373 47.1224 23.1922C47.2506 23.2435 47.3715 23.3278 47.4814 23.4378C47.5988 23.5545 47.6832 23.6792 47.7381 23.815C47.793 23.9395 47.8184 24.0788 47.8184 24.2323V32.9827C47.8184 33.144 47.793 33.2796 47.7418 33.4007C47.6903 33.5217 47.6059 33.6422 47.4854 33.7595L47.489 33.7633C47.368 33.8806 47.2435 33.9686 47.1116 34.0234C46.9908 34.0749 46.8515 34.1038 46.698 34.1038L34.9776 34.1471C34.8495 34.1471 34.7249 34.1217 34.6114 34.0704C34.4832 34.0154 34.3584 33.9239 34.2376 33.8028C34.1167 33.6818 34.0289 33.5573 33.9739 33.4328Z" fill="#372011"/>
</svg>
