<svg width="43" height="50" viewBox="0 0 43 50" fill="none" xmlns="http://www.w3.org/2000/svg">
<path d="M18.5452 47.7822C14.7835 44.5584 12.9006 41.0643 12.9006 37.3021V29.2402H7.2561V35.6905C7.2561 38.8594 8.33306 41.6028 10.4832 43.9137C12.6334 46.2249 15.3219 47.5147 18.5452 47.7822Z" fill="#372011"/>
<path d="M42.1311 29.2401H15.3219V36.4963C15.3219 39.3462 16.2083 41.8847 17.9811 44.115C19.754 46.3458 22.091 47.8369 24.9956 48.5878L25.1311 48.5436L25.1824 48.6901C24.1275 49.1593 22.721 49.3971 20.9626 49.3971H18.5452C14.7286 49.3971 11.4905 48.0636 8.83135 45.4049C6.16839 42.7453 4.83868 39.5074 4.83868 35.6904V29.2401H1.61543C0.534736 29.2401 0 28.7275 0 28.0316C0 27.2257 0.538354 26.8228 1.61543 26.8228C16.9488 26.8228 26.8086 26.8228 42.1311 26.8228V29.2401Z" fill="#372011"/>
<path d="M25.1714 48.5289C26.7904 47.9611 28.5778 46.7196 30.2336 44.5583C32.2298 41.9539 33.9989 40.5259 35.878 40.5259C36.9 40.5259 37.7608 40.8222 38.4604 41.4156C39.1564 42.0052 39.508 42.7855 39.508 43.7526C39.508 45.3642 38.7277 46.7084 37.1675 47.7816C35.6106 48.859 33.7022 49.3972 31.4458 49.3972C28.8122 49.3972 26.7941 49.1262 25.3985 48.5875C25.3399 48.6169 25.2813 48.6465 25.2191 48.6753L25.1714 48.5289Z" fill="#372011"/>
<path fill-rule="evenodd" clip-rule="evenodd" d="M26.5875 26.8232C28.6157 26.3953 30.3222 24.9945 30.6761 22.9286L30.7553 22.2843C30.7699 22.0837 30.7962 21.8626 30.8082 21.6573C30.8658 20.6798 30.8665 19.9789 30.7503 19.0326C30.7161 18.7529 30.5023 17.3883 30.4102 17.2069C30.3216 16.7163 29.9554 15.7341 29.7833 15.274L29.4313 14.4759C29.2763 14.1909 28.9879 13.564 28.8195 13.3147L27.9749 11.9837C27.9169 11.896 27.8636 11.8357 27.8059 11.7485C27.7783 11.7065 27.7581 11.6722 27.7291 11.6321C27.6964 11.5867 27.6757 11.5723 27.6427 11.5222C27.614 11.479 27.5909 11.4373 27.5592 11.3976L27.12 10.8269C27.088 10.7883 27.0686 10.7583 27.0341 10.7165L26.1928 9.73088C26.1222 9.65479 26.0597 9.5931 25.9929 9.5181C25.9564 9.47698 25.924 9.44845 25.884 9.40824C25.4066 8.93017 25.0376 8.5592 24.4734 8.11833L23.5494 7.43099C23.4764 7.37571 23.5208 7.41659 23.5171 7.38855C23.4611 7.37378 22.6138 6.81088 22.463 6.72466C21.7962 6.34361 21.4007 6.1198 20.6883 5.79205C20.5758 5.74038 20.4648 5.69088 20.3383 5.63825C19.8637 5.44036 18.5914 4.93794 18.0873 4.83593C18.0358 4.80451 17.3955 4.63329 17.289 4.61218C17.1282 4.58035 17.0281 4.54393 16.8755 4.51342C16.732 4.48466 16.5886 4.45536 16.4452 4.42636L15.5978 4.25429C15.5207 4.23964 15.5127 4.24953 15.4459 4.2397C15.3378 4.22384 15.2304 4.18518 15.1222 4.17837L14.4857 4.09173C14.3771 4.07515 14.2679 4.05279 14.1591 4.04537C14.0796 4.04 13.9497 4.0297 13.8578 4.01113C13.3294 3.94348 12.3869 3.90302 11.8912 3.88505C10.7555 3.84387 8.63157 4.03778 7.49963 4.34376C7.42511 4.3639 7.36145 4.37969 7.29217 4.39959C7.19299 4.42805 6.78445 4.60145 6.72693 4.59475C6.742 4.52807 6.75399 4.53399 6.80012 4.51107L7.26799 4.30487L7.87791 4.11892C8.62319 3.93298 9.28081 3.81324 10.0556 3.75566C10.6761 3.70959 11.2956 3.67113 11.9406 3.66854C12.271 3.66715 13.5492 3.68295 13.9301 3.73185L14.8887 3.82638C15.0593 3.83579 15.4354 3.90573 15.5497 3.91134C15.6729 3.91749 16.0808 3.99622 16.2166 4.02456C16.3362 4.04946 16.4157 4.04916 16.5471 4.07569C16.7157 4.10988 18.1173 4.41503 18.1922 4.47049L18.9862 4.69557C20.6572 5.21927 21.9127 5.82672 23.3714 6.688L23.6668 6.87744L24.165 7.20364C24.2527 7.26327 24.3284 7.31161 24.4126 7.37389L25.1191 7.90864L26.2147 8.85602C26.7648 9.38243 27.6673 10.3427 28.0993 10.9491L28.3478 11.286C28.3802 11.3348 28.4018 11.3485 28.4345 11.3957L28.5975 11.6221C28.7037 11.7804 28.7998 11.9279 28.9053 12.0869L29.7004 13.4756C29.724 13.5242 29.715 13.4871 29.7278 13.5458C29.7619 13.5823 29.7848 13.6387 29.8096 13.687C30.1747 14.3987 30.382 14.9463 30.681 15.6692L30.7965 15.9857C30.8518 16.0648 31.1283 16.948 31.1642 17.0726C31.1769 17.1168 31.1903 17.1441 31.203 17.1884C31.3869 17.827 31.4887 18.3236 31.6019 18.9951C31.7323 19.7702 31.7565 20.469 31.7542 21.2613C31.7359 24.3136 31.3742 25.8068 30.8375 26.8232H26.5875Z" fill="url(#paint0_linear_2070_268)"/>
<path fill-rule="evenodd" clip-rule="evenodd" d="M32.4557 23.3819C32.5123 23.3933 32.697 23.2886 32.7474 23.2593L33.6708 22.6342C33.9712 22.3877 34.2402 22.14 34.4983 21.8453C34.7101 21.6035 34.7328 21.5585 34.9132 21.3266C35.319 20.8051 35.7231 19.9241 35.8546 19.2742C36.0301 18.4068 36.0256 17.835 35.8734 16.9974C35.8617 16.9333 35.8447 16.8215 35.8156 16.7783C35.7573 16.6921 35.7033 16.7183 35.62 16.7486L35.1084 16.9666C34.6321 17.2053 34.5119 17.2925 34.1009 17.6006C33.9813 17.6903 33.8862 17.7828 33.7737 17.883C33.7183 17.9324 33.6692 17.9826 33.6177 18.0357C33.4454 18.2134 33.3255 18.3594 33.1792 18.5577C32.5247 19.4447 32.1896 20.5977 32.205 21.7342C32.2132 22.3435 32.2543 22.6659 32.3545 23.256C32.3648 23.3167 32.3854 23.3676 32.4557 23.3819Z" fill="url(#paint1_linear_2070_268)"/>
<path fill-rule="evenodd" clip-rule="evenodd" d="M25.4084 15.8145C25.157 15.7915 24.6233 15.8972 24.3925 15.9596C24.1187 16.0336 23.8511 16.1284 23.5953 16.2512C23.4323 16.3294 23.5542 16.5077 23.6531 16.6775C23.7495 16.8428 23.9158 17.1396 24.0271 17.2785C24.4246 17.7752 24.7201 18.1635 25.295 18.5473C25.6449 18.7809 25.8494 18.8908 26.2504 19.0456C26.8731 19.286 27.8106 19.3607 28.4726 19.2194C28.4757 19.2188 28.5018 19.2119 28.504 19.2111C28.5338 19.201 28.5159 19.209 28.5298 19.1995C28.6023 19.2005 28.6862 19.1798 28.7562 19.1628L29.3739 18.9884C29.4471 18.9651 29.9056 18.8029 29.9519 18.7532C30.0152 18.6852 29.9769 18.6074 29.9411 18.5526C29.5867 18.0096 29.3427 17.7499 28.874 17.2922L28.3875 16.8816C27.8329 16.4873 27.1689 16.0742 26.4899 15.9404C26.2197 15.8872 25.6734 15.7747 25.4084 15.8145Z" fill="url(#paint2_linear_2070_268)"/>
<path fill-rule="evenodd" clip-rule="evenodd" d="M14.8419 2.35404C14.8413 2.28603 14.7503 2.17335 14.7117 2.11504C14.6572 2.03299 14.6175 1.96274 14.5517 1.88659C14.3969 1.70752 14.4163 1.69202 14.1782 1.45254C13.8444 1.11683 13.3191 0.760562 12.8468 0.650528C12.396 0.545437 12.2307 0.530966 11.7669 0.556108C11.4962 0.570759 10.8751 0.706234 10.5971 0.829051C10.466 0.886932 10.5293 0.990456 10.5753 1.07673L11.1143 1.90275C11.9234 2.85357 12.9317 3.53928 14.3315 3.34906C14.5508 3.32012 14.5941 3.29967 14.7743 3.26639C14.8527 3.25186 14.8999 3.22889 14.9794 3.20689C15.0314 3.19254 15.1417 3.16359 15.1684 3.12109C15.2071 3.05947 15.1538 2.97018 15.1319 2.91694C15.1023 2.84519 15.0793 2.79702 15.0496 2.72708L14.9094 2.4472C14.8809 2.39022 14.8984 2.39528 14.8419 2.35404Z" fill="url(#paint3_linear_2070_268)"/>
<path fill-rule="evenodd" clip-rule="evenodd" d="M24.9986 23.064C25.1169 23.1964 25.7026 23.4605 25.8941 23.5406C26.1515 23.6483 26.2466 23.6479 26.4437 23.7164C26.5299 23.7463 26.6324 23.7656 26.7428 23.7881L27.3187 23.8611C27.4231 23.8691 27.4975 23.8755 27.5999 23.8777C28.3121 23.8926 28.9035 23.78 29.565 23.6012C29.7193 23.5595 29.8659 23.5114 30.0122 23.4607C30.2999 23.3613 30.0723 23.1742 29.9072 22.9238C29.837 22.8171 29.5688 22.5116 29.4718 22.4022C29.3668 22.2837 29.2637 22.1868 29.1497 22.0755C28.9251 21.8565 28.6898 21.6617 28.4309 21.469C28.358 21.4022 28.0881 21.226 27.9857 21.1623L27.4908 20.8766C27.3599 20.8209 27.2375 20.7576 27.0991 20.6956C26.9839 20.6441 26.7885 20.5643 26.6585 20.538C26.6346 20.5157 26.6116 20.5149 26.5729 20.5042C26.2681 20.4203 26.2517 20.3973 25.879 20.3334C25.6436 20.2931 25.3466 20.279 25.1048 20.2721C24.781 20.2627 24.3912 20.3151 24.0774 20.3716C24.0171 20.3824 23.9812 20.3916 23.9208 20.4072C23.5131 20.5117 23.558 20.5029 23.1615 20.6395C22.9314 20.7187 23.0472 20.8462 23.2126 21.1512L23.5498 21.6608C23.5942 21.7223 23.861 22.101 23.9387 22.138C23.9604 22.1944 24.2617 22.4988 24.3332 22.5474C24.3681 22.6048 24.8987 23.034 24.9986 23.064Z" fill="url(#paint4_linear_2070_268)"/>
<path fill-rule="evenodd" clip-rule="evenodd" d="M8.48688 7.36373C8.69875 7.4066 9.03423 7.35982 9.22602 7.33359C9.57771 7.2856 9.99125 7.1591 10.3092 7.00758C10.3587 6.98395 10.4067 6.96447 10.4556 6.93746C10.6802 6.81331 10.8463 6.71571 11.0472 6.54924C11.0706 6.52988 11.0837 6.52325 11.1072 6.50396L11.4535 6.1727C11.826 5.78056 12.1528 5.15225 12.306 4.62638C12.3253 4.56006 12.4173 4.28192 12.4123 4.21921C12.4027 4.09893 12.242 4.1034 12.0956 4.09586C11.9615 4.08899 11.831 4.08054 11.715 4.08452C11.1776 4.10291 10.7459 4.20583 10.2701 4.44712C10.2134 4.47588 10.1821 4.50085 10.1304 4.52744L9.92921 4.65085C9.89702 4.67527 9.89575 4.68263 9.86349 4.70687C9.04134 5.32499 8.62887 6.27985 8.42761 7.27438C8.42062 7.30905 8.45227 7.35668 8.48688 7.36373Z" fill="url(#paint5_linear_2070_268)"/>
<path fill-rule="evenodd" clip-rule="evenodd" d="M25.8357 6.86373C26.0116 7.73081 26.5431 8.59083 27.2423 9.13714C27.4476 9.29746 27.4413 9.32 27.5769 9.06611C27.7366 8.76706 27.8693 8.3845 27.9745 8.05578C28.0048 7.96094 28.1024 7.54535 28.1068 7.45714C28.1142 7.30701 28.1599 7.09333 28.1663 6.89021C28.1724 6.6951 28.1684 6.54123 28.1603 6.35378C28.1447 5.99184 28.0385 5.51655 27.9118 5.1806C27.8617 5.04771 27.6886 4.63488 27.6123 4.56615C27.5975 4.48783 27.5433 4.42916 27.4983 4.36133C27.452 4.29145 27.4142 4.23478 27.3679 4.16478C27.2771 4.02743 27.1774 3.91939 27.0768 3.78777C27.0462 3.75811 27.0235 3.72911 26.9921 3.69366C26.8085 3.48655 26.6007 3.30489 26.3965 3.12389C26.3478 3.08078 26.3336 3.06992 26.251 3.05322C26.2119 3.09193 26.2173 3.0686 26.1835 3.126C26.1638 3.15928 26.151 3.19527 26.1374 3.2312L25.9799 3.69184C25.8786 4.01176 25.8581 4.15888 25.7894 4.49157C25.7683 4.59365 25.7742 4.63959 25.7531 4.74728C25.7403 4.81275 25.7461 4.82463 25.7414 4.87094C25.7386 4.89734 25.7318 4.91947 25.7292 4.94335C25.7242 4.98905 25.7269 4.93093 25.7273 4.96951C25.7276 5.00979 25.7229 4.98096 25.733 5.00134C25.6992 5.16854 25.6982 5.35008 25.697 5.50498C25.6939 5.9014 25.7122 6.26629 25.7873 6.65445C25.7989 6.71432 25.8151 6.80766 25.8357 6.86373Z" fill="url(#paint6_linear_2070_268)"/>
<path fill-rule="evenodd" clip-rule="evenodd" d="M31.0486 7.09356C31.0395 7.03447 30.9524 6.93717 30.9225 6.87561L30.5454 6.32809C30.5086 6.2854 30.4852 6.25152 30.4258 6.26014C30.2825 6.28088 29.8504 7.12491 29.7977 7.23579C29.7097 7.42161 29.6226 7.61034 29.5471 7.80828C29.4303 8.11456 29.1704 8.87401 29.1586 9.13936C29.1532 9.25904 29.1036 9.38149 29.0959 9.50274C29.0821 9.71733 29.0468 9.9228 29.0432 10.168C29.0389 10.4716 29.0497 10.8094 29.0959 11.098C29.1677 11.5466 29.2282 11.7728 29.3857 12.1923C29.4182 12.279 29.4475 12.3518 29.486 12.4345L29.6679 12.7899C29.6983 12.8383 29.7041 12.8641 29.7357 12.9122C29.8154 13.0338 29.8405 13.0923 29.9189 13.1895C30.0348 13.333 30.1835 13.6696 30.3313 13.567C30.3854 13.5295 30.5464 13.3144 30.6071 13.2511C30.6493 13.1929 30.685 13.1408 30.7293 13.0808C30.7936 12.9938 31.0574 12.6031 31.0784 12.5223L31.2099 12.2926C31.2537 12.2077 31.2911 12.1313 31.3304 12.0475C31.4051 11.8885 31.4858 11.689 31.5433 11.5153C31.7859 10.7834 31.8669 10.1849 31.8111 9.42539L31.7404 8.90621C31.6832 8.59341 31.6608 8.56507 31.5884 8.29942C31.572 8.23943 31.5683 8.22453 31.5411 8.17624C31.5393 8.11703 31.5178 8.09027 31.4984 8.03745C31.4774 7.98053 31.4643 7.94412 31.4435 7.89371C31.3397 7.64066 31.1959 7.32339 31.0486 7.09356Z" fill="url(#paint7_linear_2070_268)"/>
<path fill-rule="evenodd" clip-rule="evenodd" d="M22.3735 10.4983C22.6889 10.5621 23.0518 10.5496 23.304 10.5184C23.615 10.4799 23.8142 10.4424 24.117 10.3282C24.2674 10.2714 24.5005 10.165 24.6473 10.0804L24.9689 9.86685C25.016 9.83544 25.1008 9.80421 25.0928 9.7286C25.0851 9.65564 24.899 9.47344 24.843 9.41695C24.2954 8.86442 23.3812 8.258 22.5466 8.13561C22.3305 8.10395 21.7277 8.05825 21.6005 8.11439C21.5187 8.10353 21.3451 8.14031 21.2722 8.15381C21.166 8.17347 21.0649 8.19939 20.9606 8.22725C20.8485 8.25709 20.4615 8.38624 20.395 8.44285C20.3074 8.44912 19.8002 8.74125 19.7085 8.80275C19.6599 8.83543 19.6238 8.85996 19.5744 8.89155C19.4427 8.97584 19.4354 9.02769 19.5682 9.14683C19.804 9.3584 20.3644 9.78799 20.6721 9.92202C20.7275 9.9679 20.9514 10.0645 21.0349 10.1036C21.1631 10.1637 21.2922 10.2189 21.4401 10.2721C21.5804 10.3227 22.2228 10.5309 22.3735 10.4983Z" fill="url(#paint8_linear_2070_268)"/>
<path fill-rule="evenodd" clip-rule="evenodd" d="M1.37107 8.89388C1.49166 8.9183 1.78486 8.87279 1.8967 8.85235C2.06697 8.82124 2.22096 8.77541 2.37573 8.72108C2.86802 8.54834 3.40415 8.18979 3.71285 7.76955C4.01908 7.35268 4.19199 6.95475 4.30848 6.37901C4.33495 6.24811 4.33802 6.16666 4.36021 6.04873C4.40019 5.8365 4.26116 5.84325 3.92484 5.85886C3.24016 5.89064 2.54799 6.13325 2.09471 6.66853C1.60085 7.25169 1.42443 7.88579 1.32833 8.65205C1.3185 8.73025 1.29082 8.87766 1.37107 8.89388Z" fill="url(#paint9_linear_2070_268)"/>
<path fill-rule="evenodd" clip-rule="evenodd" d="M23.9556 3.74903C23.9606 3.68277 23.81 3.40596 23.7692 3.33602C23.4857 2.85006 23.1357 2.40799 22.663 2.08862C22.5998 2.04593 22.4502 1.92794 22.3808 1.92137C22.3225 1.83442 21.8486 1.63745 21.7661 1.6029C21.5449 1.51065 21.2727 1.43089 21.0194 1.36451C20.8065 1.30867 20.8726 1.771 20.8826 1.97039L20.9636 2.65682C20.982 2.69414 20.9896 2.76637 20.9992 2.81931C21.0391 3.0392 21.1748 3.55651 21.2567 3.75686C21.3493 3.9835 21.4096 4.17331 21.534 4.40731L21.7735 4.82731C21.8061 4.87627 21.8299 4.91226 21.8624 4.96134C21.9344 5.06993 21.9162 5.07795 21.9728 5.08494C21.9848 5.13577 21.974 5.10761 22.0009 5.15307C22.0393 5.21758 22.2718 5.46936 22.3211 5.51898C22.4199 5.61834 22.6421 5.82443 22.7682 5.89341C22.8688 6.00652 23.3229 6.22435 23.4829 6.29212C23.6319 6.35513 23.7549 6.39118 23.9271 6.43477C24.0737 6.47191 24.2669 6.57514 24.2966 6.39336C24.3654 5.97143 24.3387 5.30988 24.2749 4.87891C24.2687 4.83695 24.2638 4.72469 24.2322 4.69768C24.2484 4.57872 24.0285 3.81686 23.9556 3.74903Z" fill="url(#paint10_linear_2070_268)"/>
<path fill-rule="evenodd" clip-rule="evenodd" d="M7.27306 4.87549C7.0123 4.9429 7.05131 4.90787 6.73995 5.02164C5.79589 5.36634 5.20858 6.14629 5.00256 7.15408C4.95988 7.36264 4.89054 8.17056 4.9363 8.36887C4.94993 8.42807 4.97621 8.45424 5.03897 8.45279C5.12302 8.45111 5.44565 8.35023 5.52101 8.3234L5.89194 8.16495C6.02573 8.10195 6.1251 8.03201 6.24864 7.96562L6.46689 7.80989C6.57578 7.72753 6.78391 7.53634 6.86295 7.43764L7.05921 7.20943C7.12107 7.13039 7.17895 7.03826 7.23171 6.94577C7.60034 6.29991 7.70176 5.734 7.70019 5.0041C7.69989 4.89135 7.69886 4.92649 7.666 4.84667C7.54753 4.82273 7.36417 4.85294 7.27306 4.87549Z" fill="url(#paint11_linear_2070_268)"/>
<path fill-rule="evenodd" clip-rule="evenodd" d="M8.72171 3.46676C9.11078 3.54544 9.35551 3.52283 9.66879 3.48255C9.96483 3.44451 10.1072 3.3838 10.3569 3.298C10.4997 3.24898 10.4639 3.1847 10.4132 3.07521C10.2817 2.79111 10.1385 2.504 9.93486 2.26042L9.77497 2.05777C8.90494 1.08313 7.84686 0.831172 6.6205 1.2537C6.55979 1.27469 6.32525 1.35487 6.29245 1.38092C6.19906 1.45502 6.30897 1.56493 6.3733 1.68992C6.42039 1.78133 6.49027 1.90698 6.56039 1.97753C6.95247 2.48857 7.36361 2.93232 7.97878 3.22366C8.27638 3.36456 8.39143 3.3999 8.72171 3.46676Z" fill="url(#paint12_linear_2070_268)"/>
<path fill-rule="evenodd" clip-rule="evenodd" d="M18.4477 8.09493C18.8117 8.05978 18.7127 8.1015 19.1495 8.01823C19.4851 7.9542 19.6642 7.84254 19.7906 7.8098C19.9046 7.72828 20.1321 7.66479 20.4631 7.38021C20.5689 7.28929 20.6662 7.20899 20.7584 7.10763C20.8515 7.00526 21.0988 6.73466 21.1545 6.6189C21.1897 6.54588 21.1339 6.49107 21.0756 6.44809C20.955 6.35939 20.8492 6.27782 20.7128 6.19986C20.4801 6.06691 20.1219 5.86583 19.8516 5.81115C19.7586 5.75085 19.333 5.68538 19.2182 5.67821C18.9217 5.65976 18.945 5.65958 18.6534 5.68026C17.8742 5.73543 17.0835 6.25931 16.572 6.80924C16.5113 6.87454 16.4679 6.92349 16.4097 6.99126C16.3558 7.05409 16.2984 7.10636 16.2584 7.18016C16.2037 7.2369 16.0903 7.35411 16.1757 7.43442C16.3022 7.55313 16.8454 7.77996 17.0296 7.84574C17.2642 7.92973 17.4687 7.97403 17.7418 8.02944C18.1443 8.11114 18.2454 8.06834 18.4477 8.09493Z" fill="url(#paint13_linear_2070_268)"/>
<path fill-rule="evenodd" clip-rule="evenodd" d="M34.7985 14.4788C34.8882 14.3726 34.9807 13.2741 34.9515 13.1874C34.968 13.0965 34.9535 12.9653 34.9495 12.8762C34.9472 12.8233 34.9442 12.6249 34.9201 12.5732C34.9487 12.3772 34.7348 11.4435 34.6831 11.2516L34.5953 10.9497C34.5424 10.7687 34.4323 10.8314 34.345 10.8905C34.1899 10.9954 33.9777 11.141 33.851 11.274C33.7277 11.3328 33.2229 11.8909 33.1018 12.0226L32.828 12.3663C32.7852 12.4266 32.7269 12.4806 32.691 12.5553C32.5598 12.7041 32.3309 13.1043 32.2346 13.2915C32.142 13.4714 32.0283 13.6651 31.9641 13.8623C31.9413 13.8943 31.894 14.0371 31.8741 14.0893C31.8432 14.1702 31.8204 14.2509 31.7869 14.3456C31.7229 14.5257 31.6878 14.7153 31.6464 14.9199C31.5125 15.5823 31.5037 16.2448 31.6203 16.8732C31.6459 17.0115 31.8214 17.82 31.9088 17.8919C31.9881 17.9572 32.1099 17.8768 32.2005 17.8199C32.3644 17.7167 32.4575 17.6787 32.6264 17.5503C32.7202 17.479 32.84 17.4128 32.9569 17.3116C33.4665 16.8707 33.8457 16.5214 34.2103 15.9041C34.2904 15.7684 34.3626 15.6439 34.4333 15.5034C34.4838 15.4033 34.596 15.1739 34.6192 15.0594C34.6795 14.975 34.7698 14.6206 34.7985 14.4788Z" fill="url(#paint14_linear_2070_268)"/>
<path fill-rule="evenodd" clip-rule="evenodd" d="M17.9133 3.91892C17.9463 3.96227 18.1562 4.04596 18.207 4.06742C18.4152 4.15533 18.7602 4.25451 18.978 4.2694L19.2607 4.28815C19.3513 4.277 19.3136 4.24564 19.3331 4.24154C19.3569 4.2366 19.3586 4.12621 19.3586 4.11415C19.3541 3.03605 18.9547 1.81119 18.1473 1.07068C18.0152 0.949608 17.6267 0.643868 17.472 0.596658C17.355 0.519544 16.9522 0.35229 16.7746 0.316355C16.5053 0.26185 16.5753 0.243822 16.1857 0.196311C16.0945 0.185217 15.9508 0.143613 15.8355 0.172795C15.7789 0.296696 15.8222 0.481439 15.845 0.616736C15.9432 1.20001 16.2189 2.01709 16.5363 2.53833C16.598 2.63968 16.927 3.13475 16.9998 3.17725C17.0665 3.28289 17.3004 3.50055 17.4036 3.584C17.4999 3.66171 17.782 3.8822 17.9133 3.91892Z" fill="url(#paint15_linear_2070_268)"/>
<path fill-rule="evenodd" clip-rule="evenodd" d="M24.6214 14.1396C24.7908 14.2766 25.3451 14.4749 25.5747 14.5537C25.6599 14.5829 25.8465 14.635 25.9465 14.6553C26.227 14.712 26.6239 14.7456 26.895 14.7288L27.1947 14.7067C27.1984 14.7053 27.7201 14.6271 28.0637 14.493L28.4646 14.3213C28.514 14.2984 28.5468 14.2775 28.5471 14.2155C28.5475 14.1421 28.4541 14.0118 28.4239 13.9499L28.2045 13.5938C28.1106 13.4832 28.0327 13.3478 27.9087 13.1982C27.8894 13.1748 27.8826 13.1617 27.8633 13.1382C27.8291 13.0966 27.8024 13.0647 27.7651 13.0233C27.6984 12.9493 27.648 12.8868 27.5774 12.8133C27.3841 12.6119 27.2477 12.4976 27.0418 12.3194C26.955 12.2443 26.486 11.921 26.3861 11.8979C26.2817 11.8103 25.9201 11.6683 25.7561 11.6158C25.4793 11.527 25.4528 11.5249 25.1823 11.4685C25.0931 11.45 25.0525 11.4564 24.9847 11.4442C24.6798 11.3826 24.0661 11.4199 23.7498 11.4808L23.6743 11.5073C23.5139 11.4737 22.6545 11.785 22.4462 11.8822C22.4001 11.9038 22.3626 11.9277 22.3598 11.9906C22.3563 12.0662 22.6014 12.3896 22.6617 12.4593C23.0358 12.8906 23.3763 13.294 23.8653 13.6421C24.0148 13.7485 24.4703 14.0935 24.6214 14.1396Z" fill="url(#paint16_linear_2070_268)"/>
<path fill-rule="evenodd" clip-rule="evenodd" d="M6.69355 3.62847C6.62493 3.56498 6.54632 3.5223 6.4642 3.46918C6.24286 3.32592 6.00711 3.22897 5.76003 3.13865C5.69612 3.11532 5.64282 3.1117 5.57921 3.09138C5.18622 2.96597 4.70768 2.99829 4.33266 3.09922C3.90096 3.21547 3.60962 3.40804 3.27711 3.66084C3.23888 3.68984 3.20705 3.72151 3.1713 3.7534C3.03124 3.87815 2.66201 4.19528 2.62402 4.38291C2.68178 4.44115 2.90969 4.60184 3.00441 4.63005C3.0717 4.69348 3.45642 4.84663 3.53281 4.87364C4.127 5.08388 4.7163 5.13236 5.32755 4.98669C5.49167 4.94756 5.66 4.88021 5.80338 4.81184C6.01989 4.70874 6.24943 4.57411 6.43091 4.41964C6.64929 4.23382 6.69626 4.18509 6.88697 3.98227C6.93207 3.9344 6.93744 3.93603 6.95456 3.8515C6.88052 3.77673 6.79448 3.67767 6.69355 3.62847Z" fill="url(#paint17_linear_2070_268)"/>
<path fill-rule="evenodd" clip-rule="evenodd" d="M14.3403 7.20229C14.3985 7.17974 14.4755 7.16346 14.5433 7.14537C15.1122 6.99362 15.7635 6.57597 16.1354 6.13222C16.3506 5.87543 16.7962 5.28654 16.8655 4.94426C16.787 4.86503 16.8321 4.88837 16.6726 4.82777C16.3751 4.71454 16.2143 4.68875 15.8838 4.62188C15.5297 4.55025 15.0026 4.58395 14.7414 4.65377C14.5235 4.66281 14.1341 4.85865 13.9297 4.96012C13.7893 5.02982 13.481 5.26364 13.3589 5.37958C13.1317 5.59525 13.0691 5.6729 12.8648 5.93415C12.737 6.09772 12.244 6.91379 12.2594 7.04776C12.2763 7.19343 12.8489 7.24842 12.9332 7.25891C13.2103 7.29333 13.3945 7.29925 13.637 7.29195C13.869 7.28538 14.1331 7.24944 14.3403 7.20229Z" fill="url(#paint18_linear_2070_268)"/>
<defs>
<linearGradient id="paint0_linear_2070_268" x1="9.27611" y1="8.19093" x2="29.2051" y2="22.3006" gradientUnits="userSpaceOnUse">
<stop stop-color="#F0DB92"/>
<stop offset="1" stop-color="#BF9033"/>
</linearGradient>
<linearGradient id="paint1_linear_2070_268" x1="32.5897" y1="18.0211" x2="36.5621" y2="19.4982" gradientUnits="userSpaceOnUse">
<stop stop-color="#F0DB92"/>
<stop offset="1" stop-color="#BF9033"/>
</linearGradient>
<linearGradient id="paint2_linear_2070_268" x1="24.1746" y1="16.4867" x2="27.2942" y2="20.2811" gradientUnits="userSpaceOnUse">
<stop stop-color="#F0DB92"/>
<stop offset="1" stop-color="#BF9033"/>
</linearGradient>
<linearGradient id="paint3_linear_2070_268" x1="9.59491" y1="-1.67991" x2="11.6498" y2="4.30729" gradientUnits="userSpaceOnUse">
<stop stop-color="#F0DB92"/>
<stop offset="1" stop-color="#BF9033"/>
</linearGradient>
<linearGradient id="paint4_linear_2070_268" x1="21.6222" y1="17.4394" x2="23.8745" y2="25.3108" gradientUnits="userSpaceOnUse">
<stop stop-color="#F0DB92"/>
<stop offset="1" stop-color="#BF9033"/>
</linearGradient>
<linearGradient id="paint5_linear_2070_268" x1="8.83261" y1="4.72757" x2="11.7615" y2="7.04643" gradientUnits="userSpaceOnUse">
<stop stop-color="#F0DB92"/>
<stop offset="1" stop-color="#BF9033"/>
</linearGradient>
<linearGradient id="paint6_linear_2070_268" x1="25.9485" y1="4.26501" x2="28.7157" y2="4.98738" gradientUnits="userSpaceOnUse">
<stop stop-color="#F0DB92"/>
<stop offset="1" stop-color="#BF9033"/>
</linearGradient>
<linearGradient id="paint7_linear_2070_268" x1="29.3261" y1="7.68993" x2="32.4616" y2="8.47073" gradientUnits="userSpaceOnUse">
<stop stop-color="#F0DB92"/>
<stop offset="1" stop-color="#BF9033"/>
</linearGradient>
<linearGradient id="paint8_linear_2070_268" x1="18.3582" y1="6.16025" x2="19.706" y2="11.6251" gradientUnits="userSpaceOnUse">
<stop stop-color="#F0DB92"/>
<stop offset="1" stop-color="#BF9033"/>
</linearGradient>
<linearGradient id="paint9_linear_2070_268" x1="1.62646" y1="6.44754" x2="4.17768" y2="8.11993" gradientUnits="userSpaceOnUse">
<stop stop-color="#F0DB92"/>
<stop offset="1" stop-color="#BF9033"/>
</linearGradient>
<linearGradient id="paint10_linear_2070_268" x1="21.2188" y1="2.36336" x2="24.6893" y2="3.89954" gradientUnits="userSpaceOnUse">
<stop stop-color="#F0DB92"/>
<stop offset="1" stop-color="#BF9033"/>
</linearGradient>
<linearGradient id="paint11_linear_2070_268" x1="5.20432" y1="5.54395" x2="7.85443" y2="6.87837" gradientUnits="userSpaceOnUse">
<stop stop-color="#F0DB92"/>
<stop offset="1" stop-color="#BF9033"/>
</linearGradient>
<linearGradient id="paint12_linear_2070_268" x1="5.42383" y1="-0.876101" x2="7.15719" y2="4.36298" gradientUnits="userSpaceOnUse">
<stop stop-color="#F0DB92"/>
<stop offset="1" stop-color="#BF9033"/>
</linearGradient>
<linearGradient id="paint13_linear_2070_268" x1="16.6563" y1="6.13924" x2="18.7764" y2="9.00794" gradientUnits="userSpaceOnUse">
<stop stop-color="#F0DB92"/>
<stop offset="1" stop-color="#BF9033"/>
</linearGradient>
<linearGradient id="paint14_linear_2070_268" x1="31.8873" y1="12.2141" x2="35.6045" y2="13.3893" gradientUnits="userSpaceOnUse">
<stop stop-color="#F0DB92"/>
<stop offset="1" stop-color="#BF9033"/>
</linearGradient>
<linearGradient id="paint15_linear_2070_268" x1="16.1693" y1="0.968381" x2="19.3904" y2="2.78439" gradientUnits="userSpaceOnUse">
<stop stop-color="#F0DB92"/>
<stop offset="1" stop-color="#BF9033"/>
</linearGradient>
<linearGradient id="paint16_linear_2070_268" x1="21.1337" y1="8.80658" x2="23.3083" y2="15.9852" gradientUnits="userSpaceOnUse">
<stop stop-color="#F0DB92"/>
<stop offset="1" stop-color="#BF9033"/>
</linearGradient>
<linearGradient id="paint17_linear_2070_268" x1="3.06511" y1="3.41225" x2="4.85344" y2="5.87392" gradientUnits="userSpaceOnUse">
<stop stop-color="#F0DB92"/>
<stop offset="1" stop-color="#BF9033"/>
</linearGradient>
<linearGradient id="paint18_linear_2070_268" x1="12.7282" y1="5.11186" x2="15.1896" y2="7.84968" gradientUnits="userSpaceOnUse">
<stop stop-color="#F0DB92"/>
<stop offset="1" stop-color="#BF9033"/>
</linearGradient>
</defs>
</svg>
