<svg width="219" height="9" viewBox="0 0 219 9" fill="none" xmlns="http://www.w3.org/2000/svg">
<path d="M6.56047 4.21719H7.32784V7.10293C6.97478 7.41276 6.55687 7.65054 6.07411 7.81626C5.59135 7.98199 5.08338 8.06485 4.55018 8.06485C3.79362 8.06485 3.11271 7.89913 2.50746 7.56768C1.90221 7.23623 1.42666 6.77869 1.0808 6.19506C0.734946 5.60422 0.562018 4.94493 0.562018 4.21719C0.562018 3.48945 0.734946 2.83376 1.0808 2.25013C1.42666 1.65929 1.90221 1.19815 2.50746 0.8667C3.11271 0.535254 3.79722 0.369531 4.56099 0.369531C5.13742 0.369531 5.66701 0.463201 6.14977 0.65054C6.63253 0.830674 7.03963 1.10087 7.37108 1.46114L6.87391 1.96912C6.27586 1.37828 5.5157 1.08286 4.59341 1.08286C3.98096 1.08286 3.42615 1.21976 2.92898 1.49357C2.43901 1.76016 2.05353 2.13484 1.77252 2.6176C1.49151 3.09315 1.351 3.62635 1.351 4.21719C1.351 4.80803 1.49151 5.34122 1.77252 5.81678C2.05353 6.29233 2.43901 6.66701 2.92898 6.94081C3.41894 7.21462 3.97015 7.35152 4.5826 7.35152C5.36078 7.35152 6.02007 7.15697 6.56047 6.76788V4.21719ZM19.3835 8.06485C18.6342 8.06485 17.9533 7.89913 17.3408 7.56768C16.7356 7.22903 16.26 6.76788 15.9141 6.18425C15.5755 5.60062 15.4062 4.94493 15.4062 4.21719C15.4062 3.48945 15.5755 2.83376 15.9141 2.25013C16.26 1.66649 16.7356 1.20895 17.3408 0.877508C17.9533 0.538857 18.6342 0.369531 19.3835 0.369531C20.1329 0.369531 20.8066 0.535254 21.4046 0.8667C22.0099 1.19815 22.4854 1.65929 22.8313 2.25013C23.1771 2.83376 23.3501 3.48945 23.3501 4.21719C23.3501 4.94493 23.1771 5.60422 22.8313 6.19506C22.4854 6.77869 22.0099 7.23623 21.4046 7.56768C20.8066 7.89913 20.1329 8.06485 19.3835 8.06485ZM19.3835 7.35152C19.9816 7.35152 20.522 7.21822 21.0047 6.95162C21.4875 6.67782 21.8658 6.30314 22.1396 5.82759C22.4134 5.34483 22.5503 4.80803 22.5503 4.21719C22.5503 3.62635 22.4134 3.09315 22.1396 2.6176C21.8658 2.13484 21.4875 1.76016 21.0047 1.49357C20.522 1.21976 19.9816 1.08286 19.3835 1.08286C18.7855 1.08286 18.2415 1.21976 17.7515 1.49357C17.2688 1.76016 16.8869 2.13484 16.6059 2.6176C16.3321 3.09315 16.1952 3.62635 16.1952 4.21719C16.1952 4.80803 16.3321 5.34483 16.6059 5.82759C16.8869 6.30314 17.2688 6.67782 17.7515 6.95162C18.2415 7.21822 18.7855 7.35152 19.3835 7.35152ZM31.6276 0.434379H32.4274V7.30829H36.6641V8H31.6276V0.434379ZM44.4769 0.434379H47.5572C48.357 0.434379 49.0631 0.5965 49.6756 0.920741C50.288 1.23778 50.7636 1.68451 51.1022 2.26094C51.4409 2.83016 51.6102 3.48224 51.6102 4.21719C51.6102 4.95214 51.4409 5.60782 51.1022 6.18425C50.7636 6.75347 50.288 7.20021 49.6756 7.52445C49.0631 7.84148 48.357 8 47.5572 8H44.4769V0.434379ZM47.514 7.30829C48.1768 7.30829 48.7569 7.17859 49.254 6.9192C49.7512 6.6526 50.1367 6.28873 50.4105 5.82759C50.6843 5.35924 50.8212 4.82244 50.8212 4.21719C50.8212 3.61194 50.6843 3.07874 50.4105 2.6176C50.1367 2.14925 49.7512 1.78538 49.254 1.52599C48.7569 1.25939 48.1768 1.12609 47.514 1.12609H45.2767V7.30829H47.514ZM61.977 8.06485C61.4149 8.06485 60.8745 7.97478 60.3558 7.79465C59.8442 7.61451 59.4479 7.37674 59.1669 7.08132L59.4803 6.46526C59.7541 6.73906 60.118 6.96243 60.5719 7.13536C61.0258 7.30108 61.4942 7.38394 61.977 7.38394C62.6543 7.38394 63.1622 7.26145 63.5009 7.01647C63.8395 6.76428 64.0089 6.44004 64.0089 6.04375C64.0089 5.74112 63.9152 5.49974 63.7279 5.31961C63.5477 5.13947 63.3244 5.00257 63.0578 4.9089C62.7912 4.80803 62.4201 4.69995 61.9445 4.58466C61.3753 4.44056 60.9214 4.30365 60.5827 4.17396C60.2441 4.03706 59.9523 3.8317 59.7073 3.5579C59.4695 3.2841 59.3506 2.91302 59.3506 2.44467C59.3506 2.06279 59.4515 1.71693 59.6532 1.4071C59.855 1.09007 60.1648 0.837879 60.5827 0.65054C61.0006 0.463201 61.5194 0.369531 62.1391 0.369531C62.5714 0.369531 62.9929 0.430777 63.4036 0.553268C63.8215 0.668553 64.1818 0.830674 64.4844 1.03963L64.2142 1.6773C63.8972 1.46835 63.5585 1.31343 63.1983 1.21256C62.838 1.10448 62.4849 1.05044 62.1391 1.05044C61.4762 1.05044 60.9754 1.18013 60.6368 1.43953C60.3053 1.69171 60.1396 2.01956 60.1396 2.42306C60.1396 2.72568 60.2297 2.97066 60.4098 3.158C60.5971 3.33814 60.8277 3.47864 61.1015 3.57952C61.3825 3.67319 61.7572 3.77766 62.2255 3.89295C62.7804 4.02985 63.2271 4.16675 63.5657 4.30365C63.9116 4.43335 64.2034 4.6351 64.4412 4.9089C64.679 5.1755 64.7979 5.53937 64.7979 6.00051C64.7979 6.3824 64.6934 6.73186 64.4844 7.04889C64.2827 7.35872 63.9692 7.60731 63.5441 7.79465C63.119 7.97478 62.5966 8.06485 61.977 8.06485ZM80.8827 0.434379V8H80.1154V1.9475L77.1431 7.03809H76.7649L73.7927 1.97993V8H73.0253V0.434379H73.6846L76.9702 6.04375L80.2234 0.434379H80.8827ZM89.8326 0.434379H90.6324V8H89.8326V0.434379ZM101.049 1.12609H98.39V0.434379H104.507V1.12609H101.849V8H101.049V1.12609ZM118.593 0.434379V8H117.804V4.50901H113.07V8H112.27V0.434379H113.07V3.80648H117.804V0.434379H118.593ZM127.06 0.434379H127.741L127.687 3.2877H127.114L127.06 0.434379ZM138.302 8.06485C137.74 8.06485 137.2 7.97478 136.681 7.79465C136.17 7.61451 135.773 7.37674 135.492 7.08132L135.806 6.46526C136.079 6.73906 136.443 6.96243 136.897 7.13536C137.351 7.30108 137.82 7.38394 138.302 7.38394C138.98 7.38394 139.488 7.26145 139.826 7.01647C140.165 6.76428 140.334 6.44004 140.334 6.04375C140.334 5.74112 140.241 5.49974 140.053 5.31961C139.873 5.13947 139.65 5.00257 139.383 4.9089C139.117 4.80803 138.745 4.69995 138.27 4.58466C137.701 4.44056 137.247 4.30365 136.908 4.17396C136.569 4.03706 136.278 3.8317 136.033 3.5579C135.795 3.2841 135.676 2.91302 135.676 2.44467C135.676 2.06279 135.777 1.71693 135.979 1.4071C136.18 1.09007 136.49 0.837879 136.908 0.65054C137.326 0.463201 137.845 0.369531 138.464 0.369531C138.897 0.369531 139.318 0.430777 139.729 0.553268C140.147 0.668553 140.507 0.830674 140.81 1.03963L140.54 1.6773C140.223 1.46835 139.884 1.31343 139.524 1.21256C139.163 1.10448 138.81 1.05044 138.464 1.05044C137.802 1.05044 137.301 1.18013 136.962 1.43953C136.631 1.69171 136.465 2.01956 136.465 2.42306C136.465 2.72568 136.555 2.97066 136.735 3.158C136.923 3.33814 137.153 3.47864 137.427 3.57952C137.708 3.67319 138.083 3.77766 138.551 3.89295C139.106 4.02985 139.552 4.16675 139.891 4.30365C140.237 4.43335 140.529 4.6351 140.767 4.9089C141.004 5.1755 141.123 5.53937 141.123 6.00051C141.123 6.3824 141.019 6.73186 140.81 7.04889C140.608 7.35872 140.295 7.60731 139.869 7.79465C139.444 7.97478 138.922 8.06485 138.302 8.06485ZM173.306 4.21719H174.073V7.10293C173.72 7.41276 173.302 7.65054 172.82 7.81626C172.337 7.98199 171.829 8.06485 171.296 8.06485C170.539 8.06485 169.858 7.89913 169.253 7.56768C168.648 7.23623 168.172 6.77869 167.826 6.19506C167.48 5.60422 167.308 4.94493 167.308 4.21719C167.308 3.48945 167.48 2.83376 167.826 2.25013C168.172 1.65929 168.648 1.19815 169.253 0.8667C169.858 0.535254 170.543 0.369531 171.307 0.369531C171.883 0.369531 172.413 0.463201 172.895 0.65054C173.378 0.830674 173.785 1.10087 174.117 1.46114L173.619 1.96912C173.021 1.37828 172.261 1.08286 171.339 1.08286C170.726 1.08286 170.172 1.21976 169.674 1.49357C169.185 1.76016 168.799 2.13484 168.518 2.6176C168.237 3.09315 168.097 3.62635 168.097 4.21719C168.097 4.80803 168.237 5.34122 168.518 5.81678C168.799 6.29233 169.185 6.66701 169.674 6.94081C170.164 7.21462 170.716 7.35152 171.328 7.35152C172.106 7.35152 172.766 7.15697 173.306 6.76788V4.21719ZM186.129 8.06485C185.38 8.06485 184.699 7.89913 184.086 7.56768C183.481 7.22903 183.006 6.76788 182.66 6.18425C182.321 5.60062 182.152 4.94493 182.152 4.21719C182.152 3.48945 182.321 2.83376 182.66 2.25013C183.006 1.66649 183.481 1.20895 184.086 0.877508C184.699 0.538857 185.38 0.369531 186.129 0.369531C186.878 0.369531 187.552 0.535254 188.15 0.8667C188.755 1.19815 189.231 1.65929 189.577 2.25013C189.923 2.83376 190.096 3.48945 190.096 4.21719C190.096 4.94493 189.923 5.60422 189.577 6.19506C189.231 6.77869 188.755 7.23623 188.15 7.56768C187.552 7.89913 186.878 8.06485 186.129 8.06485ZM186.129 7.35152C186.727 7.35152 187.267 7.21822 187.75 6.95162C188.233 6.67782 188.611 6.30314 188.885 5.82759C189.159 5.34483 189.296 4.80803 189.296 4.21719C189.296 3.62635 189.159 3.09315 188.885 2.6176C188.611 2.13484 188.233 1.76016 187.75 1.49357C187.267 1.21976 186.727 1.08286 186.129 1.08286C185.531 1.08286 184.987 1.21976 184.497 1.49357C184.014 1.76016 183.632 2.13484 183.351 2.6176C183.078 3.09315 182.941 3.62635 182.941 4.21719C182.941 4.80803 183.078 5.34483 183.351 5.82759C183.632 6.30314 184.014 6.67782 184.497 6.95162C184.987 7.21822 185.531 7.35152 186.129 7.35152ZM198.373 0.434379H199.173V7.30829H203.41V8H198.373V0.434379ZM211.222 0.434379H214.303C215.102 0.434379 215.809 0.5965 216.421 0.920741C217.034 1.23778 217.509 1.68451 217.848 2.26094C218.186 2.83016 218.356 3.48224 218.356 4.21719C218.356 4.95214 218.186 5.60782 217.848 6.18425C217.509 6.75347 217.034 7.20021 216.421 7.52445C215.809 7.84148 215.102 8 214.303 8H211.222V0.434379ZM214.259 7.30829C214.922 7.30829 215.502 7.17859 216 6.9192C216.497 6.6526 216.882 6.28873 217.156 5.82759C217.43 5.35924 217.567 4.82244 217.567 4.21719C217.567 3.61194 217.43 3.07874 217.156 2.6176C216.882 2.14925 216.497 1.78538 216 1.52599C215.502 1.25939 214.922 1.12609 214.259 1.12609H212.022V7.30829H214.259Z" fill="#372011"/>
</svg>
