<svg width="12" height="58" viewBox="0 0 12 58" fill="none" xmlns="http://www.w3.org/2000/svg">
<path d="M10.8462 25.5267C10.7293 25.4754 10.5936 25.446 10.4395 25.446H6.08117C5.88691 25.446 5.72576 25.4754 5.60469 25.5303C5.49846 25.578 5.40699 25.6475 5.33036 25.7429C5.2275 25.8783 5.1508 26.0138 5.10299 26.1492C5.05518 26.2812 5.03346 26.4204 5.03346 26.567C5.03346 26.7133 5.05518 26.8525 5.10299 26.9809C5.1508 27.12 5.22749 27.2518 5.32662 27.3838C5.39981 27.468 5.4838 27.5302 5.58298 27.5705C5.7146 27.6255 5.87925 27.6511 6.08117 27.6511H8.49501H9.35562V28.5119V54.2916V55.1521H8.49501H3.6342H2.77356V54.2916V20.7979V19.9371H3.6342H7.75117C7.9637 19.9371 8.13608 19.9115 8.2642 19.8527C8.36682 19.8126 8.44713 19.7503 8.50977 19.6659L8.51321 19.6514C8.61547 19.5232 8.68928 19.3914 8.73649 19.2558C8.78068 19.1239 8.80262 18.981 8.80262 18.8309C8.80262 18.6879 8.78068 18.5525 8.73649 18.4243C8.68928 18.2925 8.61547 18.1605 8.51321 18.0323L8.50977 18.0177C8.37394 17.8383 8.12125 17.7466 7.75117 17.7466H1.68909C1.52443 17.7466 1.38147 17.7724 1.25696 17.82C1.13601 17.8713 1.01506 17.9482 0.898031 18.0544H0.901658C0.780589 18.1753 0.696785 18.2961 0.645295 18.417C0.594046 18.5342 0.568115 18.6733 0.568115 18.8309V56.2366C0.568115 56.3937 0.594052 56.5366 0.64904 56.6611C0.700289 56.7893 0.784631 56.9102 0.894545 57.0201C1.01139 57.1375 1.13601 57.2218 1.27173 57.2767C1.39623 57.3317 1.53559 57.3571 1.68909 57.3571H10.4395C10.6007 57.3571 10.7364 57.3317 10.8575 57.2804C10.9785 57.2289 11.099 57.1445 11.2163 57.0241L11.2201 57.0277C11.3374 56.9067 11.4254 56.7822 11.4802 56.6504C11.5317 56.5295 11.5605 56.3902 11.5605 56.2366V26.5303C11.5605 26.4022 11.5351 26.2776 11.4838 26.1641C11.4289 26.0359 11.3374 25.9112 11.2163 25.7903C11.0954 25.6694 10.9708 25.5817 10.8462 25.5267Z" fill="#372011"/>
<path d="M1.68151 6.71108C1.52777 6.71108 1.39211 6.74026 1.27472 6.79157C1.15058 6.84656 1.02607 6.93435 0.905007 7.05524C0.78418 7.17625 0.692522 7.30074 0.637716 7.42892C0.586226 7.54252 0.560913 7.66702 0.560913 7.79514V12.8802C0.560913 13.0341 0.589916 13.1732 0.641225 13.2941C0.696152 13.4261 0.784178 13.5506 0.901568 13.6715L0.905007 13.6678C1.02204 13.7887 1.14311 13.8729 1.26394 13.9242C1.38501 13.9754 1.52029 14.001 1.68151 14.001H10.4323C10.5859 14.001 10.7252 13.9754 10.8497 13.9205C10.9855 13.8656 11.1096 13.7811 11.227 13.6642C11.3368 13.5543 11.4211 13.4334 11.4726 13.305C11.5274 13.1805 11.5529 13.0377 11.5529 12.8802V1.86238C11.5529 1.70502 11.5274 1.56575 11.4761 1.44848C11.4248 1.32765 11.3404 1.20676 11.2199 1.08593H11.2234C11.106 0.979636 10.9855 0.902829 10.8645 0.85152C10.74 0.803828 10.5972 0.77832 10.4323 0.77832H4.37022C4.00015 0.77832 3.74746 0.869722 3.61181 1.04921L3.60818 1.0638C3.50556 1.19217 3.43235 1.32397 3.38448 1.45583C3.34089 1.58395 3.31901 1.71961 3.31901 1.86238C3.31901 2.01263 3.34089 2.15541 3.38448 2.28721C3.43235 2.42287 3.50556 2.55472 3.60818 2.68285L3.61181 2.69768C3.67427 2.78185 3.75456 2.84408 3.85736 2.88442C3.98536 2.94302 4.15769 2.96858 4.37022 2.96858H8.48719H9.34806V3.82944V10.9353V11.7961H8.48719H3.62645H2.76577V10.9353V9.77679V8.91599H3.62645H6.04038C6.24176 8.91599 6.40643 8.89043 6.53865 8.83544C6.63717 8.79511 6.72158 8.73288 6.79478 8.64871C6.8939 8.51685 6.97077 8.38487 7.0184 8.24578C7.06585 8.11759 7.08816 7.97831 7.08816 7.83186C7.08816 7.68523 7.06585 7.54613 7.0184 7.41433C6.97077 7.27867 6.89391 7.1432 6.79129 7.00772C6.71448 6.91246 6.623 6.84288 6.5167 6.79525C6.39569 6.74026 6.23465 6.71108 6.04038 6.71108H1.68151Z" fill="#372011"/>
</svg>
