<svg width="30" height="28" viewBox="0 0 30 28" fill="none" xmlns="http://www.w3.org/2000/svg">
<path d="M22.875 0.125H7.125C5.23533 0.125 3.42306 0.875668 2.08686 2.21186C0.750667 3.54806 0 5.36033 0 7.25V20.75C0 21.6857 0.184294 22.6122 0.542358 23.4766C0.900423 24.3411 1.42525 25.1265 2.08686 25.7881C3.42306 27.1243 5.23533 27.875 7.125 27.875H22.875C24.7635 27.871 26.5734 27.1191 27.9088 25.7838C29.2441 24.4484 29.996 22.6385 30 20.75V7.25C29.996 5.36155 29.2441 3.55158 27.9088 2.21624C26.5734 0.880903 24.7635 0.128963 22.875 0.125ZM17.4 12.605C16.662 13.0259 15.8271 13.2472 14.9775 13.2472C14.1279 13.2472 13.293 13.0259 12.555 12.605L2.28 6.71C2.41286 5.51795 2.98051 4.41672 3.87438 3.61695C4.76824 2.81718 5.92557 2.375 7.125 2.375H22.875C24.0735 2.37829 25.229 2.8216 26.1222 3.62075C27.0154 4.41991 27.584 5.51924 27.72 6.71L17.4 12.605Z" fill="white"/>
</svg>
