<svg width="72" height="53" viewBox="0 0 72 53" fill="none" xmlns="http://www.w3.org/2000/svg">
<path d="M0.67041 11.5132L62.5717 0L71.8234 41.8337L7.53541 52.6943L0.67041 11.5132Z" fill="#EBEBEB"/>
<path d="M62.5717 0C62.5717 0 62.5717 0.0625758 62.4645 0.17878L62.1158 0.66147L60.7392 2.50287L55.6352 9.24274C51.1658 14.9368 45.1053 22.7761 38.3654 31.4825L38.2492 31.6345L38.0704 31.5451L36.8726 30.9104L11.2272 17.2787L3.47718 13.1043L1.3855 11.9423L0.84917 11.6294C0.784232 11.5996 0.72402 11.5604 0.67041 11.5132C0.740232 11.5281 0.806833 11.5553 0.867065 11.5936L1.43019 11.8618L3.56658 12.9434L11.3791 16.9927C17.9938 20.461 27.0667 25.2343 37.0871 30.5082L38.2939 31.1428L37.9989 31.2054L55.3313 9.04608L60.5962 2.3956L62.0443 0.60784L62.4287 0.151958C62.4691 0.0948948 62.5172 0.0437494 62.5717 0Z" fill="#E0E0E0"/>
<path d="M7.53425 52.6943C7.42699 52.6228 11.4048 46.312 16.4194 38.5978C21.4341 30.8836 25.5996 24.6801 25.7069 24.7516C25.8141 24.8231 21.8364 31.1339 16.8127 38.8481C11.7891 46.5623 7.64152 52.7658 7.53425 52.6943Z" fill="#E0E0E0"/>
<path d="M71.8227 41.8335C71.7422 41.9319 65.9499 37.4982 58.8882 31.9383C51.8266 26.3783 46.1683 21.7659 46.2398 21.6497C46.3113 21.5335 52.1126 25.985 59.1742 31.5539C66.2359 37.1228 71.8942 41.7352 71.8227 41.8335Z" fill="#E0E0E0"/>
</svg>
