<svg width="49" height="39" viewBox="0 0 49 39" fill="none" xmlns="http://www.w3.org/2000/svg">
<path d="M7.94422 0.439453L49.0002 10.3884L43.181 38.5278L0.846802 27.533L7.94422 0.439453Z" fill="#F5F5F5"/>
<path d="M48.9995 10.3884C48.8577 10.5016 48.705 10.6004 48.5436 10.6833L47.2028 11.4431L42.215 14.1248L25.5709 23.0636L25.401 23.153L25.2848 23.001L24.7217 22.2859L12.7973 6.90222C11.3135 4.95356 10.1157 3.32669 9.22178 2.2004L8.26532 0.913216C8.14813 0.764207 8.04348 0.605741 7.95245 0.439453C8.09815 0.558963 8.22742 0.697231 8.33684 0.850645L9.3648 2.09314C10.2587 3.22837 11.5191 4.77479 13.0565 6.69663C16.1672 10.6655 20.4132 16.0556 25.0971 22.0178L25.6603 22.7329L25.3653 22.6703L42.0719 13.8834L47.1313 11.2822L48.5079 10.6029C48.6604 10.5077 48.826 10.4354 48.9995 10.3884Z" fill="#E0E0E0"/>
<path d="M0.846919 27.5324C0.775409 27.4251 4.92302 24.6184 10.1165 21.2752C15.3099 17.9321 19.5737 15.3041 19.6363 15.4114C19.6989 15.5186 15.5602 18.3254 10.3668 21.6685C5.1733 25.0117 0.91843 27.6397 0.846919 27.5324Z" fill="#E0E0E0"/>
<path d="M43.1901 38.5275C43.0829 38.5901 40.723 34.2995 37.9251 28.9541C35.1273 23.6086 32.9462 19.1929 33.0535 19.1929C33.1608 19.1929 35.5296 23.4209 38.3274 28.7663C41.1253 34.1118 43.2884 38.4739 43.1901 38.5275Z" fill="#E0E0E0"/>
</svg>
