<svg width="76" height="73" viewBox="0 0 76 73" fill="none" xmlns="http://www.w3.org/2000/svg">
<path d="M45.7385 1.49104L9.4469 18.7072L75.5941 34.0641L50.4671 2.57265C49.9172 1.88449 49.1503 1.40294 48.2916 1.20652C47.4329 1.0101 46.5329 1.11039 45.7385 1.49104Z" fill="#E0E0E0"/>
<path d="M9.76158 18.7871L75.5275 34.055C75.6129 34.0749 75.687 34.1278 75.7334 34.2023C75.7797 34.2767 75.7947 34.3666 75.7748 34.452L67.0544 72.0151C67.0066 72.2206 66.8792 72.3988 66.7002 72.5104C66.5211 72.6219 66.305 72.6578 66.0995 72.6101L1.24789 57.5545C1.04236 57.5068 0.864197 57.3793 0.752606 57.2003C0.641014 57.0212 0.605122 56.8051 0.652837 56.5996L9.37331 19.0365C9.39277 18.9526 9.44425 18.8795 9.51677 18.8329C9.58929 18.7864 9.67713 18.7699 9.76158 18.7871Z" fill="#E0E0E0"/>
<path d="M71.303 34.0192L40.2585 44.4597L12.9236 21.773L17.7416 3.60932C17.9823 2.66319 18.587 1.85047 19.4241 1.34819C20.2613 0.845906 21.263 0.69476 22.2111 0.927678L72.5008 12.5928C73.461 12.8181 74.2923 13.4155 74.812 14.2537C75.3316 15.0918 75.4971 16.1021 75.2719 17.0622L71.303 34.0192Z" fill="white"/>
<path d="M38.2923 41.3847L1.13361 54.346C1.04352 54.734 1.03081 55.1359 1.09619 55.5288C1.16156 55.9217 1.30375 56.2978 1.51462 56.6357C1.72549 56.9736 2.0009 57.2666 2.32511 57.498C2.64932 57.7294 3.01598 57.8945 3.40408 57.9841L63.9467 72.0359C64.3346 72.126 64.7366 72.1387 65.1295 72.0733C65.5224 72.008 65.8985 71.8658 66.2364 71.6549C66.5743 71.444 66.8673 71.1686 67.0987 70.8444C67.33 70.5202 67.4952 70.1536 67.5848 69.7655L67.6384 69.542L41.6533 42.2339C41.2338 41.7845 40.6938 41.4654 40.0977 41.3148C39.5017 41.1642 38.8749 41.1885 38.2923 41.3847Z" fill="#E0E0E0"/>
<path d="M61.3813 37.3711L59.5488 37.97L22.6941 29.8804L18.9577 26.716L19.0292 26.1797L62.5344 36.2716L62.3645 37.0225L61.3813 37.3711Z" fill="#F5F5F5"/>
<path d="M48.7415 41.599L32.2315 37.7732L28.2806 34.4658L52.9517 40.1867L48.7415 41.599Z" fill="#F5F5F5"/>
<path d="M36.9338 41.8584C36.4905 42.0912 36.0267 42.2827 35.5483 42.4305L31.6956 43.816C28.4419 44.9691 23.9457 46.4976 18.9668 48.2228C13.9879 49.948 9.46479 51.4319 6.18425 52.5045L2.3048 53.756C1.83542 53.9319 1.35062 54.0636 0.85672 54.1493C1.30333 53.9236 1.7665 53.7323 2.24223 53.5772L6.08593 52.1917C9.33966 51.0386 13.8359 49.51 18.8148 47.7848C23.7937 46.0596 28.3078 44.5758 31.5884 43.5031L35.4768 42.2606C35.9519 42.0908 36.4388 41.9564 36.9338 41.8584Z" fill="#EBEBEB"/>
<path d="M67.6385 69.5422C67.5491 69.6316 61.9355 63.8839 55.1242 56.715C48.3128 49.546 42.8244 43.6554 42.9227 43.566C43.021 43.4766 48.6257 49.2153 55.437 56.3932C62.2484 63.571 67.7368 69.4528 67.6385 69.5422Z" fill="#EBEBEB"/>
<path d="M72.8142 33.5098C72.4537 33.7108 72.077 33.8813 71.6879 34.0193C70.9549 34.3143 69.9002 34.7344 68.5593 35.235C65.8777 36.2361 62.2307 37.568 58.1456 38.9714C54.0606 40.3748 50.3242 41.5726 47.6157 42.4039C46.257 42.8151 45.1575 43.1458 44.3977 43.3514C44.01 43.49 43.6084 43.586 43.1999 43.6374C43.5667 43.4512 43.9497 43.2986 44.3441 43.1816L47.5174 42.091L57.9937 38.5155L68.4521 34.94L71.6254 33.8673C72.0094 33.7105 72.4075 33.5908 72.8142 33.5098Z" fill="#EBEBEB"/>
<path d="M36.9334 41.8587C36.5372 41.5917 36.1635 41.2928 35.816 40.9648L32.8662 38.4977L23.0335 30.4528C19.1898 27.3153 15.7395 24.437 13.2992 22.2827C12.0745 21.21 11.0913 20.3341 10.4298 19.7083C10.0667 19.405 9.7344 19.0667 9.43759 18.6982C9.8309 18.9691 10.2043 19.2679 10.5549 19.5921L13.5047 22.0592L23.3374 30.1042C27.1811 33.2417 30.6315 36.1289 33.0718 38.2743C34.2964 39.3469 35.2797 40.2319 35.9412 40.8576C36.3024 41.1596 36.6346 41.4948 36.9334 41.8587Z" fill="#EBEBEB"/>
<path d="M71.3033 34.0192C71.2953 33.933 71.2953 33.8463 71.3033 33.76C71.3033 33.5723 71.3927 33.322 71.4553 33.0181C71.5983 32.3388 71.8039 31.3912 72.0631 30.1934L74.4051 19.7976C74.5302 19.2434 74.6554 18.6802 74.7805 18.1082C74.9366 17.5393 75.0501 16.9597 75.1202 16.374C75.1543 15.7662 75.0287 15.1601 74.7558 14.6159C74.4829 14.0717 74.0723 13.6085 73.5648 13.2723C73.0217 12.9292 72.4127 12.7039 71.777 12.6108L69.7479 12.146L65.5109 11.1716L46.659 6.81844L27.807 2.42054L23.57 1.42833C22.9112 1.25007 22.2427 1.1098 21.5677 1.00821C20.9397 0.967282 20.3121 1.09585 19.7507 1.38047C19.1893 1.66509 18.7148 2.0953 18.3766 2.62613C18.0747 3.15656 17.8632 3.73355 17.7508 4.33345C17.429 5.51337 17.1251 6.6486 16.857 7.73913L14.0502 18.0188C13.7194 19.2076 13.4602 20.1373 13.2636 20.8077C13.1801 21.1056 13.1086 21.347 13.049 21.5317C13.033 21.6166 13.0028 21.6982 12.9596 21.7731C12.9596 21.7731 12.9596 21.6837 13.0043 21.5139L13.1742 20.7809C13.344 20.1105 13.5764 19.1719 13.8803 17.9741C14.515 15.507 15.4178 11.9851 16.562 7.65869C16.848 6.56815 17.143 5.42398 17.4559 4.24405C17.5761 3.61569 17.7996 3.01159 18.1173 2.45629C18.4811 1.87394 18.9932 1.39884 19.6012 1.07972C20.2295 0.746256 20.9384 0.594572 21.6482 0.641712C22.3464 0.740849 23.0387 0.878108 23.722 1.05289L27.959 2.02723L46.8109 6.38936L65.6629 10.7604L69.891 11.7527L71.9201 12.2264C72.6099 12.3305 73.2705 12.5771 73.8598 12.9505C74.4177 13.3269 74.8677 13.8424 75.1656 14.4459C75.4634 15.0494 75.5987 15.7201 75.5582 16.3919C75.4843 16.996 75.3648 17.5936 75.2006 18.1797C75.0665 18.7517 74.9325 19.3149 74.7984 19.8602C73.7615 24.2134 72.9123 27.7442 72.3223 30.2203L71.6251 33.036C71.5447 33.331 71.4821 33.5723 71.4284 33.76C71.3998 33.8522 71.3576 33.9395 71.3033 34.0192Z" fill="#E0E0E0"/>
</svg>
