<svg width="134" height="13" viewBox="0 0 134 13" fill="none" xmlns="http://www.w3.org/2000/svg">
<path fill-rule="evenodd" clip-rule="evenodd" d="M0 1.83786C0.475493 1.91568 0.948849 1.99335 1.42002 2.07067C2.13554 2.18808 2.84601 2.30467 3.55127 2.41964C26.4221 6.15298 46.1626 9.35744 80.861 6.05879C115.635 2.75463 127.799 0.747192 131.284 0.171963C131.952 0.0616989 132.301 0.00405979 132.43 0L130.589 3.16214L134 5.54227C133.982 5.54168 133.877 5.56085 133.666 5.59946C131.69 5.96064 120.406 8.02318 83.587 11.5234C45.7832 15.1121 23.6031 11.5033 0.123371 7.68303L0.0977223 7.67886C0.0651578 7.67371 0.0325837 7.66856 0 7.6634L2.47232 5.10714L0 1.83786Z" fill="url(#paint0_linear_8_12062)"/>
<defs>
<linearGradient id="paint0_linear_8_12062" x1="-26.5522" y1="23.2026" x2="-24.8769" y2="-7.38928" gradientUnits="userSpaceOnUse">
<stop stop-color="#F0DB92"/>
<stop offset="1" stop-color="#BF9033"/>
</linearGradient>
</defs>
</svg>
