<svg width="30" height="58" viewBox="0 0 30 58" fill="none" xmlns="http://www.w3.org/2000/svg">
<path d="M2.78265 38.8938L5.6395 57.6696H22.2409L26.0924 39.1636L2.78265 38.8938Z" fill="#E6A371"/>
<path d="M23.7752 50.9296C23.7752 50.9825 19.5428 51.0248 14.2524 51.0248C8.96192 51.0248 4.72955 50.9825 4.72955 50.9296C4.72955 50.8767 8.96192 50.8291 14.2524 50.8291C19.5428 50.8291 23.7752 50.8714 23.7752 50.9296Z" fill="#FAFAFA"/>
<path d="M23.8387 50.0037C23.8387 50.0566 19.5534 50.0989 14.2735 50.0989C8.99364 50.0989 4.70837 50.0566 4.70837 50.0037C4.70837 49.9508 8.98835 49.9084 14.2735 49.9084C19.5587 49.9084 23.8387 49.9508 23.8387 50.0037Z" fill="#FAFAFA"/>
<path d="M23.807 48.9616C23.807 49.0145 19.5217 49.0568 14.2418 49.0568C8.96194 49.0568 4.67139 49.0145 4.67139 48.9616C4.67139 48.9087 8.95665 48.8611 14.2418 48.8611C19.527 48.8611 23.807 48.9087 23.807 48.9616Z" fill="#FAFAFA"/>
<path d="M7.54406 56.5851C7.14256 55.0225 6.86658 53.4303 6.71875 51.8237C6.95871 52.5964 7.13563 53.3873 7.2478 54.1886C7.41333 54.9777 7.51243 55.7794 7.54406 56.5851Z" fill="#FAFAFA"/>
<path d="M8.67625 56.3998C8.55523 55.6365 8.48629 54.8658 8.46992 54.0932C8.38372 53.3257 8.34838 52.5534 8.36411 51.7812C8.53969 52.5367 8.64069 53.3074 8.66567 54.0826C8.74855 54.8526 8.75209 55.6291 8.67625 56.3998Z" fill="#FAFAFA"/>
<path d="M10.7342 56.3997C10.5066 55.629 10.3612 54.8363 10.3004 54.0349C10.1792 53.2404 10.1367 52.4359 10.1734 51.6331C10.3306 52.4191 10.4384 53.2142 10.4961 54.0138C10.621 54.8039 10.7005 55.6005 10.7342 56.3997Z" fill="#FAFAFA"/>
<path d="M12.1785 56.5003C12.0211 55.7077 11.9448 54.9011 11.951 54.0931C11.8905 53.2886 11.9153 52.4799 12.0251 51.6807C12.1088 52.4802 12.1477 53.2839 12.1415 54.0878C12.2021 54.8905 12.2145 55.6961 12.1785 56.5003Z" fill="#FAFAFA"/>
<path d="M14.7391 56.4C14.6139 55.6465 14.5554 54.8835 14.5645 54.1198C14.5034 53.3556 14.5052 52.5876 14.5698 51.8237C14.6952 52.5789 14.7536 53.3437 14.7444 54.1092C14.8089 54.8715 14.8071 55.638 14.7391 56.4Z" fill="#FAFAFA"/>
<path d="M16.6067 56.5003C16.4885 54.929 16.5009 53.3505 16.6437 51.7812C16.7618 53.3526 16.7495 54.931 16.6067 56.5003Z" fill="#FAFAFA"/>
<path d="M18.3578 56.2465C18.3413 55.4222 18.3891 54.5979 18.5006 53.7811C18.5488 52.959 18.6603 52.1419 18.8339 51.3369C18.8504 52.1612 18.8027 52.9854 18.6911 53.8023C18.6429 54.6243 18.5315 55.4415 18.3578 56.2465Z" fill="#FAFAFA"/>
<path d="M20.6168 56.0031C20.6169 55.2885 20.7112 54.5769 20.8972 53.8869C21.0177 53.1906 21.2239 52.5118 21.5109 51.866C21.4088 52.5611 21.2675 53.25 21.0877 53.9293C20.969 54.6287 20.8118 55.321 20.6168 56.0031Z" fill="#FAFAFA"/>
<path d="M19.0191 1.83423C19.0191 1.83423 19.0191 1.86597 19.0191 1.92945L18.9397 2.19398L18.6276 3.20445C18.4847 3.64356 18.3154 4.18319 18.1356 4.79159C17.9557 5.39999 17.7388 6.13536 17.5377 6.93422C17.3367 7.73308 17.0986 8.60071 16.8923 9.5477C16.686 10.4947 16.4691 11.5052 16.2522 12.5738C15.8554 14.69 15.4903 17.0813 15.2364 19.5784C14.9824 22.0755 14.8819 24.4774 14.8449 26.6518C14.8449 27.7416 14.8449 28.7679 14.8766 29.7467C14.9084 30.7254 14.9454 31.6142 14.993 32.4342C15.0406 33.2542 15.1094 34.0214 15.157 34.6509C15.2046 35.2805 15.2628 35.8677 15.3157 36.3227C15.3687 36.7777 15.4004 37.1216 15.4268 37.3808V37.6559V37.7511C15.4268 37.7511 15.4268 37.7194 15.4268 37.6559C15.4268 37.5924 15.4268 37.4972 15.3845 37.3861C15.3475 37.1268 15.2999 36.7777 15.2364 36.328C15.1729 35.8783 15.1041 35.3122 15.0459 34.6562C14.9877 34.0002 14.8978 33.2648 14.8502 32.4395C14.8026 31.6142 14.7338 30.7148 14.7073 29.7467C14.6809 28.7785 14.665 27.7363 14.6597 26.6465C14.6597 24.4615 14.792 22.0649 15.0354 19.5572C15.2787 17.0496 15.6596 14.6795 16.0934 12.5315C16.3104 11.4734 16.5114 10.4471 16.7495 9.50539C16.9875 8.56369 17.2044 7.68547 17.4213 6.8919C17.6383 6.09833 17.8605 5.38412 18.0509 4.77572C18.2414 4.16732 18.416 3.61182 18.58 3.18858L18.9291 2.1834C18.9714 2.08288 18.9979 1.99293 19.0244 1.92416C19.0508 1.85538 19.0138 1.83423 19.0191 1.83423Z" fill="url(#paint0_linear_2062_325)"/>
<path d="M16.0194 13.4626C16.4777 12.1107 17.39 10.9591 18.6012 10.2036C18.791 10.0538 19.0145 9.95246 19.2523 9.90823C19.4901 9.86399 19.735 9.87822 19.9661 9.9497C20.548 10.2301 20.5957 11.0448 20.4211 11.6691C20.122 12.7201 19.4555 13.6287 18.543 14.2297C17.7322 14.8264 16.7197 15.0809 15.7231 14.9386" fill="url(#paint1_linear_2062_325)"/>
<path d="M15.0142 21.3137C15.4427 19.6948 16.7336 17.3882 18.0774 16.3883C18.2815 16.2171 18.5195 16.0909 18.7757 16.0179C18.9026 15.9806 19.0368 15.9755 19.1662 16.0032C19.2955 16.0309 19.4159 16.0905 19.5164 16.1766C19.6289 16.3257 19.7032 16.5002 19.7327 16.6846C19.7622 16.8691 19.7461 17.058 19.6857 17.2347C19.4111 18.4179 18.8122 19.501 17.9562 20.3627C17.1001 21.2243 16.0209 21.8302 14.8396 22.1125" fill="url(#paint2_linear_2062_325)"/>
<path d="M14.7338 28.2283C15.4016 26.6816 16.4678 25.3398 17.8235 24.3398C18.1115 24.0767 18.4918 23.938 18.8815 23.9536C19.4688 24.0594 19.7386 24.7789 19.6857 25.3714C19.5799 26.5935 18.6276 27.5723 17.6806 28.3341C16.7949 28.9472 15.8326 29.4416 14.8185 29.8048" fill="url(#paint3_linear_2062_325)"/>
<path d="M14.8925 33.196C15.5405 32.0135 16.4442 30.9905 17.5377 30.2016C17.7692 30.0234 18.0392 29.902 18.326 29.8471C18.4695 29.8219 18.6172 29.8361 18.7532 29.8883C18.8893 29.9405 19.0086 30.0286 19.0984 30.1434C19.363 30.5296 19.0984 31.0533 18.8286 31.429C17.9016 32.7205 16.5881 33.6839 15.0777 34.18" fill="url(#paint4_linear_2062_325)"/>
<path d="M14.7602 31.1907C13.6266 29.7997 12.3674 28.5158 10.9987 27.3552C10.7871 27.1753 10.5173 26.9848 10.2475 27.0748C10.1454 27.1129 10.0575 27.1817 9.99598 27.2716C9.93442 27.3616 9.90216 27.4684 9.9036 27.5774C9.901 27.7955 9.94994 28.0112 10.0464 28.2069C10.497 29.2059 11.1665 30.0907 12.0053 30.7959C12.8442 31.5011 13.8309 32.0085 14.8925 32.2806" fill="url(#paint5_linear_2062_325)"/>
<path d="M14.8819 24.71L11.9246 21.1072C11.6636 20.7481 11.339 20.4397 10.967 20.1973C10.7777 20.0807 10.5598 20.019 10.3374 20.019C10.1151 20.019 9.8972 20.0807 9.70788 20.1973C9.53602 20.337 9.40675 20.5221 9.33475 20.7316C9.26275 20.941 9.25089 21.1665 9.30052 21.3823C9.40543 21.8142 9.6021 22.2184 9.87718 22.5674C10.4531 23.4484 11.1824 24.2189 12.0304 24.8423C12.898 25.4348 13.6863 25.8263 14.7285 25.6729" fill="url(#paint6_linear_2062_325)"/>
<path d="M15.2893 17.4357C14.7114 15.7102 13.6853 14.1692 12.3161 12.9706C12.1015 12.7568 11.8355 12.6019 11.5437 12.5209C11.2425 12.4978 10.9426 12.5802 10.6955 12.7539C10.4484 12.9277 10.2695 13.182 10.1893 13.4732C10.0949 13.8002 10.0701 14.1434 10.1166 14.4805C10.1631 14.8177 10.2798 15.1414 10.4591 15.4307C10.8173 16.0108 11.2887 16.5128 11.8452 16.9067C12.8406 17.6704 13.9515 18.2705 15.1359 18.6843" fill="url(#paint7_linear_2062_325)"/>
<path d="M16.4744 10.9389C16.1834 8.85448 15.0989 7.11392 13.8292 5.42626C13.5646 5.06651 13.1943 4.6909 12.7711 4.75968C12.6317 4.78871 12.502 4.85241 12.3938 4.94488C12.2856 5.03735 12.2025 5.15561 12.1521 5.28872C12.0526 5.55363 12.0128 5.83725 12.0357 6.11931C12.0889 7.38551 12.5142 8.60792 13.2586 9.63362C14.0029 10.6593 15.0332 11.4427 16.2205 11.8859" fill="url(#paint8_linear_2062_325)"/>
<path d="M17.2997 7.62717C17.1623 6.55724 17.1251 5.47683 17.1886 4.39999C17.2539 3.31758 17.6204 2.27498 18.2467 1.38973C18.5144 1.01268 18.8803 0.716237 19.3048 0.532666C19.5209 0.446626 19.7556 0.417498 19.9862 0.448066C20.2169 0.478633 20.4358 0.567882 20.6221 0.70726C20.7789 0.8545 20.9006 1.03501 20.9785 1.23551C21.0563 1.43602 21.0882 1.65142 21.0718 1.86587C21.0346 2.29496 20.9217 2.71407 20.7385 3.10384C19.9502 4.99782 18.6223 7.09812 17.2679 7.62717" fill="url(#paint9_linear_2062_325)"/>
<path d="M4.42271 10.1138C4.43607 10.2014 4.43607 10.2906 4.42271 10.3783C4.42271 10.574 4.42271 10.8227 4.42271 11.1401C4.42271 11.4575 4.42271 11.8702 4.42271 12.3358C4.42271 12.8013 4.42271 13.3356 4.47562 13.9229C4.52852 15.0974 4.64491 16.4941 4.8195 18.0389C4.99408 19.5837 5.27448 21.2713 5.63952 23.0278C6.00456 24.7842 6.44896 26.4348 6.89336 27.9214C7.33775 29.4081 7.8086 30.7307 8.23184 31.8258C8.43288 32.3813 8.6445 32.8839 8.81908 33.3018C8.99367 33.7198 9.15238 34.106 9.28464 34.4075C9.4169 34.7091 9.50155 34.9366 9.58091 35.1059C9.61744 35.1862 9.64752 35.2694 9.67084 35.3545C9.62223 35.2805 9.57976 35.2027 9.54387 35.1217L9.27935 34.4393C9.13122 34.143 8.96192 33.778 8.78205 33.3442C8.60217 32.9103 8.37997 32.4289 8.16836 31.8787C7.72396 30.7836 7.25311 29.461 6.78755 27.9743C6.32199 26.4877 5.88817 24.8265 5.51255 23.0648C5.13692 21.3031 4.88827 19.6048 4.7084 18.06C4.52852 16.5152 4.43858 15.108 4.40155 13.9282C4.40155 13.3409 4.40155 12.8066 4.40155 12.341C4.40155 11.8755 4.40155 11.4681 4.40155 11.1401C4.40155 10.8121 4.40155 10.574 4.428 10.3783C4.42094 10.2903 4.41917 10.202 4.42271 10.1138Z" fill="url(#paint10_linear_2062_325)"/>
<path d="M4.88824 18.6788C4.90998 17.6587 5.2838 16.6774 5.94634 15.9014C6.04339 15.7578 6.17424 15.6402 6.32737 15.559C6.4805 15.4779 6.65123 15.4355 6.82455 15.4358C7.27953 15.5046 7.48586 16.0495 7.50173 16.4939C7.52537 17.2745 7.26608 18.0373 6.77165 18.6418C6.3508 19.2229 5.71775 19.6145 5.00992 19.7316" fill="url(#paint11_linear_2062_325)"/>
<path d="M5.89344 24.2391C5.84487 22.8307 6.19908 21.4378 6.9145 20.2237C7.01879 20.0646 7.15367 19.928 7.31128 19.8216C7.38952 19.7726 7.4782 19.7428 7.57011 19.7345C7.66203 19.7263 7.75461 19.7398 7.84033 19.774C7.95094 19.8516 8.04036 19.9557 8.10043 20.0768C8.1605 20.1978 8.1893 20.332 8.18421 20.467C8.25504 21.3317 8.0837 22.199 7.68938 22.9717C7.29506 23.7445 6.69333 24.3922 5.95164 24.8422" fill="url(#paint12_linear_2062_325)"/>
<path d="M7.18964 29.0059C7.30884 27.8082 7.74734 26.6645 8.45935 25.6941C8.52817 25.5717 8.62147 25.4649 8.73344 25.3802C8.8454 25.2956 8.97361 25.2349 9.11007 25.2021C9.53331 25.1439 9.86661 25.5777 9.96184 25.9903C10.1523 26.8474 9.72376 27.715 9.23175 28.4398C8.76172 29.0484 8.2139 29.5926 7.60229 30.0587" fill="url(#paint13_linear_2062_325)"/>
<path d="M8.36407 32.3548C8.55175 31.4136 8.94364 30.5251 9.5121 29.7519C9.63209 29.581 9.78952 29.4399 9.97237 29.3392C10.0649 29.2899 10.1693 29.2673 10.2739 29.2738C10.3785 29.2803 10.4793 29.3158 10.5649 29.3762C10.8241 29.5826 10.7659 29.9899 10.6548 30.3073C10.302 31.3872 9.61458 32.3266 8.69208 32.9896" fill="url(#paint14_linear_2062_325)"/>
<path d="M7.84033 31.0109C6.77086 30.306 5.6372 29.7038 4.45444 29.2122C4.36945 29.1595 4.27262 29.129 4.1728 29.1235C4.07298 29.1179 3.97337 29.1375 3.88307 29.1804C3.82481 29.2311 3.78236 29.2974 3.76078 29.3715C3.7392 29.4456 3.73941 29.5244 3.76139 29.5984C3.80895 29.7461 3.88842 29.8816 3.99417 29.9951C4.51527 30.5782 5.16128 31.0362 5.88403 31.3348C6.60679 31.6334 7.38763 31.7651 8.16834 31.7198" fill="url(#paint15_linear_2062_325)"/>
<path d="M6.53358 26.583L3.74551 24.7631C3.48925 24.5745 3.20054 24.4346 2.89374 24.3504C2.74039 24.311 2.57913 24.3149 2.42785 24.3616C2.27657 24.4083 2.14118 24.496 2.03669 24.6149C1.95204 24.7487 1.9071 24.9037 1.9071 25.062C1.9071 25.2203 1.95204 25.3753 2.03669 25.509C2.20035 25.7802 2.42048 26.013 2.68213 26.1915C3.26604 26.6704 3.93071 27.0412 4.64489 27.2866C4.96377 27.4215 5.30648 27.491 5.65272 27.491C5.99895 27.491 6.34167 27.4215 6.66055 27.2866" fill="url(#paint16_linear_2062_325)"/>
<path d="M5.24802 21.5358C4.4811 20.4866 3.44967 19.6597 2.25892 19.1392C2.06798 19.0349 1.85192 18.9855 1.63464 18.9963C1.42402 19.0453 1.23702 19.1661 1.10573 19.3379C0.974445 19.5098 0.907059 19.7219 0.915141 19.938C0.9222 20.1804 0.97999 20.4187 1.08478 20.6374C1.18957 20.8561 1.33904 21.0504 1.52354 21.2077C1.89219 21.5238 2.32028 21.763 2.78267 21.9114C3.63156 22.2241 4.52402 22.4026 5.4279 22.4404" fill="url(#paint17_linear_2062_325)"/>
<path d="M4.6502 16.8643C3.94728 15.5674 2.9213 14.474 1.67168 13.6901C1.41244 13.5049 1.07915 13.325 0.798753 13.4678C0.709736 13.5167 0.634763 13.5876 0.581031 13.6737C0.527299 13.7599 0.496609 13.8584 0.491906 13.9599C0.480431 14.1624 0.514791 14.3649 0.592425 14.5524C0.901753 15.4025 1.45449 16.1428 2.18172 16.681C2.90895 17.2191 3.7785 17.5313 4.68195 17.5785" fill="url(#paint18_linear_2062_325)"/>
<path d="M4.51795 14.4307C4.19415 13.7299 3.93731 13.0001 3.75083 12.251C3.56233 11.5004 3.58984 10.7118 3.83019 9.9761C3.92747 9.66067 4.11066 9.37856 4.35924 9.16137C4.48723 9.05626 4.64017 8.98596 4.80328 8.95723C4.96639 8.9285 5.13415 8.94231 5.29036 8.99737C5.42962 9.06294 5.55206 9.15947 5.64834 9.27958C5.74461 9.39969 5.81217 9.54021 5.84585 9.69041C5.91557 9.99037 5.92992 10.3006 5.88818 10.6057C5.75592 12.0605 5.31681 13.7799 4.49679 14.4307" fill="url(#paint19_linear_2062_325)"/>
<path d="M25.4153 9.93384C25.4244 10.0218 25.4244 10.1104 25.4153 10.1984C25.4153 10.3888 25.4153 10.6428 25.447 10.9549C25.4787 11.267 25.447 11.6903 25.447 12.1558C25.447 12.6214 25.447 13.1557 25.4153 13.743C25.3835 14.9174 25.283 16.3194 25.1137 17.8695C24.9444 19.4196 24.6746 21.1179 24.3096 22.8796C23.9445 24.6413 23.4895 26.2972 23.0346 27.7891C22.5796 29.281 22.0929 30.5984 21.6537 31.6935C21.4421 32.2225 21.2199 32.7516 21.0401 33.1589C20.8602 33.5663 20.6856 33.9578 20.5427 34.2541C20.3999 34.5503 20.2941 34.7831 20.2147 34.9365C20.1773 35.0167 20.1349 35.0944 20.0878 35.1693C20.1037 35.082 20.1341 34.998 20.1777 34.9206L20.474 34.2223C20.6062 33.9208 20.7649 33.5504 20.9395 33.1166C21.1141 32.6828 21.3204 32.1961 21.5215 31.6406C21.95 30.5454 22.405 29.2175 22.86 27.7362C23.3149 26.2549 23.7435 24.5937 24.1191 22.8372C24.4947 21.0808 24.7434 19.3932 24.9338 17.8484C25.1243 16.3035 25.2248 14.9122 25.2777 13.7377C25.3147 13.1504 25.32 12.6161 25.3359 12.1505C25.3518 11.685 25.3359 11.2776 25.3359 10.9496C25.3359 10.6216 25.3359 10.3835 25.3359 10.1931C25.3554 10.1047 25.3819 10.018 25.4153 9.93384Z" fill="url(#paint20_linear_2062_325)"/>
<path d="M24.955 18.4939C24.9359 17.4748 24.5617 16.4943 23.8969 15.7217C23.8003 15.5788 23.6703 15.4617 23.5182 15.3806C23.366 15.2994 23.1964 15.2567 23.0239 15.2561C22.569 15.3196 22.3574 15.8645 22.3415 16.3142C22.3101 17.1056 22.5698 17.8811 23.0716 18.4939C23.4998 19.0637 24.134 19.4435 24.8386 19.552" fill="url(#paint21_linear_2062_325)"/>
<path d="M23.9498 24.0594C23.9968 22.6505 23.6407 21.2575 22.9234 20.0439C22.8205 19.8838 22.6854 19.7469 22.5267 19.6419C22.4495 19.5904 22.361 19.5587 22.2687 19.5494C22.1765 19.5402 22.0834 19.5538 21.9976 19.589C21.8873 19.6681 21.7982 19.7732 21.7382 19.895C21.6782 20.0169 21.6492 20.1516 21.6537 20.2873C21.5877 21.1517 21.763 22.0174 22.16 22.788C22.557 23.5586 23.1601 24.2039 23.9022 24.6519" fill="url(#paint22_linear_2062_325)"/>
<path d="M22.6536 28.826C22.5294 27.6295 22.0914 26.4871 21.3839 25.5142C21.314 25.3922 21.2204 25.2854 21.1086 25.2C20.9969 25.1147 20.8693 25.0524 20.7332 25.0169C20.31 24.964 19.9714 25.3925 19.8815 25.8105C19.691 26.6675 20.1142 27.5352 20.6062 28.2599C21.08 28.8655 21.6293 29.4078 22.241 29.8735" fill="url(#paint23_linear_2062_325)"/>
<path d="M21.4738 32.1749C21.2882 31.2324 20.8981 30.3421 20.3311 29.5667C20.2089 29.3973 20.0496 29.258 19.8655 29.1593C19.774 29.1109 19.671 29.0883 19.5675 29.0939C19.4641 29.0994 19.3641 29.133 19.2783 29.1911C19.0138 29.3974 19.072 29.8101 19.1831 30.1222C19.5359 31.202 20.2233 32.1415 21.1458 32.8044" fill="url(#paint24_linear_2062_325)"/>
<path d="M21.9765 30.8257C23.0489 30.1259 24.1821 29.5239 25.3624 29.027C25.4479 28.9756 25.5446 28.9459 25.6441 28.9404C25.7437 28.9349 25.8431 28.9537 25.9337 28.9952C25.9935 29.0448 26.0373 29.1109 26.0599 29.1851C26.0825 29.2594 26.0827 29.3387 26.0607 29.4132C26.0159 29.5621 25.9361 29.6982 25.8279 29.8099C25.3073 30.3944 24.6617 30.8539 23.939 31.1543C23.2163 31.4547 22.4352 31.5884 21.6537 31.5452" fill="url(#paint25_linear_2062_325)"/>
<path d="M23.3097 26.3978L26.0977 24.5832C26.3508 24.3927 26.6382 24.2526 26.9442 24.1705C27.0968 24.1178 27.2621 24.1145 27.4166 24.1611C27.5711 24.2078 27.707 24.302 27.8049 24.4304C27.9028 24.5587 27.9577 24.7147 27.9618 24.8761C27.9659 25.0374 27.919 25.196 27.8277 25.3292C27.6606 25.5994 27.439 25.8318 27.177 26.0116C26.5968 26.4917 25.9333 26.8611 25.2195 27.1014C24.9009 27.2375 24.5581 27.3077 24.2117 27.3077C23.8653 27.3077 23.5224 27.2375 23.2039 27.1014" fill="url(#paint26_linear_2062_325)"/>
<path d="M24.6216 21.3558C25.3884 20.3074 26.4175 19.4791 27.6055 18.9539C27.7998 18.8543 28.0168 18.8068 28.235 18.8164C28.4442 18.8653 28.6299 18.9856 28.7602 19.1564C28.8905 19.3272 28.9573 19.5381 28.9492 19.7528C28.9406 19.9973 28.8806 20.2372 28.773 20.4568C28.6654 20.6765 28.5128 20.8711 28.325 21.0278C27.9523 21.341 27.5231 21.5798 27.0605 21.7314C26.2194 22.0345 25.3355 22.2023 24.4418 22.2287" fill="url(#paint27_linear_2062_325)"/>
<path d="M25.1877 16.6792C25.8932 15.3841 26.9186 14.2913 28.1663 13.5049C28.2805 13.3944 28.4215 13.3154 28.5754 13.2755C28.7293 13.2356 28.8909 13.2363 29.0445 13.2775C29.1323 13.329 29.2062 13.4013 29.2597 13.488C29.3132 13.5747 29.3446 13.6731 29.3513 13.7747C29.3602 13.9772 29.3259 14.1791 29.2508 14.3673C28.9388 15.2165 28.3836 15.9549 27.6544 16.4903C26.9251 17.0256 26.0543 17.3343 25.1507 17.3776" fill="url(#paint28_linear_2062_325)"/>
<path d="M25.3412 14.2614C25.6641 13.5621 25.921 12.8342 26.1083 12.087C26.2953 11.3342 26.2659 10.5438 26.0237 9.80684C25.9273 9.49248 25.7439 9.21183 25.4946 8.99741C25.3661 8.89138 25.2122 8.82053 25.0481 8.79178C24.8839 8.76303 24.7151 8.77737 24.5582 8.8334C24.4264 8.90414 24.3111 9.00201 24.2199 9.12056C24.1288 9.23911 24.0637 9.37565 24.0292 9.52117C23.9637 9.82178 23.9512 10.1315 23.9921 10.4364C24.1191 11.8966 24.5635 13.6107 25.3835 14.2614" fill="url(#paint29_linear_2062_325)"/>
<path d="M0.878113 35.1746V38.6874C0.878113 39.0536 1.02359 39.4048 1.28254 39.6638C1.5415 39.9227 1.89271 40.0682 2.25892 40.0682H26.304C26.6703 40.0682 27.0215 39.9227 27.2804 39.6638C27.5394 39.4048 27.6848 39.0536 27.6848 38.6874V35.1746H0.878113Z" fill="#E6A371"/>
<g opacity="0.4">
<path d="M2.96252 40.0681L3.15827 41.1897L25.3464 42.7715L25.9072 40.0681H2.96252Z" fill="black"/>
</g>
<defs>
<linearGradient id="paint0_linear_2062_325" x1="13.793" y1="-26.354" x2="31.2703" y2="-22.583" gradientUnits="userSpaceOnUse">
<stop stop-color="#F0DB92"/>
<stop offset="1" stop-color="#BF9033"/>
</linearGradient>
<linearGradient id="paint1_linear_2062_325" x1="14.7746" y1="5.88508" x2="20.0819" y2="14.7208" gradientUnits="userSpaceOnUse">
<stop stop-color="#F0DB92"/>
<stop offset="1" stop-color="#BF9033"/>
</linearGradient>
<linearGradient id="paint2_linear_2062_325" x1="13.8672" y1="11.1771" x2="20.6766" y2="20.8396" gradientUnits="userSpaceOnUse">
<stop stop-color="#F0DB92"/>
<stop offset="1" stop-color="#BF9033"/>
</linearGradient>
<linearGradient id="paint3_linear_2062_325" x1="13.7513" y1="19.3593" x2="20.1251" y2="28.9262" gradientUnits="userSpaceOnUse">
<stop stop-color="#F0DB92"/>
<stop offset="1" stop-color="#BF9033"/>
</linearGradient>
<linearGradient id="paint4_linear_2062_325" x1="14.0374" y1="26.4249" x2="18.443" y2="34.1765" gradientUnits="userSpaceOnUse">
<stop stop-color="#F0DB92"/>
<stop offset="1" stop-color="#BF9033"/>
</linearGradient>
<linearGradient id="paint5_linear_2062_325" x1="8.91493" y1="22.9481" x2="14.3232" y2="32.0901" gradientUnits="userSpaceOnUse">
<stop stop-color="#F0DB92"/>
<stop offset="1" stop-color="#BF9033"/>
</linearGradient>
<linearGradient id="paint6_linear_2062_325" x1="8.15845" y1="15.5556" x2="13.9442" y2="25.6693" gradientUnits="userSpaceOnUse">
<stop stop-color="#F0DB92"/>
<stop offset="1" stop-color="#BF9033"/>
</linearGradient>
<linearGradient id="paint7_linear_2062_325" x1="9.06432" y1="7.67697" x2="15.7955" y2="17.7232" gradientUnits="userSpaceOnUse">
<stop stop-color="#F0DB92"/>
<stop offset="1" stop-color="#BF9033"/>
</linearGradient>
<linearGradient id="paint8_linear_2062_325" x1="11.1486" y1="-0.847783" x2="19.5274" y2="8.40046" gradientUnits="userSpaceOnUse">
<stop stop-color="#F0DB92"/>
<stop offset="1" stop-color="#BF9033"/>
</linearGradient>
<linearGradient id="paint9_linear_2062_325" x1="16.3823" y1="-5.20726" x2="24.8633" y2="2.9779" gradientUnits="userSpaceOnUse">
<stop stop-color="#F0DB92"/>
<stop offset="1" stop-color="#BF9033"/>
</linearGradient>
<linearGradient id="paint10_linear_2062_325" x1="4.93826" y1="15.0437" x2="11.1217" y2="15.8892" gradientUnits="userSpaceOnUse">
<stop stop-color="#F0DB92"/>
<stop offset="1" stop-color="#BF9033"/>
</linearGradient>
<linearGradient id="paint11_linear_2062_325" x1="5.15459" y1="16.2748" x2="7.85181" y2="17.3503" gradientUnits="userSpaceOnUse">
<stop stop-color="#F0DB92"/>
<stop offset="1" stop-color="#BF9033"/>
</linearGradient>
<linearGradient id="paint12_linear_2062_325" x1="6.1244" y1="20.7302" x2="8.66397" y2="21.4825" gradientUnits="userSpaceOnUse">
<stop stop-color="#F0DB92"/>
<stop offset="1" stop-color="#BF9033"/>
</linearGradient>
<linearGradient id="paint13_linear_2062_325" x1="7.47671" y1="26.1464" x2="10.4214" y2="27.2645" gradientUnits="userSpaceOnUse">
<stop stop-color="#F0DB92"/>
<stop offset="1" stop-color="#BF9033"/>
</linearGradient>
<linearGradient id="paint14_linear_2062_325" x1="8.60699" y1="29.9987" x2="11.03" y2="31.017" gradientUnits="userSpaceOnUse">
<stop stop-color="#F0DB92"/>
<stop offset="1" stop-color="#BF9033"/>
</linearGradient>
<linearGradient id="paint15_linear_2062_325" x1="4.19532" y1="29.6315" x2="6.56" y2="32.2608" gradientUnits="userSpaceOnUse">
<stop stop-color="#F0DB92"/>
<stop offset="1" stop-color="#BF9033"/>
</linearGradient>
<linearGradient id="paint16_linear_2062_325" x1="2.39127" y1="24.9421" x2="5.28125" y2="27.7829" gradientUnits="userSpaceOnUse">
<stop stop-color="#F0DB92"/>
<stop offset="1" stop-color="#BF9033"/>
</linearGradient>
<linearGradient id="paint17_linear_2062_325" x1="1.37421" y1="19.6678" x2="4.48183" y2="22.3343" gradientUnits="userSpaceOnUse">
<stop stop-color="#F0DB92"/>
<stop offset="1" stop-color="#BF9033"/>
</linearGradient>
<linearGradient id="paint18_linear_2062_325" x1="0.916746" y1="14.2292" x2="4.40849" y2="16.5328" gradientUnits="userSpaceOnUse">
<stop stop-color="#F0DB92"/>
<stop offset="1" stop-color="#BF9033"/>
</linearGradient>
<linearGradient id="paint19_linear_2062_325" x1="3.85987" y1="10.0145" x2="6.40167" y2="10.7075" gradientUnits="userSpaceOnUse">
<stop stop-color="#F0DB92"/>
<stop offset="1" stop-color="#BF9033"/>
</linearGradient>
<linearGradient id="paint20_linear_2062_325" x1="19.023" y1="-9.87141" x2="38.6927" y2="-2.45148" gradientUnits="userSpaceOnUse">
<stop stop-color="#F0DB92"/>
<stop offset="1" stop-color="#BF9033"/>
</linearGradient>
<linearGradient id="paint21_linear_2062_325" x1="21.8206" y1="11.8846" x2="26.8757" y2="17.3384" gradientUnits="userSpaceOnUse">
<stop stop-color="#F0DB92"/>
<stop offset="1" stop-color="#BF9033"/>
</linearGradient>
<linearGradient id="paint22_linear_2062_325" x1="21.1817" y1="15.5399" x2="27.0643" y2="20.2632" gradientUnits="userSpaceOnUse">
<stop stop-color="#F0DB92"/>
<stop offset="1" stop-color="#BF9033"/>
</linearGradient>
<linearGradient id="paint23_linear_2062_325" x1="19.2763" y1="21.1974" x2="25.011" y2="27.0887" gradientUnits="userSpaceOnUse">
<stop stop-color="#F0DB92"/>
<stop offset="1" stop-color="#BF9033"/>
</linearGradient>
<linearGradient id="paint24_linear_2062_325" x1="18.617" y1="26.1802" x2="22.9606" y2="31.1239" gradientUnits="userSpaceOnUse">
<stop stop-color="#F0DB92"/>
<stop offset="1" stop-color="#BF9033"/>
</linearGradient>
<linearGradient id="paint25_linear_2062_325" x1="20.7773" y1="26.8882" x2="22.6289" y2="32.4396" gradientUnits="userSpaceOnUse">
<stop stop-color="#F0DB92"/>
<stop offset="1" stop-color="#BF9033"/>
</linearGradient>
<linearGradient id="paint26_linear_2062_325" x1="22.261" y1="21.6333" x2="24.7387" y2="28.2027" gradientUnits="userSpaceOnUse">
<stop stop-color="#F0DB92"/>
<stop offset="1" stop-color="#BF9033"/>
</linearGradient>
<linearGradient id="paint27_linear_2062_325" x1="23.5485" y1="16.1362" x2="26.4602" y2="22.9486" gradientUnits="userSpaceOnUse">
<stop stop-color="#F0DB92"/>
<stop offset="1" stop-color="#BF9033"/>
</linearGradient>
<linearGradient id="paint28_linear_2062_325" x1="24.3181" y1="10.0036" x2="28.4556" y2="17.4588" gradientUnits="userSpaceOnUse">
<stop stop-color="#F0DB92"/>
<stop offset="1" stop-color="#BF9033"/>
</linearGradient>
<linearGradient id="paint29_linear_2062_325" x1="23.5205" y1="4.47335" x2="29.6859" y2="8.97705" gradientUnits="userSpaceOnUse">
<stop stop-color="#F0DB92"/>
<stop offset="1" stop-color="#BF9033"/>
</linearGradient>
</defs>
</svg>
