<svg width="72" height="121" viewBox="0 0 72 121" fill="none" xmlns="http://www.w3.org/2000/svg">
<path d="M60.5026 3.44385C54.2863 6.66573 49.5196 12.2101 46.0914 18.3153C42.6632 24.4205 40.4571 31.1182 38.2668 37.7683L36.3517 72.0716C43.5837 59.7607 49.3926 45.2966 50.9586 31.1076L46.1443 30.6791C49.3768 30.1871 52.0855 27.8487 53.8102 25.0712C55.5349 22.2937 56.4184 19.1036 57.286 15.9558L51.4136 16.8287C56.051 13.7011 59.3059 8.90783 60.5026 3.44385Z" fill="url(#paint0_linear_2062_312)"/>
<g opacity="0.3">
<path d="M60.5026 3.44385C54.2863 6.66573 49.5196 12.2101 46.0914 18.3153C42.6632 24.4205 40.4571 31.1182 38.2668 37.7683L36.3517 72.0716C43.5837 59.7607 49.3926 45.2966 50.9586 31.1076L46.1443 30.6791C49.3768 30.1871 52.0855 27.8487 53.8102 25.0712C55.5349 22.2937 56.4184 19.1036 57.286 15.9558L51.4136 16.8287C56.051 13.7011 59.3059 8.90783 60.5026 3.44385Z" fill="black"/>
</g>
<path d="M35.283 80.1077C35.283 80.1077 19.5809 61.3107 19.7608 43.3708H26.1093C26.1093 43.3708 19.2317 38.8422 19.7608 36.3028C20.2898 33.7633 20.4856 24.1612 20.4856 24.1612L26.3051 25.6108C26.3051 25.6108 21.9563 23.4364 21.4114 19.9923C20.8665 16.5482 22.6811 0.602783 22.6811 0.602783C22.6811 0.602783 29.7492 8.03587 31.9235 15.6435C34.0979 23.2512 39.8063 32.1339 38.1293 55.322C36.4522 78.51 35.283 80.1077 35.283 80.1077Z" fill="url(#paint1_linear_2062_312)"/>
<path d="M43.2398 81.8801C43.2398 81.8801 60.2751 70.5479 64.0313 56.0997L58.9313 54.7136C58.9313 54.7136 65.4598 52.5974 65.5814 50.4178C65.7031 48.2381 67.65 40.4982 67.65 40.4982L62.6717 40.3924C62.6717 40.3924 66.6448 39.5988 67.8351 36.9483C69.0255 34.2977 71.057 21.0769 71.057 21.0769C71.057 21.0769 63.7509 25.505 60.3386 31.1288C56.9262 36.7525 50.3925 42.662 46.6628 61.6759C42.933 80.6898 43.2398 81.8801 43.2398 81.8801Z" fill="url(#paint2_linear_2062_312)"/>
<path d="M26.9453 16.9873C26.9676 17.0512 26.9853 17.1166 26.9981 17.183C27.0352 17.3312 27.0775 17.5216 27.1357 17.765L27.633 19.9923C27.8499 20.9604 28.1039 22.1508 28.3737 23.5316C28.6435 24.9124 28.9821 26.4837 29.2995 28.2295C29.9714 31.7159 30.6803 35.8848 31.4157 40.5192C32.1511 45.1537 32.8282 50.2643 33.4578 55.6447C34.0874 61.025 34.5476 66.1621 34.918 70.8388C35.2883 75.5156 35.5264 79.7374 35.6692 83.2873C35.7539 85.0596 35.7962 86.6626 35.8438 88.0487C35.8914 89.4348 35.9126 90.6939 35.9231 91.6621C35.9337 92.6302 35.9231 93.4079 35.9231 93.9475V94.5401C35.9313 94.6086 35.9313 94.6779 35.9231 94.7464C35.9163 94.6795 35.9163 94.6122 35.9231 94.5454C35.9231 94.3972 35.9231 94.2015 35.8967 93.9475C35.8967 93.4185 35.8491 92.6461 35.8174 91.6674C35.7856 90.6886 35.7486 89.4612 35.6851 88.054C35.6216 86.6467 35.574 85.0437 35.4735 83.2926C35.3042 79.7532 35.0238 75.5368 34.664 70.86C34.3043 66.1832 33.7964 61.0515 33.1827 55.6764C32.569 50.3013 31.8548 45.1907 31.1617 40.5563C30.4687 35.9218 29.7598 31.753 29.1091 28.2666C28.8075 26.5207 28.4954 24.9441 28.2308 23.5633C27.9663 22.1825 27.7335 20.9869 27.5325 20.0134L27.0881 17.7756C27.0405 17.5269 27.0034 17.3365 26.977 17.1883C26.96 17.1225 26.9493 17.0552 26.9453 16.9873Z" fill="#372011"/>
<path d="M33.1033 91.6145C33.1033 91.6145 18.7344 75.3094 14.2746 65.4585L17.6393 64.0195C15.2004 64.4216 12.698 63.3688 10.804 61.7764C8.91006 60.184 7.52398 58.0731 6.15904 56.0204L10.5977 55.2744C6.51996 54.1095 3.04731 51.4192 0.90033 47.762C6.13788 48.6243 10.8728 51.5023 14.7772 55.0945C17.9515 58.0043 20.5967 61.3849 23.1837 64.8395C24.4404 66.5205 25.5351 68.3167 26.4532 70.2041C28.8657 75.1983 33.1086 85.6258 33.1033 91.6145Z" fill="url(#paint3_linear_2062_312)"/>
<path d="M64.2588 30.5574C64.2407 30.614 64.2177 30.6688 64.19 30.7214C64.1318 30.8431 64.063 30.9965 63.9678 31.1922C63.7615 31.6261 63.4388 32.2503 63.0949 33.0016C62.3225 34.5887 61.2274 36.8424 59.9206 39.6675C58.6139 42.4926 57.0691 45.8785 55.429 49.6612C53.789 53.4439 52.0749 57.6445 50.3555 62.0779C48.6361 66.5113 47.1018 70.786 45.7528 74.6851C44.4037 78.5841 43.2715 82.1181 42.351 85.0967C41.4305 88.0752 40.7057 90.4982 40.2348 92.17C39.9915 92.9953 39.801 93.6407 39.6687 94.101C39.6053 94.3073 39.5524 94.4713 39.5153 94.5983C39.4998 94.6567 39.4786 94.7134 39.4518 94.7676C39.4551 94.7083 39.4657 94.6497 39.4836 94.593C39.5206 94.4608 39.5629 94.2968 39.6158 94.064L40.1449 92.1224C40.5946 90.4347 41.2876 88.0064 42.187 85.0226C43.0864 82.0388 44.2133 78.4889 45.5359 74.5792C46.8585 70.6696 48.4033 66.4055 50.1174 61.9562C51.8315 57.507 53.5774 53.3275 55.2174 49.5395C56.8574 45.7516 58.3917 42.3762 59.7619 39.5617C61.1321 36.7472 62.2272 34.4829 63.0261 32.9328L63.9519 31.1499C64.0525 30.9542 64.1371 30.806 64.1953 30.6896C64.2535 30.5732 64.2535 30.5521 64.2588 30.5574Z" fill="#372011"/>
<path d="M34.3201 98.6032C34.2899 98.5048 34.2686 98.4039 34.2567 98.3016L34.1138 97.434C34.0609 97.0584 33.9921 96.5981 33.8916 96.0691C33.7911 95.54 33.7065 94.9263 33.5583 94.265C33.3044 92.9318 32.934 91.3553 32.4632 89.62C31.9923 87.8847 31.4051 86.0066 30.6539 84.065C29.9026 82.1234 29.1196 80.3194 28.3419 78.7005C27.5642 77.0816 26.7813 75.6638 26.0935 74.4681C25.7602 73.8756 25.4322 73.3571 25.1518 72.881C24.8714 72.4049 24.6227 72.024 24.4164 71.7065L23.9456 70.9659C23.8898 70.8796 23.8403 70.7894 23.7974 70.696C23.7974 70.696 23.8715 70.7701 23.9932 70.9341C24.1148 71.0981 24.2947 71.3574 24.5222 71.643C24.7497 71.9287 25.009 72.3414 25.2999 72.7964C25.5909 73.2513 25.9348 73.7645 26.2786 74.3518C26.9876 75.5157 27.7758 76.9388 28.5853 78.5524C29.3947 80.166 30.1724 81.9859 30.929 83.9328C31.6855 85.8796 32.2516 87.7736 32.7224 89.5142C33.1933 91.2548 33.5319 92.8472 33.7805 94.191C33.9128 94.8576 33.9921 95.4712 34.0768 96.0056C34.1614 96.5399 34.2143 97.0055 34.2567 97.3864C34.299 97.7673 34.3201 98.0265 34.3413 98.2593C34.3504 98.3744 34.3433 98.4901 34.3201 98.6032Z" fill="#372011"/>
<path d="M53.2811 94.7676H21.8347V101.185H53.2811V94.7676Z" fill="#E6A371"/>
<path d="M24.829 101.18L28.2308 120.686H47.2341L50.4031 101.18H24.829Z" fill="#E6A371"/>
<path d="M51.3501 101.18C51.3501 101.259 45.4036 101.317 38.0658 101.317C30.7279 101.317 24.7814 101.259 24.7814 101.18C24.7814 101.1 30.7279 101.069 38.0552 101.069C45.3825 101.069 51.3501 101.106 51.3501 101.18Z" fill="#372011"/>
<defs>
<linearGradient id="paint0_linear_2062_312" x1="31.5662" y1="-50.4165" x2="104.287" y2="-5.07833" gradientUnits="userSpaceOnUse">
<stop stop-color="#F0DB92"/>
<stop offset="1" stop-color="#BF9033"/>
</linearGradient>
<linearGradient id="paint1_linear_2062_312" x1="16.026" y1="-61.7941" x2="82.6557" y2="-34.0277" gradientUnits="userSpaceOnUse">
<stop stop-color="#F0DB92"/>
<stop offset="1" stop-color="#BF9033"/>
</linearGradient>
<linearGradient id="paint2_linear_2062_312" x1="37.7205" y1="-26.6426" x2="107.925" y2="30.2712" gradientUnits="userSpaceOnUse">
<stop stop-color="#F0DB92"/>
<stop offset="1" stop-color="#BF9033"/>
</linearGradient>
<linearGradient id="paint3_linear_2062_312" x1="-5.48071" y1="13.3457" x2="44.5303" y2="78.409" gradientUnits="userSpaceOnUse">
<stop stop-color="#F0DB92"/>
<stop offset="1" stop-color="#BF9033"/>
</linearGradient>
</defs>
</svg>
