<svg width="132" height="204" viewBox="0 0 132 204" fill="none" xmlns="http://www.w3.org/2000/svg">
<path d="M117.671 0.459167H14.1131C6.77007 0.459167 0.817383 6.41185 0.817383 13.7549V190.432C0.817383 197.775 6.77007 203.728 14.1131 203.728H117.671C125.014 203.728 130.967 197.775 130.967 190.432V13.7549C130.967 6.41185 125.014 0.459167 117.671 0.459167Z" fill="white"/>
<path d="M117.672 203.728H118.097C118.366 203.728 118.791 203.728 119.328 203.617C120.934 203.393 122.488 202.885 123.917 202.119C126.23 200.839 128.116 198.908 129.343 196.567C130.108 195.093 130.59 193.488 130.762 191.836C130.889 190.053 130.762 188.113 130.762 186.079C130.762 169.771 130.683 146.192 130.62 117.077C130.557 87.9617 130.62 53.2477 130.542 14.7327C130.685 12.3512 130.173 9.97589 129.061 7.86521C127.949 5.75454 126.279 3.98937 124.233 2.76184C120.069 0.0806197 114.77 1.18467 109.817 0.932321H14.1133C11.418 0.937666 8.79185 1.786 6.60278 3.35851C4.41371 4.93102 2.77139 7.14892 1.90586 9.7015C1.24141 12.3169 1.01229 15.0238 1.22768 17.7136V25.8519C1.22768 36.682 1.22768 47.3438 1.22768 57.8374C1.22768 78.7982 1.22768 99.0178 1.22768 118.275C1.22768 137.533 1.22768 155.844 1.22768 172.972V185.59C1.22768 187.64 1.14882 189.738 1.22768 191.694C1.50338 194.586 2.74069 197.304 4.742 199.411C6.7433 201.518 9.39311 202.893 12.268 203.317C14.1296 203.481 15.9992 203.533 17.867 203.475H23.403L92.4051 203.617L111.158 203.696H116.047H117.703C117.703 203.696 117.135 203.696 116.047 203.696H111.158L92.4051 203.775L23.403 203.901H17.9143C16.0203 203.95 14.1249 203.897 12.2364 203.743C9.21827 203.312 6.43283 201.878 4.32758 199.672C2.22233 197.467 0.919489 194.618 0.628344 191.583C0.502168 189.501 0.628344 187.498 0.628344 185.416C0.628344 181.284 0.628344 177.073 0.628344 172.799C0.628344 155.671 0.628344 137.375 0.628344 118.102C0.628344 98.8286 0.628344 78.672 0.628344 57.6639V13.5025C0.655451 12.0856 0.900129 10.6813 1.35384 9.33873C2.26058 6.62732 3.99901 4.27078 6.32198 2.60414C8.65522 0.920918 11.4571 0.010841 14.3341 0.00176017H117.593C120.145 -0.0390182 122.658 0.629461 124.852 1.9327C127.046 3.23593 128.836 5.12277 130.021 7.38303C130.59 8.49668 131.014 9.67868 131.283 10.9002C131.502 12.1176 131.597 13.3541 131.567 14.5908C131.567 53.1058 131.567 87.7882 131.472 116.935C131.377 146.081 131.377 169.629 131.346 185.937C131.346 187.971 131.346 189.88 131.251 191.709C131.087 193.414 130.588 195.07 129.784 196.583C128.514 198.944 126.578 200.88 124.217 202.15C122.746 202.928 121.14 203.415 119.485 203.586C118.885 203.679 118.279 203.727 117.672 203.728Z" fill="#263238"/>
<path d="M18.3555 21.8775C20.5593 21.8775 22.3458 20.091 22.3458 17.8872C22.3458 15.6834 20.5593 13.8969 18.3555 13.8969C16.1517 13.8969 14.3652 15.6834 14.3652 17.8872C14.3652 20.091 16.1517 21.8775 18.3555 21.8775Z" fill="#E0E0E0"/>
<path d="M32.6456 17.8872C32.6456 18.6764 32.4116 19.4479 31.9731 20.1041C31.5347 20.7603 30.9115 21.2717 30.1824 21.5738C29.4532 21.8758 28.6509 21.9548 27.8768 21.8008C27.1028 21.6469 26.3918 21.2668 25.8338 20.7088C25.2757 20.1507 24.8957 19.4397 24.7417 18.6657C24.5877 17.8916 24.6668 17.0893 24.9688 16.3602C25.2708 15.6311 25.7823 15.0079 26.4385 14.5694C27.0947 14.131 27.8661 13.8969 28.6553 13.8969C29.7136 13.8969 30.7285 14.3173 31.4769 15.0657C32.2252 15.814 32.6456 16.8289 32.6456 17.8872Z" fill="#E0E0E0"/>
<path d="M38.9537 21.8775C41.1574 21.8775 42.944 20.091 42.944 17.8872C42.944 15.6834 41.1574 13.8969 38.9537 13.8969C36.7499 13.8969 34.9634 15.6834 34.9634 17.8872C34.9634 20.091 36.7499 21.8775 38.9537 21.8775Z" fill="#E0E0E0"/>
<path d="M111.93 38.8323C111.93 39.0531 91.3164 39.2424 65.8921 39.2424C40.4678 39.2424 19.8381 39.0531 19.8381 38.8323C19.8381 38.6115 40.452 38.4222 65.8921 38.4222C91.3322 38.4222 111.93 38.5957 111.93 38.8323Z" fill="#263238"/>
<path d="M111.93 46.939C111.93 47.1598 91.3164 47.349 65.8921 47.349C40.4678 47.349 19.8381 47.1598 19.8381 46.939C19.8381 46.7182 40.452 46.5289 65.8921 46.5289C91.3322 46.5289 111.93 46.7024 111.93 46.939Z" fill="#263238"/>
<path d="M111.93 55.0456C111.93 55.2665 91.3164 55.4557 65.8921 55.4557C40.4678 55.4557 19.8381 55.2665 19.8381 55.0456C19.8381 54.8248 40.452 54.6356 65.8921 54.6356C91.3322 54.6356 111.93 54.8091 111.93 55.0456Z" fill="#263238"/>
<path d="M111.93 63.1524C111.93 63.3732 91.3164 63.5624 65.8921 63.5624C40.4678 63.5624 19.8381 63.3732 19.8381 63.1524C19.8381 62.9316 40.452 62.7265 65.8921 62.7265C91.3322 62.7265 111.93 62.9158 111.93 63.1524Z" fill="#263238"/>
<path d="M111.93 71.2436C111.93 71.4802 91.3164 71.6537 65.8921 71.6537C40.4678 71.6537 19.8381 71.4802 19.8381 71.2436C19.8381 71.007 40.452 70.8336 65.8921 70.8336C91.3322 70.8336 111.93 71.0228 111.93 71.2436Z" fill="#263238"/>
<path d="M111.93 79.2873C111.93 79.5238 91.3164 79.6973 65.8921 79.6973C40.4678 79.6973 19.8381 79.5238 19.8381 79.2873C19.8381 79.0507 40.452 78.8772 65.8921 78.8772C91.3322 78.8772 111.93 79.1295 111.93 79.2873Z" fill="#263238"/>
<path d="M111.93 141.381C111.93 141.602 91.3164 141.791 65.8921 141.791C40.4678 141.791 19.8381 141.602 19.8381 141.381C19.8381 141.16 40.452 140.971 65.8921 140.971C91.3322 140.971 111.93 141.145 111.93 141.381Z" fill="#263238"/>
<path d="M111.93 150.261C111.93 150.482 91.3164 150.671 65.8921 150.671C40.4678 150.671 19.8381 150.482 19.8381 150.261C19.8381 150.04 40.452 149.851 65.8921 149.851C91.3322 149.851 111.93 149.977 111.93 150.261Z" fill="#263238"/>
<path d="M111.93 159.03C111.93 159.251 91.3164 159.44 65.8921 159.44C40.4678 159.44 19.8381 159.251 19.8381 159.03C19.8381 158.809 40.452 158.62 65.8921 158.62C91.3322 158.62 111.93 158.793 111.93 159.03Z" fill="#263238"/>
<path d="M111.93 167.846C111.93 168.067 91.3164 168.256 65.8921 168.256C40.4678 168.256 19.8381 168.067 19.8381 167.846C19.8381 167.626 40.452 167.436 65.8921 167.436C91.3322 167.436 111.93 167.61 111.93 167.846Z" fill="#263238"/>
<path d="M111.93 176.663C111.93 176.9 91.3164 177.089 65.8921 177.089C40.4678 177.089 19.8381 176.9 19.8381 176.663C19.8381 176.427 40.452 176.253 65.8921 176.253C91.3322 176.253 111.93 176.442 111.93 176.663Z" fill="#263238"/>
<path d="M114.327 91.0847H107.151H87.3416H20.0271L20.1848 90.9743C20.1848 96.2579 20.1848 101.747 20.1848 107.361C20.1848 112.976 20.1848 118.796 20.1848 124.253L20.0271 124.127H19.8694V124.016C19.8694 118.559 19.8694 112.976 19.8694 107.125C19.8694 101.273 19.8694 96.0844 19.8694 90.7378V90.6116H20.0271H87.3416H107.151H114.327V91.0847Z" fill="#E0E0E0"/>
<path d="M114.328 96.6363C114.328 96.6363 93.209 96.7625 67.1696 96.7625C41.1302 96.7625 20.0273 96.7625 20.0273 96.6363C20.0273 96.5101 41.1302 96.5101 67.1696 96.5101C93.209 96.5101 114.328 96.6363 114.328 96.6363Z" fill="#E0E0E0"/>
<path d="M114.328 101.273C114.328 101.273 93.209 101.384 67.1696 101.384C41.1302 101.384 20.0273 101.384 20.0273 101.273C20.0273 101.163 41.1302 101.147 67.1696 101.147C93.209 101.147 114.328 101.194 114.328 101.273Z" fill="#E0E0E0"/>
<path d="M114.328 105.847C114.328 105.847 93.209 105.973 67.1696 105.973C41.1302 105.973 20.0273 105.973 20.0273 105.847C20.0273 105.721 41.1302 105.737 67.1696 105.737C93.209 105.737 114.328 105.784 114.328 105.847Z" fill="#E0E0E0"/>
<path d="M114.328 110.437C114.328 110.437 93.209 110.547 67.1696 110.547C41.1302 110.547 20.0273 110.547 20.0273 110.437C20.0273 110.326 41.1302 110.311 67.1696 110.311C93.209 110.311 114.328 110.374 114.328 110.437Z" fill="#E0E0E0"/>
<path d="M114.328 115.011C114.328 115.011 93.209 115.137 67.1696 115.137C41.1302 115.137 20.0273 115.137 20.0273 115.011C20.0273 114.884 41.1302 114.9 67.1696 114.9C93.209 114.9 114.328 114.947 114.328 115.011Z" fill="#E0E0E0"/>
<path d="M20.0273 119.6C20.0273 119.6 41.1302 119.474 67.1696 119.474C93.209 119.474 114.328 119.474 114.328 119.6C114.328 119.726 93.209 119.726 67.1696 119.726C41.1302 119.726 20.0273 119.663 20.0273 119.6Z" fill="#E0E0E0"/>
<path d="M33.3858 124.868C33.3858 124.868 33.2754 117.298 33.2754 107.976C33.2754 98.6552 33.2754 91.0847 33.3858 91.0847C33.4962 91.0847 33.512 98.6394 33.512 107.976C33.512 117.313 33.4647 124.868 33.3858 124.868Z" fill="#E0E0E0"/>
<path d="M46.9664 124.868C46.9664 124.868 46.856 117.298 46.856 107.976C46.856 98.6552 46.856 91.0847 46.9664 91.0847C47.0768 91.0847 47.0925 98.6394 47.0925 107.976C47.0925 117.313 47.0452 124.868 46.9664 124.868Z" fill="#E0E0E0"/>
<path d="M60.4985 124.868C60.4196 124.868 60.3723 117.298 60.3723 107.976C60.3723 98.6552 60.3723 91.0847 60.4985 91.0847C60.6246 91.0847 60.6089 98.6394 60.6089 107.976C60.6089 117.313 60.6246 124.868 60.4985 124.868Z" fill="#E0E0E0"/>
<path d="M74.1415 124.868C74.1415 124.868 74.0154 117.298 74.0154 107.976C74.0154 98.6552 74.0154 91.0847 74.1415 91.0847C74.2677 91.0847 74.2519 98.6394 74.2519 107.976C74.2519 117.313 74.2046 124.868 74.1415 124.868Z" fill="#E0E0E0"/>
<path d="M87.7207 124.868C87.6418 124.868 87.5945 117.298 87.5945 107.976C87.5945 98.6552 87.5945 91.0847 87.7207 91.0847C87.8469 91.0847 87.8311 98.6394 87.8311 107.976C87.8311 117.313 87.7838 124.868 87.7207 124.868Z" fill="#E0E0E0"/>
<path d="M100.858 124.868C100.858 124.868 100.732 117.298 100.732 107.976C100.732 98.6552 100.732 91.0847 100.858 91.0847C100.985 91.0847 100.985 98.6394 100.985 107.976C100.985 117.313 100.921 124.868 100.858 124.868Z" fill="#E0E0E0"/>
<path d="M114.438 124.868C114.438 124.868 114.328 117.298 114.328 107.976C114.328 98.6552 114.328 91.0847 114.438 91.0847C114.548 91.0847 114.564 98.6394 114.564 107.976C114.564 117.313 114.501 124.868 114.438 124.868Z" fill="#E0E0E0"/>
<path d="M34.2221 119.6C34.2221 119.709 34.2004 119.817 34.1582 119.918C34.116 120.018 34.0542 120.109 33.9763 120.186C33.8985 120.262 33.8062 120.322 33.7049 120.363C33.6036 120.403 33.4952 120.422 33.3862 120.42C33.2641 120.455 33.1357 120.461 33.0109 120.438C32.8861 120.415 32.7684 120.363 32.667 120.287C32.5657 120.21 32.4835 120.111 32.4269 119.998C32.3703 119.884 32.3408 119.759 32.3408 119.632C32.3408 119.505 32.3703 119.38 32.4269 119.266C32.4835 119.152 32.5657 119.053 32.667 118.977C32.7684 118.901 32.8861 118.849 33.0109 118.825C33.1357 118.802 33.2641 118.808 33.3862 118.843C33.5959 118.839 33.7994 118.914 33.9549 119.055C34.1104 119.196 34.206 119.391 34.2221 119.6Z" fill="#E6A371"/>
<path d="M46.9662 111.257C47.4191 111.257 47.7863 110.89 47.7863 110.437C47.7863 109.984 47.4191 109.616 46.9662 109.616C46.5132 109.616 46.146 109.984 46.146 110.437C46.146 110.89 46.5132 111.257 46.9662 111.257Z" fill="#E6A371"/>
<path d="M61.381 114.932C61.3973 115.05 61.3882 115.171 61.3541 115.285C61.3199 115.4 61.2617 115.505 61.1832 115.595C61.1048 115.686 61.0079 115.758 60.8992 115.807C60.7904 115.857 60.6724 115.882 60.5529 115.882C60.4335 115.882 60.3154 115.857 60.2067 115.807C60.098 115.758 60.0011 115.686 59.9227 115.595C59.8442 115.505 59.7859 115.4 59.7518 115.285C59.7177 115.171 59.7086 115.05 59.7249 114.932C59.7526 114.732 59.8517 114.549 60.0039 114.416C60.1561 114.284 60.3511 114.21 60.5529 114.21C60.7548 114.21 60.9498 114.284 61.102 114.416C61.2542 114.549 61.3533 114.732 61.381 114.932Z" fill="#E6A371"/>
<path d="M74.882 105.279C75.043 105.44 75.1335 105.659 75.1335 105.887C75.1335 106.114 75.043 106.333 74.882 106.494C74.7209 106.655 74.5025 106.745 74.2747 106.745C74.047 106.745 73.8286 106.655 73.6676 106.494C73.5065 106.333 73.416 106.114 73.416 105.887C73.416 105.659 73.5065 105.44 73.6676 105.279C73.8286 105.118 74.047 105.028 74.2747 105.028C74.5025 105.028 74.7209 105.118 74.882 105.279Z" fill="#E6A371"/>
<path d="M88.619 105.279C88.7801 105.44 88.8706 105.659 88.8706 105.887C88.8706 106.114 88.7801 106.333 88.619 106.494C88.458 106.655 88.2396 106.745 88.0118 106.745C87.7841 106.745 87.5657 106.655 87.4046 106.494C87.2436 106.333 87.1531 106.114 87.1531 105.887C87.1531 105.659 87.2436 105.44 87.4046 105.279C87.5657 105.118 87.7841 105.028 88.0118 105.028C88.2396 105.028 88.458 105.118 88.619 105.279Z" fill="#E6A371"/>
<path d="M101.505 114.285C101.666 114.444 101.757 114.66 101.759 114.887C101.76 115.113 101.672 115.331 101.513 115.492C101.354 115.653 101.138 115.744 100.911 115.746C100.685 115.747 100.467 115.659 100.306 115.5C100.145 115.341 100.054 115.124 100.053 114.898C100.051 114.672 100.139 114.454 100.298 114.293C100.457 114.132 100.674 114.041 100.9 114.039C101.126 114.038 101.344 114.126 101.505 114.285Z" fill="#E6A371"/>
<path d="M47.881 101.273C47.8533 101.473 47.7542 101.656 47.602 101.789C47.4498 101.922 47.2548 101.995 47.0529 101.995C46.8511 101.995 46.6561 101.922 46.5039 101.789C46.3517 101.656 46.2526 101.473 46.2249 101.273C46.2086 101.155 46.2177 101.034 46.2518 100.92C46.2859 100.806 46.3442 100.7 46.4227 100.61C46.5011 100.52 46.598 100.447 46.7067 100.398C46.8154 100.348 46.9335 100.323 47.0529 100.323C47.1724 100.323 47.2904 100.348 47.3992 100.398C47.5079 100.447 47.6048 100.52 47.6832 100.61C47.7617 100.7 47.8199 100.806 47.8541 100.92C47.8882 101.034 47.8973 101.155 47.881 101.273Z" fill="#455A64"/>
<path d="M34.2219 115.011C34.2219 115.232 34.1338 115.445 33.977 115.602C33.8202 115.758 33.6076 115.847 33.3859 115.847C33.2769 115.847 33.169 115.825 33.0684 115.783C32.9679 115.74 32.8767 115.679 32.8004 115.601C32.724 115.523 32.6639 115.431 32.6236 115.329C32.5834 115.228 32.5637 115.12 32.5658 115.011C32.5658 114.903 32.587 114.796 32.6283 114.697C32.6695 114.597 32.7298 114.507 32.806 114.431C32.8822 114.355 32.9726 114.294 33.0721 114.253C33.1716 114.212 33.2782 114.191 33.3859 114.191C33.495 114.188 33.6033 114.208 33.7046 114.248C33.806 114.289 33.8983 114.349 33.9761 114.425C34.0539 114.501 34.1157 114.593 34.1579 114.693C34.2001 114.794 34.2219 114.902 34.2219 115.011Z" fill="#455A64"/>
<path d="M101.506 119.001C101.665 119.162 101.753 119.379 101.752 119.606C101.751 119.832 101.659 120.048 101.498 120.207C101.337 120.366 101.12 120.455 100.893 120.453C100.667 120.452 100.451 120.361 100.292 120.199C100.133 120.038 100.044 119.821 100.046 119.595C100.047 119.368 100.138 119.152 100.299 118.993C100.461 118.834 100.678 118.745 100.904 118.747C101.131 118.748 101.347 118.84 101.506 119.001Z" fill="#455A64"/>
<path d="M88.5408 110.437C88.5408 110.654 88.4544 110.863 88.3006 111.017C88.1468 111.17 87.9382 111.257 87.7207 111.257C87.6117 111.259 87.5033 111.239 87.4019 111.199C87.3006 111.159 87.2084 111.099 87.1305 111.022C87.0527 110.946 86.9908 110.855 86.9486 110.754C86.9064 110.654 86.8847 110.546 86.8848 110.437C86.8848 110.215 86.9728 110.002 87.1296 109.846C87.2863 109.689 87.499 109.601 87.7207 109.601C87.8297 109.601 87.9377 109.622 88.0382 109.665C88.1387 109.707 88.2299 109.769 88.3062 109.847C88.3826 109.924 88.4427 110.017 88.4829 110.118C88.5232 110.219 88.5429 110.328 88.5408 110.437Z" fill="#455A64"/>
<path d="M75.1023 110.311C75.1023 110.532 75.0142 110.745 74.8574 110.902C74.7007 111.059 74.4881 111.147 74.2664 111.147C74.1573 111.147 74.0493 111.125 73.9488 111.083C73.8482 111.041 73.7572 110.979 73.6808 110.901C73.6044 110.823 73.5443 110.731 73.5041 110.629C73.4638 110.528 73.4441 110.42 73.4462 110.311C73.4462 110.093 73.5326 109.885 73.6864 109.731C73.8402 109.577 74.0489 109.491 74.2664 109.491C74.3754 109.488 74.4837 109.508 74.585 109.548C74.6864 109.589 74.7787 109.649 74.8565 109.725C74.9343 109.802 74.9962 109.893 75.0384 109.993C75.0806 110.094 75.1023 110.202 75.1023 110.311Z" fill="#455A64"/>
<path d="M27.7246 128.18C26.86 128.348 25.9711 128.348 25.1064 128.18C25.9711 128.012 26.86 128.012 27.7246 128.18Z" fill="#E0E0E0"/>
<path d="M41.572 128.18C40.7074 128.348 39.8185 128.348 38.9539 128.18C39.8185 128.012 40.7074 128.012 41.572 128.18Z" fill="#E0E0E0"/>
<path d="M55.4822 128.18C54.6175 128.348 53.7286 128.348 52.864 128.18C53.7286 128.012 54.6175 128.012 55.4822 128.18Z" fill="#E0E0E0"/>
<path d="M69.3625 128.18C68.4979 128.348 67.609 128.348 66.7444 128.18C67.609 128.012 68.4979 128.012 69.3625 128.18Z" fill="#E0E0E0"/>
<path d="M83.2412 128.18C82.3766 128.348 81.4877 128.348 80.623 128.18C81.4877 128.012 82.3766 128.012 83.2412 128.18Z" fill="#E0E0E0"/>
<path d="M95.654 128.18C94.7894 128.348 93.9005 128.348 93.0359 128.18C93.9005 128.012 94.7894 128.012 95.654 128.18Z" fill="#E0E0E0"/>
<path d="M108.066 128.18C107.201 128.348 106.312 128.348 105.448 128.18C106.312 128.012 107.201 128.012 108.066 128.18Z" fill="#E0E0E0"/>
<path d="M18.0714 124.174C17.3747 124.321 16.6548 124.321 15.958 124.174C16.6525 124.006 17.377 124.006 18.0714 124.174Z" fill="#E0E0E0"/>
<path d="M18.0714 118.843C17.3747 118.991 16.6548 118.991 15.958 118.843C16.6525 118.675 17.377 118.675 18.0714 118.843Z" fill="#E0E0E0"/>
<path d="M18.0714 113.512C17.3747 113.659 16.6548 113.659 15.958 113.512C16.6525 113.344 17.377 113.344 18.0714 113.512Z" fill="#E0E0E0"/>
<path d="M18.0714 108.181C17.3747 108.329 16.6548 108.329 15.958 108.181C16.6525 108.013 17.377 108.013 18.0714 108.181Z" fill="#E0E0E0"/>
<path d="M18.0714 102.85C17.3747 102.998 16.6548 102.998 15.958 102.85C16.6525 102.682 17.377 102.682 18.0714 102.85Z" fill="#E0E0E0"/>
<path d="M18.0714 97.5196C17.3747 97.6669 16.6548 97.6669 15.958 97.5196C16.6525 97.3516 17.377 97.3516 18.0714 97.5196Z" fill="#E0E0E0"/>
<path d="M18.0714 92.1885C17.3747 92.3358 16.6548 92.3358 15.958 92.1885C16.6525 92.0205 17.377 92.0205 18.0714 92.1885Z" fill="#E0E0E0"/>
<path d="M19.9322 124.568L19.7903 124.143L33.291 119.395L46.9337 110.184L60.5134 114.679L74.2034 105.658L87.9092 105.626L87.9723 105.658L100.984 114.869L113.602 106.525L113.854 106.904L100.984 115.421L100.842 115.326L87.7672 106.084L74.3453 106.115L60.5922 115.184L47.0126 110.689L33.4645 119.821L19.9322 124.568Z" fill="#E6A371"/>
<path d="M101.063 119.695L87.7677 110.658H74.0619L60.3561 101.62L47.0604 101.494L33.4808 115.247H20.0273V114.79H33.2915L46.8869 101.037L60.4981 101.163L74.2039 110.2H87.9097L100.906 119.048L113.886 96.2264L114.28 96.4472L101.063 119.695Z" fill="#455A64"/>
</svg>
