<svg width="127" height="121" viewBox="0 0 127 121" fill="none" xmlns="http://www.w3.org/2000/svg">
<path d="M54.1586 32.5586C61.4587 37.5303 62.7307 41.0882 63.1855 43.4704C63.6381 45.8559 63.749 49.631 58.7772 56.9311C58.5874 57.2097 58.0936 58.0176 58.9583 58.6065C59.8296 59.1999 60.3876 58.4357 60.5773 58.1571C65.5491 50.857 69.1059 49.5796 71.4913 49.1272C73.8735 48.6723 77.6478 48.5561 84.9511 53.5301C85.2297 53.7198 86.0321 54.2288 86.6255 53.3576C87.2146 52.4926 86.4559 51.9198 86.1771 51.7299C78.8738 46.7559 77.5975 43.2044 77.1459 40.8244C76.6956 38.4357 76.577 34.6649 81.5489 27.3646C81.7386 27.086 82.2475 26.2838 81.3762 25.6904C80.5113 25.1014 79.9385 25.86 79.7486 26.1388C74.7768 33.4389 71.2275 34.7119 68.84 35.1679C66.4567 35.6172 62.6848 35.7305 55.3845 30.7586C55.1059 30.5689 54.2969 30.0695 53.7058 30.9375C53.1169 31.8022 53.8798 32.3687 54.1586 32.5586Z" fill="url(#paint0_linear_8_12520)"/>
<path d="M38.3178 55.1839C38.7127 54.6041 38.2026 54.2237 38.0169 54.0972C33.132 50.7703 32.2762 48.3917 31.9738 46.7978C31.6736 45.2006 31.5932 42.6749 34.9201 37.79C35.0466 37.6043 35.3852 37.0657 34.8022 36.6686C34.2255 36.2759 33.842 36.7839 33.7155 36.9696C30.3886 41.8545 28.0121 42.7072 26.4161 43.0127C24.8189 43.3128 22.2921 43.3877 17.4105 40.0631C17.2216 39.9347 16.6842 39.6014 16.2894 40.1812C15.8945 40.7609 16.4013 41.1391 16.5903 41.2678C21.4721 44.5926 22.3257 46.9745 22.6312 48.5705C22.9336 50.1644 23.0084 52.6912 19.6793 57.5794C19.5528 57.7651 19.2228 58.3047 19.7995 58.6974C20.3825 59.0945 20.7574 58.5855 20.8839 58.3998C24.213 53.5116 26.595 52.658 28.1889 52.3556C29.785 52.05 32.3118 51.9751 37.1967 55.302C37.3824 55.4285 37.9207 55.7669 38.3178 55.1839Z" fill="url(#paint1_linear_8_12520)"/>
<path d="M91.0782 107.64C85.7674 104.022 84.8395 101.44 84.5073 99.7039C84.1836 97.9689 84.098 95.2238 87.7151 89.9129C87.8525 89.7112 88.2237 89.1247 87.5894 88.6927C86.9584 88.2629 86.5453 88.821 86.408 89.0227C82.7909 94.3336 80.2051 95.2592 78.469 95.5915C76.7319 95.9182 73.9857 95.9984 68.6812 92.3857C68.4762 92.2461 67.8908 91.8802 67.4588 92.5145C67.0291 93.1455 67.5838 93.5563 67.7889 93.6959C73.0934 97.3086 74.0223 99.8967 74.3545 101.633C74.6835 103.367 74.767 106.115 71.15 111.426C71.0104 111.631 70.6465 112.213 71.2777 112.643C71.912 113.075 72.3175 112.521 72.4571 112.316C76.0741 107.005 78.6622 106.076 80.3928 105.745C82.1321 105.415 84.875 105.333 90.1859 108.95C90.3909 109.089 90.9742 109.458 91.4083 108.821C91.8359 108.193 91.2832 107.779 91.0782 107.64Z" fill="url(#paint2_linear_8_12520)"/>
<defs>
<linearGradient id="paint0_linear_8_12520" x1="63.8894" y1="23.1919" x2="79.1402" y2="59.9845" gradientUnits="userSpaceOnUse">
<stop stop-color="#F0DB92"/>
<stop offset="1" stop-color="#BF9033"/>
</linearGradient>
<linearGradient id="paint1_linear_8_12520" x1="23.1031" y1="34.9991" x2="33.31" y2="59.6195" gradientUnits="userSpaceOnUse">
<stop stop-color="#F0DB92"/>
<stop offset="1" stop-color="#BF9033"/>
</linearGradient>
<linearGradient id="paint2_linear_8_12520" x1="74.8689" y1="86.8769" x2="85.9668" y2="113.642" gradientUnits="userSpaceOnUse">
<stop stop-color="#F0DB92"/>
<stop offset="1" stop-color="#BF9033"/>
</linearGradient>
</defs>
</svg>
