<svg width="76" height="114" viewBox="0 0 76 114" fill="none" xmlns="http://www.w3.org/2000/svg">
<path d="M47.3267 80.3808C55.889 76.7453 65.8065 69.5961 70.2257 60.8284C60.7199 64.7649 52.7041 71.6092 47.3267 80.3808Z" fill="url(#paint0_linear_2064_808)"/>
<path d="M49.1509 66.7828C57.7132 63.1472 67.6243 55.9917 72.0499 47.2239C62.5448 51.1647 54.5296 58.0108 49.1509 66.7828Z" fill="url(#paint1_linear_2064_808)"/>
<path d="M51.6239 53.5444C60.1926 49.9088 70.1037 42.7597 74.5293 33.9919C65.023 37.9303 57.0056 44.7741 51.6239 53.5444Z" fill="url(#paint2_linear_2064_808)"/>
<path d="M54.7327 39.6893C62.8132 34.8976 71.8187 26.4317 75.1716 17.1372C66.1957 22.3665 59.0565 30.2438 54.7327 39.6893Z" fill="url(#paint3_linear_2064_808)"/>
<path d="M58.0536 29.0846C63.9373 21.3767 69.4292 9.93039 69.3521 0C62.8118 8.37512 58.8822 18.4906 58.0536 29.0846Z" fill="url(#paint4_linear_2064_808)"/>
<path d="M56.4028 34.1334C55.2209 23.7148 51.1678 10.6242 44.3013 2.81348C45.4563 14.1491 49.6358 24.9662 56.4028 34.1334Z" fill="url(#paint5_linear_2064_808)"/>
<path d="M53.6408 45.5154C51.5404 34.7821 46.2412 21.5051 38.4369 13.9771C40.5747 25.6664 45.8273 36.5622 53.6408 45.5154Z" fill="url(#paint6_linear_2064_808)"/>
<path d="M50.4548 59.4026C48.3609 48.6693 43.0617 35.3923 35.2574 27.8643C37.3957 39.5521 42.6458 50.4472 50.4548 59.4026Z" fill="url(#paint7_linear_2064_808)"/>
<path d="M47.9048 76.4564C45.8108 65.7231 40.5116 52.4461 32.7073 44.9116C34.8455 56.6015 40.0955 67.4987 47.9048 76.4564Z" fill="url(#paint8_linear_2064_808)"/>
<path d="M58.4326 27.0676C58.4326 27.0676 58.4326 27.119 58.3683 27.2282C58.3041 27.3374 58.272 27.5108 58.2013 27.7035L57.6104 29.5663C57.0965 31.1785 56.3964 33.5294 55.5806 36.4456C54.7649 39.3618 53.8592 42.8689 52.9278 46.7229C51.9964 50.5768 51.0843 54.9254 50.2236 59.4666C49.3629 64.0079 48.682 68.3565 48.1168 72.3132C47.5515 76.2699 47.1469 79.8606 46.8321 82.8731C46.5174 85.8856 46.3247 88.3264 46.2219 90.0158C46.1705 90.8444 46.1256 91.4931 46.0999 91.9427C46.0999 92.1483 46.0999 92.3153 46.0999 92.4502C46.0886 92.5075 46.0886 92.5663 46.0999 92.6236C46.0999 92.6236 46.0999 92.5658 46.0999 92.4502C46.0999 92.3346 46.1384 92.1547 46.1577 91.9492C46.2027 91.4803 46.2669 90.8315 46.344 90.0222C46.4917 88.3329 46.7294 85.8984 47.0634 82.8923C47.3974 79.8863 47.8342 76.3085 48.3994 72.3453C48.9647 68.3822 49.6841 64.0464 50.5255 59.4988C51.367 54.9511 52.3048 50.6603 53.204 46.7614C54.1033 42.8625 54.9961 39.3746 55.7733 36.4842C56.5505 33.5937 57.2186 31.2042 57.7003 29.5791L58.2335 27.71C58.2913 27.5044 58.3298 27.3438 58.3683 27.2154C58.3959 27.169 58.4175 27.1194 58.4326 27.0676Z" fill="url(#paint9_linear_2064_808)"/>
<path d="M43.1516 86.0591C46.7871 78.454 49.4271 67.7592 47.6479 59.4089C43.5887 67.6659 42.0261 76.9275 43.1516 86.0591Z" fill="url(#paint10_linear_2064_808)"/>
<path d="M37.1137 76.2122C40.7428 68.6006 43.3892 57.9123 41.61 49.562C37.548 57.818 35.9853 67.0805 37.1137 76.2122Z" fill="url(#paint11_linear_2064_808)"/>
<path d="M31.6989 66.1983C35.328 58.5867 37.968 47.8984 36.1952 39.5481C32.1332 47.8041 30.5705 57.0666 31.6989 66.1983Z" fill="url(#paint12_linear_2064_808)"/>
<path d="M26.3611 55.3944C29.0589 47.346 30.4142 36.375 27.6458 28.3459C24.6041 37.0468 24.1578 46.4444 26.3611 55.3944Z" fill="url(#paint13_linear_2064_808)"/>
<path d="M22.8861 46.556C22.6228 37.9873 20.0984 27.2861 14.78 20.9399C14.9002 30.0906 17.7202 39.002 22.8861 46.556Z" fill="url(#paint14_linear_2064_808)"/>
<path d="M24.492 50.8339C18.1907 44.8859 8.61362 38.983 0 38.2122C6.73878 44.7452 15.2609 49.137 24.492 50.8339Z" fill="url(#paint15_linear_2064_808)"/>
<path d="M28.7377 59.8264C21.6721 54.2317 11.1893 48.9839 2.1261 48.9646C9.72582 55.1397 18.9875 58.92 28.7377 59.8264Z" fill="url(#paint16_linear_2064_808)"/>
<path d="M34.0241 70.6753C26.9585 65.0807 16.4757 59.8264 7.40601 59.8071C15.0045 65.9894 24.2699 69.7725 34.0241 70.6753Z" fill="url(#paint17_linear_2064_808)"/>
<path d="M41.443 83.1814C34.3774 77.5867 23.8946 72.3325 14.8314 72.3132C22.4275 78.4954 31.6908 82.2785 41.443 83.1814Z" fill="url(#paint18_linear_2064_808)"/>
<path d="M22.064 45.0015C22.064 45.0015 22.064 45.0464 22.1025 45.1428L22.2438 45.541C22.3916 45.92 22.5907 46.4338 22.8347 47.0826C23.3486 48.4186 24.1194 50.3392 25.1471 52.6901C27.164 57.3984 30.1444 63.8217 33.8571 70.7074C35.7134 74.1439 37.5762 77.3748 39.3233 80.2781C41.0704 83.1814 42.7084 85.7443 44.1343 87.8769C45.5603 90.0094 46.7037 91.7308 47.5644 92.8806L48.5279 94.2166L48.7848 94.5635C48.813 94.6032 48.8453 94.6398 48.8812 94.6727C48.8812 94.6727 48.8811 94.6213 48.8105 94.5442L48.5793 94.1781L47.6607 92.8099C46.8578 91.628 45.7337 89.9002 44.3206 87.7548C42.9075 85.6094 41.3145 83.0209 39.5738 80.124C37.8331 77.2271 35.9961 73.9897 34.1333 70.5533C30.4335 63.6804 27.421 57.2571 25.3527 52.6002C24.3185 50.2621 23.5028 48.3608 22.9504 47.0376L22.3081 45.5217C22.2374 45.3612 22.1796 45.2327 22.1282 45.1299C22.1123 45.0845 22.0908 45.0414 22.064 45.0015Z" fill="url(#paint19_linear_2064_808)"/>
<path d="M25.8601 86.9775H61.9397V93.9275H58.2334L55.1117 113.763H32.8037L29.592 93.9275H25.8601V86.9775Z" fill="#E6A371"/>
<path d="M25.8601 93.7864C25.8601 93.69 33.8764 93.6194 43.7682 93.6194C53.6601 93.6194 61.6827 93.69 61.6827 93.7864C61.6827 93.8827 53.6601 93.9534 43.7682 93.9534C33.8764 93.9534 25.8601 93.8699 25.8601 93.7864Z" fill="black"/>
<defs>
<linearGradient id="paint0_linear_2064_808" x1="42.7893" y1="45.4832" x2="60.8389" y2="82.9333" gradientUnits="userSpaceOnUse">
<stop stop-color="#F0DB92"/>
<stop offset="1" stop-color="#BF9033"/>
</linearGradient>
<linearGradient id="paint1_linear_2064_808" x1="44.6135" y1="31.8737" x2="62.6727" y2="69.3314" gradientUnits="userSpaceOnUse">
<stop stop-color="#F0DB92"/>
<stop offset="1" stop-color="#BF9033"/>
</linearGradient>
<linearGradient id="paint2_linear_2064_808" x1="47.0852" y1="18.6468" x2="65.1316" y2="56.1008" gradientUnits="userSpaceOnUse">
<stop stop-color="#F0DB92"/>
<stop offset="1" stop-color="#BF9033"/>
</linearGradient>
<linearGradient id="paint3_linear_2064_808" x1="50.6828" y1="-0.562108" x2="74.5693" y2="37.7903" gradientUnits="userSpaceOnUse">
<stop stop-color="#F0DB92"/>
<stop offset="1" stop-color="#BF9033"/>
</linearGradient>
<linearGradient id="paint4_linear_2064_808" x1="55.8146" y1="-22.8261" x2="87.8753" y2="-0.759712" gradientUnits="userSpaceOnUse">
<stop stop-color="#F0DB92"/>
<stop offset="1" stop-color="#BF9033"/>
</linearGradient>
<linearGradient id="paint5_linear_2064_808" x1="41.9034" y1="-21.767" x2="76.3604" y2="1.81953" gradientUnits="userSpaceOnUse">
<stop stop-color="#F0DB92"/>
<stop offset="1" stop-color="#BF9033"/>
</linearGradient>
<linearGradient id="paint6_linear_2064_808" x1="35.4242" y1="-10.7748" x2="72.1855" y2="20.6214" gradientUnits="userSpaceOnUse">
<stop stop-color="#F0DB92"/>
<stop offset="1" stop-color="#BF9033"/>
</linearGradient>
<linearGradient id="paint7_linear_2064_808" x1="32.246" y1="3.11243" x2="69.0048" y2="34.4932" gradientUnits="userSpaceOnUse">
<stop stop-color="#F0DB92"/>
<stop offset="1" stop-color="#BF9033"/>
</linearGradient>
<linearGradient id="paint8_linear_2064_808" x1="29.696" y1="20.1547" x2="66.4611" y2="51.5345" gradientUnits="userSpaceOnUse">
<stop stop-color="#F0DB92"/>
<stop offset="1" stop-color="#BF9033"/>
</linearGradient>
<linearGradient id="paint9_linear_2064_808" x1="43.646" y1="-24.3819" x2="90.0852" y2="-8.89383" gradientUnits="userSpaceOnUse">
<stop stop-color="#F0DB92"/>
<stop offset="1" stop-color="#BF9033"/>
</linearGradient>
<linearGradient id="paint10_linear_2064_808" x1="43.3485" y1="64.6141" x2="49.7154" y2="65.4624" gradientUnits="userSpaceOnUse">
<stop stop-color="#F0DB92"/>
<stop offset="1" stop-color="#BF9033"/>
</linearGradient>
<linearGradient id="paint11_linear_2064_808" x1="37.3092" y1="54.7672" x2="43.677" y2="55.6157" gradientUnits="userSpaceOnUse">
<stop stop-color="#F0DB92"/>
<stop offset="1" stop-color="#BF9033"/>
</linearGradient>
<linearGradient id="paint12_linear_2064_808" x1="31.8942" y1="44.7533" x2="38.259" y2="45.601" gradientUnits="userSpaceOnUse">
<stop stop-color="#F0DB92"/>
<stop offset="1" stop-color="#BF9033"/>
</linearGradient>
<linearGradient id="paint13_linear_2064_808" x1="25.4093" y1="33.6289" x2="30.3617" y2="34.1309" gradientUnits="userSpaceOnUse">
<stop stop-color="#F0DB92"/>
<stop offset="1" stop-color="#BF9033"/>
</linearGradient>
<linearGradient id="paint14_linear_2064_808" x1="15.6056" y1="25.9431" x2="24.8968" y2="27.869" gradientUnits="userSpaceOnUse">
<stop stop-color="#F0DB92"/>
<stop offset="1" stop-color="#BF9033"/>
</linearGradient>
<linearGradient id="paint15_linear_2064_808" x1="2.49465" y1="40.6774" x2="13.6887" y2="54.9055" gradientUnits="userSpaceOnUse">
<stop stop-color="#F0DB92"/>
<stop offset="1" stop-color="#BF9033"/>
</linearGradient>
<linearGradient id="paint16_linear_2064_808" x1="4.83665" y1="51.0861" x2="13.7342" y2="65.3649" gradientUnits="userSpaceOnUse">
<stop stop-color="#F0DB92"/>
<stop offset="1" stop-color="#BF9033"/>
</linearGradient>
<linearGradient id="paint17_linear_2064_808" x1="10.1172" y1="61.9299" x2="19.0214" y2="76.2144" gradientUnits="userSpaceOnUse">
<stop stop-color="#F0DB92"/>
<stop offset="1" stop-color="#BF9033"/>
</linearGradient>
<linearGradient id="paint18_linear_2064_808" x1="17.5419" y1="74.436" x2="26.447" y2="88.7185" gradientUnits="userSpaceOnUse">
<stop stop-color="#F0DB92"/>
<stop offset="1" stop-color="#BF9033"/>
</linearGradient>
<linearGradient id="paint19_linear_2064_808" x1="16.7501" y1="6.0186" x2="75.3112" y2="62.0314" gradientUnits="userSpaceOnUse">
<stop stop-color="#F0DB92"/>
<stop offset="1" stop-color="#BF9033"/>
</linearGradient>
</defs>
</svg>
