<svg width="184" height="122" viewBox="0 0 184 122" fill="none" xmlns="http://www.w3.org/2000/svg">
<path d="M172.15 0.966492H12.1468C6.02204 0.966492 1.05688 5.93159 1.05688 12.0564V110.021C1.05688 116.145 6.02204 121.11 12.1468 121.11H172.15C178.275 121.11 183.24 116.145 183.24 110.021V12.0564C183.24 5.93159 178.275 0.966492 172.15 0.966492Z" fill="white"/>
<path d="M172.17 121.129C172.17 121.129 172.678 121.129 173.676 120.96C175.133 120.757 176.532 120.25 177.781 119.472C179.827 118.222 181.418 116.348 182.318 114.125C183.467 111.489 182.977 108.119 183.071 104.428C183.071 89.5916 182.977 68.1461 182.902 41.6734C182.902 35.0458 182.902 28.1169 182.902 20.9621C182.902 19.0793 182.902 17.3282 182.902 15.4831C182.988 13.6473 182.913 11.8076 182.676 9.98514C182.299 8.17138 181.457 6.48683 180.233 5.09704C179.008 3.70725 177.443 2.66007 175.691 2.0584C173.862 1.50777 171.946 1.30342 170.042 1.45588H126.134H12.1661C9.73984 1.45718 7.38724 2.28926 5.49971 3.81368C3.61218 5.33809 2.30358 7.46292 1.79167 9.83453C1.58529 11.0278 1.50325 12.2393 1.54689 13.4496V53.667C1.54689 72.7214 1.54689 91.1167 1.54689 108.627C1.3781 110.743 1.7676 112.866 2.67655 114.784C3.60111 116.639 5.0474 118.183 6.83766 119.228C8.61197 120.258 10.6432 120.761 12.6933 120.677H43.12H86.4253L149.18 120.828L166.239 120.922H149.18L86.4253 121.073H43.12H12.6556C10.4489 121.147 8.2649 120.606 6.3481 119.51C4.40706 118.374 2.83731 116.7 1.8293 114.69C0.866677 112.647 0.445263 110.39 0.605468 108.138C0.605468 90.6272 0.605468 72.2318 0.605468 53.1775C0.605468 43.6252 0.605468 33.9286 0.605468 24.0876V12.9601C0.558549 11.699 0.64689 10.4366 0.869036 9.19438C1.43019 6.61149 2.85536 4.29716 4.90926 2.63351C6.96315 0.969859 9.52296 0.0563163 12.1661 0.0437459H126.134H151.722H170.042C172.049 -0.10305 174.066 0.120339 175.992 0.702751C177.882 1.34943 179.571 2.47809 180.892 3.97721C182.213 5.47632 183.12 7.29404 183.523 9.25086C183.765 11.1233 183.841 13.0136 183.749 14.8994V20.3784C183.749 27.6085 183.749 34.5374 183.749 41.0897C183.749 67.5624 183.636 89.0079 183.599 103.845C183.599 105.728 183.599 107.441 183.599 109.098C183.621 110.658 183.333 112.207 182.751 113.654C181.81 115.919 180.158 117.815 178.044 119.058C176.765 119.832 175.332 120.314 173.845 120.47C173.31 120.745 172.749 120.966 172.17 121.129Z" fill="#263238"/>
<path d="M89.7021 70.7444H82.7168V98.5727H89.7021V70.7444Z" fill="#E6A371"/>
<path d="M31.3133 66.715H24.3279V98.5726H31.3133V66.715Z" fill="#E6A371"/>
<path d="M45.9055 60.0685H38.9202V98.5538H45.9055V60.0685Z" fill="#E6A371"/>
<path d="M60.4978 62.1776H53.5125V98.5541H60.4978V62.1776Z" fill="#E6A371"/>
<path d="M75.1098 49.8639H68.1245V98.5541H75.1098V49.8639Z" fill="#E6A371"/>
<path d="M104.294 50.1083H97.3091V98.5538H104.294V50.1083Z" fill="#E6A371"/>
<path d="M118.903 66.0184H111.918V98.5539H118.903V66.0184Z" fill="#E6A371"/>
<path d="M133.495 52.2361H126.51V98.5539H133.495V52.2361Z" fill="#E6A371"/>
<path d="M148.088 41.8054H141.102V98.5541H148.088V41.8054Z" fill="#E6A371"/>
<path d="M162.699 52.01H155.714V98.5726H162.699V52.01Z" fill="#E6A371"/>
<path d="M24.913 17.5165C24.913 18.3879 24.6546 19.2397 24.1705 19.9643C23.6863 20.6888 22.9983 21.2535 22.1932 21.587C21.3882 21.9205 20.5022 22.0077 19.6476 21.8377C18.7929 21.6677 18.0079 21.2481 17.3918 20.6319C16.7756 20.0157 16.356 19.2307 16.186 18.376C16.016 17.5214 16.1032 16.6355 16.4367 15.8305C16.7701 15.0254 17.3349 14.3373 18.0594 13.8532C18.7839 13.3691 19.6357 13.1107 20.5071 13.1107C21.6756 13.1107 22.7963 13.5748 23.6225 14.4011C24.4488 15.2273 24.913 16.348 24.913 17.5165Z" fill="#E0E0E0"/>
<path d="M36.36 17.5165C36.36 18.3887 36.1011 19.2413 35.6162 19.9663C35.1312 20.6912 34.442 21.2559 33.6359 21.5888C32.8297 21.9217 31.9429 22.0078 31.0877 21.8363C30.2326 21.6648 29.4475 21.2433 28.8321 20.6252C28.2167 20.0072 27.7986 19.2204 27.6307 18.3645C27.4628 17.5086 27.5528 16.6222 27.8892 15.8175C28.2255 15.0127 28.7931 14.3259 29.5202 13.8441C30.2472 13.3622 31.1009 13.107 31.9731 13.1107C32.5508 13.1107 33.1227 13.2248 33.6562 13.4464C34.1897 13.6681 34.6742 13.9929 35.0818 14.4023C35.4894 14.8116 35.8122 15.2975 36.0315 15.8319C36.2509 16.3664 36.3625 16.9388 36.36 17.5165Z" fill="#E0E0E0"/>
<path d="M47.6572 17.5165C47.6572 18.3879 47.3988 19.2397 46.9147 19.9643C46.4305 20.6888 45.7424 21.2535 44.9374 21.587C44.1323 21.9205 43.2464 22.0077 42.3918 21.8377C41.5371 21.6677 40.7521 21.2481 40.1359 20.6319C39.5197 20.0157 39.1001 19.2307 38.9301 18.376C38.7601 17.5214 38.8474 16.6355 39.1808 15.8305C39.5143 15.0254 40.079 14.3373 40.8035 13.8532C41.5281 13.3691 42.3799 13.1107 43.2513 13.1107C44.4198 13.1107 45.5405 13.5748 46.3667 14.4011C47.193 15.2273 47.6572 16.348 47.6572 17.5165Z" fill="#E0E0E0"/>
</svg>
