<svg width="45" height="45" viewBox="0 0 45 45" fill="none" xmlns="http://www.w3.org/2000/svg">
<path d="M12.8719 6.56094C14.2966 5.69864 15.8087 5.04879 17.3709 4.59889L18.2956 0.137468L25.8314 0L26.9186 4.42394C28.4932 4.81134 30.0303 5.4112 31.4925 6.22351L35.3041 3.72411L40.7278 8.96036L38.3659 12.8469C39.2282 14.2716 39.878 15.7837 40.3279 17.3584L44.7893 18.2831L44.9268 25.8188L40.5029 26.9061C40.1155 28.4807 39.5156 30.0178 38.7033 31.48L41.2027 35.2916L35.9664 40.7153L32.0674 38.3533C30.6427 39.2156 29.1306 39.8655 27.5559 40.3154L26.6312 44.7768L19.0955 44.9143L18.0082 40.4903C16.4336 40.1029 14.8965 39.5031 13.4343 38.6908L9.62271 41.1902L4.199 35.9539L6.56094 32.0673C5.69865 30.6427 5.0488 29.1305 4.59891 27.5559L0.137468 26.6311L0 19.0954L4.42395 18.0082C4.81135 16.4336 5.41121 14.8964 6.22352 13.4343L3.72412 9.6227L8.96037 4.199L12.8594 6.56094H12.8719ZM16.8835 16.596C13.7842 19.8078 13.8717 24.9315 17.0834 28.0308C20.2952 31.1301 25.4189 31.0426 28.5182 27.8309C31.6175 24.6191 31.53 19.4953 28.3183 16.3961C25.1065 13.2968 19.9952 13.3843 16.8835 16.596Z" fill="#EBEBEB"/>
</svg>
