<svg width="60" height="60" viewBox="0 0 60 60" fill="none" xmlns="http://www.w3.org/2000/svg">
<path d="M28.3651 1.93869C28.3651 15.2453 25.0135 19.8466 22.4328 22.4332C19.8461 25.0199 15.2393 28.3596 1.93262 28.3596C1.42478 28.3596 -8.89807e-05 28.4298 -8.90496e-05 30.006C-8.91191e-05 31.5942 1.42478 31.6409 1.93262 31.6409C15.2393 31.6409 19.8465 34.9865 22.4328 37.5732C25.0194 40.1539 28.3651 44.7551 28.3651 58.0677C28.3651 58.5756 28.4118 60.0064 30 60.0064C31.5765 60.0064 31.6464 58.576 31.6464 58.0677C31.6464 44.7551 34.9864 40.1539 37.5671 37.5732C40.1598 34.9865 44.7546 31.6409 58.0617 31.6409C58.5695 31.6409 60 31.5942 60 30.006C60 28.4294 58.5695 28.3596 58.0613 28.3596C44.7546 28.3596 40.1594 25.0195 37.5668 22.4332C34.9861 19.8466 31.6461 15.2457 31.6461 1.93869C31.6461 1.43085 31.5818 -1.2422e-06 29.9996 -1.31136e-06C28.4234 -1.38026e-06 28.3651 1.43047 28.3651 1.93869Z" fill="url(#paint0_linear_253_1492)"/>
<defs>
<linearGradient id="paint0_linear_253_1492" x1="48.2811" y1="6.11201" x2="15.3998" y2="56.3056" gradientUnits="userSpaceOnUse">
<stop stop-color="#F0DB92"/>
<stop offset="1" stop-color="#BF9033"/>
</linearGradient>
</defs>
</svg>
