<svg width="31" height="32" viewBox="0 0 31 32" fill="none" xmlns="http://www.w3.org/2000/svg">
<path d="M29.9966 15.1246C23.1216 15.1246 20.7457 13.3442 19.4063 11.9662C18.0751 10.5838 16.3462 8.13147 16.3462 1.03564C16.3462 0.766115 16.3212 0 15.5001 0C14.6833 0 14.6541 0.766115 14.6541 1.03564C14.6541 8.13147 12.9249 10.5838 11.5897 11.9662C10.2504 13.3442 7.87015 15.1246 1.0034 15.1246C0.738019 15.1246 0 15.1544 0 16.0019C0 16.845 0.738019 16.8751 1.0034 16.8751C7.87015 16.8751 10.2504 18.6599 11.5897 20.0379C12.9249 21.416 14.6541 23.8726 14.6541 30.9685C14.6541 31.2424 14.683 32 15.5001 32C16.3212 32 16.3462 31.2424 16.3462 30.9685C16.3462 23.8726 18.0754 21.416 19.4063 20.0379C20.7457 18.6555 23.1216 16.8751 29.9966 16.8751C30.262 16.8751 31 16.8494 31 15.9978C31 15.1588 30.262 15.1246 29.9966 15.1246Z" fill="url(#paint0_linear_185_108)"/>
<defs>
<linearGradient id="paint0_linear_185_108" x1="3.15753" y1="6.25009" x2="29.5778" y2="23.015" gradientUnits="userSpaceOnUse">
<stop stop-color="#F0DB92"/>
<stop offset="1" stop-color="#BF9033"/>
</linearGradient>
</defs>
</svg>
