<svg width="72" height="70" viewBox="0 0 72 70" fill="none" xmlns="http://www.w3.org/2000/svg">
<path d="M31.8675 18.7C35.6638 21.8638 36.1796 23.914 36.304 25.2653C36.4269 26.6183 36.2844 28.7266 33.1206 32.5229C32.9998 32.6678 32.6811 33.091 33.1308 33.4658C33.5839 33.8434 33.936 33.448 34.0567 33.3031C37.2205 29.5068 39.2704 28.9878 40.6233 28.865C41.9746 28.7406 44.0827 28.8801 47.8807 32.0454C48.0256 32.1661 48.4449 32.493 48.8225 32.0399C49.1974 31.5901 48.8059 31.2301 48.6609 31.1092C44.8629 27.944 44.3443 25.8971 44.2217 24.5473C44.1002 23.1926 44.2382 21.0862 47.4021 17.2898C47.5228 17.145 47.8496 16.7258 47.3965 16.3481C46.9467 15.9733 46.5867 16.3648 46.4658 16.5098C43.302 20.3061 41.2566 20.8229 39.9023 20.9477C38.5507 21.0689 36.444 20.9279 32.6476 17.764C32.5027 17.6433 32.0792 17.3214 31.703 17.7728C31.3283 18.2225 31.7225 18.5792 31.8675 18.7Z" fill="url(#paint0_linear_4_4709)"/>
<path d="M21.8214 30.4427C22.0727 30.1412 21.8092 29.9018 21.7126 29.8213C19.1723 27.7042 18.8244 26.3332 18.7423 25.4292C18.6616 24.5235 18.7535 23.1126 20.8706 20.5723C20.9511 20.4757 21.1688 20.1941 20.8656 19.9414C20.5657 19.6915 20.3246 19.9536 20.2441 20.0502C18.127 22.5905 16.7574 22.9368 15.8521 23.0205C14.9464 23.1013 13.5352 23.0062 10.9966 20.8906C10.8983 20.8088 10.6171 20.5942 10.3658 20.8956C10.1145 21.1971 10.3763 21.4352 10.4746 21.5171C13.0133 23.6328 13.3598 25.0055 13.4435 25.9108C13.5257 26.8148 13.4306 28.226 11.3121 30.7681C11.2316 30.8647 11.0186 31.1473 11.3185 31.3972C11.6217 31.6499 11.8581 31.3867 11.9385 31.2901C14.0571 28.7481 15.4297 28.4017 16.3337 28.3195C17.2391 28.2357 18.6503 28.3307 21.1907 30.4478C21.2873 30.5283 21.5687 30.7459 21.8214 30.4427Z" fill="url(#paint1_linear_4_4709)"/>
<path d="M48.3647 62.5103C45.6028 60.2086 45.2259 58.7202 45.1348 57.7354C45.0485 56.7517 45.1494 55.2183 47.4511 52.4565C47.5385 52.3516 47.777 52.045 47.4471 51.7701C47.119 51.4967 46.8587 51.7851 46.7713 51.89C44.4696 54.6518 42.9795 55.0274 41.9947 55.1184C41.0096 55.2064 39.4759 55.1025 36.7174 52.8035C36.6108 52.7147 36.3046 52.4792 36.0297 52.809C35.7562 53.1372 36.0429 53.396 36.1495 53.4849C38.9081 55.7838 39.2853 57.2754 39.3764 58.2601C39.4658 59.2435 39.3636 60.7786 37.0618 63.5405C36.973 63.6471 36.7389 63.9517 37.0671 64.2252C37.397 64.5001 37.6527 64.2136 37.7416 64.107C40.0433 61.3451 41.5349 60.9679 42.5165 60.8771C43.503 60.7875 45.035 60.8899 47.7969 63.1917C47.9035 63.2805 48.2083 63.5176 48.4845 63.1861C48.7567 62.8596 48.4713 62.5992 48.3647 62.5103Z" fill="url(#paint2_linear_4_4709)"/>
<defs>
<linearGradient id="paint0_linear_4_4709" x1="37.7934" y1="14.0104" x2="44.2954" y2="35.3253" gradientUnits="userSpaceOnUse">
<stop stop-color="#F0DB92"/>
<stop offset="1" stop-color="#BF9033"/>
</linearGradient>
<linearGradient id="paint1_linear_4_4709" x1="14.4408" y1="18.3785" x2="18.7926" y2="32.6419" gradientUnits="userSpaceOnUse">
<stop stop-color="#F0DB92"/>
<stop offset="1" stop-color="#BF9033"/>
</linearGradient>
<linearGradient id="paint2_linear_4_4709" x1="40.4614" y1="50.0705" x2="45.1933" y2="65.5766" gradientUnits="userSpaceOnUse">
<stop stop-color="#F0DB92"/>
<stop offset="1" stop-color="#BF9033"/>
</linearGradient>
</defs>
</svg>
