<svg width="6" height="1019" viewBox="0 0 6 1019" fill="none" xmlns="http://www.w3.org/2000/svg">
<path d="M3 1018.67C4.47276 1018.67 5.66667 1017.47 5.66667 1016C5.66667 1014.53 4.47276 1013.33 3 1013.33C1.52724 1013.33 0.333333 1014.53 0.333333 1016C0.333333 1017.47 1.52724 1018.67 3 1018.67ZM3 5.66669C4.47276 5.66669 5.66667 4.47278 5.66667 3C5.66667 1.52722 4.47276 0.333313 3 0.333313C1.52724 0.333313 0.333333 1.52722 0.333333 3C0.333333 4.47278 1.52724 5.66669 3 5.66669ZM3.5 1016L3.5 3H2.5L2.5 1016H3.5Z" fill="#372011"/>
</svg>
