<svg width="106" height="75" viewBox="0 0 106 75" fill="none" xmlns="http://www.w3.org/2000/svg">
<path d="M81.6429 74.4215C78.4512 71.328 77.1018 69.1369 77.1018 67.8634C77.1018 66.9894 77.7271 65.8147 79.4672 64.3631C80.9188 63.2043 81.8829 61.9024 81.8829 60.7396V56.8077C78.3429 61.1629 74.1874 63.4651 69.8915 63.4651C65.5447 63.4651 61.7795 61.8751 58.5876 58.691L58.5953 58.6752H62.4913C66.0312 58.6752 69.4409 57.8643 72.7198 56.2388C74.5892 55.312 76.3597 54.141 78.0309 52.7244C80.0953 50.9744 82.2446 48.7102 84.1368 46.7504V58.9575C84.1368 62.1307 84.3768 62.8582 81.7649 65.2228C80.6085 66.2696 79.4672 67.1128 79.4672 67.8754C79.582 68.6902 79.6469 69.578 80.7851 70.5125C81.3833 68.0324 84.027 66.5957 85.9102 66.0782C89.0103 65.2261 91.078 64.6998 91.4788 61.3457C91.5072 61.1076 91.5323 59.996 91.5437 59.7281L93.7974 59.3517L93.7941 60.8272C93.7941 62.3973 93.2215 63.9086 92.2328 65.3717C90.764 67.0763 88.9125 67.3888 87.0174 68.1005C84.3812 69.0907 81.6429 71.3691 81.6429 74.4215Z" fill="#372011"/>
<path d="M58.5486 58.6713C54.7277 58.0305 51.6034 56.3217 49.1711 53.5411C46.7341 50.7527 45.516 47.5331 45.516 43.8782C45.516 39.8123 47.0547 36.3315 50.1277 33.4283C53.2054 30.5291 56.8912 29.0776 61.187 29.0776H63.3625C66.3211 29.0776 68.9473 30.5134 71.2415 33.385C73.535 36.2603 74.6787 39.7569 74.6787 43.8782C71.443 41.6436 69.3822 40.7892 66.4002 40.5084C62.7494 40.1682 59.8108 40.275 57.1801 43.2692C55.499 45.1835 54.657 47.5607 54.657 50.4045C54.657 53.2998 55.958 56.0528 58.5569 58.6592L58.5486 58.6713ZM52.9166 53.4544C52.3348 51.9433 52.046 50.4915 52.046 49.0992C52.046 45.9666 53.1457 43.2968 55.3529 41.0898C58.4179 38.0283 61.646 37.5814 65.7314 37.8266C67.5507 37.9374 68.5833 38.3093 71.1974 39.5235C70.3275 37.2017 69.0226 35.315 67.2822 33.8634C65.5377 32.4118 63.6513 31.6881 61.6217 31.6881C57.8486 31.6881 54.657 32.9063 52.046 35.3468C49.4316 37.7833 48.1263 40.7734 48.1263 44.3133C48.1263 48.5496 49.7244 51.5951 52.9166 53.4544Z" fill="#372011"/>
<path d="M21.0148 66.5106C16.9528 63.0294 14.9196 59.2564 14.9196 55.1939V46.4885H8.82452V53.4536C8.82452 56.8755 9.98745 59.8379 12.3093 62.3332C14.6311 64.8289 17.5342 66.2217 21.0148 66.5106Z" fill="#372011"/>
<path d="M46.4836 46.4885H17.5343V54.3238C17.5343 57.4013 18.4915 60.1424 20.4058 62.5508C22.3202 64.9597 24.8437 66.5698 27.9803 67.3806L28.1265 67.3328L28.1819 67.491C27.0428 67.9977 25.5241 68.2546 23.6253 68.2546H21.0149C16.8936 68.2546 13.397 66.8145 10.5256 63.9436C7.65008 61.0717 6.21423 57.5754 6.21423 53.4536V46.4885H2.73367C1.56671 46.4885 0.989288 45.9349 0.989288 45.1834C0.989288 44.3132 1.57062 43.8781 2.73367 43.8781C19.2911 43.8781 29.938 43.8781 46.4836 43.8781V46.4885Z" fill="#372011"/>
<path d="M28.1703 67.3172C29.9186 66.7041 31.8487 65.3636 33.6367 63.0298C35.7922 60.2175 37.7026 58.6754 39.7316 58.6754C40.8352 58.6754 41.7647 58.9953 42.5202 59.6361C43.2717 60.2729 43.6514 61.1155 43.6514 62.1598C43.6514 63.9 42.8088 65.3515 41.124 66.5103C39.4429 67.6737 37.3822 68.2549 34.9457 68.2549C32.1018 68.2549 29.9226 67.9623 28.4156 67.3805C28.3523 67.4123 28.289 67.4443 28.2218 67.4754L28.1703 67.3172Z" fill="#372011"/>
<path d="M83.2316 20.1468C82.6916 19.4165 82.2876 18.6418 82.0184 17.8227C78.7811 7.9678 88.165 -1.05562 97.7517 1.23598C101.623 2.16139 104.83 4.97676 105.657 9.63366C106.19 12.629 105.538 15.8429 103.019 17.9045C102.845 11.8546 88.1611 12.1446 83.26 20.1459L83.2316 20.1468Z" fill="#372011"/>
<path d="M82.6455 24.9993C83.3798 25.1545 84.6602 24.9045 85.113 24.2569C85.7939 23.283 84.9913 22.1708 84.3797 21.4207C84.0894 21.0645 83.7288 20.6541 83.2983 20.1895L83.2572 20.1874C82.9127 20.5279 82.4212 21.0492 82.028 21.6262C81.256 22.7597 81.0003 24.6509 82.6455 24.9993Z" fill="#372011"/>
<path fill-rule="evenodd" clip-rule="evenodd" d="M29.6995 43.8777C31.8896 43.4157 33.7324 41.903 34.1145 39.6722L34.2 38.9764C34.2158 38.7599 34.2442 38.5211 34.2572 38.2994C34.3194 37.2438 34.3201 36.4871 34.1947 35.4651C34.1577 35.1632 33.9269 33.6896 33.8274 33.4938C33.7317 32.964 33.3363 31.9033 33.1505 31.4066L32.7704 30.5447C32.603 30.2369 32.2915 29.56 32.1097 29.2908L31.1977 27.8535C31.135 27.7589 31.0776 27.6938 31.0152 27.5996C30.9854 27.5543 30.9635 27.5173 30.9323 27.4739C30.8969 27.4249 30.8746 27.4094 30.8389 27.3553C30.808 27.3086 30.7831 27.2636 30.7488 27.2207L30.2745 26.6045C30.24 26.5628 30.2191 26.5304 30.1818 26.4853L29.2733 25.4209C29.1971 25.3388 29.1296 25.2722 29.0575 25.1912C29.018 25.1468 28.9831 25.116 28.9399 25.0725C28.4244 24.5563 28.026 24.1557 27.4167 23.6797L26.419 22.9375C26.3401 22.8778 26.388 22.9219 26.384 22.8916C26.3236 22.8757 25.4086 22.2678 25.2458 22.1747C24.5257 21.7633 24.0987 21.5216 23.3294 21.1677C23.208 21.1119 23.0881 21.0584 22.9515 21.0016C22.439 20.7879 21.0651 20.2454 20.5208 20.1352C20.4652 20.1013 19.7738 19.9164 19.6588 19.8936C19.4852 19.8593 19.3771 19.8199 19.2123 19.787C19.0573 19.7559 18.9025 19.7243 18.7477 19.693L17.8326 19.5072C17.7493 19.4913 17.7407 19.502 17.6685 19.4914C17.5519 19.4743 17.4359 19.4325 17.319 19.4252L16.6317 19.3316C16.5144 19.3137 16.3966 19.2896 16.279 19.2816C16.1932 19.2758 16.0529 19.2646 15.9537 19.2446C15.3831 19.1715 14.3653 19.1279 13.8301 19.1085C12.6037 19.064 10.3103 19.2734 9.08796 19.6038C9.00749 19.6255 8.93875 19.6426 8.86394 19.6641C8.75684 19.6948 8.31568 19.882 8.25357 19.8748C8.26985 19.8028 8.28279 19.8092 8.3326 19.7845L8.83782 19.5618L9.49643 19.361C10.3012 19.1602 11.0113 19.0309 11.848 18.9687C12.5179 18.919 13.187 18.8775 13.8834 18.8747C14.2402 18.8732 15.6204 18.8902 16.0318 18.943L17.0668 19.0451C17.2511 19.0553 17.6572 19.1308 17.7806 19.1368C17.9136 19.1435 18.3542 19.2285 18.5008 19.2591C18.63 19.286 18.7158 19.2857 18.8576 19.3143C19.0397 19.3512 20.5532 19.6807 20.634 19.7406L21.4914 19.9837C23.2959 20.5492 24.6516 21.2051 26.2267 22.1352L26.5457 22.3397L27.0836 22.692C27.1784 22.7563 27.2601 22.8085 27.351 22.8758L28.1139 23.4532L29.297 24.4762C29.891 25.0447 30.8655 26.0816 31.332 26.7365L31.6004 27.1001C31.6354 27.1529 31.6587 27.1677 31.694 27.2187L31.87 27.4631C31.9847 27.6341 32.0884 27.7933 32.2024 27.965L33.061 29.4646C33.0865 29.5171 33.0767 29.477 33.0905 29.5404C33.1273 29.5798 33.1521 29.6407 33.1788 29.6928C33.5731 30.4614 33.797 31.0527 34.1198 31.8333L34.2445 32.1751C34.3043 32.2605 34.6028 33.2142 34.6416 33.3487C34.6553 33.3965 34.6698 33.426 34.6835 33.4737C34.8821 34.1633 34.992 34.6996 35.1142 35.4247C35.2551 36.2616 35.2812 37.0163 35.2786 37.8718C35.259 41.1678 34.8683 42.7801 34.2888 43.8777H29.6995Z" fill="url(#paint0_linear_177_496)"/>
<path fill-rule="evenodd" clip-rule="evenodd" d="M36.0359 40.1623C36.097 40.1746 36.2965 40.0616 36.3509 40.0299L37.348 39.3549C37.6724 39.0887 37.9628 38.8213 38.2415 38.503C38.4703 38.2419 38.4947 38.1934 38.6896 37.9429C39.1278 37.3798 39.5642 36.4284 39.7061 35.7267C39.8956 34.7901 39.8907 34.1726 39.7264 33.2682C39.7138 33.199 39.6955 33.0782 39.664 33.0315C39.601 32.9384 39.5427 32.9668 39.4528 32.9995L38.9003 33.2349C38.3861 33.4926 38.2562 33.5868 37.8125 33.9195C37.6833 34.0163 37.5806 34.1162 37.4591 34.2245C37.3993 34.2778 37.3463 34.332 37.2907 34.3894C37.1047 34.5813 36.9751 34.7389 36.8171 34.953C36.1104 35.9108 35.7486 37.1559 35.7652 38.3831C35.7741 39.041 35.8184 39.3892 35.9266 40.0264C35.9378 40.092 35.96 40.1469 36.0359 40.1623Z" fill="url(#paint1_linear_177_496)"/>
<path fill-rule="evenodd" clip-rule="evenodd" d="M28.4258 31.9911C28.1544 31.9662 27.578 32.0804 27.3288 32.1478C27.0332 32.2277 26.7442 32.3301 26.4679 32.4627C26.2919 32.5471 26.4236 32.7397 26.5304 32.923C26.6345 33.1015 26.8141 33.4219 26.9342 33.5719C27.3635 34.1083 27.6825 34.5276 28.3033 34.942C28.6812 35.1942 28.902 35.3129 29.3351 35.4801C30.0075 35.7397 31.0197 35.8204 31.7346 35.6678C31.738 35.6671 31.7661 35.6597 31.7685 35.6588C31.8007 35.648 31.7813 35.6566 31.7964 35.6463C31.8746 35.6474 31.9652 35.6251 32.0409 35.6067L32.7078 35.4183C32.7869 35.3932 33.282 35.2181 33.332 35.1644C33.4003 35.091 33.359 35.007 33.3203 34.9478C32.9376 34.3615 32.6741 34.081 32.168 33.5867L31.6427 33.1433C31.0439 32.7176 30.3269 32.2716 29.5936 32.1271C29.3019 32.0696 28.712 31.9481 28.4258 31.9911Z" fill="url(#paint2_linear_177_496)"/>
<path fill-rule="evenodd" clip-rule="evenodd" d="M17.016 17.4557C17.0153 17.3822 16.9171 17.2605 16.8754 17.1976C16.8166 17.109 16.7737 17.0331 16.7027 16.9509C16.5355 16.7575 16.5565 16.7408 16.2994 16.4822C15.9389 16.1197 15.3717 15.735 14.8616 15.6162C14.3749 15.5027 14.1964 15.4871 13.6955 15.5142C13.4033 15.53 12.7325 15.6763 12.4324 15.8089C12.2908 15.8714 12.3592 15.9832 12.4088 16.0764L12.9909 16.9683C13.8645 17.9951 14.9534 18.7355 16.4649 18.5301C16.7017 18.4989 16.7485 18.4768 16.9431 18.4408C17.0277 18.4252 17.0787 18.4004 17.1645 18.3766C17.2207 18.3611 17.3398 18.3298 17.3686 18.2839C17.4104 18.2174 17.3528 18.121 17.3291 18.0635C17.2972 17.986 17.2724 17.934 17.2403 17.8585L17.089 17.5563C17.0581 17.4947 17.077 17.5002 17.016 17.4557Z" fill="url(#paint3_linear_177_496)"/>
<path fill-rule="evenodd" clip-rule="evenodd" d="M27.9833 39.819C28.111 39.962 28.7435 40.2472 28.9502 40.3337C29.2282 40.45 29.3309 40.4496 29.5437 40.5235C29.6368 40.5558 29.7475 40.5767 29.8667 40.601L30.4885 40.6798C30.6012 40.6884 30.6816 40.6953 30.7922 40.6977C31.5612 40.7138 32.1999 40.5922 32.9142 40.3991C33.0807 40.3541 33.2391 40.3022 33.3971 40.2475C33.7077 40.1401 33.462 39.938 33.2837 39.6677C33.2078 39.5525 32.9182 39.2226 32.8135 39.1044C32.7001 38.9765 32.5888 38.8718 32.4657 38.7517C32.2232 38.5151 31.9691 38.3048 31.6895 38.0967C31.6108 38.0246 31.3194 37.8344 31.2087 37.7656L30.6744 37.4571C30.533 37.3969 30.4009 37.3285 30.2514 37.2616C30.127 37.206 29.916 37.1199 29.7756 37.0915C29.7499 37.0673 29.725 37.0665 29.6833 37.0549C29.3541 36.9643 29.3364 36.9395 28.9339 36.8705C28.6797 36.8269 28.359 36.8118 28.0979 36.8043C27.7482 36.7942 27.3274 36.8507 26.9885 36.9117C26.9234 36.9234 26.8847 36.9334 26.8194 36.9502C26.3791 37.0631 26.4277 37.0536 25.9995 37.201C25.7511 37.2866 25.8761 37.4242 26.0547 37.7535L26.4188 38.3038C26.4667 38.3702 26.7548 38.7791 26.8388 38.8191C26.8622 38.8801 27.1875 39.2087 27.2648 39.2612C27.3025 39.3232 27.8754 39.7867 27.9833 39.819Z" fill="url(#paint4_linear_177_496)"/>
<path fill-rule="evenodd" clip-rule="evenodd" d="M10.1536 22.8652C10.3824 22.9115 10.7447 22.8609 10.9518 22.8326C11.3316 22.7808 11.7781 22.6442 12.1214 22.4806C12.1749 22.4551 12.2268 22.434 12.2796 22.4049C12.5221 22.2708 12.7014 22.1654 12.9183 21.9857C12.9436 21.9648 12.9578 21.9576 12.9832 21.9368L13.3571 21.5791C13.7593 21.1556 14.1122 20.4772 14.2777 19.9093C14.2985 19.8377 14.3978 19.5373 14.3924 19.4696C14.382 19.3398 14.2085 19.3446 14.0504 19.3364C13.9056 19.329 13.7647 19.3199 13.6394 19.3242C13.0591 19.3441 12.593 19.4552 12.0792 19.7157C12.018 19.7468 11.9842 19.7738 11.9284 19.8025L11.7111 19.9357C11.6763 19.9621 11.675 19.97 11.6401 19.9962C10.7524 20.6637 10.307 21.6948 10.0896 22.7687C10.0821 22.8061 10.1163 22.8576 10.1536 22.8652Z" fill="url(#paint5_linear_177_496)"/>
<path fill-rule="evenodd" clip-rule="evenodd" d="M28.8874 22.3257C29.0773 23.262 29.6513 24.1907 30.4063 24.7806C30.6279 24.9537 30.6211 24.9781 30.7675 24.7039C30.94 24.381 31.0833 23.9679 31.1969 23.6129C31.2296 23.5105 31.335 23.0617 31.3398 22.9665C31.3477 22.8044 31.3971 22.5736 31.404 22.3543C31.4106 22.1436 31.4063 21.9775 31.3975 21.7751C31.3807 21.3842 31.266 20.871 31.1292 20.5082C31.0751 20.3647 30.8882 19.919 30.8058 19.8447C30.7898 19.7602 30.7313 19.6968 30.6827 19.6236C30.6327 19.5481 30.5918 19.4869 30.5419 19.4113C30.4439 19.263 30.3361 19.1463 30.2276 19.0042C30.1944 18.9722 30.17 18.9409 30.1361 18.9026C29.9379 18.6789 29.7134 18.4828 29.4929 18.2873C29.4404 18.2408 29.425 18.2291 29.3358 18.211C29.2936 18.2528 29.2994 18.2276 29.2629 18.2896C29.2417 18.3256 29.2278 18.3644 29.2132 18.4032L29.043 18.9006C28.9337 19.2461 28.9116 19.4049 28.8374 19.7642C28.8146 19.8744 28.8209 19.924 28.7981 20.0403C28.7843 20.111 28.7906 20.1238 28.7855 20.1738C28.7826 20.2024 28.7752 20.2263 28.7724 20.252C28.767 20.3014 28.7699 20.2386 28.7703 20.2803C28.7706 20.3238 28.7656 20.2927 28.7765 20.3147C28.74 20.4952 28.7389 20.6912 28.7376 20.8585C28.7342 21.2866 28.754 21.6806 28.8351 22.0997C28.8477 22.1644 28.8651 22.2652 28.8874 22.3257Z" fill="url(#paint6_linear_177_496)"/>
<path fill-rule="evenodd" clip-rule="evenodd" d="M34.5163 22.5737C34.5065 22.5099 34.4125 22.4048 34.3802 22.3383L33.973 21.7471C33.9333 21.701 33.908 21.6644 33.8439 21.6737C33.6891 21.6961 33.2225 22.6075 33.1656 22.7273C33.0706 22.9279 32.9766 23.1317 32.8951 23.3455C32.7689 23.6762 32.4882 24.4963 32.4755 24.7828C32.4697 24.912 32.4161 25.0443 32.4077 25.1752C32.3928 25.4069 32.3547 25.6288 32.3509 25.8936C32.3463 26.2214 32.3579 26.5862 32.4078 26.8978C32.4854 27.3822 32.5507 27.6264 32.7207 28.0795C32.7559 28.1731 32.7874 28.2517 32.8291 28.341L33.0255 28.7248C33.0583 28.777 33.0645 28.8048 33.0987 28.8568C33.1847 28.9881 33.2118 29.0513 33.2965 29.1562C33.4216 29.3112 33.5823 29.6746 33.7418 29.5639C33.8002 29.5233 33.9741 29.2911 34.0396 29.2228C34.0852 29.1599 34.1237 29.1037 34.1716 29.0388C34.241 28.9449 34.5259 28.523 34.5485 28.4358L34.6906 28.1878C34.7379 28.0961 34.7782 28.0135 34.8206 27.9231C34.9013 27.7514 34.9885 27.536 35.0506 27.3484C35.3126 26.558 35.3999 25.9118 35.3397 25.0916L35.2634 24.531C35.2016 24.1933 35.1774 24.1627 35.0992 23.8758C35.0816 23.811 35.0775 23.7949 35.0482 23.7428C35.0462 23.6789 35.0231 23.6499 35.0021 23.5929C34.9794 23.5315 34.9652 23.4921 34.9428 23.4377C34.8307 23.1645 34.6754 22.8219 34.5163 22.5737Z" fill="url(#paint7_linear_177_496)"/>
<path fill-rule="evenodd" clip-rule="evenodd" d="M25.1486 26.2499C25.4892 26.3189 25.8811 26.3054 26.1534 26.2716C26.4892 26.2301 26.7043 26.1895 27.0312 26.0662C27.1937 26.0049 27.4454 25.8901 27.604 25.7987L27.9512 25.5681C28.002 25.5342 28.0936 25.5004 28.085 25.4188C28.0766 25.34 27.8757 25.1433 27.8152 25.0823C27.2239 24.4856 26.2367 23.8308 25.3355 23.6986C25.1022 23.6645 24.4513 23.6151 24.3139 23.6757C24.2256 23.664 24.0381 23.7037 23.9593 23.7183C23.8447 23.7395 23.7355 23.7675 23.6229 23.7976C23.5018 23.8298 23.084 23.9693 23.0121 24.0304C22.9176 24.0372 22.3699 24.3526 22.2708 24.419C22.2183 24.4543 22.1794 24.4808 22.126 24.5149C21.9839 24.606 21.9759 24.6619 22.1193 24.7906C22.374 25.0191 22.9792 25.4829 23.3113 25.6277C23.3712 25.6772 23.613 25.7815 23.7031 25.8237C23.8416 25.8886 23.981 25.9483 24.1407 26.0057C24.2922 26.0603 24.9859 26.2852 25.1486 26.2499Z" fill="url(#paint8_linear_177_496)"/>
<path fill-rule="evenodd" clip-rule="evenodd" d="M2.47004 24.5177C2.60025 24.5441 2.91686 24.495 3.03763 24.4729C3.22149 24.4393 3.38776 24.3898 3.55489 24.3312C4.08648 24.1446 4.66541 23.7574 4.99875 23.3037C5.32943 22.8535 5.51614 22.4238 5.64193 21.8021C5.67051 21.6608 5.67383 21.5728 5.69779 21.4455C5.74096 21.2163 5.59083 21.2236 5.22767 21.2405C4.48833 21.2748 3.7409 21.5367 3.25144 22.1148C2.71815 22.7445 2.52766 23.4292 2.42388 24.2566C2.41327 24.3411 2.38338 24.5002 2.47004 24.5177Z" fill="url(#paint9_linear_177_496)"/>
<path fill-rule="evenodd" clip-rule="evenodd" d="M26.857 18.9625C26.8623 18.8909 26.6997 18.592 26.6557 18.5165C26.3496 17.9918 25.9716 17.5144 25.4612 17.1695C25.393 17.1234 25.2314 16.996 25.1564 16.9889C25.0935 16.895 24.5817 16.6823 24.4927 16.645C24.2539 16.5454 23.9599 16.4593 23.6864 16.3876C23.4565 16.3273 23.5279 16.8266 23.5386 17.0419L23.6261 17.7831C23.646 17.8234 23.6542 17.9014 23.6646 17.9585C23.7076 18.196 23.8542 18.7546 23.9426 18.9709C24.0426 19.2157 24.1078 19.4206 24.242 19.6733L24.5007 20.1268C24.5358 20.1797 24.5616 20.2186 24.5967 20.2716C24.6744 20.3888 24.6547 20.3975 24.7159 20.405C24.7288 20.4599 24.7172 20.4295 24.7463 20.4786C24.7877 20.5483 25.0388 20.8201 25.092 20.8737C25.1987 20.981 25.4387 21.2036 25.5748 21.278C25.6834 21.4002 26.1738 21.6354 26.3465 21.7086C26.5074 21.7766 26.6402 21.8156 26.8262 21.8626C26.9845 21.9027 27.1931 22.0142 27.2252 21.8179C27.2995 21.3623 27.2706 20.6479 27.2017 20.1826C27.195 20.1372 27.1898 20.016 27.1556 19.9869C27.1732 19.8584 26.9356 19.0357 26.857 18.9625Z" fill="url(#paint10_linear_177_496)"/>
<path fill-rule="evenodd" clip-rule="evenodd" d="M8.84291 20.1778C8.56133 20.2506 8.60345 20.2128 8.26724 20.3356C7.24782 20.7078 6.61363 21.55 6.39116 22.6383C6.34507 22.8635 6.2702 23.7359 6.31961 23.9501C6.33432 24.014 6.36271 24.0422 6.43048 24.0407C6.52124 24.0389 6.86962 23.9299 6.951 23.901L7.35154 23.7299C7.49601 23.6618 7.6033 23.5863 7.73671 23.5146L7.97239 23.3464C8.08997 23.2575 8.31471 23.0511 8.40006 22.9445L8.61199 22.6981C8.67879 22.6127 8.74128 22.5132 8.79825 22.4133C9.19631 21.7159 9.30582 21.1049 9.30413 20.3167C9.30381 20.1949 9.3027 20.2329 9.26722 20.1467C9.13928 20.1208 8.94128 20.1535 8.84291 20.1778Z" fill="url(#paint11_linear_177_496)"/>
<path fill-rule="evenodd" clip-rule="evenodd" d="M10.4073 18.6573C10.8274 18.7423 11.0916 18.7179 11.4299 18.6744C11.7496 18.6333 11.9033 18.5677 12.173 18.4751C12.3272 18.4222 12.2885 18.3527 12.2338 18.2345C12.0918 17.9277 11.9372 17.6177 11.7172 17.3547L11.5446 17.1359C10.6051 16.0834 9.46257 15.8113 8.13831 16.2676C8.07275 16.2903 7.81949 16.3768 7.78407 16.405C7.68322 16.485 7.80191 16.6037 7.87138 16.7386C7.92223 16.8373 7.99768 16.973 8.0734 17.0492C8.49678 17.601 8.94074 18.0802 9.60501 18.3948C9.92638 18.547 10.0506 18.5851 10.4073 18.6573Z" fill="url(#paint12_linear_177_496)"/>
<path fill-rule="evenodd" clip-rule="evenodd" d="M20.9098 23.6548C21.303 23.6169 21.1961 23.6619 21.6677 23.572C22.0301 23.5029 22.2234 23.3823 22.36 23.347C22.4831 23.2589 22.7287 23.1904 23.0861 22.8831C23.2004 22.7849 23.3054 22.6982 23.405 22.5887C23.5055 22.4782 23.7725 22.186 23.8327 22.061C23.8707 21.9821 23.8105 21.923 23.7475 21.8765C23.6173 21.7808 23.5031 21.6927 23.3557 21.6085C23.1045 21.4649 22.7177 21.2478 22.4258 21.1888C22.3254 21.1236 21.8658 21.053 21.7418 21.0452C21.4216 21.0253 21.4468 21.0251 21.132 21.0474C20.2906 21.107 19.4367 21.6727 18.8845 22.2665C18.8189 22.337 18.772 22.3899 18.7092 22.4631C18.6509 22.5309 18.589 22.5874 18.5458 22.6671C18.4867 22.7283 18.3643 22.8549 18.4565 22.9416C18.5931 23.0698 19.1796 23.3147 19.3786 23.3858C19.6319 23.4765 19.8527 23.5243 20.1476 23.5841C20.5822 23.6723 20.6913 23.6261 20.9098 23.6548Z" fill="url(#paint13_linear_177_496)"/>
<path fill-rule="evenodd" clip-rule="evenodd" d="M38.5653 30.5478C38.6621 30.433 38.762 29.2469 38.7305 29.1533C38.7483 29.0551 38.7327 28.9135 38.7283 28.8172C38.7258 28.7601 38.7226 28.5459 38.6966 28.49C38.7275 28.2784 38.4965 27.2702 38.4407 27.063L38.3458 26.737C38.2887 26.5415 38.1698 26.6092 38.0755 26.673C37.9081 26.7863 37.6789 26.9435 37.5422 27.0871C37.409 27.1507 36.8639 27.7533 36.7332 27.8955L36.4375 28.2666C36.3912 28.3317 36.3283 28.39 36.2895 28.4707C36.1479 28.6314 35.9007 29.0635 35.7967 29.2657C35.6967 29.4599 35.5739 29.6691 35.5046 29.882C35.48 29.9166 35.429 30.0708 35.4074 30.1272C35.3741 30.2145 35.3495 30.3017 35.3132 30.4039C35.2442 30.5983 35.2063 30.8032 35.1616 31.0241C35.0169 31.7393 35.0075 32.4547 35.1333 33.1333C35.161 33.2827 35.3505 34.1557 35.4449 34.2333C35.5305 34.3038 35.662 34.2171 35.7599 34.1555C35.9368 34.0441 36.0374 34.0031 36.2198 33.8644C36.321 33.7875 36.4505 33.716 36.5766 33.6067C37.127 33.1306 37.5364 32.7534 37.9301 32.0868C38.0166 31.9403 38.0945 31.8059 38.171 31.6541C38.2255 31.546 38.3466 31.2984 38.3716 31.1747C38.4367 31.0835 38.5343 30.7009 38.5653 30.5478Z" fill="url(#paint14_linear_177_496)"/>
<path fill-rule="evenodd" clip-rule="evenodd" d="M20.3325 19.1451C20.3681 19.1919 20.5948 19.2823 20.6496 19.3055C20.8745 19.4004 21.247 19.5075 21.4822 19.5236L21.7874 19.5438C21.8853 19.5318 21.8446 19.4979 21.8656 19.4935C21.8913 19.4881 21.8932 19.3689 21.8931 19.3559C21.8883 18.1918 21.457 16.8691 20.5852 16.0695C20.4426 15.9388 20.023 15.6086 19.856 15.5576C19.7297 15.4744 19.2946 15.2938 19.1029 15.255C18.8121 15.1961 18.8876 15.1766 18.467 15.1253C18.3685 15.1134 18.2133 15.0684 18.0889 15.0999C18.0277 15.2337 18.0745 15.4332 18.0991 15.5793C18.2051 16.2092 18.5028 17.0915 18.8455 17.6543C18.9122 17.7637 19.2675 18.2983 19.3461 18.3442C19.4181 18.4583 19.6706 18.6933 19.7821 18.7834C19.8861 18.8674 20.1907 19.1055 20.3325 19.1451Z" fill="url(#paint15_linear_177_496)"/>
<path fill-rule="evenodd" clip-rule="evenodd" d="M27.5761 30.1819C27.759 30.3298 28.3575 30.5438 28.6054 30.6289C28.6974 30.6605 28.899 30.7168 29.0069 30.7386C29.3098 30.7999 29.7384 30.8362 30.0312 30.8181L30.3548 30.7942C30.3588 30.7927 30.9221 30.7082 31.2932 30.5634L31.726 30.378C31.7794 30.3533 31.8148 30.3307 31.8152 30.2638C31.8156 30.1845 31.7148 30.0438 31.6821 29.977L31.4452 29.5924C31.3438 29.473 31.2597 29.3268 31.1258 29.1653C31.1049 29.14 31.0976 29.1258 31.0768 29.1005C31.0398 29.0555 31.011 29.0211 30.9707 28.9764C30.8987 28.8965 30.8443 28.829 30.768 28.7496C30.5593 28.5322 30.4121 28.4087 30.1897 28.2164C30.096 28.1352 29.5896 27.7861 29.4816 27.7612C29.3689 27.6666 28.9784 27.5133 28.8013 27.4565C28.5025 27.3606 28.4739 27.3584 28.1818 27.2975C28.0854 27.2775 28.0416 27.2844 27.9684 27.2713C27.6391 27.2047 26.9765 27.245 26.6349 27.3108L26.5534 27.3394C26.3802 27.3031 25.4522 27.6393 25.2273 27.7442C25.1774 27.7675 25.137 27.7934 25.1339 27.8613C25.1302 27.9429 25.3948 28.2921 25.46 28.3674C25.864 28.8331 26.2316 29.2687 26.7596 29.6446C26.921 29.7595 27.4129 30.132 27.5761 30.1819Z" fill="url(#paint16_linear_177_496)"/>
<path fill-rule="evenodd" clip-rule="evenodd" d="M8.21714 18.8321C8.14305 18.7636 8.05815 18.7175 7.96948 18.6601C7.73048 18.5054 7.4759 18.4007 7.2091 18.3032C7.14009 18.278 7.08253 18.2741 7.01385 18.2522C6.58949 18.1167 6.07274 18.1516 5.66778 18.2606C5.20162 18.3862 4.88703 18.5941 4.52797 18.8671C4.48669 18.8984 4.45233 18.9326 4.41372 18.967C4.26248 19.1017 3.86377 19.4442 3.82275 19.6468C3.88513 19.7097 4.13122 19.8832 4.23351 19.9137C4.30616 19.9822 4.7216 20.1475 4.80409 20.1767C5.4457 20.4037 6.08205 20.4561 6.74209 20.2988C6.91931 20.2565 7.10109 20.1838 7.25591 20.11C7.4897 19.9986 7.73756 19.8533 7.93353 19.6865C8.16934 19.4858 8.22007 19.4332 8.426 19.2142C8.4747 19.1625 8.4805 19.1642 8.49899 19.073C8.41904 18.9922 8.32612 18.8853 8.21714 18.8321Z" fill="url(#paint17_linear_177_496)"/>
<path fill-rule="evenodd" clip-rule="evenodd" d="M16.4747 22.6908C16.5375 22.6665 16.6207 22.6489 16.6939 22.6294C17.3082 22.4655 18.0115 22.0145 18.4131 21.5353C18.6454 21.258 19.1267 20.6221 19.2014 20.2525C19.1166 20.167 19.1654 20.1922 18.9932 20.1267C18.6719 20.0045 18.4983 19.9766 18.1414 19.9044C17.759 19.8271 17.1898 19.8635 16.9078 19.9389C16.6725 19.9486 16.252 20.1601 16.0313 20.2697C15.8796 20.3449 15.5468 20.5974 15.415 20.7226C15.1696 20.9555 15.102 21.0393 14.8814 21.3214C14.7434 21.4981 14.211 22.3793 14.2276 22.524C14.2459 22.6812 14.8643 22.7406 14.9553 22.752C15.2545 22.7891 15.4533 22.7955 15.7152 22.7876C15.9658 22.7805 16.2509 22.7417 16.4747 22.6908Z" fill="url(#paint18_linear_177_496)"/>
<path d="M91.5438 37.681H84.1371V59.0566C84.1106 59.0884 84.093 59.1297 84.0904 59.1794L83.9837 61.8665H83.0101C82.3877 61.8665 81.8832 61.3619 81.8832 60.7396L81.861 35.0394C81.861 34.7093 82.118 34.6905 82.344 34.4845C82.5442 34.302 82.7178 35.4271 83.0101 35.4271H92.6707C93.2931 35.4271 93.7977 35.9317 93.7977 36.554V60.7396C93.7977 61.3619 93.2931 61.8665 92.6707 61.8665H91.5468L91.5438 59.6126V59.413V58.9838V37.681Z" fill="#372011"/>
<path d="M81.9481 36.9777C81.8928 36.8514 81.861 36.7049 81.861 36.5385V32.5845C81.861 32.3747 81.8928 32.2006 81.9521 32.0698C82.0036 31.9551 82.0786 31.8564 82.1816 31.7736C82.3278 31.6625 82.4741 31.5798 82.6204 31.5282C82.7629 31.4765 82.9132 31.453 83.0714 31.453C83.2295 31.453 83.3798 31.4765 83.5184 31.5282C83.6686 31.5798 83.811 31.6625 83.9535 31.7696C84.0444 31.8487 84.1116 31.9393 84.1551 32.0464C84.2145 32.1885 84.2421 32.3664 84.2421 32.5845V34.4387V35.368H85.1717L93.5875 35.3212H94.5168V34.392V29.1431V28.2138H93.5875H79.6108H78.6813V29.1431V33.5888C78.6813 33.8183 78.6536 34.0044 78.5901 34.1428C78.5468 34.2536 78.4796 34.3403 78.3885 34.4079L78.3727 34.4116C78.2343 34.5221 78.092 34.6018 77.9455 34.6527C77.8031 34.7005 77.6488 34.7241 77.4868 34.7241C77.3324 34.7241 77.1861 34.7005 77.0477 34.6527C76.9053 34.6018 76.7628 34.5221 76.6245 34.4116L76.6086 34.4079C76.4149 34.2612 76.3159 33.9884 76.3159 33.5888V27.0428C76.3159 26.865 76.3438 26.7105 76.3952 26.5761C76.4506 26.4455 76.5336 26.3149 76.6484 26.1886V26.1925C76.7788 26.0617 76.9094 25.9712 77.0398 25.9156C77.1665 25.8603 77.3166 25.8323 77.4868 25.8323H95.6879C95.8574 25.8323 96.0118 25.8603 96.1462 25.9197C96.2846 25.975 96.4151 26.0661 96.5339 26.1848C96.6606 26.3109 96.7517 26.4455 96.811 26.5921C96.8703 26.7265 96.8977 26.877 96.8977 27.0428V36.4917C96.8977 36.6658 96.8703 36.8123 96.815 36.943C96.7594 37.0737 96.6682 37.2038 96.5382 37.3305L96.542 37.3346C96.4114 37.4613 96.2769 37.5563 96.1346 37.6154C96.0041 37.671 95.8537 37.7022 95.6879 37.7022L83.0319 37.749C82.8935 37.749 82.759 37.7216 82.6364 37.6662C82.498 37.6068 82.3633 37.508 82.2328 37.3773C82.1023 37.2466 82.0075 37.1122 81.9481 36.9777Z" fill="#372011"/>
<defs>
<linearGradient id="paint0_linear_177_496" x1="11.0062" y1="23.7581" x2="32.5262" y2="38.994" gradientUnits="userSpaceOnUse">
<stop stop-color="#F0DB92"/>
<stop offset="1" stop-color="#BF9033"/>
</linearGradient>
<linearGradient id="paint1_linear_177_496" x1="36.1806" y1="34.3736" x2="40.4702" y2="35.9686" gradientUnits="userSpaceOnUse">
<stop stop-color="#F0DB92"/>
<stop offset="1" stop-color="#BF9033"/>
</linearGradient>
<linearGradient id="paint2_linear_177_496" x1="27.0936" y1="32.717" x2="30.4622" y2="36.8142" gradientUnits="userSpaceOnUse">
<stop stop-color="#F0DB92"/>
<stop offset="1" stop-color="#BF9033"/>
</linearGradient>
<linearGradient id="paint3_linear_177_496" x1="11.3502" y1="13.0997" x2="13.5691" y2="19.5648" gradientUnits="userSpaceOnUse">
<stop stop-color="#F0DB92"/>
<stop offset="1" stop-color="#BF9033"/>
</linearGradient>
<linearGradient id="paint4_linear_177_496" x1="24.3373" y1="33.7454" x2="26.7695" y2="42.2452" gradientUnits="userSpaceOnUse">
<stop stop-color="#F0DB92"/>
<stop offset="1" stop-color="#BF9033"/>
</linearGradient>
<linearGradient id="paint5_linear_177_496" x1="10.527" y1="20.0186" x2="13.6897" y2="22.5225" gradientUnits="userSpaceOnUse">
<stop stop-color="#F0DB92"/>
<stop offset="1" stop-color="#BF9033"/>
</linearGradient>
<linearGradient id="paint6_linear_177_496" x1="29.0092" y1="19.5196" x2="31.9973" y2="20.2996" gradientUnits="userSpaceOnUse">
<stop stop-color="#F0DB92"/>
<stop offset="1" stop-color="#BF9033"/>
</linearGradient>
<linearGradient id="paint7_linear_177_496" x1="32.6564" y1="23.2177" x2="36.0422" y2="24.0608" gradientUnits="userSpaceOnUse">
<stop stop-color="#F0DB92"/>
<stop offset="1" stop-color="#BF9033"/>
</linearGradient>
<linearGradient id="paint8_linear_177_496" x1="20.8128" y1="21.5656" x2="22.2682" y2="27.4667" gradientUnits="userSpaceOnUse">
<stop stop-color="#F0DB92"/>
<stop offset="1" stop-color="#BF9033"/>
</linearGradient>
<linearGradient id="paint9_linear_177_496" x1="2.74581" y1="21.8761" x2="5.50069" y2="23.682" gradientUnits="userSpaceOnUse">
<stop stop-color="#F0DB92"/>
<stop offset="1" stop-color="#BF9033"/>
</linearGradient>
<linearGradient id="paint10_linear_177_496" x1="23.9016" y1="17.4662" x2="27.6492" y2="19.125" gradientUnits="userSpaceOnUse">
<stop stop-color="#F0DB92"/>
<stop offset="1" stop-color="#BF9033"/>
</linearGradient>
<linearGradient id="paint11_linear_177_496" x1="6.60902" y1="20.8996" x2="9.47068" y2="22.3406" gradientUnits="userSpaceOnUse">
<stop stop-color="#F0DB92"/>
<stop offset="1" stop-color="#BF9033"/>
</linearGradient>
<linearGradient id="paint12_linear_177_496" x1="6.84611" y1="13.9678" x2="8.71784" y2="19.6251" gradientUnits="userSpaceOnUse">
<stop stop-color="#F0DB92"/>
<stop offset="1" stop-color="#BF9033"/>
</linearGradient>
<linearGradient id="paint13_linear_177_496" x1="18.9754" y1="21.543" x2="21.2647" y2="24.6407" gradientUnits="userSpaceOnUse">
<stop stop-color="#F0DB92"/>
<stop offset="1" stop-color="#BF9033"/>
</linearGradient>
<linearGradient id="paint14_linear_177_496" x1="35.4217" y1="28.1023" x2="39.4356" y2="29.3713" gradientUnits="userSpaceOnUse">
<stop stop-color="#F0DB92"/>
<stop offset="1" stop-color="#BF9033"/>
</linearGradient>
<linearGradient id="paint15_linear_177_496" x1="18.4493" y1="15.959" x2="21.9275" y2="17.92" gradientUnits="userSpaceOnUse">
<stop stop-color="#F0DB92"/>
<stop offset="1" stop-color="#BF9033"/>
</linearGradient>
<linearGradient id="paint16_linear_177_496" x1="23.81" y1="24.4231" x2="26.1582" y2="32.1748" gradientUnits="userSpaceOnUse">
<stop stop-color="#F0DB92"/>
<stop offset="1" stop-color="#BF9033"/>
</linearGradient>
<linearGradient id="paint17_linear_177_496" x1="4.29906" y1="18.5986" x2="6.23014" y2="21.2568" gradientUnits="userSpaceOnUse">
<stop stop-color="#F0DB92"/>
<stop offset="1" stop-color="#BF9033"/>
</linearGradient>
<linearGradient id="paint18_linear_177_496" x1="14.7339" y1="20.4335" x2="17.3918" y2="23.3899" gradientUnits="userSpaceOnUse">
<stop stop-color="#F0DB92"/>
<stop offset="1" stop-color="#BF9033"/>
</linearGradient>
</defs>
</svg>
