<svg width="46" height="54" viewBox="0 0 46 54" fill="none" xmlns="http://www.w3.org/2000/svg">
<path d="M20.0254 51.6262C15.9635 48.1449 13.9303 44.3719 13.9303 40.3095V31.604H7.83521V38.5692C7.83521 41.9911 8.99813 44.9534 11.3199 47.4488C13.6417 49.9445 16.5449 51.3373 20.0254 51.6262Z" fill="#372011"/>
<path d="M45.4943 31.604H16.545V39.4394C16.545 42.5168 17.5022 45.258 19.4165 47.6663C21.3309 50.0752 23.8544 51.6853 26.991 52.4961L27.1373 52.4484L27.1927 52.6066C26.0536 53.1132 24.5348 53.3701 22.636 53.3701H20.0256C15.9043 53.3701 12.4078 51.9301 9.53632 49.0591C6.66079 46.1873 5.22494 42.6909 5.22494 38.5692V31.604H1.74438C0.577422 31.604 0 31.0505 0 30.299C0 29.4288 0.581329 28.9937 1.74438 28.9937C18.3018 28.9937 28.9487 28.9937 45.4943 28.9937V31.604Z" fill="#372011"/>
<path d="M27.181 52.4328C28.9293 51.8197 30.8594 50.4791 32.6473 48.1453C34.8029 45.333 36.7133 43.791 38.7423 43.791C39.8459 43.791 40.7754 44.1109 41.5309 44.7517C42.2824 45.3884 42.6621 46.231 42.6621 47.2753C42.6621 49.0155 41.8195 50.467 40.1347 51.6259C38.4536 52.7892 36.3929 53.3705 33.9563 53.3705C31.1125 53.3705 28.9333 53.0779 27.4263 52.4961C27.363 52.5278 27.2997 52.5598 27.2325 52.5909L27.181 52.4328Z" fill="#372011"/>
<path fill-rule="evenodd" clip-rule="evenodd" d="M28.7102 28.9932C30.9003 28.5312 32.743 27.0186 33.1252 24.7878L33.2107 24.092C33.2264 23.8754 33.2548 23.6366 33.2678 23.4149C33.33 22.3594 33.3307 21.6026 33.2053 20.5807C33.1684 20.2787 32.9376 18.8052 32.838 18.6093C32.7424 18.0796 32.347 17.0189 32.1611 16.5221L31.781 15.6602C31.6136 15.3525 31.3022 14.6756 31.1203 14.4064L30.2083 12.9691C30.1457 12.8744 30.0882 12.8093 30.0259 12.7151C29.996 12.6699 29.9742 12.6328 29.9429 12.5894C29.9076 12.5405 29.8853 12.5249 29.8496 12.4708C29.8187 12.4242 29.7937 12.3791 29.7594 12.3362L29.2852 11.72C29.2506 11.6783 29.2297 11.6459 29.1925 11.6008L28.284 10.5365C28.2077 10.4543 28.1402 10.3877 28.0682 10.3067C28.0287 10.2623 27.9937 10.2315 27.9505 10.1881C27.4351 9.67186 27.0366 9.27126 26.4274 8.79521L25.4296 8.053C25.3508 7.9933 25.3987 8.03745 25.3947 8.00717C25.3342 7.99122 24.4193 7.38338 24.2564 7.29028C23.5364 6.87881 23.1094 6.63714 22.3401 6.28323C22.2187 6.22743 22.0988 6.17398 21.9622 6.11714C21.4496 5.90347 20.0758 5.36094 19.5315 5.25078C19.4759 5.21686 18.7844 5.03196 18.6694 5.00917C18.4958 4.9748 18.3878 4.93547 18.2229 4.90252C18.068 4.87147 17.9131 4.83983 17.7583 4.80851L16.8432 4.62271C16.76 4.60689 16.7514 4.61757 16.6792 4.60695C16.5625 4.58983 16.4466 4.54809 16.3296 4.54073L15.6424 4.44718C15.5251 4.42927 15.4072 4.40512 15.2896 4.39711C15.2038 4.39132 15.0635 4.38019 14.9644 4.36014C14.3937 4.28709 13.376 4.2434 12.8407 4.224C11.6144 4.17953 9.32091 4.38891 8.09861 4.71932C8.01814 4.74107 7.9494 4.75813 7.87459 4.77961C7.76749 4.81034 7.32633 4.99758 7.26422 4.99035C7.2805 4.91835 7.29345 4.92473 7.34325 4.89999L7.84847 4.67732L8.50708 4.47654C9.31186 4.27575 10.022 4.14645 10.8587 4.08427C11.5286 4.03453 12.1976 3.993 12.8941 3.9902C13.2508 3.9887 14.6311 4.00576 15.0424 4.05856L16.0775 4.16065C16.2618 4.1708 16.6678 4.24633 16.7913 4.25238C16.9243 4.25902 17.3648 4.34404 17.5114 4.37464C17.6406 4.40153 17.7265 4.40121 17.8683 4.42986C18.0504 4.46677 19.5638 4.79628 19.6447 4.85617L20.5021 5.09921C22.3065 5.66472 23.6622 6.32066 25.2374 7.2507L25.5564 7.45526L26.0943 7.80749C26.1891 7.87188 26.2708 7.92409 26.3617 7.99134L27.1246 8.56877L28.3076 9.59178C28.9016 10.1602 29.8762 11.1971 30.3426 11.852L30.6111 12.2157C30.646 12.2685 30.6693 12.2832 30.7046 12.3342L30.8807 12.5787C30.9953 12.7496 31.0991 12.9089 31.213 13.0806L32.0716 14.5801C32.0971 14.6326 32.0873 14.5926 32.1011 14.656C32.138 14.6953 32.1627 14.7562 32.1895 14.8084C32.5838 15.5769 32.8076 16.1683 33.1305 16.9488L33.2551 17.2906C33.3149 17.376 33.6135 18.3297 33.6522 18.4642C33.666 18.512 33.6804 18.5415 33.6942 18.5893C33.8927 19.2789 34.0026 19.8151 34.1248 20.5403C34.2657 21.3772 34.2918 22.1318 34.2893 22.9874C34.2696 26.2833 33.879 27.8957 33.2994 28.9932H28.7102Z" fill="url(#paint0_linear_2010_814)"/>
<path fill-rule="evenodd" clip-rule="evenodd" d="M35.0466 25.2778C35.1077 25.2901 35.3072 25.1771 35.3616 25.1454L36.3587 24.4704C36.6831 24.2042 36.9735 23.9368 37.2522 23.6186C37.481 23.3574 37.5054 23.3089 37.7003 23.0585C38.1385 22.4953 38.5749 21.544 38.7168 20.8422C38.9063 19.9056 38.9014 19.2881 38.7371 18.3837C38.7245 18.3145 38.7062 18.1937 38.6747 18.1471C38.6117 18.054 38.5535 18.0823 38.4635 18.115L37.9111 18.3504C37.3968 18.6081 37.267 18.7023 36.8232 19.035C36.694 19.1318 36.5914 19.2317 36.4698 19.34C36.41 19.3933 36.357 19.4475 36.3014 19.5049C36.1154 19.6968 35.9858 19.8544 35.8279 20.0685C35.1211 21.0263 34.7593 22.2714 34.7759 23.4986C34.7848 24.1565 34.8291 24.5047 34.9373 25.1419C34.9485 25.2075 34.9707 25.2624 35.0466 25.2778Z" fill="url(#paint1_linear_2010_814)"/>
<path fill-rule="evenodd" clip-rule="evenodd" d="M27.4364 17.1066C27.165 17.0818 26.5886 17.196 26.3395 17.2633C26.0438 17.3432 25.7549 17.4456 25.4786 17.5782C25.3026 17.6626 25.4342 17.8552 25.5411 18.0385C25.6452 18.217 25.8247 18.5375 25.9449 18.6875C26.3741 19.2238 26.6932 19.6432 27.314 20.0576C27.6918 20.3098 27.9126 20.4285 28.3457 20.5957C29.0181 20.8552 30.0304 20.9359 30.7452 20.7833C30.7486 20.7826 30.7768 20.7752 30.7792 20.7744C30.8113 20.7635 30.792 20.7721 30.807 20.7619C30.8853 20.763 30.9759 20.7406 31.0515 20.7222L31.7184 20.5339C31.7976 20.5088 32.2927 20.3336 32.3426 20.28C32.411 20.2065 32.3696 20.1225 32.331 20.0634C31.9483 19.477 31.6848 19.1965 31.1787 18.7023L30.6533 18.2589C30.0545 17.8331 29.3375 17.3871 28.6043 17.2426C28.3126 17.1852 27.7226 17.0637 27.4364 17.1066Z" fill="url(#paint2_linear_2010_814)"/>
<path fill-rule="evenodd" clip-rule="evenodd" d="M16.0267 2.57117C16.026 2.49773 15.9278 2.37606 15.8861 2.3131C15.8273 2.22449 15.7844 2.14864 15.7134 2.06641C15.5462 1.87304 15.5672 1.85631 15.31 1.59771C14.9496 1.2352 14.3824 0.850491 13.8723 0.731673C13.3856 0.618193 13.2071 0.602567 12.7062 0.629716C12.4139 0.645537 11.7432 0.791826 11.4431 0.924447C11.3015 0.986949 11.3699 1.09874 11.4195 1.1919L12.0016 2.08385C12.8752 3.11057 13.964 3.85103 15.4755 3.64562C15.7123 3.61437 15.7591 3.59229 15.9537 3.55635C16.0384 3.54066 16.0894 3.51586 16.1752 3.4921C16.2314 3.4766 16.3505 3.44535 16.3793 3.39945C16.4211 3.33291 16.3635 3.23649 16.3398 3.17901C16.3079 3.10153 16.2831 3.04951 16.251 2.97399L16.0996 2.67177C16.0688 2.61024 16.0877 2.6157 16.0267 2.57117Z" fill="url(#paint3_linear_2010_814)"/>
<path fill-rule="evenodd" clip-rule="evenodd" d="M26.9939 24.9345C27.1217 25.0775 27.7541 25.3628 27.9609 25.4493C28.2389 25.5656 28.3416 25.5651 28.5543 25.6391C28.6474 25.6713 28.7582 25.6922 28.8773 25.7165L29.4992 25.7953C29.6119 25.804 29.6923 25.8109 29.8029 25.8132C30.5719 25.8294 31.2105 25.7077 31.9249 25.5146C32.0914 25.4697 32.2498 25.4177 32.4078 25.363C32.7184 25.2556 32.4727 25.0536 32.2944 24.7832C32.2185 24.668 31.9289 24.3381 31.8242 24.2199C31.7108 24.092 31.5995 23.9873 31.4764 23.8672C31.2338 23.6307 30.9797 23.4204 30.7002 23.2122C30.6215 23.1402 30.3301 22.9499 30.2194 22.8811L29.6851 22.5726C29.5437 22.5124 29.4116 22.444 29.2621 22.3771C29.1377 22.3215 28.9267 22.2354 28.7863 22.207C28.7605 22.1829 28.7357 22.182 28.6939 22.1705C28.3648 22.0798 28.3471 22.055 27.9446 21.986C27.6904 21.9425 27.3697 21.9273 27.1086 21.9198C26.7589 21.9097 26.3381 21.9662 25.9991 22.0272C25.934 22.039 25.8954 22.0489 25.8301 22.0657C25.3898 22.1786 25.4384 22.1691 25.0102 22.3166C24.7617 22.4021 24.8868 22.5398 25.0654 22.8691L25.4295 23.4193C25.4774 23.4857 25.7655 23.8947 25.8495 23.9347C25.8728 23.9956 26.1982 24.3242 26.2754 24.3768C26.3131 24.4387 26.8861 24.9023 26.9939 24.9345Z" fill="url(#paint4_linear_2010_814)"/>
<path fill-rule="evenodd" clip-rule="evenodd" d="M9.1643 7.98069C9.39308 8.02698 9.75534 7.97646 9.96244 7.94814C10.3422 7.89631 10.7888 7.75972 11.1321 7.59611C11.1856 7.57058 11.2374 7.54955 11.2902 7.52038C11.5327 7.38633 11.7121 7.28093 11.929 7.10117C11.9542 7.08027 11.9684 7.07311 11.9938 7.05228L12.3678 6.69458C12.7699 6.27113 13.1228 5.59267 13.2883 5.02482C13.3091 4.9532 13.4084 4.65286 13.403 4.58515C13.3927 4.45526 13.2192 4.46009 13.0611 4.45195C12.9163 4.44453 12.7753 4.43541 12.6501 4.4397C12.0698 4.45956 11.6036 4.5707 11.0899 4.83125C11.0286 4.86231 10.9948 4.88927 10.939 4.91798L10.7218 5.05124C10.687 5.07761 10.6856 5.08556 10.6508 5.11173C9.76301 5.7792 9.31762 6.81028 9.1003 7.8842C9.09275 7.92164 9.12693 7.97307 9.1643 7.98069Z" fill="url(#paint5_linear_2010_814)"/>
<path fill-rule="evenodd" clip-rule="evenodd" d="M27.898 7.44123C28.0879 8.37752 28.6619 9.30619 29.4169 9.89612C29.6386 10.0692 29.6318 10.0936 29.7782 9.81942C29.9506 9.49649 30.0939 9.08339 30.2075 8.72843C30.2403 8.62602 30.3457 8.17725 30.3504 8.082C30.3584 7.91989 30.4078 7.68916 30.4146 7.46982C30.4212 7.25913 30.4169 7.09298 30.4082 6.89057C30.3914 6.49973 30.2767 5.9865 30.1399 5.62373C30.0858 5.48024 29.8989 5.03446 29.8164 4.96024C29.8004 4.87567 29.7419 4.81231 29.6933 4.73907C29.6433 4.66361 29.6025 4.60241 29.5526 4.52683C29.4545 4.37852 29.3468 4.26185 29.2382 4.11972C29.2051 4.08769 29.1807 4.05638 29.1468 4.0181C28.9485 3.79446 28.724 3.59829 28.5036 3.40285C28.451 3.3563 28.4356 3.34457 28.3464 3.32654C28.3043 3.36834 28.31 3.34314 28.2736 3.40512C28.2523 3.44106 28.2385 3.47992 28.2238 3.51873L28.0537 4.01614C27.9444 4.36159 27.9222 4.52045 27.848 4.87971C27.8252 4.98993 27.8315 5.03954 27.8088 5.15582C27.795 5.22653 27.8013 5.23935 27.7961 5.28935C27.7932 5.31787 27.7858 5.34176 27.7831 5.36754C27.7776 5.41689 27.7806 5.35413 27.7809 5.3958C27.7812 5.43929 27.7762 5.40817 27.7871 5.43017C27.7506 5.61071 27.7495 5.80675 27.7482 5.97401C27.7449 6.40208 27.7647 6.79609 27.8457 7.21524C27.8583 7.27989 27.8757 7.38068 27.898 7.44123Z" fill="url(#paint6_linear_2010_814)"/>
<path fill-rule="evenodd" clip-rule="evenodd" d="M33.527 7.68922C33.5172 7.62541 33.4232 7.52034 33.3909 7.45387L32.9837 6.86264C32.944 6.81654 32.9187 6.77996 32.8545 6.78927C32.6998 6.81166 32.2332 7.72307 32.1763 7.8428C32.0813 8.04346 31.9873 8.24725 31.9057 8.46099C31.7796 8.79173 31.4989 9.6118 31.4861 9.89833C31.4803 10.0276 31.4268 10.1598 31.4184 10.2907C31.4035 10.5224 31.3654 10.7443 31.3616 11.0091C31.357 11.337 31.3686 11.7017 31.4185 12.0133C31.496 12.4977 31.5613 12.742 31.7314 13.195C31.7665 13.2887 31.7981 13.3672 31.8397 13.4566L32.0362 13.8403C32.069 13.8925 32.0752 13.9204 32.1093 13.9723C32.1954 14.1037 32.2225 14.1669 32.3072 14.2718C32.4323 14.4267 32.5929 14.7902 32.7524 14.6794C32.8109 14.6389 32.9848 14.4067 33.0503 14.3383C33.0959 14.2754 33.1344 14.2192 33.1823 14.1544C33.2517 14.0604 33.5366 13.6385 33.5592 13.5513L33.7012 13.3033C33.7486 13.2116 33.7889 13.1291 33.8313 13.0386C33.912 12.8669 33.9992 12.6515 34.0613 12.464C34.3233 11.6736 34.4106 11.0273 34.3504 10.2072L34.274 9.64657C34.2123 9.3088 34.1881 9.27819 34.1099 8.99134C34.0923 8.92656 34.0882 8.91048 34.0589 8.85833C34.0569 8.79439 34.0337 8.76549 34.0128 8.70846C33.9901 8.647 33.9759 8.60767 33.9535 8.55324C33.8414 8.27999 33.6861 7.9374 33.527 7.68922Z" fill="url(#paint7_linear_2010_814)"/>
<path fill-rule="evenodd" clip-rule="evenodd" d="M24.1593 11.3655C24.4999 11.4344 24.8918 11.4209 25.1641 11.3872C25.4999 11.3456 25.715 11.3051 26.0419 11.1818C26.2045 11.1204 26.4561 11.0056 26.6147 10.9142L26.9619 10.6836C27.0127 10.6497 27.1043 10.616 27.0957 10.5343C27.0873 10.4556 26.8864 10.2588 26.826 10.1978C26.2346 9.60117 25.2475 8.94634 24.3462 8.81417C24.1129 8.77999 23.462 8.73065 23.3246 8.79126C23.2363 8.77954 23.0488 8.81925 22.9701 8.83383C22.8554 8.85506 22.7462 8.88305 22.6336 8.91313C22.5125 8.94536 22.0947 9.08481 22.0228 9.14595C21.9283 9.15272 21.3806 9.46817 21.2815 9.53457C21.229 9.56986 21.1901 9.59635 21.1367 9.63046C20.9946 9.72148 20.9867 9.77747 21.13 9.90612C21.3847 10.1346 21.9899 10.5985 22.322 10.7432C22.3819 10.7927 22.6237 10.897 22.7139 10.9392C22.8523 11.0041 22.9917 11.0638 23.1514 11.1213C23.3029 11.1758 23.9966 11.4007 24.1593 11.3655Z" fill="url(#paint8_linear_2010_814)"/>
<path fill-rule="evenodd" clip-rule="evenodd" d="M1.48072 9.63327C1.61093 9.65964 1.92754 9.61049 2.04831 9.58842C2.23217 9.55483 2.39845 9.50534 2.56557 9.44668C3.09716 9.26015 3.67609 8.87297 4.00944 8.41918C4.34011 7.96904 4.52683 7.53934 4.65261 6.91764C4.68119 6.7763 4.68451 6.68834 4.70847 6.561C4.75164 6.33182 4.60151 6.33911 4.23835 6.35598C3.49901 6.39029 2.75158 6.65227 2.26212 7.23028C1.72884 7.85998 1.53834 8.5447 1.43456 9.37213C1.42395 9.45658 1.39406 9.61576 1.48072 9.63327Z" fill="url(#paint9_linear_2010_814)"/>
<path fill-rule="evenodd" clip-rule="evenodd" d="M25.8677 4.07803C25.873 4.00647 25.7104 3.70757 25.6664 3.63205C25.3602 3.1073 24.9823 2.62994 24.4719 2.28507C24.4036 2.23898 24.2421 2.11156 24.1671 2.10447C24.1042 2.01058 23.5924 1.79788 23.5034 1.76057C23.2646 1.66096 22.9705 1.57483 22.6971 1.50315C22.4672 1.44286 22.5386 1.9421 22.5493 2.1574L22.6368 2.89863C22.6567 2.93893 22.6649 3.01692 22.6753 3.07409C22.7183 3.31153 22.8649 3.87014 22.9533 4.08648C23.0533 4.33122 23.1185 4.53617 23.2527 4.78885L23.5114 5.24238C23.5465 5.29524 23.5723 5.33412 23.6074 5.38711C23.6851 5.50437 23.6654 5.51303 23.7265 5.52058C23.7395 5.57546 23.7278 5.54505 23.7569 5.59414C23.7984 5.6638 24.0495 5.93568 24.1027 5.98927C24.2094 6.09656 24.4493 6.3191 24.5855 6.39358C24.6941 6.51572 25.1845 6.75094 25.3572 6.82412C25.5181 6.89216 25.6509 6.93109 25.8369 6.97816C25.9952 7.01827 26.2038 7.12974 26.2359 6.93344C26.3101 6.47783 26.2813 5.76348 26.2124 5.2981C26.2057 5.25279 26.2005 5.13157 26.1663 5.1024C26.1838 4.97395 25.9463 4.15127 25.8677 4.07803Z" fill="url(#paint10_linear_2010_814)"/>
<path fill-rule="evenodd" clip-rule="evenodd" d="M7.85356 5.29335C7.57198 5.36614 7.6141 5.32831 7.27789 5.45117C6.25847 5.82338 5.62428 6.66559 5.40181 7.75383C5.35572 7.97903 5.28085 8.85146 5.33026 9.06559C5.34498 9.12952 5.37336 9.15778 5.44113 9.15622C5.53189 9.15439 5.88027 9.04547 5.96165 9.01649L6.36219 8.8454C6.50666 8.77736 6.61396 8.70184 6.74736 8.63016L6.98304 8.46199C7.10062 8.37305 7.32536 8.1666 7.41071 8.06002L7.62264 7.8136C7.68944 7.72824 7.75193 7.62876 7.8089 7.52889C8.20696 6.83147 8.31647 6.22039 8.31478 5.43222C8.31446 5.31047 8.31335 5.34842 8.27787 5.26222C8.14993 5.23638 7.95194 5.269 7.85356 5.29335Z" fill="url(#paint11_linear_2010_814)"/>
<path fill-rule="evenodd" clip-rule="evenodd" d="M9.4179 3.77285C9.83803 3.85781 10.1023 3.83339 10.4406 3.7899C10.7603 3.74882 10.914 3.68326 11.1836 3.59061C11.3378 3.53768 11.2991 3.46827 11.2444 3.35004C11.1024 3.04326 10.9478 2.73323 10.7279 2.47021L10.5552 2.25138C9.61576 1.19894 8.47322 0.926866 7.14896 1.38313C7.0834 1.40579 6.83014 1.49237 6.79472 1.5205C6.69387 1.60051 6.81256 1.7192 6.88203 1.85417C6.93288 1.95287 7.00833 2.08856 7.08405 2.16473C7.50743 2.71657 7.95139 3.19575 8.61566 3.51034C8.93703 3.66249 9.06125 3.70064 9.4179 3.77285Z" fill="url(#paint12_linear_2010_814)"/>
<path fill-rule="evenodd" clip-rule="evenodd" d="M19.9205 8.77037C20.3136 8.73241 20.2067 8.77746 20.6784 8.68755C21.0407 8.61841 21.2341 8.49783 21.3706 8.46248C21.4937 8.37445 21.7394 8.3059 22.0968 7.9986C22.2111 7.90042 22.3161 7.8137 22.4156 7.70426C22.5162 7.59371 22.7832 7.30151 22.8434 7.17651C22.8814 7.09766 22.8212 7.03848 22.7582 6.99206C22.628 6.89629 22.5138 6.8082 22.3664 6.72402C22.1152 6.58046 21.7284 6.36333 21.4365 6.30428C21.3361 6.23917 20.8765 6.16848 20.7525 6.16073C20.4323 6.14081 20.4575 6.14061 20.1427 6.16294C19.3012 6.22251 18.4474 6.78822 17.8951 7.38205C17.8296 7.45256 17.7827 7.50542 17.7199 7.5786C17.6616 7.64644 17.5997 7.70289 17.5565 7.78258C17.4974 7.84384 17.3749 7.97041 17.4672 8.05713C17.6038 8.18532 18.1903 8.43026 18.3892 8.50129C18.6426 8.59198 18.8634 8.63982 19.1583 8.69966C19.5929 8.78787 19.702 8.74166 19.9205 8.77037Z" fill="url(#paint13_linear_2010_814)"/>
<path fill-rule="evenodd" clip-rule="evenodd" d="M37.576 15.6633C37.6728 15.5486 37.7726 14.3624 37.7411 14.2688C37.759 14.1707 37.7433 14.029 37.739 13.9327C37.7364 13.8756 37.7333 13.6614 37.7072 13.6055C37.7381 13.3939 37.5071 12.3857 37.4513 12.1785L37.3565 11.8525C37.2994 11.657 37.1804 11.7248 37.0862 11.7886C36.9188 11.9018 36.6895 12.059 36.5528 12.2026C36.4196 12.2662 35.8745 12.8688 35.7438 13.011L35.4482 13.3821C35.4019 13.4472 35.3389 13.5055 35.3002 13.5862C35.1585 13.7469 34.9114 14.179 34.8073 14.3812C34.7074 14.5754 34.5845 14.7846 34.5153 14.9975C34.4907 15.0321 34.4396 15.1863 34.4181 15.2427C34.3847 15.33 34.3601 15.4172 34.3239 15.5195C34.2548 15.7139 34.2169 15.9187 34.1722 16.1396C34.0276 16.8548 34.0181 17.5702 34.144 18.2488C34.1716 18.3982 34.3611 19.2712 34.4556 19.3489C34.5412 19.4194 34.6727 19.3326 34.7705 19.271C34.9475 19.1597 35.048 19.1186 35.2305 18.98C35.3317 18.903 35.4611 18.8315 35.5873 18.7222C36.1376 18.2461 36.5471 17.8689 36.9407 17.2023C37.0272 17.0558 37.1052 16.9214 37.1816 16.7696C37.2361 16.6615 37.3573 16.4139 37.3823 16.2902C37.4474 16.199 37.5449 15.8164 37.576 15.6633Z" fill="url(#paint14_linear_2010_814)"/>
<path fill-rule="evenodd" clip-rule="evenodd" d="M19.3432 4.26063C19.3788 4.30744 19.6055 4.39781 19.6603 4.42099C19.8852 4.51591 20.2577 4.62301 20.4929 4.63909L20.7981 4.65934C20.896 4.64729 20.8552 4.61343 20.8763 4.60901C20.902 4.60367 20.9039 4.48447 20.9038 4.47144C20.8989 3.30729 20.4677 1.98465 19.5958 1.18502C19.4533 1.05429 19.0337 0.724141 18.8666 0.673163C18.7403 0.589893 18.3053 0.409287 18.1136 0.370484C17.8227 0.311628 17.8983 0.292161 17.4777 0.240857C17.3792 0.228878 17.224 0.183952 17.0995 0.215463C17.0384 0.349256 17.0852 0.548746 17.1098 0.694844C17.2158 1.32468 17.5135 2.20699 17.8562 2.76983C17.9229 2.87927 18.2782 3.41386 18.3567 3.45976C18.4287 3.57382 18.6813 3.80886 18.7928 3.89897C18.8968 3.98289 19.2014 4.22098 19.3432 4.26063Z" fill="url(#paint15_linear_2010_814)"/>
<path fill-rule="evenodd" clip-rule="evenodd" d="M26.5867 15.2974C26.7696 15.4453 27.3682 15.6594 27.6161 15.7445C27.7081 15.776 27.9096 15.8323 28.0176 15.8542C28.3205 15.9154 28.7491 15.9517 29.0418 15.9336L29.3654 15.9097C29.3695 15.9082 29.9328 15.8238 30.3039 15.6789L30.7367 15.4935C30.7901 15.4689 30.8255 15.4463 30.8258 15.3793C30.8263 15.3 30.7254 15.1593 30.6928 15.0925L30.4558 14.708C30.3544 14.5885 30.2703 14.4423 30.1365 14.2808C30.1156 14.2555 30.1083 14.2414 30.0874 14.216C30.0505 14.171 30.0216 14.1367 29.9814 14.0919C29.9094 14.012 29.855 13.9445 29.7786 13.8652C29.57 13.6477 29.4227 13.5242 29.2004 13.3319C29.1066 13.2508 28.6002 12.9016 28.4923 12.8767C28.3796 12.7821 27.9891 12.6288 27.812 12.572C27.5132 12.4761 27.4845 12.4739 27.1924 12.413C27.0961 12.393 27.0522 12.4 26.979 12.3868C26.6498 12.3202 25.9871 12.3605 25.6455 12.4263L25.564 12.4549C25.3908 12.4186 24.4629 12.7548 24.2379 12.8597C24.1881 12.8831 24.1476 12.9089 24.1446 12.9768C24.1409 13.0584 24.4054 13.4077 24.4706 13.4829C24.8746 13.9486 25.2423 14.3843 25.7703 14.7601C25.9317 14.875 26.4235 15.2476 26.5867 15.2974Z" fill="url(#paint16_linear_2010_814)"/>
<path fill-rule="evenodd" clip-rule="evenodd" d="M7.22782 3.94765C7.15373 3.8791 7.06883 3.833 6.98016 3.77564C6.74116 3.62095 6.48659 3.51626 6.21978 3.41873C6.15077 3.39353 6.09321 3.38963 6.02453 3.36769C5.60017 3.23227 5.08342 3.26717 4.67846 3.37616C4.2123 3.50168 3.89771 3.70962 3.53865 3.98261C3.49737 4.01392 3.46301 4.04812 3.4244 4.08256C3.27316 4.21726 2.87445 4.55971 2.83344 4.76232C2.89581 4.82521 3.14191 4.99872 3.24419 5.02919C3.31685 5.09768 3.73228 5.26305 3.81477 5.29222C4.45639 5.51924 5.09273 5.57159 5.75277 5.41429C5.92999 5.37204 6.11177 5.29931 6.26659 5.22548C6.50038 5.11415 6.74824 4.96878 6.94421 4.80198C7.18003 4.60132 7.23075 4.54871 7.43668 4.32969C7.48538 4.278 7.49118 4.27976 7.50967 4.18848C7.42972 4.10775 7.3368 4.00078 7.22782 3.94765Z" fill="url(#paint17_linear_2010_814)"/>
<path fill-rule="evenodd" clip-rule="evenodd" d="M15.4854 7.80634C15.5482 7.78199 15.6314 7.76441 15.7046 7.74488C16.3189 7.58101 17.0222 7.13003 17.4238 6.65085C17.6561 6.37356 18.1374 5.73766 18.2121 5.36806C18.1274 5.28251 18.1761 5.3077 18.0039 5.24227C17.6826 5.12 17.509 5.09215 17.1521 5.01994C16.7697 4.9426 16.2005 4.97899 15.9185 5.05438C15.6832 5.06414 15.2627 5.27561 15.042 5.38519C14.8904 5.46045 14.5575 5.71293 14.4257 5.83813C14.1803 6.07101 14.1127 6.15486 13.8922 6.43696C13.7541 6.6136 13.2217 7.49481 13.2384 7.63948C13.2566 7.79677 13.875 7.85615 13.966 7.86748C14.2652 7.90465 14.464 7.91103 14.7259 7.90316C14.9765 7.89606 15.2617 7.85725 15.4854 7.80634Z" fill="url(#paint18_linear_2010_814)"/>
<defs>
<linearGradient id="paint0_linear_2010_814" x1="10.0169" y1="8.8736" x2="31.5368" y2="24.1096" gradientUnits="userSpaceOnUse">
<stop stop-color="#F0DB92"/>
<stop offset="1" stop-color="#BF9033"/>
</linearGradient>
<linearGradient id="paint1_linear_2010_814" x1="35.1913" y1="19.4891" x2="39.4809" y2="21.0841" gradientUnits="userSpaceOnUse">
<stop stop-color="#F0DB92"/>
<stop offset="1" stop-color="#BF9033"/>
</linearGradient>
<linearGradient id="paint2_linear_2010_814" x1="26.1042" y1="17.8325" x2="29.4728" y2="21.9297" gradientUnits="userSpaceOnUse">
<stop stop-color="#F0DB92"/>
<stop offset="1" stop-color="#BF9033"/>
</linearGradient>
<linearGradient id="paint3_linear_2010_814" x1="10.3609" y1="-1.7848" x2="12.5798" y2="4.68034" gradientUnits="userSpaceOnUse">
<stop stop-color="#F0DB92"/>
<stop offset="1" stop-color="#BF9033"/>
</linearGradient>
<linearGradient id="paint4_linear_2010_814" x1="23.348" y1="18.861" x2="25.7801" y2="27.3607" gradientUnits="userSpaceOnUse">
<stop stop-color="#F0DB92"/>
<stop offset="1" stop-color="#BF9033"/>
</linearGradient>
<linearGradient id="paint5_linear_2010_814" x1="9.53763" y1="5.13409" x2="12.7003" y2="7.63806" gradientUnits="userSpaceOnUse">
<stop stop-color="#F0DB92"/>
<stop offset="1" stop-color="#BF9033"/>
</linearGradient>
<linearGradient id="paint6_linear_2010_814" x1="28.0198" y1="4.63506" x2="31.0079" y2="5.41509" gradientUnits="userSpaceOnUse">
<stop stop-color="#F0DB92"/>
<stop offset="1" stop-color="#BF9033"/>
</linearGradient>
<linearGradient id="paint7_linear_2010_814" x1="31.667" y1="8.3332" x2="35.0529" y2="9.17633" gradientUnits="userSpaceOnUse">
<stop stop-color="#F0DB92"/>
<stop offset="1" stop-color="#BF9033"/>
</linearGradient>
<linearGradient id="paint8_linear_2010_814" x1="19.8235" y1="6.68113" x2="21.2789" y2="12.5822" gradientUnits="userSpaceOnUse">
<stop stop-color="#F0DB92"/>
<stop offset="1" stop-color="#BF9033"/>
</linearGradient>
<linearGradient id="paint9_linear_2010_814" x1="1.75649" y1="6.99164" x2="4.51137" y2="8.79753" gradientUnits="userSpaceOnUse">
<stop stop-color="#F0DB92"/>
<stop offset="1" stop-color="#BF9033"/>
</linearGradient>
<linearGradient id="paint10_linear_2010_814" x1="22.9123" y1="2.58174" x2="26.6599" y2="4.24055" gradientUnits="userSpaceOnUse">
<stop stop-color="#F0DB92"/>
<stop offset="1" stop-color="#BF9033"/>
</linearGradient>
<linearGradient id="paint11_linear_2010_814" x1="5.61967" y1="6.01517" x2="8.48133" y2="7.45611" gradientUnits="userSpaceOnUse">
<stop stop-color="#F0DB92"/>
<stop offset="1" stop-color="#BF9033"/>
</linearGradient>
<linearGradient id="paint12_linear_2010_814" x1="5.85676" y1="-0.916692" x2="7.72849" y2="4.74061" gradientUnits="userSpaceOnUse">
<stop stop-color="#F0DB92"/>
<stop offset="1" stop-color="#BF9033"/>
</linearGradient>
<linearGradient id="paint13_linear_2010_814" x1="17.9861" y1="6.65856" x2="20.2754" y2="9.75627" gradientUnits="userSpaceOnUse">
<stop stop-color="#F0DB92"/>
<stop offset="1" stop-color="#BF9033"/>
</linearGradient>
<linearGradient id="paint14_linear_2010_814" x1="34.4323" y1="13.2178" x2="38.4463" y2="14.4868" gradientUnits="userSpaceOnUse">
<stop stop-color="#F0DB92"/>
<stop offset="1" stop-color="#BF9033"/>
</linearGradient>
<linearGradient id="paint15_linear_2010_814" x1="17.46" y1="1.07456" x2="20.9382" y2="3.03554" gradientUnits="userSpaceOnUse">
<stop stop-color="#F0DB92"/>
<stop offset="1" stop-color="#BF9033"/>
</linearGradient>
<linearGradient id="paint16_linear_2010_814" x1="22.8206" y1="9.5386" x2="25.1688" y2="17.2903" gradientUnits="userSpaceOnUse">
<stop stop-color="#F0DB92"/>
<stop offset="1" stop-color="#BF9033"/>
</linearGradient>
<linearGradient id="paint17_linear_2010_814" x1="3.30974" y1="3.71417" x2="5.24082" y2="6.37235" gradientUnits="userSpaceOnUse">
<stop stop-color="#F0DB92"/>
<stop offset="1" stop-color="#BF9033"/>
</linearGradient>
<linearGradient id="paint18_linear_2010_814" x1="13.7446" y1="5.54904" x2="16.4025" y2="8.50541" gradientUnits="userSpaceOnUse">
<stop stop-color="#F0DB92"/>
<stop offset="1" stop-color="#BF9033"/>
</linearGradient>
</defs>
</svg>
