<svg width="136" height="13" viewBox="0 0 136 13" fill="none" xmlns="http://www.w3.org/2000/svg">
<path fill-rule="evenodd" clip-rule="evenodd" d="M0 1.83786C0.48259 1.91568 0.963011 1.99335 1.44121 2.07067C2.16741 2.18808 2.88849 2.30467 3.60427 2.41964C26.8165 6.15298 46.8516 9.35744 82.0679 6.05879C117.36 2.75463 129.706 0.747192 133.244 0.171963C133.922 0.0616989 134.276 0.00405979 134.407 0L132.538 3.16214L136 5.54227C135.981 5.54168 135.875 5.56085 135.661 5.59946C133.655 5.96064 122.203 8.02318 84.8346 11.5234C46.4665 15.1121 23.9554 11.5033 0.125212 7.68303L0.0991808 7.67886C0.0661303 7.67371 0.03307 7.66856 0 7.6634L2.50922 5.10714L0 1.83786Z" fill="url(#paint0_linear_259_151)"/>
<defs>
<linearGradient id="paint0_linear_259_151" x1="-26.9485" y1="23.2026" x2="-25.2977" y2="-7.39195" gradientUnits="userSpaceOnUse">
<stop stop-color="#F0DB92"/>
<stop offset="1" stop-color="#BF9033"/>
</linearGradient>
</defs>
</svg>
