<svg width="61" height="74" viewBox="0 0 61 74" fill="none" xmlns="http://www.w3.org/2000/svg">
<path d="M36.6533 73.5446C33.4615 70.4511 32.1121 68.26 32.1121 66.9864C32.1121 66.1125 32.7374 64.9378 34.4776 63.4862C35.9292 62.3273 36.8932 61.0255 36.8932 59.8627V55.9308C33.3532 60.2859 29.1977 62.5881 24.9018 62.5881C20.555 62.5881 16.7898 60.9982 13.5979 57.8141L13.6056 57.7983H17.5016C21.0415 57.7983 24.4512 56.9874 27.7301 55.3618C29.5995 54.4351 31.37 53.2641 33.0412 51.8474C35.1056 50.0975 37.2549 47.8333 39.1471 45.8734V58.0805C39.1471 61.2538 39.3871 61.9813 36.7752 64.3459C35.6189 65.3926 34.4776 66.2359 34.4776 66.9985C34.5923 67.8133 34.6572 68.7011 35.7954 69.6356C36.3936 67.1555 39.0373 65.7188 40.9205 65.2013C44.0207 64.3491 46.0883 63.8229 46.4891 60.4688C46.5175 60.2307 46.5426 59.119 46.554 58.8512L48.8077 58.4748L48.8044 59.9503C48.8044 61.5204 48.2318 63.0317 47.2431 64.4948C45.7743 66.1994 43.9229 66.5119 42.0278 67.2236C39.3916 68.2137 36.6533 70.4921 36.6533 73.5446Z" fill="#372011"/>
<path d="M13.5589 57.7944C9.73807 57.1536 6.61378 55.4448 4.18142 52.6642C1.74444 49.8758 0.526306 46.6562 0.526306 43.0013C0.526306 38.9354 2.06502 35.4546 5.13808 32.5514C8.21577 29.6522 11.9015 28.2007 16.1974 28.2007H18.3729C21.3314 28.2007 23.9576 29.6364 26.2518 32.5081C28.5454 35.3834 29.689 38.88 29.689 43.0013C26.4533 40.7667 24.3925 39.9122 21.4105 39.6315C17.7598 39.2913 14.8212 39.3981 12.1904 42.3923C10.5093 44.3066 9.66737 46.6838 9.66737 49.5276C9.66737 52.4229 10.9683 55.1759 13.5673 57.7823L13.5589 57.7944ZM7.92695 52.5775C7.34517 51.0664 7.0563 49.6146 7.0563 48.2223C7.0563 45.0897 8.156 42.4199 10.3633 40.2129C13.4283 37.1514 16.6564 36.7045 20.7418 36.9497C22.561 37.0605 23.5937 37.4324 26.2078 38.6466C25.3378 36.3248 24.0329 34.4381 22.2925 32.9865C20.548 31.5349 18.6617 30.8112 16.6321 30.8112C12.8589 30.8112 9.66737 32.0294 7.0563 34.4698C4.44197 36.9064 3.13666 39.8965 3.13666 43.4364C3.13666 47.6727 4.73475 50.7182 7.92695 52.5775Z" fill="#372011"/>
<path d="M38.2419 19.2699C37.702 18.5397 37.298 17.7649 37.0287 16.9458C33.7915 7.09091 43.1754 -1.93251 52.7621 0.359083C56.6333 1.2845 59.8402 4.09987 60.6679 8.75677C61.2001 11.7521 60.5481 14.966 58.0297 17.0276C57.8554 10.9777 43.1715 11.2677 38.2704 19.269L38.2419 19.2699Z" fill="#372011"/>
<path d="M37.6558 24.1224C38.3901 24.2776 39.6706 24.0276 40.1233 23.38C40.8042 22.4061 40.0017 21.2939 39.39 20.5438C39.0997 20.1877 38.7391 19.7772 38.3086 19.3126L38.2675 19.3105C37.9231 19.6511 37.4316 20.1723 37.0383 20.7493C36.2663 21.8828 36.0107 23.774 37.6558 24.1224Z" fill="#372011"/>
<path d="M46.5541 36.8041H39.1474V58.1797C39.1209 58.2115 39.1034 58.2528 39.1007 58.3026L38.994 60.9896H38.0205C37.398 60.9896 36.8935 60.485 36.8935 59.8627L36.8713 34.1625C36.8713 33.8324 37.1283 33.8136 37.3544 33.6076C37.5546 33.4251 37.7281 34.5502 38.0205 34.5502H47.681C48.3034 34.5502 48.808 35.0548 48.808 35.6771V59.8627C48.808 60.485 48.3034 60.9896 47.681 60.9896H46.5571L46.5541 58.7357V58.5361V58.1069V36.8041Z" fill="#372011"/>
<path d="M36.9584 36.1008C36.9031 35.9745 36.8713 35.828 36.8713 35.6615V31.7075C36.8713 31.4978 36.9031 31.3237 36.9624 31.1929C37.0139 31.0782 37.089 30.9795 37.1919 30.8967C37.3381 30.7856 37.4844 30.7029 37.6307 30.6513C37.7732 30.5996 37.9235 30.5761 38.0818 30.5761C38.2398 30.5761 38.3901 30.5996 38.5287 30.6513C38.6789 30.7029 38.8213 30.7856 38.9638 30.8927C39.0547 30.9718 39.1219 31.0624 39.1654 31.1695C39.2248 31.3116 39.2524 31.4895 39.2524 31.7075V33.5618V34.4911H40.182L48.5978 34.4443H49.5271V33.5151V28.2662V27.3369H48.5978H34.6211H33.6916V28.2662V32.7119C33.6916 32.9414 33.6639 33.1275 33.6005 33.2659C33.5571 33.3767 33.4899 33.4634 33.3988 33.531L33.3831 33.5347C33.2446 33.6452 33.1023 33.7248 32.9558 33.7758C32.8135 33.8235 32.6592 33.8472 32.4971 33.8472C32.3427 33.8472 32.1964 33.8235 32.058 33.7758C31.9156 33.7248 31.7731 33.6452 31.6348 33.5347L31.619 33.531C31.4252 33.3843 31.3262 33.1115 31.3262 32.7119V26.1658C31.3262 25.988 31.3541 25.8336 31.4055 25.6992C31.4609 25.5686 31.544 25.438 31.6587 25.3117V25.3156C31.7891 25.1848 31.9197 25.0943 32.0502 25.0387C32.1768 24.9834 32.3269 24.9554 32.4971 24.9554H50.6982C50.8677 24.9554 51.0221 24.9834 51.1565 25.0428C51.2949 25.0981 51.4254 25.1892 51.5442 25.3079C51.6709 25.434 51.762 25.5686 51.8213 25.7152C51.8806 25.8496 51.908 26.0001 51.908 26.1658V35.6148C51.908 35.7889 51.8806 35.9354 51.8253 36.0661C51.7697 36.1968 51.6786 36.3269 51.5485 36.4536L51.5524 36.4577C51.4217 36.5844 51.2873 36.6794 51.1449 36.7385C51.0144 36.7941 50.864 36.8253 50.6982 36.8253L38.0422 36.8721C37.9038 36.8721 37.7693 36.8447 37.6467 36.7893C37.5083 36.7299 37.3736 36.6311 37.2431 36.5004C37.1126 36.3697 37.0178 36.2353 36.9584 36.1008Z" fill="#372011"/>
</svg>
