<svg width="142" height="140" viewBox="0 0 142 140" fill="none" xmlns="http://www.w3.org/2000/svg">
<path d="M141.087 124.932C141.087 124.978 110.204 125.017 72.1192 125.017C34.034 125.017 3.14844 124.978 3.14844 124.932C3.14844 124.887 34.0242 124.847 72.1192 124.847C110.214 124.847 141.087 124.883 141.087 124.932Z" fill="#EBEBEB"/>
<path d="M141.087 110.579C141.087 110.627 110.204 110.667 72.1192 110.667C34.034 110.667 3.14844 110.627 3.14844 110.579C3.14844 110.53 34.0242 110.494 72.1192 110.494C110.214 110.494 141.087 110.536 141.087 110.579Z" fill="#EBEBEB"/>
<path d="M141.087 95.3053C141.087 95.3542 110.204 95.39 72.1192 95.39C34.034 95.39 3.14844 95.3542 3.14844 95.3053C3.14844 95.2563 34.021 95.2107 72.1192 95.2107C110.218 95.2107 141.087 95.2596 141.087 95.3053Z" fill="#EBEBEB"/>
<path d="M141.087 80.9548C141.087 81.0005 110.204 81.0396 72.1192 81.0396C34.034 81.0396 3.14844 81.0005 3.14844 80.9548C3.14844 80.9092 34.021 80.8635 72.1192 80.8635C110.218 80.8635 141.087 80.9059 141.087 80.9548Z" fill="#EBEBEB"/>
<path d="M141.087 65.6784C141.087 65.7273 110.204 65.7664 72.1192 65.7664C34.034 65.7664 3.14844 65.7273 3.14844 65.6784C3.14844 65.6295 34.0242 65.5936 72.1192 65.5936C110.214 65.5936 141.087 65.6328 141.087 65.6784Z" fill="#EBEBEB"/>
<path d="M141.087 51.3279C141.087 51.3736 110.204 51.4127 72.1192 51.4127C34.034 51.4127 3.14844 51.3736 3.14844 51.3279C3.14844 51.2823 34.0242 51.2432 72.1192 51.2432C110.214 51.2432 141.087 51.2823 141.087 51.3279Z" fill="#EBEBEB"/>
<path d="M141.087 36.0547C141.087 36.1004 110.204 36.1395 72.1192 36.1395C34.034 36.1395 3.14844 36.1004 3.14844 36.0547C3.14844 36.0091 34.0242 35.97 72.1192 35.97C110.214 35.97 141.087 36.0058 141.087 36.0547Z" fill="#EBEBEB"/>
<path d="M141.087 20.9966C141.087 21.0456 110.204 21.0814 72.1192 21.0814C34.034 21.0814 3.14844 21.0456 3.14844 20.9966C3.14844 20.9477 34.0242 20.9119 72.1192 20.9119C110.214 20.9119 141.087 20.951 141.087 20.9966Z" fill="#EBEBEB"/>
<path d="M124.382 132.262C123.082 131.689 121.662 131.445 120.245 131.551C118.829 131.656 117.46 132.109 116.26 132.869C115.941 130.64 115.128 128.51 113.881 126.634C112.634 124.759 110.984 123.186 109.051 122.03C107.119 120.874 104.952 120.164 102.71 119.952C100.468 119.74 98.2073 120.031 96.0921 120.804C95.717 118.253 94.7342 115.83 93.2266 113.738C91.7189 111.647 89.7305 109.948 87.429 108.786C85.1275 107.624 82.5804 107.032 80.0022 107.06C77.4241 107.088 74.8905 107.736 72.615 108.948C71.0991 107.752 69.3291 106.919 67.4411 106.513C65.5531 106.108 63.5972 106.14 61.7237 106.608C59.8502 107.077 58.109 107.968 56.6337 109.214C55.1585 110.46 53.9885 112.028 53.2137 113.797C51.1918 112.026 48.7262 110.839 46.0812 110.362C43.4361 109.886 40.7112 110.137 38.1984 111.091C35.6856 112.045 33.4795 113.664 31.8166 115.775C30.1536 117.887 29.0964 120.411 28.7582 123.077C26.8634 122.456 24.8536 122.266 22.8761 122.522C20.8986 122.779 19.0034 123.474 17.3294 124.557C14.0067 126.758 10.5438 133.498 10.2178 137.466L128.82 138.063C128.422 135.262 126.952 133.43 124.382 132.262Z" fill="#F5F5F5"/>
<path d="M45.0159 24.2933L57.7457 8.27661L70.3419 24.1987L45.0159 24.2933Z" fill="#EBEBEB"/>
<path d="M63.5613 21.6828L52.0249 21.7251L52.1959 68.3759L63.7322 68.3337L63.5613 21.6828Z" fill="#EBEBEB"/>
<path d="M70.342 13.171L77.4537 4.22681L84.487 13.1188L70.342 13.171Z" fill="#F5F5F5"/>
<path d="M80.7014 11.7141L74.2583 11.7377L74.3538 37.7874L80.7969 37.7638L80.7014 11.7141Z" fill="#F5F5F5"/>
<path d="M0.650879 134.783C22.1228 135.667 43.3266 129.757 61.2449 117.892C78.9897 106.075 89.2088 86.56 96.5617 66.549L111.44 71.6552C111.44 71.6552 102.007 116.862 76.2246 137.75H0.650879V134.783Z" fill="#E6A371"/>
<g opacity="0.6">
<path d="M0.651367 134.783C22.1233 135.667 43.3271 129.757 61.2454 117.892C78.9902 106.075 89.2093 86.56 96.5622 66.549L111.441 71.6552C111.441 71.6552 102.008 118.936 76.2251 137.75H0.651367V134.783Z" fill="white"/>
</g>
<path d="M94.8795 71.8477C94.9904 71.8868 94.9447 72.3205 94.7556 73.1128C94.661 73.5074 94.5306 73.9932 94.3676 74.5638L94.0937 75.4801C93.9893 75.8062 93.8654 76.1323 93.735 76.5105C93.4741 77.2344 93.1807 78.0398 92.8481 78.9169C92.5155 79.794 92.0883 80.7201 91.6547 81.7244C91.221 82.7287 90.6764 83.7787 90.1482 84.9003C89.62 86.022 88.9613 87.1665 88.2994 88.3795L87.794 89.2991C87.6081 89.6023 87.4255 89.9088 87.2364 90.2186L86.0854 92.1131L85.7886 92.5989L85.4625 93.0782L84.8104 94.0564C84.3702 94.7086 83.9398 95.3803 83.4637 96.0422C82.4855 97.3465 81.5366 98.7389 80.428 100.076C79.8835 100.751 79.3487 101.455 78.765 102.13C78.1814 102.805 77.5879 103.486 76.9847 104.178L76.5314 104.699L76.0554 105.205L75.1065 106.216L74.1283 107.246C73.8022 107.592 73.4533 107.898 73.1109 108.254C72.4197 108.922 71.7349 109.61 71.0176 110.279L68.8068 112.261C65.6865 114.96 62.3938 117.453 58.9496 119.725C52.2817 124.077 45.1239 127.627 37.6245 130.303L35.0616 131.186L32.5345 131.953L31.2954 132.324L30.0629 132.65L27.6565 133.267C26.8641 133.449 26.0783 133.593 25.312 133.772C24.5457 133.951 23.7925 134.098 23.0295 134.219L20.8416 134.581C20.4829 134.636 20.1307 134.705 19.7786 134.75L18.7384 134.874C17.3624 135.034 16.0581 135.2 14.8255 135.279C13.593 135.357 12.4159 135.471 11.317 135.468C10.2181 135.464 9.20079 135.517 8.2617 135.504C7.32261 135.49 6.46504 135.432 5.69551 135.393C5.31075 135.37 4.9488 135.357 4.60969 135.327L3.6543 135.217C3.06411 135.145 2.56848 135.073 2.16741 135.005C1.36527 134.871 0.9479 134.74 0.954421 134.623C0.960942 134.506 1.39136 134.408 2.1935 134.323C2.59782 134.281 3.09345 134.242 3.67712 134.206L4.61947 134.16L5.69225 134.069C6.44874 134.008 7.28674 133.946 8.20627 133.883C9.12253 133.801 10.117 133.681 11.1833 133.576C12.2496 133.472 13.3843 133.289 14.5875 133.13C15.7907 132.97 17.0656 132.709 18.3699 132.494L19.3775 132.315C19.7036 132.253 20.0557 132.171 20.3981 132.096L22.5111 131.64C23.2317 131.499 23.9523 131.294 24.6925 131.108L26.9522 130.528L29.264 129.846L30.4477 129.497L31.6378 129.099L34.0671 128.288L36.5322 127.365C43.7309 124.607 50.6169 121.095 57.0747 116.885C60.398 114.694 63.5883 112.307 66.6286 109.737L68.7905 107.853C69.4915 107.217 70.1632 106.548 70.8447 105.929C71.1708 105.603 71.5262 105.303 71.8458 104.973C72.1653 104.644 72.4979 104.321 72.8044 103.995L73.7566 103.017L74.2294 102.541L74.6793 102.048L76.4532 100.108C77.0368 99.4562 77.5716 98.8041 78.1194 98.1519C79.2346 96.89 80.2063 95.5759 81.1975 94.3434C81.6834 93.7206 82.1268 93.0782 82.5801 92.4652L83.2518 91.5522L83.5779 91.099L83.9039 90.6425L85.1136 88.8523L85.7006 87.9882L86.2419 87.1209C86.9527 85.9764 87.6635 84.9036 88.2537 83.8406C88.8439 82.7776 89.4667 81.8092 89.9558 80.8538C90.4449 79.8984 90.934 79.0278 91.3808 78.2191C91.8275 77.4105 92.1731 76.6409 92.522 75.966C92.6981 75.6399 92.8481 75.3138 93.0176 75.0106C93.1872 74.7073 93.3046 74.4269 93.4318 74.1628C93.6926 73.6378 93.9241 73.1846 94.1198 72.8585C94.5078 72.1607 94.7686 71.8085 94.8795 71.8477Z" fill="#E6A371"/>
<path d="M95.7011 78.8027C94.1751 80.526 93.0049 82.534 92.2578 84.7112C92.1534 85.0223 92.1497 85.3583 92.2472 85.6717C92.3446 85.985 92.5383 86.2597 92.8006 86.4567C93.063 86.6538 93.3808 86.7632 93.7088 86.7694C94.0369 86.7757 94.3586 86.6784 94.6283 86.4915L94.6609 86.4687C93.5971 89.076 92.705 91.75 91.9904 94.4738C91.889 94.8558 91.9077 95.2597 92.044 95.6307C92.1803 96.0016 92.4275 96.3216 92.7521 96.5471C93.0766 96.7726 93.4628 96.8927 93.858 96.8911C94.2532 96.8894 94.6383 96.7661 94.9609 96.5378C100.774 92.4172 104.895 86.3278 106.559 79.3995L95.7011 78.8027Z" fill="#E6A371"/>
<g opacity="0.3">
<path d="M96.2191 81.6005C95.9383 81.8796 95.7166 82.2122 95.5669 82.5787C95.4954 82.762 95.4785 82.9622 95.5185 83.1549C95.5584 83.3477 95.6534 83.5247 95.7919 83.6645C96.2386 84.0427 97.0049 83.8145 97.4223 84.2156C97.8396 84.6166 97.6049 85.3927 97.3081 85.9405L96.3691 87.6784C96.1408 88.1023 95.9158 88.6567 96.2125 89.0349C96.5093 89.4132 97.2103 89.3088 97.6897 89.0675C98.7948 88.4929 99.744 87.6586 100.456 86.6363C101.167 85.614 101.62 84.4342 101.775 83.1982L96.2191 81.6005Z" fill="black"/>
</g>
<path d="M122.077 58.283L122.165 58.4101C124.664 62.1473 126.293 66.3978 126.931 70.8483C127.568 75.2987 127.199 79.8355 125.849 84.1242L124.138 89.5729L115.676 78.6592L122.077 58.283Z" fill="#E6A371"/>
<path d="M122.077 58.283L122.048 58.3841L121.956 58.6809C121.875 58.9417 121.761 59.333 121.611 59.8091C121.304 60.7873 120.861 62.2285 120.306 64.0317C119.185 67.6185 117.606 72.715 115.741 78.6789V78.6071L123.456 88.5523L124.203 89.5305L124.056 89.5599C124.4 88.473 124.737 87.4024 125.067 86.3481C125.393 85.2916 125.742 84.2547 126.019 83.2276C126.575 81.2557 126.929 79.2323 127.076 77.1887C127.21 75.3412 127.169 73.4851 126.952 71.6455C126.873 70.7781 126.704 69.9564 126.57 69.1641C126.436 68.3717 126.244 67.6185 126.022 66.9174C125.392 64.673 124.5 62.5104 123.365 60.4743C122.987 59.7438 122.625 59.2189 122.406 58.8439L122.064 58.2798C122.064 58.2798 122.096 58.3189 122.165 58.4135L122.432 58.8243C122.661 59.1928 123.036 59.7145 123.41 60.4547C124.565 62.4829 125.47 64.643 126.107 66.8881C126.335 67.5924 126.482 68.3554 126.671 69.1412C126.808 69.9369 126.981 70.7716 127.062 71.6324C127.288 73.4779 127.335 75.3408 127.203 77.1952C127.06 79.2506 126.708 81.286 126.153 83.27C125.876 84.3069 125.523 85.3373 125.201 86.3937C124.878 87.4502 124.548 88.5197 124.193 89.6055L124.144 89.7621L124.043 89.6316C123.808 89.3284 123.551 88.9991 123.296 88.6534L115.588 78.7017L115.565 78.6691V78.63L120.228 63.9404C120.799 62.1535 121.249 60.7351 121.562 59.7569C121.715 59.2776 121.836 58.9091 121.917 58.6515L122.061 58.3646C122.064 58.337 122.069 58.3097 122.077 58.283Z" fill="black"/>
<path d="M91.1751 48.5824L91.0283 48.6378C86.8986 50.2524 83.184 52.7735 80.1585 56.0152C77.133 59.2568 74.8739 63.1363 73.5476 67.3674L71.8618 72.7411L84.8623 68.6782L91.1751 48.5824Z" fill="#E6A371"/>
<path d="M91.1751 48.5823C91.1751 48.5823 91.1751 48.6117 91.149 48.6736C91.1229 48.7356 91.1001 48.8367 91.0642 48.9541C90.986 49.2084 90.8718 49.5768 90.7382 50.0497L89.4534 54.181L84.9439 68.6945V68.7369H84.9047L73.0553 72.4476L71.9042 72.8062L71.751 72.8552L71.7999 72.6986L72.7781 69.5325C73.1042 68.4923 73.4107 67.4619 73.7563 66.4674C74.4265 64.5482 75.2896 62.7018 76.3323 60.9568C77.2738 59.381 78.3658 57.9002 79.593 56.5352C80.1506 55.8831 80.7538 55.3059 81.3147 54.7386C81.8755 54.1712 82.4592 53.6756 83.0396 53.2321C84.8227 51.7787 86.7748 50.546 88.8535 49.5605C89.5773 49.1888 90.1577 48.9801 90.5653 48.8106L91.0153 48.628L91.1751 48.5758L90.5784 48.8399C90.1904 49.0193 89.6002 49.2377 88.8828 49.616C86.8222 50.6267 84.8863 51.8742 83.1146 53.3332C82.5407 53.7799 81.9929 54.3114 81.4027 54.8429C80.8125 55.3744 80.2484 55.9809 79.6973 56.6363C78.4832 57.9999 77.4032 59.4773 76.4725 61.0481C75.4418 62.7809 74.5875 64.6129 73.9226 66.5163C73.5672 67.4945 73.2705 68.5412 72.9444 69.5781C72.6183 70.615 72.2923 71.678 71.9662 72.7475L71.8618 72.6399L73.0129 72.2813L84.8656 68.5836L84.8134 68.6358C86.6753 62.7665 88.2665 57.7613 89.3784 54.2169C89.9425 52.443 90.3925 51.0344 90.7023 50.0627C90.8555 49.5834 90.9762 49.2116 91.0577 48.9541C91.0968 48.8301 91.1294 48.7356 91.1523 48.6638C91.1579 48.6361 91.1655 48.6089 91.1751 48.5823Z" fill="black"/>
<path d="M123.365 0.0790879C120.92 -0.687182 114.437 4.22347 106.941 13.4741C99.5618 22.5846 96.5065 31.6005 96.5065 31.6005L82.2278 77.0648L94.2077 80.8276L101.15 83.0058L113.13 86.7687L126.088 45.514C127.359 41.4838 128.243 37.3412 128.726 33.1428C129.222 28.9342 129.38 24.6925 129.198 20.4586C128.605 8.61566 125.827 0.848618 123.378 0.0790879" fill="#F5F5F5"/>
<path d="M123.365 0.0791346L123.472 0.118263L123.606 0.170434L123.779 0.268257C124.152 0.512246 124.478 0.821536 124.741 1.18126C125.461 2.11057 126.234 3.68549 126.909 5.81801C127.703 8.42696 128.276 11.0983 128.621 13.8035C128.84 15.3882 129.016 17.0903 129.14 18.9065C129.263 20.7228 129.338 22.6466 129.316 24.6715C129.293 26.6964 129.185 28.8191 128.99 31.0299C128.794 33.3331 128.483 35.625 128.057 37.897C127.593 40.339 126.994 42.7534 126.264 45.1293C125.496 47.577 124.706 50.0997 123.893 52.6974C120.632 63.073 117.029 74.5736 113.195 86.7948L113.172 86.8763L113.09 86.8502L97.641 81.9983L82.1885 77.1431L82.1069 77.1202L82.133 77.0387C85.9741 64.8175 89.5903 53.317 92.8543 42.9413C93.6694 40.3458 94.4618 37.8242 95.2313 35.3765C95.6161 34.1548 95.9954 32.9505 96.3693 31.7636C96.7704 30.5832 97.2497 29.4582 97.7388 28.3626C99.5681 24.319 101.776 20.4574 104.332 16.8295C106.46 13.8848 108.775 11.0792 111.261 8.42985C113.109 6.42042 115.106 4.55325 117.235 2.84423C118.992 1.46168 120.495 0.581286 121.627 0.212824C122.045 0.0629543 122.487 -0.00888578 122.931 0.000876716L123.127 0.0171813L123.267 0.0497881L123.375 0.0791346L123.264 0.0595698L123.127 0.0302233L122.931 0.0139199C122.486 0.0118246 122.045 0.0891194 121.627 0.242171C120.518 0.617154 119.018 1.50407 117.261 2.89314C115.151 4.6054 113.171 6.47127 111.336 8.4755C108.866 11.1335 106.567 13.9456 104.453 16.8947C101.907 20.5195 99.7092 24.3767 97.8888 28.4148C97.403 29.5104 96.9106 30.6354 96.5291 31.806L95.3944 35.4188C94.627 37.8666 93.8368 40.3893 93.0238 42.987C89.7631 53.3626 86.1763 64.8664 82.3221 77.0909L82.2667 76.9833L97.7062 81.8418L113.156 86.697L113.048 86.7524L123.766 52.6583L126.143 45.0967C126.871 42.7239 127.468 40.3128 127.93 37.8742C128.383 35.5199 128.67 33.2276 128.872 31.0267C129.074 28.8257 129.179 26.6997 129.198 24.6748C129.218 22.6499 129.159 20.7326 129.035 18.9196C128.911 17.1066 128.742 15.4045 128.527 13.8231C128.19 11.121 127.627 8.45202 126.844 5.84409C126.192 3.71158 125.419 2.13665 124.708 1.20734C124.45 0.847418 124.13 0.536104 123.763 0.287821L123.593 0.186739L123.463 0.134566L123.365 0.0791346Z" fill="black"/>
<path d="M120.26 43.9641C127.089 40.287 129.644 31.7699 125.967 24.9407C122.29 18.1115 113.773 15.5563 106.944 19.2334C100.115 22.9106 97.5593 31.4276 101.236 38.2568C104.914 45.086 113.431 47.6413 120.26 43.9641Z" fill="white"/>
<path d="M124.607 24.9389C124.527 24.9469 124.447 24.9387 124.37 24.9148C124.294 24.8908 124.223 24.8516 124.162 24.7995C124.101 24.7474 124.051 24.6834 124.016 24.6116C123.98 24.5397 123.959 24.4614 123.955 24.3813C123.948 24.0605 124.056 23.7478 124.261 23.5009C124.464 23.2552 124.636 22.9859 124.773 22.6988C124.871 22.4248 124.878 22.1268 124.793 21.8487C124.709 21.5705 124.537 21.3267 124.304 21.1532C124.46 21.0847 124.601 20.9854 124.718 20.8611C124.835 20.7369 124.926 20.5903 124.985 20.4302C125.044 20.2701 125.07 20.0996 125.062 19.9292C125.054 19.7587 125.011 19.5916 124.936 19.438C124.754 19.1724 124.546 18.9246 124.317 18.6978C124.201 18.5547 124.1 18.4007 124.014 18.2381C124.226 18.3663 124.462 18.4485 124.708 18.4794C124.909 18.4972 125.11 18.4641 125.294 18.3832C125.478 18.3022 125.639 18.176 125.761 18.0164C125.88 17.8537 125.95 17.6612 125.964 17.4606C125.979 17.2601 125.937 17.0595 125.843 16.8816C125.746 16.7056 125.596 16.5638 125.415 16.4757C125.234 16.3876 125.031 16.3574 124.832 16.3893C124.453 16.5007 124.119 16.7289 123.877 17.0414L123.629 17.312C123.355 16.5425 123.114 15.7632 122.458 15.3165C121.865 14.9121 121.092 14.9121 120.424 14.6643C119.938 14.4719 119.517 14.1426 119.038 13.9307C118.558 13.7187 117.958 13.6502 117.541 13.9633C117.293 14.1459 117.143 14.4361 116.889 14.6154C116.377 14.9904 115.585 14.8143 115.122 15.248C114.747 15.6034 114.76 16.2034 114.505 16.6501C114.251 17.0968 113.677 17.3838 113.201 17.674C112.725 17.9642 112.242 18.4207 112.285 18.9783C112.321 19.4674 112.758 19.8652 112.787 20.3576C112.754 20.7153 112.655 21.0637 112.494 21.3847C112.379 21.7108 112.389 22.177 112.699 22.3629L116.188 24.5606C117.329 25.5062 118.51 26.4714 119.925 26.9149C121.34 27.3583 123.065 27.1529 124.03 26.028C123.826 25.9535 123.658 25.8043 123.56 25.6106C123.774 25.5848 123.979 25.511 124.161 25.3946C124.342 25.2783 124.495 25.1225 124.607 24.9389Z" fill="black"/>
<path d="M121.115 25.1508C121.755 24.301 122.32 23.3977 122.804 22.4509C123.289 21.4986 123.53 20.441 123.505 19.3728C123.505 19.213 123.345 18.1011 123.179 18.0685C123.068 18.0457 123.065 19.0467 122.98 19.1119C122.189 19.8872 121.651 20.8843 121.438 21.9716C121.21 23.0158 121.101 24.0822 121.112 25.1508" fill="black"/>
<path d="M115.008 32.8266C117.835 33.8048 119.553 30.1136 119.553 30.1136L122.429 21.3097C123.309 18.7924 122.579 16.1806 120.039 15.3686L119.801 15.3067C118.64 15.0088 117.409 15.1592 116.354 15.7278C115.299 16.2964 114.497 17.2416 114.108 18.375C113.354 20.563 112.552 22.9857 112.259 24.1889C111.656 26.6768 114.036 27.6974 114.036 27.6974C114.036 27.6974 113.873 28.2648 113.654 28.9854C113.165 30.6158 113.553 32.5005 114.199 32.644L115.008 32.8266Z" fill="#A97663"/>
<path d="M114.036 27.7138C115.182 28.0036 116.387 27.9595 117.509 27.5867C117.509 27.5867 116.26 29.1877 113.844 28.3301L114.036 27.7138Z" fill="#896357"/>
<path d="M114.561 20.5401C114.536 20.6322 114.548 20.7305 114.595 20.8135C114.642 20.8966 114.72 20.9577 114.812 20.9836C114.856 20.9988 114.903 21.0051 114.949 21.0019C114.996 20.9988 115.041 20.9864 115.083 20.9654C115.124 20.9445 115.161 20.9153 115.192 20.8798C115.222 20.8443 115.245 20.8031 115.259 20.7586C115.284 20.6665 115.271 20.5683 115.224 20.4852C115.177 20.4021 115.099 20.341 115.008 20.3151C114.963 20.2999 114.917 20.2937 114.87 20.2968C114.824 20.2999 114.778 20.3123 114.737 20.3333C114.695 20.3543 114.658 20.3834 114.628 20.4189C114.598 20.4544 114.575 20.4957 114.561 20.5401Z" fill="black"/>
<path d="M114.372 19.5424C114.405 19.601 114.724 19.4706 115.106 19.5684C115.487 19.6663 115.715 19.9304 115.758 19.8945C115.8 19.8586 115.758 19.7836 115.66 19.663C115.525 19.5033 115.344 19.3894 115.141 19.3369C114.944 19.2863 114.735 19.2989 114.545 19.3728C114.418 19.4445 114.356 19.5163 114.372 19.5424Z" fill="black"/>
<path d="M117.969 21.5673C117.944 21.6594 117.957 21.7573 118.004 21.8401C118.051 21.9229 118.128 21.9842 118.22 22.0108C118.264 22.026 118.31 22.0323 118.357 22.0291C118.403 22.026 118.449 22.0136 118.49 21.9926C118.532 21.9717 118.569 21.9425 118.599 21.907C118.63 21.8715 118.652 21.8303 118.666 21.7858C118.692 21.6942 118.68 21.5963 118.633 21.5133C118.587 21.4303 118.51 21.3689 118.419 21.3423C118.374 21.3271 118.327 21.3208 118.281 21.3239C118.234 21.327 118.188 21.3393 118.146 21.3603C118.104 21.3813 118.067 21.4104 118.037 21.4459C118.006 21.4815 117.983 21.5227 117.969 21.5673Z" fill="black"/>
<path d="M118.066 20.6543C118.099 20.7097 118.418 20.5825 118.796 20.6803C119.175 20.7782 119.409 21.039 119.449 21.0064C119.488 20.9738 119.449 20.8988 119.351 20.7782C119.218 20.6174 119.038 20.5031 118.836 20.4521C118.638 20.398 118.428 20.4106 118.239 20.488C118.112 20.5401 118.05 20.6282 118.066 20.6543Z" fill="black"/>
<path d="M115.95 23.2303C115.764 23.1178 115.566 23.027 115.36 22.9596C115.265 22.927 115.177 22.8814 115.177 22.8129C115.195 22.7096 115.244 22.6141 115.317 22.539L115.794 21.8869C116.222 21.3273 116.605 20.7341 116.938 20.113C116.466 20.6367 116.036 21.1972 115.653 21.789L115.187 22.464C115.096 22.5658 115.044 22.6962 115.04 22.8325C115.045 22.871 115.059 22.9079 115.08 22.9402C115.102 22.9724 115.13 22.9992 115.164 23.0183C115.214 23.0453 115.266 23.0671 115.321 23.0836C115.523 23.1589 115.735 23.2082 115.95 23.2303Z" fill="black"/>
<path d="M117.003 23.7813C116.941 23.7617 116.837 24.1759 116.406 24.378C115.976 24.5802 115.549 24.4237 115.529 24.4791C115.51 24.5345 115.607 24.5867 115.793 24.6389C116.034 24.7036 116.29 24.6817 116.517 24.5769C116.736 24.4758 116.907 24.2933 116.993 24.0683C117.052 23.902 117.032 23.8009 117.003 23.7813Z" fill="black"/>
<path d="M118.474 19.112C118.474 19.2261 118.878 19.275 119.312 19.4381C119.746 19.6011 120.075 19.8228 120.157 19.7446C120.238 19.6663 120.157 19.5946 120.036 19.4544C119.876 19.2798 119.675 19.1466 119.452 19.0663C119.231 18.9793 118.991 18.9468 118.755 18.9718C118.582 18.9979 118.474 19.0598 118.474 19.112Z" fill="black"/>
<path d="M114.855 18.3164C114.9 18.4207 115.181 18.3979 115.507 18.4761C115.833 18.5544 116.074 18.6816 116.159 18.6066C116.244 18.5316 116.175 18.4729 116.081 18.362C115.95 18.2213 115.779 18.1245 115.591 18.0848C115.406 18.0396 115.211 18.0545 115.034 18.1272C114.887 18.1859 114.835 18.2577 114.855 18.3164Z" fill="black"/>
<path d="M121.757 23.0966C121.803 23.0966 123.59 23.0281 123.1 24.7269C122.611 26.4258 121.027 25.5715 121.036 25.5226C121.046 25.4736 121.757 23.0966 121.757 23.0966Z" fill="#A97663"/>
<path d="M121.734 25.0171C121.734 25.0171 121.757 25.0465 121.8 25.0824C121.862 25.1308 121.939 25.1552 122.018 25.1508C122.214 25.1508 122.445 24.8998 122.543 24.5998C122.589 24.4568 122.603 24.3052 122.582 24.1563C122.582 24.0991 122.568 24.0428 122.541 23.9923C122.515 23.9417 122.476 23.8984 122.429 23.8661C122.397 23.8481 122.36 23.8412 122.324 23.8465C122.288 23.8518 122.255 23.869 122.23 23.8955C122.194 23.9378 122.197 23.9737 122.188 23.9737C122.178 23.9737 122.158 23.9346 122.188 23.8694C122.211 23.8316 122.245 23.802 122.285 23.7846C122.342 23.7617 122.405 23.7617 122.462 23.7846C122.527 23.8179 122.582 23.8676 122.622 23.9288C122.662 23.99 122.685 24.0605 122.69 24.1335C122.719 24.3 122.708 24.4711 122.657 24.6324C122.546 24.9585 122.282 25.2356 122.005 25.2356C121.956 25.2354 121.908 25.2241 121.864 25.2027C121.82 25.1812 121.781 25.1501 121.751 25.1117C121.734 25.0595 121.734 25.0171 121.734 25.0171Z" fill="#896357"/>
<path d="M116.025 15.9262C115.8 15.6947 116.876 15.0589 117.636 14.948C118.78 14.7947 120.404 14.9741 121.255 15.5154C122.276 16.1675 123.039 17.0055 123.296 18.1924C123.525 19.3909 123.431 20.6285 123.026 21.7792C122.931 22.139 122.743 22.4675 122.481 22.7313C122.136 23.0313 121.617 23.1291 121.483 23.6476C121.44 23.8379 121.322 24.0031 121.157 24.1074C120.75 24.3421 120.469 23.9215 120.388 23.5628C120.215 22.7966 120.411 22.0009 120.603 21.2379C120.712 20.688 120.909 20.1594 121.187 19.6728C121.353 19.4184 121.565 19.1935 121.718 18.9326C121.802 18.805 121.857 18.6608 121.879 18.51C121.902 18.3591 121.891 18.2052 121.849 18.0587C121.823 17.9958 121.792 17.9357 121.754 17.8794C121.582 17.606 121.34 17.3831 121.054 17.2336C120.767 17.0841 120.446 17.0133 120.124 17.0283C119.08 17.0805 117.319 17.0936 116.993 16.6468C116.752 16.3613 116.575 16.0279 116.472 15.6686L116.025 15.9262Z" fill="black"/>
<path d="M121.236 15.2708C120.825 14.9708 120.36 14.7549 119.865 14.6357C119.371 14.5165 118.858 14.4963 118.356 14.5763C118.089 14.6137 117.831 14.705 117.6 14.8445C117.369 14.9841 117.168 15.169 117.01 15.3882C116.86 15.6125 116.793 15.8826 116.822 16.151C116.852 16.4193 116.975 16.6688 117.169 16.8555L117.196 16.8849C117.848 17.3414 118.334 17.3838 119.119 17.3512C119.772 17.3218 120.424 17.1131 121.076 17.0903C121.785 17.0652 122.486 17.2525 123.088 17.6283C122.687 16.6939 122.049 15.8809 121.236 15.2708Z" fill="black"/>
<path d="M123.893 17.9316C123.874 17.9316 123.789 17.7359 123.567 17.462C123.443 17.3034 123.302 17.1591 123.147 17.0316C122.957 16.8745 122.734 16.763 122.495 16.7055C122.058 16.6221 121.606 16.6616 121.19 16.8197C120.864 16.9436 120.695 17.0773 120.682 17.061C120.668 17.0447 120.717 17.0153 120.796 16.9566C120.907 16.8718 121.029 16.8007 121.158 16.7447C121.588 16.553 122.068 16.4995 122.53 16.5914C122.785 16.6539 123.021 16.7769 123.218 16.9501C123.379 17.084 123.519 17.2399 123.636 17.4131C123.757 17.5657 123.845 17.7424 123.893 17.9316Z" fill="#455A64"/>
<path d="M123.873 18.5642C123.806 18.7242 123.712 18.8719 123.596 19.0011C123.33 19.3264 123.011 19.6033 122.651 19.8196C122.29 20.0349 121.895 20.187 121.483 20.2696C121.315 20.3129 121.14 20.325 120.968 20.3054C121.54 20.1991 122.09 20.0009 122.598 19.7185C123.081 19.4032 123.512 19.0137 123.873 18.5642Z" fill="#455A64"/>
<path d="M124.467 19.0467C124.46 19.1132 124.442 19.1782 124.415 19.2391C124.35 19.4092 124.271 19.5738 124.18 19.7315C123.873 20.2513 123.445 20.6889 122.931 21.0064C122.417 21.3219 121.832 21.5045 121.229 21.5379C121.048 21.5542 120.866 21.5542 120.685 21.5379C120.618 21.5347 120.552 21.5215 120.489 21.4988C120.489 21.476 120.773 21.4988 121.223 21.4695C121.807 21.4132 122.37 21.2245 122.87 20.9177C123.37 20.6109 123.794 20.194 124.108 19.6989C124.343 19.3076 124.448 19.0402 124.467 19.0467Z" fill="#455A64"/>
<path d="M119.37 14.5177C119.206 14.5365 119.04 14.5463 118.875 14.547C118.082 14.6051 117.326 14.9108 116.716 15.4209C116.485 15.6133 116.358 15.747 116.344 15.747C116.429 15.6 116.539 15.4696 116.671 15.3622C117.27 14.8008 118.057 14.4823 118.878 14.4688C119.044 14.4573 119.21 14.4738 119.37 14.5177Z" fill="#455A64"/>
<path d="M125.761 16.7577C125.599 17.0841 125.351 17.36 125.044 17.5555C124.736 17.7509 124.381 17.8584 124.017 17.8663C124.356 17.7639 124.684 17.6262 124.995 17.4555C125.274 17.2497 125.53 17.0159 125.761 16.7577Z" fill="#455A64"/>
<path d="M125.716 33.9091C125.015 32.419 119.847 30.0386 119.847 30.0386C119.359 30.8775 118.684 31.5919 117.874 32.1255C116.57 32.9374 115.027 32.6472 113.863 31.7701C112.764 30.9386 113.143 29.3148 113.143 29.3148C113.143 29.3148 107.459 29.0278 105.822 29.9213C104.186 30.8147 103.273 33.4331 103.273 33.4331L101.228 38.0698L103.377 41.2131L104.319 42.1261C104.319 42.1261 106.807 44.6597 111.398 45.4521C115.683 46.1923 119.4 44.3695 119.4 44.3695C121.683 43.6033 123.675 41.7609 125.507 39.2241C125.514 39.2339 126.531 35.6569 125.716 33.9091Z" fill="#455A64"/>
<path d="M103.295 30.7299C103.295 30.7299 104.632 29.0539 104.737 28.3822L105.265 24.7954C105.265 24.7954 105.069 24.391 104.56 24.8508C104.052 25.3106 104.172 26.1942 104.172 26.1942L103.745 26.9507L103.501 26.217L103.69 23.7715C103.69 23.7715 103.866 22.014 103.556 22.1118C103.246 22.2096 103.034 22.6759 102.956 23.4356C102.878 24.1954 102.787 25.154 102.787 25.154C102.787 25.154 102.738 25.4508 102.607 24.8932C102.477 24.3356 102.761 22.239 102.734 21.939C102.708 21.639 102.875 20.9053 102.454 20.8271C102.033 20.7488 102.007 21.7335 102.007 21.7335L101.548 24.8247C101.548 24.8247 101.505 23.5204 101.492 23.2922C101.479 23.0639 101.551 22.3792 101.515 21.9879C101.479 21.5966 101.323 21.3357 101.133 21.3162C101.045 21.2961 100.953 21.3106 100.875 21.3567C100.798 21.4028 100.741 21.477 100.716 21.564L100.595 24.2867C100.595 24.2867 100.595 25.5453 100.556 25.6105C100.517 25.6758 100.23 24.9975 100.23 24.9975L100.139 24.078C100.139 24.078 100.204 22.8291 99.8976 22.7052C99.5911 22.5813 99.5129 22.8161 99.5129 22.8161L99.415 25.0986L99.6694 27.7952L100.282 30.5082L101.28 30.7038L103.295 30.7299Z" fill="#A97663"/>
<path d="M100.866 28.692C101.025 28.5355 101.174 28.3677 101.309 28.1898C101.632 27.7768 102.097 27.499 102.613 27.4105C102.865 27.3767 103.12 27.4296 103.337 27.5605L103.409 27.6061L103.455 27.5246C103.65 27.1659 103.872 26.8497 103.996 26.6214C104.12 26.3932 104.192 26.2497 104.172 26.2432C104.074 26.3414 103.987 26.4509 103.914 26.5692C103.697 26.8566 103.495 27.1548 103.308 27.4627L103.425 27.4268C103.179 27.2703 102.886 27.2046 102.597 27.2409C102.285 27.2758 101.989 27.3953 101.74 27.5866C101.542 27.7379 101.366 27.9144 101.215 28.1116C101.065 28.2828 100.947 28.4793 100.866 28.692Z" fill="#896357"/>
<path d="M113.041 29.318L113.863 28.03L115.999 30.8343L115.764 32.0962L116.273 30.8832L120.134 28.6333L119.97 30.2441L118.223 32.507L115.914 33.4657L114.212 32.8298C114.212 32.8298 112.885 32.3472 112.908 32.2396C112.931 32.132 113.041 29.318 113.041 29.318Z" fill="#455A64"/>
<path d="M114.913 32.1614L115.109 33.2342L115.898 33.4396L116.612 32.6472L116.433 31.7114L115.497 31.4506L114.913 32.1614Z" fill="#E6A371"/>
<path d="M115.999 30.8343C115.911 31.0115 115.802 31.1769 115.673 31.3267C115.448 31.6234 115.125 32.0375 114.747 32.5071L114.665 32.6082L114.61 32.4908C114.512 32.2821 114.408 32.0604 114.284 31.8386C113.958 31.1343 113.661 30.492 113.459 30.0224C113.335 29.775 113.236 29.5162 113.162 29.2496C113.328 29.4717 113.469 29.7111 113.583 29.9637C113.814 30.4202 114.124 31.0561 114.453 31.7604L114.763 32.4125L114.623 32.3962C115.011 31.9332 115.35 31.5321 115.601 31.255C115.716 31.0994 115.85 30.9582 115.999 30.8343Z" fill="black"/>
<path d="M120.059 29.9572C119.851 30.1952 119.622 30.4135 119.374 30.6093C118.937 31.0038 118.324 31.5419 117.642 32.1255L116.703 32.9309L116.599 33.019L116.576 32.8853C116.472 32.2984 116.387 31.7995 116.332 31.444C116.292 31.2587 116.272 31.0695 116.273 30.8799C116.347 31.0552 116.399 31.2393 116.426 31.4277C116.508 31.7766 116.612 32.2723 116.729 32.8559L116.602 32.8103L117.532 32.0049C118.213 31.4212 118.836 30.8995 119.296 30.5278C119.533 30.3159 119.788 30.1249 120.059 29.9572Z" fill="black"/>
<path d="M128.35 39.86L128.768 37.5612C128.277 36.784 127.688 36.0728 127.017 35.445C126.317 34.7194 125.387 34.2585 124.385 34.1407C123.081 34.0363 121.852 34.7211 120.776 35.4678C119.7 36.2145 118.643 37.0656 117.375 37.3786C116.894 37.5284 116.376 37.5007 115.914 37.3003C115.239 36.9547 114.968 36.0906 115.083 35.3439C115.251 34.6013 115.572 33.9017 116.025 33.2896L115.171 33.0255C114.645 33.7531 114.189 34.5282 113.808 35.3406C113.499 36.0609 113.433 36.8619 113.618 37.6231C113.804 38.1778 114.135 38.6724 114.578 39.055C115.02 39.4377 115.557 39.6943 116.133 39.798C117.293 39.9913 118.485 39.7758 119.504 39.1883C120.433 38.6927 121.275 37.9786 122.302 37.7307C123.01 37.5826 123.747 37.6522 124.415 37.9303C125.083 38.2085 125.651 38.6823 126.045 39.2894L128.35 39.86Z" fill="#E6A371"/>
<path d="M104.088 42.0609C104.042 42.0609 104.414 40.0784 104.896 37.6524C105.379 35.2264 105.829 33.2667 105.875 33.2765C105.92 33.2863 105.549 35.259 105.063 37.685C104.577 40.111 104.127 42.0837 104.088 42.0609Z" fill="black"/>
<path d="M99.6044 30.4332L104.003 30.7593L103.801 40.9034L103.745 41.6012C103.745 41.6012 100.123 37.6329 99.8326 34.4276C99.7707 33.7461 99.6239 33.2048 99.5881 32.7255C99.4739 30.9386 99.6044 30.4332 99.6044 30.4332Z" fill="#455A64"/>
<path d="M103.732 40.7566C103.715 40.6256 103.715 40.493 103.732 40.3621C103.732 40.0751 103.748 39.7099 103.758 39.2926C103.781 38.3893 103.788 37.1372 103.801 35.7579C103.814 34.3786 103.836 33.1233 103.885 32.2168C103.908 31.7668 103.931 31.3983 103.957 31.1473C103.959 31.015 103.978 30.8836 104.013 30.756C104.025 30.8872 104.025 31.0193 104.013 31.1505C104.013 31.4375 104.013 31.8027 104.013 32.2233C104.013 33.1657 103.99 34.3949 103.977 35.7579C103.964 37.1209 103.938 38.3926 103.885 39.2958C103.859 39.7491 103.833 40.1143 103.804 40.3686C103.793 40.5 103.769 40.63 103.732 40.7566Z" fill="black"/>
<path d="M99.7965 29.0181C99.8017 29.0516 99.8017 29.0857 99.7965 29.1191C99.7965 29.1941 99.7769 29.292 99.7639 29.4126C99.7378 29.6702 99.6791 30.0648 99.6367 30.5408C99.4877 32.8924 99.9212 35.2444 100.899 37.3883C101.869 39.5015 103.349 41.3403 105.206 42.7392C106.254 43.5179 107.404 44.1488 108.623 44.6141C109.839 45.0877 111.118 45.382 112.419 45.488C113.629 45.6014 114.849 45.5487 116.045 45.3315C117.129 45.1445 118.187 44.8259 119.194 44.3826C119.652 44.1881 120.099 43.9704 120.535 43.7304C120.949 43.4924 121.337 43.2381 121.702 42.9968C122.067 42.7555 122.397 42.4914 122.68 42.2273C122.964 41.9631 123.264 41.7251 123.505 41.474L124.18 40.7664L124.695 40.1306L124.914 39.86L125.09 39.6089L125.361 39.2143L125.533 38.9731C125.551 38.944 125.572 38.9167 125.595 38.8915C125.595 38.8915 125.595 38.9241 125.546 38.9828L125.39 39.2307L125.129 39.6382L124.963 39.8958C124.894 39.9806 124.822 40.0752 124.747 40.173L124.239 40.8251L123.587 41.5425C123.345 41.8001 123.052 42.0381 122.762 42.312C122.472 42.5859 122.11 42.8207 121.784 43.0979C121.457 43.375 121.03 43.6033 120.613 43.8478C120.176 44.0981 119.725 44.3234 119.263 44.5228C115.875 46.0192 112.032 46.1141 108.574 44.7869C107.335 44.3132 106.168 43.6702 105.105 42.8761C103.228 41.4591 101.737 39.5934 100.768 37.4503C99.7923 35.2815 99.3774 32.9021 99.5617 30.531C99.6139 30.0419 99.6856 29.6637 99.7215 29.4061L99.7671 29.1126C99.7736 29.0802 99.7835 29.0485 99.7965 29.0181Z" fill="black"/>
<path d="M127.157 35.2623C127.17 35.0938 127.198 34.9267 127.242 34.7634C127.314 34.4374 127.392 33.9776 127.464 33.4037C127.643 31.8987 127.586 30.3749 127.294 28.8876C127.128 28.0715 126.897 27.2701 126.603 26.491C126.353 25.8577 126.062 25.2412 125.732 24.6454C125.599 24.3878 125.455 24.1661 125.335 23.9704C125.214 23.7748 125.106 23.6052 125.008 23.4716C124.908 23.335 124.817 23.1911 124.738 23.0411C124.858 23.1615 124.967 23.2925 125.064 23.4324C125.188 23.5881 125.303 23.7503 125.41 23.9183C125.54 24.1107 125.69 24.3291 125.833 24.5704C126.182 25.1623 126.486 25.7792 126.743 26.416C127.051 27.2015 127.291 28.0121 127.46 28.8387C127.756 30.3429 127.797 31.886 127.581 33.4037C127.517 33.8612 127.424 34.3142 127.304 34.7602C127.27 34.9316 127.221 35.0996 127.157 35.2623Z" fill="black"/>
<path d="M113.332 17.5468C113.177 17.5817 113.018 17.6003 112.859 17.6022C112.706 17.6022 112.533 17.6283 112.305 17.6577C112.076 17.687 111.842 17.7066 111.574 17.7588C110.943 17.8601 110.319 18.0017 109.706 18.1827C108.957 18.41 108.227 18.6934 107.521 19.0304C106.82 19.3763 106.146 19.7729 105.503 20.2173C104.981 20.5864 104.483 20.9883 104.013 21.4206C103.804 21.5999 103.634 21.7792 103.478 21.9292C103.321 22.0792 103.194 22.2194 103.093 22.3303C102.994 22.4485 102.885 22.5576 102.767 22.6564C102.852 22.5203 102.949 22.3925 103.057 22.2749C103.152 22.1542 103.273 22.0107 103.422 21.851C103.572 21.6912 103.749 21.5053 103.941 21.3195C104.406 20.8718 104.902 20.4567 105.425 20.0771C106.708 19.1515 108.142 18.4554 109.664 18.0196C110.285 17.844 110.918 17.7132 111.558 17.6283C111.832 17.5827 112.08 17.5729 112.298 17.5501C112.517 17.5272 112.703 17.524 112.859 17.524C113.017 17.5192 113.175 17.5268 113.332 17.5468Z" fill="black"/>
<path d="M111.662 45.5989C111.617 45.5989 112.093 43.9457 112.722 41.9371C113.351 39.9285 113.899 38.3111 113.945 38.3242C113.99 38.3372 113.514 39.9774 112.885 41.986C112.256 43.9946 111.705 45.6119 111.662 45.5989Z" fill="black"/>
<path d="M125.83 14.4231C125.83 14.4231 125.83 14.4557 125.83 14.5177C125.807 14.609 125.767 14.6952 125.713 14.772C125.613 14.9176 125.478 15.035 125.32 15.1128C125.161 15.1905 124.985 15.2259 124.809 15.2155C124.569 15.1835 124.342 15.0827 124.157 14.9252C123.969 14.757 123.733 14.652 123.482 14.6253C123.206 14.624 122.937 14.7159 122.719 14.8861C122.48 15.08 122.261 15.2986 122.067 15.5383C121.664 16.0058 121.19 16.4064 120.662 16.7252C120.224 16.9823 119.736 17.1403 119.23 17.1882C118.891 17.218 118.548 17.1815 118.223 17.0806C118.106 17.0481 117.995 16.9951 117.897 16.9241C118.326 17.0618 118.778 17.1106 119.227 17.0675C119.711 17.0069 120.177 16.8435 120.593 16.5882C121.102 16.2711 121.559 15.8786 121.95 15.4241C122.154 15.1829 122.384 14.9643 122.635 14.772C122.884 14.5815 123.191 14.4815 123.505 14.4883C123.784 14.5212 124.045 14.641 124.252 14.8307C124.416 14.9784 124.618 15.0767 124.836 15.1144C124.991 15.1202 125.147 15.0885 125.288 15.0222C125.429 14.9558 125.552 14.8566 125.647 14.7329C125.719 14.6361 125.78 14.5323 125.83 14.4231Z" fill="black"/>
<path d="M125.797 16.8066C125.797 16.8066 125.875 16.8066 126.006 16.8425C126.195 16.8937 126.376 16.974 126.541 17.0805C126.67 17.1621 126.778 17.2751 126.852 17.409C126.927 17.5429 126.967 17.6935 126.968 17.8468C126.941 18.0305 126.875 18.2062 126.774 18.3616C126.672 18.5171 126.538 18.6485 126.381 18.7468C126.082 18.9539 125.727 19.0674 125.363 19.0728C125.067 19.0733 124.776 18.9993 124.516 18.8576C124.344 18.7641 124.19 18.6404 124.062 18.4924C123.974 18.3848 123.942 18.3164 123.948 18.3098C124.138 18.4804 124.347 18.6282 124.571 18.75C124.818 18.866 125.088 18.9229 125.36 18.9163C125.692 18.8978 126.011 18.7847 126.28 18.5903C126.417 18.505 126.535 18.3924 126.626 18.2594C126.718 18.1264 126.781 17.976 126.811 17.8175C126.811 17.6892 126.78 17.5629 126.72 17.4494C126.66 17.3358 126.574 17.2384 126.469 17.1653C126.318 17.0563 126.155 16.9645 125.983 16.8914C125.862 16.8523 125.794 16.8164 125.797 16.8066Z" fill="black"/>
<path d="M115.135 79.2887C115.135 79.3343 108.248 77.2572 99.7867 74.6552C91.3251 72.0531 84.4613 69.9043 84.4874 69.8586C84.5135 69.813 91.374 71.8901 99.8389 74.4921C108.304 77.0942 115.148 79.2332 115.135 79.2887Z" fill="black"/>
<path d="M114.561 80.6223C114.561 80.668 107.674 78.5941 99.2125 75.9921C90.7509 73.39 83.9099 71.2412 83.9099 71.1956C83.9099 71.1499 90.7933 73.2237 99.2581 75.829C107.723 78.4344 114.58 80.5799 114.561 80.6223Z" fill="black"/>
<path d="M114.134 82.0863C114.134 82.1287 107.247 80.0548 98.7855 77.4528C90.3239 74.8507 83.4601 72.7019 83.4862 72.6563C83.5122 72.6106 90.3695 74.6844 98.8344 77.2898C107.299 79.8951 114.147 82.0406 114.134 82.0863Z" fill="black"/>
<path d="M113.7 83.5471C113.7 83.5927 106.813 81.5156 98.3516 78.9136C89.8901 76.3115 83.0262 74.1627 83.0523 74.1171C83.0784 74.0714 89.939 76.1485 98.4038 78.7506C106.869 81.3526 113.713 83.5014 113.7 83.5471Z" fill="black"/>
<path d="M113.257 85.008C113.24 85.0536 106.37 82.9798 97.9085 80.3745C89.4469 77.7692 82.5831 75.6236 82.6092 75.5812C82.6353 75.5388 89.5056 77.6029 97.9705 80.2114C106.435 82.82 113.283 84.9623 113.257 85.008Z" fill="black"/>
<path d="M106.673 53.4735C106.672 53.5485 106.661 53.623 106.641 53.6952C106.621 53.8452 106.556 54.0507 106.484 54.3246C106.338 54.8658 106.109 55.6288 105.816 56.6071C105.229 58.5276 104.388 61.1721 103.445 64.0741C102.503 66.9762 101.626 69.6173 100.987 71.5151C100.661 72.4509 100.41 73.2139 100.22 73.7617C100.132 74.0128 100.057 74.215 100.002 74.3715C99.9812 74.4438 99.9528 74.5138 99.9172 74.5802C99.9268 74.5046 99.9442 74.4303 99.9694 74.3584L100.159 73.7422C100.331 73.1878 100.576 72.4183 100.873 71.4792L103.282 64.0219C104.225 61.1232 105.076 58.4787 105.698 56.5712C106.002 55.6321 106.246 54.8626 106.422 54.3115C106.501 54.0441 106.576 53.8354 106.608 53.6952C106.626 53.6202 106.648 53.5461 106.673 53.4735Z" fill="#E0E0E0"/>
<path d="M115.999 33.3483C115.999 33.3939 115.777 33.3842 115.526 33.3255C115.275 33.2668 115.079 33.182 115.089 33.1363C115.099 33.0907 115.311 33.1005 115.565 33.1592C115.819 33.2179 116.009 33.3026 115.999 33.3483Z" fill="black"/>
<path d="M122.077 58.2831C122.06 58.3255 115.19 56.2125 106.728 53.5616C98.2668 50.9106 91.4029 48.7259 91.429 48.6705C91.4551 48.6151 98.3124 50.7378 106.777 53.3888C115.242 56.0397 122.09 58.2375 122.077 58.2831Z" fill="#EBEBEB"/>
<path d="M104.453 69.2521C104.521 69.2058 104.601 69.1798 104.684 69.1771C104.912 69.1541 105.142 69.208 105.336 69.3303C105.485 69.4179 105.608 69.5434 105.693 69.694C105.778 69.8446 105.821 70.015 105.819 70.1879C105.822 70.4029 105.759 70.6137 105.638 70.7915C105.517 70.9692 105.344 71.1053 105.143 71.1809C104.941 71.2566 104.722 71.2682 104.513 71.2142C104.305 71.1602 104.119 71.0432 103.98 70.8792C103.861 70.7493 103.78 70.5899 103.744 70.4178C103.709 70.2456 103.72 70.0671 103.778 69.9009C103.842 69.6828 103.979 69.4931 104.166 69.3629C104.229 69.3085 104.307 69.2744 104.391 69.2651C104.391 69.2651 104.316 69.314 104.208 69.4151C104.049 69.5506 103.935 69.7315 103.882 69.9335C103.842 70.0768 103.839 70.228 103.875 70.3726C103.91 70.5171 103.982 70.65 104.084 70.7585C104.203 70.8962 104.362 70.9941 104.539 71.039C104.715 71.0839 104.901 71.0738 105.072 71.0099C105.243 70.946 105.39 70.8315 105.494 70.6816C105.597 70.5318 105.653 70.3538 105.652 70.1716C105.658 70.0229 105.625 69.8754 105.556 69.7434C105.488 69.6114 105.386 69.4994 105.261 69.4183C105.092 69.3003 104.891 69.2355 104.684 69.2325C104.528 69.2423 104.453 69.2684 104.453 69.2521Z" fill="#E0E0E0"/>
<path d="M107.364 60.5167C107.432 60.4696 107.513 60.4435 107.596 60.4417C107.824 60.4194 108.053 60.4733 108.248 60.5949C108.396 60.6829 108.519 60.8086 108.603 60.9592C108.687 61.1098 108.73 61.28 108.727 61.4525C108.731 61.6675 108.667 61.8783 108.546 62.0561C108.425 62.2339 108.252 62.3699 108.051 62.4455C107.85 62.5212 107.63 62.5328 107.422 62.4788C107.214 62.4248 107.027 62.3078 106.888 62.1438C106.77 62.0139 106.688 61.8545 106.653 61.6824C106.617 61.5103 106.629 61.3317 106.686 61.1655C106.753 60.9573 106.884 60.7757 107.061 60.6471C107.125 60.5944 107.203 60.5615 107.286 60.5525C107.286 60.5525 107.214 60.6014 107.103 60.6993C106.945 60.8367 106.831 61.0184 106.777 61.221C106.736 61.3639 106.732 61.5152 106.767 61.6599C106.802 61.8046 106.874 61.9377 106.976 62.0459C107.101 62.1728 107.258 62.2632 107.43 62.3075C107.603 62.3517 107.784 62.3481 107.954 62.297C108.121 62.2265 108.264 62.1099 108.367 61.9609C108.47 61.8119 108.528 61.6366 108.535 61.4557C108.541 61.3078 108.508 61.1608 108.44 61.0293C108.372 60.8977 108.271 60.7862 108.147 60.7058C107.975 60.5884 107.774 60.5227 107.566 60.5167C107.452 60.5069 107.367 60.533 107.364 60.5167Z" fill="#E0E0E0"/>
<path d="M102.722 46.4074C102.79 46.3612 102.87 46.3352 102.953 46.3324C103.181 46.3095 103.411 46.3634 103.605 46.4857C103.754 46.5733 103.877 46.6987 103.962 46.8494C104.047 47 104.09 47.1704 104.088 47.3433C104.091 47.5583 104.028 47.7691 103.907 47.9469C103.786 48.1246 103.613 48.2607 103.412 48.3363C103.21 48.412 102.991 48.4236 102.782 48.3696C102.574 48.3156 102.388 48.1986 102.249 48.0345C102.13 47.9047 102.049 47.7453 102.013 47.5732C101.978 47.401 101.989 47.2225 102.047 47.0563C102.111 46.8382 102.248 46.6485 102.435 46.5183C102.498 46.4639 102.577 46.4298 102.66 46.4205C102.66 46.4205 102.588 46.4694 102.477 46.5672C102.319 46.7048 102.205 46.8865 102.151 47.0889C102.111 47.2322 102.108 47.3834 102.144 47.528C102.179 47.6725 102.251 47.8054 102.353 47.9139C102.473 48.0516 102.631 48.1495 102.808 48.1944C102.984 48.2393 103.171 48.2292 103.341 48.1653C103.512 48.1014 103.659 47.9869 103.763 47.837C103.866 47.6872 103.922 47.5092 103.922 47.327C103.927 47.1783 103.894 47.0308 103.825 46.8988C103.757 46.7668 103.655 46.6548 103.53 46.5737C103.361 46.4557 103.16 46.3909 102.953 46.3879C102.823 46.3977 102.725 46.4237 102.722 46.4074Z" fill="#E0E0E0"/>
<path d="M102.213 39.8632C102.255 39.8632 101.499 42.3707 100.524 45.4325C99.549 48.4943 98.7175 50.9758 98.6719 50.9529C98.6262 50.9301 99.3827 48.4454 100.361 45.3804C101.339 42.3153 102.171 39.8502 102.213 39.8632Z" fill="#EBEBEB"/>
<g opacity="0.3">
<path d="M85.0285 68.1467C85.0285 68.1467 89.4729 55.0484 91.175 48.5824C88.9283 51.2692 86.3948 54.3539 85.0742 57.595C83.7454 60.9839 83.7292 64.7465 85.0285 68.1467Z" fill="black"/>
</g>
<path d="M89.8937 102.955C89.4714 103.051 89.1037 103.309 88.8698 103.674C88.6358 104.038 88.5543 104.48 88.6427 104.904C88.7311 105.328 88.9824 105.701 89.3425 105.941C89.7026 106.182 90.1428 106.272 90.5684 106.191C90.994 106.111 91.371 105.866 91.6183 105.511C91.8656 105.155 91.9635 104.717 91.8909 104.29C91.8183 103.863 91.581 103.481 91.2301 103.227C90.8792 102.973 90.4426 102.867 90.0143 102.932" fill="#E6A371"/>
<path d="M141.087 137.711H140.382H139.668C139.668 137.453 139.668 137.189 139.668 136.915C139.668 136.116 139.668 135.36 139.645 134.796C139.619 133.876 139.593 133.876 139.544 133.876C139.495 133.876 139.469 133.876 139.443 134.796C139.427 135.363 139.417 136.116 139.417 136.915C139.417 137.189 139.417 137.453 139.417 137.711H138.302H130.349H123.883C123.883 137.46 123.883 137.206 123.883 136.941C123.883 136.139 123.883 135.386 123.857 134.822C123.831 133.902 123.805 133.902 123.756 133.902C123.707 133.902 123.681 133.902 123.655 134.822C123.655 135.386 123.632 136.143 123.632 136.941C123.632 137.206 123.632 137.46 123.632 137.708H106.885C106.885 137.463 106.885 137.215 106.885 136.954C106.885 136.156 106.885 135.402 106.862 134.835C106.836 133.915 106.81 133.915 106.761 133.915C106.712 133.915 106.686 133.915 106.66 134.835C106.644 135.402 106.634 136.156 106.634 136.954C106.634 137.212 106.634 137.463 106.634 137.708H101.091H90.1508C90.1508 137.466 90.1508 137.222 90.1508 136.964C90.1508 136.165 90.1508 135.412 90.1247 134.845C90.0986 133.925 90.0758 133.925 90.0237 133.925C89.9715 133.925 89.9487 133.925 89.9226 134.845C89.9226 135.412 89.8997 136.165 89.8997 136.964C89.8997 137.222 89.8997 137.466 89.8997 137.708H73.4103C73.4103 137.466 73.4103 137.222 73.4103 136.967C73.4103 136.169 73.4103 135.415 73.3842 134.848C73.3581 133.929 73.332 133.928 73.2831 133.928C73.2342 133.928 73.2081 133.929 73.182 134.848C73.1657 135.415 73.1559 136.169 73.1559 136.967C73.1559 137.222 73.1559 137.466 73.1559 137.708H56.6665C56.6665 137.466 56.6665 137.225 56.6665 136.971C56.6665 136.169 56.6665 135.415 56.6436 134.851C56.6176 133.932 56.5915 133.932 56.5426 133.932C56.4936 133.932 56.4676 133.932 56.4415 134.851C56.4252 135.419 56.4154 136.172 56.4154 136.971C56.4154 137.225 56.4154 137.466 56.4154 137.708H39.9194C39.9194 137.473 39.9194 137.228 39.9194 136.977C39.9194 136.178 39.9194 135.425 39.8933 134.858C39.8672 133.938 39.8444 133.938 39.7922 133.938C39.7401 133.938 39.7172 133.938 39.6911 134.858C39.6911 135.425 39.6683 136.178 39.6683 136.977C39.6683 137.228 39.6683 137.473 39.6683 137.708H23.1854C23.1854 137.473 23.1854 137.232 23.1854 136.981C23.1854 136.182 23.1854 135.428 23.1593 134.861C23.1332 133.942 23.1071 133.942 23.0582 133.942C23.0093 133.942 22.9832 133.942 22.9571 134.861C22.9571 135.428 22.931 136.182 22.931 136.981C22.931 137.232 22.931 137.473 22.931 137.708H5.44378C5.44378 137.551 5.44378 137.382 5.44378 137.235C5.44378 136.501 5.44378 135.81 5.4177 135.278C5.39161 134.434 5.36553 134.434 5.31662 134.434C5.26771 134.434 5.24162 134.434 5.21553 135.278C5.19923 135.797 5.18945 136.488 5.18945 137.235C5.18945 137.395 5.18945 137.561 5.18945 137.704H0.761388V43.8967L0.732042 15.6001V7.91788V5.92231C0.732042 5.47233 0.732042 5.24408 0.732042 5.24408C0.732042 5.23371 0.727919 5.22375 0.720581 5.21642C0.713243 5.20908 0.703291 5.20496 0.692913 5.20496C0.682214 5.20492 0.671898 5.20894 0.664036 5.2162C0.656173 5.22345 0.651346 5.23342 0.650523 5.24408C0.650523 5.24408 0.650523 5.47234 0.650523 5.92558L0.624438 15.6001L0.598352 43.8967L0.572266 137.75V137.835C0.572266 137.846 0.576732 137.857 0.584682 137.865C0.592631 137.873 0.603413 137.877 0.614655 137.877H5.19923C5.19923 138.334 5.19923 138.758 5.21879 139.1C5.24488 139.945 5.27097 139.945 5.31988 139.945C5.36879 139.945 5.39487 139.945 5.42096 139.1C5.42096 138.774 5.43726 138.334 5.44378 137.877H22.9343C22.9343 138.304 22.9343 138.702 22.9539 139.032C22.9799 139.948 23.006 139.948 23.0549 139.948C23.1039 139.948 23.1299 139.948 23.156 139.032C23.156 138.705 23.156 138.304 23.1756 137.877H39.6748C39.6748 138.304 39.6748 138.705 39.6944 139.035C39.7205 139.951 39.7466 139.951 39.7955 139.951C39.8444 139.951 39.8705 139.951 39.8966 139.035C39.8966 138.709 39.9129 138.308 39.9161 137.877H56.4187C56.4187 138.311 56.4186 138.709 56.4382 139.041C56.4643 139.958 56.4871 139.958 56.5393 139.958C56.5915 139.958 56.6143 139.958 56.6404 139.041C56.6404 138.715 56.6404 138.311 56.6599 137.877H73.1592C73.1592 138.311 73.1592 138.712 73.1788 139.045C73.2048 139.961 73.2309 139.961 73.2798 139.961C73.3288 139.961 73.3548 139.961 73.3809 139.045C73.3809 138.719 73.3809 138.311 73.4005 137.877H89.8997C89.8997 138.311 89.8997 138.715 89.9193 139.048C89.9454 139.964 89.9715 139.964 90.0204 139.964C90.0693 139.964 90.0954 139.964 90.1215 139.048C90.1215 138.722 90.1378 138.311 90.1443 137.877H101.107H106.65C106.65 138.317 106.65 138.722 106.67 139.058C106.696 139.974 106.722 139.974 106.771 139.974C106.82 139.974 106.846 139.974 106.872 139.058C106.872 138.732 106.888 138.314 106.891 137.877H123.638C123.638 138.321 123.638 138.732 123.658 139.071C123.684 139.987 123.71 139.987 123.759 139.987C123.808 139.987 123.834 139.987 123.86 139.071C123.86 138.745 123.876 138.321 123.88 137.877H128.715L138.312 137.861H139.43C139.43 138.317 139.43 138.738 139.45 139.084C139.476 140 139.502 140 139.551 140C139.6 140 139.626 140 139.652 139.084C139.652 138.738 139.668 138.314 139.671 137.861H140.382H141.087C141.097 137.86 141.107 137.855 141.114 137.847C141.122 137.84 141.126 137.829 141.126 137.819C141.14 137.813 141.152 137.803 141.158 137.789C141.164 137.775 141.165 137.759 141.16 137.745C141.155 137.731 141.144 137.719 141.13 137.713C141.117 137.706 141.101 137.706 141.087 137.711Z" fill="black"/>
<path d="M33.6952 46.528C33.6952 49.73 31.3475 52.5179 26.1956 52.5179C23.6946 52.5179 21.0599 51.8201 19.3057 50.5811L20.9556 47.379C22.4526 48.4532 24.2521 49.024 26.0945 49.0094C28.1846 49.0094 29.4759 48.1323 29.4759 46.6617C29.4759 45.24 28.5466 44.3107 25.2663 44.3107H20.623L21.5523 34.1405H32.5768V37.4958H25.038L24.7543 40.9293H26.2249C31.5692 40.9261 33.6952 43.326 33.6952 46.528Z" fill="black"/>
<path d="M35.3875 43.1727C35.3875 37.2089 38.6938 33.8275 43.1317 33.8275C47.5695 33.8275 50.8759 37.2089 50.8759 43.1727C50.8759 49.1366 47.5989 52.518 43.1317 52.518C38.6645 52.518 35.3875 49.1366 35.3875 43.1727ZM46.6695 43.1727C46.6695 39.0675 45.2218 37.3654 43.1317 37.3654C41.0415 37.3654 39.6231 39.0675 39.6231 43.1727C39.6231 47.278 41.0676 48.9801 43.1317 48.9801C45.1957 48.9801 46.6695 47.278 46.6695 43.1727Z" fill="black"/>
<path d="M53.7292 39.2534C53.7292 37.9491 54.5281 37.1111 55.6629 37.1111C56.7976 37.1111 57.5834 37.9328 57.5834 39.2534C57.5834 40.574 56.7943 41.3989 55.6629 41.3989C54.5314 41.3989 53.7292 40.5642 53.7292 39.2534ZM56.4748 39.2534C56.4748 38.4219 56.1487 38.0208 55.6629 38.0208C55.177 38.0208 54.8509 38.4317 54.8509 39.2534C54.8509 40.0751 55.177 40.4859 55.6629 40.4859C56.1487 40.4859 56.4748 40.1044 56.4748 39.2534ZM60.2963 37.1991H61.6006L56.2889 44.9759H54.9683L60.2963 37.1991ZM59.0181 42.9217C59.0181 41.6174 59.817 40.7761 60.9387 40.7761C62.0604 40.7761 62.8723 41.6109 62.8723 42.9217C62.8723 44.2325 62.0734 45.064 60.9387 45.064C59.804 45.064 59.0181 44.2325 59.0181 42.9217ZM61.7506 42.9217C61.7506 42.1 61.4246 41.6859 60.9387 41.6859C60.4529 41.6859 60.13 42.0869 60.13 42.9217C60.13 43.7564 60.4561 44.1542 60.9387 44.1542C61.4213 44.1542 61.7376 43.7434 61.7376 42.9217H61.7506Z" fill="black"/>
<path d="M60.5831 59.9328C60.5831 59.9784 51.6683 60.0176 40.6732 60.0176C29.678 60.0176 20.7632 59.9784 20.7632 59.9328C20.7632 59.8871 29.678 59.848 40.6732 59.848C51.6683 59.848 60.5831 59.8839 60.5831 59.9328Z" fill="black"/>
<path d="M60.5831 63.4544C60.5831 63.5001 51.6683 63.5392 40.6732 63.5392C29.678 63.5392 20.7632 63.5001 20.7632 63.4544C20.7632 63.4088 29.678 63.3696 40.6732 63.3696C51.6683 63.3696 60.5831 63.4055 60.5831 63.4544Z" fill="black"/>
<path d="M60.5831 66.976C60.5831 67.0217 51.6683 67.0608 40.6732 67.0608C29.678 67.0608 20.7632 67.0217 20.7632 66.976C20.7632 66.9304 29.678 66.8912 40.6732 66.8912C51.6683 66.8912 60.5831 66.9271 60.5831 66.976Z" fill="black"/>
</svg>
