<svg width="79" height="77" viewBox="0 0 79 77" fill="none" xmlns="http://www.w3.org/2000/svg">
<path d="M78.4016 39.251C78.2192 38.4692 78.1264 37.67 78.1249 36.8681C78.0904 35.9083 77.9815 34.9524 77.7994 34.0086C77.6361 32.7108 77.3778 31.426 77.0263 30.1642C76.1795 26.6893 74.8082 23.3565 72.9572 20.2752C70.5209 16.1859 67.3054 12.5893 63.4843 9.67931C58.5635 5.88422 52.7469 3.35285 46.5658 2.31639C40.3846 1.27992 34.036 1.77139 28.0995 3.74591C24.6786 4.84781 21.4509 6.45508 18.529 8.51169C17.0125 9.55823 15.5689 10.7019 14.2077 11.9351C12.8614 13.2341 11.6053 14.6193 10.4478 16.0813C5.58223 22.2124 2.85339 29.7017 2.66012 37.4545C2.46684 45.2073 4.81928 52.8172 9.37359 59.172C10.4568 60.6875 11.6422 62.1311 12.9218 63.493C14.2216 64.7857 15.6053 65.9955 17.0642 67.115C19.8825 69.3079 23.0276 71.0677 26.3905 72.3335C34.522 75.4347 43.502 75.6959 51.8082 73.0727C60.1144 70.4495 67.2356 65.1034 71.9643 57.9408C73.9763 54.9547 75.518 51.6909 76.538 48.2583C76.9477 47.0133 77.2686 45.742 77.4983 44.4537C77.7287 43.5214 77.8865 42.5735 77.9703 41.618C78.0088 40.812 78.1398 40.0127 78.3609 39.2351C78.4541 40.0268 78.4541 40.8263 78.3609 41.618C78.3543 42.593 78.2618 43.5656 78.0842 44.5251C77.9178 45.8491 77.6457 47.1584 77.2704 48.441C76.3688 52.004 74.8966 55.4057 72.9083 58.5207C70.0207 63.136 66.1551 67.095 61.5708 70.1322C56.9865 73.1695 51.7897 75.2145 46.3291 76.1302C39.3937 77.2628 32.274 76.555 25.715 74.0809C22.1642 72.7768 18.8402 70.9471 15.8597 68.6559C14.314 67.4825 12.8487 66.2115 11.4732 64.8512C10.117 63.4208 8.86087 61.9029 7.7134 60.3078C2.87968 53.6123 0.380103 45.577 0.583797 37.3887C0.787491 29.2004 3.68364 21.293 8.84459 14.8343C10.072 13.295 11.4042 11.8381 12.8323 10.4736C14.2712 9.1797 15.7964 7.98033 17.3978 6.88338C20.4913 4.7418 23.9028 3.07562 27.5136 1.94285C34.1874 -0.211703 41.3307 -0.58197 48.2008 0.870551C53.6267 2.03679 58.7336 4.32386 63.178 7.57785C67.6223 10.8319 71.301 14.9773 73.9663 19.7351C75.7994 22.942 77.1039 26.4105 77.8319 30.0133C78.136 31.32 78.3346 32.6479 78.426 33.9848C78.5557 34.951 78.5992 35.9263 78.5562 36.8999C78.5947 37.6868 78.5429 38.4754 78.4016 39.251Z" fill="#E1E4EA"/>
<path d="M70.497 15.0065C70.5769 15.1269 69.898 15.7633 68.588 16.8124L66.1917 18.6871C65.7125 19.0397 65.2093 19.4439 64.6501 19.8222L62.797 20.8628C56.0596 25.0079 48.3972 27.0896 40.6396 26.8825L37.2849 26.7191L34.0898 26.1773C33.5707 26.0827 33.0435 26.0053 32.5323 25.8935L31.0306 25.4635C30.0401 25.1712 29.0577 24.9218 28.1311 24.6036C24.826 23.4163 21.6498 21.8478 18.6579 19.9254C13.6098 16.6404 11.1496 13.6478 11.3413 13.4586C11.533 13.2694 14.2887 15.7117 19.3768 18.5495C22.3453 20.2144 25.4462 21.59 28.6423 22.6601C29.5449 22.9439 30.4875 23.1589 31.438 23.4169L32.8837 23.8038L34.3854 24.0532L37.4606 24.5348L40.6556 24.6724C48.0875 24.8521 55.4483 23.0812 62.1021 19.5127L63.9792 18.6527C64.5543 18.3345 65.0735 17.9905 65.5767 17.6896L68.1806 16.09C69.5705 15.2731 70.4092 14.9205 70.497 15.0065Z" fill="#E1E4EA"/>
<path d="M9.99367 61.664C9.90569 61.5434 10.5855 60.9063 11.8972 59.8558L14.2967 57.9787C14.7766 57.6171 15.2805 57.221 15.8403 56.8421L17.7039 55.8003C24.4469 51.6486 32.1173 49.5641 39.8828 49.773L43.242 49.9366L46.4413 50.479C46.9692 50.5738 47.4891 50.6513 48.0009 50.7632L49.5126 51.1937C50.4964 51.4865 51.4801 51.7362 52.4079 52.0548C55.692 53.2432 58.848 54.8078 61.8218 56.7216C66.8766 60.0108 69.34 63.0072 69.1481 63.1967C68.9561 63.3861 66.1967 60.9407 61.1019 58.0993C58.1335 56.4451 55.0339 55.0792 51.8401 54.0179C50.9363 53.7338 49.9925 53.5185 49.0407 53.2516L47.593 52.8727L46.1454 52.6661L43.0661 52.1839L39.8668 52.0375C32.4251 51.8586 25.0548 53.6317 18.3917 57.2038L16.5122 58.0648C15.9363 58.3834 15.4164 58.7278 14.9125 59.0292L12.3371 60.5533C10.9135 61.3971 10.0737 61.7931 9.99367 61.664Z" fill="#E1E4EA"/>
<path d="M78.5719 40.1158C78.5719 40.3953 61.3812 40.4225 40.2077 40.1779C19.0343 39.9334 1.91675 39.5063 1.91675 39.2268C1.91675 38.9473 19.0994 38.924 40.2809 39.1686C61.4625 39.4132 78.5801 39.8596 78.5719 40.1158Z" fill="#E1E4EA"/>
<path d="M38.6838 76.6552C38.1245 76.6552 38.0702 59.4689 38.5673 38.3073C39.0644 17.1456 39.9033 -0.0162479 40.4626 1.15438e-05C41.0219 0.016271 41.0685 17.1781 40.5791 38.356C40.0897 59.534 39.212 76.6714 38.6838 76.6552Z" fill="#E1E4EA"/>
<path d="M39.0226 76.6427C38.8721 76.8702 34.5227 74.0011 29.5126 67.5231C26.5829 63.711 24.2101 59.5233 22.4616 55.0791C20.3287 49.5924 19.2925 43.7607 19.4087 37.8966C19.5521 32.027 20.9059 26.2449 23.39 20.8929C25.3812 16.5458 27.9637 12.478 31.0683 8.79843C36.3795 2.55614 40.7624 -0.207371 40.9129 0.0120844C41.0635 0.23154 37.1574 3.39332 32.2811 9.71689C29.4357 13.3978 27.057 17.3985 25.1967 21.6325C22.9318 26.7775 21.6942 32.2942 21.5499 37.8885C21.4442 43.4968 22.3792 49.0777 24.3101 54.3639C25.9179 58.6884 28.0759 62.8005 30.7338 66.6046C35.3006 73.1964 39.215 76.4151 39.0226 76.6427Z" fill="#E1E4EA"/>
<path d="M40.1431 0.0117061C40.2934 -0.207845 44.6362 2.65445 49.6471 9.1434C52.5727 12.9569 54.942 17.1465 56.6874 21.5927C58.8139 27.0799 59.8484 32.9109 59.7357 38.7746C59.5861 44.6495 58.2316 50.436 55.7521 55.7939C53.7489 60.1298 51.1592 64.1854 48.052 67.8529C42.7488 74.0979 38.3725 76.8626 38.2306 76.6431C38.0886 76.4235 41.9804 73.2604 46.8493 66.9341C49.6876 63.2541 52.0599 59.2543 53.9147 55.0214C56.1743 49.8732 57.4126 44.355 57.5644 38.7584C57.6673 33.1497 56.7309 27.569 54.8 22.2839C53.1941 17.9552 51.0395 13.8386 48.386 10.0297C43.8344 3.4676 39.9259 0.24752 40.1431 0.0117061Z" fill="#E1E4EA"/>
</svg>
